# Blender v2.76 (sub 0) OBJ File: ''
# www.blender.org
mtllib Terrain3.mtl
o Plane.003
v -1.419784 0.000000 1.419784
v -1.893046 0.000000 1.419784
v -1.893046 0.000000 1.893046
v -1.419784 0.000000 1.893046
v 0.473583 0.036737 1.430781
v 0.000000 0.072844 1.441597
v 0.000000 0.000000 1.893046
v 0.473261 0.000000 1.893046
v -1.419904 0.001024 -0.473357
v -1.893046 -0.000000 -0.473261
v -1.893046 0.000000 0.000000
v -1.422341 0.004613 0.000621
v -0.585639 1.094294 -0.734420
v -1.077059 0.928486 -0.555232
v -1.118321 0.482418 0.047558
v -0.673669 1.853878 0.161133
v -0.474207 0.038062 -1.423588
v -0.947761 0.013551 -1.421406
v -1.014238 0.707729 -1.014362
v -0.495220 0.719109 -1.071988
v -1.419784 -0.000000 -1.419784
v -1.893046 -0.000000 -1.419784
v -1.893046 -0.000000 -0.946523
v -1.421464 0.015018 -0.948021
v 1.419904 0.001024 -0.473357
v 1.077059 0.928486 -0.555232
v 1.118321 0.482418 0.047558
v 1.422341 0.004613 0.000621
v 1.419784 -0.000000 -1.419784
v 0.947761 0.013551 -1.421406
v 1.014238 0.707729 -1.014362
v 1.421464 0.015018 -0.948021
v 0.474207 0.038062 -1.423588
v 0.000000 0.005809 -1.420532
v 0.000000 0.656346 -1.109415
v 0.495220 0.719109 -1.071988
v 1.419784 0.000000 1.419784
v 0.946523 0.000000 1.419784
v 0.946523 0.000000 1.893046
v 1.419784 0.000000 1.893046
v 1.433670 0.025185 0.476882
v 1.255990 0.607337 0.553287
v 0.989128 0.130280 0.961881
v 1.422090 0.004213 0.947166
v 0.711709 1.917583 0.601253
v 0.000000 2.100523 0.701032
v 0.000000 0.519360 1.099944
v 0.728417 0.806204 1.095733
v -0.473583 0.036737 1.430781
v -0.946523 0.000000 1.419784
v -0.946523 0.000000 1.893046
v -0.473261 0.000000 1.893046
v -0.711709 1.917583 0.601253
v -1.255990 0.607337 0.553287
v -0.989128 0.130280 0.961881
v -0.728417 0.806204 1.095733
v -1.433670 0.025185 0.476882
v -1.893046 0.000000 0.473261
v -1.893046 0.000000 0.946523
v -1.422090 0.004213 0.947166
v 0.673669 1.853878 0.161133
v 1.893046 0.000000 0.473261
v 1.893046 0.000000 0.946523
v 1.893046 0.000000 0.000000
v 1.893046 0.000000 1.419784
v 1.893046 0.000000 1.893046
v 0.946523 -0.000000 -1.893046
v 0.473261 -0.000000 -1.893046
v 0.000000 -0.000000 -1.893046
v 1.893046 -0.000000 -1.419784
v 1.893046 -0.000000 -0.946523
v 1.893046 -0.000000 -1.893046
v 1.419784 -0.000000 -1.893046
v 1.893046 -0.000000 -0.473261
v -0.946523 -0.000000 -1.893046
v -1.419784 -0.000000 -1.893046
v -1.893046 -0.000000 -1.893046
v -0.473261 -0.000000 -1.893046
v 0.000000 1.608019 -0.558456
v 0.585639 1.094294 -0.734420
v 0.000000 1.928684 -0.396623
v 0.000000 3.262708 0.276627
vt 0.446523 0.790108
vt 0.446523 0.553477
vt 0.209892 0.553477
vt 0.500000 0.779202
vt 0.500000 0.553477
vt 0.263370 0.553477
vt 0.446523 0.736630
vt 0.446523 0.500000
vt 0.211170 0.499689
vt -0.035757 0.777616
vt -0.258791 0.476221
vt 0.426939 0.419434
vt 0.973881 0.506775
vt 1.007119 0.853864
vt 0.747610 0.859555
vt 0.446523 0.209892
vt 0.446523 -0.026739
vt 0.210732 -0.025990
vt 0.500512 0.736678
vt 0.964243 0.777616
vt 0.741209 0.476221
vt 1.026119 0.210703
vt 0.992881 0.007181
vt 0.789268 -0.025990
vt 0.262896 0.519031
vt 0.500000 0.502904
vt 0.500000 0.828173
vt 1.026739 0.790108
vt 1.026739 0.553477
vt 0.790108 0.553477
vt 0.512592 0.261559
vt 0.803668 0.223356
vt 0.565140 0.019060
vt 0.500000 0.550261
vt 0.500000 -0.240320
vt 0.135792 -0.096898
vt 0.736791 0.784609
vt 0.973261 0.790108
vt 0.973261 0.553477
vt -0.196332 0.223356
vt -0.434860 0.019060
vt -0.096898 -0.047867
vt 0.216835 0.261559
vt 0.446523 0.263370
vt 0.446523 0.026738
vt 0.502106 0.026417
vt 0.502307 0.499689
vt 0.855855 0.458791
vt 0.864208 -0.096898
vt 0.736630 0.553477
vt 0.500000 0.759680
vt 0.864208 0.903102
vt 0.736791 0.518368
vt 0.994564 0.565140
vt 0.973261 0.500000
vt 1.458791 0.199374
vt 0.903102 -0.047867
vt 1.426939 0.419434
vt 0.783165 0.261559
vt 0.788955 0.026417
vt 0.553477 0.026738
vt 0.553477 0.500000
vt 0.788830 0.499689
vt 0.790108 0.790108
vt 0.553477 0.553477
vt 0.790108 -0.209892
vt 0.553477 -0.209892
vt 1.005436 0.019060
vt 1.026739 -0.209892
vt 0.026120 0.506775
vt 0.252390 0.859555
vt 0.026738 0.446523
vt 0.263370 0.446523
vt 0.262896 0.211794
vt 0.500000 0.446523
vt 0.500000 0.210266
vt 0.553477 0.209892
vt 0.790108 0.209892
vt 0.790108 0.446523
vt 1.026739 0.446523
vt 0.553477 0.736630
vt 0.790048 0.736678
vt 0.553477 0.973261
vt 0.789268 0.974010
vt 0.853864 1.007181
vt 0.973881 0.210703
vt 1.209892 0.209892
vt 1.210732 -0.025990
vt 1.209892 0.446523
vt 0.446523 0.446523
vt 0.209892 0.209892
vt 0.737104 0.519031
vt 0.736630 0.446523
vt 0.737104 0.211794
vt 0.973261 0.446523
vt 0.792819 1.047147
vt 1.007119 0.007181
vt 1.038530 -0.222384
vt 0.792819 -0.132790
vt 0.853864 0.007181
vt 0.507509 -0.025990
vt 0.500512 -0.263322
vt 0.446523 0.973261
vt 0.209952 0.736678
vt 1.047147 0.867210
vt 1.252390 0.035994
vt 1.207181 -0.132790
vt 0.500000 1.304009
vt 0.207181 1.047147
vt 0.263209 0.784609
vt 0.026738 0.553477
vt 0.005436 0.565140
vt 0.135792 0.903102
vt 0.263209 0.518368
vt 0.500000 0.536422
vt 1.209892 0.790108
vt 1.209892 0.553477
vt 0.994564 0.019060
vt 1.211045 0.026417
vt 1.209892 -0.209892
vt 0.211045 0.026417
vt 0.446523 -0.209892
vt 0.500000 0.304009
vt 0.792819 0.047147
vt 0.836834 0.426939
vt 0.500000 0.464342
vt 0.163166 0.426939
vt 0.209892 0.790108
vt 0.047147 0.867210
vt 0.144145 0.458791
vt 0.458791 0.199374
vt 0.553477 0.263370
vt 0.553477 0.790108
vt -0.007119 0.853864
vt 0.026120 0.210703
vt 0.553477 -0.026739
vt 0.553477 0.446523
vt 0.507509 0.974010
vt 0.209892 0.446523
vt 0.747610 0.035994
vt 0.964243 -0.222384
vt 0.210732 0.974010
vt 0.961470 -0.222384
vt 0.026738 0.790108
vt 0.026738 0.500000
vt 0.973261 -0.209892
vt 0.209892 -0.209892
vt 0.207181 0.047147
vt 0.500000 1.131354
vt 1.131354 0.361686
vt 0.500000 0.131354
vt 0.500000 -0.449739
vt 0.144145 -0.541209
vt 0.131354 0.361686
vt -0.573061 0.419434
vt -0.541209 0.199374
vn 0.000000 1.000000 -0.000000
vn 0.038300 0.992000 0.119900
vn 0.000000 0.987200 0.159300
vn 0.039800 0.992200 0.118400
vn -0.006000 1.000000 -0.003800
vn -0.009800 1.000000 -0.000000
vn -0.827800 0.521400 -0.207400
vn -0.943800 0.293400 0.152500
vn -0.820400 0.527800 -0.219800
vn -0.057500 0.472500 -0.879500
vn -0.106600 0.495300 -0.862100
vn -0.080100 0.483200 -0.871900
vn -0.015900 0.999700 -0.015900
vn -0.031800 0.999500 -0.000000
vn 0.887700 0.449800 0.098300
vn 0.913100 0.355200 0.200400
vn 0.898900 0.416700 0.135400
vn 0.488800 0.720800 -0.491400
vn 0.667200 0.328200 -0.668700
vn 0.489200 0.720300 -0.491800
vn -0.018400 0.441700 -0.897000
vn -0.035100 0.431200 -0.901600
vn -0.006400 0.449100 -0.893500
vn 0.668600 0.557700 0.491900
vn 0.744800 0.141800 0.652000
vn 0.642600 0.616100 0.455500
vn 0.115300 0.348600 0.930200
vn -0.090400 0.243600 0.965700
vn -0.009300 0.286900 0.957900
vn -0.038800 0.998500 0.039700
vn -0.077400 0.997000 -0.000000
vn -0.039300 0.998500 0.039100
vn -0.738400 0.218500 0.638000
vn -0.735900 0.153200 0.659500
vn -0.738400 0.235000 0.632000
vn -0.032000 0.999200 0.022300
vn -0.054700 0.998500 -0.000000
vn -0.031600 0.999200 0.022700
vn -0.668600 0.557700 0.491900
vn -0.280800 0.958500 0.049700
vn -0.642600 0.616100 0.455500
vn -0.885200 0.416900 -0.206200
vn -0.841000 0.539300 -0.043300
vn -0.880000 0.440700 -0.177000
vn -0.031700 0.999200 -0.022200
vn -0.032300 0.999200 -0.021600
vn -0.115300 0.348600 0.930200
vn -0.227100 0.398700 0.888500
vn 0.009300 0.286900 0.957900
vn -0.912000 0.371000 -0.174900
vn -0.892800 0.316000 -0.321100
vn -0.899200 0.329500 -0.288000
vn -0.038300 0.992000 0.119900
vn -0.077600 0.993800 0.079000
vn -0.039800 0.992200 0.118400
vn 0.085400 0.505000 0.858900
vn 0.168100 0.439800 0.882200
vn 0.062000 0.522200 0.850600
vn -0.535800 0.490900 0.687000
vn -0.080800 0.956700 0.279700
vn -0.488000 0.580000 0.652200
vn 0.738400 0.218500 0.638000
vn 0.737300 0.283800 0.613000
vn 0.738400 0.235000 0.632000
vn 0.912000 0.371000 -0.174900
vn 0.913300 0.384300 -0.134600
vn 0.899200 0.329500 -0.288000
vn 0.032000 0.999200 0.022300
vn 0.009000 0.999000 0.044800
vn 0.031600 0.999200 0.022700
vn 0.031700 0.999200 -0.022200
vn 0.009700 0.999000 -0.043400
vn 0.032300 0.999200 -0.021600
vn 0.885200 0.416900 -0.206200
vn 0.893300 0.314800 -0.320900
vn 0.880000 0.440700 -0.177000
vn 0.004500 1.000000 0.004500
vn 0.000000 1.000000 0.008900
vn 0.142800 0.979200 0.144300
vn 0.000000 0.961800 0.273700
vn 0.137600 0.979200 0.149200
vn 0.057500 0.472500 -0.879500
vn 0.027800 0.457900 -0.888600
vn 0.080100 0.483200 -0.871900
vn 0.026000 0.998200 -0.054700
vn 0.000000 0.996700 -0.080800
vn 0.025900 0.998200 -0.054900
vn -0.034200 0.998300 -0.046400
vn -0.067900 0.997600 -0.012300
vn -0.034000 0.998300 -0.046600
vn 0.015900 0.999700 -0.015900
vn 0.000000 0.999500 -0.031800
vn 0.014400 0.999800 -0.014400
vn 0.000000 0.999600 -0.028700
vn 0.006000 1.000000 -0.003800
vn 0.002200 1.000000 -0.007600
vn 0.017000 0.999700 0.014800
vn 0.031700 0.999100 0.029600
vn 0.016900 0.999700 0.014800
vn 0.907800 0.370400 -0.196800
vn 0.909600 0.312000 -0.274500
vn 0.891300 0.445000 -0.087000
vn -0.488800 0.720800 -0.491400
vn -0.028800 0.999100 -0.031900
vn -0.489200 0.720300 -0.491800
vn -0.014400 0.999800 -0.014400
vn -0.028700 0.999600 -0.000000
vn 0.018400 0.441700 -0.897000
vn -0.009100 0.458500 -0.888600
vn 0.006400 0.449100 -0.893500
vn 0.034200 0.998300 -0.046400
vn 0.034000 0.998300 -0.046600
vn -0.026000 0.998200 -0.054700
vn -0.051800 0.998200 -0.028800
vn -0.025900 0.998200 -0.054900
vn -0.087200 0.578100 -0.811300
vn 0.029300 0.672500 -0.739500
vn -0.117500 0.550600 -0.826500
vn -0.276900 0.745800 -0.605900
vn -0.426800 0.790900 -0.438600
vn -0.266600 0.741500 -0.615700
vn -0.887700 0.449800 0.098300
vn -0.843300 0.537400 -0.008400
vn -0.898900 0.416700 0.135400
vn -0.907800 0.370400 -0.196800
vn -0.861200 0.508000 0.017800
vn -0.891300 0.445000 -0.087000
vn -0.017000 0.999700 0.014800
vn -0.002200 1.000000 -0.000000
vn -0.016900 0.999700 0.014800
vn 0.827800 0.521400 -0.207400
vn 0.443700 0.661500 -0.604700
vn 0.820400 0.527800 -0.219800
vn 0.276900 0.745800 -0.605900
vn 0.097700 0.652500 -0.751400
vn 0.266600 0.741500 -0.615700
vn 0.087200 0.578100 -0.811300
vn 0.176700 0.493200 -0.851800
vn 0.117500 0.550600 -0.826500
vn 0.038800 0.998500 0.039700
vn 0.000000 0.996900 0.079200
vn 0.039300 0.998500 0.039100
vn 0.535800 0.490900 0.687000
vn 0.658400 0.106400 0.745100
vn 0.488000 0.580000 0.652200
vn -0.085400 0.505000 0.858900
vn 0.064300 0.606400 0.792500
vn -0.062000 0.522200 0.850600
vn -0.142800 0.979200 0.144300
vn -0.279900 0.960000 0.009900
vn -0.137600 0.979200 0.149200
vn -0.004500 1.000000 0.004500
vn -0.008900 1.000000 -0.000000
vn -0.506600 0.551500 -0.662700
vn -0.408600 0.675900 -0.613400
vn -0.485600 0.581000 -0.653100
vn 0.506600 0.551500 -0.662700
vn 0.619500 0.353700 -0.700800
vn 0.485600 0.581000 -0.653100
vn 0.077600 0.993800 0.079000
vn -0.002200 1.000000 -0.007600
vn -0.443700 0.661500 -0.604700
vn -0.027800 0.457900 -0.888600
vn 0.843300 0.537400 -0.008400
vn 0.028800 0.999100 -0.031900
vn 0.009100 0.458500 -0.888600
vn 0.280800 0.958500 0.049700
vn 0.227100 0.398700 0.888500
vn -0.737300 0.283800 0.613000
vn -0.009000 0.999000 0.044800
vn -0.744800 0.141800 0.652000
vn -0.893300 0.314800 -0.320900
vn -0.009700 0.999000 -0.043400
vn 0.090400 0.243600 0.965700
vn -0.913300 0.384300 -0.134600
vn -0.064300 0.606400 0.792500
vn -0.658400 0.106400 0.745100
vn 0.735900 0.153200 0.659500
vn 0.892800 0.316000 -0.321100
vn 0.054700 0.998500 -0.000000
vn 0.841000 0.539300 -0.043300
vn 0.008900 1.000000 -0.000000
vn 0.279900 0.960000 0.009900
vn 0.106600 0.495300 -0.862100
vn 0.051800 0.998200 -0.028800
vn 0.031800 0.999500 -0.000000
vn 0.028700 0.999600 -0.000000
vn 0.009800 1.000000 -0.000000
vn 0.002200 1.000000 -0.000000
vn 0.861200 0.508000 0.017800
vn -0.667200 0.328200 -0.668700
vn 0.035100 0.431200 -0.901600
vn 0.067900 0.997600 -0.012300
vn -0.176700 0.493200 -0.851800
vn -0.097700 0.652500 -0.751400
vn -0.913100 0.355200 0.200400
vn -0.909600 0.312000 -0.274500
vn -0.031700 0.999100 0.029600
vn 0.943800 0.293400 0.152500
vn 0.426800 0.790900 -0.438600
vn -0.029300 0.672500 -0.739500
vn 0.077400 0.997000 -0.000000
vn 0.080800 0.956700 0.279700
vn -0.168100 0.439800 0.882200
vn -0.619500 0.353700 -0.700800
vn 0.408600 0.675900 -0.613400
vn -0.214700 0.335000 0.917400
vn 0.888800 0.436500 -0.140000
vn 0.214700 0.335000 0.917400
vn -0.888800 0.436500 -0.140000
usemtl Material.041
s 1
f 2/1/1 3/2/1 4/3/1
f 6/4/2 7/5/3 8/6/4
f 10/7/5 11/8/6 12/9/5
f 14/10/7 15/11/8 16/12/9
f 18/13/10 19/14/11 20/15/12
f 22/16/13 23/17/14 24/18/13
f 25/19/15 26/20/16 27/21/17
f 30/22/18 31/23/19 32/24/20
f 33/25/21 34/26/22 35/27/23
f 38/28/1 39/29/1 40/30/1
f 41/31/24 42/32/25 43/33/26
f 46/34/27 47/35/28 48/36/29
f 49/37/30 50/38/31 51/39/32
f 54/40/33 55/41/34 56/42/35
f 57/43/36 58/44/37 59/45/38
f 57/31/39 60/46/40 55/33/41
f 15/21/42 12/47/43 57/31/44
f 11/8/45 58/44/37 57/43/46
f 46/34/47 53/48/48 56/49/49
f 16/12/50 15/11/51 54/40/52
f 6/4/53 49/37/54 52/50/55
f 47/51/56 56/52/57 49/53/58
f 55/54/59 50/55/60 49/53/61
f 42/32/62 45/56/63 48/57/64
f 61/58/65 45/56/66 42/32/67
f 41/59/68 44/60/69 63/61/70
f 64/62/71 28/63/72 41/59/73
f 27/21/74 42/32/75 41/31/76
f 37/64/1 40/30/1 66/65/1
f 44/60/77 37/66/78 65/67/77
f 43/68/79 38/69/80 37/66/81
f 30/70/82 33/25/83 36/71/84
f 67/72/85 68/73/86 33/74/87
f 69/75/88 34/76/89 33/74/90
f 70/77/91 29/78/92 32/24/91
f 73/79/1 29/78/1 70/77/1
f 73/79/93 67/80/94 30/22/93
f 74/81/95 25/82/96 28/63/95
f 71/83/97 32/84/98 25/82/99
f 31/85/100 26/20/101 25/19/102
f 18/86/103 21/87/104 24/88/105
f 76/89/106 21/87/107 18/86/106
f 77/90/1 22/16/1 21/91/1
f 17/92/108 20/15/109 35/27/110
f 69/75/111 78/93/86 17/94/112
f 75/95/113 18/86/114 17/94/115
f 35/27/116 20/15/117 13/96/118
f 19/97/119 14/98/120 13/99/121
f 9/19/122 12/47/123 15/21/124
f 19/100/125 24/101/126 9/102/127
f 23/103/128 10/7/129 9/104/130
f 26/20/131 80/105/132 61/58/133
f 31/23/134 36/106/135 80/107/136
f 35/27/137 79/108/138 80/109/139
f 5/110/140 8/6/141 39/111/142
f 43/112/143 48/113/144 5/114/145
f 47/51/146 6/115/147 5/114/148
f 1/116/1 4/117/1 51/39/1
f 55/118/149 60/119/150 1/120/151
f 60/121/152 59/45/153 2/122/152
f 79/123/154 13/124/155 16/125/156
f 79/123/157 81/126/158 61/127/159
f 1/128/1 2/1/1 4/3/1
f 5/110/160 6/4/2 8/6/4
f 9/104/161 10/7/5 12/9/5
f 13/129/162 14/10/7 16/12/9
f 17/92/163 18/13/10 20/15/12
f 21/91/92 22/16/13 24/18/13
f 28/47/164 25/19/15 27/21/17
f 29/78/165 30/22/18 32/24/20
f 36/71/166 33/25/21 35/27/23
f 37/64/1 38/28/1 40/30/1
f 44/46/167 41/31/24 43/33/26
f 45/130/168 46/34/27 48/36/29
f 52/50/141 49/37/30 51/39/32
f 53/131/169 54/40/33 56/42/35
f 60/121/170 57/43/36 59/45/38
f 54/32/171 57/31/39 55/33/41
f 54/32/172 15/21/42 57/31/44
f 12/9/173 11/8/45 57/43/46
f 47/35/174 46/34/47 56/49/49
f 53/131/175 16/12/50 54/40/52
f 7/5/3 6/4/53 52/50/55
f 6/115/176 47/51/56 49/53/58
f 56/52/177 55/54/59 49/53/61
f 43/33/178 42/32/62 48/57/64
f 27/21/179 61/58/65 42/32/67
f 62/132/180 41/59/68 63/61/70
f 62/132/180 64/62/71 41/59/73
f 28/47/181 27/21/74 41/31/76
f 65/133/1 37/64/1 66/65/1
f 63/61/182 44/60/77 65/67/77
f 44/60/183 43/68/79 37/66/81
f 31/134/184 30/70/82 36/71/84
f 30/135/185 67/72/85 33/74/87
f 68/73/86 69/75/88 33/74/90
f 71/136/186 70/77/91 32/24/91
f 72/137/1 73/79/1 70/77/1
f 29/78/187 73/79/93 30/22/93
f 64/62/188 74/81/95 28/63/95
f 74/81/189 71/83/97 25/82/99
f 32/138/190 31/85/100 25/19/102
f 19/97/191 18/86/103 24/88/105
f 75/95/94 76/89/106 18/86/106
f 76/139/1 77/90/1 21/91/1
f 34/26/192 17/92/108 35/27/110
f 34/76/193 69/75/111 17/94/112
f 78/93/86 75/95/113 17/94/115
f 79/108/194 35/27/116 13/96/118
f 20/140/195 19/97/119 13/99/121
f 14/20/196 9/19/122 15/21/124
f 14/141/197 19/100/125 9/102/127
f 24/142/198 23/103/128 9/104/130
f 27/21/199 26/20/131 61/58/133
f 26/143/200 31/23/134 80/107/136
f 36/71/201 35/27/137 80/109/139
f 38/144/202 5/110/140 39/111/142
f 38/145/203 43/112/143 5/114/145
f 48/113/204 47/51/146 5/114/148
f 50/38/1 1/116/1 51/39/1
f 50/146/80 55/118/149 1/120/151
f 1/147/78 60/121/152 2/122/152
f 81/126/205 79/123/154 16/125/156
f 80/148/206 79/123/157 61/127/159
usemtl Material.042
f 61/127/158 81/126/158 82/149/158
f 46/34/207 82/149/207 53/48/207
f 61/12/208 82/150/208 45/131/208
f 81/126/205 16/125/205 82/149/205
f 82/151/209 46/152/209 45/153/209
f 82/154/210 16/155/210 53/156/210
