# Blender v2.76 (sub 0) OBJ File: ''
# www.blender.org
mtllib Terrain.mtl
o Plane
v -0.838454 2.023218 -0.252422
v -1.188218 0.634588 -0.452489
v -1.475427 0.187047 -0.055927
v 1.438305 0.048266 -1.323131
v 0.776857 0.221921 -1.532069
v 0.773998 0.570907 -1.318146
v -0.484911 0.354838 1.228388
v -1.205291 0.057683 0.896048
v -0.234525 0.016871 1.887662
v -0.822321 0.887653 0.578412
v 0.000000 0.672008 1.124129
v -0.622657 2.338361 0.229169
v -0.609058 2.339588 0.236658
v 0.618811 2.366297 0.222443
v 0.000000 2.378872 0.442959
v 1.475427 0.187047 -0.055927
v 1.205291 0.057683 0.896047
v 1.888955 0.017201 0.524797
v 1.881520 -0.004502 -1.879552
v 1.188218 0.634586 -0.452487
v -1.291214 0.085371 -1.496710
v -0.773998 0.570907 -1.318146
v 0.000000 0.842328 -1.387051
v -1.881221 -0.005744 -1.879337
v 0.838454 2.023218 -0.252422
v 0.484911 0.354839 1.228388
v -1.888955 0.017204 0.524814
v -1.883383 -0.006228 1.883192
v -0.630367 2.336902 0.218690
v 1.883001 -0.015256 1.881417
v -0.618813 2.366296 0.222444
v 0.822322 0.887651 0.578410
v 0.000000 2.002817 -0.741879
v 0.000000 2.662318 -0.375231
v 0.000000 2.944013 0.217424
vt 0.500000 0.687616
vt 0.500000 0.391288
vt 0.190594 0.388779
vt 0.919227 0.626211
vt 0.809407 0.388778
vt 0.500000 0.501408
vt 0.500000 0.831159
vt 0.080773 0.511609
vt 0.080773 0.626211
vt 0.919227 0.511609
vt 0.809407 0.683148
vt 0.804529 0.669794
vt 0.500000 0.689436
vt 0.190594 0.683149
vt 0.500000 0.972007
vt 0.511609 0.626211
vt -0.182706 0.726245
vt -0.406476 0.527964
vt 0.780847 0.524133
vt 1.111572 0.610960
vt 1.113001 0.785453
vt 0.742455 0.885806
vt 1.102646 1.051976
vt 0.617262 0.556169
vt 0.911160 0.943826
vt 1.102646 0.528841
vt 0.742455 0.677419
vt 0.593524 0.527964
vt 0.528841 0.051976
vt 0.943826 0.210794
vt 0.500000 0.836004
vt 0.911160 -0.056174
vt 0.500000 -0.163996
vt 0.190594 1.683149
vt 0.500000 1.689436
vt 0.762286 0.527964
vt 0.897354 0.051977
vt 0.555523 0.237601
vt 0.559240 0.439776
vt 0.780847 0.161566
vt 0.762286 -0.472036
vt 1.113001 0.159073
vt 0.905891 -0.273757
vt 0.145607 0.542686
vt -0.113001 0.785453
vt -0.500000 0.921164
vt 0.440611 0.439668
vt 0.145607 0.248355
vt -0.888429 0.266034
vt 0.886999 0.159073
vt 1.094109 -0.273755
vt 0.500000 0.193526
vt 0.542686 0.248355
vt 0.593524 -0.472036
vt 0.817294 -0.273755
vt 0.683149 0.388779
vt 0.257545 0.885806
vt 0.500000 0.937935
vt 0.102646 0.051976
vt 0.444478 0.237593
vt 0.441692 -0.441596
vt 1.669181 0.385415
vt 1.668451 0.390655
vt 0.500000 0.921164
vt 0.080773 1.511609
vt -0.094109 0.817293
vt 0.444478 -0.762407
vt 0.237714 -0.472036
vt 0.558500 0.559291
vt 1.257545 0.885806
vt 1.617262 0.556169
vt 0.668451 0.390655
vt 0.113001 0.785453
vt 0.111571 0.610960
vt 0.257545 0.677419
vt 0.088839 0.943825
vt 0.237714 0.527964
vt 0.897354 0.528841
vt 1.088839 0.943825
vt 1.257545 0.677419
vt 0.558500 -0.440709
vt 1.111572 0.266034
vt 0.524133 1.161566
vt 0.817293 0.726243
vt 1.145607 0.542686
vt 2.440610 0.439668
vt 1.145607 0.248355
vt 1.511609 0.626211
vt 0.905891 0.726243
vt 1.113001 1.159073
vt 1.500000 1.193526
vt 1.257545 -0.114194
vt 1.441692 0.558404
vt 1.683149 0.388779
vt 0.559240 1.439776
vt 0.500000 -0.078836
vt 1.094109 -0.182706
vt 0.669181 0.385415
vt 0.811329 0.669181
vt 0.500000 1.501408
vn 0.646200 0.689300 -0.327600
vn -0.609200 0.749300 -0.259600
vn 0.446100 0.434900 -0.782200
vn 0.609200 0.749300 -0.259600
vn -0.646200 0.689300 -0.327600
vn -0.446100 0.434900 -0.782200
vn -0.320600 0.351100 0.879700
vn 0.320600 0.351100 0.879700
vn -0.899100 0.275500 -0.340300
vn 0.376700 0.486400 -0.788400
vn -0.521400 0.662600 0.537700
vn -0.524500 0.504500 0.685800
vn -0.817800 0.491800 0.298900
vn -0.285200 0.663400 0.691800
vn -0.483200 0.267200 0.833700
vn 0.152900 0.972500 0.175500
vn -0.017700 0.994000 -0.108300
vn 0.581500 0.742300 -0.332900
vn -0.269600 0.572000 -0.774700
vn -0.067500 0.989000 -0.131400
vn -0.340200 0.911800 -0.229900
vn -0.886000 0.440700 -0.144400
vn 0.922900 0.339600 0.181500
vn 0.298300 0.677200 0.672700
vn -0.068600 0.997500 0.017500
vn -0.797200 0.242800 0.552700
vn 0.624400 0.263200 -0.735400
vn -0.391900 0.919900 -0.010000
vn 0.014800 0.883100 0.468900
vn -0.922900 0.339600 0.181500
vn 0.251300 0.507300 -0.824300
vn 0.285200 0.663400 0.691800
vn -0.152900 0.972500 0.175500
vn -0.380300 0.756400 0.532200
vn 0.524500 0.504500 0.685800
vn 0.483200 0.267200 0.833700
vn 0.817800 0.491800 0.298900
vn 0.072200 0.997100 0.024200
vn 0.226700 0.969900 0.088600
vn 0.869300 0.488000 -0.078900
vn -0.029500 0.192400 -0.980900
vn -0.000300 0.837400 -0.546600
vn -0.581700 0.742100 -0.332900
vn -0.099500 0.991600 -0.082700
vn 0.899100 0.275500 -0.340300
vn 0.340200 0.911800 -0.229900
vn 0.317500 0.936500 -0.149100
vn -0.014100 0.998400 0.054900
vn 0.797200 0.242800 0.552700
vn 0.391300 0.920200 -0.009500
vn -0.624400 0.263200 -0.735400
usemtl Material.037
s 1
f 34/1/1 35/2/1 14/3/1
f 34/1/2 1/4/2 31/5/2
f 33/6/3 34/7/3 25/8/3
f 25/9/4 34/1/4 14/3/4
f 35/2/5 34/1/5 31/5/5
f 34/7/6 33/6/6 1/10/6
f 31/11/7 13/12/7 15/13/7
f 14/14/8 35/15/8 15/13/8
f 35/15/7 31/11/7 15/13/7
usemtl Material.038
f 1/16/9 2/17/9 3/18/9
f 4/19/10 5/20/10 6/21/10
f 7/22/11 8/23/11 9/24/11
f 10/25/12 8/26/12 7/27/12
f 3/28/13 8/29/13 10/30/13
f 10/25/14 7/27/14 11/31/14
f 10/32/15 11/33/15 13/12/15
f 11/31/8 14/34/8 15/35/8
f 16/36/16 17/37/16 18/38/16
f 19/39/17 4/40/17 16/41/17
f 4/40/18 6/42/18 20/43/18
f 21/44/19 22/45/19 23/46/19
f 24/47/20 21/48/20 5/49/20
f 22/50/21 2/51/21 23/52/21
f 21/53/22 3/54/22 2/55/22
f 25/16/23 14/56/23 16/18/23
f 26/57/24 11/58/24 9/24/24
f 8/59/25 27/60/25 28/61/25
f 10/30/26 12/62/26 29/63/26
f 23/64/27 25/65/27 20/66/27
f 24/47/28 27/67/28 3/68/28
f 30/69/29 26/70/29 9/71/29
f 1/16/30 3/18/30 29/72/30
f 6/73/31 5/74/31 23/64/31
f 26/75/32 32/76/32 11/31/32
f 8/59/33 3/77/33 27/60/33
f 15/13/7 13/12/7 11/33/7
f 11/58/34 7/22/34 9/24/34
f 17/78/35 32/79/35 26/80/35
f 32/76/36 14/34/36 11/31/36
f 17/29/37 16/28/37 32/30/37
f 18/38/38 17/37/38 30/81/38
f 4/40/39 19/39/39 5/82/39
f 16/28/40 4/83/40 20/84/40
f 5/74/41 21/85/41 23/64/41
f 19/39/42 24/86/42 5/82/42
f 22/50/43 21/87/43 2/51/43
f 21/48/44 24/47/44 3/68/44
f 20/84/45 25/88/45 16/28/45
f 20/89/46 6/90/46 23/91/46
f 17/37/47 26/92/47 30/81/47
f 9/24/48 8/23/48 28/93/48
f 32/30/49 16/28/49 14/94/49
f 18/38/50 19/95/50 16/36/50
f 1/10/51 23/96/51 2/97/51
f 29/72/26 12/98/26 31/56/26
f 31/11/15 12/99/15 13/12/15
f 23/64/3 33/100/3 25/65/3
f 33/6/6 23/96/6 1/10/6
f 12/99/15 10/32/15 13/12/15
f 3/28/26 10/30/26 29/63/26
f 31/56/30 1/16/30 29/72/30
