# Blender v2.76 (sub 0) OBJ File: ''
# www.blender.org
mtllib Terrain4.mtl
o Plane.001
v 0.000002 -0.110492 1.612923
v 0.000002 -0.190407 2.094671
v 0.520168 -0.191218 2.093966
v -0.704923 0.488074 -0.712232
v -1.086684 -0.092224 -0.531053
v -1.125202 0.005116 -0.004322
v -1.041157 -0.184623 -1.548213
v -1.046872 -0.170224 -1.032697
v -0.561372 0.071431 -1.130264
v -2.080602 -0.191265 -2.067280
v -2.080601 -0.191208 -0.511653
v -1.560451 -0.191264 -1.026979
v 1.560713 -0.190880 -0.507033
v 1.086687 -0.092224 -0.531053
v 1.125206 0.005116 -0.004322
v 1.560455 -0.191264 -1.547130
v 1.041160 -0.184623 -1.548213
v 1.046876 -0.170224 -1.032697
v 0.000002 -0.169392 -1.552963
v 0.000002 0.306098 -1.222045
v 0.561376 0.071431 -1.130264
v 1.040557 -0.190926 1.573931
v 1.040304 -0.191264 2.093927
v 2.080606 -0.191393 2.093927
v 1.103295 -0.022346 0.567972
v 1.052139 -0.160031 1.068632
v 1.560880 -0.190571 1.054034
v 0.737560 0.688381 0.753137
v 0.000002 1.153538 0.900393
v 0.000002 0.131991 1.157778
v -0.531839 -0.160649 1.588254
v -1.040553 -0.190926 1.573931
v -1.040300 -0.191264 2.093927
v -1.103291 -0.022346 0.567972
v -1.052135 -0.160031 1.068632
v -0.579343 0.020438 1.122224
v -1.568917 -0.177993 0.535881
v -1.560876 -0.190571 1.054034
v -1.568402 -0.178961 0.010738
v -2.080602 -0.191265 1.053625
v -0.737556 0.688381 0.753137
v -0.804600 0.875642 0.014323
v -0.520165 -0.191218 2.093966
v 0.579346 0.020438 1.122224
v 0.804603 0.875642 0.014323
v 1.568920 -0.177993 0.535881
v 2.080606 -0.191266 1.053625
v 2.080605 -0.191214 -0.511971
v 1.568406 -0.178961 0.010738
v 1.560455 -0.191264 1.573776
v 0.524217 -0.161771 -1.553422
v 1.040304 -0.190651 -2.067281
v 0.520026 -0.191268 -2.067281
v 1.560455 -0.191264 -1.026979
v 2.080606 -0.191266 -2.067281
v 1.560455 -0.187902 -2.067281
v -1.560451 -0.191264 -1.547130
v -1.560451 -0.187902 -2.067281
v -0.524214 -0.161771 -1.553422
v -0.520149 -0.191264 -2.067281
v -1.040300 -0.190651 -2.067281
v 0.000002 0.767320 -0.789945
v -1.560709 -0.190880 -0.507033
v 0.704927 0.488074 -0.712232
v 0.531843 -0.160649 1.588254
v -1.560451 -0.191264 1.573776
v -2.080602 -0.191379 2.093927
v 0.000002 2.158249 0.151053
vt 0.499999 0.883660
vt 0.499999 1.579124
vt 0.097699 0.937821
vt 0.937821 0.492839
vt 1.579124 0.424473
vt 1.076769 0.049803
vt 0.579124 0.424473
vt -0.062179 0.492839
vt 0.076769 0.049803
vt 0.499999 0.579124
vt 0.499999 -0.116340
vt 0.902300 -0.062179
vt 0.499999 0.693538
vt 0.499999 0.452664
vt 0.239916 0.453017
vt 0.744037 0.856116
vt 0.453888 0.765527
vt 0.502558 0.502161
vt 0.020579 0.274107
vt 0.023436 0.016348
vt -0.219314 0.065132
vt 0.540301 0.533640
vt 0.540300 -0.244174
vt 0.280226 0.013489
vt 0.719643 0.753516
vt 0.956657 0.765527
vt 0.937397 0.502161
vt 0.719773 0.273565
vt 0.979420 0.274107
vt 0.976562 0.016348
vt 0.499999 0.415304
vt 0.499999 0.653049
vt 0.219312 0.535716
vt 0.979721 0.713035
vt 0.979848 0.453037
vt 0.459697 0.453037
vt 0.948353 0.216014
vt 0.973930 -0.034316
vt 0.719560 -0.027017
vt 0.131220 0.844190
vt 0.499999 1.076769
vt 0.499999 0.565996
vt 0.765920 0.705873
vt 1.020277 0.713035
vt 1.020150 0.453037
vt 0.051646 0.216014
vt 0.026067 -0.034316
vt -0.210328 -0.061112
vt 0.284459 0.232060
vt 0.280438 -0.027017
vt 0.062601 0.502161
vt 0.284201 0.494631
vt 0.540300 0.755826
vt 0.540301 -0.026812
vt 0.868778 0.844190
vt 0.789672 0.510219
vt 0.902300 0.492839
vt 0.868778 0.123432
vt 0.499999 0.049803
vt 0.488827 0.216014
vt 0.844190 0.123432
vt 0.760082 0.453017
vt 0.499999 0.921111
vt 0.789672 0.938888
vt 1.026067 0.965684
vt 0.510219 -0.061112
vt 0.715540 0.232060
vt 0.459697 -0.026812
vt 0.459697 0.755985
vt 0.715797 0.494631
vt 0.719560 0.972983
vt 0.719773 0.713112
vt 0.973930 0.965684
vt 1.237891 0.276711
vt 1.219312 0.065132
vt 0.979848 0.533641
vt 1.239987 0.533641
vt 0.719773 0.013489
vt 0.459697 -0.244015
vt 0.459697 0.533641
vt 0.719773 0.533641
vt 0.719773 1.013489
vt 0.956657 -0.234473
vt 0.280226 0.273565
vt 0.280226 0.533641
vt 0.499999 0.276482
vt 0.762107 0.276711
vt 0.780686 0.065132
vt 0.760074 0.533641
vt 0.020150 0.533641
vt -0.237893 0.276711
vt 0.499999 0.894973
vt 0.852461 0.856116
vt 0.780686 0.535716
vt 0.852461 0.744037
vt 0.414888 0.016348
vt 0.453888 -0.234473
vt 0.744037 -0.143884
vt 0.280354 0.753516
vt 0.280354 -0.246484
vt 0.043342 -0.234473
vt 0.976562 0.414888
vt 1.219312 0.535716
vt 1.147537 0.744037
vt 0.147536 0.744037
vt 0.234078 0.705873
vt -0.020152 0.453037
vt 0.210327 0.938888
vt -0.020279 0.713035
vt 0.020277 0.713035
vt 0.280226 0.713112
vt 0.540301 0.453037
vt 0.026067 0.965684
vt 0.280438 0.972983
vt 0.540301 0.973188
vt 0.147536 0.856116
vt 0.097699 0.492839
vt 1.020579 0.274107
vt 0.237891 0.276711
vt 0.219312 0.065132
vt 0.210327 0.510219
vt 0.284459 1.232059
vt 0.051646 1.216014
vt 0.499999 0.076769
vt 0.868778 -0.155810
vt 0.499999 -0.434004
vt 0.948353 1.216014
vt 1.210327 0.938888
vt 0.131220 0.123432
vt 0.459697 0.973188
vt 0.459697 1.755985
vt 0.715540 1.232059
vt 0.239987 0.533641
vt 1.020150 0.533641
vt 1.023436 0.414888
vt 0.043342 0.765527
vt 0.414888 1.016348
vt 1.234079 0.705873
vt 0.020150 0.453037
vn 0.601300 0.447700 -0.661800
vn 0.736600 0.404300 0.542100
vn -0.736600 0.404300 0.542100
vn -0.601300 0.447700 -0.661800
vn 0.001800 0.986500 0.163600
vn -0.846900 0.508500 -0.155900
vn -0.450200 0.892400 -0.029900
vn 0.000000 1.000000 -0.000000
vn 0.000100 1.000000 -0.000000
vn 0.209300 0.958700 -0.192500
vn 0.012800 0.999500 -0.028100
vn 0.349500 0.535200 -0.769000
vn 0.000400 1.000000 -0.000100
vn 0.000100 1.000000 0.000600
vn 0.000400 1.000000 -0.000300
vn 0.065400 0.960400 0.270800
vn 0.328400 0.230800 0.915900
vn -0.059400 0.998200 0.000700
vn -0.369900 0.885500 0.281300
vn -0.318600 0.947500 0.027900
vn -0.383600 0.923500 -0.002100
vn -0.025900 0.999700 0.000000
vn -0.141200 0.453000 0.880300
vn -0.551700 0.795200 0.251600
vn -0.893600 0.445400 0.055600
vn -0.096600 0.993400 0.062300
vn -0.197500 0.906800 0.372500
vn -0.362300 0.929800 0.065200
vn 0.720000 0.197100 0.665400
vn 0.926000 0.337400 0.169500
vn 0.001400 0.999700 0.024300
vn 0.022000 0.999800 -0.001900
vn 0.320100 0.945600 0.057600
vn -0.001100 1.000000 0.001300
vn 0.000700 0.998100 0.061000
vn 0.043500 0.873400 -0.485100
vn -0.001200 0.998400 -0.057300
vn 0.000400 1.000000 -0.000500
vn 0.006500 1.000000 0.006500
vn -0.005300 0.999900 -0.011600
vn 0.000400 0.999700 -0.023000
vn 0.000600 1.000000 -0.000700
vn 0.042200 0.986700 -0.156800
vn -0.040900 0.999200 -0.000000
vn -0.012800 0.999900 0.006500
vn 0.013200 0.876200 -0.481700
vn 0.014600 0.998300 -0.057200
vn -0.044300 0.999000 -0.011700
vn -0.368700 0.798200 -0.476400
vn -0.365400 0.593600 -0.717100
vn -0.846800 0.511300 -0.146700
vn -0.384200 0.922900 -0.027000
vn -0.203800 0.979000 -0.000800
vn 0.892700 0.335200 -0.301300
vn 0.423500 0.564800 -0.708300
vn 0.331400 0.645000 -0.688500
vn 0.000100 0.998200 0.060300
vn 0.065600 0.927800 0.367200
vn 0.104500 0.877700 0.467600
vn -0.000400 1.000000 0.000000
vn -0.000700 1.000000 -0.000400
vn -0.000400 1.000000 -0.000400
vn -0.060000 0.998200 0.001400
vn -0.001300 1.000000 0.000100
vn 0.096600 0.993400 0.062300
vn 0.368700 0.798200 -0.476400
vn -0.000400 0.999700 -0.023000
vn -0.892700 0.335200 -0.301300
vn -0.043500 0.873400 -0.485100
vn 0.384200 0.922900 -0.027000
vn 0.040900 0.999200 -0.000000
vn -0.013200 0.876200 -0.481700
vn 0.000700 1.000000 -0.000400
vn 0.318600 0.947500 0.027900
vn 0.141200 0.453000 0.880300
vn -0.000100 0.998200 0.060300
vn -0.720000 0.197100 0.665400
vn -0.001400 0.999700 0.024300
vn -0.065400 0.960400 0.270800
vn -0.320100 0.945600 0.057600
vn -0.022000 0.999800 -0.001900
vn -0.328400 0.230800 0.915900
vn -0.926000 0.337400 0.169500
vn -0.001800 0.986500 0.163600
vn -0.104500 0.877700 0.467600
vn -0.065600 0.927800 0.367200
vn 0.369900 0.885500 0.281300
vn 0.893600 0.445400 0.055600
vn 0.551700 0.795200 0.251600
vn 0.025900 0.999700 0.000000
vn 0.383600 0.923500 -0.002100
vn 0.001300 1.000000 0.000100
vn 0.060000 0.998200 0.001400
vn 0.450200 0.892400 -0.029900
vn 0.044300 0.999000 -0.011700
vn -0.014600 0.998300 -0.057200
vn 0.012800 0.999900 0.006500
vn 0.203800 0.979000 -0.000800
vn -0.012800 0.999500 -0.028100
vn 0.005300 0.999900 -0.011600
vn -0.006500 1.000000 0.006500
vn -0.349500 0.535200 -0.769000
vn 0.000000 0.999100 -0.042500
vn 0.001200 0.998400 -0.057300
vn -0.331400 0.645000 -0.688500
vn -0.423500 0.564800 -0.708300
vn -0.209300 0.958700 -0.192500
vn -0.042200 0.986700 -0.156800
vn -0.000600 1.000000 -0.000700
vn 0.846900 0.508500 -0.155900
vn 0.846800 0.511300 -0.146700
vn 0.365400 0.593600 -0.717100
vn 0.059400 0.998200 0.000700
vn 0.362300 0.929800 0.065200
vn 0.197500 0.906800 0.372500
vn -0.000100 1.000000 0.000600
vn -0.000700 0.998100 0.061000
vn 0.001100 1.000000 0.001300
usemtl Material.043
s 1
f 62/1/1 68/2/1 45/3/1
f 45/4/2 68/5/2 29/6/2
f 68/7/3 42/8/3 29/9/3
f 68/10/4 62/11/4 42/12/4
usemtl Material.044
f 1/13/5 2/14/5 3/15/5
f 4/16/6 5/17/6 6/18/6
f 7/19/7 8/20/7 9/21/7
f 10/22/8 11/23/9 12/24/9
f 13/25/10 14/26/10 15/27/10
f 16/28/11 17/29/11 18/30/11
f 19/31/12 20/32/12 21/33/12
f 22/34/13 23/35/14 24/36/15
f 25/37/16 26/38/16 27/39/16
f 28/40/17 29/41/17 30/42/17
f 31/43/18 32/44/18 33/45/18
f 34/46/19 35/47/19 36/48/19
f 34/46/20 37/49/20 38/50/20
f 6/51/21 39/52/21 37/49/21
f 11/53/22 40/54/22 37/49/22
f 41/55/23 36/56/23 30/42/23
f 42/57/24 41/58/24 29/59/24
f 6/18/25 34/60/25 41/61/25
f 1/13/26 31/43/26 43/62/26
f 30/63/27 36/64/27 31/43/27
f 36/64/28 35/65/28 32/44/28
f 25/60/29 28/61/29 44/66/29
f 15/18/30 45/4/30 28/61/30
f 46/67/31 27/39/31 47/68/31
f 48/69/32 49/70/32 46/67/32
f 15/27/33 25/37/33 46/67/33
f 27/71/34 50/72/34 24/36/34
f 26/73/35 22/34/35 50/72/35
f 17/29/36 51/74/36 21/75/36
f 52/76/37 53/77/37 51/74/37
f 16/28/8 54/78/38 48/79/8
f 55/80/39 56/81/39 16/28/39
f 56/81/40 52/76/40 17/29/40
f 48/69/41 13/25/41 49/70/41
f 48/69/8 54/82/38 13/25/42
f 54/78/43 18/30/43 14/83/43
f 57/84/44 12/24/44 8/20/44
f 58/85/45 57/84/45 7/19/45
f 19/86/46 59/87/46 9/88/46
f 60/89/47 59/87/47 19/86/47
f 61/90/48 7/19/48 59/91/48
f 62/92/49 4/93/49 42/57/49
f 20/32/50 9/94/50 4/95/50
f 8/96/51 5/97/51 4/98/51
f 63/99/52 39/52/52 6/51/52
f 12/24/53 63/100/53 5/101/53
f 64/16/54 45/4/54 15/18/54
f 18/102/55 21/103/55 64/104/55
f 20/32/56 62/1/56 64/105/56
f 65/106/57 3/15/57 23/107/57
f 44/108/58 65/106/58 22/109/58
f 30/63/59 1/13/59 65/106/59
f 32/110/60 66/111/61 67/112/62
f 35/113/63 38/114/63 66/111/63
f 38/114/64 40/115/64 67/112/64
f 65/106/65 1/13/65 3/15/65
f 64/116/66 62/92/66 45/117/66
f 63/99/67 11/53/67 39/52/67
f 42/4/68 4/16/68 6/18/68
f 59/87/69 7/118/69 9/88/69
f 57/84/8 10/22/8 12/24/9
f 49/70/70 13/25/70 15/27/70
f 54/78/71 16/28/71 18/30/71
f 51/119/72 19/86/72 21/120/72
f 50/72/73 22/34/13 24/36/15
f 46/67/74 25/37/74 27/39/74
f 44/121/75 28/40/75 30/42/75
f 43/62/76 31/43/76 33/45/76
f 41/61/77 34/60/77 36/66/77
f 38/114/78 37/122/78 40/115/78
f 35/113/79 34/123/79 38/114/79
f 34/46/80 6/51/80 37/49/80
f 39/52/81 11/53/81 37/49/81
f 29/124/82 41/125/82 30/126/82
f 42/4/83 6/18/83 41/61/83
f 2/14/84 1/13/84 43/62/84
f 1/13/85 30/63/85 31/43/85
f 31/43/86 36/64/86 32/44/86
f 26/73/87 25/127/87 44/128/87
f 25/60/88 15/18/88 28/61/88
f 28/129/89 45/117/89 29/59/89
f 47/130/90 48/131/90 46/132/90
f 49/70/91 15/27/91 46/67/91
f 47/130/92 27/71/92 24/36/92
f 27/71/93 26/73/93 50/72/93
f 18/30/94 17/29/94 21/75/94
f 17/29/95 52/76/95 51/74/95
f 51/119/96 53/133/96 19/86/96
f 55/80/8 16/28/8 48/79/8
f 16/28/97 56/81/97 17/29/97
f 13/25/98 54/82/98 14/26/98
f 7/19/99 57/84/99 8/20/99
f 61/90/100 58/85/100 7/19/100
f 58/85/101 10/22/101 57/84/101
f 20/32/102 19/31/102 9/94/102
f 53/133/103 60/89/103 19/86/103
f 60/89/104 61/134/104 59/87/104
f 62/1/105 20/32/105 4/95/105
f 9/94/106 8/135/106 4/95/106
f 5/136/107 63/99/107 6/51/107
f 8/20/108 12/24/108 5/101/108
f 12/24/109 11/23/109 63/100/109
f 14/17/110 64/16/110 15/18/110
f 14/17/111 18/137/111 64/16/111
f 21/33/112 20/32/112 64/105/112
f 22/34/113 65/138/113 23/35/113
f 26/73/114 44/128/114 22/34/114
f 44/108/115 30/63/115 65/106/115
f 33/139/116 32/110/60 67/112/62
f 32/110/117 35/113/117 66/111/117
f 66/111/118 38/114/118 67/112/118
