# Blender v2.71 (sub 0) OBJ File: 'cylinder.blend'
# www.blender.org
mtllib cylinder.mtl
o Cube
v -0.078833 -0.899605 -1.001659
v -0.078833 1.100395 -1.001659
v 0.116257 -0.899605 -0.982444
v 0.116257 1.100395 -0.982444
v 0.303851 -0.899605 -0.925539
v 0.303851 1.100395 -0.925539
v 0.476737 -0.899605 -0.833129
v 0.476737 1.100395 -0.833129
v 0.628274 -0.899605 -0.708766
v 0.628274 1.100395 -0.708766
v 0.752637 -0.899605 -0.557230
v 0.752637 1.100395 -0.557230
v 0.845047 -0.899605 -0.384343
v 0.845047 1.100395 -0.384343
v 0.901952 -0.899605 -0.196749
v 0.901952 1.100395 -0.196749
v 0.921167 -0.899605 -0.001659
v 0.921167 1.100395 -0.001659
v 0.901952 -0.899605 0.193431
v 0.901952 1.100395 0.193431
v 0.845047 -0.899605 0.381024
v 0.845047 1.100395 0.381024
v 0.752637 -0.899605 0.553912
v 0.752637 1.100395 0.553912
v 0.628274 -0.899605 0.705447
v 0.628274 1.100395 0.705447
v 0.476737 -0.899605 0.829810
v 0.476737 1.100395 0.829810
v 0.303850 -0.899605 0.922221
v 0.303850 1.100395 0.922221
v 0.116257 -0.899605 0.979126
v 0.116257 1.100395 0.979126
v -0.078833 -0.899605 0.998341
v -0.078833 1.100395 0.998341
v -0.273924 -0.899605 0.979126
v -0.273924 1.100395 0.979126
v -0.461517 -0.899605 0.922221
v -0.461517 1.100395 0.922221
v -0.634404 -0.899605 0.829810
v -0.634404 1.100395 0.829810
v -0.785940 -0.899605 0.705447
v -0.785940 1.100395 0.705447
v -0.910303 -0.899605 0.553911
v -0.910303 1.100395 0.553911
v -1.002712 -0.899605 0.381024
v -1.002712 1.100395 0.381024
v -1.059618 -0.899605 0.193430
v -1.059618 1.100395 0.193430
v -1.078833 -0.899605 -0.001660
v -1.078833 1.100395 -0.001660
v -1.059618 -0.899605 -0.196750
v -1.059618 1.100395 -0.196750
v -1.002712 -0.899605 -0.384344
v -1.002712 1.100395 -0.384344
v -0.910302 -0.899605 -0.557231
v -0.910302 1.100395 -0.557231
v -0.785939 -0.899605 -0.708767
v -0.785939 1.100395 -0.708767
v -0.634402 -0.899605 -0.833130
v -0.634402 1.100395 -0.833130
v -0.461515 -0.899605 -0.925539
v -0.461515 1.100395 -0.925539
v -0.273922 -0.899605 -0.982444
v -0.273922 1.100395 -0.982444
vt 0.465171 0.334407
vt 0.431616 0.334407
vt 0.431616 0.000000
vt 0.400007 0.334407
vt 0.400007 0.000000
vt 0.371560 0.334407
vt 0.347368 0.334407
vt 0.347368 0.000000
vt 0.838621 0.668814
vt 0.814429 0.668814
vt 0.814429 0.334407
vt 0.785982 0.668814
vt 0.785982 0.334407
vt 0.754374 0.668814
vt 0.754374 0.334407
vt 0.720818 0.668814
vt 0.720818 0.334407
vt 0.686605 0.668814
vt 0.653050 0.668814
vt 0.653050 0.334407
vt 0.621441 0.668814
vt 0.621441 0.334407
vt 0.592995 0.668814
vt 0.592995 0.334407
vt 0.371560 0.668814
vt 0.400007 0.668814
vt 0.431616 0.668814
vt 0.465171 0.668814
vt 0.499384 0.334407
vt 0.499384 0.668814
vt 0.532939 0.334407
vt 0.532939 0.668814
vt 0.564548 0.334407
vt 0.564548 0.668814
vt 1.000000 0.668814
vt 0.971553 0.668814
vt 0.971553 0.334407
vt 0.939945 0.668814
vt 0.939945 0.334407
vt 0.906389 0.668814
vt 0.906389 0.334407
vt 0.872176 0.668814
vt 0.838621 0.334407
vt 0.060055 1.000000
vt 0.028447 1.000000
vt 0.028447 0.665593
vt 0.000000 1.000000
vt 0.000000 0.665593
vt 0.617187 0.334407
vt 0.592994 0.000000
vt 0.564548 0.000000
vt 0.532939 0.000000
vt 0.156578 0.000000
vt 0.255954 0.018938
vt 0.006675 0.117862
vt 0.465171 0.000000
vt 0.499384 0.000000
vt 0.347368 0.482806
vt 0.091414 0.351735
vt 0.190790 0.332797
vt 0.371560 0.000000
vt 0.686605 0.334407
vt 0.347368 0.668814
vt 1.000000 0.334407
vt 0.872176 0.334407
vt 0.060055 0.665593
vt 0.617187 0.000000
vt 0.284401 0.295648
vt 0.224346 0.326402
vt 0.123023 0.326402
vt 0.062967 0.295648
vt 0.156578 0.332797
vt 0.091414 0.313859
vt 0.038775 0.272471
vt 0.019767 0.245218
vt 0.308593 0.272471
vt 0.347368 0.150010
vt 0.347368 0.182787
vt 0.006675 0.214935
vt 0.000000 0.150010
vt 0.019767 0.087579
vt 0.038775 0.060326
vt 0.062967 0.037148
vt 0.123022 0.006395
vt 0.224346 0.006395
vt 0.190790 0.000000
vt 0.284401 0.037148
vt 0.327601 0.087579
vt 0.308593 0.060326
vt 0.340694 0.117862
vt 0.340694 0.214935
vt 0.327601 0.245218
vt 0.255954 0.313859
vt 0.091414 0.018938
vt 0.000000 0.182787
vt 0.123022 0.659199
vt 0.062967 0.628445
vt 0.156578 0.665593
vt 0.091414 0.646655
vt 0.224346 0.339191
vt 0.255954 0.351735
vt 0.000000 0.515584
vt 0.038775 0.605268
vt 0.006675 0.547732
vt 0.006675 0.450658
vt 0.019767 0.420376
vt 0.000000 0.482806
vt 0.038775 0.393122
vt 0.062967 0.369945
vt 0.123022 0.339191
vt 0.284401 0.369945
vt 0.327601 0.420376
vt 0.340694 0.450658
vt 0.308593 0.393122
vt 0.284401 0.628445
vt 0.255954 0.646655
vt 0.224346 0.659199
vt 0.347368 0.515584
vt 0.340694 0.547732
vt 0.308593 0.605268
vt 0.327601 0.578014
vt 0.190790 0.665593
vt 0.019767 0.578014
vn 0.098000 0.000000 -0.995200
vn 0.290300 0.000000 -0.956900
vn 0.471400 0.000000 -0.881900
vn 0.634400 0.000000 -0.773000
vn 0.773000 0.000000 -0.634400
vn 0.881900 0.000000 -0.471400
vn 0.956900 0.000000 -0.290300
vn 0.995200 0.000000 -0.098000
vn 0.995200 0.000000 0.098000
vn 0.956900 0.000000 0.290300
vn 0.881900 0.000000 0.471400
vn 0.773000 0.000000 0.634400
vn 0.634400 0.000000 0.773000
vn 0.471400 0.000000 0.881900
vn 0.290300 0.000000 0.956900
vn 0.098000 0.000000 0.995200
vn -0.098000 0.000000 0.995200
vn -0.290300 0.000000 0.956900
vn -0.471400 0.000000 0.881900
vn -0.634400 0.000000 0.773000
vn -0.773000 0.000000 0.634400
vn -0.881900 0.000000 0.471400
vn -0.956900 0.000000 0.290300
vn -0.995200 0.000000 0.098000
vn -0.995200 0.000000 -0.098000
vn -0.956900 0.000000 -0.290300
vn -0.881900 0.000000 -0.471400
vn -0.773000 0.000000 -0.634400
vn -0.634400 0.000000 -0.773000
vn -0.471400 0.000000 -0.881900
vn 0.000000 1.000000 0.000000
vn -0.098000 0.000000 -0.995200
vn -0.290300 0.000000 -0.956900
vn 0.000000 -1.000000 -0.000000
g Cube_Cube_Material
usemtl Material
s off
f 2/1/1 4/2/1 3/3/1
f 4/2/2 6/4/2 5/5/2
f 5/5/3 6/4/3 8/6/3
f 8/6/4 10/7/4 9/8/4
f 10/9/5 12/10/5 11/11/5
f 12/10/6 14/12/6 13/13/6
f 14/12/7 16/14/7 15/15/7
f 15/15/8 16/14/8 18/16/8
f 17/17/9 18/16/9 20/18/9
f 20/18/10 22/19/10 21/20/10
f 22/19/11 24/21/11 23/22/11
f 24/21/12 26/23/12 25/24/12
f 26/7/13 28/6/13 27/25/13
f 28/6/14 30/4/14 29/26/14
f 30/4/15 32/2/15 31/27/15
f 32/2/16 34/1/16 33/28/16
f 34/1/17 36/29/17 35/30/17
f 36/29/18 38/31/18 37/32/18
f 38/31/19 40/33/19 39/34/19
f 40/33/20 42/24/20 41/23/20
f 42/35/21 44/36/21 43/37/21
f 44/36/22 46/38/22 45/39/22
f 46/38/23 48/40/23 47/41/23
f 47/41/24 48/40/24 50/42/24
f 50/42/25 52/9/25 51/43/25
f 52/44/26 54/45/26 53/46/26
f 54/45/27 56/47/27 55/48/27
f 56/49/28 58/24/28 57/50/28
f 58/24/29 60/33/29 59/51/29
f 60/33/30 62/31/30 61/52/30
f 34/53/31 28/54/31 46/55/31
f 64/29/32 2/1/32 1/56/32
f 62/31/33 64/29/33 63/57/33
f 47/58/34 27/59/34 33/60/34
f 1/56/1 2/1/1 3/3/1
f 3/3/2 4/2/2 5/5/2
f 7/61/3 5/5/3 8/6/3
f 7/61/4 8/6/4 9/8/4
f 9/43/5 10/9/5 11/11/5
f 11/11/6 12/10/6 13/13/6
f 13/13/7 14/12/7 15/15/7
f 17/17/8 15/15/8 18/16/8
f 19/62/9 17/17/9 20/18/9
f 19/62/10 20/18/10 21/20/10
f 21/20/11 22/19/11 23/22/11
f 23/22/12 24/21/12 25/24/12
f 25/63/13 26/7/13 27/25/13
f 27/25/14 28/6/14 29/26/14
f 29/26/15 30/4/15 31/27/15
f 31/27/16 32/2/16 33/28/16
f 33/28/17 34/1/17 35/30/17
f 35/30/18 36/29/18 37/32/18
f 37/32/19 38/31/19 39/34/19
f 39/34/20 40/33/20 41/23/20
f 41/64/21 42/35/21 43/37/21
f 43/37/22 44/36/22 45/39/22
f 45/39/23 46/38/23 47/41/23
f 49/65/24 47/41/24 50/42/24
f 49/65/25 50/42/25 51/43/25
f 51/66/26 52/44/26 53/46/26
f 53/46/27 54/45/27 55/48/27
f 55/67/28 56/49/28 57/50/28
f 57/50/29 58/24/29 59/51/29
f 59/51/30 60/33/30 61/52/30
f 2/60/31 8/68/31 4/69/31
f 62/70/31 58/71/31 64/72/31
f 62/70/31 60/73/31 58/71/31
f 58/71/31 56/74/31 54/75/31
f 10/76/31 18/77/31 16/78/31
f 46/55/31 52/79/31 48/80/31
f 46/55/31 44/81/31 42/82/31
f 61/52/33 62/31/33 63/57/33
f 34/53/31 40/83/31 36/84/31
f 30/85/31 28/54/31 32/86/31
f 26/87/31 22/88/31 28/54/31
f 26/87/31 24/89/31 22/88/31
f 22/88/31 20/90/31 18/77/31
f 14/91/31 10/76/31 16/78/31
f 14/91/31 12/92/31 10/76/31
f 52/79/31 46/55/31 22/88/31
f 58/71/31 8/68/31 64/72/31
f 63/57/32 64/29/32 1/56/32
f 10/76/31 22/88/31 18/77/31
f 8/68/31 6/93/31 4/69/31
f 40/83/31 38/94/31 36/84/31
f 52/79/31 50/95/31 48/80/31
f 28/54/31 34/53/31 32/86/31
f 64/72/31 8/68/31 2/60/31
f 58/71/31 54/75/31 52/79/31
f 34/53/31 42/82/31 40/83/31
f 22/88/31 10/76/31 8/68/31
f 34/53/31 46/55/31 42/82/31
f 28/54/31 22/88/31 46/55/31
f 8/68/31 52/79/31 22/88/31
f 52/79/31 8/68/31 58/71/31
f 3/96/34 7/97/34 1/98/34
f 3/96/34 5/99/34 7/97/34
f 33/60/34 35/100/34 37/101/34
f 15/102/34 9/103/34 13/104/34
f 19/105/34 21/106/34 17/107/34
f 21/106/34 23/108/34 25/109/34
f 27/59/34 21/106/34 25/109/34
f 27/59/34 29/110/34 31/72/34
f 39/111/34 33/60/34 37/101/34
f 43/112/34 45/113/34 41/114/34
f 57/115/34 59/116/34 61/117/34
f 47/58/34 49/118/34 51/119/34
f 55/120/34 57/115/34 53/121/34
f 63/122/34 15/102/34 17/107/34
f 63/122/34 57/115/34 61/117/34
f 33/60/34 45/113/34 47/58/34
f 57/115/34 51/119/34 53/121/34
f 15/102/34 7/97/34 9/103/34
f 63/122/34 21/106/34 27/59/34
f 39/111/34 41/114/34 33/60/34
f 21/106/34 63/122/34 17/107/34
f 57/115/34 63/122/34 47/58/34
f 63/122/34 7/97/34 15/102/34
f 7/97/34 63/122/34 1/98/34
f 27/59/34 31/72/34 33/60/34
f 41/114/34 45/113/34 33/60/34
f 9/103/34 11/123/34 13/104/34
f 63/122/34 27/59/34 47/58/34
f 57/115/34 47/58/34 51/119/34
