# Blender v2.71 (sub 0) OBJ File: 'sword.blend'
# www.blender.org
mtllib sword.mtl
o Cube
v 0.257791 6.854772 -0.257791
v 0.257791 6.854772 0.257791
v -0.257791 6.854772 0.257791
v -0.257791 6.854772 -0.257791
v 0.250955 8.221743 -0.250955
v 0.250955 8.221743 0.250955
v -0.250955 8.221743 0.250955
v -0.250955 8.221743 -0.250955
v 0.040290 8.938630 -0.040290
v 0.040290 8.938630 0.040290
v -0.040290 8.938630 0.040290
v -0.040290 8.938630 -0.040290
v 0.257791 1.401883 -0.257791
v 0.257791 1.401883 0.257791
v -0.257791 1.401883 0.257791
v -0.257791 1.401883 -0.257791
v 0.257791 0.886357 -0.257791
v 0.257791 0.886357 0.257791
v -0.257791 0.886357 0.257791
v -0.257791 0.886357 -0.257791
v 1.289218 1.401883 -0.257791
v 1.289218 1.401883 0.257791
v 1.289218 0.886357 -0.257791
v 1.289218 0.886357 0.257791
v -1.290567 1.401883 0.257791
v -1.290567 1.401883 -0.257792
v -1.290567 0.886357 0.257791
v -1.290567 0.886357 -0.257792
v 0.257791 -0.833656 -0.257791
v 0.257791 -0.833656 0.257791
v -0.257791 -0.833656 0.257791
v -0.257791 -0.833656 -0.257791
vt 1.000000 0.000000
vt 1.000000 1.000000
vt 0.000000 1.000000
vt 0.000000 0.000000
vn -1.000000 0.000000 -0.000000
vn -0.959400 0.281900 0.000000
vn 1.000000 0.005000 0.000000
vn -0.000000 0.005000 1.000000
vn -1.000000 0.005000 -0.000000
vn 0.000000 0.005000 -1.000000
vn 0.000000 1.000000 0.000000
vn -0.000000 0.281900 0.959400
vn 0.000000 0.281900 -0.959400
vn 0.959400 0.281900 0.000000
vn 0.000000 0.000000 -1.000000
vn -0.000000 0.000000 1.000000
vn 1.000000 0.000000 0.000000
vn 0.000000 -1.000000 0.000000
g Cube_Cube_Material
usemtl sword_mtl
s off
f 4/1/1 16/2/1 15/3/1
f 7/1/2 11/2/2 12/3/2
f 5/1/3 6/2/3 2/3/3
f 2/4/4 6/1/4 7/2/4
f 7/1/5 8/2/5 4/3/5
f 1/1/6 4/2/6 8/3/6
f 12/1/7 11/2/7 10/3/7
f 7/4/8 6/1/8 10/2/8
f 5/4/9 8/1/9 12/2/9
f 6/4/10 5/1/10 9/2/10
f 20/1/11 28/2/11 26/3/11
f 3/1/12 15/2/12 14/3/12
f 1/1/11 13/2/11 16/3/11
f 2/1/13 14/2/13 13/3/13
f 20/1/1 32/2/1 31/3/1
f 15/1/12 19/2/12 18/3/12
f 13/1/11 17/2/11 20/3/11
f 13/1/11 21/2/11 23/3/11
f 22/1/13 24/2/13 23/3/13
f 18/1/12 24/2/12 22/3/12
f 17/1/14 23/2/14 24/3/14
f 14/1/7 22/2/7 21/3/7
f 26/4/1 28/1/1 27/2/1
f 15/1/12 25/2/12 27/3/12
f 20/4/14 19/1/14 27/2/14
f 16/1/7 26/2/7 25/3/7
f 29/4/14 30/1/14 31/2/14
f 19/1/12 31/2/12 30/3/12
f 17/1/11 29/2/11 32/3/11
f 18/1/13 30/2/13 29/3/13
f 3/4/1 4/1/1 15/3/1
f 8/4/2 7/1/2 12/3/2
f 1/4/3 5/1/3 2/3/3
f 3/3/4 2/4/4 7/2/4
f 3/4/5 7/1/5 4/3/5
f 5/4/6 1/1/6 8/3/6
f 9/4/7 12/1/7 10/3/7
f 11/3/8 7/4/8 10/2/8
f 9/3/9 5/4/9 12/2/9
f 10/3/10 6/4/10 9/2/10
f 16/4/11 20/1/11 26/3/11
f 2/4/12 3/1/12 14/3/12
f 4/4/11 1/1/11 16/3/11
f 1/4/13 2/1/13 13/3/13
f 19/4/1 20/1/1 31/3/1
f 14/4/12 15/1/12 18/3/12
f 16/4/11 13/1/11 20/3/11
f 17/4/11 13/1/11 23/3/11
f 21/4/13 22/1/13 23/3/13
f 14/4/12 18/1/12 22/3/12
f 18/4/14 17/1/14 24/3/14
f 13/4/7 14/1/7 21/3/7
f 25/3/1 26/4/1 27/2/1
f 19/4/12 15/1/12 27/3/12
f 28/3/14 20/4/14 27/2/14
f 15/4/7 16/1/7 25/3/7
f 32/3/14 29/4/14 31/2/14
f 18/4/12 19/1/12 30/3/12
f 20/4/11 17/1/11 32/3/11
f 17/4/13 18/1/13 29/3/13
