# Blender v2.76 (sub 0) OBJ File: ''
# www.blender.org
mtllib Katana.mtl
o Cube.001_Cube.001
v 0.202610 0.000000 0.203460
v 0.424638 0.000000 0.928109
v 0.400270 -0.085728 0.935575
v 0.178243 -0.085728 0.210926
v 0.400270 0.085728 0.935575
v 0.382514 0.055902 0.979438
v 0.382514 0.000000 0.979438
v -0.054394 0.000000 0.152725
v -0.091470 0.000000 0.017244
v -0.063088 -0.085728 0.008548
v -0.024956 -0.088923 0.143705
v 0.018879 -0.085728 -0.016566
v -0.045831 -0.027778 0.003261
v 0.018737 -0.027778 -0.016522
v 0.096276 -0.085728 0.236040
v 0.318303 -0.085728 0.960689
v 0.236336 -0.085728 0.985804
v 0.014308 -0.085728 0.261154
v 0.096276 0.085728 0.236040
v 0.318303 0.085728 0.960689
v 0.178243 0.085728 0.210926
v 0.329065 0.000000 0.995814
v 0.275616 0.000000 1.012191
v 0.275616 -0.055902 1.012191
v 0.329065 -0.055902 0.995814
v 0.207955 0.000000 0.994499
v 0.382514 -0.055902 0.979438
v 0.236336 0.085728 0.985804
v 0.275616 0.055902 1.012191
v 0.329065 0.055902 0.995814
v 0.100846 0.085728 -0.041680
v 0.125213 -0.000000 -0.049146
v 0.102499 -0.000000 -0.042187
v 0.083304 0.025960 -0.036305
v -0.024956 0.088923 0.143705
v -0.063088 0.085728 0.008548
v 0.018737 0.025960 -0.016522
v 0.019575 0.025960 -0.364362
v -0.047368 0.025960 -0.355470
v -0.045831 0.025960 0.003261
v -0.114310 0.025960 -0.346578
v 0.100846 -0.085728 -0.041680
v 0.083304 -0.027778 -0.036305
v -0.068187 0.000000 0.010111
v 0.018879 0.085728 -0.016566
v 0.174313 0.101088 0.145242
v 0.203046 0.000000 0.136438
v 0.014308 0.085728 0.261154
v -0.014073 0.000000 0.269850
v 0.077660 0.101088 0.174856
v 0.077660 -0.101088 0.174856
v -0.018993 -0.101088 0.204470
v 0.174313 -0.101088 0.145242
v -0.058529 0.000000 0.153992
v -0.028022 0.092149 0.144645
v 0.174313 0.101088 0.145242
v 0.077660 0.101088 0.174856
v 0.170362 0.000000 0.083861
v 0.145087 0.088923 0.091605
v 0.148191 0.092149 0.090654
v 0.174383 0.000000 0.082629
v -0.052459 0.000000 0.214723
v -0.052459 0.000000 0.214723
v -0.018993 -0.101088 0.204470
v -0.018993 0.101088 0.204470
v 0.060066 0.088923 0.117655
v 0.060066 -0.088923 0.117655
v 0.145087 -0.088923 0.091605
v 0.148191 -0.092149 0.090654
v 0.077660 -0.101088 0.174856
v -0.028022 -0.092149 0.144645
v -0.088563 -0.151794 0.149401
v -0.138816 0.000000 0.164798
v -0.088563 0.151794 0.149401
v -0.105684 0.000000 0.244824
v -0.057468 -0.145640 0.230051
v 0.244852 0.000000 0.047245
v 0.201707 -0.151794 0.060464
v -0.018993 0.101088 0.204470
v -0.057468 0.145640 0.230051
v 0.060084 -0.092149 0.117649
v 0.056572 -0.177447 0.104933
v 0.060084 0.092149 0.117649
v 0.203046 0.000000 0.136438
v 0.174313 -0.101088 0.145242
v 0.262429 0.000000 0.132037
v 0.221033 0.145640 0.144720
v 0.019575 -0.027778 -0.364362
v 0.039475 -0.000000 -0.367006
v -0.137489 -0.000000 -0.343499
v -0.114310 -0.027778 -0.346578
v 0.221033 -0.145640 0.144720
v 0.081783 -0.171293 0.187386
v 0.056572 0.186674 0.104933
v 0.081783 0.180520 0.187386
v 0.201707 0.151794 0.060464
v -0.162699 0.025960 -0.710864
v -0.185878 -0.000000 -0.707785
v -0.095757 0.025960 -0.719756
v -0.008914 -0.000000 -0.731291
v -0.028814 0.025960 -0.728648
v -0.047368 -0.027778 -0.355470
v -0.045355 -0.000000 -1.198178
v -0.065431 0.025960 -1.198069
v -0.132960 0.025960 -1.197701
v -0.028814 -0.027778 -0.728648
v -0.065431 -0.027778 -1.198069
v -0.095757 -0.027778 -0.719756
v -0.132960 -0.027778 -1.197701
v -0.162699 -0.027778 -0.710864
v -0.068874 -0.027778 -1.723995
v -0.048954 -0.000000 -1.721501
v -0.135881 -0.027778 -1.732385
v -0.200489 -0.027778 -1.197332
v -0.223871 -0.000000 -1.197205
v -0.226090 -0.000000 -1.743681
v -0.202888 -0.027778 -1.740775
v -0.200489 0.025960 -1.197332
v -0.177523 -0.000000 -2.480578
v -0.154322 -0.027778 -2.477673
v -0.087315 -0.027778 -2.469282
v -0.202888 0.025960 -1.740775
v -0.154322 0.025960 -2.477673
v -0.135881 0.025960 -1.732385
v -0.087315 0.025960 -2.469282
v -0.068874 0.025960 -1.723995
v 0.021121 0.025959 -3.248318
v -0.045886 0.025959 -3.160847
v -0.020307 0.025960 -2.460892
v -0.000388 -0.000000 -2.458398
v 0.108048 -0.000001 -3.324400
v 0.088128 0.025959 -3.326894
v -0.020307 -0.027778 -2.460892
v 0.088128 -0.027779 -3.326894
v 0.019481 -0.000001 -3.248524
v 0.021121 -0.027779 -3.248318
v -0.069087 -0.000001 -3.163752
v -0.045886 -0.027779 -3.160847
vt 0.300113 0.069644
vt 0.324887 0.069644
vt 0.324887 0.094418
vt 0.038394 0.940738
vt 0.063168 0.940738
vt 0.063168 0.965512
vt 0.300113 0.094418
vt 0.038394 0.965512
vt 0.961606 0.948550
vt 0.961606 0.973324
vt 0.936832 0.973324
vt 0.936832 0.948550
vn 0.916500 -0.285000 -0.280800
vn 0.818600 0.097100 0.566100
vn 0.853100 0.200500 0.481700
vn 0.827800 0.120800 0.547800
vn -0.911500 -0.327100 0.249400
vn -0.292900 0.000000 -0.956100
vn -0.000000 -1.000000 0.000000
vn 0.000000 1.000000 -0.000000
vn 0.293000 0.000000 0.956100
vn -0.336400 -0.111200 0.935100
vn -0.418000 -0.227600 0.879500
vn -0.353600 -0.135100 0.925600
vn 0.184700 -0.776300 0.602700
vn 0.184600 -0.776400 0.602600
vn 0.184600 -0.776300 0.602700
vn 0.184600 0.776300 0.602700
vn 0.184700 0.776300 0.602600
vn -0.336400 0.111200 0.935100
vn -0.253000 0.000000 0.967500
vn -0.353600 0.135100 0.925600
vn -0.293000 0.000000 -0.956100
vn -0.911500 0.327100 0.249400
vn 0.818600 -0.097100 0.566100
vn 0.773000 0.000000 0.634400
vn 0.827800 -0.120800 0.547800
vn 0.916500 0.285000 -0.280800
vn 0.962000 0.272900 0.006300
vn -0.903500 0.327200 0.276800
vn 0.068400 0.972300 0.223300
vn 0.068400 -0.972300 0.223300
vn -0.903500 -0.327200 0.276800
vn 0.962000 -0.272900 0.006300
vn -0.293000 0.000100 -0.956100
vn 0.000000 0.000000 1.000000
vn -0.779400 0.313100 0.542700
vn -0.779400 -0.313100 0.542700
vn 0.907700 0.284800 -0.308100
vn -0.006700 0.999700 -0.021800
vn -0.006700 -0.999700 -0.021800
vn 0.907700 -0.284800 -0.308100
vn -0.133200 0.056300 -0.989500
vn -0.133200 -0.056300 -0.989500
vn 0.490900 0.074500 0.868000
vn -0.448200 0.049700 -0.892600
vn 0.490900 -0.074500 0.868000
vn -0.267900 0.175300 -0.947300
vn -0.289500 0.152800 -0.944900
vn -0.276300 0.166700 -0.946500
vn -0.293000 -0.000100 -0.956100
vn 0.073800 -0.065700 0.995100
vn 0.073700 -0.065700 0.995100
vn -0.308700 0.175100 -0.934900
vn -0.317700 0.185600 -0.929800
vn -0.301400 0.166500 -0.938800
vn 0.797100 -0.583700 -0.154800
vn 0.797100 -0.583600 -0.154900
vn 0.796200 -0.585000 -0.154500
vn -0.752400 -0.642000 0.147400
vn -0.752400 -0.641900 0.147500
vn -0.751400 -0.643200 0.147100
vn 0.292900 0.000000 0.956100
vn 0.184700 -0.776300 0.602600
vn 0.938900 -0.283800 -0.194600
vn -0.141500 -0.982500 0.120800
vn -0.144900 -0.982400 0.117600
vn -0.138100 -0.982600 0.124000
vn 0.241100 0.970500 0.004300
vn 0.242500 0.970200 -0.001700
vn 0.239700 0.970800 0.010500
vn 0.938900 0.283800 -0.194600
vn -0.873500 0.325900 0.361600
vn -0.873500 0.325900 0.361700
vn -0.873500 -0.325900 0.361600
vn -0.873500 -0.325900 0.361700
vn -0.192700 0.970800 0.142700
vn -0.201900 0.970200 0.134100
vn -0.197400 0.970500 0.138400
vn 0.183900 -0.982600 0.025500
vn 0.186000 -0.982400 0.016400
vn 0.184900 -0.982500 0.021000
vn 0.073800 0.065700 0.995100
vn 0.254800 0.228200 0.939700
vn 0.287900 0.184600 0.939700
vn 0.273800 0.203500 0.940000
vn 0.323900 -0.212700 0.921900
vn 0.289000 -0.163800 0.943200
vn 0.305300 -0.186500 0.933800
vn 0.315400 0.228500 0.921000
vn 0.324900 0.244000 0.913700
vn 0.299800 0.203600 0.932000
vn -0.448200 -0.049700 -0.892600
vn -0.263300 -0.163800 -0.950700
vn -0.249200 -0.177000 -0.952100
vn -0.272600 -0.154900 -0.949600
vn 0.248200 -0.212300 0.945200
vn 0.231500 -0.231700 0.944900
vn 0.270200 -0.186400 0.944600
vn -0.314400 -0.163500 -0.935100
vn -0.290100 -0.138200 -0.947000
vn -0.306100 -0.154800 -0.939300
vn -0.736600 0.669300 0.097800
vn 0.784200 0.611700 -0.104200
vn 0.778100 0.609700 -0.151100
vn 0.777100 0.611100 -0.150800
vn 0.777200 0.611000 -0.150800
vn -0.730900 0.667300 0.143200
vn -0.729800 0.668600 0.142900
vn -0.729900 0.668500 0.142900
vn 0.789100 0.611100 -0.061600
vn 0.789100 0.611200 -0.061600
vn 0.789400 0.610800 -0.061600
vn 0.808500 -0.585200 -0.063100
vn 0.808800 -0.584800 -0.063100
vn 0.808700 -0.584800 -0.063100
vn -0.758400 -0.644000 0.100700
vn 0.803400 -0.585700 -0.106700
vn 0.810600 -0.585600 -0.005600
vn 0.812900 -0.582400 -0.005300
vn 0.812800 -0.582600 -0.005300
vn -0.765100 -0.643800 0.003400
vn -0.767600 -0.640900 0.003100
vn -0.767500 -0.641000 0.003100
vn -0.741300 0.668700 0.057600
vn -0.741600 0.668300 0.057600
vn -0.763200 -0.643400 0.059300
vn -0.763600 -0.643000 0.059300
vn -0.763900 -0.643300 -0.050300
vn -0.742000 0.668600 -0.048900
vn 0.791100 0.611600 -0.005400
vn 0.791000 0.611800 -0.005400
vn 0.793500 0.608600 -0.005200
vn -0.743100 0.669100 0.003300
vn -0.743000 0.669300 0.003300
vn -0.745700 0.666300 0.003000
vn 0.784900 0.611700 0.098300
vn 0.804200 -0.585700 0.100700
vn 0.804200 -0.585800 0.100700
vn 0.809200 -0.585100 0.053300
vn 0.789900 0.611100 0.052100
vn -0.742500 0.049700 -0.668000
vn -0.573700 0.471600 -0.669700
vn -0.609700 0.408800 -0.679000
vn -0.600400 -0.436100 -0.670300
vn -0.564700 -0.496600 -0.659100
vn -0.743700 -0.046700 -0.666900
vn -0.604000 0.519800 -0.604200
vn -0.792600 0.054900 -0.607200
vn -0.771500 0.147700 -0.618900
vn -0.770900 -0.144100 -0.620400
vn -0.792800 -0.051300 -0.607300
vn -0.616500 -0.491300 -0.615300
vn -0.734000 0.669100 -0.116500
vn -0.755800 -0.643800 -0.120000
vn -0.418000 0.227600 0.879500
vn 0.853100 -0.200500 0.481700
vn -0.257700 0.185900 -0.948200
vn 0.796100 -0.585100 -0.154500
vn -0.751400 -0.643300 0.147100
vn 0.184600 0.776400 0.602600
vn -0.134800 -0.982700 0.127000
vn 0.238300 0.971000 0.016300
vn -0.188400 0.971100 0.146700
vn 0.182800 -0.982700 0.029800
vn 0.073700 0.065700 0.995100
vn 0.242800 0.243600 0.939000
vn 0.337600 -0.232200 0.912200
vn -0.290200 -0.138200 -0.947000
vn -0.326900 -0.176600 -0.928400
vn 0.778100 0.609600 -0.151200
vn -0.730900 0.667300 0.143300
vn 0.808400 -0.585200 -0.063100
vn 0.810500 -0.585800 -0.005600
vn -0.765000 -0.644000 0.003400
vn -0.741700 0.668300 0.057600
vn 0.793600 0.608400 -0.005200
vn -0.745800 0.666200 0.003000
vn -0.760000 -0.049700 -0.648100
vn -0.759800 0.053100 -0.648000
vn -0.566800 0.572800 -0.592200
vn -0.578900 -0.546800 -0.604900
usemtl Material.047
s 1
f 1/1/1 2/2/1 3/3/1
f 2/4/2 5/5/3 6/6/4
f 8/4/5 9/5/5 10/6/5
f 12/4/6 10/5/6 13/6/6
f 16/2/7 17/3/7 18/7/7
f 20/2/8 5/3/8 21/7/8
f 23/5/9 24/6/9 25/8/9
f 26/4/10 17/5/11 24/6/12
f 16/4/13 3/5/14 27/6/15
f 20/4/16 28/5/17 29/6/17
f 26/5/18 23/6/19 29/8/20
f 29/5/9 23/6/9 22/8/9
f 32/5/6 33/6/6 34/8/21
f 36/5/22 9/6/22 8/8/22
f 2/5/23 7/6/24 27/8/25
f 5/2/26 2/3/26 1/7/26
f 34/9/8 38/10/8 39/11/8
f 37/9/8 39/10/8 41/11/8
f 32/4/6 42/5/21 43/6/21
f 9/4/6 36/5/6 40/6/6
f 45/4/21 31/5/21 34/6/21
f 9/5/6 44/6/6 13/8/6
f 21/5/27 1/6/27 47/8/27
f 48/2/28 49/3/28 26/7/28
f 50/4/29 19/5/29 21/6/29
f 51/4/30 15/5/30 18/6/30
f 26/1/31 49/2/31 18/3/31
f 47/4/32 1/5/32 4/6/32
f 35/4/33 8/5/21 54/6/21
f 50/4/34 46/5/34 56/6/34
f 59/5/6 60/6/6 61/8/6
f 52/4/34 62/5/34 63/6/34
f 48/4/35 65/5/35 62/6/35
f 62/5/36 52/6/36 18/8/36
f 31/4/37 59/5/37 58/6/37
f 66/5/38 59/6/38 31/8/38
f 67/5/39 11/6/39 10/8/39
f 58/5/40 68/6/40 42/8/40
f 68/4/6 58/5/6 61/6/6
f 51/4/34 52/5/34 64/6/34
f 71/5/41 72/6/41 73/8/41
f 55/4/42 54/5/42 73/6/42
f 64/4/43 63/5/43 75/6/43
f 69/4/44 61/5/44 77/6/44
f 79/5/45 80/6/45 75/8/45
f 71/4/46 81/5/47 82/6/48
f 35/5/33 55/6/33 83/8/49
f 46/4/34 47/5/34 84/6/34
f 11/5/49 71/6/49 54/8/21
f 47/4/34 53/5/34 85/6/34
f 68/5/6 69/6/6 81/8/33
f 62/4/34 65/5/34 79/6/34
f 11/4/49 67/5/33 81/6/33
f 59/4/6 66/5/49 83/6/49
f 56/4/50 84/5/51 86/6/50
f 69/5/52 78/6/53 82/8/54
f 53/4/34 51/5/34 70/6/34
f 42/4/39 68/5/39 67/6/39
f 36/4/38 35/5/38 66/6/38
f 65/4/34 50/5/34 57/6/34
f 4/5/30 15/6/30 51/8/30
f 48/5/29 19/6/29 50/8/29
f 45/5/21 37/6/21 40/8/6
f 33/12/55 43/9/56 88/10/57
f 13/12/58 44/9/59 90/10/60
f 30/5/9 22/6/9 7/8/61
f 20/5/16 30/6/16 6/8/16
f 16/5/13 25/6/15 24/8/62
f 22/5/9 25/6/9 27/8/61
f 48/1/8 28/2/8 20/3/8
f 4/1/7 3/2/7 16/3/7
f 12/5/6 14/6/21 43/8/21
f 77/4/63 86/5/63 92/6/63
f 82/4/64 93/5/65 76/6/66
f 94/4/67 95/5/68 87/6/69
f 87/5/70 86/6/70 77/8/70
f 80/4/71 74/5/72 73/6/71
f 73/5/73 72/6/74 76/8/73
f 80/5/75 95/6/76 94/8/77
f 92/5/78 93/6/79 82/8/80
f 85/5/81 92/6/81 86/8/81
f 85/4/82 70/5/83 93/6/84
f 79/4/85 57/5/86 95/6/87
f 64/5/88 76/6/89 93/8/90
f 60/5/91 96/6/91 77/8/91
f 55/5/92 74/6/93 94/8/94
f 56/5/95 87/6/96 95/8/97
f 60/4/98 83/5/99 94/6/100
f 41/9/101 97/10/101 98/11/101
f 41/12/8 39/9/8 99/10/8
f 89/9/102 100/10/102 101/11/102
f 39/12/8 38/9/8 101/10/8
f 33/9/103 89/10/104 38/11/105
f 40/9/106 41/10/107 90/11/108
f 43/12/7 14/9/7 102/10/7
f 14/12/7 13/9/7 91/10/7
f 101/12/109 100/9/110 103/10/111
f 99/12/8 101/9/8 104/10/8
f 106/9/112 107/10/113 103/11/114
f 108/9/7 109/10/7 107/11/7
f 91/9/7 110/10/7 108/11/7
f 91/12/115 90/9/115 98/10/115
f 102/9/7 108/10/7 106/11/7
f 89/12/116 88/9/116 106/10/116
f 107/9/117 111/10/118 112/11/119
f 109/9/7 113/10/7 111/11/7
f 115/9/120 116/10/121 117/11/122
f 114/9/7 117/10/7 113/11/7
f 97/12/8 99/9/8 105/10/8
f 98/12/123 97/9/123 118/10/124
f 110/9/7 114/10/7 109/11/7
f 98/9/125 115/10/126 114/11/126
f 116/9/127 119/10/127 120/11/127
f 117/9/7 120/10/7 121/11/7
f 116/12/128 122/9/128 123/10/128
f 122/12/8 124/9/8 125/10/8
f 105/12/8 104/9/8 126/10/8
f 104/12/129 103/9/130 112/10/131
f 118/12/8 105/9/8 124/10/8
f 115/12/132 118/9/133 122/10/134
f 125/9/8 127/10/8 128/11/8
f 130/9/135 131/10/135 132/11/135
f 129/9/8 132/10/8 127/11/8
f 130/12/136 133/9/136 134/10/137
f 113/9/7 121/10/7 133/11/7
f 111/9/138 133/10/138 130/11/138
f 124/12/8 126/9/8 129/10/8
f 126/12/139 112/9/139 130/10/139
f 135/12/140 131/9/141 134/10/142
f 132/9/143 131/10/144 135/11/145
f 128/12/146 127/9/147 135/10/148
f 135/9/149 136/10/150 138/11/151
f 123/9/152 128/10/152 137/11/152
f 121/12/7 120/9/7 138/10/7
f 120/12/153 119/9/153 137/10/153
f 133/12/7 121/9/7 136/10/7
f 4/7/1 1/1/1 3/3/1
f 7/8/24 2/4/2 6/6/4
f 11/8/5 8/4/5 10/6/5
f 14/8/21 12/4/6 13/6/6
f 15/1/7 16/2/7 18/7/7
f 19/1/8 20/2/8 21/7/8
f 22/4/9 23/5/9 25/8/9
f 23/8/19 26/4/10 24/6/12
f 25/8/15 16/4/13 27/6/15
f 30/8/16 20/4/16 29/6/17
f 28/4/154 26/5/18 29/8/20
f 30/4/9 29/5/9 22/8/9
f 31/4/21 32/5/6 34/8/21
f 35/4/22 36/5/22 8/8/22
f 3/4/155 2/5/23 27/8/25
f 21/1/26 5/2/26 1/7/26
f 37/12/8 34/9/8 39/11/8
f 40/12/8 37/9/8 41/11/8
f 33/8/6 32/4/6 43/6/21
f 44/8/6 9/4/6 40/6/6
f 37/8/21 45/4/21 34/6/21
f 10/4/6 9/5/6 13/8/6
f 46/4/27 21/5/27 47/8/27
f 28/1/28 48/2/28 26/7/28
f 46/8/29 50/4/29 21/6/29
f 52/8/30 51/4/30 18/6/30
f 17/7/31 26/1/31 18/3/31
f 53/8/32 47/4/32 4/6/32
f 55/8/33 35/4/33 54/6/21
f 57/8/34 50/4/34 56/6/34
f 58/4/6 59/5/6 61/8/6
f 64/8/34 52/4/34 63/6/34
f 49/8/35 48/4/35 62/6/35
f 49/4/36 62/5/36 18/8/36
f 32/8/37 31/4/37 58/6/37
f 45/4/38 66/5/38 31/8/38
f 12/4/39 67/5/39 10/8/39
f 32/4/40 58/5/40 42/8/40
f 69/8/6 68/4/6 61/6/6
f 70/8/34 51/4/34 64/6/34
f 54/4/41 71/5/41 73/8/41
f 74/8/42 55/4/42 73/6/42
f 76/8/43 64/4/43 75/6/43
f 78/8/44 69/4/44 77/6/44
f 63/4/45 79/5/45 75/8/45
f 72/8/156 71/4/46 82/6/48
f 66/4/49 35/5/33 83/8/49
f 56/8/34 46/4/34 84/6/34
f 8/4/21 11/5/49 54/8/21
f 84/8/34 47/4/34 85/6/34
f 67/4/33 68/5/6 81/8/33
f 63/8/34 62/4/34 79/6/34
f 71/8/49 11/4/49 81/6/33
f 60/8/6 59/4/6 83/6/49
f 87/8/50 56/4/50 86/6/50
f 81/4/47 69/5/52 82/8/54
f 85/8/34 53/4/34 70/6/34
f 12/8/39 42/4/39 67/6/39
f 45/8/38 36/4/38 66/6/38
f 79/8/34 65/4/34 57/6/34
f 53/4/30 4/5/30 51/8/30
f 65/4/29 48/5/29 50/8/29
f 36/4/6 45/5/21 40/8/6
f 89/11/157 33/12/55 88/10/57
f 91/11/158 13/12/58 90/10/60
f 6/4/61 30/5/9 7/8/61
f 5/4/159 20/5/16 6/8/16
f 17/4/62 16/5/13 24/8/62
f 7/4/61 22/5/9 27/8/61
f 19/7/8 48/1/8 20/3/8
f 15/7/7 4/1/7 16/3/7
f 42/4/21 12/5/6 43/8/21
f 78/8/63 77/4/63 92/6/63
f 72/8/160 82/4/64 76/6/66
f 96/8/161 94/4/67 87/6/69
f 96/4/70 87/5/70 77/8/70
f 75/8/71 80/4/71 73/6/71
f 75/4/73 73/5/73 76/8/73
f 74/4/162 80/5/75 94/8/77
f 78/4/163 92/5/78 82/8/80
f 84/4/164 85/5/81 86/8/81
f 92/8/165 85/4/82 93/6/84
f 80/8/166 79/4/85 95/6/87
f 70/4/83 64/5/88 93/8/90
f 61/4/91 60/5/91 77/8/91
f 83/4/167 55/5/92 94/8/94
f 57/4/86 56/5/95 95/8/97
f 96/8/168 60/4/98 94/6/100
f 90/12/101 41/9/101 98/11/101
f 97/11/8 41/12/8 99/10/8
f 38/12/102 89/9/102 101/11/102
f 99/11/8 39/12/8 101/10/8
f 34/12/169 33/9/103 38/11/105
f 44/12/170 40/9/106 90/11/108
f 88/11/7 43/12/7 102/10/7
f 102/11/7 14/12/7 91/10/7
f 104/11/111 101/12/109 103/10/111
f 105/11/8 99/12/8 104/10/8
f 100/12/171 106/9/112 103/11/114
f 106/12/7 108/9/7 107/11/7
f 102/12/7 91/9/7 108/11/7
f 110/11/115 91/12/115 98/10/115
f 88/12/7 102/9/7 106/11/7
f 100/11/116 89/12/116 106/10/116
f 103/12/172 107/9/117 112/11/119
f 107/12/7 109/9/7 111/11/7
f 114/12/173 115/9/120 117/11/122
f 109/12/7 114/9/7 113/11/7
f 118/11/8 97/12/8 105/10/8
f 115/11/174 98/12/123 118/10/124
f 108/12/7 110/9/7 109/11/7
f 110/12/125 98/9/125 114/11/126
f 117/12/127 116/9/127 120/11/127
f 113/12/7 117/9/7 121/11/7
f 119/11/128 116/12/128 123/10/128
f 123/11/8 122/12/8 125/10/8
f 124/11/8 105/12/8 126/10/8
f 126/11/175 104/12/129 112/10/131
f 122/11/8 118/12/8 124/10/8
f 116/11/176 115/12/132 122/10/134
f 123/12/8 125/9/8 128/11/8
f 129/12/135 130/9/135 132/11/135
f 125/12/8 129/9/8 127/11/8
f 131/11/137 130/12/136 134/10/137
f 111/12/7 113/9/7 133/11/7
f 112/12/138 111/9/138 130/11/138
f 125/11/8 124/12/8 129/10/8
f 129/11/139 126/12/139 130/10/139
f 136/11/177 135/12/140 134/10/142
f 127/12/178 132/9/143 135/11/145
f 137/11/179 128/12/146 135/10/148
f 137/12/180 135/9/149 138/11/151
f 119/12/152 123/9/152 137/11/152
f 136/11/7 121/12/7 138/10/7
f 138/11/153 120/12/153 137/10/153
f 134/11/7 133/12/7 136/10/7
