# Blender v2.76 (sub 0) OBJ File: ''
# www.blender.org
mtllib Spear.mtl
o Cylinder.011
v 0.000000 1.198798 0.055922
v 0.000145 2.009761 0.063322
v -0.031333 2.009761 0.054887
v -0.027961 1.198798 0.048430
v -0.054377 2.009761 0.031844
v -0.048430 1.198798 0.027961
v -0.062811 2.009761 0.000365
v -0.055923 1.198798 -0.000000
v -0.054377 2.009761 -0.031113
v -0.048430 1.198798 -0.027961
v -0.031333 2.009761 -0.054157
v -0.027961 1.198798 -0.048430
v 0.000145 2.009761 -0.062591
v 0.000000 1.198798 -0.055922
v 0.031624 2.009761 -0.054157
v 0.027961 1.198798 -0.048430
v 0.054667 2.009761 -0.031113
v 0.048430 1.198798 -0.027961
v 0.063102 2.009761 0.000365
v 0.055922 1.198798 -0.000000
v 0.054667 2.009761 0.031844
v 0.048430 1.198798 0.027961
v 0.031624 2.009761 0.054887
v 0.048404 2.132673 0.028228
v 0.028008 2.132673 0.048624
v 0.027961 1.198798 0.048430
v 0.027961 -1.614788 -0.048430
v 0.048430 -1.614788 -0.027961
v 0.037873 -2.116418 -0.021866
v 0.021866 -2.116418 -0.037873
v 0.000000 -2.116418 0.043732
v -0.021866 -2.116418 0.037873
v -0.037873 -2.116418 0.021866
v -0.043732 -2.116418 0.000000
v -0.037873 -2.116418 -0.021866
v -0.021866 -2.116418 -0.037873
v 0.000000 -2.116418 -0.043732
v 0.043732 -2.116418 0.000000
v 0.037873 -2.116418 0.021866
v 0.021866 -2.116418 0.037873
v 0.000000 -1.614788 -0.055922
v -0.027961 -1.614788 -0.048430
v -0.048430 -1.614788 -0.027961
v -0.055923 -1.614788 0.000000
v 0.027961 -1.614788 0.048430
v 0.000000 -1.614788 0.055922
v -0.027961 -1.614788 0.048430
v -0.048430 -1.614788 0.027961
v 0.048430 -1.614788 0.027961
v 0.055922 -1.614788 0.000000
v 0.000145 2.132673 -0.055359
v -0.027717 2.132673 -0.047893
v -0.029772 2.189297 -0.051454
v 0.000146 2.189297 -0.059470
v -0.027717 2.132673 0.048624
v -0.048114 2.132673 0.028228
v 0.055870 2.132673 0.000365
v 0.048404 2.132673 -0.027497
v 0.028008 2.132673 -0.047893
v -0.101525 2.045930 -0.339020
v -0.084826 2.045930 -0.343416
v -0.048114 2.132673 -0.027497
v -0.055579 2.132673 0.000365
v 0.000145 2.132673 0.056090
v 0.078690 2.045930 0.332344
v 0.078690 2.137208 0.332344
v -0.101525 2.137208 -0.339020
v -0.084826 2.137208 -0.343416
v 0.096984 2.045930 0.323281
v 0.096984 2.137208 0.323281
v -0.051673 2.189297 0.030283
v -0.059690 2.189297 0.000365
v 0.059981 2.189297 0.000365
v 0.051965 2.189297 0.030283
v 0.030063 2.189297 -0.051454
v -0.051673 2.189297 -0.029552
v 0.030064 2.189297 0.052184
v 0.000146 2.189297 0.060201
v -0.029772 2.189297 0.052184
v 0.051965 2.189297 -0.029552
v -0.067159 2.214150 -0.116211
v 0.000146 2.214150 -0.134245
v -0.008505 2.976959 -0.014619
v 0.000146 2.976959 -0.016937
v 0.008797 2.976959 -0.014619
v 0.000146 3.018792 -0.007853
v 0.004255 3.018792 -0.006752
v 0.000146 2.976959 0.017667
v 0.008797 2.976959 0.015349
v 0.004255 3.018792 0.007483
v 0.000146 3.018792 0.008584
v 0.067451 2.214150 0.116941
v 0.015130 2.976959 0.009016
v 0.007264 3.018792 0.004475
v -0.003963 3.018792 -0.006752
v -0.003963 3.018792 0.007483
v -0.006971 3.018792 -0.003744
v -0.014838 2.976959 -0.008286
v -0.008505 2.976959 0.015349
v 0.000146 2.214150 0.134976
vt 0.049879 0.936598
vt 0.067309 0.936598
vt 0.067309 0.954027
vt 0.049879 0.954027
vt 0.934496 0.928785
vt 0.934496 0.946215
vt 0.917066 0.946215
vt 0.067309 0.945312
vt 0.054236 0.937765
vt 0.062951 0.952860
vt 0.917066 0.928785
vt 0.925781 0.928785
vt 0.919619 0.931338
vt 0.919619 0.943662
vt 0.054236 0.952860
vt 0.058594 0.954027
vt 0.066141 0.949670
vt 0.066141 0.940955
vt 0.062951 0.937765
vt 0.058594 0.936598
vt 0.051046 0.940955
vt 0.049879 0.945312
vt 0.051046 0.949670
vt 0.925781 0.946215
vt 0.931944 0.943662
vt 0.934496 0.937500
vt 0.931944 0.931338
vt 0.917066 0.937500
vn -0.258800 -0.008800 0.965900
vn -0.707100 -0.008600 0.707100
vn -0.965900 -0.008300 0.258800
vn -0.965900 -0.008100 -0.258800
vn -0.707100 -0.007900 -0.707100
vn -0.258800 -0.007900 -0.965900
vn 0.258800 -0.008000 -0.965900
vn 0.707100 -0.008200 -0.707100
vn 0.965900 -0.008400 -0.258800
vn 0.965900 -0.008700 0.258800
vn 0.706000 0.056700 0.706000
vn 0.258800 -0.008900 0.965900
vn 0.707100 -0.008800 0.707100
vn 0.706900 -0.023500 -0.706900
vn 0.000000 -1.000000 -0.000000
vn 0.258700 -0.023500 -0.965700
vn -0.258700 -0.023500 -0.965700
vn -0.706900 -0.023500 -0.706900
vn -0.965700 -0.023500 -0.258800
vn -0.965700 -0.023500 -0.258700
vn 0.258700 -0.023500 0.965700
vn -0.258700 -0.023500 0.965700
vn -0.965700 -0.023500 0.258800
vn -0.965700 -0.023500 0.258700
vn 0.706900 -0.023500 0.706900
vn -0.706900 -0.023500 0.706900
vn 0.965700 -0.023500 0.258700
vn 0.965700 -0.023500 -0.258700
vn -0.258200 -0.070000 -0.963600
vn -0.706000 0.056700 0.706000
vn 0.964400 0.056700 0.258400
vn 0.964400 0.056700 -0.258400
vn 0.706000 0.056700 -0.706000
vn 0.258400 0.056700 -0.964400
vn -0.031700 -0.992500 -0.118200
vn -0.031200 -0.992500 -0.118300
vn -0.706000 0.056700 -0.706000
vn -0.705900 0.056700 -0.706000
vn -0.964400 0.056700 -0.258400
vn -0.960700 0.013100 0.277300
vn -0.960400 0.016400 0.278200
vn -0.961500 0.004100 0.274700
vn -0.258400 0.056700 0.964400
vn -0.964400 0.056700 0.258400
vn -0.254600 -0.000000 -0.967100
vn 0.957900 0.013600 -0.286700
vn 0.957600 0.016900 -0.287600
vn 0.958800 0.004000 -0.284000
vn -0.970200 0.013100 0.242100
vn -0.969300 -0.000000 0.245800
vn -0.969600 0.003900 0.244700
vn 0.003900 0.999900 0.014600
vn 0.003800 0.999900 0.014600
vn 0.443900 0.000000 0.896100
vn 0.034700 -0.991500 0.125000
vn 0.033600 -0.991500 0.125400
vn 0.056100 -0.991500 0.117100
vn 0.970800 0.013000 -0.239700
vn 0.969900 -0.000000 -0.243600
vn 0.970200 0.004100 -0.242300
vn -0.004300 0.999900 -0.015400
vn -0.007100 0.999900 -0.014400
vn -0.007000 0.999900 -0.014400
vn 0.707100 0.000000 0.707100
vn 0.258800 0.000000 0.965900
vn 0.965900 0.000000 0.258800
vn 0.965900 -0.000000 -0.258800
vn 0.707100 -0.000000 -0.707100
vn 0.258800 -0.000000 -0.965900
vn -0.258800 -0.000000 -0.965900
vn -0.707100 -0.000000 -0.707100
vn -0.965900 -0.000000 -0.258800
vn -0.965900 0.000000 0.258800
vn -0.707100 0.000000 0.707100
vn -0.258800 0.000000 0.965900
vn -0.963600 -0.069900 0.258200
vn 0.963600 -0.070000 0.258200
vn 0.258200 -0.070000 -0.963600
vn -0.963600 -0.069900 -0.258200
vn -0.963600 -0.070000 -0.258200
vn 0.705400 -0.070000 0.705400
vn -0.258200 -0.070000 0.963600
vn 0.705400 -0.070000 -0.705400
vn -0.705400 -0.069900 -0.705400
vn -0.705400 -0.070000 -0.705400
vn 0.258200 -0.070000 0.963600
vn -0.705400 -0.069900 0.705400
vn 0.963600 -0.070000 -0.258200
vn -0.230100 -0.945600 -0.230100
vn -0.256000 0.146900 -0.955400
vn 0.253300 0.205300 -0.945400
vn 0.253300 0.205300 0.945400
vn 0.699400 0.146900 0.699400
vn 0.692000 0.205300 0.692100
vn 0.691900 0.205300 0.692200
vn -0.253300 0.205300 -0.945400
vn 0.000000 1.000000 0.000000
vn 0.954700 0.151800 -0.255800
vn 0.954700 0.151800 -0.255900
vn -0.084200 -0.945600 -0.314300
vn 0.230100 -0.945600 0.230100
vn -0.699400 0.146900 -0.699400
vn -0.253300 0.205300 0.945400
vn -0.534700 -0.832800 -0.143300
vn -0.692000 0.205300 -0.692000
vn 0.534700 -0.832800 0.143300
vn -0.391400 -0.832800 0.391400
vn -0.709500 0.678500 0.190100
vn -0.954700 0.151800 0.255800
vn -0.965500 0.029600 0.258700
vn 0.084200 -0.945600 -0.314300
vn 0.965500 0.029600 -0.258700
vn 0.709500 0.678500 -0.190100
vn 0.256000 0.146900 -0.955400
vn 0.391400 -0.832800 -0.391400
vn -0.084200 -0.945600 0.314300
vn -0.256000 0.146900 0.955400
vn 0.256000 0.146900 0.955400
vn 0.084200 -0.945600 0.314300
vn -0.961900 0.000000 0.273500
vn 0.959100 -0.000000 -0.282900
vn -0.970300 0.016300 0.241200
vn 0.057700 -0.991500 0.116500
vn 0.971000 0.016400 -0.238700
vn -0.004100 0.999900 -0.015500
vn -0.963600 -0.070000 0.258200
vn -0.258200 -0.069900 0.963600
vn 0.954700 0.151700 -0.255900
vn -0.709500 0.678600 0.190100
usemtl Material.051
s 1
f 1/1/1 2/2/1 3/3/1
f 4/1/2 3/2/2 5/3/2
f 6/1/3 5/2/3 7/3/3
f 8/1/4 7/2/4 9/3/4
f 10/1/5 9/2/5 11/3/5
f 11/2/6 13/3/6 14/4/6
f 13/2/7 15/3/7 16/4/7
f 15/2/8 17/3/8 18/4/8
f 17/2/9 19/3/9 20/4/9
f 19/2/10 21/3/10 22/4/10
f 21/5/11 24/6/11 25/7/11
f 26/1/12 23/2/12 2/3/12
f 21/2/13 23/3/13 26/4/13
f 28/2/14 29/3/14 30/4/14
f 34/8/15 30/9/15 32/10/15
f 27/2/16 30/3/16 37/4/16
f 41/2/17 37/3/17 36/4/17
f 42/2/18 36/3/18 35/4/18
f 43/2/19 35/3/20 34/4/20
f 46/2/21 31/3/21 40/4/21
f 46/1/22 47/2/22 32/3/22
f 44/2/23 34/3/24 33/4/24
f 49/1/25 45/2/25 40/3/25
f 48/2/26 33/3/26 32/4/26
f 49/2/27 39/3/27 38/4/27
f 50/2/28 38/3/28 29/4/28
f 51/11/29 52/5/29 53/6/29
f 3/5/30 55/6/30 56/7/30
f 19/5/31 57/6/31 24/7/31
f 19/11/32 17/5/32 58/6/32
f 17/11/33 15/5/33 59/6/33
f 13/5/34 51/6/34 59/7/34
f 11/5/35 60/6/36 61/7/36
f 9/5/37 62/6/38 52/7/37
f 7/5/39 63/6/39 62/7/39
f 64/11/40 2/5/41 65/6/42
f 3/11/43 2/5/43 64/6/43
f 7/11/44 5/5/44 56/6/44
f 60/5/45 67/6/45 68/7/45
f 51/11/46 13/5/47 61/6/48
f 52/5/49 67/6/50 60/7/51
f 52/11/52 51/5/52 68/6/53
f 69/5/54 70/6/54 66/7/54
f 2/11/55 23/5/56 69/6/57
f 25/5/58 70/6/59 69/7/60
f 64/5/61 66/6/62 70/7/63
f 22/2/64 26/3/64 45/4/64
f 26/2/65 1/3/65 46/4/65
f 20/2/66 22/3/66 49/4/66
f 18/2/67 20/3/67 50/4/67
f 16/2/68 18/3/68 28/4/68
f 14/2/69 16/3/69 27/4/69
f 12/2/70 14/3/70 41/4/70
f 10/2/71 12/3/71 42/4/71
f 8/2/72 10/3/72 43/4/72
f 6/2/73 8/3/73 44/4/73
f 4/2/74 6/3/74 48/4/74
f 1/2/75 4/3/75 47/4/75
f 63/11/76 56/5/76 71/6/76
f 57/5/77 73/6/77 74/7/77
f 59/11/78 51/5/78 54/6/78
f 62/11/79 63/5/80 72/6/79
f 24/5/81 74/6/81 77/7/81
f 64/5/82 78/6/82 79/7/82
f 58/11/83 59/5/83 75/6/83
f 52/11/84 62/5/84 76/6/85
f 25/5/86 77/6/86 78/7/86
f 55/5/87 79/6/87 71/7/87
f 57/11/88 58/5/88 80/6/88
f 53/11/89 76/5/89 81/6/89
f 81/5/90 83/6/90 84/7/90
f 85/11/91 84/5/91 86/6/91
f 88/11/92 89/5/92 90/6/92
f 92/11/93 93/5/93 89/6/93
f 89/11/94 93/5/94 94/6/95
f 84/11/96 83/5/96 95/6/96
f 87/12/97 86/13/97 97/14/97
f 93/11/98 85/5/98 87/6/99
f 53/5/100 81/6/100 82/7/100
f 77/11/101 74/5/101 92/6/101
f 81/11/102 98/5/102 83/6/102
f 88/5/103 91/6/103 96/7/103
f 76/11/104 72/5/104 81/6/104
f 83/11/105 98/5/105 97/6/105
f 74/11/106 73/5/106 92/6/106
f 71/11/107 79/5/107 100/6/107
f 71/5/108 100/6/108 81/7/108
f 99/5/109 96/6/109 97/7/109
f 81/11/110 100/5/110 99/6/110
f 75/11/111 54/5/111 82/6/111
f 82/5/112 85/6/112 93/7/112
f 73/11/113 80/5/113 82/6/113
f 82/11/114 84/5/114 85/6/114
f 80/11/115 75/5/115 82/6/115
f 79/11/116 78/5/116 100/6/116
f 100/11/117 88/5/117 99/6/117
f 92/5/118 89/6/118 88/7/118
f 78/11/119 77/5/119 92/6/119
f 4/4/1 1/1/1 3/3/1
f 6/4/2 4/1/2 5/3/2
f 8/4/3 6/1/3 7/3/3
f 10/4/4 8/1/4 9/3/4
f 12/4/5 10/1/5 11/3/5
f 12/1/6 11/2/6 14/4/6
f 14/1/7 13/2/7 16/4/7
f 16/1/8 15/2/8 18/4/8
f 18/1/9 17/2/9 20/4/9
f 20/1/10 19/2/10 22/4/10
f 23/11/11 21/5/11 25/7/11
f 1/4/12 26/1/12 2/3/12
f 22/1/13 21/2/13 26/4/13
f 27/1/14 28/2/14 30/4/14
f 40/15/15 31/16/15 32/10/15
f 32/10/15 33/17/15 34/8/15
f 34/8/15 35/18/15 30/9/15
f 36/19/15 37/20/15 30/9/15
f 30/9/15 29/21/15 38/22/15
f 38/22/15 39/23/15 30/9/15
f 40/15/15 32/10/15 30/9/15
f 35/18/15 36/19/15 30/9/15
f 30/9/15 39/23/15 40/15/15
f 41/1/16 27/2/16 37/4/16
f 42/1/17 41/2/17 36/4/17
f 43/1/18 42/2/18 35/4/18
f 44/1/19 43/2/19 34/4/20
f 45/1/21 46/2/21 40/4/21
f 31/4/22 46/1/22 32/3/22
f 48/1/23 44/2/23 33/4/24
f 39/4/25 49/1/25 40/3/25
f 47/1/26 48/2/26 32/4/26
f 50/1/27 49/2/27 38/4/27
f 28/1/28 50/2/28 29/4/28
f 54/7/29 51/11/29 53/6/29
f 5/11/30 3/5/30 56/7/30
f 21/11/31 19/5/31 24/7/31
f 57/7/32 19/11/32 58/6/32
f 58/7/33 17/11/33 59/6/33
f 15/11/34 13/5/34 59/7/34
f 13/11/35 11/5/35 61/7/36
f 11/11/37 9/5/37 52/7/37
f 9/11/39 7/5/39 62/7/39
f 66/7/120 64/11/40 65/6/42
f 55/7/43 3/11/43 64/6/43
f 63/7/44 7/11/44 56/6/44
f 61/11/45 60/5/45 68/7/45
f 68/7/121 51/11/46 61/6/48
f 11/11/122 52/5/49 60/7/51
f 67/7/53 52/11/52 68/6/53
f 65/11/54 69/5/54 66/7/54
f 65/7/123 2/11/55 69/6/57
f 23/11/124 25/5/58 69/7/60
f 25/11/125 64/5/61 70/7/63
f 49/1/64 22/2/64 45/4/64
f 45/1/65 26/2/65 46/4/65
f 50/1/66 20/2/66 49/4/66
f 28/1/67 18/2/67 50/4/67
f 27/1/68 16/2/68 28/4/68
f 41/1/69 14/2/69 27/4/69
f 42/1/70 12/2/70 41/4/70
f 43/1/71 10/2/71 42/4/71
f 44/1/72 8/2/72 43/4/72
f 48/1/73 6/2/73 44/4/73
f 47/1/74 4/2/74 48/4/74
f 46/1/75 1/2/75 47/4/75
f 72/7/126 63/11/76 71/6/76
f 24/11/77 57/5/77 74/7/77
f 75/7/78 59/11/78 54/6/78
f 76/7/79 62/11/79 72/6/79
f 25/11/81 24/5/81 77/7/81
f 55/11/127 64/5/82 79/7/82
f 80/7/83 58/11/83 75/6/83
f 53/7/85 52/11/84 76/6/85
f 64/11/86 25/5/86 78/7/86
f 56/11/87 55/5/87 71/7/87
f 73/7/88 57/11/88 80/6/88
f 82/11/90 81/5/90 84/7/90
f 87/7/91 85/11/91 86/6/91
f 91/7/92 88/11/92 90/6/92
f 90/7/95 89/11/94 94/6/95
f 86/7/96 84/11/96 95/6/96
f 97/14/97 96/24/97 91/25/97
f 91/25/97 90/26/97 97/14/97
f 94/27/97 87/12/97 90/26/97
f 86/13/97 95/28/97 97/14/97
f 97/14/97 90/26/97 87/12/97
f 94/7/128 93/11/98 87/6/99
f 54/11/100 53/5/100 82/7/100
f 99/11/103 88/5/103 96/7/103
f 95/7/105 83/11/105 97/6/105
f 72/11/129 71/5/108 81/7/108
f 98/11/109 99/5/109 97/7/109
f 98/7/110 81/11/110 99/6/110
f 92/11/112 82/5/112 93/7/112
f 92/7/113 73/11/113 82/6/113
f 100/11/118 92/5/118 88/7/118
f 100/7/119 78/11/119 92/6/119
