# Blender v2.76 (sub 0) OBJ File: ''
# www.blender.org
mtllib MediumHouse.mtl
o Cube.005
v 0.825028 2.081764 -3.368628
v 0.825028 2.081764 -2.982710
v 0.825028 1.695845 -2.982710
v 0.825028 1.695845 -3.368628
v 0.439110 2.081764 -2.982710
v 0.439110 1.695845 -2.982710
v 0.439110 2.081764 -3.368628
v 0.439110 1.695845 -3.368628
v 0.395690 2.050842 -2.939290
v 0.395690 2.050842 -3.412048
v 0.868448 2.050842 -2.939290
v 0.868448 2.387518 -2.939291
v 0.395690 2.387518 -2.939291
v 0.868448 2.050842 -3.412048
v 0.868448 2.387518 -3.412049
v 0.395690 2.387518 -3.412049
v 0.447194 2.387518 -3.360544
v 0.816945 2.387518 -3.360544
v 0.447194 2.387518 -2.990794
v 0.447194 2.092364 -2.990794
v 0.447194 2.092364 -3.360544
v 0.816945 2.387518 -2.990793
v 0.816945 2.092364 -2.990793
v 0.816945 2.092364 -3.360544
v 1.000000 -0.040325 -1.000000
v 1.000000 -0.040325 -1.000000
v 1.000000 -0.040325 -1.000000
v 1.000000 -0.040325 -1.000000
v 1.000000 1.483531 -0.999999
v 1.000000 1.483531 -0.999999
v 1.000000 -0.040325 0.000000
v 1.000000 -0.040325 0.000000
v 1.000002 -0.040326 -3.791640
v 1.000002 -0.040326 -3.791640
v 0.000000 -0.040325 -1.000000
v 0.000000 -0.040325 -1.000000
v 1.000000 1.483531 -0.000000
v 0.000000 -0.040325 0.000000
v 0.000002 -0.040326 -3.791640
v 1.000001 0.282630 -2.516018
v 1.000001 0.282630 -2.310675
v 1.000000 0.282630 -1.325918
v 1.000001 0.965223 -1.325918
v 1.000002 0.282629 -3.500775
v 1.000000 1.483531 -0.999999
v 1.000000 1.483531 -0.999999
v 1.000000 1.483531 -0.000000
v 0.999999 -0.040325 1.000000
v 0.999999 -0.040325 1.000000
v 0.000000 -0.040325 1.000000
v -1.000000 -0.040325 0.000000
v -1.000000 -0.040325 -1.000000
v 1.000002 1.483530 -3.791640
v 1.000002 1.483530 -3.791640
v -1.000000 -0.040325 -1.000000
v -0.999999 -0.040326 -3.791640
v 0.000002 0.296633 -3.791640
v 0.484150 0.296633 -3.791639
v 0.484150 0.979227 -3.791640
v 0.000002 0.979227 -3.791640
v 0.000002 1.939015 -3.791640
v 0.960515 0.282629 -3.500775
v 0.960514 0.282630 -2.516018
v 1.000001 0.965223 -2.516018
v 1.000002 0.965222 -3.500775
v 1.000001 0.965223 -2.310675
v 0.960514 0.282630 -2.310675
v 0.960514 0.282630 -1.325918
v 0.960514 0.965223 -1.325918
v 1.000000 1.483531 1.000000
v 1.000000 1.483531 1.000000
v 0.999999 -0.040325 1.000000
v 0.000000 -0.040325 1.000000
v -1.000000 -0.040325 1.000000
v -1.000000 -0.040325 0.000000
v -1.000000 -0.040325 -1.000000
v -1.000000 -0.040325 -1.000000
v -0.999999 -0.040326 -3.791640
v -0.999998 1.483530 -3.791641
v -0.500608 0.979227 -3.791640
v -0.500608 0.296633 -3.791640
v 0.960514 0.965223 -2.516018
v 0.960515 0.965222 -3.500775
v 0.960514 0.965223 -2.310675
v 1.000000 1.483531 1.000000
v 1.000000 1.483531 1.000000
v -1.000000 -0.040325 1.000000
v -2.502374 -0.040325 -0.000001
v -2.502374 -0.040325 -0.301709
v -2.539414 -0.040325 -0.301709
v -2.539414 -0.040325 -1.000001
v -2.539415 -0.040325 0.999999
v -2.539414 -0.040325 0.303765
v -2.502374 -0.040325 0.303765
v -0.999999 0.282630 -2.516019
v -0.999999 0.282629 -3.500776
v -0.999999 1.483531 -1.000001
v -0.999999 0.965223 -1.325919
v -1.000000 0.282630 -1.325919
v -0.999999 0.282630 -2.310676
v -0.999998 1.483530 -3.791641
v -1.000000 -0.040325 1.000000
v -2.539415 -0.040325 0.999999
v -2.539414 -0.040325 -1.000001
v -2.502374 0.847709 -0.301709
v -2.502374 0.847709 0.303765
v -2.539414 0.847709 -0.301709
v -2.539414 0.847709 -0.000001
v -2.539414 1.964027 -0.000001
v -2.539413 1.483531 -1.000001
v -2.539415 1.483531 0.999999
v -2.539414 0.847709 0.303765
v -0.999999 0.965223 -2.310676
v -0.999998 0.965222 -3.500776
v -0.999999 0.965223 -2.516019
v -0.946484 0.282630 -2.516019
v -0.946484 0.282629 -3.500776
v -2.539413 1.483531 -1.000002
v -0.946485 0.965223 -1.325918
v -0.946485 0.282630 -1.325918
v -0.946484 0.282630 -2.310676
v -0.999999 1.483531 -1.000001
v -1.000001 1.483531 0.999999
v -2.539415 1.483531 0.999999
v -0.946484 0.965223 -2.516019
v -0.946484 0.965223 -2.310676
v -0.946484 0.965222 -3.500776
v -0.999999 1.483531 -1.000001
v -0.999999 1.483531 -1.000001
v -1.000001 1.483531 0.999999
v -1.000001 1.483531 0.999999
v -1.000001 1.483531 0.999999
v -1.000000 1.590579 -0.000001
v -1.018124 1.521507 0.044256
v 0.484150 0.979227 -3.743136
v 0.484150 0.296633 -3.743136
v -0.500608 0.296633 -3.743136
v -0.500608 0.979227 -3.743136
v 0.000000 1.910402 -1.045419
v 1.045420 1.445334 -1.045419
v 1.045419 1.448997 -0.000000
v 0.000000 1.910402 -0.000000
v -1.045419 1.910402 -0.000000
v -1.045419 1.445334 -1.045419
v 0.000002 1.910401 -3.963853
v 1.045421 1.445333 -3.963853
v 0.000000 1.910402 0.959605
v 1.045419 1.445635 0.959605
v 1.045419 1.445334 1.045420
v 0.000000 1.910402 1.045419
v 1.045420 1.677060 -1.045419
v 1.045419 1.680723 -0.000000
v -1.045419 1.483510 0.959605
v -1.045419 1.445334 1.045419
v 1.045421 1.677058 -3.963853
v -1.045418 1.445333 -3.963854
v 0.000002 2.142127 -3.963854
v 0.000000 2.142128 -0.000000
v 1.045419 1.677360 0.959605
v 1.045419 1.677060 1.045419
v -2.654753 1.910402 -0.000001
v -2.654752 1.445334 -1.045420
v -2.654753 1.445334 1.045418
v -2.654753 1.483510 0.959604
v 0.000001 2.142128 -1.045419
v -1.045418 1.677060 -1.045420
v -1.045417 1.677058 -3.963854
v -2.654752 1.677060 -1.045421
v -2.654753 2.142128 -0.000001
v -1.045420 1.677060 1.045418
v -2.654753 1.677060 1.045418
v -2.654753 1.715235 0.959603
v 0.000000 2.142128 1.045419
v -1.045419 2.142128 -0.000001
v -1.045420 1.715235 0.959604
v 0.999999 -0.040325 1.000000
v 0.000000 -0.040325 1.000000
vt 0.146197 0.853803
vt 0.146197 0.983697
vt 0.016303 0.983697
vt 0.016303 0.853803
vt 0.081331 0.879942
vt 0.081870 0.879902
vt 0.081635 0.880191
vt 0.081223 0.879599
vt 0.083781 0.853908
vt 0.097321 0.883094
vt 0.049113 0.874760
vt 0.048381 0.875561
vt 0.079832 0.893306
vt 0.079767 0.893141
vt 0.084594 0.853813
vt 0.103928 0.857051
vt 0.096954 0.882882
vt 0.045903 0.884447
vt 0.076665 0.874111
vt 0.062935 0.873146
vt 0.084187 0.853861
vt 0.110731 0.888073
vt 0.092993 0.895765
vt 0.110505 0.887887
vt 0.078075 0.906244
vt 0.037529 0.862015
vt 0.077081 0.906321
vt 0.042656 0.894408
vt 0.037400 0.873219
vt 0.059631 0.872952
vt 0.050280 0.872556
vt 0.050127 0.872628
vt 0.039537 0.861563
vt 0.061057 0.863570
vt 0.062812 0.873143
vt 0.076643 0.873519
vt 0.077090 0.862962
vt 0.126221 0.866193
vt 0.125626 0.865699
vt 0.105273 0.899790
vt 0.110640 0.888076
vt 0.089912 0.907083
vt 0.090062 0.906537
vt 0.080085 0.906435
vt 0.077151 0.906986
vt 0.029073 0.888383
vt 0.039526 0.888928
vt 0.058648 0.872043
vt 0.055577 0.865549
vt 0.048541 0.866328
vt 0.048691 0.866881
vt 0.929221 0.175629
vt 0.929869 0.176998
vt 0.928073 0.177122
vt 0.054611 0.865223
vt 0.077716 0.862457
vt 0.061800 0.863622
vt 0.933756 0.175084
vt 0.933662 0.177309
vt 0.930746 0.177230
vt 0.126419 0.866358
vt 0.126618 0.866523
vt 0.099780 0.911041
vt 0.098917 0.910879
vt 0.086911 0.914312
vt 0.091897 0.915574
vt 0.089206 0.914631
vt 0.088925 0.914541
vt 0.042152 0.891595
vt 0.057020 0.901688
vt 0.016313 0.898846
vt 0.017477 0.896609
vt 0.100247 0.912643
vt 0.091356 0.914440
vt 0.084315 0.913792
vt 0.085420 0.912809
vt 0.052281 0.135505
vt 0.052542 0.135743
vt 0.052293 0.137477
vt 0.086946 0.914214
vt 0.086309 0.917621
vt 0.083135 0.919874
vt 0.086268 0.917728
vt 0.086513 0.921777
vt 0.087312 0.917913
vt 0.088427 0.918129
vt 0.050663 0.909375
vt 0.048541 0.909057
vt 0.053651 0.900434
vt 0.052849 0.900575
vt 0.040418 0.893593
vt 0.083810 0.921216
vt 0.069869 0.915640
vt 0.068498 0.915743
vt 0.071085 0.907412
vt 0.071413 0.907902
vt 0.057179 0.901616
vt 0.073957 0.923637
vt 0.074645 0.923994
vt 0.097854 0.926467
vt 0.089807 0.922046
vt 0.088429 0.917983
vt 0.090430 0.921249
vt 0.047501 0.908856
vt 0.052202 0.909921
vt 0.030200 0.898012
vt 0.040810 0.894673
vt 0.032339 0.899250
vt 0.926026 0.181541
vt 0.928646 0.183012
vt 0.927519 0.184758
vt 0.076020 0.924680
vt 0.929559 0.183232
vt 0.932490 0.184454
vt 0.931945 0.186209
vt 0.075334 0.924350
vt 0.094949 0.927439
vt 0.096111 0.927050
vt 0.095530 0.927244
vt 0.085261 0.928886
vt 0.085578 0.929618
vt 0.937803 0.073641
vt 0.933567 0.083735
vt 0.925502 0.082175
vt 0.044032 0.877818
vt 0.043969 0.877950
vt 0.036907 0.874155
vt 0.033762 0.881368
vt 0.030273 0.887451
vt 0.039253 0.889188
vt 0.041979 0.883196
vt 0.932707 0.921484
vt 0.927239 0.921484
vt 0.927239 0.916016
vt 0.888253 0.926961
vt 0.888052 0.926072
vt 0.901602 0.922949
vt 0.895249 0.920324
vt 0.895249 0.919497
vt 0.896076 0.919497
vt 0.914773 0.926961
vt 0.901600 0.924025
vt 0.932707 0.916016
vt 0.896076 0.920324
vt 0.896076 0.919910
vt 0.895249 0.919910
vt 0.914644 0.904304
vt 0.914644 0.917447
vt 0.901502 0.917447
vt 0.908073 0.904304
vt 0.895663 0.920324
vt 0.895663 0.919497
vt 0.901598 0.920204
vt 0.914696 0.923640
vt 0.888499 0.923671
vt 0.110857 0.888038
vt 0.901502 0.904304
vt 0.908073 0.917447
vt 0.927239 0.918750
vt 0.932707 0.918750
vt 0.063636 0.938545
vt 0.051069 0.938545
vt 0.051069 0.919394
vt 0.063636 0.919394
vt 0.076204 0.919394
vt 0.018111 0.872902
vt 0.105691 0.899284
vt 0.927770 0.175910
vt 0.930533 0.175223
vt 0.088406 0.914068
vt 0.051225 0.137295
vt 0.051528 0.135628
vt 0.924323 0.182733
vt 0.928510 0.184982
vt 0.931460 0.070233
vt 0.915148 0.926037
vt 0.076204 0.938545
vn 1.000000 0.000000 0.000000
vn 0.000000 0.000000 1.000000
vn -1.000000 0.000000 0.000000
vn 0.000000 0.000000 -1.000000
vn 0.000000 -1.000000 0.000000
vn 0.580100 -0.814600 0.000000
vn -0.580100 -0.814600 0.000000
vn 0.000000 -0.814600 0.580100
vn 0.000000 -0.814600 -0.580100
vn 0.000000 1.000000 -0.000000
vn 0.000000 0.000000 0.000000
vn 0.623500 0.000000 0.781800
vn 0.409700 -0.000000 0.912200
vn 0.000300 -0.000000 -1.000000
vn 0.970800 -0.238400 0.025800
vn 0.970800 -0.238400 0.025500
vn 0.044600 -0.011000 0.998900
vn 0.962100 -0.271100 -0.028600
vn 0.042600 -0.012000 0.999000
vn -0.405000 -0.914300 0.001500
vn -0.406500 -0.913700 0.003200
vn -0.405200 -0.914200 0.001700
vn 0.205800 -0.956700 0.205800
vn 0.376500 -0.846400 0.376500
vn -0.406500 -0.913700 -0.000000
vn -0.406300 -0.913700 -0.003100
vn -0.406500 -0.913700 -0.003200
vn -0.406200 -0.913800 -0.000200
vn 0.377800 -0.852500 -0.361200
vn 0.378000 -0.925800 0.000000
vn 0.379300 -0.925000 -0.019600
vn 0.406500 -0.913700 0.000000
vn 0.403800 0.914900 -0.003200
vn -0.000000 -0.913700 0.406500
vn 0.000000 -0.913700 -0.406500
vn 0.406500 0.913700 0.000000
vn 0.403800 0.914800 0.003200
vn 0.403800 0.914900 0.003200
vn -0.406500 0.913700 -0.000000
vn 0.000000 0.913700 -0.406500
vn -0.000000 0.913700 0.406500
vn -0.000000 0.913700 0.406400
vn 0.199200 -0.955600 -0.217000
vn 0.180600 -0.963700 -0.196700
vn -0.405100 -0.914300 -0.001800
vn -0.405600 -0.914100 -0.000700
vn -0.011700 0.007700 0.999900
vn -0.022300 0.014600 0.999600
vn 0.011700 0.007700 0.999900
vn 0.031500 0.020700 0.999300
vn 0.022300 0.014600 0.999600
vn 0.962100 -0.271000 -0.029000
vn -0.403800 -0.914900 0.000000
vn 0.376500 -0.846400 -0.376500
vn 0.349600 -0.856000 -0.380800
vn -0.031500 0.020700 0.999300
usemtl Material.111
s 1
f 2/1/1 3/2/1 4/3/1
f 5/1/2 6/2/2 3/3/2
f 7/1/3 8/2/3 6/3/3
f 1/1/4 4/2/4 8/3/4
f 3/1/5 6/2/5 8/3/5
f 7/4/6 5/1/6 9/2/6
f 11/1/2 12/2/2 13/3/2
f 1/1/7 14/2/7 11/3/7
f 7/1/8 10/2/8 14/3/8
f 2/1/9 11/2/9 9/3/9
f 15/4/10 16/1/10 17/2/10
f 10/4/3 9/1/3 13/2/3
f 14/1/1 15/2/1 12/3/1
f 10/1/4 16/2/4 15/3/4
f 19/1/1 20/2/1 21/3/1
f 13/4/10 12/1/10 22/2/10
f 13/1/10 19/2/10 17/3/10
f 12/4/10 15/1/10 18/2/10
f 20/1/10 23/2/10 24/3/10
f 22/4/3 18/1/3 24/2/3
f 17/1/2 21/2/2 24/3/2
f 22/1/4 23/2/4 20/3/4
f 25/5/11 26/6/11 27/7/11
f 25/5/11 28/8/11 29/9/11
f 26/6/11 25/5/11 31/10/11
f 27/7/11 33/11/11 34/12/11
f 26/6/11 35/13/2 36/14/2
f 30/15/1 37/16/1 31/10/1
f 35/13/5 26/6/5 32/17/5
f 27/7/5 36/14/5 39/18/5
f 42/19/1 28/8/1 41/20/1
f 30/15/11 29/9/11 45/21/11
f 37/16/11 30/15/11 46/15/11
f 32/17/11 31/10/11 48/22/11
f 38/23/5 32/17/5 49/24/5
f 52/25/5 35/13/5 38/23/5
f 34/12/11 33/11/11 53/26/11
f 36/14/5 55/27/5 56/28/5
f 59/29/4 53/26/11 33/11/11
f 35/13/2 52/25/11 55/27/11
f 40/30/10 44/31/10 62/32/10
f 54/33/1 29/9/1 66/34/1
f 41/20/10 67/35/10 68/36/10
f 42/19/4 68/36/4 69/37/4
f 47/16/11 70/38/11 71/39/11
f 31/10/1 37/16/1 71/39/1
f 50/40/2 49/24/11 72/41/2
f 51/42/5 38/23/5 50/40/5
f 51/42/11 75/43/11 76/44/11
f 56/28/11 55/27/11 77/45/11
f 56/28/11 80/46/4 81/47/4
f 40/30/4 63/48/4 82/49/4
f 65/50/2 83/51/2 62/32/2
f 82/52/1 63/53/1 62/54/1
f 64/55/5 82/49/5 83/51/5
f 29/9/11 54/33/11 53/26/11
f 43/56/5 69/37/5 84/57/5
f 66/34/2 84/57/2 67/35/2
f 69/58/1 68/59/1 67/60/1
f 70/38/2 85/61/2 86/62/2
f 74/63/11 87/64/11 75/43/11
f 75/43/5 89/65/5 76/44/5
f 92/66/5 93/67/5 94/68/5
f 77/45/11 55/27/11 52/25/11
f 78/69/3 77/45/3 100/70/3
f 101/71/11 79/72/11 56/28/11
f 102/73/2 103/74/2 92/66/2
f 76/44/11 91/75/12 104/76/13
f 88/77/3 94/78/3 106/79/3
f 90/80/2 89/65/2 105/81/2
f 110/82/3 91/75/3 107/83/3
f 109/84/3 108/85/3 112/86/3
f 94/68/4 93/67/4 112/86/4
f 113/87/3 101/71/3 115/88/3
f 95/89/10 116/90/10 117/91/10
f 77/45/11 104/76/13 118/92/14
f 98/93/4 119/94/4 120/95/4
f 99/96/10 120/95/10 121/97/10
f 97/98/11 122/99/11 79/72/11
f 123/100/2 124/101/2 103/74/2
f 108/85/5 105/81/5 106/102/5
f 110/82/4 118/92/14 104/76/13
f 111/103/3 92/66/11 103/74/3
f 115/88/4 125/104/4 116/90/4
f 100/70/2 121/97/2 126/105/2
f 98/93/5 113/87/5 126/105/5
f 114/106/2 96/107/2 117/91/2
f 114/106/5 127/108/5 125/104/5
f 117/109/3 116/110/3 125/111/3
f 118/92/10 110/82/10 128/112/2
f 121/113/3 120/114/3 119/115/3
f 97/98/11 128/112/2 129/116/2
f 124/101/10 123/100/11 130/117/10
f 131/118/2 132/119/2 130/117/2
f 133/120/15 134/121/16 129/116/17
f 133/120/18 130/117/2 132/119/19
f 136/122/4 137/123/4 138/124/4
f 58/125/3 136/126/3 135/127/3
f 60/128/5 135/127/5 138/129/5
f 80/46/1 138/129/1 137/130/1
f 57/131/10 81/47/10 137/130/10
f 139/132/20 140/133/21 141/134/22
f 143/1/23 144/2/24 139/3/23
f 140/132/25 139/133/25 145/134/25
f 148/135/26 149/136/27 150/137/28
f 151/138/1 152/139/1 141/140/1
f 153/141/29 147/142/30 150/137/31
f 140/138/1 146/139/1 155/140/1
f 144/133/32 156/134/32 145/143/32
f 145/144/4 157/138/4 155/139/4
f 158/144/33 152/138/33 151/139/33
f 148/145/1 159/146/1 160/139/1
f 143/147/34 161/148/34 162/149/34
f 153/150/35 154/147/35 163/148/35
f 151/138/36 155/139/36 157/140/36
f 166/138/3 167/139/3 156/140/3
f 167/138/4 157/139/4 145/140/4
f 165/144/36 158/138/36 151/139/36
f 159/151/37 152/138/38 158/139/38
f 144/138/4 162/139/4 168/140/4
f 161/144/3 169/138/3 168/139/3
f 170/138/2 171/139/2 163/140/2
f 172/146/3 169/139/3 161/140/3
f 166/144/39 165/138/39 157/139/39
f 158/144/39 165/138/39 166/139/39
f 173/144/36 160/138/36 158/139/36
f 174/144/40 166/138/40 168/139/40
f 174/138/41 169/139/41 172/152/41
f 174/144/40 158/138/40 166/139/40
f 170/144/39 173/138/39 158/139/39
f 175/151/41 170/138/41 158/139/41
f 150/137/2 173/153/2 170/154/2
f 160/155/2 173/153/2 150/137/2
f 49/24/11 48/22/11 176/156/2
f 175/151/41 172/152/41 171/140/42
f 171/138/3 172/146/3 164/145/3
f 143/157/35 153/150/35 164/158/35
f 141/144/1 152/138/1 159/146/1
f 143/132/43 142/133/5 147/159/44
f 141/133/45 148/159/26 147/160/46
f 177/161/47 48/162/2 86/163/48
f 177/161/49 147/164/50 123/165/51
f 1/4/1 2/1/1 4/3/1
f 2/4/2 5/1/2 3/3/2
f 5/4/3 7/1/3 6/3/3
f 7/4/4 1/1/4 8/3/4
f 4/4/5 3/1/5 8/3/5
f 10/3/6 7/4/6 9/2/6
f 9/4/2 11/1/2 13/3/2
f 2/4/7 1/1/7 11/3/7
f 1/4/8 7/1/8 14/3/8
f 5/4/9 2/1/9 9/3/9
f 18/3/10 15/4/10 17/2/10
f 16/3/3 10/4/3 13/2/3
f 11/4/1 14/1/1 12/3/1
f 14/4/4 10/1/4 15/3/4
f 17/4/1 19/1/1 21/3/1
f 19/3/10 13/4/10 22/2/10
f 16/4/10 13/1/10 17/3/10
f 22/3/10 12/4/10 18/2/10
f 21/4/10 20/1/10 24/3/10
f 23/3/3 22/4/3 24/2/3
f 18/4/2 17/1/2 24/3/2
f 19/4/4 22/1/4 20/3/4
f 28/8/11 25/5/11 27/7/11
f 30/15/11 25/5/11 29/9/11
f 32/17/11 26/6/11 31/10/11
f 28/8/11 27/7/11 34/12/11
f 27/7/11 26/6/11 36/14/2
f 25/5/1 30/15/1 31/10/1
f 38/23/5 35/13/5 32/17/5
f 33/11/5 27/7/5 39/18/5
f 44/31/1 40/30/1 34/12/1
f 42/19/1 43/56/1 28/8/1
f 40/30/1 41/20/1 34/12/1
f 28/8/1 34/12/1 41/20/1
f 43/56/1 29/9/1 28/8/1
f 46/15/11 30/15/11 45/21/11
f 47/16/11 37/16/11 46/15/11
f 49/24/11 32/17/11 48/22/11
f 50/40/5 38/23/5 49/24/5
f 51/42/5 52/25/5 38/23/5
f 54/33/11 34/12/11 53/26/11
f 39/18/5 36/14/5 56/28/5
f 33/11/11 39/18/4 58/125/4
f 59/29/4 60/128/4 61/166/4
f 39/18/4 57/131/4 58/125/4
f 59/29/4 61/166/4 53/26/11
f 33/11/11 58/125/4 59/29/4
f 36/14/2 35/13/2 55/27/11
f 63/48/10 40/30/10 62/32/10
f 41/20/1 40/30/1 64/55/1
f 65/50/1 44/31/1 34/12/1
f 66/34/1 41/20/1 64/55/1
f 65/50/1 34/12/1 54/33/1
f 66/34/1 64/55/1 54/33/1
f 29/9/1 43/56/1 66/34/1
f 65/50/1 54/33/1 64/55/1
f 42/19/10 41/20/10 68/36/10
f 43/56/4 42/19/4 69/37/4
f 37/16/11 47/16/11 71/39/11
f 48/22/1 31/10/1 71/39/1
f 73/167/2 50/40/2 72/41/2
f 74/63/5 51/42/5 50/40/5
f 52/25/11 51/42/11 76/44/11
f 78/69/11 56/28/11 77/45/11
f 79/72/11 61/166/4 80/46/4
f 57/131/4 39/18/4 81/47/4
f 61/166/4 60/128/4 80/46/4
f 81/47/4 39/18/4 56/28/11
f 56/28/11 79/72/11 80/46/4
f 64/55/4 40/30/4 82/49/4
f 44/31/2 65/50/2 62/32/2
f 83/168/1 82/52/1 62/54/1
f 65/50/5 64/55/5 83/51/5
f 45/21/11 29/9/11 53/26/11
f 66/34/5 43/56/5 84/57/5
f 41/20/2 66/34/2 67/35/2
f 84/169/1 69/58/1 67/60/1
f 71/39/2 70/38/2 86/62/2
f 51/42/11 74/63/11 75/43/11
f 91/75/5 76/44/5 89/65/5
f 75/43/5 88/170/5 89/65/5
f 89/65/5 90/80/5 91/75/5
f 88/170/5 75/43/5 94/68/5
f 87/64/5 92/66/5 94/68/5
f 94/68/5 75/43/5 87/64/5
f 76/44/11 77/45/11 52/25/11
f 100/70/3 95/89/3 78/69/3
f 96/107/3 78/69/3 95/89/3
f 77/45/3 97/98/3 98/93/3
f 99/96/3 100/70/3 77/45/3
f 77/45/3 98/93/3 99/96/3
f 78/69/11 101/71/11 56/28/11
f 87/64/2 102/73/2 92/66/2
f 77/45/11 76/44/11 104/76/13
f 106/79/3 105/171/3 88/77/3
f 89/172/3 88/77/3 105/171/3
f 107/83/2 90/80/2 105/81/2
f 107/83/3 108/85/3 109/84/3
f 109/84/3 110/82/3 107/83/3
f 91/75/3 90/80/3 107/83/3
f 93/67/3 92/66/3 112/86/3
f 111/103/3 109/84/3 112/86/3
f 112/86/3 92/66/3 111/103/3
f 106/102/4 94/68/4 112/86/4
f 115/88/3 95/89/3 100/70/3
f 113/87/3 98/93/3 97/98/3
f 115/88/3 100/70/3 113/87/3
f 78/69/3 96/107/3 114/106/3
f 114/106/3 115/88/3 101/71/3
f 113/87/3 97/98/3 101/71/3
f 101/71/3 78/69/3 114/106/3
f 96/107/10 95/89/10 117/91/10
f 97/98/4 77/45/11 118/92/14
f 99/96/4 98/93/4 120/95/4
f 100/70/10 99/96/10 121/97/10
f 101/71/11 97/98/11 79/72/11
f 102/73/2 123/100/2 103/74/2
f 106/102/5 112/86/5 108/85/5
f 108/85/5 107/83/5 105/81/5
f 91/75/12 110/82/4 104/76/13
f 124/101/11 111/103/3 103/74/3
f 95/89/4 115/88/4 116/90/4
f 113/87/2 100/70/2 126/105/2
f 119/94/5 98/93/5 126/105/5
f 127/108/2 114/106/2 117/91/2
f 115/88/5 114/106/5 125/104/5
f 127/173/3 117/109/3 125/111/3
f 97/98/2 118/92/10 128/112/2
f 126/174/3 121/113/3 119/115/3
f 122/99/11 97/98/11 129/116/2
f 111/103/11 124/101/10 130/117/10
f 123/100/2 131/118/2 130/117/2
f 128/112/2 133/120/15 129/116/17
f 134/121/52 133/120/18 132/119/19
f 135/175/4 136/122/4 138/124/4
f 59/29/3 58/125/3 135/127/3
f 138/129/5 80/46/5 60/128/5
f 60/128/5 59/29/5 135/127/5
f 81/47/1 80/46/1 137/130/1
f 137/130/10 136/126/10 57/131/10
f 58/125/10 57/131/10 136/126/10
f 142/143/53 139/132/20 141/134/22
f 142/4/5 143/1/23 139/3/23
f 146/143/25 140/132/25 145/134/25
f 147/142/46 148/135/26 150/137/28
f 140/144/1 151/138/1 141/140/1
f 154/176/54 153/141/29 150/137/31
f 151/144/1 140/138/1 155/140/1
f 139/132/32 144/133/32 145/143/32
f 146/140/4 145/144/4 155/139/4
f 149/140/1 148/145/1 160/139/1
f 144/157/34 143/147/34 162/149/34
f 164/158/35 153/150/35 163/148/35
f 165/144/36 151/138/36 157/140/36
f 144/144/3 166/138/3 156/140/3
f 156/144/4 167/138/4 145/140/4
f 160/144/37 159/151/37 158/139/38
f 166/144/4 144/138/4 168/140/4
f 162/140/3 161/144/3 168/139/3
f 154/144/2 170/138/2 163/140/2
f 164/145/3 172/146/3 161/140/3
f 167/140/39 166/144/39 157/139/39
f 169/140/40 174/144/40 168/139/40
f 175/151/41 174/138/41 172/152/41
f 174/144/41 175/151/41 158/139/41
f 154/176/2 150/137/2 170/154/2
f 149/136/2 160/155/2 150/137/2
f 72/41/2 49/24/11 176/156/2
f 170/144/41 175/151/41 171/140/42
f 163/144/3 171/138/3 164/145/3
f 161/149/35 143/157/35 164/158/35
f 148/145/1 141/144/1 159/146/1
f 153/160/55 143/132/43 147/159/44
f 142/132/53 141/133/45 147/160/46
f 147/164/56 177/161/47 86/163/48
f 102/177/2 177/161/49 123/165/51
