# Blender v2.76 (sub 0) OBJ File: ''
# www.blender.org
mtllib SmallHouse.mtl
o Cube_Cube.005
v 0.602511 2.031580 -0.723893
v 0.602511 2.044969 -0.669412
v 0.602511 1.604321 0.318354
v 0.602511 0.034607 0.318354
v 0.602511 0.034607 -1.681646
v 0.602511 1.604321 -1.681646
v 0.766397 1.531211 -1.845531
v 0.766397 2.050426 -0.681646
v -2.602715 2.050426 -0.681646
v -2.438830 2.049104 -0.684609
v 0.446036 2.031580 -0.723893
v 0.550903 2.044969 -0.669412
v 0.766397 1.531211 0.482239
v -2.602715 1.531211 0.482239
v -2.438830 1.604321 0.318354
v -1.688759 0.965499 0.318354
v -1.688759 0.502083 0.318354
v -2.345677 0.965499 0.318354
v -2.438830 0.034607 0.318354
v -2.438830 0.034607 -1.681646
v -1.525867 0.034607 -1.681646
v -1.525867 0.034607 -1.630396
v -1.061105 0.034607 -1.630396
v -1.061105 0.034607 -1.681646
v -0.798889 0.034607 -1.681646
v -0.798889 0.034607 -1.588378
v 0.240685 0.034607 -1.588378
v 0.240685 0.034607 -1.681646
v 0.240685 0.966986 -1.681646
v -0.798889 0.966986 -1.681646
v -1.061105 0.034826 -1.681646
v -1.059534 0.034826 -1.681646
v -1.059534 0.759069 -1.681646
v -1.525658 0.759069 -1.681646
v -1.688759 0.910039 -1.681646
v -1.688759 0.965499 -1.681646
v -1.748675 0.965499 -1.681646
v -2.438830 1.604321 -1.681646
v -2.438830 2.050063 -0.680831
v 0.766397 2.333738 -0.681646
v 0.766397 1.814522 0.482239
v -2.602715 1.814522 0.482239
v -2.602715 2.333738 -0.681646
v -2.345677 0.965499 0.301554
v -1.688759 0.965499 0.301554
v -1.688759 0.502083 0.301554
v -2.345677 0.502083 0.318354
v -1.525867 0.034752 -1.681646
v -0.798889 0.966986 -1.588378
v 0.240685 0.966986 -1.588378
v -1.061105 0.034826 -1.681646
v -1.059534 0.034826 -1.630370
v -1.059534 0.759069 -1.630370
v -1.525658 0.759069 -1.630370
v -2.345677 0.965499 -1.681646
v -2.345677 0.502083 -1.681646
v -1.688759 0.502083 -1.681646
v -1.525658 0.135883 -1.681646
v -1.525867 0.135883 -1.681646
v -1.688759 0.502083 -1.651670
v -1.688759 0.965499 -1.651670
v -2.345677 0.965499 -1.651670
v 0.766397 1.814522 -1.845531
v 0.404077 2.103067 -0.164569
v 0.404077 1.972027 0.129174
v 0.110334 1.972027 0.129174
v 0.110334 2.103067 -0.164569
v -2.602715 1.814522 -1.845531
v -2.602715 1.531211 -1.845531
v -2.345677 0.502083 0.301554
v -1.525658 0.034826 -1.630370
v -1.525658 0.034826 -1.630396
v -1.525658 0.135883 -1.630396
v -2.345677 0.502083 -1.651670
v 0.404077 2.234663 -0.164569
v 0.404077 2.234663 0.129174
v 0.110334 2.234663 0.129174
v 0.110334 2.234663 -0.164569
v 0.420518 2.222652 -0.181010
v 0.420518 2.222652 0.145615
v 0.093893 2.222652 0.145615
v 0.093893 2.222652 -0.181010
v 0.420518 2.461278 -0.181010
v 0.420518 2.461278 0.145615
v 0.093893 2.461278 0.145615
v 0.093893 2.461278 -0.181010
v 0.373824 2.461278 -0.134316
v 0.373824 2.461278 0.098921
v 0.140587 2.461278 0.098921
v 0.140587 2.461278 -0.134316
v 0.373824 2.191994 -0.134316
v 0.373824 2.191994 0.098921
v 0.140587 2.191994 0.098921
v 0.140587 2.191994 -0.134316
v -1.525867 0.135883 -1.630396
vt 0.046875 0.933607
vt 0.036738 0.939460
vt 0.046875 0.957018
vt 0.844612 0.875539
vt 0.863741 0.866327
vt 0.842509 0.866327
vt 0.864014 0.857861
vt 0.864014 0.879639
vt 0.842236 0.879639
vt 0.857849 0.858939
vt 0.044697 0.939381
vt 0.035170 0.957018
vt 0.035170 0.933607
vt 0.058580 0.933607
vt 0.036262 0.944394
vt 0.036262 0.936393
vt 0.047776 0.946401
vt 0.045577 0.951012
vt 0.046696 0.945210
vt 0.842236 0.857861
vt 0.843695 0.874194
vt 0.862555 0.874194
vt 0.862555 0.863306
vt 0.067571 0.942883
vt 0.067283 0.943186
vt 0.058380 0.943138
vt 0.058089 0.942883
vt 0.057717 0.949735
vt 0.044697 0.934325
vt 0.057012 0.951165
vt 0.036738 0.951165
vt 0.058580 0.949990
vt 0.058580 0.957018
vt 0.075886 0.907317
vt 0.077856 0.907989
vt 0.071146 0.927681
vt 0.065754 0.099714
vt 0.059499 0.118963
vt 0.044453 0.117157
vt 0.053901 0.926012
vt 0.047144 0.908131
vt 0.049438 0.907317
vt 0.055181 0.924273
vt 0.069805 0.926028
vt 0.058580 0.946413
vt 0.040406 0.949988
vt 0.040406 0.940240
vt 0.041096 0.940240
vt 0.041096 0.949988
vt 0.041096 0.956262
vt 0.052315 0.950976
vt 0.057070 0.949989
vt 0.076187 0.939569
vt 0.079118 0.928812
vt 0.077080 0.940900
vt 0.078292 0.941959
vt 0.093612 0.941131
vt 0.857408 0.875398
vt 0.851911 0.875398
vt 0.066911 0.950037
vt 0.066620 0.949783
vt 0.950035 0.089382
vt 0.922948 0.089234
vt 0.924964 0.069164
vt 0.057429 0.950037
vt 0.064554 0.079800
vt 0.032230 0.079800
vt 0.032230 0.029575
vt 0.041096 0.966010
vt 0.041095 0.964649
vt 0.094570 0.941959
vt 0.094767 0.929329
vt 0.095688 0.928381
vt 0.939464 0.069536
vt 0.951263 0.069925
vt 0.950392 0.078824
vt 0.843695 0.863306
vt 0.853125 0.879639
vt 0.042632 0.963676
vt 0.042415 0.963683
vt 0.042165 0.964253
vt 0.043523 0.964006
vt 0.043216 0.963680
vt 0.043076 0.963707
vt 0.043772 0.964253
vt 0.043522 0.963683
vt 0.043306 0.963676
vt 0.042722 0.963680
vt 0.042415 0.964006
vt 0.042557 0.963963
vt 0.043356 0.964434
vt 0.043332 0.964433
vt 0.043404 0.964470
vt 0.042684 0.964434
vt 0.042821 0.964412
vt 0.042361 0.964514
vt 0.042472 0.964509
vt 0.043181 0.964537
vt 0.043187 0.965832
vt 0.043499 0.965868
vt 0.043788 0.965331
vt 0.042628 0.965591
vt 0.042396 0.965549
vt 0.042742 0.965849
vt 0.042750 0.965832
vt 0.042475 0.965440
vt 0.042150 0.965331
vt 0.043083 0.965815
vt 0.043542 0.965550
vt 0.043379 0.965803
vt 0.043451 0.965761
vt 0.042838 0.965864
vt 0.042118 0.965662
vt 0.042324 0.965626
vt 0.043245 0.965564
vt 0.043309 0.965591
vt 0.043640 0.965610
vt 0.043585 0.964262
vt 0.043412 0.963862
vt 0.043105 0.963858
vt 0.042558 0.964053
vt 0.042766 0.964011
vt 0.042883 0.963838
vt 0.042353 0.964262
vt 0.042659 0.964150
vt 0.042832 0.963858
vt 0.043185 0.963814
vt 0.043054 0.963838
vt 0.043171 0.964011
vt 0.042275 0.964678
vt 0.042505 0.964392
vt 0.000000 0.000000
vt 0.035170 0.949990
vt 0.057012 0.939460
vt 0.848400 0.858939
vt 0.861638 0.875539
vt 0.051608 0.939381
vt 0.035170 0.936393
vt 0.035771 0.949958
vt 0.035776 0.946340
vt 0.035170 0.946413
vt 0.035170 0.944394
vt 0.045096 0.936811
vt 0.058580 0.944394
vt 0.058580 0.936393
vt 0.047776 0.949989
vt 0.044697 0.951705
vt 0.045524 0.951244
vt 0.853125 0.857861
vt 0.051608 0.934325
vt 0.038545 0.099714
vt 0.040406 0.956262
vt 0.044861 0.956207
vt 0.051688 0.956211
vt 0.076477 0.941403
vt 0.078469 0.928041
vt 0.851911 0.877297
vt 0.857408 0.877297
vt 0.952052 0.069311
vt 0.064554 0.029575
vt 0.040406 0.964649
vt 0.937928 0.078650
vt 0.042530 0.964116
vt 0.043266 0.963948
vt 0.043408 0.964116
vt 0.042802 0.963679
vt 0.043463 0.965440
vt 0.042855 0.965815
vt 0.042439 0.965868
vt 0.043278 0.964150
vt 0.042753 0.963814
vt 0.042526 0.963861
vt 0.042382 0.964592
vn 1.000000 -0.000000 0.000000
vn -0.000000 -0.913300 0.407400
vn -0.000000 -0.913200 0.407400
vn 0.000000 0.971100 -0.238700
vn -0.000000 -0.913200 -0.407400
vn -0.000000 0.000000 1.000000
vn -0.000000 -1.000000 0.000000
vn -0.000000 -0.000000 -1.000000
vn 0.002600 0.969900 -0.243300
vn 0.002500 0.969200 -0.246100
vn -1.000000 -0.000000 0.000000
vn -0.000000 -0.913300 -0.407400
vn 0.000000 -0.913400 -0.407200
vn -0.000000 0.913200 0.407400
vn 0.000000 1.000000 0.000000
vn 0.000000 0.913200 -0.407400
vn -0.589900 -0.807500 0.000000
vn 0.000000 -0.807500 -0.589900
vn 0.589900 -0.807500 0.000000
vn 0.000000 -0.807500 0.589900
vn 0.000700 0.000000 -1.000000
vn -0.000700 0.000000 -1.000000
vn 1.000000 -0.002100 0.000000
vn -0.000000 -0.913300 -0.407300
vn -1.000000 0.000100 0.000000
usemtl Material.113
s 1
f 4/1/1 5/2/1 1/3/1
f 1/4/2 8/5/3 11/6/3
f 12/7/4 2/8/4 1/9/4
f 14/10/5 15/6/5 3/4/5
f 16/11/6 3/12/6 15/13/6
f 4/14/7 26/15/7 27/16/7
f 33/17/8 36/18/8 30/19/8
f 11/9/9 10/20/10 39/7/10
f 41/7/1 13/8/1 8/9/1
f 42/7/6 14/8/6 13/9/6
f 42/20/11 43/7/11 9/8/11
f 8/21/5 12/22/12 39/23/13
f 18/24/7 44/25/7 45/26/7
f 16/27/11 45/26/11 46/28/11
f 18/29/6 15/13/6 19/14/6
f 10/30/11 19/2/11 15/31/11
f 21/32/8 20/33/8 48/32/8
f 26/34/1 25/35/1 30/36/1
f 26/37/8 49/38/8 50/39/8
f 29/40/11 28/41/11 27/42/11
f 29/40/7 50/43/7 49/44/7
f 51/45/6 32/45/6 31/45/6
f 33/46/11 32/47/11 52/48/11
f 33/46/7 53/49/7 54/50/7
f 20/33/8 57/51/8 59/52/8
f 35/53/11 60/54/11 61/55/11
f 37/56/7 61/55/7 62/57/7
f 63/20/1 40/7/1 8/8/1
f 66/58/14 42/7/14 41/8/14
f 42/7/14 66/58/14 67/59/14
f 68/7/11 69/8/11 9/9/11
f 47/60/1 70/61/1 44/25/1
f 70/62/6 46/63/6 45/64/6
f 17/65/15 46/28/15 70/61/15
f 54/66/8 53/67/8 52/68/8
f 71/69/1 72/69/1 73/70/1
f 55/71/1 62/57/1 74/72/1
f 56/73/15 74/72/15 60/54/15
f 60/74/8 74/75/8 62/76/8
f 69/77/3 6/78/3 38/22/3
f 63/7/8 7/8/8 69/9/8
f 43/7/16 40/8/16 63/9/16
f 64/79/1 75/80/1 76/81/1
f 76/82/6 77/83/6 66/84/6
f 77/85/11 78/86/11 67/87/11
f 78/88/8 75/89/8 64/90/8
f 75/91/17 79/92/17 80/93/17
f 76/94/18 80/94/18 81/95/18
f 77/96/19 81/96/19 82/97/19
f 78/98/20 82/98/20 79/93/20
f 79/99/1 83/100/1 84/101/1
f 80/102/6 84/103/6 85/104/6
f 82/105/11 81/106/11 85/107/11
f 82/108/8 86/99/8 83/109/8
f 83/110/15 87/110/15 88/111/15
f 84/104/15 88/104/15 89/112/15
f 85/113/15 89/113/15 90/114/15
f 86/115/15 90/116/15 87/117/15
f 88/118/11 87/119/11 91/120/11
f 88/121/8 92/122/8 93/123/8
f 89/124/1 93/125/1 94/126/1
f 90/127/6 94/128/6 91/129/6
f 93/130/15 92/96/15 91/131/15
f 95/132/21 73/132/21 72/132/22
f 58/132/7 73/132/7 95/132/7
f 22/133/23 21/132/23 58/132/23
f 6/31/1 1/3/1 5/2/1
f 2/30/1 3/134/1 1/3/1
f 4/1/1 1/3/1 3/134/1
f 1/4/2 6/78/3 8/5/3
f 10/135/2 11/6/3 8/5/3
f 8/5/3 9/10/3 10/135/2
f 6/78/3 7/136/3 8/5/3
f 11/20/4 12/7/4 1/9/4
f 3/4/5 2/78/24 8/136/5
f 14/10/5 9/135/5 15/6/5
f 3/4/5 8/136/5 13/5/5
f 13/5/5 14/10/5 3/4/5
f 16/11/6 17/137/6 4/33/6
f 15/13/6 18/29/6 16/11/6
f 4/33/6 3/12/6 16/11/6
f 28/138/7 5/13/7 27/16/7
f 4/14/7 19/33/7 26/15/7
f 20/12/7 21/133/7 22/139/7
f 23/140/7 24/141/7 25/142/7
f 19/33/7 20/12/7 22/139/7
f 23/140/7 25/142/7 26/15/7
f 19/33/7 22/139/7 23/140/7
f 27/16/7 5/13/7 4/14/7
f 19/33/7 23/140/7 26/15/7
f 6/13/8 5/14/8 29/143/8
f 25/144/8 24/45/8 32/45/8
f 5/14/8 28/145/8 29/143/8
f 24/45/8 31/45/8 32/45/8
f 6/13/8 29/143/8 30/19/8
f 30/19/8 25/144/8 33/17/8
f 33/17/8 34/146/8 36/18/8
f 25/144/8 32/45/8 33/17/8
f 38/12/8 6/13/8 30/19/8
f 36/18/8 37/147/8 38/12/8
f 34/146/8 35/148/8 36/18/8
f 38/12/8 30/19/8 36/18/8
f 12/8/9 11/9/9 39/7/10
f 40/20/1 41/7/1 8/9/1
f 41/20/6 42/7/6 13/9/6
f 14/9/11 42/20/11 9/8/11
f 39/23/13 15/149/5 9/77/5
f 9/77/5 8/21/5 39/23/13
f 2/78/24 12/22/12 8/21/5
f 16/27/7 18/24/7 45/26/7
f 17/65/11 16/27/11 46/28/11
f 4/33/6 17/137/6 19/14/6
f 47/150/6 18/29/6 19/14/6
f 19/14/6 17/137/6 47/150/6
f 15/31/11 39/3/25 10/30/11
f 10/30/11 38/134/11 20/1/11
f 20/1/11 19/2/11 10/30/11
f 49/44/1 26/34/1 30/36/1
f 27/151/8 26/37/8 50/39/8
f 50/43/11 29/40/11 27/42/11
f 30/36/7 29/40/7 49/44/7
f 53/49/11 33/46/11 52/48/11
f 34/152/7 33/46/7 54/50/7
f 38/12/8 37/147/8 55/153/8
f 59/52/8 48/32/8 20/33/8
f 20/33/8 38/12/8 55/153/8
f 57/51/8 35/148/8 34/146/8
f 20/33/8 55/153/8 56/154/8
f 57/51/8 34/146/8 58/52/8
f 20/33/8 56/154/8 57/51/8
f 57/51/8 58/52/8 59/52/8
f 61/55/11 36/155/11 35/53/11
f 35/53/11 57/156/11 60/54/11
f 62/57/7 55/71/7 37/56/7
f 37/56/7 36/155/7 61/55/7
f 7/9/1 63/20/1 8/8/1
f 41/8/14 40/9/14 64/157/14
f 65/158/14 66/58/14 41/8/14
f 41/8/14 64/157/14 65/158/14
f 64/157/14 40/9/14 67/59/14
f 43/20/14 42/7/14 67/59/14
f 67/59/14 40/9/14 43/20/14
f 43/20/11 68/7/11 9/9/11
f 18/24/1 47/60/1 44/25/1
f 44/159/6 70/62/6 45/64/6
f 47/60/15 17/65/15 70/61/15
f 71/160/8 54/66/8 52/68/8
f 73/70/1 58/161/1 34/152/1
f 54/50/1 71/69/1 73/70/1
f 73/70/1 34/152/1 54/50/1
f 56/73/1 55/71/1 74/72/1
f 57/156/15 56/73/15 60/54/15
f 61/162/8 60/74/8 62/76/8
f 10/23/2 9/149/3 38/22/3
f 69/77/3 7/21/3 6/78/3
f 38/22/3 9/149/3 69/77/3
f 68/20/8 63/7/8 69/9/8
f 68/20/16 43/7/16 63/9/16
f 65/163/1 64/79/1 76/81/1
f 65/164/6 76/82/6 66/84/6
f 66/165/11 77/85/11 67/87/11
f 67/166/8 78/88/8 64/90/8
f 76/93/17 75/91/17 80/93/17
f 77/95/18 76/94/18 81/95/18
f 78/97/19 77/96/19 82/97/19
f 75/93/20 78/98/20 79/93/20
f 80/167/1 79/99/1 84/101/1
f 81/168/6 80/102/6 85/104/6
f 86/169/11 82/105/11 85/107/11
f 79/116/8 82/108/8 83/109/8
f 84/111/15 83/110/15 88/111/15
f 85/112/15 84/104/15 89/112/15
f 86/114/15 85/113/15 90/114/15
f 83/117/15 86/115/15 87/117/15
f 92/170/11 88/118/11 91/120/11
f 89/171/8 88/121/8 93/123/8
f 90/172/1 89/124/1 94/126/1
f 87/165/6 90/127/6 91/129/6
f 94/173/15 93/130/15 91/131/15
f 22/132/22 95/132/21 72/132/22
f 59/132/7 58/132/7 95/132/7
f 73/132/23 22/133/23 58/132/23
