# Blender v2.76 (sub 0) OBJ File: ''
# www.blender.org
mtllib Skull.mtl
o Icosphere_Icosphere.006
v -0.397715 1.019875 -0.550357
v -0.034925 0.778932 -0.511834
v -0.385163 0.880905 0.059575
v 0.095386 1.035307 -0.579381
v 0.412698 1.003301 -0.170610
v 0.111747 0.831555 0.258194
v -0.469398 1.350335 0.116175
v -0.438942 1.194087 -0.025079
v -0.404069 0.999748 -0.048511
v -0.155101 1.034459 -0.687104
v -0.171212 1.489427 -0.328000
v 0.328463 1.472133 -0.112892
v 0.298471 1.289646 -0.218518
v 0.206287 1.116877 -0.403019
v 0.333494 1.275289 0.397052
v -0.159606 1.200070 0.538518
v -0.602907 1.348036 0.311045
v -0.344348 1.227787 0.591716
v -0.024541 1.626101 0.283953
v -0.744172 1.265394 0.340747
v -0.551780 1.175917 0.549592
v -0.629053 0.996604 0.324276
v -0.957362 1.058679 0.345557
v -0.851167 0.970641 0.560217
v -0.763627 1.003895 0.350592
v -0.854732 0.671712 0.263861
v -0.844845 0.636757 0.316451
v -0.809116 0.901876 0.282200
v -0.799650 0.659925 0.264698
v 0.619134 1.307932 0.284518
v 0.587745 1.621904 0.038501
v 0.766909 1.238939 0.251801
v 0.743553 1.472564 0.068741
v 0.719500 1.193575 -0.033622
v 0.984781 1.075662 0.133157
v 1.034239 1.273744 -0.019893
v 0.841591 1.153847 0.015075
v 0.935953 0.932929 -0.246572
v 0.963894 0.969530 -0.290901
v 0.861901 1.043459 -0.052427
v 0.894141 0.955888 -0.276543
v -0.098380 1.228336 -0.021256
v -0.063508 1.033997 -0.044688
v -0.409266 1.057280 -0.301017
v 0.058711 1.272593 -0.171297
v -0.033473 1.099825 -0.355798
v 0.331787 1.104218 -0.241346
v 0.092027 1.087166 -0.194125
v -0.068704 1.091529 -0.297194
v -0.155652 0.839112 -0.764227
vt 0.409444 0.370140
vt 0.407832 0.370271
vt 0.412255 0.370044
vt 0.407587 0.370632
vt 0.399788 0.367752
vt 0.408649 0.368957
vt 0.413432 0.369791
vt 0.412219 0.370105
vt 0.408574 0.370345
vt 0.410728 0.369779
vt 0.410702 0.370190
vt 0.406512 0.369392
vt 0.405904 0.369373
vt 0.410702 0.367009
vt 0.412318 0.369051
vt 0.404595 0.374080
vt 0.404595 0.372217
vt 0.406655 0.372729
vt 0.120463 0.197916
vt 0.124036 0.198293
vt 0.121982 0.198130
vt 0.411676 0.368937
vt 0.127046 0.198515
vt 0.125207 0.198924
vt 0.119350 0.197176
vt 0.124414 0.198213
vt 0.119287 0.198169
vt 0.135368 0.199923
vt 0.131070 0.199403
vt 0.129317 0.198977
vt 0.131025 0.200338
vt 0.131076 0.199184
vt 0.130997 0.200183
vt 0.131056 0.200094
vt 0.111623 0.206141
vt 0.106820 0.203463
vt 0.109212 0.203461
vt 0.109428 0.203240
vt 0.109632 0.203397
vt 0.109798 0.203679
vt 0.109729 0.202970
vt 0.109407 0.203036
vt 0.109446 0.203069
vt 0.109499 0.203134
vt 0.109304 0.202838
vt 0.109331 0.202902
vt 0.111623 0.200342
vt 0.411906 0.370004
vt 0.411844 0.370060
vt 0.411220 0.370130
vt 0.404214 0.368906
vt 0.405566 0.369402
vt 0.405761 0.369426
vt 0.411607 0.370072
vt 0.408366 0.370390
vn -0.531300 -0.828300 -0.177800
vn 0.670600 -0.488000 -0.558700
vn 0.465000 -0.884900 -0.028100
vn -0.135200 -0.986400 0.093200
vn -0.984500 -0.174300 -0.019500
vn -0.435400 0.548200 -0.714100
vn 0.779900 0.212600 -0.588700
vn 0.788800 -0.504200 0.351600
vn -0.320600 -0.711600 0.625200
vn -0.769000 0.535900 -0.348400
vn 0.334000 0.599000 -0.727800
vn 0.983900 0.169900 0.055900
vn 0.308900 -0.421200 0.852700
vn 0.233300 0.954700 0.184700
vn 0.246900 0.952100 0.180400
vn 0.211000 0.958500 0.191500
vn -0.506200 0.859500 -0.070600
vn 0.139800 0.958700 -0.247600
vn 0.627100 0.728700 0.275100
vn 0.178600 0.462300 0.868500
vn -0.570200 0.547000 0.612900
vn 0.315900 0.594700 -0.739300
vn -0.306600 0.739500 0.599300
vn 0.094400 -0.816900 0.569000
vn 0.059500 -0.785600 0.615800
vn 0.125200 -0.841800 0.525000
vn -0.789500 -0.004700 -0.613700
vn -0.746000 -0.053800 -0.663800
vn -0.772500 -0.024600 -0.634500
vn -0.482000 0.629100 0.609900
vn -0.580600 0.611300 0.537900
vn -0.502600 0.626200 0.596000
vn 0.075400 -0.792700 0.605000
vn -0.193000 -0.022600 -0.980900
vn -0.911500 -0.284100 0.297500
vn -0.897300 -0.305300 0.318700
vn -0.968900 -0.168300 0.181500
vn 0.719200 -0.667000 0.194600
vn 0.564900 -0.818300 0.106100
vn 0.645700 -0.748500 0.150900
vn 0.094800 0.246500 -0.964500
vn 0.163000 0.498200 -0.851600
vn 0.072700 0.166600 -0.983300
vn -0.170800 -0.835100 -0.523000
vn 0.964600 -0.098400 0.244700
vn 0.978500 -0.109300 0.175000
vn 0.881500 -0.058300 0.468600
vn -0.242400 0.124700 -0.962100
vn 0.030800 0.073300 -0.996800
vn -0.038100 0.086900 -0.995500
vn -0.402100 0.704300 0.585100
vn 0.035100 0.932400 0.359600
vn -0.209400 0.840200 0.500300
vn 0.425700 0.584100 0.691100
vn 0.344800 0.224600 -0.911400
vn 0.368400 0.263400 -0.891600
vn 0.334000 0.207300 -0.919500
vn 0.596400 0.474400 0.647500
vn 0.640500 0.363000 0.676700
vn 0.606000 0.452400 0.654300
vn 0.432500 0.277500 -0.857900
vn -0.376100 -0.903400 0.206100
vn 0.960500 -0.278300 0.002000
vn 0.965000 -0.261000 -0.026000
vn 0.919800 -0.363500 0.147700
vn -0.340400 0.285700 -0.895800
vn -0.232700 0.091500 -0.968200
vn -0.288000 0.188900 -0.938800
vn -0.655700 -0.667300 0.353300
vn -0.700700 -0.461600 0.544000
vn -0.631700 -0.718900 0.290100
vn 0.022900 -0.778000 -0.627900
vn -0.628300 0.625400 -0.462600
vn -0.675500 0.571400 -0.466000
vn -0.446400 0.782700 -0.433600
vn -0.355900 -0.864000 0.356100
vn -0.586100 -0.779700 0.220400
vn -0.532200 -0.806900 0.256300
vn 0.310700 -0.849000 0.427400
vn 0.340600 -0.845400 0.411400
vn 0.295000 -0.850500 0.435500
vn -0.000900 0.119600 -0.992800
vn 0.177000 -0.761000 0.624100
vn 0.177100 -0.761000 0.624100
vn -0.198300 0.084600 -0.976500
vn -0.047900 0.992200 0.114900
vn 0.084400 -0.889100 0.449900
vn -0.100000 0.969700 0.223000
vn -0.557000 -0.827600 0.069100
vn -0.479300 0.323500 -0.815900
vn 0.370500 0.340200 -0.864300
vn 0.731800 -0.495300 -0.468100
vn 0.200200 0.960200 0.194800
vn 0.140500 -0.853200 0.502400
vn -0.824500 0.040100 -0.564400
vn -0.412700 0.635600 0.652500
vn -0.987700 -0.103900 0.116700
vn 0.808800 -0.530600 0.253600
vn 0.015000 -0.038700 -0.999100
vn 0.757000 -0.017600 0.653200
vn -0.270600 0.129600 -0.953900
vn -0.628600 0.439800 0.641500
vn 0.311300 0.171000 -0.934800
vn 0.562100 0.544200 0.622800
vn 0.886400 -0.404900 0.224400
vn -0.408600 0.420300 -0.810200
vn -0.551600 -0.825100 0.122600
vn -0.252700 0.888300 -0.383500
vn -0.329600 -0.869000 0.369000
vn 0.273200 -0.852100 0.446400
usemtl Material.088
s 1
f 1/1/1 2/2/1 3/3/1
f 2/2/2 4/4/2 5/5/2
f 2/2/3 5/5/3 6/6/3
f 2/2/4 6/6/4 3/3/4
f 3/3/5 7/7/5 8/8/5
f 10/9/6 1/1/6 11/10/6
f 12/11/7 13/12/7 14/13/7
f 6/6/8 5/5/8 15/14/8
f 3/3/9 6/6/9 16/15/9
f 1/1/10 7/7/10 11/10/10
f 4/4/11 11/10/11 12/11/11
f 5/16/12 12/17/12 15/18/12
f 6/6/13 15/14/13 16/15/13
f 7/19/14 17/20/15 18/21/16
f 11/10/17 7/7/17 19/22/17
f 12/11/18 11/10/18 19/22/18
f 15/14/19 12/11/19 19/22/19
f 16/15/20 15/14/20 19/22/20
f 7/7/21 16/15/21 19/22/21
f 4/4/22 10/9/22 11/10/22
f 17/20/23 20/23/23 21/24/23
f 16/25/24 18/21/25 22/26/26
f 7/19/27 3/27/28 22/26/29
f 20/23/30 23/28/31 24/29/32
f 22/26/33 18/21/33 21/24/33
f 22/26/34 25/30/34 20/23/34
f 24/29/35 23/28/36 26/31/37
f 25/30/38 21/24/39 24/29/40
f 25/30/41 28/32/42 23/28/43
f 29/33/44 27/34/44 26/31/44
f 28/32/45 24/29/46 27/34/47
f 28/32/48 29/33/49 26/31/50
f 12/35/51 15/36/52 30/37/53
f 30/37/54 32/38/54 33/39/54
f 12/35/55 31/40/56 34/41/57
f 32/38/58 35/42/59 36/43/60
f 34/41/61 31/40/61 33/39/61
f 34/41/62 37/44/62 32/38/62
f 36/43/63 35/42/64 38/45/65
f 37/44/66 33/39/67 36/43/68
f 37/44/69 40/42/70 35/42/71
f 41/46/72 39/46/72 38/45/72
f 40/42/73 36/43/74 39/46/75
f 40/42/76 41/46/77 38/45/78
f 5/47/79 34/41/80 30/37/81
f 9/48/82 8/8/82 42/49/82
f 7/7/5 1/1/5 44/50/5
f 3/3/5 9/48/5 44/50/5
f 14/13/83 13/12/84 45/13/83
f 5/5/7 47/51/7 13/12/7
f 5/5/7 4/4/7 14/13/7
f 48/52/7 46/53/7 45/13/7
f 13/12/85 47/51/85 48/52/85
f 14/13/86 46/53/86 48/52/86
f 49/54/5 43/49/5 42/49/5
f 44/50/87 49/54/87 42/49/87
f 9/48/88 43/49/88 49/54/88
f 2/2/89 1/1/89 50/55/89
f 1/1/90 10/9/90 50/55/90
f 10/9/91 4/4/91 50/55/91
f 4/4/92 2/2/92 50/55/92
f 9/48/5 3/3/5 8/8/5
f 4/4/7 12/11/7 14/13/7
f 16/25/93 7/19/14 18/21/16
f 18/21/23 17/20/23 21/24/23
f 3/27/94 16/25/24 22/26/26
f 17/20/95 7/19/27 22/26/29
f 21/24/96 20/23/30 24/29/32
f 25/30/33 22/26/33 21/24/33
f 17/20/34 22/26/34 20/23/34
f 27/34/97 24/29/35 26/31/37
f 28/32/98 25/30/38 24/29/40
f 20/23/99 25/30/41 23/28/43
f 29/33/100 28/32/45 27/34/47
f 23/28/101 28/32/48 26/31/50
f 31/40/102 12/35/51 30/37/53
f 31/40/54 30/37/54 33/39/54
f 5/47/103 12/35/55 34/41/57
f 33/39/104 32/38/58 36/43/60
f 37/44/61 34/41/61 33/39/61
f 30/37/62 34/41/62 32/38/62
f 39/46/105 36/43/63 38/45/65
f 40/42/106 37/44/66 36/43/68
f 32/38/107 37/44/69 35/42/71
f 41/46/108 40/42/73 39/46/75
f 35/42/109 40/42/76 38/45/78
f 15/36/110 5/47/79 30/37/81
f 43/49/82 9/48/82 42/49/82
f 8/8/5 7/7/5 44/50/5
f 1/1/5 3/3/5 44/50/5
f 46/53/83 14/13/83 45/13/83
f 12/11/7 5/5/7 13/12/7
f 47/51/7 5/5/7 14/13/7
f 45/13/85 13/12/85 48/52/85
f 47/51/86 14/13/86 48/52/86
f 8/8/87 44/50/87 42/49/87
f 44/50/88 9/48/88 49/54/88
