# Blender v2.76 (sub 0) OBJ File: ''
# www.blender.org
mtllib Bush2.mtl
o Cylinder.015
v -0.000610 0.101023 -0.113276
v -0.003215 0.089784 -0.116093
v 0.000496 0.028497 -0.119019
v 0.000000 -0.133946 -0.133946
v 0.000000 -0.133946 -0.133946
v -0.022281 0.101991 -0.128230
v -0.100047 0.218672 -0.117997
v -0.010999 0.161055 -0.086824
v -0.002705 0.241357 -0.061855
v 0.008299 0.263668 -0.058998
v 0.100047 0.218672 -0.117997
v 0.044037 0.089210 -0.138471
v -0.143331 0.100522 -0.070903
v -0.191796 0.173676 -0.058998
v -0.008299 0.263668 -0.058998
v 0.000653 0.248165 -0.058366
v -0.116001 -0.133946 -0.066973
v -0.116001 -0.133946 -0.066973
v -0.116001 -0.133946 -0.066973
v -0.196145 0.380696 -0.123745
v -0.117524 0.415040 -0.042735
v 0.154209 0.094131 -0.062448
v 0.116001 -0.133946 -0.066973
v 0.000000 -0.133946 -0.133946
v 0.191796 0.173676 -0.058998
v -0.295722 0.326969 -0.090263
v -0.154209 0.094131 0.062448
v -0.191796 0.173676 0.058998
v -0.116001 -0.133946 0.066973
v -0.138480 0.395655 0.071757
v -0.008299 0.263668 0.058998
v 0.116001 -0.133946 0.066973
v 0.000000 -0.133946 0.133946
v 0.138480 0.395655 -0.071757
v 0.238057 0.341927 -0.105239
v 0.316678 0.307584 -0.024229
v 0.000000 0.246841 -0.045366
v 0.000000 0.246841 0.045366
v 0.008299 0.263668 0.058998
v -0.438807 0.516480 -0.117997
v -0.339170 0.539172 -0.058998
v -0.339170 0.539172 0.058999
v 0.143331 0.100522 0.070903
v 0.022281 0.101991 0.128230
v -0.044037 0.089210 0.138471
v 0.295722 0.326969 0.090263
v 0.191796 0.173676 0.058998
v -0.316678 0.307584 0.024229
v -0.538444 0.493788 -0.058998
v -0.100047 0.218672 0.117997
v 0.002705 0.241357 0.061855
v -0.000653 0.248165 0.058366
v -0.238057 0.341927 0.105239
v -0.438807 0.516480 0.117997
v 0.000610 0.101023 0.113276
v 0.003215 0.089784 0.116093
v -0.000496 0.028497 0.119019
v 0.117524 0.415040 0.042735
v 0.339170 0.539172 -0.058998
v 0.438807 0.516480 -0.117997
v 0.538444 0.493788 -0.058998
v 0.538444 0.493788 0.058998
v -0.387618 0.743486 -0.048323
v -0.402563 0.748581 -0.055619
v -0.426204 0.776716 0.056402
v -0.425950 0.776024 0.052794
v -0.437408 0.781753 0.058422
v -0.531086 0.762872 0.080937
v 0.100047 0.218672 0.117997
v 0.438807 0.516480 0.117997
v 0.196145 0.380696 0.123745
v -0.538444 0.493788 0.058999
v -0.570311 0.742235 -0.099571
v -0.467918 0.762872 -0.124181
v 0.010999 0.161055 0.086824
v -0.464100 0.763985 -0.119979
v -0.601895 0.742235 0.002988
v 0.339170 0.539172 0.058998
v 0.417559 0.753122 -0.056659
v 0.479205 0.773329 -0.068468
v 0.531086 0.762872 -0.080937
v 0.601895 0.742235 -0.002988
v 0.570311 0.742235 0.099571
v 0.467918 0.762872 0.124181
v -0.468324 0.765148 -0.123744
v -0.541140 0.828496 0.077820
v -0.613041 0.847450 0.008510
v -0.548797 0.831006 0.073463
v 0.400683 0.760620 0.052383
v 0.429101 0.774185 0.081450
v -0.468589 0.765241 -0.123857
v -0.575362 0.815031 -0.093572
v -0.612821 0.845379 -0.003672
v 0.418272 0.755066 -0.042902
v 0.535509 0.791746 -0.079565
v 0.610886 0.827113 -0.007442
v 0.538970 0.793203 -0.077610
v 0.585164 0.829715 0.087080
v 0.611022 0.828394 0.002575
v 0.477253 0.795812 0.119680
v 0.576209 0.827244 0.092566
v 0.390712 0.756533 0.047641
v 0.473532 0.794316 0.118146
v -0.583381 0.819212 -0.088580
v 0.889539 0.930555 0.037469
v -0.054044 0.541886 -0.426355
v 0.514165 1.371026 -0.922543
v 0.002458 0.698252 0.682191
v -0.604905 1.410965 -0.871138
v -0.921166 0.995155 0.120647
v 0.605588 1.624033 0.871137
v 0.506161 1.780896 0.790856
v 0.722503 1.777748 0.504496
v 0.758303 1.824888 0.526033
v 0.534225 1.828149 0.822633
v -0.394607 1.733764 -0.805257
v -0.733040 1.723902 -0.494939
v -0.749289 1.769117 -0.509142
v -0.398754 1.779331 -0.830557
v 0.914027 1.771297 -0.082370
v 0.956676 1.818206 -0.081819
v -0.513482 1.663972 0.922542
v 0.309411 1.754278 -0.827158
v 0.330439 1.800579 -0.853241
v -0.900574 1.702136 0.019874
v -0.521880 1.707043 0.959028
v -0.922814 1.746572 0.024081
v 0.755708 1.767283 -0.447441
v 0.792696 1.814049 -0.459945
v -0.116001 -0.133946 -0.066973
v -0.116001 -0.133946 -0.066973
v -0.116001 -0.133946 -0.066973
v 0.964778 2.096355 -0.121467
v 0.008126 2.403875 -0.703091
v 0.066648 2.565832 0.445096
v -0.910677 2.163265 -0.035314
vt 0.872447 0.909124
vt 0.894531 0.947376
vt 0.916616 0.934626
vt 0.920032 0.896374
vt 0.920032 0.947376
vt 0.869030 0.947376
vt 0.874594 0.937775
vt 0.919393 0.916200
vt 0.869030 0.896374
vt 0.909520 0.901244
vt 0.870278 0.929755
vt 0.918784 0.929755
vt 0.879542 0.901244
vt 0.920032 0.921875
vt 0.894531 0.896374
vt 0.872447 0.934626
vt 0.916616 0.909124
vt 0.911678 0.947376
vt 0.918520 0.945676
vt 0.870448 0.947376
vt 0.905596 0.898899
vt 0.911678 0.896374
vt 0.920032 0.899123
vt 0.875373 0.947376
vt 0.869030 0.899123
vt 0.869262 0.896506
vt 0.875930 0.947376
vt 0.869030 0.900715
vt 0.876379 0.900712
vt 0.915719 0.942638
vt 0.869279 0.947376
vt 0.869279 0.896374
vt 0.875930 0.896374
vt 0.879702 0.902854
vt 0.879880 0.896374
vt 0.914279 0.940941
vt 0.872066 0.947376
vt 0.869030 0.921534
vt 0.872302 0.898252
vt 0.878051 0.947376
vt 0.872493 0.947376
vt 0.914401 0.947376
vt 0.869030 0.924332
vt 0.872236 0.898220
vt 0.876968 0.896374
vt 0.876968 0.947376
vt 0.914401 0.896374
vt 0.872066 0.896374
vt 0.877945 0.901708
vt 0.877782 0.896374
vt 0.877590 0.901467
vt 0.878051 0.896374
vt 0.872493 0.896374
vt 0.061692 0.938074
vt 0.065383 0.938789
vt 0.065340 0.939802
vt 0.061533 0.944692
vt 0.057569 0.939115
vt 0.052382 0.933712
vt 0.057563 0.938421
vt 0.056847 0.938031
vt 0.065441 0.943999
vt 0.064396 0.944095
vt 0.067399 0.940376
vt 0.067879 0.942045
vt 0.059469 0.941389
vt 0.059552 0.941530
vt 0.054480 0.938804
vt 0.051570 0.938618
vt 0.061558 0.938614
vt 0.063861 0.940324
vt 0.066248 0.943786
vt 0.067328 0.092640
vt 0.064619 0.091856
vt 0.064919 0.091482
vt 0.060773 0.944087
vt 0.051865 0.926822
vt 0.056545 0.937520
vt 0.069589 0.079236
vt 0.073137 0.080508
vt 0.072823 0.080809
vt 0.061985 0.087824
vt 0.062496 0.087702
vt 0.066623 0.932316
vt 0.060131 0.941234
vt 0.052814 0.940857
vt 0.061291 0.950479
vt 0.055840 0.941352
vt 0.054403 0.940759
vt 0.064497 0.080926
vt 0.069524 0.079657
vt 0.073386 0.090553
vt 0.073076 0.090354
vt 0.074978 0.084590
vt 0.061985 0.084549
vt 0.062413 0.084780
vt 0.067251 0.092166
vt 0.064679 0.081332
vt 0.075345 0.084523
vt 0.059391 0.929744
vt 0.058203 0.930288
vt 0.055326 0.929270
vt 0.051404 0.930126
vt 0.052663 0.929193
vt 0.054293 0.932975
vt 0.067009 0.936907
vt 0.056863 0.929027
vt 0.057793 0.931504
vt 0.065299 0.938670
vt 0.064692 0.937684
vt 0.065002 0.938774
vt 0.063711 0.940154
vt 0.065555 0.940963
vt 0.064710 0.940269
vt 0.061216 0.937898
vt 0.061007 0.935619
vt 0.060378 0.936122
vt 0.061140 0.938226
vt 0.059892 0.937793
vt 0.059741 0.938685
vt 0.057331 0.940001
vt 0.058125 0.939729
vt 0.057441 0.939738
vt 0.065288 0.940711
vt 0.064540 0.940408
vt 0.057736 0.940812
vt 0.064053 0.087062
vt 0.067630 0.083359
vt 0.068739 0.087663
vt 0.072299 0.084711
vt 0.883467 0.898899
vt 0.869670 0.916200
vt 0.914469 0.937775
vt 0.869030 0.921875
vt 0.876499 0.903843
vt 0.912563 0.903843
vt 0.913448 0.940163
vt 0.918614 0.947376
vt 0.869030 0.943035
vt 0.869030 0.922216
vt 0.879880 0.947376
vt 0.920032 0.924332
vt 0.913689 0.947376
vt 0.877782 0.947376
vt 0.057507 0.938829
vt 0.057231 0.938416
vt 0.057183 0.938790
vt 0.057379 0.938961
vt 0.057521 0.938864
vt 0.056724 0.938126
vt 0.056788 0.938211
vt 0.056782 0.938069
vt 0.059407 0.941495
vt 0.056225 0.940713
vt 0.056521 0.934106
vt 0.053777 0.937402
vt 0.054352 0.937505
vt 0.058719 0.939690
vt 0.058392 0.939488
vt 0.050217 0.937283
vt 0.055652 0.940441
vt 0.051823 0.938730
vt 0.050136 0.937394
vt 0.053516 0.928178
vt 0.064041 0.936599
vt 0.060253 0.936814
vt 0.059886 0.939289
vn 0.568600 0.073500 -0.819300
vn 0.045600 0.005900 0.998900
vn 0.528700 0.417200 -0.739200
vn -0.402800 0.309900 -0.861200
vn -0.402500 0.309200 -0.861600
vn -0.402600 0.309800 -0.861300
vn -0.427800 0.017200 -0.903700
vn -0.444100 -0.186600 -0.876300
vn -0.471800 -0.171800 -0.864800
vn -0.439900 -0.188800 -0.878000
vn 0.447500 0.223100 -0.866000
vn -0.498400 0.080800 -0.863200
vn -0.499800 -0.026200 -0.865700
vn -0.688200 -0.036100 0.724600
vn -0.426600 -0.064800 -0.902100
vn -0.426500 -0.064800 -0.902200
vn -0.205800 -0.031300 0.978100
vn 0.457500 0.353400 -0.815900
vn 0.602800 0.331800 -0.725700
vn 0.526400 0.344700 -0.777200
vn 0.520700 -0.103600 -0.847400
vn 0.873300 -0.203000 0.442900
vn 0.545700 -0.090900 -0.833000
vn 0.000000 0.000000 1.000000
vn 0.528200 -0.143500 -0.836900
vn 0.466700 -0.183000 -0.865300
vn 0.521500 -0.148000 -0.840300
vn -0.328700 -0.288200 -0.899400
vn -0.156000 -0.297800 -0.941800
vn -0.251400 -0.293700 -0.922200
vn -0.879400 -0.474400 -0.038600
vn -0.904100 -0.427200 0.000000
vn -0.864100 -0.499700 -0.059800
vn -0.988400 -0.149300 -0.028800
vn -0.986300 -0.165200 0.000000
vn -0.989400 -0.132700 -0.058300
vn 0.747700 0.645100 0.157100
vn 0.702400 0.669400 0.241900
vn 0.779500 0.620500 0.086300
vn -0.000000 -1.000000 0.000000
vn 0.000000 -0.800000 0.600000
vn 0.000000 0.000000 0.301500
vn -0.322500 0.304200 -0.896300
vn -0.400800 0.312100 -0.861400
vn -0.247600 0.294900 -0.922900
vn 0.456200 -0.350300 -0.818100
vn 0.384200 -0.341400 -0.857800
vn 0.523000 -0.356600 -0.774200
vn 0.860500 0.500700 0.094200
vn -0.896900 0.442300 -0.000000
vn 0.384400 0.624600 -0.679800
vn 0.310000 0.585700 -0.748900
vn 0.330000 0.596700 -0.731500
vn 0.540000 0.824200 0.170800
vn 0.488600 0.872500 0.000000
vn 0.510100 0.857600 0.064900
vn 0.982100 -0.166300 0.088100
vn 0.993300 -0.115800 0.000000
vn 0.499800 -0.026200 0.865700
vn -0.545700 -0.090900 0.833000
vn -0.568600 -0.079000 0.818800
vn -0.520700 -0.103600 0.847400
vn 0.769300 -0.619000 0.158400
vn 0.779900 -0.577800 0.240600
vn 0.754400 -0.651000 0.084600
vn 0.864100 -0.499700 0.059800
vn 0.836900 -0.539200 0.094100
vn 0.879400 -0.474400 0.038600
vn -0.754400 -0.651000 -0.084600
vn -0.731300 -0.682000 0.000000
vn -0.769300 -0.619000 -0.158400
vn -0.215700 -0.298900 -0.929600
vn -0.391400 -0.415700 -0.821000
vn -0.352500 -0.390600 -0.850400
vn -0.521500 -0.148000 0.840300
vn -0.567600 -0.116700 0.815000
vn -0.528200 -0.143500 0.836900
vn 0.896900 0.442300 -0.000000
vn 0.247600 0.294900 0.922900
vn 0.165200 0.282700 0.944900
vn 0.322500 0.304200 0.896300
vn 0.345400 0.378400 0.858800
vn 0.398600 0.398000 0.826300
vn 0.213300 0.325300 0.921200
vn 0.426500 -0.064800 0.902200
vn -0.568600 0.073500 0.819300
vn 0.498400 0.080800 0.863200
vn -0.779500 0.620500 -0.086300
vn -0.810900 0.585100 0.000000
vn -0.747700 0.645100 -0.157100
vn -0.213300 0.325300 -0.921200
vn -0.154700 0.300000 -0.941300
vn -0.345400 0.378400 -0.858800
vn 0.427300 -0.566200 -0.704800
vn 0.454000 -0.572100 -0.683100
vn 0.360400 -0.549200 -0.754000
vn 0.590700 -0.785700 0.183700
vn 0.643000 -0.765800 0.000000
vn 0.629600 -0.774900 0.056200
vn 0.476200 0.158100 -0.865000
vn 0.939000 0.344000 0.000000
vn 0.939000 0.344000 0.000100
vn 0.255000 0.181900 0.949700
vn 0.196100 0.211200 0.957600
vn 0.404300 0.192100 0.894200
vn 0.439900 -0.188800 0.878000
vn 0.417300 -0.200400 0.886400
vn 0.444100 -0.186600 0.876300
vn 0.427800 0.017200 0.903700
vn 0.352500 -0.390600 0.850400
vn 0.173200 -0.269400 0.947300
vn 0.215700 -0.298900 0.929600
vn 0.251400 -0.293700 0.922200
vn 0.418800 -0.279100 0.864100
vn 0.328700 -0.288200 0.899400
vn -0.590700 -0.785700 -0.183700
vn -0.643000 -0.765800 0.000000
vn -0.629600 -0.774900 -0.056200
vn -0.456200 -0.350300 0.818100
vn -0.384200 -0.341400 0.857800
vn -0.523000 -0.356600 0.774200
vn -0.408600 -0.164700 -0.897700
vn -0.465000 -0.200500 -0.862300
vn -0.291900 -0.092400 -0.952000
vn 0.402800 0.309900 0.861200
vn 0.402600 0.309800 0.861300
vn 0.403300 0.310000 0.861000
vn -0.860500 0.500700 -0.094200
vn 0.935100 0.206700 0.288000
vn 0.729300 0.069100 -0.680700
vn 0.729200 0.069100 -0.680800
vn -0.360400 -0.549200 0.754000
vn -0.333600 -0.541500 0.771700
vn -0.427300 -0.566200 0.704800
vn -0.680900 -0.041000 0.731200
vn -0.735100 -0.035100 0.677100
vn -0.559300 -0.052200 0.827300
vn -0.528700 0.417200 0.739200
vn -0.457500 0.353400 0.815900
vn -0.602800 0.331800 0.725700
vn -0.526400 0.344700 0.777200
vn -0.540000 0.824200 -0.170800
vn -0.488600 0.872500 0.000000
vn -0.510100 0.857600 -0.064900
vn -0.278600 0.203600 -0.938600
vn -0.221300 0.200000 -0.954500
vn -0.404100 0.195400 -0.893600
vn 0.559300 -0.052200 -0.827300
vn 0.499100 -0.056900 -0.864700
vn 0.680900 -0.041000 -0.731200
vn 0.970600 -0.230500 0.069600
vn 0.968900 -0.247400 0.000000
vn 0.957600 -0.190700 0.215900
vn 0.408600 -0.164700 0.897700
vn 0.465000 -0.200500 0.862300
vn 0.291900 -0.092400 0.952000
vn -0.447500 0.223100 0.866000
vn 0.681600 0.253400 -0.686400
vn 0.217800 0.079600 0.972800
vn -0.720500 -0.112200 0.684300
vn -0.330000 0.596700 0.731500
vn -0.403300 0.633700 0.660100
vn -0.384400 0.624600 0.679800
vn -0.729300 0.069100 0.680700
vn -0.970600 -0.230500 -0.069600
vn -0.968900 -0.247400 0.000000
vn -0.957600 -0.190700 -0.215900
vn -0.245200 0.062800 -0.967400
vn -0.245200 0.062900 -0.967400
vn -0.245200 0.062700 -0.967500
vn 0.451900 0.245300 -0.857700
vn -0.503100 -0.036100 0.863400
vn -0.994400 -0.105300 -0.000000
vn -0.939000 0.344000 0.000000
vn -0.217700 0.079600 -0.972800
vn 0.720500 -0.112200 -0.684300
vn 0.948900 -0.119400 0.292200
vn 0.245200 0.062700 0.967500
vn -0.476200 0.158100 0.865000
vn -0.681700 0.253400 0.686300
vn -0.515000 0.034800 -0.856500
vn -0.948900 -0.119400 -0.292200
vn -0.935100 0.206700 -0.288000
vn 0.503000 -0.036000 -0.863600
vn 0.994400 -0.105300 -0.000000
vn 0.515100 0.034800 0.856400
vn -0.452200 0.245300 0.857500
vn 0.530600 -0.672400 -0.516000
vn 0.329300 -0.937100 0.115400
vn 0.329300 -0.937200 0.115400
vn -0.057400 -0.483400 -0.873500
vn -0.383100 -0.911700 0.148100
vn -0.383200 -0.911700 0.148100
vn -0.383100 -0.911800 0.147900
vn -0.383100 -0.911800 0.148000
vn 0.588800 -0.511400 0.625900
vn 0.595300 -0.660900 0.457000
vn -0.622100 -0.631300 -0.463100
vn -0.603900 -0.428200 -0.672200
vn 0.716700 -0.654400 0.241100
vn -0.563900 -0.470200 0.678900
vn 0.036800 -0.222800 0.974200
vn -0.013000 -0.486300 -0.873700
vn -0.828900 -0.446700 0.336600
vn 0.707600 -0.639800 -0.299800
vn 0.170000 -0.617400 0.768000
vn 0.170000 -0.617500 0.768000
vn 0.535000 -0.585900 -0.608700
vn -0.864500 -0.404400 -0.298400
vn -0.950600 -0.016500 -0.310000
vn -0.914600 0.083000 0.395700
vn -0.036800 0.222800 -0.974200
vn -0.588800 0.511400 -0.625900
vn 0.563900 0.470200 -0.678900
vn 0.914600 -0.083000 -0.395700
vn 0.950600 0.016500 0.310000
vn 0.622100 0.631300 0.463100
vn 0.057400 0.483400 0.873500
vn 0.383100 0.911700 -0.148100
vn -0.329300 0.937100 -0.115400
vn -0.530600 0.672400 0.516000
vn 0.568600 0.073600 -0.819300
vn -0.403300 0.310000 -0.861000
vn -0.403900 0.309400 -0.860900
vn -0.402600 0.308900 -0.861700
vn -0.417300 -0.200400 -0.886400
vn 0.372800 0.360800 -0.854900
vn 0.568600 -0.079000 -0.818800
vn 0.567600 -0.116700 -0.815000
vn -0.418800 -0.279100 -0.864100
vn -0.836900 -0.539200 -0.094100
vn -0.989400 -0.116800 -0.086300
vn 0.810900 0.585100 0.000000
vn -0.165200 0.282700 -0.944900
vn 0.588200 -0.360700 -0.723800
vn -0.896900 0.442300 0.000100
vn 0.403300 0.633700 -0.660100
vn 0.555200 0.797400 0.236600
vn -0.496700 -0.115500 0.860200
vn 0.731300 -0.682000 0.000000
vn 0.904100 -0.427200 0.000000
vn -0.779900 -0.577800 -0.240600
vn -0.173200 -0.269400 -0.947300
vn -0.466700 -0.183000 0.865300
vn 0.896900 0.442300 -0.000100
vn 0.400800 0.312100 0.861400
vn 0.154700 0.300000 0.941300
vn -0.568600 0.073600 0.819300
vn -0.702400 0.669400 -0.241900
vn -0.398600 0.398000 -0.826200
vn 0.333600 -0.541500 -0.771700
vn 0.570800 -0.786000 0.237600
vn 0.215600 0.089700 0.972300
vn 0.470100 0.181700 0.863700
vn 0.471800 -0.171800 0.864800
vn 0.391400 -0.415700 0.821000
vn 0.156000 -0.297800 0.941800
vn -0.570800 -0.786000 -0.237600
vn -0.588200 -0.360700 0.723800
vn -0.223700 -0.050900 -0.973300
vn 0.403900 0.309400 0.860900
vn 0.402600 0.308900 0.861700
vn 0.402500 0.309200 0.861600
vn -0.454000 -0.572100 0.683100
vn -0.499100 -0.056900 0.864700
vn -0.372800 0.360800 0.854900
vn -0.555200 0.797400 -0.236600
vn -0.215600 0.089600 -0.972400
vn -0.470100 0.181700 -0.863700
vn 0.735100 -0.035100 -0.677100
vn 0.942100 -0.168200 0.290100
vn 0.223700 -0.050900 0.973300
vn -0.310000 0.585700 0.748900
vn -0.942100 -0.168200 -0.290100
vn -0.939000 0.344000 0.000100
vn 0.329200 -0.937200 0.115500
vn 0.329200 -0.937200 0.115400
vn -0.383800 -0.911500 0.147700
vn -0.383100 -0.911700 0.148200
vn -0.383700 -0.911600 0.147800
usemtl Material.099
s 1
f 3/1/1 5/2/2 6/3/1
f 6/4/3 7/5/3 8/6/3
f 8/7/4 9/2/5 11/8/6
f 2/9/7 12/4/7 3/5/7
f 13/5/8 14/6/9 7/9/10
f 15/10/11 9/11/11 7/12/11
f 3/9/12 12/4/12 4/5/12
f 6/4/13 5/5/13 17/9/14
f 13/4/15 6/5/16 18/9/17
f 7/9/18 20/4/19 21/5/20
f 23/2/21 4/12/22 12/13/23
f 24/9/24 5/9/24 4/9/24
f 11/6/25 25/9/26 22/4/27
f 14/9/28 26/4/29 20/5/30
f 27/5/31 28/6/32 14/9/33
f 19/9/34 29/4/35 27/5/36
f 21/4/37 30/5/38 31/6/39
f 23/14/40 33/15/40 5/2/41
f 19/9/42 18/9/42 17/9/42
f 11/6/43 10/9/44 34/4/45
f 25/4/46 11/5/47 35/6/48
f 16/9/49 15/4/49 37/5/49
f 37/16/50 38/2/50 10/17/50
f 20/9/51 40/4/52 41/5/53
f 21/9/54 41/4/55 42/5/56
f 23/9/57 22/4/57 43/5/57
f 23/9/58 43/4/58 32/5/58
f 32/9/59 44/4/59 33/5/59
f 45/5/60 27/6/61 29/9/62
f 36/6/63 46/9/64 47/4/65
f 47/9/66 43/4/67 22/5/68
f 14/4/69 28/5/70 48/6/71
f 26/9/72 49/4/73 40/5/74
f 27/4/75 45/5/76 50/6/77
f 31/17/78 38/16/78 37/2/78
f 30/4/79 53/5/80 50/6/81
f 42/6/82 54/9/83 53/4/84
f 32/9/85 43/4/85 44/5/85
f 44/12/86 56/13/86 57/11/86
f 57/9/87 45/4/87 33/5/87
f 10/6/88 39/9/89 58/4/90
f 35/4/91 34/5/92 59/6/93
f 36/4/94 35/5/95 60/6/96
f 36/9/97 61/4/98 62/5/99
f 63/18/100 41/6/100 40/9/100
f 42/6/101 41/9/101 66/19/102
f 65/20/103 68/9/104 54/4/105
f 69/9/106 44/4/107 43/5/108
f 56/9/109 45/4/109 57/5/109
f 70/5/110 71/6/111 46/9/112
f 71/5/113 69/6/114 47/9/115
f 48/9/116 72/4/117 49/5/118
f 28/4/119 50/5/120 53/6/121
f 40/6/122 49/9/123 73/4/124
f 75/7/125 50/8/126 45/21/127
f 52/9/128 39/4/128 38/5/128
f 66/19/129 41/9/129 63/22/129
f 40/9/130 74/4/131 76/23/131
f 54/6/132 72/9/133 48/4/134
f 68/4/135 77/5/136 72/6/137
f 44/4/138 69/5/138 75/6/138
f 69/9/139 71/4/140 58/5/141
f 58/9/142 78/4/143 59/5/144
f 79/24/145 81/9/146 60/4/147
f 61/6/148 60/9/149 81/4/150
f 62/6/151 61/9/152 82/4/153
f 70/6/154 62/9/155 83/4/156
f 51/11/157 69/12/157 39/10/157
f 76/25/158 74/9/158 85/26/158
f 86/27/159 68/6/159 67/28/159
f 77/6/160 68/9/160 88/29/160
f 78/5/161 58/6/162 71/9/163
f 89/30/164 70/9/164 84/4/164
f 49/6/165 72/9/166 77/4/167
f 91/31/168 74/6/169 73/9/170
f 85/26/171 74/9/171 91/32/171
f 88/29/172 68/9/172 86/33/172
f 93/34/173 77/9/173 87/35/173
f 59/6/174 78/9/174 94/36/174
f 95/37/175 81/6/175 80/38/175
f 82/6/176 81/9/176 97/39/176
f 98/40/177 83/6/177 82/9/177
f 100/41/178 84/6/178 83/9/178
f 102/42/179 78/6/179 70/9/179
f 90/43/180 84/9/180 103/44/180
f 92/29/181 73/9/181 104/45/181
f 104/46/182 73/6/182 77/9/182
f 94/36/183 78/9/183 102/47/183
f 97/39/184 81/9/184 95/48/184
f 99/49/185 82/9/185 96/50/185
f 101/51/186 83/9/186 98/52/186
f 103/44/187 84/9/187 100/53/187
f 105/54/188 106/55/188 107/56/188
f 108/57/189 103/58/190 100/58/190
f 106/59/189 105/60/189 95/61/190
f 107/62/191 106/63/191 109/64/191
f 108/65/192 67/66/193 65/67/193
f 106/68/192 85/69/194 91/69/195
f 105/70/196 111/71/196 108/72/196
f 112/73/197 113/74/197 114/75/197
f 106/76/198 110/77/198 109/78/198
f 116/79/199 117/80/199 118/81/199
f 120/82/200 121/83/200 114/75/200
f 108/84/201 122/85/201 110/86/201
f 108/87/202 111/88/202 122/89/202
f 123/90/203 116/79/203 119/91/203
f 122/92/204 126/93/204 127/94/204
f 120/82/205 128/95/205 129/96/205
f 112/73/206 115/97/206 126/93/207
f 128/95/208 123/90/208 124/98/208
f 117/80/209 125/99/209 127/94/209
f 130/9/42 131/9/42 132/9/42
f 110/100/210 125/101/210 117/102/210
f 110/103/211 122/104/211 125/105/211
f 107/106/212 109/107/212 116/108/212
f 116/109/213 109/110/213 117/111/213
f 128/112/214 107/113/214 123/114/214
f 105/115/215 107/116/215 128/117/215
f 105/118/216 120/119/216 113/120/216
f 111/121/217 113/122/217 112/123/217
f 111/124/218 112/125/218 122/126/218
f 121/83/215 129/96/215 133/127/215
f 121/83/216 133/127/216 114/75/216
f 129/96/214 124/98/214 134/128/214
f 124/98/212 119/91/212 134/128/212
f 114/75/217 133/127/217 135/129/217
f 133/127/219 134/128/219 135/129/219
f 134/128/213 119/91/213 118/81/213
f 118/81/210 127/94/210 136/130/210
f 115/97/218 135/129/218 126/93/218
f 135/129/220 134/128/220 136/130/220
f 126/93/211 136/130/211 127/94/211
f 126/93/221 135/129/221 136/130/221
f 6/3/1 1/17/222 2/15/1
f 3/1/1 4/2/24 5/2/2
f 6/3/1 2/15/1 3/1/1
f 1/9/3 6/4/3 8/6/3
f 12/21/223 2/131/224 1/132/224
f 1/132/224 8/7/4 12/21/223
f 9/2/5 10/133/225 11/8/6
f 11/8/6 12/21/223 8/7/4
f 6/4/226 13/5/8 7/9/10
f 8/2/11 7/12/11 9/11/11
f 15/10/11 16/13/11 9/11/11
f 18/9/24 6/4/13 17/9/14
f 19/9/24 13/4/15 18/9/17
f 15/6/227 7/9/18 21/5/20
f 12/13/23 22/11/228 23/2/21
f 23/2/21 24/12/24 4/12/22
f 12/5/229 11/6/25 22/4/27
f 7/6/230 14/9/28 20/5/30
f 13/4/231 27/5/31 14/9/33
f 13/6/232 19/9/34 27/5/36
f 15/9/233 21/4/37 31/6/39
f 5/2/41 24/2/24 23/14/40
f 19/134/41 17/134/24 5/2/41
f 33/15/40 29/135/40 19/134/41
f 23/14/40 32/136/40 33/15/40
f 19/134/41 5/2/41 33/15/40
f 35/5/234 11/6/43 34/4/45
f 36/9/235 25/4/46 35/6/48
f 16/1/50 37/16/50 10/17/50
f 10/17/50 9/15/236 16/1/50
f 38/2/50 39/3/50 10/17/50
f 21/6/237 20/9/51 41/5/53
f 30/6/238 21/9/54 42/5/56
f 33/4/239 45/5/60 29/9/62
f 25/5/240 36/6/63 47/4/65
f 25/6/241 47/9/66 22/5/68
f 26/9/242 14/4/69 48/6/71
f 20/6/243 26/9/72 40/5/74
f 28/9/244 27/4/75 50/6/77
f 37/2/78 15/3/78 31/17/78
f 31/17/78 51/15/245 52/1/78
f 52/1/78 38/16/78 31/17/78
f 31/9/246 30/4/79 50/6/81
f 30/5/247 42/6/82 53/4/84
f 57/11/86 33/2/86 44/12/86
f 44/12/86 55/10/248 56/13/86
f 34/5/249 10/6/88 58/4/90
f 60/9/250 35/4/91 59/6/93
f 61/9/251 36/4/94 60/6/96
f 46/6/252 36/9/97 62/5/99
f 64/137/100 63/18/100 40/9/100
f 65/138/102 42/6/101 66/19/102
f 68/9/104 65/20/103 67/139/253
f 42/5/254 65/20/103 54/4/105
f 47/6/255 69/9/106 43/5/108
f 62/4/256 70/5/110 46/9/112
f 46/4/257 71/5/113 47/9/115
f 26/6/258 48/9/116 49/5/118
f 48/9/259 28/4/119 53/6/121
f 74/5/260 40/6/122 73/4/124
f 55/132/261 75/7/125 45/21/127
f 45/21/127 56/131/261 55/132/261
f 31/133/262 50/8/126 51/2/263
f 75/7/125 51/2/263 50/8/126
f 64/137/130 40/9/130 76/23/131
f 53/5/264 54/6/132 48/4/134
f 54/9/265 68/4/135 72/6/137
f 55/9/138 44/4/138 75/6/138
f 39/6/266 69/9/139 58/5/141
f 34/6/267 58/9/142 59/5/144
f 81/9/146 79/24/145 80/140/268
f 59/5/269 79/24/145 60/4/147
f 82/5/270 61/6/148 81/4/150
f 83/5/271 62/6/151 82/4/153
f 84/5/272 70/6/154 83/4/156
f 39/10/157 52/13/157 51/11/157
f 51/11/157 75/2/157 69/12/157
f 87/141/160 77/6/160 88/29/160
f 70/4/273 78/5/161 71/9/163
f 90/142/164 89/30/164 84/4/164
f 73/5/274 49/6/165 77/4/167
f 92/29/170 91/31/168 73/9/170
f 79/143/275 59/6/174 94/36/174
f 96/144/176 82/6/176 97/39/176
f 99/49/177 98/40/177 82/9/177
f 101/51/178 100/41/178 83/9/178
f 89/30/179 102/42/179 70/9/179
f 93/34/182 104/46/182 77/9/182
f 98/145/190 99/146/190 105/60/189
f 108/57/189 102/147/190 90/148/190
f 98/145/190 105/60/189 101/149/190
f 102/147/190 89/147/276 90/148/190
f 101/149/190 105/60/189 108/57/189
f 108/57/189 90/148/190 103/58/190
f 100/58/190 101/149/190 108/57/189
f 79/150/190 94/151/277 102/147/190
f 95/61/190 80/152/189 106/59/189
f 105/60/189 99/146/190 96/146/190
f 79/150/190 102/147/190 106/59/189
f 105/60/189 96/146/190 97/61/276
f 102/147/190 108/57/189 106/59/189
f 105/60/189 97/61/276 95/61/190
f 80/152/189 79/150/190 106/59/189
f 66/153/278 63/154/192 65/67/193
f 110/155/192 93/156/192 87/157/193
f 63/154/192 106/68/192 108/65/192
f 108/65/192 110/155/192 86/158/192
f 86/158/192 67/66/193 108/65/192
f 110/155/192 87/157/193 88/159/192
f 65/67/193 63/154/192 108/65/192
f 110/155/192 88/159/192 86/158/192
f 104/160/279 93/156/192 110/155/192
f 63/154/192 64/161/192 76/162/279
f 92/163/280 104/160/279 106/68/192
f 106/68/192 63/154/192 76/162/279
f 104/160/279 110/155/192 106/68/192
f 106/68/192 76/162/279 85/69/194
f 91/69/195 92/163/280 106/68/192
f 115/97/197 112/73/197 114/75/197
f 119/91/199 116/79/199 118/81/199
f 113/74/200 120/82/200 114/75/200
f 124/98/203 123/90/203 119/91/203
f 125/99/204 122/92/204 127/94/204
f 121/83/205 120/82/205 129/96/205
f 122/92/207 112/73/206 126/93/207
f 129/96/208 128/95/208 124/98/208
f 118/81/209 117/80/209 127/94/209
f 109/164/210 110/100/210 117/102/210
f 123/165/212 107/106/212 116/108/212
f 120/166/215 105/115/215 128/117/215
f 111/167/216 105/118/216 113/120/216
f 133/127/214 129/96/214 134/128/214
f 115/97/217 114/75/217 135/129/217
f 136/130/213 134/128/213 118/81/213
