# Blender v2.76 (sub 0) OBJ File: ''
# www.blender.org
mtllib SmallBush4.mtl
o Cylinder.018
v 0.587785 0.030390 -0.809017
v 0.951056 0.030390 0.309017
v 0.507866 -0.125151 0.165016
v 0.313878 -0.125151 -0.432016
v -0.587785 0.030390 -0.809017
v -0.313878 -0.125151 -0.432017
v 0.610934 0.377148 0.198505
v 0.377578 0.377148 -0.519691
v 0.000000 0.030390 1.000000
v 0.000000 -0.125151 0.534002
v 0.507866 -0.168427 0.165016
v 0.313878 -0.168427 -0.432016
v -0.951057 0.030390 0.309017
v -0.507866 -0.125151 0.165016
v -0.377578 0.377148 -0.519691
v 0.377578 0.377148 -0.519691
v -0.313878 -0.168427 -0.432017
v 0.502218 0.447850 -0.691244
v 0.812606 0.447850 0.264032
v 0.000000 0.377148 0.642374
v 0.000000 -0.168427 0.534002
v -0.507866 -0.168427 0.165016
v -0.610934 0.377148 0.198504
v -0.502218 0.447850 -0.691244
v 0.000000 0.447850 0.854425
v -0.812606 0.447850 0.264032
v 0.000000 0.629502 0.669928
v 0.648718 0.617515 0.210781
v -0.638471 0.628124 0.207452
v -0.395791 0.626123 -0.544759
v -0.727391 0.645015 0.236362
v -0.450959 0.642737 -0.620465
v 0.738818 0.632931 0.240155
v -0.000123 0.646585 0.763159
v 0.399705 0.619567 -0.550146
v 0.455172 0.635269 -0.626601
v 0.566736 0.811078 0.184242
v 0.350215 0.811078 -0.482141
v -0.350461 0.811078 -0.482141
v -0.566982 0.811078 0.184242
v 0.705934 0.859878 0.229470
v -0.000123 0.859878 0.742451
v -0.000123 0.811078 0.596090
v 0.436244 0.859878 -0.600549
v -0.000123 1.590822 0.000059
v -0.706180 0.859878 0.229470
v -0.436490 0.859878 -0.600549
vt 0.041234 0.824899
vt 0.060329 0.824899
vt 0.060329 0.843994
vt 0.041234 0.843994
vt 0.046042 0.817801
vt 0.923610 0.942086
vt 0.923610 0.961181
vt 0.904515 0.961181
vt 0.060329 0.837165
vt 0.034136 0.817801
vt 0.923143 0.954584
vt 0.908451 0.943909
vt 0.914062 0.961181
vt 0.051594 0.062344
vt 0.048396 0.070741
vt 0.047791 0.069800
vt 0.034344 0.062763
vt 0.036322 0.063144
vt 0.040934 0.070002
vt 0.043757 0.056022
vt 0.043665 0.057488
vt 0.050341 0.062627
vt 0.040540 0.070741
vt 0.039551 0.063885
vt 0.043621 0.060260
vt 0.048049 0.063276
vt 0.040636 0.064214
vt 0.042310 0.067752
vt 0.041700 0.068636
vt 0.043607 0.061451
vt 0.043916 0.064894
vt 0.045995 0.067295
vt 0.046974 0.063589
vt 0.046602 0.068127
vt 0.904515 0.942086
vt 0.067427 0.839186
vt 0.904982 0.954584
vt 0.919674 0.943909
vn 0.362700 -0.924400 -0.117900
vn 0.000000 -0.924400 -0.381400
vn 0.730200 0.640700 -0.237300
vn 0.224200 -0.924400 0.308600
vn 0.951100 -0.000000 -0.309000
vn -0.362700 -0.924400 -0.117900
vn 0.000000 0.640700 -0.767800
vn 0.000000 0.999700 0.023500
vn 0.000000 0.000000 -1.000000
vn 0.362400 -0.924600 -0.117700
vn 0.311100 -0.793800 0.522600
vn 0.451300 0.640700 0.621200
vn -0.224200 -0.924400 0.308600
vn 0.587800 0.000000 0.809000
vn -0.000000 -1.000000 0.000000
vn -0.730200 0.640700 -0.237300
vn -0.951100 0.000000 -0.309000
vn 0.000000 -0.924600 -0.381000
vn 0.224000 -0.924600 0.308300
vn -0.451300 0.640700 0.621200
vn -0.587800 0.000000 0.809000
vn -0.362400 -0.924600 -0.117700
vn 0.454100 0.634900 0.625100
vn -0.224000 -0.924600 0.308300
vn -0.454100 0.634900 0.625100
vn -0.206300 -0.976400 -0.064000
vn -0.206300 -0.976400 -0.063900
vn 0.108800 -0.977800 0.179300
vn 0.188700 -0.979900 -0.064400
vn 0.734800 0.634900 -0.238800
vn -0.734800 0.634900 -0.238800
vn 0.000000 0.634900 -0.772600
vn -0.009500 -0.978100 -0.207800
vn -0.127300 -0.975700 0.178600
vn 0.000000 0.000000 1.000000
usemtl Material.105
s 1
f 1/1/1 2/2/1 3/3/1
f 1/2/2 4/3/2 6/4/2
f 2/3/3 1/1/3 8/5/3
f 9/2/4 10/3/4 3/4/4
f 3/6/5 11/7/5 12/8/5
f 5/2/6 6/3/6 14/4/6
f 15/5/7 8/9/8 1/3/7
f 4/6/9 12/7/9 17/8/9
f 19/10/10 7/10/10 8/10/11
f 9/3/12 2/1/12 7/5/12
f 9/1/13 13/2/13 14/3/13
f 10/6/14 21/7/14 11/8/14
f 22/11/15 12/12/15 21/13/15
f 5/3/16 13/1/16 23/5/16
f 6/6/17 17/7/17 22/8/17
f 24/10/18 18/10/18 16/10/18
f 7/10/19 19/10/19 25/10/19
f 13/3/20 9/1/20 20/5/20
f 14/6/21 22/7/21 21/8/21
f 23/10/22 26/10/22 24/10/22
f 25/10/23 19/10/23 28/10/23
f 20/10/24 25/10/24 26/10/24
f 29/10/25 26/10/25 25/10/25
f 30/14/26 29/15/27 31/16/27
f 28/17/28 33/18/28 34/19/28
f 28/17/29 35/20/29 36/21/29
f 28/10/30 19/10/30 18/10/30
f 30/10/31 24/10/31 26/10/31
f 35/10/32 18/10/32 24/10/32
f 35/20/33 30/14/33 32/22/33
f 29/15/34 27/23/34 34/19/34
f 37/24/30 33/18/30 36/21/30
f 38/25/32 36/21/32 32/22/32
f 39/26/31 32/22/31 31/16/31
f 41/27/19 42/28/19 43/29/19
f 44/30/10 41/27/10 37/24/10
f 41/27/23 45/31/23 42/28/23
f 43/29/24 42/28/24 46/32/24
f 47/33/18 44/30/18 38/25/18
f 44/30/30 45/31/30 41/27/30
f 42/28/25 45/31/25 46/32/25
f 40/34/22 46/32/22 47/33/22
f 47/33/32 45/31/32 44/30/32
f 46/32/31 45/31/31 47/33/31
f 40/34/25 31/16/25 34/19/25
f 34/19/23 33/18/23 37/24/23
f 4/4/1 1/1/1 3/3/1
f 5/1/2 1/2/2 6/4/2
f 7/9/3 2/3/3 8/5/3
f 2/1/4 9/2/4 3/4/4
f 4/35/5 3/6/5 12/8/5
f 13/1/6 5/2/6 14/4/6
f 1/3/7 5/1/7 15/5/7
f 15/5/7 16/36/35 8/9/8
f 6/35/9 4/6/9 17/8/9
f 18/10/10 19/10/10 8/10/11
f 8/10/11 16/10/35 18/10/10
f 20/9/12 9/3/12 7/5/12
f 10/4/13 9/1/13 14/3/13
f 3/35/14 10/6/14 11/8/14
f 11/37/15 21/13/15 12/12/15
f 22/11/15 17/38/15 12/12/15
f 15/9/16 5/3/16 23/5/16
f 14/35/17 6/6/17 22/8/17
f 15/10/18 24/10/18 16/10/18
f 20/10/19 7/10/19 25/10/19
f 23/9/20 13/3/20 20/5/20
f 10/35/21 14/6/21 21/8/21
f 15/10/22 23/10/22 24/10/22
f 27/10/23 25/10/23 28/10/23
f 23/10/24 20/10/24 26/10/24
f 27/10/25 29/10/25 25/10/25
f 32/22/26 30/14/26 31/16/27
f 27/23/28 28/17/28 34/19/28
f 33/18/29 28/17/29 36/21/29
f 35/10/30 28/10/30 18/10/30
f 29/10/31 30/10/31 26/10/31
f 30/10/32 35/10/32 24/10/32
f 36/21/33 35/20/33 32/22/33
f 31/16/34 29/15/34 34/19/34
f 38/25/30 37/24/30 36/21/30
f 39/26/32 38/25/32 32/22/32
f 40/34/31 39/26/31 31/16/31
f 37/24/19 41/27/19 43/29/19
f 38/25/10 44/30/10 37/24/10
f 40/34/24 43/29/24 46/32/24
f 39/26/18 47/33/18 38/25/18
f 39/26/22 40/34/22 47/33/22
f 43/29/25 40/34/25 34/19/25
f 43/29/23 34/19/23 37/24/23
