# Blender v2.76 (sub 0) OBJ File: ''
# www.blender.org
mtllib SmallBush3.mtl
o Cylinder_Cylinder.007
v 0.000000 -0.182849 0.098142
v 0.000000 -0.071313 0.052834
v -0.010466 -0.067699 0.045324
v -0.011689 -0.063560 0.042936
v -0.043028 -0.063560 0.024842
v -0.084994 -0.182849 0.049071
v -0.084994 -0.182849 -0.049071
v 0.000000 -0.182849 -0.098142
v 0.084994 -0.182849 -0.049071
v 0.084994 -0.182849 0.049071
v 0.043028 -0.063560 0.024842
v 0.010233 -0.063560 0.043777
v 0.003553 -0.071413 0.050824
v -0.043028 -0.063560 -0.024843
v -0.021861 -0.063560 -0.037063
v -0.014726 -0.071948 -0.044590
v 0.000000 -0.071535 -0.052925
v 0.008815 -0.068491 -0.046599
v 0.010273 -0.063560 -0.043754
v 0.043028 -0.063560 -0.024842
v 0.051656 -0.121627 0.221258
v -0.140085 -0.079095 0.179473
v -0.024295 0.066608 -0.014027
v -0.025999 0.054770 -0.015010
v -0.031153 0.018958 -0.016842
v -0.031748 0.014820 -0.018330
v -0.024295 0.066608 0.014027
v -0.031145 0.008094 -0.019796
v -0.025012 -0.060323 -0.034706
v 0.023997 -0.033196 -0.030785
v 0.016138 0.033580 -0.024225
v 0.023943 0.069053 -0.013824
v 0.024763 0.063353 -0.000000
v 0.023943 0.069053 0.013824
v 0.012686 -0.061040 0.041942
v 0.167435 0.005551 0.117617
v -0.142812 0.074367 0.050008
v -0.017865 -0.049896 0.037100
v -0.023483 0.065987 -0.014599
v -0.011499 0.004196 0.031787
v -0.021762 0.064673 0.015811
v 0.012416 0.065204 -0.021119
v 0.132151 0.038053 0.312602
v -0.057905 -0.014262 0.350832
v -0.024674 0.066897 -0.014314
v 0.025688 0.074169 -0.022816
v 0.011837 0.049116 0.024126
v 0.008520 0.063904 0.023584
v 0.019498 0.014956 0.025380
v 0.035079 0.077695 0.017742
v 0.069085 0.104670 0.031011
v -0.178095 0.106870 0.244993
v -0.063154 0.096294 0.033985
v -0.048230 0.084893 0.032178
v -0.043502 0.081281 0.031606
v -0.004039 0.067573 0.025561
v 0.025128 0.072528 0.019931
v 0.053313 0.116460 0.320747
v 0.130762 0.116211 0.246666
v 0.138116 0.119133 0.258138
v 0.057166 0.119392 0.335567
v -0.157504 0.115730 0.255063
v -0.025545 0.116044 0.334968
v -0.025256 0.118958 0.350432
v -0.163179 0.118630 0.266915
v 0.150892 0.113988 -0.245032
v 0.015530 0.113444 -0.327235
v 0.017675 0.116241 -0.341700
v 0.159155 0.116809 -0.255783
v -0.066948 0.113503 -0.312389
v -0.068530 0.116301 -0.326184
v 0.144897 0.115816 0.156466
v 0.074689 0.115229 0.046812
v 0.079509 0.118106 0.049252
v 0.152889 0.118719 0.163862
v -0.141466 0.113784 -0.240663
v -0.155899 0.114149 -0.147829
v -0.161501 0.116977 -0.154186
v -0.146417 0.116596 -0.251216
v 0.108419 0.115054 -0.000000
v 0.114762 0.117923 0.000324
v 0.132151 0.074367 -0.041958
v 0.056720 0.095130 -0.026785
v 0.129425 -0.079095 -0.171422
v -0.087075 0.114568 -0.041003
v -0.087588 0.114960 0.058755
v -0.090103 0.117824 0.061734
v -0.089567 0.117415 -0.042533
v 0.167435 0.106870 -0.236943
v -0.062317 -0.121627 -0.213208
v 0.160891 0.114058 -0.231085
v 0.169606 0.116882 -0.241205
v 0.047244 -0.014262 -0.342782
v -0.178095 0.005551 -0.109567
v 0.072575 0.114801 -0.048768
v 0.111789 0.114759 -0.065064
v 0.118285 0.117614 -0.067680
v 0.077299 0.117658 -0.050648
v -0.047362 0.084230 -0.008896
v -0.077320 0.107115 -0.020825
v -0.142812 0.038053 -0.304552
v -0.122320 0.115017 0.073262
v -0.126405 0.117884 0.076897
v -0.170090 0.115663 0.237827
v -0.176334 0.118559 0.248900
v 0.136717 0.197840 0.191739
v -0.103488 0.128050 0.075303
v -0.115067 0.140375 0.089763
v -0.107865 0.131393 0.079740
v -0.142990 0.158226 0.105260
v -0.142990 0.158226 -0.104612
v -0.106029 0.129991 -0.076582
v 0.102373 0.158226 -0.106482
v 0.179974 0.158226 0.000324
v 0.102501 0.148925 -0.085591
v 0.100804 0.158226 0.109290
v -0.008845 0.185042 0.342387
v 0.099588 0.168548 0.114317
v -0.064072 0.241537 0.147631
v -0.110691 0.158226 0.115754
v -0.114940 0.140895 0.090520
v -0.063690 0.242294 0.148065
v -0.106906 0.130660 -0.078395
v 0.081731 0.208468 -0.151216
v 0.145876 0.336758 -0.104612
v 0.025125 0.222593 0.167420
v 0.016330 0.223404 0.170115
v -0.061173 0.241736 0.148613
v -0.177087 0.336758 0.000324
v -0.109481 0.137522 -0.087003
v 0.013647 0.227745 -0.169467
v -0.053724 0.336758 -0.169467
v 0.069406 0.226947 -0.151510
v 0.050792 0.237449 -0.155449
v 0.145876 0.336758 0.105260
v 0.076781 0.198568 0.155460
v -0.053724 0.336758 0.170115
v -0.117250 0.158226 -0.112975
v -0.024518 0.224559 -0.156426
v -0.113550 0.173050 -0.117154
v 0.001443 0.447096 0.000324
v -0.063570 0.242177 0.147923
v 0.000589 0.185042 -0.333325
v -0.144973 0.197840 -0.182677
vt 0.858846 0.934903
vt 0.859680 0.953430
vt 0.835632 0.953430
vt 0.858069 0.947418
vt 0.847656 0.929382
vt 0.847656 0.953430
vt 0.835632 0.929382
vt 0.859680 0.929382
vt 0.858097 0.951731
vt 0.857989 0.945882
vt 0.858686 0.933949
vt 0.087462 0.864989
vt 0.089793 0.869644
vt 0.089380 0.870781
vt 0.836389 0.937435
vt 0.859680 0.942086
vt 0.858530 0.936375
vt 0.849748 0.929698
vt 0.853939 0.929382
vt 0.844786 0.932346
vt 0.847656 0.941768
vt 0.091452 0.863838
vt 0.091627 0.865039
vt 0.087548 0.868738
vt 0.093048 0.864829
vt 0.098742 0.868809
vt 0.091085 0.866627
vt 0.859680 0.940931
vt 0.858799 0.942025
vt 0.859680 0.937032
vt 0.851378 0.935995
vt 0.835632 0.942086
vt 0.835632 0.942324
vt 0.846297 0.938862
vt 0.097648 0.865586
vt 0.083167 0.853137
vt 0.096077 0.867575
vt 0.092932 0.860055
vt 0.085816 0.863518
vt 0.091566 0.867068
vt 0.069361 0.867435
vt 0.069364 0.867460
vt 0.071613 0.867778
vt 0.071600 0.867911
vt 0.071463 0.867536
vt 0.846239 0.940379
vt 0.859680 0.942324
vt 0.092986 0.869235
vt 0.089316 0.868470
vt 0.090567 0.864696
vt 0.091152 0.866563
vt 0.087515 0.869248
vt 0.088007 0.864923
vt 0.089494 0.874855
vt 0.088134 0.869506
vt 0.086969 0.865364
vt 0.090695 0.872498
vt 0.090472 0.869838
vt 0.090605 0.869765
vt 0.087557 0.853142
vt 0.086230 0.866335
vt 0.089044 0.867177
vt 0.070040 0.868136
vt 0.070118 0.868145
vt 0.070100 0.868400
vt 0.855727 0.942180
vt 0.838382 0.941897
vt 0.850426 0.937045
vt 0.842811 0.929628
vt 0.091444 0.866752
vt 0.094044 0.869492
vt 0.092315 0.868509
vt 0.071417 0.868089
vt 0.071719 0.868400
vt 0.071548 0.867717
vt 0.038231 0.029744
vt 0.039754 0.029191
vt 0.039687 0.029349
vt 0.037188 0.030893
vt 0.037505 0.030955
vt 0.037160 0.033796
vt 0.049012 0.034215
vt 0.048692 0.034148
vt 0.048330 0.031005
vt 0.047960 0.035525
vt 0.047890 0.035315
vt 0.038331 0.029977
vt 0.040899 0.029200
vt 0.042951 0.028629
vt 0.042904 0.028713
vt 0.046576 0.036177
vt 0.045112 0.036352
vt 0.045237 0.036256
vt 0.043793 0.028993
vt 0.043781 0.029094
vt 0.040788 0.029287
vt 0.091006 0.854287
vt 0.090373 0.854780
vt 0.089010 0.854015
vt 0.090786 0.857104
vt 0.090977 0.857246
vt 0.088930 0.858416
vt 0.040409 0.036495
vt 0.040352 0.036417
vt 0.042630 0.036710
vt 0.091688 0.865425
vt 0.093945 0.856846
vt 0.091700 0.856756
vt 0.093058 0.858183
vt 0.091276 0.854366
vt 0.091541 0.853621
vt 0.048578 0.030718
vt 0.048113 0.030793
vt 0.091629 0.849653
vt 0.092579 0.854623
vt 0.093536 0.857908
vt 0.093025 0.854913
vt 0.090166 0.858998
vt 0.089997 0.857749
vt 0.089195 0.862660
vt 0.094287 0.858638
vt 0.090224 0.856534
vt 0.042586 0.036784
vt 0.045758 0.029217
vt 0.045808 0.029342
vt 0.045004 0.028744
vt 0.091858 0.855403
vt 0.090774 0.858480
vt 0.089077 0.855174
vt 0.085146 0.857760
vt 0.095895 0.865497
vt 0.086819 0.856309
vt 0.089740 0.855802
vt 0.092927 0.854480
vt 0.092717 0.858315
vt 0.039702 0.036447
vt 0.039652 0.036345
vt 0.048051 0.030598
vt 0.087955 0.855105
vt 0.089367 0.856027
vt 0.090064 0.857284
vt 0.046654 0.036021
vt 0.037624 0.034295
vt 0.037525 0.034080
vt 0.044963 0.028629
vt 0.036925 0.034125
vt 0.087301 0.867715
vt 0.083875 0.871103
vt 0.082341 0.876698
vt 0.087726 0.862408
vt 0.088186 0.862264
vt 0.087186 0.866071
vt 0.084581 0.856745
vt 0.093348 0.863964
vt 0.092872 0.863994
vt 0.069934 0.868481
vt 0.069125 0.867853
vt 0.069426 0.867785
vt 0.093307 0.865182
vt 0.093559 0.859666
vt 0.093236 0.856547
vt 0.083909 0.853023
vt 0.090223 0.853016
vt 0.089929 0.855850
vt 0.089281 0.870573
vt 0.089708 0.866672
vt 0.095667 0.869594
vt 0.087908 0.867648
vt 0.087484 0.867884
vt 0.087759 0.867552
vt 0.083610 0.854376
vt 0.086832 0.854895
vt 0.086233 0.856543
vt 0.085286 0.853160
vt 0.086001 0.861787
vt 0.087103 0.867064
vt 0.088315 0.859122
vt 0.095777 0.866238
vt 0.097947 0.866564
vt 0.091867 0.853814
vt 0.091480 0.856866
vt 0.086556 0.854631
vt 0.099195 0.869262
vt 0.095011 0.868319
vt 0.096017 0.866781
vt 0.071936 0.868168
vt 0.095700 0.850032
vt 0.093160 0.855484
vt 0.093199 0.855619
vt 0.093230 0.857356
vt 0.092992 0.858952
vt 0.092495 0.860191
vt 0.092863 0.856203
vt 0.093123 0.855999
vt 0.072263 0.867438
vt 0.071659 0.867757
vt 0.071397 0.867388
vt 0.099052 0.871272
vt 0.091420 0.871279
vt 0.091824 0.867742
vt 0.040634 0.030106
vt 0.040066 0.036054
vt 0.040371 0.034354
vt 0.045688 0.030005
vt 0.043671 0.029818
vt 0.041745 0.029815
vt 0.038452 0.031197
vt 0.041537 0.029932
vt 0.040312 0.034048
vt 0.040050 0.035794
vt 0.043730 0.035362
vt 0.043463 0.036273
vt 0.043789 0.031845
vt 0.045673 0.030451
vt 0.040795 0.031181
vt 0.040651 0.032618
vt 0.040354 0.033763
vt 0.039923 0.035171
vt 0.042572 0.033382
vt 0.043675 0.036072
vt 0.046002 0.032077
vt 0.045880 0.032335
vt 0.042611 0.031424
vt 0.041019 0.030453
vt 0.039946 0.035134
vt 0.043799 0.033060
vt 0.041683 0.032301
vt 0.044067 0.035281
vt 0.045308 0.033625
vt 0.044324 0.035087
vt 0.042907 0.032413
vt 0.040834 0.031012
vt 0.040334 0.033832
vt 0.046014 0.031775
vt 0.047605 0.034094
vt 0.045499 0.032749
vt 0.045607 0.035162
vt 0.858117 0.929382
vt 0.859680 0.935915
vt 0.837243 0.947418
vt 0.858069 0.935394
vt 0.837243 0.935394
vt 0.858117 0.953430
vt 0.859680 0.947711
vt 0.859680 0.941212
vt 0.859680 0.935124
vt 0.089547 0.871186
vt 0.087862 0.869681
vt 0.835632 0.940930
vt 0.835632 0.937032
vt 0.847850 0.929382
vt 0.088906 0.865001
vt 0.091613 0.864748
vt 0.090280 0.866208
vt 0.090069 0.866050
vt 0.853147 0.929382
vt 0.849192 0.930716
vt 0.847387 0.941949
vt 0.843953 0.941822
vt 0.096184 0.868769
vt 0.090445 0.869697
vt 0.094168 0.871113
vt 0.096770 0.873158
vt 0.091403 0.868563
vt 0.090108 0.870044
vt 0.841351 0.929382
vt 0.091672 0.868157
vt 0.091522 0.867248
vt 0.086425 0.851889
vt 0.090634 0.852262
vt 0.090025 0.855013
vt 0.084030 0.854785
vt 0.089261 0.856266
vt 0.090982 0.852340
vt 0.092589 0.854144
vt 0.090012 0.858095
vt 0.092142 0.858238
vt 0.089188 0.855058
vt 0.091184 0.854524
vt 0.086429 0.855555
vt 0.088841 0.855259
vt 0.089770 0.856293
vt 0.089752 0.856234
vt 0.087361 0.867894
vt 0.087440 0.864064
vt 0.086269 0.857048
vt 0.070004 0.868858
vt 0.068853 0.867703
vt 0.092746 0.857337
vt 0.087712 0.856518
vt 0.096470 0.870265
vt 0.087737 0.866394
vt 0.087817 0.858657
vt 0.086041 0.854216
vt 0.072263 0.868229
vt 0.072263 0.868906
vt 0.095288 0.854107
vt 0.092284 0.860227
vt 0.072269 0.868085
vt 0.072093 0.867893
vt 0.094403 0.866988
vn -0.471700 0.331900 0.816900
vn -0.000000 -1.000000 0.000000
vn 0.471700 0.331900 0.816900
vn 0.471600 0.331900 0.817000
vn -0.943300 0.331900 -0.000000
vn -0.471700 0.331900 -0.817000
vn -0.471700 0.331900 -0.816900
vn 0.471700 0.331900 -0.816900
vn 0.943300 0.331900 -0.000000
vn -0.160900 -0.958100 -0.236900
vn -0.989800 0.142400 -0.000000
vn -0.989800 0.142500 0.000000
vn -0.494900 0.142400 -0.857200
vn -0.494900 0.142500 -0.857200
vn 0.494900 0.142400 -0.857200
vn 0.495000 0.142400 -0.857200
vn 0.989800 0.142400 -0.000000
vn 0.514600 -0.772200 -0.372700
vn 0.514500 -0.772200 -0.372700
vn -0.588100 -0.527600 -0.613000
vn -0.494900 0.142400 0.857200
vn -0.494900 0.142500 0.857200
vn 0.806600 -0.541800 0.236300
vn -0.286300 -0.842600 0.456100
vn -0.607100 -0.794700 0.000100
vn -0.606700 -0.794900 0.000100
vn -0.606800 -0.794800 0.000300
vn 0.491100 -0.794700 -0.356800
vn 0.491100 -0.794600 -0.356800
vn 0.494900 0.142400 0.857200
vn 0.504900 -0.226800 -0.832900
vn 0.311700 -0.585300 0.748500
vn -0.790900 -0.340700 0.508200
vn -0.176600 -0.075600 -0.981400
vn -0.176600 -0.075700 -0.981400
vn -0.977400 -0.146000 -0.152500
vn -0.607100 -0.794700 0.000000
vn -0.607100 -0.794600 -0.000000
vn 0.495100 0.142500 0.857100
vn 0.491100 -0.794600 0.356900
vn 0.491100 -0.794600 0.356800
vn -0.187600 -0.794700 0.577400
vn 0.145600 -0.977100 0.155500
vn 0.145600 -0.977000 0.155500
vn -0.110300 -0.976300 0.186000
vn -0.110300 -0.976300 0.186100
vn 0.109000 -0.978800 -0.173100
vn 0.109100 -0.978800 -0.173100
vn 0.109000 -0.978900 -0.173100
vn -0.035800 -0.980200 -0.194800
vn -0.035700 -0.980200 -0.194700
vn 0.038400 -0.982100 0.184300
vn 0.609100 -0.692700 -0.386300
vn 0.609000 -0.692800 -0.386200
vn -0.396600 -0.916200 -0.058100
vn 0.383800 -0.880000 0.279800
vn 0.383700 -0.880100 0.279800
vn 0.299000 -0.952900 0.051000
vn 0.298900 -0.952900 0.051000
vn 0.176600 -0.075600 0.981400
vn 0.588100 -0.527600 0.613000
vn -0.752100 -0.659100 -0.001300
vn -0.752100 -0.659000 -0.001300
vn 0.977400 -0.146000 0.152500
vn 0.160900 -0.958100 0.236900
vn 0.175900 -0.976900 -0.121200
vn 0.790900 -0.340700 -0.508200
vn -0.514600 -0.772200 0.372700
vn -0.514500 -0.772200 0.372700
vn 0.286300 -0.842600 -0.456100
vn -0.767700 -0.405400 0.496200
vn -0.767800 -0.405300 0.496200
vn 0.383600 -0.026900 0.923100
vn 0.383600 -0.026800 0.923100
vn -0.504900 -0.226800 0.832900
vn -0.504900 -0.226800 0.832800
vn -0.806600 -0.541800 -0.236300
vn -0.311700 -0.585300 -0.748500
vn -0.326500 0.528500 -0.783700
vn 0.443800 -0.885900 0.135000
vn 0.443700 -0.885900 0.135000
vn -0.173600 -0.968800 -0.176600
vn -0.173700 -0.968800 -0.176700
vn -0.672700 -0.714500 -0.192500
vn 0.406300 -0.865100 -0.294100
vn 0.406200 -0.865200 -0.294100
vn -0.193200 -0.970400 0.144900
vn -0.806600 0.541800 -0.236300
vn -0.311700 0.585300 -0.748500
vn -0.790900 0.340700 0.508200
vn -0.977400 0.146000 -0.152500
vn -0.176600 0.075600 -0.981400
vn -0.504900 0.226800 0.832900
vn -0.514600 0.772200 0.372700
vn -0.588100 0.527600 -0.613000
vn 0.977400 0.146000 0.152500
vn 0.790900 0.340700 -0.508200
vn 0.504900 0.226800 -0.832900
vn 0.588100 0.527600 0.613000
vn 0.806600 0.541800 0.236300
vn 0.311700 0.585300 0.748500
vn 0.514500 0.772200 -0.372800
vn 0.491100 -0.794700 0.356800
vn 0.176600 0.075600 0.981400
vn 0.791000 0.340700 -0.508200
vn -0.607200 -0.794600 -0.000100
vn -0.607100 -0.794600 0.000100
vn 0.794600 -0.187600 -0.577400
vn 0.160900 0.958100 0.236900
vn -0.187600 -0.794700 0.577300
vn -0.982200 -0.187600 0.000000
vn -0.187600 -0.794700 -0.577400
vn 0.303500 0.187600 -0.934200
vn 0.982200 0.187600 -0.000000
vn 0.794600 -0.187600 0.577400
vn 0.286300 0.842600 -0.456100
vn -0.187600 -0.794600 0.577400
vn -0.794600 0.187600 -0.577400
vn -0.794600 0.187600 0.577400
vn -0.303500 -0.187600 -0.934200
vn 0.187600 0.794700 -0.577400
vn 0.607100 0.794700 -0.000000
vn 0.303500 0.187600 0.934200
vn -0.311400 0.585300 -0.748600
vn -0.491100 0.794700 -0.356800
vn -0.491100 0.794700 0.356800
vn 0.187600 0.794700 0.577400
vn -0.303500 -0.187600 0.934200
vn -0.303600 -0.187600 0.934100
vn -0.303900 -0.187500 0.934100
vn 0.286300 0.842700 -0.455800
vn 0.514600 0.772200 -0.372700
vn -0.160900 0.958100 -0.236900
vn -0.791000 0.340700 0.508200
vn -0.286300 0.842600 0.456100
vn -0.471600 0.331800 0.817000
vn -0.471700 0.332000 0.816900
vn 0.471500 0.331900 0.817000
vn 0.471700 0.331900 0.817000
vn -0.471600 0.331900 -0.816900
vn -0.471700 0.331800 -0.816900
vn -0.161000 -0.958100 -0.236900
vn -0.989800 0.142400 -0.000100
vn 0.514200 -0.772200 -0.373200
vn -0.587500 -0.527600 -0.613600
vn -0.588000 -0.527600 -0.613100
vn -0.514200 -0.772200 0.373200
vn -0.505000 -0.226800 0.832800
vn 0.176700 -0.075600 0.981400
vn 0.177000 -0.075700 0.981300
vn 0.504800 0.226800 -0.832900
vn -0.806500 0.542100 -0.235700
vn -0.806600 0.542000 -0.235900
vn -0.806600 0.541800 -0.236400
vn -0.806200 0.542000 -0.237100
vn 0.160800 0.958100 0.236900
vn 0.794700 -0.187600 0.577400
vn 0.514600 0.772200 -0.372800
vn -0.791000 0.340700 0.508300
vn -0.791000 0.340600 0.508300
usemtl Material.104
s 1
f 3/1/1 5/2/1 6/3/1
f 6/4/2 8/5/2 1/6/2
f 10/7/3 11/8/3 13/9/4
f 5/8/5 14/2/5 7/3/5
f 14/8/6 16/10/7 7/7/7
f 18/11/8 20/2/8 9/3/8
f 20/8/9 11/2/9 10/3/9
f 22/12/10 3/13/10 2/14/10
f 25/15/11 5/8/11 27/16/12
f 14/8/13 28/17/14 29/18/13
f 20/7/15 19/19/15 30/20/16
f 33/21/17 11/7/17 20/8/17
f 13/22/18 35/23/19 36/24/18
f 22/25/20 37/26/20 38/27/20
f 24/28/13 23/16/13 39/29/13
f 28/17/14 14/8/13 26/30/14
f 5/7/21 40/31/21 27/32/22
f 32/33/15 20/7/15 31/34/15
f 21/35/23 36/36/23 43/37/23
f 22/38/24 21/39/24 44/40/24
f 39/41/25 23/42/26 45/42/27
f 46/43/28 32/44/28 42/45/29
f 47/46/30 11/8/30 34/47/30
f 49/48/31 51/49/31 36/50/31
f 21/51/32 43/52/32 44/53/32
f 22/54/33 44/55/33 52/56/33
f 37/57/34 54/58/35 55/59/34
f 37/60/36 22/61/36 52/62/36
f 27/63/37 41/64/37 55/65/38
f 56/66/22 41/67/22 40/31/21
f 49/68/39 35/69/30 11/8/30
f 50/70/34 49/71/34 47/72/34
f 48/73/40 34/43/41 57/44/40
f 55/74/42 41/73/42 56/75/42
f 58/76/43 59/77/44 60/78/44
f 63/79/45 64/80/45 65/81/46
f 67/82/47 68/83/48 69/84/49
f 67/82/50 70/85/51 71/86/51
f 63/79/52 58/76/52 61/87/52
f 72/88/53 73/89/54 74/90/54
f 76/91/55 77/92/55 78/93/55
f 80/94/56 81/95/56 74/90/57
f 59/77/58 72/88/59 75/96/59
f 83/97/60 46/98/60 31/99/60
f 19/100/61 18/101/61 84/102/61
f 86/103/62 87/104/62 88/105/63
f 82/106/64 84/107/64 89/108/64
f 84/109/65 18/110/65 17/111/65
f 66/112/66 69/84/66 92/113/66
f 84/114/67 93/115/67 89/116/67
f 94/117/68 16/118/68 29/119/69
f 84/120/70 90/121/70 93/122/70
f 77/92/71 85/123/72 88/105/72
f 96/124/73 97/125/73 98/126/74
f 100/127/75 94/128/75 26/129/76
f 90/130/77 94/131/77 101/132/77
f 90/133/78 101/134/78 93/135/78
f 102/136/79 103/137/79 87/104/79
f 91/138/80 92/113/80 97/125/81
f 25/139/60 24/140/60 99/141/60
f 70/85/82 76/91/83 79/142/83
f 104/143/84 105/144/84 103/137/84
f 80/94/85 95/145/86 98/126/86
f 62/146/87 65/81/87 105/144/87
f 104/147/88 102/148/88 37/149/88
f 86/150/89 53/151/89 37/152/89
f 94/153/90 100/154/90 85/155/90
f 53/156/37 100/157/38 99/158/37
f 94/159/91 77/160/91 76/161/91
f 93/162/92 101/163/92 70/164/92
f 44/165/93 63/166/93 62/167/93
f 104/168/94 52/169/94 62/170/94
f 101/171/95 76/172/95 70/173/95
f 36/174/96 72/175/96 59/176/96
f 73/177/97 72/178/97 36/179/97
f 93/180/98 67/181/98 66/182/98
f 43/183/99 59/184/99 58/185/99
f 33/73/28 32/44/28 83/186/28
f 82/187/100 89/188/100 91/189/100
f 82/190/101 96/191/101 95/192/101
f 91/193/102 89/194/102 66/193/102
f 80/195/103 50/196/103 33/197/103
f 44/198/104 43/199/104 58/200/104
f 75/96/96 106/201/96 60/78/96
f 87/104/89 103/137/89 107/202/89
f 107/202/38 110/203/37 88/105/37
f 81/95/28 98/126/29 115/204/28
f 81/95/103 114/205/103 116/206/103
f 64/80/104 61/87/104 117/207/104
f 118/208/105 106/201/105 75/96/105
f 106/201/99 117/207/99 61/87/99
f 65/81/93 64/80/93 117/207/93
f 120/209/88 103/137/88 105/144/88
f 109/210/106 110/203/37 107/202/38
f 111/211/37 123/212/37 112/212/107
f 125/213/108 114/205/108 113/214/108
f 117/207/109 127/215/109 128/216/109
f 122/217/94 105/144/94 65/81/94
f 110/203/42 109/210/110 108/218/110
f 111/211/111 110/203/111 129/219/111
f 123/212/112 111/211/112 130/220/112
f 125/213/113 133/221/113 134/222/113
f 114/205/114 125/213/114 135/223/114
f 135/223/115 136/224/115 118/208/115
f 106/201/116 118/208/116 136/224/116
f 120/209/117 110/203/42 121/225/110
f 111/211/118 129/219/118 132/226/118
f 110/203/119 137/227/119 129/219/119
f 130/220/112 111/211/112 138/228/112
f 132/226/120 139/229/120 140/230/120
f 125/213/121 132/226/121 141/231/121
f 135/223/122 125/213/122 141/231/122
f 126/232/123 135/223/123 137/227/123
f 119/233/124 122/217/124 142/233/124
f 132/226/125 129/219/125 141/231/125
f 129/219/126 137/227/126 141/231/126
f 137/227/127 135/223/127 141/231/127
f 137/227/128 119/233/129 142/233/130
f 142/233/131 122/217/131 128/216/131
f 98/126/101 97/125/101 115/204/101
f 92/113/100 124/234/100 113/214/100
f 69/84/132 143/235/132 133/221/132
f 69/84/98 68/83/98 143/235/98
f 139/229/133 131/236/133 143/235/133
f 68/83/92 71/86/92 143/235/92
f 78/93/90 130/220/90 138/228/134
f 78/93/91 144/237/91 79/142/91
f 144/237/95 143/235/95 71/86/95
f 139/229/135 144/237/135 140/230/135
f 6/3/1 1/7/1 2/238/136
f 3/1/1 4/239/137 5/2/1
f 6/3/1 2/238/136 3/1/1
f 10/240/2 1/6/2 8/5/2
f 6/4/2 7/241/2 8/5/2
f 8/5/2 9/242/2 10/240/2
f 13/9/4 2/243/138 1/3/139
f 1/3/139 10/7/3 13/9/4
f 11/8/3 12/244/3 13/9/4
f 6/7/5 5/8/5 7/3/5
f 8/3/7 7/7/7 16/10/7
f 14/8/6 15/245/140 16/10/7
f 16/10/7 17/243/141 8/3/7
f 9/3/8 8/7/8 18/11/8
f 18/11/8 19/246/8 20/2/8
f 8/7/8 17/238/8 18/11/8
f 9/7/9 20/8/9 10/3/9
f 2/14/10 13/247/142 21/248/10
f 21/248/10 22/12/10 2/14/10
f 27/16/12 23/32/12 24/249/12
f 25/15/11 26/250/143 5/8/11
f 27/16/12 24/249/12 25/15/11
f 14/7/11 5/8/11 26/250/143
f 15/251/13 14/8/13 29/18/13
f 31/34/15 20/7/15 30/20/16
f 20/8/17 32/47/17 33/21/17
f 33/21/17 34/33/17 11/7/17
f 36/24/18 21/252/18 13/22/18
f 13/22/18 12/253/144 35/23/19
f 38/27/20 4/254/145 3/255/146
f 3/255/146 22/25/20 38/27/20
f 41/67/22 27/32/22 40/31/21
f 5/7/21 4/256/21 38/257/21
f 38/257/21 40/31/21 5/7/21
f 42/258/15 32/33/15 31/34/15
f 48/259/30 47/46/30 34/47/30
f 36/50/31 35/260/31 49/48/31
f 49/48/31 50/261/31 51/49/31
f 40/262/34 38/263/34 37/57/34
f 55/59/34 56/264/34 40/262/34
f 53/265/34 54/58/35 37/57/34
f 40/262/34 37/57/34 55/59/34
f 54/65/38 27/63/37 55/65/38
f 35/69/30 12/266/30 11/8/30
f 11/8/30 47/46/30 49/68/39
f 47/72/34 48/267/34 57/268/34
f 57/268/34 50/70/34 47/72/34
f 61/87/43 58/76/43 60/78/44
f 62/146/46 63/79/45 65/81/46
f 66/112/49 67/82/47 69/84/49
f 68/83/50 67/82/50 71/86/51
f 64/80/52 63/79/52 61/87/52
f 75/96/53 72/88/53 74/90/54
f 79/142/55 76/91/55 78/93/55
f 73/89/57 80/94/56 74/90/57
f 60/78/58 59/77/58 75/96/59
f 31/99/60 30/269/60 82/270/60
f 82/270/60 83/97/60 31/99/60
f 46/98/60 42/271/60 31/99/60
f 84/102/61 82/272/61 30/273/61
f 30/273/61 19/100/61 84/102/61
f 85/123/63 86/103/62 88/105/63
f 17/111/65 16/274/65 90/275/65
f 90/275/65 84/109/65 17/111/65
f 91/138/66 66/112/66 92/113/66
f 15/276/147 29/119/69 16/118/68
f 94/117/68 90/277/68 16/118/68
f 78/93/71 77/92/71 88/105/72
f 95/145/74 96/124/73 98/126/74
f 26/129/76 25/278/148 100/127/75
f 99/279/75 100/127/75 25/278/148
f 94/128/75 29/280/75 28/281/75
f 28/281/75 26/129/76 94/128/75
f 86/103/79 102/136/79 87/104/79
f 96/124/81 91/138/80 97/125/81
f 45/282/149 99/141/60 24/140/60
f 24/140/60 39/283/150 45/282/149
f 71/86/82 70/85/82 79/142/83
f 102/136/84 104/143/84 103/137/84
f 81/95/85 80/94/85 98/126/86
f 104/143/87 62/146/87 105/144/87
f 52/284/88 104/147/88 37/149/88
f 102/285/89 86/150/89 37/152/89
f 77/286/90 94/153/90 85/155/90
f 99/158/37 45/42/27 27/63/37
f 23/42/26 27/63/37 45/42/27
f 53/156/37 86/287/37 100/157/38
f 27/63/37 54/65/38 99/158/37
f 86/287/37 85/288/38 100/157/38
f 99/158/37 54/65/38 53/156/37
f 101/289/91 94/159/91 76/161/91
f 67/290/92 93/162/92 70/164/92
f 52/291/93 44/165/93 62/167/93
f 43/292/96 36/174/96 59/176/96
f 51/293/97 73/177/97 36/179/97
f 89/294/151 93/180/98 66/182/98
f 83/186/28 95/295/29 80/296/28
f 80/296/28 33/73/28 83/186/28
f 32/44/28 46/43/28 83/186/28
f 96/297/100 82/187/100 91/189/100
f 83/298/101 82/190/101 95/192/101
f 34/43/41 33/197/103 50/196/103
f 80/195/103 73/299/41 51/300/103
f 50/196/103 57/44/40 34/43/41
f 80/195/103 51/300/103 50/196/103
f 63/301/104 44/198/104 58/200/104
f 109/210/89 107/202/89 103/137/89
f 103/137/89 108/218/89 109/210/89
f 112/212/107 88/105/37 111/211/37
f 87/104/38 107/202/38 88/105/37
f 110/203/37 111/211/37 88/105/37
f 115/204/28 113/214/28 114/205/28
f 114/205/28 81/95/28 115/204/28
f 74/90/103 81/95/103 116/206/103
f 75/96/105 74/90/97 116/206/97
f 116/206/97 118/208/105 75/96/105
f 60/78/99 106/201/99 61/87/99
f 122/217/152 119/233/153 105/144/88
f 121/225/154 108/218/155 103/137/88
f 105/144/88 119/233/153 120/209/88
f 120/209/88 121/225/154 103/137/88
f 124/234/108 125/213/108 113/214/108
f 117/207/109 106/201/109 126/232/109
f 128/216/109 122/217/156 117/207/109
f 117/207/109 126/232/109 127/215/109
f 117/207/94 122/217/94 65/81/94
f 121/225/110 110/203/42 108/218/110
f 134/222/113 131/236/113 132/226/113
f 125/213/113 124/234/113 133/221/113
f 134/222/113 132/226/113 125/213/113
f 118/208/115 116/206/157 114/205/115
f 114/205/115 135/223/115 118/208/115
f 126/232/116 106/201/116 136/224/116
f 140/230/120 138/228/120 111/211/120
f 132/226/120 131/236/120 139/229/120
f 140/230/120 111/211/120 132/226/120
f 137/227/123 127/215/123 126/232/123
f 126/232/123 136/224/123 135/223/123
f 128/216/128 127/215/128 137/227/128
f 137/227/128 110/203/128 119/233/129
f 142/233/130 128/216/128 137/227/128
f 110/203/128 120/209/128 119/233/129
f 115/204/100 97/125/100 113/214/100
f 92/113/100 133/221/100 124/234/100
f 113/214/100 97/125/100 92/113/100
f 134/222/132 133/221/132 143/235/132
f 92/113/158 69/84/132 133/221/132
f 143/235/133 144/237/133 139/229/133
f 131/236/133 134/222/133 143/235/133
f 78/93/90 88/105/134 112/212/159
f 140/230/134 144/237/90 138/228/134
f 78/93/90 112/212/159 123/212/160
f 138/228/134 144/237/90 78/93/90
f 78/93/90 123/212/160 130/220/90
f 79/142/95 144/237/95 71/86/95
