# Blender v2.76 (sub 0) OBJ File: ''
# www.blender.org
mtllib Bush3.mtl
o Icosphere_Icosphere.004
v 0.008509 1.095297 -0.458835
v -0.337433 1.346635 -0.194557
v 0.140644 1.501974 -0.194557
v 0.436119 1.095297 -0.194557
v -0.337433 0.843959 -0.194557
v -0.123626 1.501974 0.233055
v 0.140644 0.688620 -0.194557
v 0.354450 1.346635 0.233055
v -0.419101 1.095297 0.233055
v 0.354450 0.843959 0.233055
v -0.123626 0.688620 0.233055
v 0.035333 0.688620 -0.024155
v 0.015079 0.693697 -0.016666
v 0.000355 0.691299 0.019102
v 0.004193 0.688620 0.026233
v 0.008509 1.095297 0.497333
v 0.013978 0.697550 0.054871
v 0.047239 0.711333 0.069687
v 0.082057 0.719671 0.054871
v 0.098035 0.717680 0.019102
v 0.085814 0.706526 -0.016666
v 0.052553 0.692744 -0.031482
v -0.014443 0.390616 0.105349
v -0.071068 0.413265 0.080088
v -0.111677 0.249946 0.094362
v -0.036417 0.249946 0.125536
v 0.038844 0.249946 0.094362
v 0.042181 0.367968 0.080088
v 0.046601 0.543236 0.078032
v 0.005011 0.560985 0.060772
v -0.142850 0.249946 0.019102
v -0.111677 0.249946 -0.056158
v -0.036417 0.249946 -0.087332
v 0.038844 0.249946 -0.056158
v 0.070017 0.249946 0.019102
v -0.094523 0.422646 0.019102
v 0.088191 0.540654 0.060772
v -0.071068 0.413265 -0.041884
v -0.014443 0.390616 -0.067145
v 0.042181 0.367968 -0.041884
v 0.065636 0.358586 0.019102
v -0.012216 0.555790 0.019102
v 0.055289 0.683173 0.069687
v 0.020898 0.673342 0.054871
v 0.089680 0.693003 0.054871
v 0.105418 0.539584 0.019102
v 0.103925 0.697075 0.019102
v 0.005011 0.559818 -0.022568
v 0.046601 0.543236 -0.039828
v 0.088191 0.540654 -0.022568
v 0.006652 0.669270 0.019102
v 0.089680 0.693003 -0.016666
v 0.020898 0.673342 -0.016666
v 0.055289 0.683173 -0.031482
vt 0.495746 0.047648
vt 0.668716 0.173317
vt 0.429678 0.250987
vt 0.281941 0.047648
vt 0.668716 -0.078021
vt 0.429678 0.597278
vt 0.668716 0.597278
vt 0.561813 0.383473
vt 0.429678 -0.155690
vt 0.047648 0.597278
vt 0.250987 0.597278
vt 0.173317 0.383473
vt 0.173317 0.597278
vt -0.078021 0.597278
vt 0.047648 0.383473
vt 0.322775 0.383473
vt 0.250987 0.383473
vt 0.844310 0.597278
vt 1.047648 0.597278
vt 0.921979 0.383473
vt -0.078021 0.383473
vt 0.921979 0.597278
vt 0.844310 0.383473
vt 1.047648 0.383473
vt 0.492460 0.508333
vt 0.499822 0.490449
vt 0.322775 0.173317
vt 0.561813 0.250987
vt 0.709550 0.047648
vt 0.458972 0.472564
vt 0.450983 0.490449
vt 0.322775 0.921979
vt 0.322775 1.173317
vt 0.495746 1.047648
vt 0.561813 -0.155690
vt 0.561813 0.844310
vt 0.497903 0.486883
vt 0.482334 0.512078
vt 0.493011 0.472564
vt 0.473724 0.515741
vt 0.476380 0.465156
vt 0.457093 0.508333
vt 0.507222 0.695308
vt 0.535534 0.706632
vt 0.555839 0.624973
vt 0.518209 0.624973
vt 0.480578 0.624973
vt 0.478909 0.683984
vt 0.476700 0.771618
vt 0.497494 0.780493
vt 0.555839 0.528079
vt 0.464992 0.490449
vt 0.571425 0.490449
vt 0.706632 0.459956
vt 0.711323 0.490449
vt 0.624973 0.490449
vt 0.706632 0.520942
vt 0.624973 0.528079
vt 0.683984 0.520942
vt 0.679293 0.490449
vt 0.624973 0.452819
vt 0.780493 0.469614
vt 0.777895 0.490449
vt 0.472355 0.841586
vt 0.489551 0.836671
vt 0.455904 0.770327
vt 0.455160 0.846501
vt 0.770327 0.469614
vt 0.683984 0.459956
vt 0.846501 0.472564
vt 0.769792 0.490449
vt 0.779909 0.511284
vt 0.497494 0.779909
vt 0.770327 0.511284
vt 0.836671 0.472564
vt 0.834635 0.490449
vt 0.493011 0.848775
vt 0.458972 0.859836
vt 0.848538 0.490449
vt 0.858840 0.490449
vt 0.846501 0.508333
vt 0.844310 0.486883
vt 0.853263 0.508333
vt 0.836671 0.508333
vt 0.846848 0.508333
vt 0.473724 0.846372
vt 0.482334 0.844310
vt 0.480578 0.452819
vt 0.518209 0.437232
vt 0.555839 0.452819
vt 0.518209 0.543666
vt 0.480578 0.528079
vt 0.476380 0.855667
vt 0.859836 0.472564
vt 0.845649 0.490449
vt 0.848775 0.472564
vt 0.457093 0.853263
vt 0.492460 0.846848
vn -0.187600 0.577400 -0.794700
vn 0.491100 0.356800 -0.794700
vn -0.607100 -0.000000 -0.794700
vn -0.303500 0.934200 -0.187600
vn 0.491100 -0.356800 -0.794700
vn 0.794600 0.577400 -0.187600
vn -0.982200 -0.000000 -0.187600
vn -0.187600 -0.577400 -0.794700
vn 0.303500 0.934200 0.187600
vn -0.794600 0.577400 0.187600
vn 0.794600 -0.577400 -0.187600
vn 0.982200 0.000000 0.187600
vn -0.794600 -0.577400 0.187600
vn -0.303500 -0.934200 -0.187600
vn 0.187600 0.577400 0.794700
vn -0.491100 0.356800 0.794700
vn 0.303500 -0.934200 0.187600
vn 0.607100 0.000000 0.794700
vn -0.491100 -0.356800 0.794700
vn 0.187600 -0.577400 0.794700
vn -0.353600 0.172600 0.919300
vn -0.345400 0.166600 0.923600
vn -0.367300 0.182600 0.912000
vn 0.396300 0.088000 0.913900
vn 0.380700 0.100400 0.919200
vn 0.413000 0.074500 0.907700
vn -0.277900 0.266200 0.923000
vn -0.272700 0.261500 0.925900
vn -0.290800 0.277800 0.915600
vn 0.000000 -1.000000 -0.000000
vn -0.891300 0.250600 0.378000
vn -0.890500 0.249200 0.380800
vn -0.892700 0.253200 0.372700
vn 0.388200 0.001000 0.921600
vn 0.407600 0.000400 0.913200
vn 0.403500 0.000600 0.915000
vn -0.892700 0.253200 -0.372700
vn -0.890500 0.249200 -0.380800
vn -0.891300 0.250600 -0.378000
vn -0.367300 0.182600 -0.912000
vn -0.345400 0.166600 -0.923600
vn -0.353600 0.172600 -0.919300
vn 0.396300 0.088000 -0.913900
vn 0.427400 0.062700 -0.901900
vn 0.413000 0.074500 -0.907700
vn 0.927200 0.030000 -0.373400
vn 0.934100 0.016700 -0.356700
vn 0.930100 0.024400 -0.366400
vn 0.927200 0.030000 0.373400
vn 0.923200 0.037200 0.382400
vn 0.930100 0.024400 0.366400
vn -0.797000 0.483800 0.361600
vn -0.835800 0.468000 0.287200
vn -0.826000 0.472500 0.307200
vn -0.361100 0.093800 0.927800
vn -0.413500 0.079800 0.907000
vn -0.401300 0.083100 0.912200
vn 0.385300 0.031300 0.922300
vn 0.387800 0.031900 0.921200
vn 0.387300 0.031800 0.921400
vn 0.904000 -0.198700 0.378700
vn 0.904100 -0.198600 0.378300
vn 0.904100 -0.198600 0.378400
vn 0.927900 0.008300 0.372700
vn 0.924200 0.005800 0.381900
vn 0.924900 0.006200 0.380200
vn -0.821700 0.474400 -0.315800
vn -0.830600 0.470500 -0.297900
vn -0.795900 0.484200 -0.363500
vn -0.291700 0.278500 -0.915100
vn -0.277300 0.265600 -0.923300
vn -0.281400 0.269400 -0.921000
vn 0.388200 0.001000 -0.921600
vn 0.383400 0.001200 -0.923600
vn 0.403500 0.000600 -0.915000
vn 0.904000 -0.198700 -0.378700
vn 0.903900 -0.198700 -0.378800
vn 0.904100 -0.198600 -0.378400
vn -0.920800 0.152200 0.359200
vn -0.924400 0.149100 0.351200
vn -0.923300 0.150000 0.353500
vn -0.368000 -0.105200 0.923900
vn -0.367900 -0.105200 0.923900
vn 0.367900 0.105200 0.923900
vn 0.368000 0.105200 0.923900
vn 0.888300 0.253900 0.382700
vn 0.924900 0.006200 -0.380200
vn 0.924200 0.005800 -0.381900
vn 0.927900 0.008300 -0.372700
vn -0.888300 -0.253900 0.382700
vn 0.888300 0.253900 -0.382700
vn 0.888300 0.254000 -0.382700
vn -0.923200 0.148800 -0.354500
vn -0.924500 0.147600 -0.351400
vn -0.919700 0.151700 -0.362200
vn -0.401800 0.083000 -0.912000
vn -0.413500 0.079800 -0.907000
vn -0.362900 0.093400 -0.927100
vn 0.387300 0.031800 -0.921400
vn 0.387800 0.031900 -0.921200
vn 0.385300 0.031300 -0.922300
vn -0.888300 -0.253900 -0.382700
vn 0.367900 0.105200 -0.923900
vn 0.368000 0.105200 -0.923900
vn -0.368000 -0.105200 -0.923900
vn -0.367900 -0.105200 -0.923900
vn -0.375800 0.188900 0.907200
vn 0.427400 0.062700 0.901900
vn -0.294800 0.281400 0.913200
vn -0.893500 0.254500 0.370100
vn 0.383400 0.001200 0.923600
vn -0.893500 0.254500 -0.370100
vn -0.375800 0.188900 -0.907200
vn 0.380700 0.100400 -0.919200
vn 0.923200 0.037200 -0.382400
vn 0.934100 0.016700 0.356700
vn -0.787600 0.486900 0.377800
vn -0.345500 0.097900 0.933300
vn 0.384800 0.031100 0.922500
vn 0.903900 -0.198700 0.378800
vn 0.928700 0.008800 0.370800
vn -0.787600 0.486900 -0.377800
vn -0.294800 0.281400 -0.913200
vn 0.407600 0.000400 -0.913200
vn 0.904100 -0.198600 -0.378300
vn -0.919900 0.152900 0.361200
vn 0.928700 0.008800 -0.370800
vn -0.918400 0.152700 -0.364900
vn -0.348200 0.097200 -0.932400
vn 0.384800 0.031100 -0.922500
usemtl Leaves.003
s 1
f 1/1/1 2/2/1 3/3/1
f 1/1/2 3/3/2 4/4/2
f 2/2/3 1/1/3 5/5/3
f 3/6/4 2/7/4 6/8/4
f 1/1/5 4/4/5 7/9/5
f 4/10/6 3/11/6 8/12/6
f 2/13/7 5/14/7 9/15/7
f 1/1/8 7/9/8 5/5/8
f 3/6/9 6/8/9 8/16/9
f 2/13/10 9/15/10 6/17/10
f 7/18/11 4/19/11 10/20/11
f 4/10/12 8/12/12 10/21/12
f 5/22/13 11/23/13 9/24/13
f 5/7/14 13/25/14 14/26/14
f 8/27/15 6/28/15 16/1/15
f 6/28/16 9/29/16 16/1/16
f 10/16/17 19/30/17 20/31/17
f 10/32/18 8/33/18 16/34/18
f 9/29/19 11/35/19 16/1/19
f 11/36/20 10/32/20 16/34/20
f 5/7/14 7/6/14 13/25/14
f 15/37/14 11/8/14 14/26/14
f 7/6/14 12/38/14 13/25/14
f 14/26/14 11/8/14 5/7/14
f 11/8/17 15/37/17 17/39/17
f 22/40/17 12/38/17 7/6/17
f 10/16/17 11/8/17 18/41/17
f 21/42/17 22/40/17 7/6/17
f 11/8/17 17/39/17 18/41/17
f 21/42/17 7/6/17 20/31/17
f 10/16/17 18/41/17 19/30/17
f 20/31/17 7/6/17 10/16/17
usemtl Tree.002
f 23/43/21 24/44/22 25/45/23
f 26/46/24 27/47/25 28/48/26
f 29/49/27 30/50/28 24/44/29
f 32/51/30 35/52/30 31/53/30
f 24/54/31 36/55/32 31/56/33
f 29/49/34 23/43/35 28/48/36
f 31/56/37 36/55/38 38/57/39
f 32/45/40 38/44/41 39/43/42
f 33/46/43 39/43/44 40/48/45
f 34/58/46 40/59/47 41/60/48
f 27/61/49 35/56/50 41/60/51
f 24/54/52 30/62/53 42/63/54
f 29/49/55 43/64/56 44/65/57
f 37/66/58 45/67/59 43/64/60
f 37/68/61 28/69/62 41/60/63
f 45/70/64 37/68/65 46/71/66
f 42/63/67 48/72/68 38/57/69
f 38/44/70 48/73/71 49/49/72
f 49/49/73 50/66/74 40/48/75
f 50/74/76 46/71/77 41/60/78
f 30/62/79 44/75/80 51/76/81
f 17/77/82 44/65/83 43/64/82
f 43/64/84 45/67/85 19/78/84
f 45/70/86 47/79/86 20/80/86
f 46/71/87 50/74/88 52/81/89
f 44/75/90 15/82/90 51/76/90
f 47/79/91 52/81/92 21/83/91
f 51/76/93 53/84/94 48/72/95
f 53/65/96 54/64/97 49/49/98
f 54/64/99 52/67/100 50/66/101
f 13/85/102 53/84/102 51/76/102
f 52/67/103 54/64/104 22/86/104
f 53/65/105 12/87/106 54/64/106
f 26/46/107 23/43/21 25/45/23
f 23/43/108 26/46/24 28/48/26
f 23/43/109 29/49/27 24/44/29
f 27/88/30 26/89/30 25/90/30
f 25/90/30 31/53/30 27/88/30
f 32/51/30 33/91/30 34/92/30
f 34/92/30 35/52/30 32/51/30
f 27/88/30 31/53/30 35/52/30
f 25/61/110 24/54/31 31/56/33
f 37/66/111 29/49/34 28/48/36
f 32/58/112 31/56/37 38/57/39
f 33/46/113 32/45/40 39/43/42
f 34/47/114 33/46/43 40/48/45
f 35/56/115 34/58/46 41/60/48
f 28/69/116 27/61/49 41/60/51
f 36/55/117 24/54/52 42/63/54
f 30/50/118 29/49/55 44/65/57
f 29/49/119 37/66/58 43/64/60
f 46/71/120 37/68/61 41/60/63
f 47/79/121 45/70/64 46/71/66
f 36/55/122 42/63/67 38/57/69
f 39/43/123 38/44/70 49/49/72
f 39/43/124 49/49/73 40/48/75
f 40/59/125 50/74/76 41/60/78
f 42/63/126 30/62/79 51/76/81
f 18/93/82 17/77/82 43/64/82
f 18/93/84 43/64/84 19/78/84
f 19/94/86 45/70/86 20/80/86
f 47/79/127 46/71/87 52/81/89
f 14/95/90 51/76/90 15/82/90
f 44/75/90 17/96/90 15/82/90
f 20/80/91 47/79/91 21/83/91
f 42/63/128 51/76/93 48/72/95
f 48/73/129 53/65/96 49/49/98
f 49/49/130 54/64/99 50/66/101
f 14/95/102 13/85/102 51/76/102
f 21/97/103 52/67/103 22/86/104
f 22/86/106 54/64/106 12/87/106
f 53/65/105 13/98/105 12/87/106
