# Blender v2.76 (sub 0) OBJ File: ''
# www.blender.org
mtllib Grass3.mtl
o Cube.001_Cube.007
v -0.181939 0.041836 0.098398
v -0.212913 0.041836 0.135311
v -0.215567 -0.034165 0.157873
v -0.160181 -0.034165 0.091866
v -0.232114 0.041836 0.119199
v -0.247452 -0.034165 0.131119
v -0.201141 0.041836 0.082286
v -0.192065 -0.034165 0.065112
v -0.225962 0.145950 0.172539
v -0.201133 0.149008 0.142949
v -0.177628 0.256180 0.079134
v -0.196312 0.250063 0.101402
v 0.169085 0.192772 0.267337
v 0.157515 0.192772 0.267337
v 0.141500 0.323622 0.250204
v -0.241481 0.145950 0.159517
v -0.208149 0.250063 0.091469
v -0.216652 0.149008 0.129927
v -0.189465 0.256180 0.069202
v 0.157515 0.188192 0.289101
v 0.169085 0.188192 0.289101
v 0.161009 0.032288 0.312470
v 0.161009 0.032288 0.348549
v 0.170345 -0.024616 0.362767
v 0.170345 -0.024616 0.298252
v 0.142241 0.032288 0.348549
v 0.139181 -0.024616 0.362767
v 0.142241 0.032288 0.312470
v 0.139181 -0.024616 0.298252
v -0.121968 0.093283 -0.055286
v -0.160325 0.093283 -0.116853
v -0.191373 -0.021126 -0.131191
v -0.122783 -0.021126 -0.021097
v -0.128298 0.093283 -0.136806
v -0.138192 -0.021126 -0.164323
v -0.089941 0.093283 -0.075239
v -0.069602 -0.021126 -0.054229
v -0.114954 0.256649 -0.164638
v -0.083952 0.256649 -0.114877
v -0.045937 0.420014 -0.058506
v -0.069583 0.420014 -0.096460
v 0.070619 0.478371 -0.012705
v 0.095984 0.467129 -0.060121
v 0.095846 0.673752 -0.077360
v -0.089069 0.256649 -0.180764
v -0.049840 0.420014 -0.108760
v -0.058067 0.256649 -0.131003
v -0.026194 0.420014 -0.070806
v 0.081430 0.467129 -0.067906
v 0.056066 0.478371 -0.020490
v 0.189761 0.093283 0.084188
v 0.189761 0.093283 0.156726
v 0.208532 -0.021126 0.185313
v 0.208532 -0.021126 0.055601
v 0.152027 0.093283 0.156726
v 0.145875 -0.021126 0.185313
v 0.152027 0.093283 0.084187
v 0.145875 -0.021126 0.055601
v 0.197880 0.256649 0.207672
v 0.197880 0.256649 0.149045
v 0.205999 0.420014 0.067649
v 0.205999 0.420014 0.112366
v -0.097981 0.670364 -0.090962
v 0.167383 0.256649 0.207672
v 0.182738 0.420014 0.112366
v 0.167383 0.256649 0.149045
v 0.182738 0.420014 0.067649
v -0.095373 0.133038 0.259122
v -0.054290 0.133038 0.165780
v -0.062254 -0.027812 0.118364
v -0.135717 -0.027812 0.285275
v -0.005735 0.133038 0.187151
v 0.018373 -0.027812 0.153851
v -0.046818 0.133038 0.280492
v -0.055090 -0.027812 0.320762
v -0.100937 0.310624 0.298935
v -0.072315 0.310624 0.233907
v -0.063189 0.310624 0.315082
v -0.034568 0.310624 0.250053
v 0.150538 0.670364 0.101785
v -0.050084 0.450806 0.131177
v -0.015874 0.450806 0.145766
v -0.043226 0.444038 0.207910
v -0.077435 0.444038 0.193322
v 0.101039 0.107007 -0.070691
v 0.061088 0.107007 0.003995
v 0.064669 -0.026583 0.043765
v 0.136110 -0.026583 -0.089785
v 0.022237 0.107007 -0.016788
v 0.000158 -0.026583 0.009256
v 0.062189 0.107007 -0.091473
v 0.071598 -0.026583 -0.124294
v 0.098160 0.337608 -0.108262
v 0.070327 0.337608 -0.056231
v 0.077944 0.337608 -0.119076
v 0.050111 0.337608 -0.067045
v -0.060875 0.682659 0.213565
v -0.191141 0.430944 0.078289
vt 0.520918 0.450801
vt 0.520918 0.432344
vt 0.482917 0.421063
vt 0.606457 0.520918
vt 0.616057 0.520918
vt 0.623726 0.482917
vt 0.520918 0.440401
vt 0.520918 0.458857
vt 0.482917 0.467444
vt 0.590970 0.520918
vt 0.580091 0.482917
vt 0.596033 0.482917
vt 0.607783 0.421063
vt 0.623726 0.434440
vt 0.596033 0.467444
vt 0.574504 0.428526
vt 0.628090 0.460433
vt 0.625031 0.449299
vt 0.415457 0.596386
vt 0.421243 0.596386
vt 0.429250 0.661811
vt 0.620741 0.572975
vt 0.612981 0.572975
vt 0.598156 0.625031
vt 0.608326 0.574504
vt 0.594733 0.628090
vt 0.588814 0.628090
vt 0.574504 0.435037
vt 0.572975 0.420242
vt 0.625031 0.454266
vt 0.421243 0.594096
vt 0.415457 0.594096
vt 0.596386 0.366332
vt 0.594096 0.355449
vt 0.661811 0.374898
vt 0.516144 0.343765
vt 0.516144 0.325725
vt 0.487692 0.318617
vt 0.419495 0.516144
vt 0.428879 0.516144
vt 0.430409 0.487692
vt 0.487692 0.350874
vt 0.414827 0.487692
vt 0.414827 0.318617
vt 0.430409 0.318617
vt 0.430409 0.350874
vt 0.546641 0.558426
vt 0.489437 0.565596
vt 0.489437 0.510548
vt 0.580163 0.546641
vt 0.564149 0.546641
vt 0.569096 0.489437
vt 0.546641 0.537619
vt 0.489437 0.527115
vt 0.489437 0.582161
vt 0.560984 0.546641
vt 0.561391 0.489437
vt 0.534801 0.489437
vt 0.561391 0.510548
vt 0.595686 0.565596
vt 0.569096 0.582161
vt 0.628325 0.557438
vt 0.710007 0.529253
vt 0.710007 0.548230
vt 0.739186 0.506352
vt 0.733564 0.530061
vt 0.836876 0.538680
vt 0.557477 0.628325
vt 0.534791 0.710007
vt 0.524920 0.710007
vt 0.541976 0.628325
vt 0.529033 0.628325
vt 0.513097 0.710007
vt 0.628325 0.565502
vt 0.628325 0.590382
vt 0.710007 0.554380
vt 0.733564 0.533953
vt 0.739186 0.510245
vt 0.471967 0.739186
vt 0.464691 0.739186
vt 0.452077 0.836876
vt 0.452008 0.733564
vt 0.459285 0.733564
vt 0.546641 0.421637
vt 0.489437 0.407344
vt 0.489437 0.472199
vt 0.405120 0.546641
vt 0.423986 0.546641
vt 0.427063 0.489437
vt 0.546641 0.457906
vt 0.395734 0.489437
vt 0.395734 0.407344
vt 0.427063 0.407344
vt 0.427063 0.472199
vt 0.628325 0.425478
vt 0.710007 0.466175
vt 0.710007 0.443817
vt 0.522969 0.710007
vt 0.548990 0.835182
vt 0.401060 0.628325
vt 0.397000 0.710007
vt 0.408631 0.710007
vt 0.416308 0.628325
vt 0.628325 0.396164
vt 0.710007 0.535403
vt 0.835182 0.545481
vt 0.566519 0.417110
vt 0.486094 0.440818
vt 0.486094 0.357363
vt 0.527145 0.566519
vt 0.502868 0.566519
vt 0.490813 0.486094
vt 0.566519 0.359754
vt 0.486094 0.339619
vt 0.486094 0.423074
vt 0.547687 0.566519
vt 0.567859 0.486094
vt 0.527545 0.486094
vt 0.567859 0.357363
vt 0.531127 0.440818
vt 0.490813 0.423074
vt 0.566519 0.370439
vt 0.655312 0.350533
vt 0.655312 0.383047
vt 0.523409 0.566519
vt 0.531595 0.655312
vt 0.550469 0.655312
vt 0.536157 0.655312
vt 0.566519 0.406424
vt 0.655312 0.374974
vt 0.424731 0.835182
vt 0.835182 0.449107
vt 0.525042 0.725403
vt 0.507937 0.725403
vt 0.521613 0.722019
vt 0.722019 0.403339
vt 0.725403 0.427117
vt 0.722019 0.396045
vt 0.553504 0.498002
vt 0.486708 0.478117
vt 0.486708 0.544892
vt 0.469456 0.553504
vt 0.488881 0.553504
vt 0.499921 0.486708
vt 0.553504 0.508394
vt 0.553504 0.545736
vt 0.486708 0.562147
vt 0.449481 0.553504
vt 0.431945 0.486708
vt 0.464201 0.486708
vt 0.467665 0.478117
vt 0.499921 0.495372
vt 0.464201 0.562147
vt 0.553504 0.535345
vt 0.668804 0.554131
vt 0.668804 0.528116
vt 0.668804 0.533522
vt 0.468906 0.553504
vt 0.461028 0.668804
vt 0.450920 0.668804
vt 0.464837 0.668804
vt 0.841329 0.393218
vt 0.725403 0.434411
vt 0.538718 0.722019
vt 0.530437 0.841329
vt 0.715472 0.460855
vt 0.628090 0.465399
vt 0.604074 0.625031
vt 0.595571 0.715472
vt 0.600570 0.520918
vt 0.546641 0.568403
vt 0.544971 0.546641
vt 0.546641 0.527643
vt 0.482917 0.454067
vt 0.607783 0.482917
vt 0.482917 0.434440
vt 0.580091 0.454067
vt 0.572975 0.413731
vt 0.600567 0.574504
vt 0.414827 0.350874
vt 0.595686 0.489437
vt 0.534801 0.527115
vt 0.628325 0.582319
vt 0.544535 0.628325
vt 0.395734 0.472199
vt 0.531127 0.486094
vt 0.527545 0.339619
vt 0.517284 0.655312
vt 0.655312 0.342459
vt 0.467665 0.486708
vt 0.486708 0.495372
vt 0.431945 0.544892
vt 0.668804 0.559538
vt 0.474945 0.668804
vn 0.755900 0.161900 0.634300
vn -0.623600 0.242400 0.743200
vn -0.764900 0.053700 -0.641900
vn 0.623600 0.242400 -0.743200
vn -0.000000 -1.000000 0.000000
vn 0.732000 0.228900 0.641700
vn 0.710800 0.238200 0.661800
vn 0.713600 0.237000 0.659300
vn 0.000000 -0.129800 -0.991500
vn -0.525000 0.577000 0.625700
vn -0.525000 0.577000 0.625600
vn 0.551900 -0.512700 -0.657700
vn -0.742200 -0.182900 -0.644700
vn -0.743900 -0.182100 -0.643000
vn -0.727800 -0.189600 -0.659100
vn 0.000000 0.276100 0.961100
vn -0.991800 -0.124800 -0.026300
vn 0.976300 0.211700 0.044500
vn 0.986800 0.161900 -0.000000
vn 0.000000 0.242400 0.970200
vn -0.998600 0.053700 -0.000000
vn 0.000000 0.242400 -0.970200
vn 0.998700 -0.051800 -0.000800
vn 0.998500 -0.053400 -0.011200
vn 0.998500 -0.053200 -0.010100
vn 0.000000 0.356300 0.934400
vn 0.000000 -0.270700 -0.962700
vn -0.995200 0.097700 0.001400
vn -0.995200 0.097500 -0.000000
vn -0.994800 0.100300 0.019100
vn -0.837600 0.161900 0.521800
vn -0.513000 0.242400 -0.823400
vn 0.847500 0.053700 -0.528000
vn 0.513000 0.242400 0.823400
vn -0.848700 0.015000 0.528700
vn 0.884900 0.039300 0.464100
vn -0.472700 0.448000 -0.758800
vn -0.472800 0.448000 -0.758800
vn 0.488200 -0.384000 0.783700
vn 0.848400 0.029200 -0.528600
vn -0.877200 0.039300 -0.478500
vn -0.444800 0.332600 0.831600
vn 0.470400 -0.073100 -0.879400
vn 0.998800 -0.049600 0.000000
vn 0.516400 0.214800 0.828900
vn 0.000000 0.503900 0.863800
vn 0.000000 -0.446000 -0.895100
vn -0.995600 0.093600 -0.000000
vn -0.528300 -0.041300 -0.848000
vn 0.832100 0.196900 -0.518400
vn -0.843900 -0.107300 0.525700
vn -0.903200 0.161900 -0.397500
vn 0.390800 0.242400 -0.888000
vn 0.913900 0.053700 0.402300
vn -0.390800 0.242400 0.888000
vn -0.913500 0.061500 -0.402100
vn -0.392300 -0.212500 0.895000
vn -0.384500 -0.210500 0.898800
vn -0.386100 -0.210900 0.898000
vn 0.373900 0.364700 -0.852800
vn 0.375100 0.365000 -0.852100
vn 0.367900 0.363300 -0.856000
vn 0.915300 0.005900 0.402800
vn 0.000000 0.135100 -0.990800
vn 0.000000 0.042200 0.999100
vn -0.991800 -0.127600 0.000000
vn 0.976300 0.216300 0.000000
vn 0.316600 -0.593000 -0.740400
vn 0.315900 -0.592900 -0.740700
vn 0.316000 -0.592900 -0.740700
vn -0.307400 0.623500 0.718900
vn -0.307500 0.623500 0.718800
vn -0.306800 0.623400 0.719200
vn -0.902900 -0.156400 -0.400400
vn -0.904100 -0.155700 -0.397900
vn -0.898300 -0.159100 -0.409700
vn 0.898300 0.184300 0.398900
vn 0.891200 0.188200 0.412700
vn 0.892700 0.187400 0.409800
vn 0.870100 0.161900 0.465500
vn -0.457700 0.242100 0.855500
vn -0.457600 0.242400 0.855500
vn -0.880500 0.053700 -0.471000
vn 0.457600 0.242400 -0.855500
vn 0.878400 0.087500 0.469900
vn -0.859000 0.204600 -0.469300
vn -0.843300 0.200600 -0.498600
vn -0.847500 0.201700 -0.491000
vn 0.467300 -0.136500 -0.873500
vn -0.457700 0.241800 0.855600
vn -0.881800 0.003800 -0.471700
vn 0.867500 -0.157700 0.471700
vn 0.870600 -0.158500 0.465700
vn 0.858700 -0.155400 0.488300
vn 0.447200 0.318200 -0.835900
vn 0.447100 0.318200 -0.835900
vn -0.455200 -0.262200 0.850900
vn 0.911400 0.057800 0.407400
vn -0.914800 0.096800 -0.392100
vn -0.391800 -0.050700 0.918700
vn 0.370800 0.326200 -0.869500
vn 0.756200 0.061600 0.651400
vn -0.769300 0.025800 -0.638400
vn -0.638500 0.115500 0.760900
vn 0.642100 0.045900 -0.765200
vn 0.000000 0.369000 -0.929400
vn 0.000000 -0.297700 0.954700
vn -0.756200 0.172300 -0.631200
vn -0.763300 0.172400 -0.622600
vn -0.761400 0.172400 -0.625000
vn 0.589700 0.397800 -0.702800
vn -0.605900 -0.334100 0.722000
vn -0.605800 -0.334100 0.722000
vn 0.760900 -0.129000 0.636000
vn 0.759600 -0.128900 0.637400
vn 0.764700 -0.129000 0.631300
vn 0.802100 -0.327100 -0.499700
vn 0.519800 0.183400 0.834400
vn -0.526100 -0.100900 -0.844400
vn -0.790600 0.363700 0.492600
vn 0.734200 0.227900 0.639600
vn -0.725600 -0.190600 -0.661200
vn 0.998700 -0.051700 0.000000
vn -0.994700 0.100600 0.021200
vn -0.393600 -0.212800 0.894300
vn 0.366500 0.363000 -0.856700
vn 0.316700 -0.593000 -0.740300
vn -0.306700 0.623400 0.719200
vn -0.897000 -0.159800 -0.412200
vn 0.899700 0.183500 0.396000
vn -0.862900 0.205600 -0.461600
vn 0.855400 -0.154600 0.494300
vn -0.754600 0.172200 -0.633200
vn 0.766200 -0.129100 0.629500
usemtl Material.068
s 1
f 1/1/1 2/2/1 3/3/1
f 2/4/2 5/5/2 6/6/2
f 5/7/3 7/8/3 8/9/3
f 1/10/4 4/11/4 8/12/4
f 3/13/5 6/14/5 8/15/5
f 10/16/6 11/17/7 12/18/8
f 13/19/9 14/20/9 15/21/9
f 16/22/10 9/23/10 12/24/11
f 18/25/12 19/26/12 11/27/12
f 18/28/13 16/29/14 17/30/15
f 20/31/16 21/32/16 15/21/16
f 14/33/17 20/34/17 15/35/17
f 21/34/18 13/33/18 15/35/18
f 22/36/19 23/37/19 24/38/19
f 23/39/20 26/40/20 27/41/20
f 26/37/21 28/36/21 29/42/21
f 22/39/22 25/43/22 29/41/22
f 24/44/5 27/45/5 29/46/5
f 22/36/23 13/33/24 21/34/25
f 23/39/26 21/32/26 20/31/26
f 22/39/27 28/40/27 14/20/27
f 28/36/28 26/37/29 20/34/30
f 31/47/31 32/48/31 33/49/31
f 31/50/32 34/51/32 35/52/32
f 36/53/33 37/54/33 35/55/33
f 30/56/34 33/57/34 37/58/34
f 33/59/5 32/60/5 35/61/5
f 39/62/35 40/63/35 41/64/35
f 42/65/36 43/66/36 44/67/36
f 38/68/37 41/69/38 46/70/38
f 39/71/39 47/72/39 48/73/39
f 47/74/40 45/75/40 46/76/40
f 49/77/41 50/78/41 44/67/41
f 50/79/42 42/80/42 44/81/42
f 43/82/43 49/83/43 44/81/43
f 52/84/19 53/85/19 54/86/19
f 52/87/20 55/88/20 56/89/20
f 55/84/21 57/90/21 58/86/21
f 51/87/22 54/91/22 58/89/22
f 53/92/5 56/93/5 58/94/5
f 60/95/44 61/96/44 62/97/44
f 40/98/45 48/73/45 63/99/45
f 59/100/46 62/101/46 65/102/46
f 60/100/47 66/103/47 67/102/47
f 66/95/48 64/104/48 65/97/48
f 46/70/49 41/69/49 63/99/49
f 48/105/50 46/76/50 63/106/50
f 41/64/51 40/63/51 63/106/51
f 69/107/52 70/108/52 71/109/52
f 69/110/53 72/111/53 73/112/53
f 74/113/54 75/114/54 73/115/54
f 68/116/55 71/117/55 75/118/55
f 71/119/5 70/120/5 73/121/5
f 68/122/56 76/123/56 77/124/56
f 74/125/57 78/126/58 76/127/59
f 72/111/60 69/110/61 77/128/62
f 74/113/63 72/129/63 79/130/63
f 61/101/64 67/102/64 80/131/64
f 65/102/65 62/101/65 80/131/65
f 67/96/66 65/97/66 80/132/66
f 62/97/67 61/96/67 80/132/67
f 77/128/68 81/133/69 82/134/70
f 76/127/71 78/126/72 83/135/73
f 77/124/74 76/123/75 84/136/76
f 79/130/77 82/137/78 83/138/79
f 86/139/80 87/140/80 88/141/80
f 86/142/81 89/143/81 90/144/82
f 89/145/83 91/146/83 92/147/83
f 85/148/84 88/149/84 92/150/84
f 87/151/5 90/152/5 92/153/5
f 85/154/85 93/155/85 94/156/85
f 96/157/86 50/78/87 49/77/88
f 91/158/89 95/159/89 93/160/89
f 89/143/81 86/142/81 94/161/90
f 91/146/91 89/145/91 96/157/91
f 94/156/92 93/155/93 43/66/94
f 93/160/95 95/159/95 49/83/96
f 94/161/97 42/80/97 50/79/97
f 83/138/98 82/137/98 97/162/98
f 81/163/99 84/136/99 97/162/99
f 84/164/100 83/135/100 97/165/100
f 82/134/101 81/133/101 97/165/101
f 12/18/102 11/17/102 98/166/102
f 19/167/103 17/30/103 98/166/103
f 17/168/104 12/24/104 98/169/104
f 11/27/105 19/26/105 98/169/105
f 55/84/48 64/104/48 66/95/48
f 51/87/106 57/88/106 66/103/106
f 52/87/107 59/100/107 64/103/107
f 52/84/44 51/90/44 60/95/44
f 5/7/108 16/29/109 18/28/110
f 1/10/111 7/170/111 18/25/111
f 2/4/112 9/23/113 16/22/112
f 2/2/114 1/1/115 10/16/116
f 34/171/117 45/75/117 47/74/117
f 36/172/118 47/72/118 39/71/118
f 34/51/119 31/50/119 38/68/119
f 31/47/120 30/173/120 39/62/120
f 4/174/1 1/1/1 3/3/1
f 3/175/2 2/4/2 6/6/2
f 6/176/3 5/7/3 8/9/3
f 7/170/4 1/10/4 8/12/4
f 4/177/5 3/13/5 8/15/5
f 9/178/121 10/16/6 12/18/8
f 17/168/11 16/22/10 12/24/11
f 10/179/12 18/25/12 11/27/12
f 19/167/122 18/28/13 17/30/15
f 25/42/19 22/36/19 24/38/19
f 24/43/20 23/39/20 27/41/20
f 27/38/21 26/37/21 29/42/21
f 28/40/22 22/39/22 29/41/22
f 25/180/5 24/44/5 29/46/5
f 23/37/123 22/36/23 21/34/25
f 26/40/26 23/39/26 20/31/26
f 13/19/27 22/39/27 14/20/27
f 14/33/124 28/36/28 20/34/30
f 30/173/31 31/47/31 33/49/31
f 32/181/32 31/50/32 35/52/32
f 34/171/33 36/53/33 35/55/33
f 36/172/34 30/56/34 37/58/34
f 37/182/5 33/59/5 35/61/5
f 38/183/35 39/62/35 41/64/35
f 45/184/37 38/68/37 46/70/38
f 40/98/39 39/71/39 48/73/39
f 48/105/40 47/74/40 46/76/40
f 51/90/19 52/84/19 54/86/19
f 53/91/20 52/87/20 56/89/20
f 56/85/21 55/84/21 58/86/21
f 57/88/22 51/87/22 58/89/22
f 54/185/5 53/92/5 58/94/5
f 59/104/44 60/95/44 62/97/44
f 64/103/46 59/100/46 65/102/46
f 61/101/47 60/100/47 67/102/47
f 67/96/48 66/95/48 65/97/48
f 68/122/52 69/107/52 71/109/52
f 70/186/53 69/110/53 73/112/53
f 72/129/54 74/113/54 73/115/54
f 74/125/55 68/116/55 75/118/55
f 75/187/5 71/119/5 73/121/5
f 69/107/56 68/122/56 77/124/56
f 68/116/125 74/125/57 76/127/59
f 79/188/126 72/111/60 77/128/62
f 78/189/63 74/113/63 79/130/63
f 79/188/127 77/128/68 82/134/70
f 84/164/128 76/127/71 83/135/73
f 81/163/129 77/124/74 84/136/76
f 78/189/130 79/130/77 83/138/79
f 85/154/80 86/139/80 88/141/80
f 87/190/82 86/142/81 90/144/82
f 90/191/83 89/145/83 92/147/83
f 91/158/84 85/148/84 92/150/84
f 88/192/5 87/151/5 92/153/5
f 86/139/85 85/154/85 94/156/85
f 95/193/131 96/157/86 49/77/88
f 85/148/89 91/158/89 93/160/89
f 96/194/90 89/143/81 94/161/90
f 95/193/91 91/146/91 96/157/91
f 42/65/132 94/156/92 43/66/94
f 43/82/96 93/160/95 49/83/96
f 96/194/97 94/161/97 50/79/97
f 57/90/48 55/84/48 66/95/48
f 60/100/106 51/87/106 66/103/106
f 55/88/107 52/87/107 64/103/107
f 59/104/44 52/84/44 60/95/44
f 7/8/133 5/7/108 18/28/110
f 10/179/111 1/10/111 18/25/111
f 5/5/112 2/4/112 16/22/112
f 9/178/134 2/2/114 10/16/116
f 36/53/117 34/171/117 47/74/117
f 30/56/118 36/172/118 39/71/118
f 45/184/119 34/51/119 38/68/119
f 38/183/120 31/47/120 39/62/120
