# Blender v2.76 (sub 0) OBJ File: ''
# www.blender.org
mtllib Rock3.mtl
o Icosphere.002
v 0.823111 0.621161 0.351610
v 0.223367 0.126112 -1.453793
v 0.499213 0.752933 -1.111568
v -0.168062 -0.037448 -1.198741
v -0.209959 0.579553 -1.494926
v 0.101468 1.934347 -0.176634
v 0.101750 1.290400 0.972865
v 0.641415 1.626908 0.097372
v -0.690754 1.612947 0.048798
v -0.451408 1.459504 -0.710237
v -0.555411 0.868961 0.966913
v 0.562602 0.748458 0.921830
v -0.922970 0.690410 0.164801
v -0.064105 0.535382 1.163016
v -0.211487 -0.041833 0.672988
v 0.321231 0.104525 0.785704
vt 0.810580 0.324195
vt 0.563056 1.226897
vt 0.876467 1.055784
vt 0.584031 0.481276
vt 0.604980 0.789777
vt 0.388317 0.563056
vt 0.250394 0.876467
vt 0.449266 1.467174
vt 0.449125 0.013568
vt 0.179293 0.451314
vt 0.449266 0.588317
vt 0.845377 0.475601
vt 0.250394 1.055784
vt 0.449266 0.467174
vt 0.604980 -0.210223
vt 0.725704 0.229752
vt 0.725704 0.855119
vt 0.777705 0.016544
vt 0.145200 0.013568
vt -0.125771 0.039085
vt 0.313454 0.451314
vt 1.313454 0.451314
vt 0.845205 0.417599
vt 1.306473 0.475601
vt 1.229752 0.855119
vt 0.777705 0.934480
vt 0.532053 0.767691
vt 0.449125 1.145200
vt 0.218699 0.874229
vt 0.874229 0.039085
vt 0.789777 0.247463
vt 0.845205 -0.582401
vt 1.229752 -0.144881
vt 0.481276 0.099370
vt 0.934480 0.016544
vt 0.605744 0.479084
vt 0.339384 0.552262
vt 0.552262 0.107148
vt 0.339384 0.107148
vt 0.388317 1.226897
vt 0.088445 0.324195
vt 0.605744 0.163506
vt 0.584031 1.099370
vt 0.479084 0.163506
vt 0.481276 1.099370
vn 0.930700 -0.283200 -0.231500
vn -0.363900 -0.423100 -0.829800
vn 0.231900 0.650500 -0.723300
vn 0.241400 0.846700 0.474200
vn -0.210100 0.852900 0.477900
vn 0.606300 0.608900 -0.511500
vn 0.116900 0.678700 -0.725100
vn -0.431600 0.848100 -0.307500
vn -0.433700 0.667700 0.605000
vn 0.643700 0.492200 0.586000
vn 0.971100 0.123900 -0.203800
vn 0.396000 0.299700 -0.868000
vn -0.924400 0.191200 -0.330100
vn -0.187000 0.278400 0.942100
vn 0.303200 0.169600 0.937700
vn 0.900200 0.252300 0.354900
vn -0.911100 0.105300 -0.398400
vn -0.898000 -0.238500 -0.369800
vn -0.896700 0.269800 0.350800
vn -0.574200 -0.439700 0.690600
vn 0.017700 -0.649700 0.760000
vn 0.436200 -0.339700 0.833300
vn 0.798900 -0.395300 0.453200
vn 0.700800 -0.712300 -0.037500
vn 0.269000 -0.962900 -0.021000
vn 0.389300 -0.921100 0.006900
vn -0.775700 -0.439200 0.453200
vn -0.710800 -0.703200 -0.018100
usemtl Material.071
s 1
f 1/1/1 2/2/1 3/3/1
f 4/4/2 5/5/2 2/6/2
f 3/7/3 5/5/3 6/8/3
f 7/9/4 8/10/4 6/11/4
f 9/12/5 7/9/5 6/11/5
f 8/10/6 3/13/6 6/11/6
f 6/14/7 5/15/7 10/16/7
f 10/17/8 9/12/8 6/11/8
f 11/18/9 7/9/9 9/12/9
f 7/19/10 12/20/10 8/21/10
f 1/1/11 3/3/11 8/22/11
f 2/6/12 5/5/12 3/7/12
f 13/23/13 9/24/13 10/25/13
f 11/26/14 14/27/14 7/28/14
f 14/27/15 12/29/15 7/28/15
f 12/30/16 1/1/16 8/22/16
f 5/31/17 13/32/17 10/33/17
f 5/31/18 4/34/18 13/32/18
f 13/23/19 11/35/19 9/24/19
f 15/36/20 14/27/20 11/26/20
f 15/36/21 16/37/21 14/27/21
f 16/37/22 12/29/22 14/27/22
f 16/38/23 1/1/23 12/30/23
f 16/39/24 2/40/24 1/41/24
f 16/39/25 15/42/25 2/40/25
f 15/42/26 4/43/26 2/40/26
f 13/23/27 15/44/27 11/35/27
f 15/44/28 13/23/28 4/45/28
