# Blender v2.76 (sub 0) OBJ File: ''
# www.blender.org
mtllib flower_3.mtl
o flower_3
v 0.884796 1.113669 0.196366
v 1.107681 1.120030 0.196366
v 1.406973 1.296644 0.723400
v 0.520929 1.259551 0.798540
v 1.226139 1.111647 -0.000000
v 1.881781 1.255919 -0.010767
v 1.121755 1.096831 -0.196366
v 1.479225 1.178707 -0.823104
v 0.898921 1.090386 -0.196366
v 0.533823 1.158040 -0.804024
v 0.780402 1.098870 -0.000000
v -0.016503 1.172657 0.014250
v 1.532504 1.814598 0.985370
v 0.390030 1.783701 0.996804
v 2.122572 1.773767 -0.000000
v 1.592327 1.699162 -0.996804
v 0.461452 1.665973 -0.996804
v -0.140476 1.709527 -0.000000
v 1.460031 2.246264 0.859251
v 0.476103 2.219145 0.863257
v 1.976568 2.210476 -0.000000
v 1.517548 2.145561 -0.863257
v 0.538202 2.116784 -0.863257
v 0.016887 2.154552 -0.000000
v 1.266897 2.632795 0.498402
v 0.701072 2.616840 0.498402
v 1.567407 2.611768 -0.000000
v 1.302480 2.574142 -0.498402
v 0.736980 2.557652 -0.498402
v 0.436081 2.579322 -0.000000
v 0.644415 -3.602416 0.196367
v 0.420317 -3.601301 0.196367
v 0.533546 -3.732731 0.000001
v 0.757273 -3.602629 0.000001
v 0.646017 -3.601741 -0.196365
v 0.421947 -3.600615 -0.196365
v 0.309105 -3.600389 0.000001
v 1.003580 2.746724 -0.000000
v 0.849540 -0.027007 0.069088
v 0.950231 -0.021543 0.110241
v 1.038434 -0.023126 0.042659
v 1.027372 -0.030025 -0.069088
v 0.926761 -0.034621 -0.110241
v 0.838535 -0.033319 -0.042660
v 1.693100 1.119254 0.184304
v 0.289537 1.078567 0.545365
v 0.324374 1.143448 0.486547
v 1.668990 1.176913 0.176580
v 0.818998 1.763783 2.498483
v 0.819389 1.687295 2.499701
v 1.115345 1.029101 -0.794423
v 1.583839 1.148619 0.560282
v 1.546115 1.206951 0.555525
v 1.274939 1.132623 -0.625130
v 3.360209 1.699180 0.003535
v 3.360103 1.622640 0.001788
v 0.302412 1.063525 -0.216281
v 1.685553 1.053358 -0.545365
v 1.659159 1.123412 -0.486547
v 0.346370 1.124260 -0.225979
v 0.987358 1.497921 -2.498483
v 0.984133 1.421635 -2.499701
v 0.915708 1.109772 0.841046
v 0.345671 1.065028 -0.500304
v 0.370915 1.128549 -0.467780
v 0.902740 1.174065 0.784400
v -1.559546 1.571907 -0.003535
v -1.562288 1.495700 -0.001789
v 1.275404 1.149854 0.668770
v 0.176635 1.112356 0.174417
v 0.210424 1.162900 0.140635
v 1.283899 1.201570 0.638092
v -0.898931 1.685107 1.764195
v -0.899999 1.608762 1.766291
v 1.624160 1.047031 -0.563374
v 0.856214 1.113442 0.873791
v 0.841758 1.176996 0.811662
v 1.600298 1.117257 -0.509737
v 2.583394 1.769279 1.769194
v 2.584182 1.692713 1.768820
v 0.953191 1.097618 -0.678646
v 1.833269 1.150582 -0.197598
v 1.797467 1.201659 -0.176620
v 0.931675 1.144489 -0.656656
v 2.698905 1.587115 -1.764195
v 2.697148 1.510675 -1.766291
v 0.347211 1.082577 0.516276
v 0.965519 1.047963 -0.838905
v 0.834569 1.133333 -0.776189
v 0.385242 1.143484 0.509737
v -0.776349 1.491288 -1.769194
v -0.779978 1.415096 -1.768820
vt 0.262700 0.140375
vt 0.262700 0.138585
vt 0.269100 0.134895
vt 0.261149 0.137695
vt 0.261149 0.130305
vt 0.259609 0.138585
vt 0.253210 0.134895
vt 0.259609 0.140375
vt 0.253210 0.144065
vt 0.261149 0.141265
vt 0.261149 0.148655
vt 0.269100 0.144065
vt 0.256480 0.097465
vt 0.256420 0.102195
vt 0.247369 0.102195
vt 0.252859 0.132765
vt 0.252859 0.140705
vt 0.248140 0.140705
vt 0.252859 0.148655
vt 0.248140 0.148545
vt 0.262329 0.130105
vt 0.253159 0.130105
vt 0.253229 0.125375
vt 0.241849 0.116675
vt 0.241849 0.124625
vt 0.237119 0.124625
vt 0.241849 0.132565
vt 0.237119 0.132455
vt 0.255809 0.105735
vt 0.247979 0.105735
vt 0.248140 0.132885
vt 0.244599 0.140705
vt 0.244599 0.147495
vt 0.262269 0.125375
vt 0.253830 0.121845
vt 0.233579 0.124625
vt 0.233579 0.117835
vt 0.233579 0.131405
vt 0.254149 0.109045
vt 0.249629 0.109045
vt 0.242160 0.120815
vt 0.248939 0.116905
vt 0.248939 0.120215
vt 0.241289 0.144625
vt 0.261660 0.121845
vt 0.255489 0.118535
vt 0.230279 0.124625
vt 0.230279 0.120705
vt 0.242160 0.128645
vt 0.245019 0.126995
vt 0.248939 0.129255
vt 0.704373 0.838904
vt 0.704373 0.840684
vt 0.702833 0.839794
vt 0.702833 0.838014
vt 0.701283 0.838904
vt 0.701283 0.840684
vt 0.702833 0.841574
vt 0.245019 0.122475
vt 0.248939 0.124735
vt 0.252849 0.122475
vt 0.252849 0.126995
vt 0.699933 0.808864
vt 0.699933 0.818294
vt 0.698723 0.818294
vt 0.700193 0.835154
vt 0.700193 0.825724
vt 0.701243 0.825724
vt 0.702293 0.835154
vt 0.701243 0.835154
vt 0.703732 0.835154
vt 0.702523 0.835154
vt 0.702523 0.825724
vt 0.703983 0.835154
vt 0.703983 0.825724
vt 0.705033 0.825724
vt 0.705033 0.835154
vt 0.706083 0.825724
vt 0.699933 0.835154
vt 0.698723 0.835154
vt 0.700193 0.808864
vt 0.701243 0.808864
vt 0.702293 0.825724
vt 0.703732 0.825724
vt 0.702523 0.808864
vt 0.703983 0.808864
vt 0.705033 0.808864
vt 0.706083 0.808864
vt 0.174187 0.792729
vt 0.180557 0.792729
vt 0.180557 0.799099
vt 0.174187 0.811979
vt 0.174187 0.805609
vt 0.180557 0.808789
vt 0.183877 0.792729
vt 0.187057 0.799099
vt 0.180687 0.799099
vt 0.185677 0.799169
vt 0.192047 0.799169
vt 0.192047 0.805539
vt 0.179197 0.799169
vt 0.185567 0.799169
vt 0.185567 0.805539
vt 0.174187 0.799099
vt 0.185677 0.805539
vt 0.179197 0.805539
vt 0.247309 0.097465
vt 0.237119 0.116785
vt 0.244599 0.133935
vt 0.241289 0.140705
vt 0.260009 0.118535
vt 0.248939 0.132565
vt 0.698723 0.808864
vt 0.706083 0.835154
vt 0.702293 0.808864
vt 0.703732 0.808864
vn 0.027200 -0.952400 0.303700
vn 0.213900 -0.957900 0.191500
vn 0.207100 -0.978300 -0.009700
vn 0.028700 -0.991400 -0.127600
vn -0.092900 -0.994700 -0.044700
vn -0.143700 -0.978200 0.150100
vn 0.021200 -0.455300 0.890100
vn 0.770900 -0.369200 0.519000
vn 0.860800 -0.319300 -0.396200
vn -0.011100 -0.356200 -0.934300
vn -0.814300 -0.202500 -0.544000
vn -0.806700 -0.374400 0.457200
vn -0.003800 0.279900 0.960000
vn 0.829300 0.277300 0.485100
vn 0.838600 0.280200 -0.467100
vn -0.008400 0.285300 -0.958400
vn -0.814200 0.287900 -0.504300
vn -0.851300 0.300300 0.430400
vn -0.019100 0.677200 0.735600
vn 0.652100 0.664900 0.364300
vn 0.644100 0.656900 -0.391900
vn -0.018900 0.642500 -0.766100
vn -0.646600 0.638100 -0.418100
vn -0.677200 0.667400 0.309800
vn -0.004100 -0.832100 0.554600
vn 0.482800 -0.830300 0.278400
vn 0.483000 -0.830500 -0.277400
vn -0.004200 -0.830800 -0.556600
vn -0.487700 -0.827100 -0.279300
vn -0.488600 -0.828700 0.272900
vn -0.027400 0.971200 0.236500
vn 0.231600 0.967800 0.098800
vn 0.228400 0.954200 -0.193400
vn -0.027400 0.939400 -0.341700
vn -0.276700 0.938200 -0.207900
vn -0.282100 0.956200 0.078000
vn -0.372500 -0.091500 0.923500
vn 0.600400 -0.142200 0.786900
vn 0.876300 -0.162000 -0.453600
vn 0.003300 -0.112500 -0.993600
vn -0.607100 -0.075600 -0.791100
vn -0.993400 -0.054800 0.100900
vn 0.000200 0.035600 0.999400
vn 0.865300 -0.061900 0.497400
vn 0.992600 -0.076900 -0.093500
vn 0.378900 -0.007500 -0.925400
vn -0.603800 0.104600 -0.790300
vn -0.862100 0.133800 0.488800
vn -0.181900 -0.605100 -0.775100
vn -0.087000 0.957800 -0.273900
vn 0.097700 -0.957400 0.271700
vn -0.965100 -0.000800 0.261900
vn 0.885000 0.401600 0.235400
vn -0.826800 -0.516600 0.222400
vn -0.262000 0.965100 -0.000600
vn 0.256800 -0.966500 -0.003500
vn 0.305200 -0.022100 0.952000
vn -0.062600 0.876600 -0.477100
vn 0.155300 -0.600200 0.784600
vn 0.034700 0.984500 0.171700
vn -0.047300 -0.984600 -0.168500
vn 0.938600 -0.034200 -0.343300
vn -0.811900 0.563000 -0.154100
vn 0.909700 -0.166800 -0.380300
vn 0.195200 0.973600 -0.118300
vn -0.190500 -0.975100 0.113500
vn -0.236800 -0.013700 -0.971500
vn -0.158500 0.634500 0.756500
vn 0.324900 -0.666000 -0.671500
vn 0.082700 0.963800 -0.253500
vn -0.078600 -0.965600 0.247900
vn -0.828900 -0.003800 -0.559400
vn 0.489100 0.384200 0.783100
vn -0.732900 -0.553500 -0.395700
vn -0.229400 0.957500 -0.175000
vn 0.233500 -0.957600 0.169000
vn -0.479300 -0.009200 0.877600
vn 0.690100 0.572500 -0.442600
vn -0.370100 -0.562900 0.739000
vn -0.149100 0.977000 0.152600
vn 0.139700 -0.979100 -0.147800
vn 0.878700 -0.033300 0.476300
vn -0.550100 0.134100 -0.824200
vn 0.611600 0.747200 0.260000
vn 0.183400 0.981400 0.056300
vn -0.177000 -0.982600 -0.055700
vn 0.519800 -0.029000 -0.853800
vn -0.740100 0.509300 0.439200
vn 0.063200 -0.960500 0.270900
vn 0.238100 -0.953600 0.184300
vn 0.214100 -0.976000 -0.040200
vn 0.019300 -0.992700 -0.118700
vn -0.127200 -0.991300 -0.033900
vn -0.087900 -0.981700 0.169000
vn 0.093500 -0.331700 0.938700
vn 0.767700 -0.427500 0.477400
vn 0.829100 -0.377000 -0.412800
vn 0.009300 -0.318400 -0.947900
vn -0.822200 -0.300600 -0.483400
vn -0.803900 -0.170500 0.569800
vn 0.001600 0.292900 0.956100
vn 0.827700 0.280900 0.485900
vn 0.838600 0.280400 -0.467000
vn -0.814100 0.288000 -0.504200
vn -0.851000 0.300900 0.430500
vn -0.015800 0.680800 0.732300
vn 0.651200 0.665700 0.364500
vn 0.644200 0.656800 -0.392000
vn -0.018700 0.642600 -0.765900
vn -0.646600 0.637800 -0.418400
vn -0.676700 0.667800 0.310000
vn 0.002200 -0.075500 0.997100
vn 0.847700 -0.120800 0.516500
vn 0.991300 -0.093500 -0.092400
vn 0.380300 -0.061200 -0.922800
vn -0.856400 -0.024500 -0.515800
vn -0.881900 -0.025300 0.470800
vn -0.380300 0.054700 0.923200
vn 0.606600 -0.057100 0.793000
vn 0.867500 -0.075100 -0.491800
vn 0.000100 0.024100 -0.999700
vn -0.860500 0.121800 -0.494600
vn -0.988400 0.121900 0.090500
vn -0.214100 -0.217100 -0.952400
vn -0.858600 0.509800 0.053900
vn 0.939800 0.010200 0.341500
vn -0.650800 0.742300 0.159600
vn 0.227500 0.224400 0.947600
vn 0.283200 0.021500 -0.958800
vn 0.231400 -0.012100 0.972800
vn 0.852800 0.484600 -0.194500
vn -0.963400 0.044900 -0.264300
vn 0.911300 -0.152900 -0.382200
vn -0.115600 0.488700 -0.864700
vn -0.299800 0.032600 0.953400
vn 0.375000 -0.517800 -0.769000
vn -0.796300 0.138800 -0.588800
vn 0.453400 0.018100 0.891100
vn -0.879100 0.062300 -0.472600
vn -0.523200 0.531900 0.665800
vn 0.917000 0.011400 -0.398800
vn -0.383900 -0.530700 0.755600
vn 0.783000 0.333000 0.525400
vn -0.534900 0.035400 -0.844200
vn 0.825000 -0.483800 0.292100
vn 0.376100 0.849200 -0.370700
vn -0.887300 0.044500 0.459100
usemtl None
s off
f 1/1/1 2/2/1 3/3/1
f 5/4/2 6/5/2 3/3/2
f 7/6/3 8/7/3 6/5/3
f 7/6/4 9/8/4 10/9/4
f 11/10/5 12/11/5 10/9/5
f 11/10/6 1/1/6 4/12/6
f 3/13/7 13/14/7 14/15/7
f 3/16/8 6/17/8 15/18/8
f 6/17/9 8/19/9 16/20/9
f 8/21/10 10/22/10 17/23/10
f 10/24/11 12/25/11 18/26/11
f 4/27/12 14/28/12 18/26/12
f 13/14/13 19/29/13 20/30/13
f 13/31/14 15/18/14 21/32/14
f 15/18/15 16/20/15 22/33/15
f 16/34/16 17/23/16 23/35/16
f 18/26/17 24/36/17 23/37/17
f 14/28/18 20/38/18 24/36/18
f 19/29/19 25/39/19 26/40/19
f 19/41/20 21/42/20 27/43/20
f 21/32/21 22/33/21 28/44/21
f 22/45/22 23/35/22 29/46/22
f 24/36/23 30/47/23 29/48/23
f 20/49/24 26/50/24 30/51/24
f 31/52/25 32/53/25 33/54/25
f 34/55/26 31/52/26 33/54/26
f 35/56/27 34/55/27 33/54/27
f 36/57/28 35/56/28 33/54/28
f 37/58/29 36/57/29 33/54/29
f 32/53/30 37/58/30 33/54/30
f 26/50/31 25/59/31 38/60/31
f 25/59/32 27/43/32 38/60/32
f 27/43/33 28/61/33 38/60/33
f 28/61/34 29/62/34 38/60/34
f 29/62/35 30/51/35 38/60/35
f 30/51/36 26/50/36 38/60/36
f 1/63/37 39/64/37 40/65/37
f 2/66/38 40/67/38 41/68/38
f 7/69/39 5/70/39 41/68/39
f 9/71/40 7/72/40 42/73/40
f 9/74/41 43/75/41 44/76/41
f 11/77/42 44/76/42 39/78/42
f 39/64/43 32/79/43 31/80/43
f 40/67/44 31/81/44 34/82/44
f 42/83/45 41/68/45 34/82/45
f 43/84/46 42/73/46 35/85/46
f 44/76/47 43/75/47 36/86/47
f 44/76/48 37/87/48 32/88/48
f 45/89/49 46/90/49 47/91/49
f 48/92/50 47/93/50 49/94/50
f 50/95/51 46/96/51 45/97/51
f 46/98/52 50/99/52 49/100/52
f 50/101/53 45/102/53 48/103/53
f 52/90/54 53/91/54 54/104/54
f 54/92/55 53/93/55 55/94/55
f 56/95/56 52/96/56 51/97/56
f 52/98/57 56/99/57 55/100/57
f 56/101/58 51/102/58 54/103/58
f 58/90/59 59/91/59 60/104/59
f 60/92/60 59/93/60 61/94/60
f 62/95/61 58/96/61 57/97/61
f 58/98/62 62/99/62 61/100/62
f 62/101/63 57/102/63 60/103/63
f 64/90/64 65/91/64 66/104/64
f 66/92/65 65/93/65 67/94/65
f 68/95/66 64/96/66 63/97/66
f 68/99/67 67/100/67 65/105/67
f 68/101/68 63/102/68 66/103/68
f 69/89/69 70/90/69 71/91/69
f 72/92/70 71/93/70 73/94/70
f 74/95/71 70/96/71 69/97/71
f 70/98/72 74/99/72 73/100/72
f 69/102/73 72/103/73 73/106/73
f 76/90/74 77/91/74 78/104/74
f 78/92/75 77/93/75 79/94/75
f 80/95/76 76/96/76 75/97/76
f 80/99/77 79/100/77 77/105/77
f 80/101/78 75/102/78 78/103/78
f 81/89/79 82/90/79 83/91/79
f 84/92/80 83/93/80 85/94/80
f 86/95/81 82/96/81 81/97/81
f 82/98/82 86/99/82 85/100/82
f 81/102/83 84/103/83 85/106/83
f 87/89/84 88/90/84 89/91/84
f 90/92/85 89/93/85 91/94/85
f 92/95/86 88/96/86 87/97/86
f 92/99/87 91/100/87 89/105/87
f 92/101/88 87/102/88 90/103/88
f 4/12/89 1/1/89 3/3/89
f 2/2/90 5/4/90 3/3/90
f 5/4/91 7/6/91 6/5/91
f 8/7/92 7/6/92 10/9/92
f 9/8/93 11/10/93 10/9/93
f 12/11/94 11/10/94 4/12/94
f 4/107/95 3/13/95 14/15/95
f 13/31/96 3/16/96 15/18/96
f 15/18/97 6/17/97 16/20/97
f 16/34/98 8/21/98 17/23/98
f 17/108/99 10/24/99 18/26/99
f 12/25/100 4/27/100 18/26/100
f 14/15/101 13/14/101 20/30/101
f 19/109/102 13/31/102 21/32/102
f 21/32/103 15/18/103 22/33/103
f 22/45/16 16/34/16 23/35/16
f 17/108/104 18/26/104 23/37/104
f 18/26/105 14/28/105 24/36/105
f 20/30/106 19/29/106 26/40/106
f 25/59/107 19/41/107 27/43/107
f 27/110/108 21/32/108 28/44/108
f 28/111/109 22/45/109 29/46/109
f 23/37/110 24/36/110 29/48/110
f 24/112/111 20/49/111 30/51/111
f 2/113/112 1/63/112 40/65/112
f 5/70/113 2/66/113 41/68/113
f 42/83/114 7/69/114 41/68/114
f 43/84/115 9/71/115 42/73/115
f 11/77/116 9/74/116 44/76/116
f 1/114/117 11/77/117 39/78/117
f 40/65/118 39/64/118 31/80/118
f 41/68/119 40/67/119 34/82/119
f 35/115/120 42/83/120 34/82/120
f 36/116/121 43/84/121 35/85/121
f 37/87/122 44/76/122 36/86/122
f 39/78/123 44/76/123 32/88/123
f 48/104/124 45/89/124 47/91/124
f 47/105/125 46/98/125 49/100/125
f 49/106/126 50/101/126 48/103/126
f 51/89/127 52/90/127 54/104/127
f 53/105/128 52/98/128 55/100/128
f 55/106/129 56/101/129 54/103/129
f 57/89/130 58/90/130 60/104/130
f 59/105/131 58/98/131 61/100/131
f 61/106/132 62/101/132 60/103/132
f 63/89/133 64/90/133 66/104/133
f 64/98/134 68/99/134 65/105/134
f 67/106/135 68/101/135 66/103/135
f 72/104/136 69/89/136 71/91/136
f 71/105/137 70/98/137 73/100/137
f 74/101/138 69/102/138 73/106/138
f 75/89/139 76/90/139 78/104/139
f 76/98/140 80/99/140 77/105/140
f 79/106/141 80/101/141 78/103/141
f 84/104/142 81/89/142 83/91/142
f 83/105/143 82/98/143 85/100/143
f 86/101/144 81/102/144 85/106/144
f 90/104/145 87/89/145 89/91/145
f 88/98/146 92/99/146 89/105/146
f 91/106/147 92/101/147 90/103/147
