# Blender v2.76 (sub 0) OBJ File: ''
# www.blender.org
mtllib grass_1.mtl
o grass_1
v 0.690821 -3.741027 -1.340577
v -1.223660 -3.799779 -1.049759
v -1.497703 -1.749300 -1.215735
v -0.431741 -1.672466 -1.430278
v -0.207690 -1.661517 -1.004769
v -1.308929 -1.718397 -0.789432
v -1.028166 -3.829531 -0.146621
v 0.952656 -3.745047 -0.494416
v -1.384641 0.450160 -1.261241
v -0.630381 0.730743 -1.356849
v -0.447151 0.717866 -0.960357
v -1.266476 0.460029 -0.855129
v -0.310557 1.885641 -1.145046
v -0.080508 1.878994 -0.746071
v -1.033184 -3.737216 -1.058031
v -2.665677 -3.729055 -0.722643
v -3.267430 -1.779823 -0.695532
v -1.858580 -1.723414 -1.114677
v -1.679351 -1.670819 -0.716094
v -2.757954 -1.729911 -0.376287
v -2.312624 -3.743226 0.220014
v -0.742841 -3.816990 0.014053
v -3.148845 0.044808 -0.789777
v -2.314578 -0.169046 -1.056095
v -2.090516 -0.126770 -0.697320
v -2.813371 -0.029935 -0.464878
v -2.097956 1.690730 -0.937595
v -1.656318 1.862931 -0.406125
v 1.863772 -3.697207 -1.076339
v 0.222806 -3.774936 -1.154068
v 0.107454 -1.685605 -1.493451
v 0.950883 -1.680300 -1.495032
v 1.120270 -1.684597 -1.027746
v 0.218155 -1.690286 -1.021925
v 0.271662 -3.805011 -0.221127
v 2.007406 -3.707124 -0.338153
v 0.251156 0.446976 -1.488741
v 0.936441 0.445992 -1.482271
v 1.025805 0.418400 -1.056754
v 0.312362 0.415125 -1.064299
v 1.120142 1.821449 -1.232453
v 1.418896 1.949749 -0.600050
vt 0.745133 0.743117
vt 0.745133 0.760298
vt 0.697737 0.760298
vt 0.746043 0.773334
vt 0.793439 0.773334
vt 0.793439 0.790514
vt 0.784748 0.838315
vt 0.784748 0.790919
vt 0.801929 0.790919
vt 0.704305 0.790919
vt 0.721486 0.790919
vt 0.721486 0.838315
vt 0.745133 0.774749
vt 0.735937 0.790919
vt 0.735937 0.838315
vt 0.793439 0.758883
vt 0.816380 0.790919
vt 0.816380 0.838315
vt 0.697737 0.774749
vt 0.721486 0.790514
vt 0.736745 0.838315
vt 0.736745 0.790919
vt 0.760393 0.790919
vt 0.769792 0.743117
vt 0.746043 0.758883
vt 0.784041 0.838315
vt 0.760393 0.838315
vt 0.801929 0.838315
vt 0.697737 0.743117
vt 0.746043 0.790514
vt 0.704305 0.838315
vt 0.784041 0.790919
vn -0.189000 -0.104300 -0.976400
vn 0.167300 0.307500 0.936700
vn -0.975700 -0.066100 0.209000
vn 0.800300 0.415600 -0.432100
vn -0.196600 -0.010200 -0.980400
vn 0.905400 0.087500 -0.415500
vn 0.190600 0.025900 0.981300
vn -0.960000 0.027100 0.278700
vn -0.206600 0.231600 -0.950600
vn 0.892300 -0.170500 -0.417900
vn 0.197000 -0.237700 0.951100
vn -0.712000 0.562800 0.419900
vn -0.281700 -0.073600 -0.956700
vn 0.267500 0.327600 0.906200
vn -0.932000 -0.103200 0.347500
vn 0.842600 0.333500 -0.422900
vn -0.310700 -0.028900 -0.950100
vn 0.864500 0.269600 -0.424300
vn 0.312800 0.059600 0.947900
vn -0.532700 0.026700 0.845900
vn -0.280900 0.093600 -0.955200
vn 0.849800 -0.065700 -0.523000
vn 0.275900 -0.197900 0.940600
vn -0.754100 0.446000 0.482100
vn -0.000800 -0.160400 -0.987100
vn 0.003800 0.354200 0.935200
vn -0.998600 -0.005500 0.052100
vn 0.886700 0.335300 -0.318300
vn -0.001900 0.002300 -1.000000
vn 0.978700 0.007900 -0.205000
vn 0.006300 0.019800 0.999800
vn -0.972300 0.048100 0.228700
vn 0.009500 0.177500 -0.984100
vn 0.973300 -0.091800 -0.210400
vn -0.008800 -0.283700 0.958900
vn -0.816500 0.502900 0.283700
vn -0.145400 -0.121500 -0.981900
vn 0.151200 0.313800 0.937400
vn -0.908400 -0.088300 0.408700
vn 0.868300 0.418200 -0.266700
vn -0.132800 0.019300 -0.991000
vn 0.879600 0.097200 -0.465700
vn 0.129100 -0.005500 0.991600
vn -0.914400 0.055300 0.400900
vn 0.851200 -0.177700 -0.493800
vn -0.790100 0.573700 0.215900
vn -0.200600 -0.109600 -0.973500
vn 0.137900 0.372400 0.917800
vn -0.511300 -0.169600 0.842500
vn 0.918800 0.324500 -0.224700
vn -0.283100 -0.047000 -0.957900
vn 0.814700 0.223500 -0.535100
vn 0.296400 0.067400 0.952700
vn -0.683900 0.081900 0.725000
vn 0.779100 -0.079000 -0.621800
vn -0.576600 0.430500 0.694400
vn 0.055000 -0.179000 -0.982300
vn 0.044200 0.339700 0.939500
vn -0.973400 -0.016600 0.228400
vn 0.922200 0.344900 -0.174800
vn 0.009400 0.006100 -0.999900
vn 0.939600 0.037500 -0.340200
vn -0.010600 0.013300 0.999900
vn -0.986900 0.066200 0.147300
vn 0.907100 -0.111800 -0.405800
vn -0.847500 0.506000 0.160200
usemtl None
s off
f 2/1/1 3/2/1 4/3/1
f 5/4/2 6/5/2 7/6/2
f 2/7/3 7/8/3 6/9/3
f 1/10/4 4/11/4 5/12/4
f 4/3/5 3/2/5 9/13/5
f 4/11/6 10/14/6 11/15/6
f 12/16/7 6/5/7 5/4/7
f 6/9/8 12/17/8 9/18/8
f 10/19/9 9/13/9 13/20/9
f 11/21/10 10/22/10 13/23/10
f 14/24/11 12/16/11 11/25/11
f 12/26/12 14/27/12 13/23/12
f 16/1/13 17/2/13 18/3/13
f 19/4/14 20/5/14 21/6/14
f 16/7/15 21/8/15 20/9/15
f 15/10/16 18/11/16 19/12/16
f 17/2/17 23/13/17 24/19/17
f 19/12/18 18/11/18 24/14/18
f 25/25/19 26/16/19 20/5/19
f 17/28/20 20/9/20 26/17/20
f 24/19/21 23/13/21 27/20/21
f 25/21/22 24/22/22 27/23/22
f 28/24/23 26/16/23 25/25/23
f 26/26/24 28/27/24 27/23/24
f 30/1/25 31/2/25 32/3/25
f 33/4/26 34/5/26 35/6/26
f 30/7/27 35/8/27 34/9/27
f 29/10/28 32/11/28 33/12/28
f 32/3/29 31/2/29 37/13/29
f 32/11/30 38/14/30 39/15/30
f 40/16/31 34/5/31 33/4/31
f 31/28/32 34/9/32 40/17/32
f 38/19/33 37/13/33 41/20/33
f 39/21/34 38/22/34 41/23/34
f 42/24/35 40/16/35 39/25/35
f 40/26/36 42/27/36 41/23/36
f 1/29/37 2/1/37 4/3/37
f 8/30/38 5/4/38 7/6/38
f 3/28/39 2/7/39 6/9/39
f 8/31/40 1/10/40 5/12/40
f 10/19/41 4/3/41 9/13/41
f 5/12/42 4/11/42 11/15/42
f 11/25/43 12/16/43 5/4/43
f 3/28/44 6/9/44 9/18/44
f 14/27/45 11/21/45 13/23/45
f 9/32/46 12/26/46 13/23/46
f 15/29/47 16/1/47 18/3/47
f 22/30/48 19/4/48 21/6/48
f 17/28/49 16/7/49 20/9/49
f 22/31/50 15/10/50 19/12/50
f 18/3/51 17/2/51 24/19/51
f 25/15/52 19/12/52 24/14/52
f 19/4/53 25/25/53 20/5/53
f 23/18/54 17/28/54 26/17/54
f 28/27/55 25/21/55 27/23/55
f 23/32/56 26/26/56 27/23/56
f 29/29/57 30/1/57 32/3/57
f 36/30/58 33/4/58 35/6/58
f 31/28/59 30/7/59 34/9/59
f 36/31/60 29/10/60 33/12/60
f 38/19/61 32/3/61 37/13/61
f 33/12/62 32/11/62 39/15/62
f 39/25/63 40/16/63 33/4/63
f 37/18/64 31/28/64 40/17/64
f 42/27/65 39/21/65 41/23/65
f 37/32/66 40/26/66 41/23/66
