# Blender v2.76 (sub 0) OBJ File: ''
# www.blender.org
mtllib Grass.mtl
o Cylinder.002_Cylinder.004
v -0.714067 -0.026754 -0.069115
v -0.714067 0.342521 -0.069115
v -0.621749 0.342521 -0.089684
v -0.621749 -0.026754 -0.089684
v -0.527801 0.342521 -0.089684
v -0.527801 -0.026754 -0.089684
v -0.435482 0.342521 -0.069115
v -0.435482 -0.026754 -0.069115
v -0.527801 0.342521 -0.040809
v -0.527801 -0.026754 -0.040809
v -0.554933 0.470424 -0.079608
v -0.484875 0.439095 -0.091131
v -0.621749 -0.026754 -0.040809
v -0.621749 0.342521 -0.040809
v -0.413117 0.408670 -0.085718
v -0.365647 0.627378 -0.099382
v -0.312760 0.594322 -0.099126
v -0.477951 0.439953 -0.051365
v -0.548009 0.471283 -0.039843
v -0.620863 0.501571 -0.051551
v -0.416028 0.660961 -0.086276
v -0.319836 0.837386 -0.104767
v -0.287710 0.815971 -0.113125
v -0.462156 0.693906 -0.060262
v -0.407996 0.660829 -0.055064
v -0.357615 0.627246 -0.068171
v -0.349250 0.858394 -0.088179
v -0.314715 0.837302 -0.084865
v -0.282589 0.815888 -0.093222
v -0.253986 0.794893 -0.112961
v 0.323235 -0.027893 -0.141278
v 0.323235 0.341382 -0.141278
v 0.230916 0.341382 -0.120709
v 0.230916 -0.027893 -0.120709
v 0.136968 0.341382 -0.120709
v 0.136968 -0.027893 -0.120709
v 0.044650 0.341382 -0.141278
v 0.044650 -0.027893 -0.141278
v 0.136968 0.341382 -0.169584
v 0.136968 -0.027893 -0.169584
v 0.164101 0.469285 -0.130784
v 0.094043 0.437956 -0.119262
v 0.230916 -0.027893 -0.169584
v 0.230916 0.341382 -0.169584
v 0.022285 0.407531 -0.124675
v -0.025185 0.626239 -0.111010
v -0.078073 0.593183 -0.111267
v 0.087119 0.438814 -0.159027
v 0.157177 0.470144 -0.170550
v 0.230030 0.500432 -0.158842
v 0.025196 0.659822 -0.124117
v -0.070996 0.836247 -0.105625
v -0.103122 0.814833 -0.097268
v 0.071323 0.692767 -0.150131
v 0.017164 0.659690 -0.155329
v -0.033217 0.626107 -0.142222
v -0.041582 0.857255 -0.122214
v -0.076118 0.836163 -0.125528
v -0.108244 0.814749 -0.117170
v -0.136846 0.793754 -0.097431
v -0.231497 -0.027893 -0.623848
v -0.231497 0.341382 -0.623848
v -0.210928 0.341382 -0.531529
v -0.210928 -0.027893 -0.531529
v -0.210928 0.341382 -0.437581
v -0.210928 -0.027893 -0.437581
v -0.231497 0.341382 -0.345262
v -0.231497 -0.027893 -0.345262
v -0.259804 0.341382 -0.437581
v -0.259804 -0.027893 -0.437581
v -0.221004 0.469285 -0.464713
v -0.209482 0.437956 -0.394655
v -0.259804 -0.027893 -0.531529
v -0.259804 0.341382 -0.531529
v -0.214894 0.407531 -0.322898
v -0.201230 0.626239 -0.275428
v -0.201486 0.593183 -0.222540
v -0.249247 0.438814 -0.387731
v -0.260769 0.470144 -0.457789
v -0.249062 0.500432 -0.530643
v -0.214336 0.659822 -0.325809
v -0.195845 0.836247 -0.229617
v -0.187488 0.814833 -0.197490
v -0.240351 0.692767 -0.371936
v -0.245548 0.659690 -0.317777
v -0.232442 0.626107 -0.267396
v -0.212433 0.857255 -0.259030
v -0.215748 0.836163 -0.224495
v -0.207390 0.814749 -0.192369
v -0.187651 0.793754 -0.163766
v -0.159335 -0.026754 0.413455
v -0.159335 0.342521 0.413455
v -0.179904 0.342521 0.321136
v -0.179904 -0.026754 0.321136
v -0.179904 0.342521 0.227188
v -0.179904 -0.026754 0.227188
v -0.159335 0.342521 0.134869
v -0.159335 -0.026754 0.134869
v -0.131029 0.342521 0.227188
v -0.131029 -0.026754 0.227188
v -0.169828 0.470424 0.254321
v -0.181350 0.439095 0.184262
v -0.131029 -0.026754 0.321136
v -0.131029 0.342521 0.321136
v -0.175938 0.408670 0.112505
v -0.189602 0.627378 0.065035
v -0.189346 0.594322 0.012147
v -0.141585 0.439953 0.177338
v -0.130063 0.471283 0.247397
v -0.141771 0.501571 0.320250
v -0.176496 0.660961 0.115416
v -0.194987 0.837386 0.019224
v -0.203345 0.815971 -0.012902
v -0.150481 0.693906 0.161543
v -0.145284 0.660829 0.107384
v -0.158390 0.627246 0.057003
v -0.178399 0.858394 0.048637
v -0.175085 0.837302 0.014102
v -0.183442 0.815888 -0.018024
v -0.203181 0.794893 -0.046627
vt 0.429818 0.573307
vt 0.429818 0.607943
vt 0.395182 0.607943
vt 0.395182 0.573307
vt 0.427497 0.581966
vt 0.397503 0.581966
vt 0.397503 0.599284
vt 0.412500 0.573307
vt 0.412500 0.607943
vt 0.427497 0.599284
vn -0.217500 -0.000000 -0.976100
vn 0.000000 -0.000000 -1.000000
vn 0.217500 -0.000000 -0.976100
vn 0.293100 0.000000 0.956100
vn -0.044900 0.069000 -0.996600
vn 0.000000 0.078500 -0.996900
vn -0.081600 0.061100 -0.994800
vn -0.293100 0.000000 0.956100
vn 0.000000 0.000000 1.000000
vn 0.000000 -1.000000 0.000000
vn 0.032000 -0.069200 -0.997100
vn 0.044700 -0.071900 -0.996400
vn -0.013400 -0.059400 -0.998100
vn 0.053100 0.000800 0.998600
vn 0.170700 0.019400 0.985100
vn 0.102300 0.008600 0.994700
vn -0.231100 0.228100 -0.945800
vn -0.211700 0.229000 -0.950100
vn -0.264200 0.226300 -0.937600
vn 0.115100 -0.164500 -0.979600
vn 0.216100 -0.110600 -0.970100
vn 0.111100 -0.166500 -0.979800
vn -0.252700 0.066600 0.965200
vn -0.130900 0.067500 0.989100
vn -0.182800 0.067300 0.980800
vn 0.378000 -0.003900 0.925800
vn 0.487700 0.053800 0.871400
vn 0.381600 -0.002100 0.924300
vn -0.235200 0.026400 -0.971600
vn -0.307400 0.208000 -0.928600
vn -0.299600 0.205100 -0.931800
vn -0.341900 0.221000 -0.913400
vn -0.093500 0.126600 0.987500
vn -0.032200 0.103600 0.994100
vn -0.045900 0.108800 0.993000
vn 0.406500 -0.175200 0.896700
vn 0.461400 -0.186800 0.867300
vn 0.446400 -0.183700 0.875800
vn -0.144500 0.066400 -0.987300
vn -0.134300 0.063300 -0.988900
vn -0.185500 0.079000 -0.979500
vn 0.159800 -0.034100 0.986600
vn 0.218300 -0.052800 0.974500
vn 0.204200 -0.048300 0.977700
vn 0.525900 0.840300 -0.131800
vn 0.525800 0.840300 -0.131800
vn 0.265600 0.022300 0.963800
vn 0.265600 0.022400 0.963800
vn -0.032300 -0.059400 -0.997700
vn -0.414100 0.131400 -0.900700
vn 0.005300 0.163800 0.986500
vn 0.518300 -0.093200 0.850100
vn 0.217500 0.000000 0.976100
vn -0.217500 0.000000 0.976100
vn -0.293100 -0.000000 -0.956100
vn 0.044900 0.069000 0.996600
vn 0.000000 0.078500 0.996900
vn 0.081600 0.061000 0.994800
vn 0.293100 -0.000000 -0.956100
vn -0.032000 -0.069200 0.997100
vn -0.044700 -0.071900 0.996400
vn 0.013400 -0.059500 0.998100
vn -0.053100 0.000800 -0.998600
vn -0.170700 0.019400 -0.985100
vn -0.102300 0.008600 -0.994700
vn 0.231100 0.228100 0.945800
vn 0.211700 0.229000 0.950100
vn 0.264200 0.226300 0.937600
vn -0.115100 -0.164500 0.979600
vn -0.216100 -0.110600 0.970100
vn -0.111100 -0.166500 0.979800
vn 0.252700 0.066600 -0.965200
vn 0.130900 0.067500 -0.989100
vn 0.182800 0.067300 -0.980800
vn -0.378000 -0.003900 -0.925800
vn -0.487700 0.053800 -0.871400
vn -0.381600 -0.002000 -0.924300
vn 0.235200 0.026400 0.971600
vn 0.307500 0.208000 0.928500
vn 0.299700 0.205100 0.931700
vn 0.341900 0.221000 0.913400
vn 0.093500 0.126600 -0.987500
vn 0.032200 0.103600 -0.994100
vn 0.045900 0.108800 -0.993000
vn -0.406500 -0.175200 -0.896700
vn -0.461400 -0.186800 -0.867300
vn -0.446400 -0.183700 -0.875800
vn 0.144500 0.066400 0.987300
vn 0.134300 0.063300 0.988900
vn 0.185500 0.079000 0.979500
vn -0.159800 -0.034100 -0.986600
vn -0.218300 -0.052800 -0.974500
vn -0.204200 -0.048300 -0.977700
vn -0.525800 0.840300 0.131800
vn -0.265600 0.022300 -0.963800
vn 0.032300 -0.059400 0.997700
vn 0.414100 0.131400 0.900700
vn -0.005300 0.163800 -0.986500
vn -0.518300 -0.093200 -0.850100
vn 0.976100 0.000000 -0.217500
vn 1.000000 -0.000000 0.000000
vn 0.976100 0.000000 0.217500
vn -0.956100 0.000000 0.293200
vn 0.996600 0.069000 -0.044900
vn 0.996900 0.078500 0.000000
vn 0.994800 0.061100 -0.081600
vn -0.956100 -0.000000 -0.293200
vn -1.000000 0.000000 0.000000
vn 0.997100 -0.069200 0.032000
vn 0.996400 -0.071900 0.044600
vn 0.998100 -0.059400 -0.013400
vn -0.998600 0.000900 0.053100
vn -0.985100 0.019400 0.170700
vn -0.994700 0.008600 0.102300
vn 0.945800 0.228100 -0.231100
vn 0.950100 0.229000 -0.211700
vn 0.937600 0.226300 -0.264200
vn 0.979600 -0.164500 0.115000
vn 0.970100 -0.110600 0.216100
vn 0.979800 -0.166500 0.111100
vn -0.965200 0.066600 -0.252700
vn -0.989100 0.067500 -0.130900
vn -0.980800 0.067300 -0.182800
vn -0.925800 -0.003900 0.378000
vn -0.871400 0.053800 0.487700
vn -0.924300 -0.002000 0.381600
vn 0.971600 0.026400 -0.235200
vn 0.928500 0.208000 -0.307500
vn 0.931800 0.205100 -0.299700
vn 0.913300 0.221000 -0.342000
vn -0.987500 0.126600 -0.093500
vn -0.994100 0.103600 -0.032100
vn -0.993000 0.108800 -0.045900
vn -0.896700 -0.175200 0.406500
vn -0.867300 -0.186800 0.461400
vn -0.875800 -0.183700 0.446400
vn 0.987300 0.066400 -0.144500
vn 0.988900 0.063300 -0.134300
vn 0.979500 0.079000 -0.185500
vn -0.986600 -0.034100 0.159800
vn -0.974500 -0.052800 0.218300
vn -0.977700 -0.048300 0.204200
vn 0.131800 0.840300 0.525800
vn -0.963800 0.022400 0.265600
vn -0.963800 0.022300 0.265600
vn 0.997700 -0.059400 -0.032300
vn 0.900700 0.131400 -0.414100
vn -0.986500 0.163800 0.005300
vn -0.986500 0.163800 0.005400
vn -0.850100 -0.093200 0.518300
vn -0.976100 -0.000000 0.217500
vn -0.976100 -0.000000 -0.217500
vn 0.956100 -0.000000 -0.293100
vn -0.996600 0.069000 0.044900
vn -0.996900 0.078500 -0.000000
vn -0.994800 0.061100 0.081600
vn 0.956100 0.000000 0.293100
vn -0.997100 -0.069200 -0.032000
vn -0.996400 -0.071900 -0.044600
vn -0.998100 -0.059400 0.013400
vn 0.998600 0.000800 -0.053100
vn 0.985100 0.019400 -0.170700
vn 0.994700 0.008600 -0.102300
vn -0.945800 0.228100 0.231100
vn -0.950100 0.229000 0.211700
vn -0.937600 0.226300 0.264200
vn -0.979600 -0.164500 -0.115000
vn -0.970100 -0.110600 -0.216100
vn -0.979800 -0.166500 -0.111100
vn 0.965200 0.066600 0.252700
vn 0.989100 0.067500 0.130900
vn 0.980800 0.067300 0.182800
vn 0.925800 -0.003900 -0.378000
vn 0.871400 0.053800 -0.487700
vn 0.924300 -0.002000 -0.381600
vn -0.971600 0.026400 0.235200
vn -0.928600 0.208000 0.307400
vn -0.931800 0.205100 0.299600
vn -0.913400 0.221000 0.342000
vn 0.987500 0.126600 0.093500
vn 0.994100 0.103600 0.032100
vn 0.993000 0.108800 0.045900
vn 0.896700 -0.175200 -0.406500
vn 0.867300 -0.186800 -0.461400
vn 0.875800 -0.183700 -0.446400
vn -0.987300 0.066400 0.144500
vn -0.988900 0.063300 0.134300
vn -0.979500 0.079000 0.185500
vn 0.986600 -0.034100 -0.159800
vn 0.974500 -0.052800 -0.218300
vn 0.977700 -0.048300 -0.204200
vn -0.131800 0.840300 -0.525800
vn 0.963800 0.022400 -0.265600
vn -0.997700 -0.059400 0.032300
vn -0.900700 0.131400 0.414100
vn 0.986500 0.163800 -0.005400
vn 0.850100 -0.093200 -0.518300
vn -0.141200 0.047900 -0.988800
vn -0.030100 -0.055800 -0.998000
vn 0.000000 -0.007500 1.000000
vn -0.289800 0.224700 -0.930400
vn -0.026300 -0.235000 -0.971600
vn -0.292500 0.066100 0.954000
vn 0.292800 -0.046300 0.955000
vn -0.351900 0.224800 -0.908600
vn -0.104200 0.130600 0.985900
vn 0.394800 -0.172700 0.902400
vn -0.198700 0.083000 -0.976500
vn 0.148900 -0.030600 0.988400
vn 0.141200 0.047900 0.988800
vn 0.030000 -0.055800 0.998000
vn 0.000000 -0.007500 -1.000000
vn 0.289800 0.224700 0.930300
vn 0.026300 -0.235000 0.971600
vn 0.292500 0.066100 -0.954000
vn -0.292800 -0.046300 -0.955000
vn 0.351900 0.224800 0.908600
vn 0.104200 0.130600 -0.985900
vn -0.394800 -0.172700 -0.902400
vn 0.198700 0.083000 0.976500
vn -0.148900 -0.030600 -0.988400
vn -0.525900 0.840300 0.131800
vn 0.988800 0.047900 -0.141200
vn 0.998000 -0.055800 -0.030100
vn -1.000000 -0.007500 0.000000
vn 0.930300 0.224700 -0.289800
vn 0.971600 -0.235000 -0.026300
vn -0.954000 0.066100 -0.292500
vn -0.955000 -0.046300 0.292800
vn 0.908600 0.224800 -0.351900
vn -0.986000 0.130600 -0.104100
vn -0.902400 -0.172700 0.394800
vn 0.976500 0.083000 -0.198700
vn -0.988400 -0.030600 0.148900
vn 0.131800 0.840300 0.525900
vn -0.988800 0.047900 0.141200
vn -0.998000 -0.055800 0.030100
vn 1.000000 -0.007500 0.000000
vn -0.930300 0.224700 0.289800
vn -0.971600 -0.235000 0.026300
vn 0.954000 0.066100 0.292500
vn 0.955000 -0.046300 -0.292800
vn -0.908600 0.224800 0.351900
vn 0.985900 0.130600 0.104200
vn 0.902400 -0.172700 -0.394800
vn -0.976500 0.083000 0.198700
vn 0.988400 -0.030600 -0.148900
vn -0.131800 0.840300 -0.525900
usemtl Material.090
s 1
f 2/1/1 3/2/1 4/3/1
f 3/1/2 5/2/2 6/3/2
f 5/1/3 7/2/3 8/3/3
f 7/1/4 9/2/4 10/3/4
f 5/4/5 3/1/6 11/2/7
f 14/1/8 2/2/8 1/3/8
f 9/1/9 14/2/9 13/3/9
f 6/5/10 10/6/10 13/7/10
f 15/4/11 12/1/12 16/2/13
f 9/1/14 18/2/15 19/3/16
f 3/4/17 2/1/18 20/2/19
f 7/4/20 5/1/21 12/2/22
f 14/1/23 19/2/24 20/3/25
f 7/1/26 15/2/27 18/3/28
f 21/1/29 22/2/29 23/3/29
f 11/4/30 20/1/31 24/2/32
f 19/1/33 25/2/34 24/3/35
f 15/1/36 17/2/37 26/3/38
f 12/4/39 11/1/40 21/2/41
f 18/1/42 26/2/43 25/3/44
f 28/5/45 29/8/46 22/9/45
f 25/4/47 26/1/47 29/2/48
f 16/1/49 23/2/49 30/3/49
f 24/1/50 27/2/50 22/3/50
f 24/4/51 25/1/51 28/2/51
f 26/4/52 17/1/52 30/2/52
f 32/1/53 33/2/53 34/3/53
f 33/1/9 35/2/9 36/3/9
f 35/1/54 37/2/54 38/3/54
f 37/1/55 39/2/55 40/3/55
f 35/4/56 33/1/57 41/2/58
f 44/1/59 32/2/59 31/3/59
f 39/1/2 44/2/2 43/3/2
f 36/5/10 40/6/10 43/7/10
f 45/4/60 42/1/61 46/2/62
f 39/1/63 48/2/64 49/3/65
f 33/4/66 32/1/67 50/2/68
f 37/4/69 35/1/70 42/2/71
f 44/1/72 49/2/73 50/3/74
f 37/1/75 45/2/76 48/3/77
f 51/1/78 52/2/78 53/3/78
f 41/4/79 50/1/80 54/2/81
f 49/1/82 55/2/83 54/3/84
f 45/1/85 47/2/86 56/3/87
f 42/4/88 41/1/89 51/2/90
f 48/1/91 56/2/92 55/3/93
f 58/5/94 59/8/94 52/9/94
f 55/4/95 56/1/95 59/2/95
f 46/1/96 53/2/96 60/3/96
f 54/1/97 57/2/97 52/3/97
f 54/4/98 55/1/98 58/2/98
f 56/4/99 47/1/99 60/2/99
f 61/4/100 62/1/100 63/2/100
f 63/1/101 65/2/101 66/3/101
f 66/4/102 65/1/102 67/2/102
f 67/1/103 69/2/103 70/3/103
f 65/4/104 63/1/105 71/2/106
f 74/1/107 62/2/107 61/3/107
f 69/1/108 74/2/108 73/3/108
f 66/5/10 70/6/10 73/7/10
f 75/4/109 72/1/110 76/2/111
f 69/1/112 78/2/113 79/3/114
f 63/4/115 62/1/116 80/2/117
f 67/4/118 65/1/119 72/2/120
f 74/1/121 79/2/122 80/3/123
f 67/1/124 75/2/125 78/3/126
f 81/1/127 82/2/127 83/3/127
f 71/4/128 80/1/129 84/2/130
f 79/1/131 85/2/132 84/3/133
f 75/1/134 77/2/135 86/3/136
f 72/4/137 71/1/138 81/2/139
f 78/1/140 86/2/141 85/3/142
f 88/5/143 89/8/143 82/9/143
f 85/4/144 86/1/144 89/2/145
f 76/1/146 83/2/146 90/3/146
f 84/1/147 87/2/147 82/3/147
f 84/4/148 85/1/149 88/2/148
f 86/4/150 77/1/150 90/2/150
f 92/1/151 93/2/151 94/3/151
f 93/1/108 95/2/108 96/3/108
f 95/1/152 97/2/152 98/3/152
f 98/4/153 97/1/153 99/2/153
f 95/4/154 93/1/155 101/2/156
f 103/4/157 104/1/157 92/2/157
f 100/4/101 99/1/101 104/2/101
f 96/5/10 100/6/10 103/7/10
f 105/4/158 102/1/159 106/2/160
f 99/1/161 108/2/162 109/3/163
f 93/4/164 92/1/165 110/2/166
f 97/4/167 95/1/168 102/2/169
f 104/1/170 109/2/171 110/3/172
f 97/1/173 105/2/174 108/3/175
f 111/1/176 112/2/176 113/3/176
f 101/4/177 110/1/178 114/2/179
f 109/1/180 115/2/181 114/3/182
f 105/1/183 107/2/184 116/3/185
f 102/4/186 101/1/187 111/2/188
f 108/1/189 116/2/190 115/3/191
f 118/5/192 119/8/192 112/9/192
f 115/4/193 116/1/193 119/2/193
f 106/1/194 113/2/194 120/3/194
f 114/1/195 117/2/195 112/3/195
f 114/4/196 115/1/196 118/2/196
f 116/4/197 107/1/197 120/2/197
f 1/4/1 2/1/1 4/3/1
f 4/4/2 3/1/2 6/3/2
f 6/4/3 5/1/3 8/3/3
f 8/4/4 7/1/4 10/3/4
f 12/3/198 5/4/5 11/2/7
f 13/4/8 14/1/8 1/3/8
f 10/4/9 9/1/9 13/3/9
f 13/7/10 1/9/10 4/10/10
f 4/10/10 6/5/10 13/7/10
f 8/8/10 10/6/10 6/5/10
f 17/3/199 15/4/11 16/2/13
f 14/4/200 9/1/14 19/3/16
f 11/3/201 3/4/17 20/2/19
f 15/3/202 7/4/20 12/2/22
f 2/4/203 14/1/23 20/3/25
f 9/4/204 7/1/26 18/3/28
f 16/4/29 21/1/29 23/3/29
f 21/3/205 11/4/30 24/2/32
f 20/4/206 19/1/33 24/3/35
f 18/4/207 15/1/36 26/3/38
f 16/3/208 12/4/39 21/2/41
f 19/4/209 18/1/42 25/3/44
f 23/7/46 22/9/45 29/8/46
f 27/10/45 28/5/45 22/9/45
f 29/8/46 30/6/46 23/7/46
f 28/3/48 25/4/47 29/2/48
f 17/4/49 16/1/49 30/3/49
f 21/4/50 24/1/50 22/3/50
f 27/3/51 24/4/51 28/2/51
f 29/3/52 26/4/52 30/2/52
f 31/4/53 32/1/53 34/3/53
f 34/4/9 33/1/9 36/3/9
f 36/4/54 35/1/54 38/3/54
f 38/4/55 37/1/55 40/3/55
f 42/3/210 35/4/56 41/2/58
f 43/4/59 44/1/59 31/3/59
f 40/4/2 39/1/2 43/3/2
f 43/7/10 31/9/10 34/10/10
f 34/10/10 36/5/10 43/7/10
f 38/8/10 40/6/10 36/5/10
f 47/3/211 45/4/60 46/2/62
f 44/4/212 39/1/63 49/3/65
f 41/3/213 33/4/66 50/2/68
f 45/3/214 37/4/69 42/2/71
f 32/4/215 44/1/72 50/3/74
f 39/4/216 37/1/75 48/3/77
f 46/4/78 51/1/78 53/3/78
f 51/3/217 41/4/79 54/2/81
f 50/4/218 49/1/82 54/3/84
f 48/4/219 45/1/85 56/3/87
f 46/3/220 42/4/88 51/2/90
f 49/4/221 48/1/91 55/3/93
f 53/7/222 52/9/94 59/8/94
f 57/10/94 58/5/94 52/9/94
f 59/8/94 60/6/222 53/7/222
f 58/3/95 55/4/95 59/2/95
f 47/4/96 46/1/96 60/3/96
f 51/4/97 54/1/97 52/3/97
f 57/3/98 54/4/98 58/2/98
f 59/3/99 56/4/99 60/2/99
f 64/3/100 61/4/100 63/2/100
f 64/4/101 63/1/101 66/3/101
f 68/3/102 66/4/102 67/2/102
f 68/4/103 67/1/103 70/3/103
f 72/3/223 65/4/104 71/2/106
f 73/4/107 74/1/107 61/3/107
f 70/4/108 69/1/108 73/3/108
f 73/7/10 61/9/10 64/10/10
f 64/10/10 66/5/10 73/7/10
f 68/8/10 70/6/10 66/5/10
f 77/3/224 75/4/109 76/2/111
f 74/4/225 69/1/112 79/3/114
f 71/3/226 63/4/115 80/2/117
f 75/3/227 67/4/118 72/2/120
f 62/4/228 74/1/121 80/3/123
f 69/4/229 67/1/124 78/3/126
f 76/4/127 81/1/127 83/3/127
f 81/3/230 71/4/128 84/2/130
f 80/4/231 79/1/131 84/3/133
f 78/4/232 75/1/134 86/3/136
f 76/3/233 72/4/137 81/2/139
f 79/4/234 78/1/140 85/3/142
f 83/7/143 82/9/143 89/8/143
f 87/10/235 88/5/143 82/9/143
f 89/8/143 90/6/235 83/7/143
f 88/3/145 85/4/144 89/2/145
f 77/4/146 76/1/146 90/3/146
f 81/4/147 84/1/147 82/3/147
f 87/3/148 84/4/148 88/2/148
f 89/3/150 86/4/150 90/2/150
f 91/4/151 92/1/151 94/3/151
f 94/4/108 93/1/108 96/3/108
f 96/4/152 95/1/152 98/3/152
f 100/3/153 98/4/153 99/2/153
f 102/3/236 95/4/154 101/2/156
f 91/3/157 103/4/157 92/2/157
f 103/3/101 100/4/101 104/2/101
f 103/7/10 91/9/10 94/10/10
f 94/10/10 96/5/10 103/7/10
f 98/8/10 100/6/10 96/5/10
f 107/3/237 105/4/158 106/2/160
f 104/4/238 99/1/161 109/3/163
f 101/3/239 93/4/164 110/2/166
f 105/3/240 97/4/167 102/2/169
f 92/4/241 104/1/170 110/3/172
f 99/4/242 97/1/173 108/3/175
f 106/4/176 111/1/176 113/3/176
f 111/3/243 101/4/177 114/2/179
f 110/4/244 109/1/180 114/3/182
f 108/4/245 105/1/183 116/3/185
f 106/3/246 102/4/186 111/2/188
f 109/4/247 108/1/189 115/3/191
f 113/7/192 112/9/192 119/8/192
f 117/10/248 118/5/192 112/9/192
f 119/8/192 120/6/192 113/7/192
f 118/3/193 115/4/193 119/2/193
f 107/4/194 106/1/194 120/3/194
f 111/4/195 114/1/195 112/3/195
f 117/3/196 114/4/196 118/2/196
f 119/3/197 116/4/197 120/2/197
