# Blender v2.76 (sub 0) OBJ File: ''
# www.blender.org
mtllib grass_2.mtl
o grass_2
v 0.870501 -3.713280 -0.314110
v -0.696505 -3.715129 -0.696867
v -1.131264 -1.858816 -0.343843
v 0.034507 -1.787232 -0.283765
v 0.114899 -1.777059 0.283765
v -1.236470 -1.919644 0.293712
v -0.746510 -3.753271 0.283766
v 0.910537 -3.775844 0.373834
v -0.943089 -0.131287 -0.323369
v 0.103603 -0.101489 -0.221418
v -0.045798 -0.091937 0.283765
v -1.148361 -0.029464 0.283765
v 0.374868 0.927832 -0.284062
v 0.512698 1.573956 0.074981
v 1.688905 -3.731641 0.271527
v 0.201205 -3.699191 0.271527
v 1.144609 -2.078557 0.246502
v 2.489077 -2.170267 0.271526
v 2.481308 -2.128723 0.839056
v 0.781186 -2.010146 0.787570
v 0.171574 -3.739266 1.047481
v 1.642286 -3.699473 1.196463
v 1.571200 -0.558492 0.271526
v 2.452351 -0.545167 0.333873
v 2.421189 -0.499140 0.839056
v 1.222189 -0.478349 0.839056
v 1.419057 0.773494 0.366979
v 1.273624 1.517223 0.630271
vt 0.745133 0.743117
vt 0.745133 0.760298
vt 0.697737 0.760298
vt 0.746043 0.773334
vt 0.793439 0.773334
vt 0.793439 0.790514
vt 0.784748 0.790919
vt 0.801929 0.790919
vt 0.801929 0.838315
vt 0.704305 0.790919
vt 0.721486 0.790919
vt 0.721486 0.838315
vt 0.745133 0.774749
vt 0.735937 0.790919
vt 0.793439 0.758883
vt 0.816380 0.790919
vt 0.816380 0.838315
vt 0.697737 0.774749
vt 0.721486 0.790514
vt 0.736745 0.838315
vt 0.736745 0.790919
vt 0.760393 0.790919
vt 0.769792 0.743117
vt 0.746043 0.758883
vt 0.784041 0.838315
vt 0.760393 0.838315
vt 0.697737 0.743117
vt 0.746043 0.790514
vt 0.784748 0.838315
vt 0.704305 0.838315
vt 0.735937 0.838315
vt 0.784041 0.790919
vn 0.038500 0.195400 -0.980000
vn 0.007700 -0.003400 1.000000
vn -0.950400 -0.253000 -0.181000
vn 0.908000 0.396300 -0.135700
vn 0.051100 0.006300 -0.998700
vn 0.989600 -0.035400 -0.139500
vn 0.006800 0.004900 1.000000
vn -0.944300 0.042300 -0.326400
vn 0.099000 -0.086400 -0.991300
vn 0.932400 -0.228700 0.280100
vn 0.006900 0.122100 0.992500
vn -0.557900 0.490900 -0.669200
vn -0.000300 -0.015200 -0.999900
vn -0.104000 0.183600 0.977500
vn -0.943800 0.329900 -0.019000
vn 0.889000 -0.455600 0.045500
vn 0.019400 0.011000 -0.999800
vn 0.999700 0.022100 0.012100
vn -0.032000 -0.024400 0.999200
vn -0.789900 0.246300 -0.561700
vn 0.069200 0.079200 -0.994500
vn 0.787000 0.616900 -0.007700
vn 0.001800 0.104000 0.994600
vn -0.900400 -0.022300 -0.434500
vn 0.235500 0.117400 -0.964800
vn -0.053900 0.023500 0.998300
vn -0.974400 -0.217200 -0.058100
vn 0.929200 0.369000 -0.020500
vn 0.096000 0.032900 -0.994800
vn 0.955400 0.091100 0.280800
vn 0.000000 0.000000 1.000000
vn -0.982400 0.108800 -0.151700
vn 0.940800 -0.294300 0.168400
vn -0.587000 0.742400 -0.323000
vn 0.018000 -0.009200 -0.999800
vn -0.013500 0.228700 0.973400
vn -0.729500 0.416300 -0.542600
vn 0.886100 -0.459500 0.060600
vn 0.069900 0.039800 -0.996800
vn 0.997600 0.036800 0.058200
vn -0.812300 0.236700 -0.533000
vn 0.725200 0.351400 -0.592100
vn -0.854000 -0.060500 -0.516700
usemtl None
s off
f 2/1/1 3/2/1 4/3/1
f 5/4/2 6/5/2 7/6/2
f 7/7/3 6/8/3 3/9/3
f 1/10/4 4/11/4 5/12/4
f 4/3/5 3/2/5 9/13/5
f 5/12/6 4/11/6 10/14/6
f 12/15/7 6/5/7 5/4/7
f 6/8/8 12/16/8 9/17/8
f 10/18/9 9/13/9 13/19/9
f 11/20/10 10/21/10 13/22/10
f 14/23/11 12/15/11 11/24/11
f 12/25/12 14/26/12 13/22/12
f 15/27/13 16/1/13 17/2/13
f 20/5/14 21/6/14 22/28/14
f 16/29/15 21/7/15 20/8/15
f 15/10/16 18/11/16 19/12/16
f 18/3/17 17/2/17 23/13/17
f 19/12/18 18/11/18 24/14/18
f 26/15/19 20/5/19 19/4/19
f 17/9/20 20/8/20 26/16/20
f 24/18/21 23/13/21 27/19/21
f 25/20/22 24/21/22 27/22/22
f 28/23/23 26/15/23 25/24/23
f 26/25/24 28/26/24 27/22/24
f 1/27/25 2/1/25 4/3/25
f 8/28/26 5/4/26 7/6/26
f 2/29/27 7/7/27 3/9/27
f 8/30/28 1/10/28 5/12/28
f 10/18/29 4/3/29 9/13/29
f 11/31/30 5/12/30 10/14/30
f 11/24/31 12/15/31 5/4/31
f 3/9/32 6/8/32 9/17/32
f 14/26/33 11/20/33 13/22/33
f 9/32/34 12/25/34 13/22/34
f 18/3/35 15/27/35 17/2/35
f 19/4/36 20/5/36 22/28/36
f 17/9/37 16/29/37 20/8/37
f 22/30/38 15/10/38 19/12/38
f 24/18/39 18/3/39 23/13/39
f 25/31/40 19/12/40 24/14/40
f 25/24/31 26/15/31 19/4/31
f 23/17/41 17/9/41 26/16/41
f 28/26/42 25/20/42 27/22/42
f 23/32/43 26/25/43 27/22/43
