# Blender v2.76 (sub 0) OBJ File: ''
# www.blender.org
mtllib Rock5.mtl
o Icosphere.009
v 1.402264 -0.430478 -0.348549
v 0.833708 -0.279638 -0.725858
v 1.681253 -0.279639 -0.941437
v 0.418030 0.127831 -1.090402
v 0.113209 0.048529 -0.193057
v 2.108540 -0.279636 -0.387804
v 1.566344 -0.279639 0.207562
v 0.733716 -0.279638 0.106364
v 0.011790 0.432514 -0.791627
v 1.864256 0.045918 -1.365067
v 1.136763 0.048527 -1.409925
v 1.517174 0.413668 -1.668742
v 2.572654 0.084124 -0.432927
v 2.354692 0.048529 -0.953768
v 2.661909 0.439437 -0.786132
v 1.681416 0.039998 0.558367
v 2.272625 -0.062998 0.125103
v 2.110841 0.322007 0.425022
v 0.212242 -0.001033 0.535210
v 0.897793 -0.082121 0.671742
v 0.378700 0.322000 0.786991
v 0.669619 0.579522 -1.633570
v 2.253285 0.430344 -1.330943
v 2.620192 0.327773 -0.131492
v 1.263287 0.322000 0.743228
v -0.134083 0.387236 0.315314
v 1.123112 0.896708 -1.723636
v 0.468217 0.979298 -1.401422
v 1.238184 1.181161 -1.378124
v 2.400127 0.774265 -1.064424
v 1.843050 0.852995 -1.480527
v 2.007128 1.181161 -0.956701
v 2.315952 0.773692 0.057976
v 2.518776 0.852994 -0.505953
v 1.946752 1.181161 -0.275001
v 0.869730 0.773692 0.558448
v 1.667765 0.852995 0.362631
v 1.099208 1.181161 -0.073173
v 0.039713 0.773721 -0.426429
v 0.277293 0.852994 0.252786
v 0.632303 1.181159 -0.750552
v 1.402264 1.332000 -0.758025
vt 0.000000 0.000000
vt 1.000000 0.000000
vt 1.000000 1.000000
vn -0.070400 -0.958300 -0.277000
vn -0.551700 -0.793300 -0.257500
vn 0.198300 -0.968100 -0.153000
vn 0.215200 -0.956700 0.196000
vn -0.032900 -0.962100 0.270700
vn -0.702800 -0.646900 -0.295900
vn 0.046600 -0.609500 -0.791400
vn 0.808000 -0.504800 -0.303700
vn 0.498100 -0.392900 0.773000
vn -0.225500 -0.524000 0.821300
vn -0.709900 -0.343800 -0.614700
vn 0.400000 -0.328900 -0.855500
vn 0.975100 -0.220600 0.024500
vn 0.350000 -0.092200 0.932200
vn -0.676800 -0.202900 0.707700
vn -0.188900 0.788100 -0.585900
vn 0.513500 0.645600 -0.565300
vn 0.564200 0.765000 0.310500
vn 0.053700 0.830100 0.555000
vn -0.531400 0.842600 0.087500
vn -0.189400 0.973200 0.130500
vn -0.293000 0.934500 0.202000
vn -0.143200 0.854500 0.499300
vn 0.056800 0.969400 0.238700
vn 0.117800 0.861000 0.494700
vn 0.349400 0.762100 0.545100
vn 0.248700 0.968300 0.022000
vn 0.510800 0.858500 0.045200
vn 0.665400 0.706500 -0.241000
vn 0.148300 0.951200 -0.270600
vn 0.313900 0.757300 -0.572700
vn 0.266600 0.698600 -0.664000
vn -0.190700 0.964200 -0.184100
vn -0.240100 0.942700 -0.231800
vn -0.598900 0.795100 -0.095600
vn -0.725900 0.664800 0.176300
vn -0.525700 0.551300 0.647800
vn -0.275300 0.655200 0.703500
vn 0.161300 0.490800 0.856200
vn 0.326000 0.374000 0.868200
vn 0.424700 0.446900 0.787300
vn 0.834900 0.417100 0.359000
vn 0.959700 0.260600 0.105600
vn 0.852200 0.461700 -0.246100
vn 0.595900 0.317300 -0.737700
vn 0.414200 0.081200 -0.906600
vn 0.324500 0.158800 -0.932500
vn -0.388300 0.308600 -0.868300
vn -0.784500 -0.035700 -0.619100
vn -0.869800 0.391900 -0.299700
vn 0.045000 0.411600 0.910200
vn 0.048200 -0.216100 0.975200
vn 0.185500 -0.331400 0.925100
vn 0.720100 0.210300 0.661200
vn 0.722300 -0.209800 0.658900
vn 0.801900 -0.520200 0.294000
vn 0.792800 0.123900 -0.596700
vn 0.751700 -0.351500 -0.558000
vn 0.556400 -0.504500 -0.660300
vn -0.074500 -0.172400 -0.982200
vn -0.129900 -0.479700 -0.867700
vn -0.374800 -0.620000 -0.689200
vn -0.970900 0.207300 -0.119500
vn -0.885700 -0.444200 -0.134900
vn -0.761500 -0.645400 0.059600
vn -0.181600 -0.910800 0.370900
vn -0.041300 -0.939400 0.340200
vn 0.207600 -0.756000 0.620700
vn 0.299300 -0.752100 0.587100
vn 0.311300 -0.907000 0.283500
vn 0.619500 -0.774400 0.128900
vn 0.593200 -0.781100 -0.194900
vn 0.410800 -0.854900 -0.317000
vn 0.383900 -0.804800 -0.452700
vn -0.468900 -0.883300 0.003700
vn -0.446500 -0.893200 -0.053600
vn -0.238500 -0.970700 -0.028700
vn 0.034100 -0.799500 -0.599700
vn -0.120100 -0.873300 -0.472100
vn -0.319000 -0.791600 -0.521100
usemtl Material.092
s 1
f 1/1/1 2/2/1 3/3/1
f 4/1/2 2/2/2 5/3/2
f 1/1/3 3/2/3 6/3/3
f 1/1/4 6/2/4 7/3/4
f 1/1/5 7/2/5 8/3/5
f 4/1/6 5/2/6 9/3/6
f 10/1/7 11/2/7 12/3/7
f 13/1/8 14/2/8 15/3/8
f 16/1/9 17/2/9 18/3/9
f 19/1/10 20/2/10 21/3/10
f 4/1/11 9/2/11 22/3/11
f 10/1/12 12/2/12 23/3/12
f 13/1/13 15/2/13 24/3/13
f 16/1/14 18/2/14 25/3/14
f 19/1/15 21/2/15 26/3/15
f 27/1/16 28/2/16 29/3/16
f 30/1/17 31/2/17 32/3/17
f 33/1/18 34/2/18 35/3/18
f 36/1/19 37/2/19 38/3/19
f 39/1/20 40/2/20 41/3/20
f 41/1/21 38/2/21 42/3/21
f 41/1/22 40/2/22 38/3/22
f 40/1/23 36/2/23 38/3/23
f 38/1/24 35/2/24 42/3/24
f 38/1/25 37/2/25 35/3/25
f 37/1/26 33/2/26 35/3/26
f 35/1/27 32/2/27 42/3/27
f 35/1/28 34/2/28 32/3/28
f 34/1/29 30/2/29 32/3/29
f 32/1/30 29/2/30 42/3/30
f 32/1/31 31/2/31 29/3/31
f 31/1/32 27/2/32 29/3/32
f 29/1/33 41/2/33 42/3/33
f 29/1/34 28/2/34 41/3/34
f 28/1/35 39/2/35 41/3/35
f 26/1/36 40/2/36 39/3/36
f 26/1/37 21/2/37 40/3/37
f 21/1/38 36/2/38 40/3/38
f 25/1/39 37/2/39 36/3/39
f 25/1/40 18/2/40 37/3/40
f 18/1/41 33/2/41 37/3/41
f 24/1/42 34/2/42 33/3/42
f 24/1/43 15/2/43 34/3/43
f 15/1/44 30/2/44 34/3/44
f 23/1/45 31/2/45 30/3/45
f 23/1/46 12/2/46 31/3/46
f 12/1/47 27/2/47 31/3/47
f 22/1/48 28/2/48 27/3/48
f 22/1/49 9/2/49 28/3/49
f 9/1/50 39/2/50 28/3/50
f 21/1/51 25/2/51 36/3/51
f 21/1/52 20/2/52 25/3/52
f 20/1/53 16/2/53 25/3/53
f 18/1/54 24/2/54 33/3/54
f 18/1/55 17/2/55 24/3/55
f 17/1/56 13/2/56 24/3/56
f 15/1/57 23/2/57 30/3/57
f 15/1/58 14/2/58 23/3/58
f 14/1/59 10/2/59 23/3/59
f 12/1/60 22/2/60 27/3/60
f 12/1/61 11/2/61 22/3/61
f 11/1/62 4/2/62 22/3/62
f 9/1/63 26/2/63 39/3/63
f 9/1/64 5/2/64 26/3/64
f 5/1/65 19/2/65 26/3/65
f 8/1/66 20/2/66 19/3/66
f 8/1/67 7/2/67 20/3/67
f 7/1/68 16/2/68 20/3/68
f 7/1/69 17/2/69 16/3/69
f 7/1/70 6/2/70 17/3/70
f 6/1/71 13/2/71 17/3/71
f 6/1/72 14/2/72 13/3/72
f 6/1/73 3/2/73 14/3/73
f 3/1/74 10/2/74 14/3/74
f 5/1/75 8/2/75 19/3/75
f 5/1/76 2/2/76 8/3/76
f 2/1/77 1/2/77 8/3/77
f 3/1/78 11/2/78 10/3/78
f 3/1/79 2/2/79 11/3/79
f 2/1/80 4/2/80 11/3/80
