# Blender v2.76 (sub 0) OBJ File: ''
# www.blender.org
mtllib rock3.mtl
o rock3
v 0.395274 -0.444644 -2.979273
v -0.207990 -2.282380 0.113539
v 1.495290 -0.630496 -0.990749
v -0.309946 -3.424141 -5.478841
v 2.592914 -3.903797 -5.684790
v -1.202958 -3.683020 -1.071460
v 4.538489 -0.205153 -3.695401
v 3.484466 1.714275 -4.559711
v 4.899842 2.438220 -2.609629
v 3.409542 -3.687888 1.138864
v 3.278790 -0.662688 -0.260917
v 1.362866 -3.498364 1.306652
v 6.306149 -2.542348 -0.822349
v 4.805925 0.147772 -2.321453
v 4.406722 -0.851500 -1.088037
v 5.649446 -3.826044 -1.627756
v 5.306058 -3.449001 -5.325981
v 3.487486 -0.315589 -4.984349
v 2.324182 1.298596 0.251619
v 0.423238 1.344444 -2.615925
v 3.548270 2.472252 -0.346717
v 4.355966 2.474180 -2.013857
v 2.782746 3.562844 -1.814446
v 1.053842 -1.739273 -5.366128
v 1.668114 1.053795 -4.829978
v 2.670478 -3.368921 -6.319768
v -1.551638 -2.911608 -3.067976
v 2.561026 2.310720 0.052418
v 5.314814 -0.164988 -2.719657
v 6.689677 -3.005992 -2.363364
v 2.608638 1.927687 -3.490409
v 3.730430 2.488539 -2.923105
v 2.705726 3.286268 -3.016541
v 1.728758 -0.796432 -0.428617
v 4.945233 -2.276936 0.530066
v -1.028170 -1.569580 -1.950577
v 6.165250 -1.673701 -3.801417
vt 0.222912 0.799526
vt 0.223802 0.804086
vt 0.221292 0.802456
vt 0.207952 0.792166
vt 0.208252 0.796446
vt 0.201462 0.790856
vt 0.213632 0.795676
vt 0.214912 0.798506
vt 0.212032 0.799576
vt 0.198202 0.797656
vt 0.218672 0.794956
vt 0.221492 0.799136
vt 0.218482 0.799416
vt 0.214692 0.820556
vt 0.216902 0.816586
vt 0.217492 0.818056
vt 0.202272 0.800956
vt 0.216042 0.790896
vt 0.215532 0.795516
vt 0.207682 0.811226
vt 0.209512 0.814066
vt 0.205282 0.814136
vt 0.217012 0.795236
vt 0.218272 0.790336
vt 0.215942 0.810976
vt 0.217312 0.815876
vt 0.214852 0.815876
vt 0.199942 0.817576
vt 0.198752 0.815126
vt 0.201072 0.815416
vt 0.210962 0.804606
vt 0.215072 0.805506
vt 0.208562 0.806986
vt 0.203712 0.807366
vt 0.200202 0.805456
vt 0.203582 0.803736
vt 0.206462 0.817406
vt 0.209212 0.815556
vt 0.200992 0.809576
vt 0.212192 0.795736
vt 0.211612 0.796196
vt 0.209402 0.792236
vt 0.207722 0.800446
vt 0.203362 0.802486
vt 0.213062 0.808186
vt 0.208442 0.810866
vt 0.202962 0.810866
vt 0.199672 0.813786
vt 0.201182 0.813646
vt 0.211232 0.816476
vt 0.211372 0.814476
vt 0.214592 0.813616
vt 0.208512 0.810976
vt 0.220952 0.803286
vt 0.210592 0.790336
vt 0.211672 0.791546
vt 0.212562 0.819766
vt 0.211602 0.818576
vt 0.213602 0.816586
vt 0.197952 0.814246
vt 0.200042 0.811366
vt 0.202712 0.810976
vt 0.201332 0.812946
vt 0.222892 0.805856
vt 0.224112 0.804196
vt 0.225282 0.806646
vt 0.223282 0.808656
vt 0.225012 0.801046
vt 0.204402 0.790336
vt 0.206522 0.802596
vt 0.208272 0.804656
vt 0.205232 0.805706
vt 0.197952 0.794636
vt 0.213772 0.820426
vt 0.214382 0.816586
vt 0.214522 0.819966
vt 0.200032 0.802976
vt 0.208482 0.802596
vt 0.219652 0.799526
vt 0.220782 0.804306
vt 0.218382 0.802146
vt 0.204752 0.811496
vt 0.214632 0.810976
vt 0.223812 0.797346
vt 0.225282 0.799406
vt 0.220962 0.795156
vt 0.216052 0.808186
vt 0.220082 0.792066
vt 0.201402 0.818166
vt 0.209192 0.796566
vt 0.217762 0.812456
vt 0.218192 0.815826
vt 0.204552 0.814236
vt 0.219942 0.819166
vt 0.217862 0.820066
vt 0.217662 0.815986
vt 0.216222 0.797336
vt 0.209722 0.815306
vt 0.220112 0.804416
vt 0.222722 0.806666
vt 0.220762 0.808786
vt 0.209312 0.819906
vt 0.209472 0.817516
vt 0.211432 0.820686
vt 0.219732 0.790576
vn -0.519000 0.775500 0.359600
vn -0.168700 -0.981400 -0.091800
vn 0.773700 0.147400 -0.616200
vn -0.017200 -0.999300 0.033700
vn 0.112800 0.421300 0.899900
vn 0.456000 0.613600 0.644700
vn -0.019700 -0.999200 0.034000
vn 0.671300 0.453500 -0.586200
vn -0.833500 0.002300 0.552600
vn 0.588000 -0.028400 0.808400
vn 0.891800 0.133900 0.432200
vn 0.570300 0.773300 0.277200
vn -0.299400 0.243000 -0.922700
vn -0.677300 0.552000 -0.486300
vn -0.703200 0.626300 0.336600
vn -0.881300 0.268500 -0.388800
vn 0.686600 0.606400 0.401100
vn 0.552700 -0.822300 -0.135200
vn 0.179100 -0.976900 -0.116200
vn 0.344800 0.297200 -0.890400
vn -0.723500 0.687800 0.059300
vn 0.186600 0.351300 -0.917500
vn 0.587000 0.708000 -0.392600
vn -0.424800 0.325100 -0.844900
vn -0.903100 0.123100 0.411400
vn -0.473400 0.771900 0.424400
vn 0.720900 -0.593400 0.358000
vn 0.482700 -0.629200 0.609200
vn 0.156400 0.883500 -0.441500
vn -0.262600 0.882100 -0.391100
vn 0.478400 0.731800 0.485400
vn 0.565500 0.703100 0.431100
vn -0.350200 0.833700 0.427000
vn -0.645600 -0.743400 -0.174500
vn -0.866700 0.251000 0.431100
vn -0.078000 -0.984000 0.160500
vn 0.047500 0.998700 -0.016900
vn 0.641000 0.069900 0.764300
vn -0.671400 0.574700 -0.468000
vn -0.265700 0.276800 -0.923500
vn 0.387300 0.485600 -0.783700
vn 0.892200 0.442900 0.088800
vn -0.875300 -0.083100 0.476400
vn -0.407700 0.187900 -0.893600
vn 0.770800 0.149100 -0.619400
vn 0.744500 0.284500 -0.604000
vn -0.667000 -0.144500 0.730900
vn -0.193200 0.548600 0.813500
vn 0.762400 0.133600 -0.633100
vn 0.071000 0.204300 -0.976300
vn 0.450100 -0.014300 0.892900
vn 0.092800 0.821800 0.562200
vn -0.168800 -0.743600 -0.647000
vn 0.208800 -0.760400 -0.615000
vn 0.739100 0.054200 0.671400
vn 0.910300 0.123800 0.395000
vn -0.725000 0.585200 -0.363200
vn -0.955700 0.176900 0.235300
vn 0.535700 0.814800 -0.221800
vn -0.655600 0.744000 -0.129200
vn 0.668300 -0.483500 0.565300
vn -0.025000 0.418900 0.907700
vn -0.250900 0.889100 -0.382900
vn 0.310700 0.293200 -0.904200
vn -0.136600 0.548400 0.825000
vn -0.078500 -0.287600 0.954500
vn 0.907600 -0.086300 -0.410900
vn 0.630600 0.670300 0.391100
vn -0.795300 0.290800 0.531900
vn 0.359100 0.098600 0.928100
usemtl None
s off
f 1/1/1 2/2/1 3/3/1
f 4/4/2 5/5/2 6/6/2
f 7/7/3 8/8/3 9/9/3
f 10/10/4 6/6/4 5/5/4
f 11/11/5 12/12/5 10/13/5
f 13/14/6 14/15/6 15/16/6
f 16/17/7 10/10/7 5/5/7
f 17/18/8 18/19/8 7/7/8
f 3/20/9 19/21/9 20/22/9
f 15/23/10 21/24/10 11/11/10
f 15/25/11 22/26/11 21/27/11
f 21/28/12 22/29/12 23/30/12
f 24/31/13 25/32/13 26/33/13
f 1/34/14 24/35/14 27/36/14
f 23/37/15 20/22/15 28/38/15
f 1/34/16 25/39/16 24/35/16
f 29/40/17 14/41/17 13/42/17
f 17/43/18 30/44/18 16/17/18
f 16/17/19 5/5/19 17/43/19
f 26/33/20 18/45/20 17/46/20
f 1/34/21 31/47/21 25/39/21
f 26/33/22 25/32/22 18/45/22
f 32/48/23 33/49/23 22/29/23
f 33/50/24 31/51/24 20/52/24
f 19/21/25 3/20/25 34/53/25
f 2/2/26 34/54/26 3/3/26
f 13/42/27 16/55/27 30/56/27
f 16/57/28 13/58/28 35/59/28
f 9/60/29 8/61/29 32/48/29
f 25/62/30 31/63/30 8/61/30
f 15/64/31 11/65/31 35/66/31
f 13/67/32 15/64/32 35/66/32
f 36/68/33 2/2/33 1/1/33
f 27/69/34 4/4/34 6/6/34
f 6/70/35 2/71/35 36/72/35
f 10/10/36 12/73/36 6/6/36
f 9/60/37 32/48/37 22/29/37
f 29/74/38 9/75/38 14/76/38
f 27/36/39 24/35/39 4/77/39
f 26/33/40 4/78/40 24/31/40
f 17/79/41 7/80/41 37/81/41
f 13/42/42 30/56/42 29/40/42
f 1/82/43 3/20/43 20/22/43
f 1/83/44 20/52/44 31/51/44
f 7/7/45 9/9/45 29/40/45
f 7/7/46 29/40/46 30/56/46
f 2/84/47 6/85/47 12/12/47
f 12/12/48 34/86/48 2/84/48
f 18/19/49 8/8/49 7/7/49
f 25/32/50 8/87/50 18/45/50
f 21/24/51 19/88/51 11/11/51
f 28/89/52 21/28/52 23/30/52
f 4/4/53 26/90/53 5/5/53
f 26/90/54 17/43/54 5/5/54
f 14/91/55 9/92/55 22/26/55
f 22/26/56 15/25/56 14/91/56
f 36/72/57 1/34/57 27/36/57
f 36/72/58 27/36/58 6/70/58
f 22/29/59 33/49/59 23/30/59
f 23/30/60 33/49/60 20/93/60
f 35/94/61 10/95/61 16/96/61
f 11/11/62 10/13/62 35/97/62
f 32/48/63 8/61/63 31/63/63
f 33/50/64 32/98/64 31/51/64
f 11/11/65 34/86/65 12/12/65
f 34/86/66 11/11/66 19/88/66
f 17/99/67 37/100/67 30/101/67
f 37/102/68 7/103/68 30/104/68
f 28/38/69 20/22/69 19/21/69
f 19/88/70 21/24/70 28/105/70
