# Blender v2.76 (sub 0) OBJ File: ''
# www.blender.org
mtllib Rock6.mtl
o Icosphere.010
v 0.715903 -0.035188 -1.752044
v 0.706417 0.100114 -1.715055
v 0.820823 0.008968 -1.813206
v 0.794361 0.184791 -1.661640
v 0.750224 0.063955 -1.605474
v 0.823270 -0.182979 -1.797834
v 0.773638 -0.204150 -1.721815
v 0.688558 -0.020066 -1.647385
v 0.838831 0.165303 -1.570651
v 0.954682 0.013231 -1.829488
v 0.877185 0.115539 -1.777658
v 1.035608 0.073957 -1.783690
v 0.940206 -0.287868 -1.770565
v 0.960775 -0.130481 -1.812892
v 1.053513 -0.240516 -1.742413
v 0.862676 -0.331473 -1.665349
v 0.859515 -0.341480 -1.732515
v 0.943583 -0.393680 -1.640408
v 0.708107 -0.003732 -1.525053
v 0.733493 -0.154388 -1.578674
v 0.804955 -0.092436 -1.468446
v 0.971154 0.198254 -1.670293
v 1.086230 -0.063774 -1.787346
v 0.977760 -0.368570 -1.699453
v 0.915892 -0.298312 -1.583271
v 0.802219 0.042831 -1.475096
v 1.117882 0.134135 -1.669430
v 1.044130 0.180937 -1.563342
v 1.193918 0.056892 -1.598886
v 1.159618 -0.143802 -1.704093
v 1.176401 0.006418 -1.708044
v 1.237491 -0.105452 -1.600909
v 1.062636 -0.360645 -1.584266
v 1.128066 -0.283384 -1.632446
v 1.193353 -0.236846 -1.537663
v 1.031478 -0.200291 -1.503628
v 1.074944 -0.311343 -1.535503
v 1.176568 -0.138949 -1.501434
v 0.947392 0.077263 -1.506498
v 0.988717 -0.051395 -1.457217
v 1.134736 0.015969 -1.522737
v 1.233672 -0.058382 -1.528983
v 0.739311 -0.415359 -0.622262
v 1.097071 -0.288332 -0.897002
v 1.059026 -0.462072 -0.337409
v 1.427348 0.003461 -0.841524
v 0.969075 0.097645 -0.834477
v 0.485781 -0.447528 -0.048887
v 0.298599 -0.280628 -0.232373
v 0.668245 -0.125276 -0.830481
v 1.363209 0.336199 -0.783618
v 1.267569 -0.341422 0.042319
v 1.423709 -0.261246 -0.384379
v 1.523368 -0.086444 0.123550
v 0.317238 -0.234772 0.408020
v 0.840438 -0.309476 0.264781
v 0.591293 0.004529 0.617778
v 0.003920 -0.017659 0.151875
v 0.020191 -0.230173 0.228830
v -0.086706 0.150165 0.445579
v 0.651977 0.278940 -0.929651
v 0.283250 0.118065 -0.569848
v 0.481623 0.559471 -0.583923
v 1.716260 0.203808 -0.365579
v 1.190106 -0.059150 0.480742
v 0.078190 0.016598 0.562585
v 0.113449 0.308605 0.161531
v 0.881088 0.560808 -0.794406
v 1.728360 0.380762 0.137848
v 1.685766 0.622247 -0.249062
v 1.552774 0.679890 0.393818
v 0.993208 0.275191 0.720454
v 1.461493 0.312405 0.537804
v 1.136146 0.698661 0.768046
v 0.132218 0.480200 0.664170
v 0.485484 0.429479 0.775145
v 0.641508 0.812650 0.784079
v 0.501426 0.718675 0.245176
v 0.257925 0.655054 0.570706
v 0.879676 0.921083 0.548033
v 1.205271 0.654941 -0.414482
v 0.846482 0.834984 -0.152304
v 1.294225 0.831378 0.214489
v 1.215860 0.923879 0.609356
vt 0.000000 0.000000
vt 1.000000 0.000000
vt 1.000000 1.000000
vn -0.551600 0.183800 -0.813600
vn -0.745100 0.485000 0.457900
vn -0.478000 -0.076200 -0.875000
vn -0.734700 -0.354500 -0.578400
vn -0.918200 -0.347700 -0.189700
vn -0.739400 0.486400 0.465500
vn 0.101200 0.509500 -0.854500
vn 0.341800 -0.285500 -0.895400
vn -0.630600 -0.762700 0.143300
vn -0.688100 -0.343400 0.639200
vn -0.062200 0.969300 0.238000
vn 0.388000 0.166700 -0.906500
vn 0.398700 -0.494900 -0.772100
vn -0.595200 -0.533100 0.601300
vn -0.481400 0.033300 0.875900
vn 0.650000 0.750300 0.120900
vn 0.812200 -0.105800 -0.573700
vn 0.707400 -0.691200 -0.147800
vn 0.088100 -0.242800 0.966100
vn 0.210500 0.407900 0.888400
vn 0.200900 0.186500 0.961700
vn 0.316700 0.212600 0.924400
vn 0.099600 -0.269900 0.957700
vn 0.619000 -0.177100 0.765200
vn 0.210300 -0.307400 0.928100
vn 0.441100 -0.684300 0.580600
vn 0.954000 -0.225200 0.198000
vn 0.824500 -0.445100 -0.349400
vn 0.794900 -0.409500 -0.447700
vn 0.958600 0.258800 -0.118400
vn 0.930100 0.253000 -0.266200
vn 0.807300 0.475600 -0.349400
vn 0.471200 0.570400 0.672700
vn 0.554200 0.473000 0.684900
vn 0.188500 0.331100 0.924600
vn 0.106800 0.385400 0.916500
vn -0.071500 0.047500 0.996300
vn 0.007600 -0.295600 0.955300
vn -0.295000 -0.368500 0.881600
vn -0.281000 -0.552000 0.785100
vn -0.152800 -0.675400 0.721400
vn 0.578100 -0.724100 -0.376100
vn 0.579200 -0.545800 -0.605500
vn 0.641200 -0.460200 -0.614100
vn 0.698700 -0.096700 -0.708900
vn 0.541600 0.220600 -0.811100
vn 0.581900 0.467800 -0.665300
vn 0.397900 0.908900 -0.124400
vn -0.081700 0.973500 0.213400
vn -0.070400 0.529300 0.845500
vn -0.124100 -0.533500 0.836700
vn -0.464300 -0.608900 0.643200
vn -0.494800 -0.645600 0.581700
vn 0.345100 -0.918900 -0.191000
vn -0.085200 -0.898200 -0.431300
vn 0.066400 -0.642100 -0.763800
vn 0.553900 -0.300000 -0.776600
vn 0.336700 -0.290100 -0.895800
vn 0.249600 -0.100600 -0.963100
vn 0.319900 0.723700 -0.611500
vn 0.160000 0.709300 -0.686500
vn -0.090100 0.825500 -0.557100
vn 0.026600 0.610000 0.792000
vn -0.756000 0.528000 0.387000
vn -0.556800 0.755800 0.344500
vn -0.956700 -0.226400 0.183100
vn -0.919000 -0.372900 -0.128100
vn -0.813700 -0.580700 -0.026300
vn -0.837700 -0.533100 0.118800
vn -0.712200 -0.400500 -0.576500
vn -0.154600 -0.406500 -0.900500
vn -0.006900 -0.258900 -0.965900
vn -0.078100 -0.080600 -0.993700
vn -0.116200 -0.118800 -0.986100
vn -0.817700 0.573100 0.054100
vn -0.812600 0.373000 0.447900
vn -0.967500 0.001300 -0.253000
vn -0.123700 0.372300 -0.919800
vn -0.342400 0.455200 -0.821900
vn -0.297700 0.711100 -0.637000
vn 0.117000 -0.950700 -0.287200
vn 0.019000 0.166000 -0.985900
vn -0.068500 -0.993900 -0.086100
vn -0.486500 -0.833500 -0.261900
vn -0.643000 -0.544300 -0.538800
vn 0.020900 0.175300 -0.984300
vn 0.682900 -0.721500 0.114300
vn 0.088900 -0.712200 0.696300
vn -0.965600 -0.150700 -0.211900
vn -0.729900 0.308600 -0.610000
vn 0.777300 0.250300 -0.577200
vn 0.509800 -0.679500 0.527600
vn -0.100100 -0.588500 0.802300
vn -0.850600 0.298400 -0.433000
vn -0.364800 0.626900 -0.688400
vn 0.903500 0.401200 0.150900
vn 0.369500 -0.226000 0.901300
vn -0.286000 0.094200 0.953600
vn -0.394300 0.911500 -0.116800
vn 0.248300 0.923000 -0.294000
vn 0.032400 0.974500 -0.221900
vn 0.111500 0.985700 -0.126500
vn -0.411600 0.906700 -0.092000
vn -0.072500 0.932100 0.355000
vn -0.392400 0.919400 0.026400
vn -0.552600 0.665500 0.501800
vn 0.149900 0.533500 0.832400
vn 0.024700 -0.033400 0.999100
vn 0.066000 -0.133400 0.988900
vn 0.650100 0.270300 0.710200
vn 0.666200 0.122700 0.735600
vn 0.830900 0.011600 0.556400
vn 0.547500 0.832300 -0.086300
vn 0.492900 0.869700 0.024000
vn 0.163300 0.943700 -0.287800
vn 0.179400 0.908200 -0.378100
vn -0.210300 0.895000 -0.393500
vn -0.471600 0.868000 -0.155400
vn -0.644200 0.680700 -0.348900
vn -0.778900 0.586600 -0.221700
vn -0.820900 0.569800 -0.038100
vn -0.317300 -0.167600 0.933400
vn -0.108000 -0.368800 0.923200
vn -0.004900 -0.348300 0.937400
vn 0.361000 -0.393500 0.845400
vn 0.599500 -0.530000 0.599800
vn 0.801700 -0.366200 0.472400
vn 0.994600 0.087700 -0.054700
vn 0.778500 0.220400 -0.587700
vn 0.249400 0.783200 -0.569600
vn -0.709500 0.695000 -0.116500
vn -0.873000 0.382700 -0.302400
vn -0.904300 0.312200 -0.291300
vn -0.626700 -0.096400 0.773200
vn -0.732000 -0.480800 0.482700
vn -0.368900 -0.715600 0.593200
vn 0.137000 -0.522600 0.841500
vn 0.082900 -0.714800 0.694400
vn 0.229400 -0.799400 0.555200
vn 0.907800 -0.402000 0.119500
vn 0.846000 -0.532900 0.017400
vn 0.816700 -0.502200 -0.284300
vn 0.372600 0.775300 -0.510000
vn 0.068300 0.098900 -0.992800
vn 0.361100 0.148200 -0.920700
vn -0.635100 -0.208100 -0.743900
vn -0.679400 -0.489100 -0.546900
vn -0.842300 -0.366800 -0.395000
vn -0.842600 -0.239200 -0.482500
vn -0.518200 -0.825800 -0.222500
vn -0.221300 -0.912800 0.343400
vn -0.015500 -0.908600 0.417400
vn 0.118900 -0.951300 0.284200
vn 0.067800 -0.961000 0.268100
vn 0.157200 -0.229300 -0.960600
vn -0.105600 0.124800 -0.986500
vn -0.340900 -0.601900 -0.722200
vn 0.483600 -0.875200 0.012500
vn 0.444900 -0.863400 -0.237800
vn 0.647800 -0.661500 -0.377900
usemtl Material.093
s 1
f 1/1/1 2/2/1 3/3/1
f 4/1/2 2/2/2 5/3/2
f 1/1/3 3/2/3 6/3/3
f 1/1/4 6/2/4 7/3/4
f 1/1/5 7/2/5 8/3/5
f 4/1/6 5/2/6 9/3/6
f 10/1/7 11/2/7 12/3/7
f 13/1/8 14/2/8 15/3/8
f 16/1/9 17/2/9 18/3/9
f 19/1/10 20/2/10 21/3/10
f 4/1/11 9/2/11 22/3/11
f 10/1/12 12/2/12 23/3/12
f 13/1/13 15/2/13 24/3/13
f 16/1/14 18/2/14 25/3/14
f 19/1/15 21/2/15 26/3/15
f 27/1/16 28/2/16 29/3/16
f 30/1/17 31/2/17 32/3/17
f 33/1/18 34/2/18 35/3/18
f 36/1/19 37/2/19 38/3/19
f 39/1/20 40/2/20 41/3/20
f 41/1/21 38/2/21 42/3/21
f 41/1/22 40/2/22 38/3/22
f 40/1/23 36/2/23 38/3/23
f 38/1/24 35/2/24 42/3/24
f 38/1/25 37/2/25 35/3/25
f 37/1/26 33/2/26 35/3/26
f 35/1/27 32/2/27 42/3/27
f 35/1/28 34/2/28 32/3/28
f 34/1/29 30/2/29 32/3/29
f 32/1/30 29/2/30 42/3/30
f 32/1/31 31/2/31 29/3/31
f 31/1/32 27/2/32 29/3/32
f 29/1/33 41/2/33 42/3/33
f 29/1/34 28/2/34 41/3/34
f 28/1/35 39/2/35 41/3/35
f 26/1/36 40/2/36 39/3/36
f 26/1/37 21/2/37 40/3/37
f 21/1/38 36/2/38 40/3/38
f 25/1/39 37/2/39 36/3/39
f 25/1/40 18/2/40 37/3/40
f 18/1/41 33/2/41 37/3/41
f 24/1/42 34/2/42 33/3/42
f 24/1/43 15/2/43 34/3/43
f 15/1/44 30/2/44 34/3/44
f 23/1/45 31/2/45 30/3/45
f 23/1/46 12/2/46 31/3/46
f 12/1/47 27/2/47 31/3/47
f 22/1/48 28/2/48 27/3/48
f 22/1/49 9/2/49 28/3/49
f 9/1/50 39/2/50 28/3/50
f 21/1/51 25/2/51 36/3/51
f 21/1/52 20/2/52 25/3/52
f 20/1/53 16/2/53 25/3/53
f 18/1/54 24/2/54 33/3/54
f 18/1/55 17/2/55 24/3/55
f 17/1/56 13/2/56 24/3/56
f 15/1/57 23/2/57 30/3/57
f 15/1/58 14/2/58 23/3/58
f 14/1/59 10/2/59 23/3/59
f 12/1/60 22/2/60 27/3/60
f 12/1/61 11/2/61 22/3/61
f 11/1/62 4/2/62 22/3/62
f 9/1/63 26/2/63 39/3/63
f 9/1/64 5/2/64 26/3/64
f 5/1/65 19/2/65 26/3/65
f 8/1/66 20/2/66 19/3/66
f 8/1/67 7/2/67 20/3/67
f 7/1/68 16/2/68 20/3/68
f 7/1/69 17/2/69 16/3/69
f 7/1/70 6/2/70 17/3/70
f 6/1/71 13/2/71 17/3/71
f 6/1/72 14/2/72 13/3/72
f 6/1/73 3/2/73 14/3/73
f 3/1/74 10/2/74 14/3/74
f 5/1/75 8/2/75 19/3/75
f 5/1/76 2/2/76 8/3/76
f 2/1/77 1/2/77 8/3/77
f 3/1/78 11/2/78 10/3/78
f 3/1/79 2/2/79 11/3/79
f 2/1/80 4/2/80 11/3/80
f 43/1/81 44/2/81 45/3/81
f 46/1/82 44/2/82 47/3/82
f 43/1/83 45/2/83 48/3/83
f 43/1/84 48/2/84 49/3/84
f 43/1/85 49/2/85 50/3/85
f 46/1/86 47/2/86 51/3/86
f 52/1/87 53/2/87 54/3/87
f 55/1/88 56/2/88 57/3/88
f 58/1/89 59/2/89 60/3/89
f 61/1/90 62/2/90 63/3/90
f 46/1/91 51/2/91 64/3/91
f 52/1/92 54/2/92 65/3/92
f 55/1/93 57/2/93 66/3/93
f 58/1/94 60/2/94 67/3/94
f 61/1/95 63/2/95 68/3/95
f 69/1/96 70/2/96 71/3/96
f 72/1/97 73/2/97 74/3/97
f 75/1/98 76/2/98 77/3/98
f 78/1/99 79/2/99 80/3/99
f 81/1/100 82/2/100 83/3/100
f 83/1/101 80/2/101 84/3/101
f 83/1/102 82/2/102 80/3/102
f 82/1/103 78/2/103 80/3/103
f 80/1/104 77/2/104 84/3/104
f 80/1/105 79/2/105 77/3/105
f 79/1/106 75/2/106 77/3/106
f 77/1/107 74/2/107 84/3/107
f 77/1/108 76/2/108 74/3/108
f 76/1/109 72/2/109 74/3/109
f 74/1/110 71/2/110 84/3/110
f 74/1/111 73/2/111 71/3/111
f 73/1/112 69/2/112 71/3/112
f 71/1/113 83/2/113 84/3/113
f 71/1/114 70/2/114 83/3/114
f 70/1/115 81/2/115 83/3/115
f 68/1/116 82/2/116 81/3/116
f 68/1/117 63/2/117 82/3/117
f 63/1/118 78/2/118 82/3/118
f 67/1/119 79/2/119 78/3/119
f 67/1/120 60/2/120 79/3/120
f 60/1/121 75/2/121 79/3/121
f 66/1/122 76/2/122 75/3/122
f 66/1/123 57/2/123 76/3/123
f 57/1/124 72/2/124 76/3/124
f 65/1/125 73/2/125 72/3/125
f 65/1/126 54/2/126 73/3/126
f 54/1/127 69/2/127 73/3/127
f 64/1/128 70/2/128 69/3/128
f 64/1/129 51/2/129 70/3/129
f 51/1/130 81/2/130 70/3/130
f 63/1/131 67/2/131 78/3/131
f 63/1/132 62/2/132 67/3/132
f 62/1/133 58/2/133 67/3/133
f 60/1/134 66/2/134 75/3/134
f 60/1/135 59/2/135 66/3/135
f 59/1/136 55/2/136 66/3/136
f 57/1/137 65/2/137 72/3/137
f 57/1/138 56/2/138 65/3/138
f 56/1/139 52/2/139 65/3/139
f 54/1/140 64/2/140 69/3/140
f 54/1/141 53/2/141 64/3/141
f 53/1/142 46/2/142 64/3/142
f 51/1/143 68/2/143 81/3/143
f 51/1/144 47/2/144 68/3/144
f 47/1/145 61/2/145 68/3/145
f 50/1/146 62/2/146 61/3/146
f 50/1/147 49/2/147 62/3/147
f 49/1/148 58/2/148 62/3/148
f 49/1/149 59/2/149 58/3/149
f 49/1/150 48/2/150 59/3/150
f 48/1/151 55/2/151 59/3/151
f 48/1/152 56/2/152 55/3/152
f 48/1/153 45/2/153 56/3/153
f 45/1/154 52/2/154 56/3/154
f 47/1/155 50/2/155 61/3/155
f 47/1/156 44/2/156 50/3/156
f 44/1/157 43/2/157 50/3/157
f 45/1/158 53/2/158 52/3/158
f 45/1/159 44/2/159 53/3/159
f 44/1/160 46/2/160 53/3/160
