# Blender v2.76 (sub 0) OBJ File: ''
# www.blender.org
mtllib bed1.mtl
o bed1
v 1.303047 0.344024 0.838326
v -1.296881 0.344024 0.838326
v -1.296881 0.344024 -0.829918
v 1.303047 0.344024 -0.829919
v -1.296881 0.408017 -0.893912
v -1.296881 0.613374 -0.893912
v 1.303047 0.613374 -0.893912
v 1.303047 0.408017 -0.893912
v 1.367041 0.613374 -0.829919
v 1.367041 0.613374 0.838326
v 1.367041 0.408017 0.838326
v 1.367041 0.408017 -0.829919
v -1.360875 0.408017 0.838326
v -1.360875 0.613374 0.838326
v -1.360875 0.613374 -0.829918
v -1.360875 0.408017 -0.829918
v -1.296881 0.677367 -0.829918
v -1.296881 0.677367 0.838326
v 1.303047 0.677367 0.838326
v 1.303047 0.677367 -0.829919
v -1.296881 0.613374 0.902320
v -1.296881 0.408017 0.902320
v 1.303047 0.408017 0.902320
v 1.303047 0.613374 0.902320
v 1.335044 0.352597 -0.829919
v 1.335044 0.352597 0.838326
v 1.358467 0.376021 -0.829919
v 1.358467 0.376021 0.838326
v 1.303047 0.376021 -0.885339
v -1.296881 0.376020 -0.885339
v 1.303047 0.352597 -0.861915
v -1.296881 0.352597 -0.861915
v 1.358467 0.408017 -0.861915
v 1.358467 0.613374 -0.861915
v 1.335044 0.408017 -0.885339
v 1.335044 0.613374 -0.885339
v -1.352302 0.376020 -0.829918
v -1.352302 0.376021 0.838326
v -1.328878 0.352597 -0.829918
v -1.328878 0.352597 0.838326
v -1.328878 0.408017 -0.885339
v -1.328878 0.613374 -0.885339
v -1.352302 0.408017 -0.861915
v -1.352302 0.613374 -0.861915
v 1.358467 0.645371 -0.829919
v 1.358467 0.645371 0.838326
v 1.335044 0.668794 -0.829919
v 1.335044 0.668794 0.838326
v 1.303047 0.668794 -0.861915
v -1.296881 0.668794 -0.861915
v 1.303047 0.645371 -0.885339
v -1.296881 0.645371 -0.885339
v -1.328878 0.668794 -0.829918
v -1.328878 0.668794 0.838326
v -1.352302 0.645371 -0.829918
v -1.352302 0.645371 0.838326
v 1.358467 0.613374 0.870323
v 1.358467 0.408017 0.870323
v 1.335044 0.613374 0.893746
v 1.335044 0.408017 0.893746
v 1.303047 0.645371 0.893746
v -1.296881 0.645371 0.893747
v 1.303047 0.668794 0.870323
v -1.296881 0.668794 0.870323
v -1.328878 0.613374 0.893747
v -1.328878 0.408017 0.893747
v -1.352302 0.613374 0.870323
v -1.352302 0.408017 0.870323
v 1.303047 0.352597 0.870323
v -1.296881 0.352597 0.870323
v 1.303047 0.376021 0.893746
v -1.296881 0.376021 0.893747
v 1.351042 0.378164 -0.859772
v 1.332901 0.360022 -0.859772
v 1.332901 0.378164 -0.877914
v -1.326735 0.360022 -0.859772
v -1.344877 0.378164 -0.859772
v -1.326735 0.378164 -0.877914
v 1.332901 0.661369 -0.859772
v 1.351042 0.643227 -0.859772
v 1.332901 0.643227 -0.877914
v -1.344877 0.643227 -0.859772
v -1.326735 0.661369 -0.859772
v -1.326735 0.643227 -0.877914
v 1.332901 0.643227 0.886322
v 1.351042 0.643227 0.868180
v 1.332901 0.661369 0.868180
v -1.344877 0.643227 0.868180
v -1.326735 0.643227 0.886322
v -1.326735 0.661369 0.868180
v 1.332901 0.360022 0.868180
v 1.351042 0.378164 0.868180
v 1.332901 0.378164 0.886322
v -1.344877 0.378164 0.868180
v -1.326735 0.360022 0.868180
v -1.326735 0.378164 0.886322
v 1.388806 0.339355 -0.841420
v 1.388806 0.339355 -0.887136
v -1.375905 0.339355 -0.887136
v -1.375905 0.339355 -0.841420
v -1.375905 0.251066 -0.841420
v -1.375905 0.251066 -0.887136
v 1.388806 0.251066 -0.887136
v 1.388806 0.251066 -0.841420
v 1.388806 0.339355 0.896844
v 1.388806 0.339355 0.851128
v -1.375905 0.339355 0.851128
v -1.375905 0.339355 0.896844
v -1.375905 0.251066 0.896844
v -1.375905 0.251066 0.851128
v 1.388806 0.251066 0.851128
v 1.388806 0.251066 0.896844
v -1.368441 0.005635 -0.902320
v -1.459852 0.005635 -0.902320
v -1.459852 1.280613 -0.902320
v -1.368441 1.280613 -0.902320
v -1.459852 1.280613 -0.832836
v -1.368441 1.280613 -0.832836
v -1.459852 0.005635 -0.832836
v -1.368441 0.005635 -0.832836
v -1.389846 1.182811 0.860843
v -1.438447 1.182811 0.860843
v -1.438447 1.182811 -0.848947
v -1.389846 1.182811 -0.848947
v -1.389846 1.239794 -0.848947
v -1.438447 1.239794 -0.848947
v -1.438447 1.239794 0.860843
v -1.389846 1.239794 0.860843
v -1.394739 0.685949 0.500490
v -1.433554 0.685949 0.500490
v -1.433554 1.213292 0.500490
v -1.394739 1.213292 0.500490
v -1.394739 1.213292 0.557473
v -1.433554 1.213292 0.557473
v -1.433554 0.685949 0.557473
v -1.394739 0.685949 0.557473
v -1.394739 0.685949 0.169326
v -1.433554 0.685949 0.169326
v -1.433554 1.213292 0.169326
v -1.394739 1.213292 0.169326
v -1.394739 1.213292 0.226309
v -1.433554 1.213292 0.226309
v -1.433554 0.685949 0.226309
v -1.394739 0.685949 0.226309
v -1.394739 0.685949 -0.164489
v -1.433554 0.685949 -0.164489
v -1.433554 1.213292 -0.164489
v -1.394739 1.213292 -0.164489
v -1.394739 1.213292 -0.107506
v -1.433554 1.213292 -0.107506
v -1.433554 0.685949 -0.107506
v -1.394739 0.685949 -0.107506
v -1.394739 0.685949 -0.550755
v -1.433554 0.685949 -0.550755
v -1.433554 1.213292 -0.550755
v -1.394739 1.213292 -0.550755
v -1.394739 1.213292 -0.493772
v -1.433554 1.213292 -0.493772
v -1.433554 0.685949 -0.493772
v -1.394739 0.685949 -0.493772
v -1.389846 0.679815 0.860843
v -1.438447 0.679815 0.860843
v -1.438447 0.679815 -0.848947
v -1.389846 0.679815 -0.848947
v -1.389846 0.736798 -0.848947
v -1.438447 0.736798 -0.848947
v -1.438447 0.736798 0.860843
v -1.389846 0.736798 0.860843
v -1.368441 0.005635 0.832836
v -1.459852 0.005635 0.832836
v -1.459852 1.280613 0.832836
v -1.368441 1.280613 0.832836
v -1.459852 1.280613 0.902320
v -1.368441 1.280613 0.902320
v -1.459852 0.005635 0.902320
v -1.368441 0.005635 0.902320
v -1.389846 0.344894 0.860843
v -1.438447 0.344894 0.860843
v -1.438447 0.344894 -0.848947
v -1.389846 0.344894 -0.848947
v -1.389846 0.401877 -0.848947
v -1.438447 0.401877 -0.848947
v -1.438447 0.401877 0.860843
v -1.389846 0.401877 0.860843
v 1.459852 0.005635 -0.902320
v 1.368441 0.005635 -0.902320
v 1.368441 1.280613 -0.902320
v 1.459852 1.280613 -0.902320
v 1.368441 1.280613 -0.832836
v 1.459852 1.280613 -0.832836
v 1.368441 0.005635 -0.832836
v 1.459852 0.005635 -0.832836
v 1.438447 1.182811 0.860843
v 1.389846 1.182811 0.860843
v 1.389846 1.182811 -0.848947
v 1.438447 1.182811 -0.848947
v 1.438447 1.239794 -0.848947
v 1.389846 1.239794 -0.848947
v 1.389846 1.239794 0.860843
v 1.438447 1.239794 0.860843
v 1.433554 0.685949 0.500490
v 1.394739 0.685949 0.500490
v 1.394739 1.213292 0.500490
v 1.433554 1.213292 0.500490
v 1.433554 1.213292 0.557473
v 1.394739 1.213292 0.557473
v 1.394739 0.685949 0.557473
v 1.433554 0.685949 0.557473
v 1.433554 0.685949 0.169326
v 1.394739 0.685949 0.169326
v 1.394739 1.213292 0.169326
v 1.433554 1.213292 0.169326
v 1.433554 1.213292 0.226309
v 1.394739 1.213292 0.226309
v 1.394739 0.685949 0.226309
v 1.433554 0.685949 0.226309
v 1.433554 0.685949 -0.164489
v 1.394739 0.685949 -0.164489
v 1.394739 1.213292 -0.164489
v 1.433554 1.213292 -0.164489
v 1.433554 1.213292 -0.107506
v 1.394739 1.213292 -0.107506
v 1.394739 0.685949 -0.107506
v 1.433554 0.685949 -0.107506
v 1.433554 0.685949 -0.550755
v 1.394739 0.685949 -0.550755
v 1.394739 1.213292 -0.550755
v 1.433554 1.213292 -0.550755
v 1.433554 1.213292 -0.493772
v 1.394739 1.213292 -0.493772
v 1.394739 0.685949 -0.493772
v 1.433554 0.685949 -0.493772
v 1.438447 0.679815 0.860843
v 1.389846 0.679815 0.860843
v 1.389846 0.679815 -0.848947
v 1.438447 0.679815 -0.848947
v 1.438447 0.736798 -0.848947
v 1.389846 0.736798 -0.848947
v 1.389846 0.736798 0.860843
v 1.438447 0.736798 0.860843
v 1.459852 0.005635 0.832836
v 1.368441 0.005635 0.832836
v 1.368441 1.280613 0.832836
v 1.459852 1.280613 0.832836
v 1.368441 1.280613 0.902320
v 1.459852 1.280613 0.902320
v 1.368441 0.005635 0.902320
v 1.459852 0.005635 0.902320
v 1.438447 0.344894 0.860843
v 1.389846 0.344894 0.860843
v 1.389846 0.344894 -0.848947
v 1.438447 0.344894 -0.848947
v 1.438447 0.401877 -0.848947
v 1.389846 0.401877 -0.848947
v 1.389846 0.401877 0.860843
v 1.438447 0.401877 0.860843
vt 0.625000 0.250000
vt 0.625000 0.500000
vt 0.375000 0.500000
vt 0.625000 0.750000
vt 0.625000 1.000000
vt 0.375000 1.000000
vt 0.875000 0.000000
vt 0.875000 0.250000
vt 0.375000 0.000000
vt 0.375000 0.250000
vt 0.125000 0.250000
vt 0.625000 0.000000
vt 0.375000 0.750000
vt 0.125000 0.000000
vt 0.619135 0.757655
vt 0.619135 0.992345
vt 0.380865 0.992345
vt 0.619135 0.202006
vt 0.380865 0.202006
vt 0.380865 0.047994
vt 0.132655 0.202006
vt 0.132655 0.047994
vt 0.367345 0.047994
vt 0.867345 0.047994
vt 0.867345 0.202006
vt 0.632655 0.202006
vt 0.619135 0.492345
vt 0.380865 0.492345
vt 0.380865 0.257655
vt 0.619135 0.702006
vt 0.380865 0.702006
vt 0.380865 0.547994
vt 0.377932 0.992345
vt 0.377932 0.757655
vt 0.380865 0.757655
vt 0.375786 0.992345
vt 0.375786 0.757655
vt 0.132655 0.023997
vt 0.380865 0.023997
vt 0.619135 0.023997
vt 0.619135 0.047994
vt 0.380865 0.006430
vt 0.619135 0.006430
vt 0.619135 0.996172
vt 0.371172 0.047994
vt 0.371172 0.202006
vt 0.377932 0.047994
vt 0.377932 0.202006
vt 0.375786 0.202006
vt 0.632655 0.023997
vt 0.867345 0.023997
vt 0.624214 0.992345
vt 0.622068 0.992345
vt 0.622068 0.757655
vt 0.622068 0.047994
vt 0.622068 0.202006
vt 0.624214 0.047994
vt 0.624214 0.202006
vt 0.628828 0.047994
vt 0.632655 0.047994
vt 0.367345 0.226003
vt 0.132655 0.226003
vt 0.377932 0.257655
vt 0.377932 0.492345
vt 0.375786 0.492345
vt 0.380865 0.253828
vt 0.619135 0.253828
vt 0.380865 0.226003
vt 0.619135 0.226003
vt 0.619135 0.243570
vt 0.622068 0.257655
vt 0.622068 0.492345
vt 0.624214 0.257655
vt 0.624214 0.492345
vt 0.867345 0.226003
vt 0.128828 0.202006
vt 0.128828 0.047994
vt 0.377932 0.547994
vt 0.377932 0.702006
vt 0.375786 0.702006
vt 0.380865 0.523997
vt 0.619135 0.523997
vt 0.619135 0.547994
vt 0.380865 0.496172
vt 0.619135 0.496172
vt 0.619135 0.498974
vt 0.622068 0.547994
vt 0.622068 0.702006
vt 0.624214 0.547994
vt 0.624214 0.702006
vt 0.871172 0.202006
vt 0.380865 0.753828
vt 0.619135 0.753828
vt 0.380865 0.726003
vt 0.619135 0.726003
vt 0.619135 0.743570
vt 0.367345 0.023997
vt 0.370916 0.025604
vt 0.378129 0.995916
vt 0.380865 0.996172
vt 0.378129 0.025604
vt 0.375786 0.047994
vt 0.376466 0.025604
vt 0.378129 0.011998
vt 0.621871 0.995916
vt 0.629084 0.025604
vt 0.621871 0.025604
vt 0.621871 0.011998
vt 0.623534 0.025604
vt 0.378129 0.254084
vt 0.375786 0.257655
vt 0.367345 0.202006
vt 0.370916 0.224396
vt 0.378129 0.224396
vt 0.380865 0.243570
vt 0.378129 0.238002
vt 0.376466 0.224396
vt 0.632655 0.226003
vt 0.629084 0.224396
vt 0.621871 0.254084
vt 0.619135 0.257655
vt 0.621871 0.238002
vt 0.621871 0.224396
vt 0.623534 0.224396
vt 0.378129 0.525604
vt 0.375786 0.547994
vt 0.376466 0.525604
vt 0.129084 0.224396
vt 0.378129 0.495916
vt 0.380865 0.498974
vt 0.378129 0.498086
vt 0.376466 0.495916
vt 0.870916 0.224396
vt 0.621871 0.525604
vt 0.621871 0.495916
vt 0.623534 0.495916
vt 0.621871 0.498086
vt 0.378129 0.754084
vt 0.129084 0.025604
vt 0.376466 0.724396
vt 0.378129 0.724396
vt 0.380865 0.743570
vt 0.378129 0.738002
vt 0.870916 0.025604
vt 0.624214 0.757655
vt 0.621871 0.754084
vt 0.621871 0.724396
vt 0.623534 0.724396
vt 0.621871 0.738002
vt 0.628828 0.202006
vt 0.871172 0.047994
vt 0.376466 0.995916
vt 0.623534 0.995916
vt 0.376466 0.254084
vt 0.623534 0.254084
vt 0.623534 0.525604
vt 0.376466 0.754084
vt 0.623534 0.754084
vn 0.000000 1.000000 0.000000
vn 0.000000 -1.000000 0.000000
vn 0.000000 0.000000 -1.000000
vn 0.000000 0.000000 1.000000
vn -1.000000 0.000000 0.000000
vn 1.000000 0.000000 0.000000
vn -0.002200 -1.000000 0.004000
vn -0.002600 -1.000000 -0.004400
vn -0.044900 -0.984700 -0.168200
vn -0.002400 0.035500 -0.999400
vn 0.002600 0.035600 -0.999400
vn 0.010100 -0.025800 -0.999600
vn 0.999400 0.035500 0.004300
vn 0.999400 -0.035400 0.004100
vn 0.970500 -0.240200 -0.021000
vn -0.999400 -0.035500 0.004200
vn -0.999400 0.035500 0.004300
vn -0.970500 0.240200 -0.021000
vn -0.002200 1.000000 0.004000
vn 0.002600 1.000000 0.004400
vn 0.089800 0.995000 0.044700
vn -0.002400 -0.035500 0.999400
vn 0.002600 -0.035600 0.999400
vn 0.010200 0.025800 0.999600
vn 0.499600 -0.866200 -0.004900
vn 0.499600 -0.866200 0.004900
vn 0.254400 -0.967100 0.005100
vn 0.866200 -0.499600 -0.004100
vn 0.866200 -0.499600 0.004100
vn 0.003500 -0.499700 -0.866200
vn -0.002700 -0.499800 -0.866200
vn -0.037200 -0.254700 -0.966300
vn 0.002700 -0.866200 -0.499800
vn -0.003500 -0.866200 -0.499700
vn 0.867200 -0.028800 -0.497200
vn 0.814300 0.110300 -0.569800
vn 0.497100 -0.029800 -0.867200
vn 0.497100 0.029800 -0.867200
vn -0.866200 -0.499600 -0.004700
vn -0.866200 -0.499700 0.003200
vn -0.499600 -0.866200 -0.004000
vn -0.389200 -0.913600 0.117400
vn -0.497100 -0.029800 -0.867200
vn -0.497100 0.029800 -0.867200
vn -0.867200 -0.029500 -0.497100
vn -0.867200 0.028800 -0.497100
vn -0.975100 -0.004300 -0.221800
vn 0.866200 0.499600 -0.004100
vn 0.866200 0.499600 0.004100
vn 0.499600 0.866200 -0.004900
vn 0.499600 0.866200 0.004900
vn 0.002600 0.866200 -0.499800
vn -0.126200 0.797600 -0.589800
vn 0.002700 0.499800 -0.866200
vn -0.002700 0.499800 -0.866200
vn -0.499600 0.866200 -0.004900
vn -0.499600 0.866200 0.004900
vn -0.866200 0.499600 -0.004100
vn -0.866200 0.499600 0.004100
vn 0.867200 0.029800 0.497100
vn 0.867200 -0.029800 0.497100
vn 0.497100 0.029200 0.867200
vn 0.497100 -0.029200 0.867200
vn 0.002700 0.499800 0.866200
vn -0.002700 0.499800 0.866200
vn -0.037200 0.254700 0.966300
vn 0.003500 0.866200 0.499700
vn -0.003500 0.866200 0.499700
vn -0.497100 0.029800 0.867200
vn -0.497100 -0.029200 0.867200
vn -0.867200 0.029500 0.497100
vn -0.867200 -0.029500 0.497100
vn 0.003500 -0.866200 0.499700
vn -0.002700 -0.866200 0.499800
vn 0.002700 -0.499800 0.866200
vn -0.003500 -0.499700 0.866200
vn 0.797900 -0.452200 -0.398600
vn 0.398200 -0.798400 -0.451700
vn 0.451800 -0.397900 -0.798500
vn -0.452300 -0.798200 -0.397900
vn -0.749700 -0.449200 -0.486000
vn -0.398200 -0.451700 -0.798400
vn 0.452300 0.798200 -0.397800
vn 0.943600 0.221900 -0.245800
vn 0.749700 0.449200 -0.485900
vn 0.398200 0.451700 -0.798400
vn -0.797900 0.452200 -0.398600
vn -0.397900 0.798500 -0.451800
vn -0.253900 0.936100 -0.243600
vn -0.486300 0.449200 -0.749400
vn 0.452200 0.398600 0.797900
vn 0.798400 0.451700 0.398200
vn 0.397900 0.798500 0.451800
vn -0.797900 0.398600 0.452200
vn -0.398200 0.451700 0.798400
vn -0.451800 0.798500 0.397900
vn 0.452300 -0.798200 0.397900
vn 0.749500 -0.449200 0.486300
vn 0.449200 -0.485900 0.749700
vn -0.798100 -0.452300 0.398200
vn -0.398200 -0.798400 0.451700
vn -0.451700 -0.398200 0.798400
usemtl blinn2SG
s off
f 98/1/1 99/2/1 100/3/1
f 102/4/2 103/5/2 104/6/2
f 102/7/3 99/8/3 98/1/3
f 104/9/4 97/10/4 100/11/4
f 106/1/1 107/2/1 108/3/1
f 110/4/2 111/5/2 112/6/2
f 110/7/3 107/8/3 106/1/3
f 112/9/4 105/10/4 108/11/4
f 114/12/3 115/1/3 116/10/3
f 115/1/1 117/2/1 118/3/1
f 117/2/4 119/4/4 120/13/4
f 119/4/2 114/5/2 113/6/2
f 119/7/5 117/8/5 115/1/5
f 113/9/6 116/10/6 118/11/6
f 122/12/2 123/1/2 124/10/2
f 126/2/1 127/4/1 128/13/1
f 127/7/5 126/8/5 123/1/5
f 121/9/6 124/10/6 125/11/6
f 130/12/3 131/1/3 132/10/3
f 134/2/4 135/4/4 136/13/4
f 135/7/5 134/8/5 131/1/5
f 129/9/6 132/10/6 133/11/6
f 138/12/3 139/1/3 140/10/3
f 142/2/4 143/4/4 144/13/4
f 143/7/5 142/8/5 139/1/5
f 144/14/6 137/9/6 140/10/6
f 146/12/3 147/1/3 148/10/3
f 150/2/4 151/4/4 152/13/4
f 151/7/5 150/8/5 147/1/5
f 145/9/6 148/10/6 149/11/6
f 154/12/3 155/1/3 156/10/3
f 158/2/4 159/4/4 160/13/4
f 159/7/5 158/8/5 155/1/5
f 153/9/6 156/10/6 157/11/6
f 162/12/2 163/1/2 164/10/2
f 166/2/1 167/4/1 168/13/1
f 167/7/5 166/8/5 163/1/5
f 161/9/6 164/10/6 165/11/6
f 170/12/3 171/1/3 172/10/3
f 171/1/1 173/2/1 174/3/1
f 173/2/4 175/4/4 176/13/4
f 175/4/2 170/5/2 169/6/2
f 175/7/5 173/8/5 171/1/5
f 169/9/6 172/10/6 174/11/6
f 178/12/2 179/1/2 180/10/2
f 182/2/1 183/4/1 184/13/1
f 183/7/5 182/8/5 179/1/5
f 177/9/6 180/10/6 181/11/6
f 186/12/3 187/1/3 188/10/3
f 187/1/1 189/2/1 190/3/1
f 189/2/4 191/4/4 192/13/4
f 191/4/2 186/5/2 185/6/2
f 191/7/5 189/8/5 187/1/5
f 185/9/6 188/10/6 190/11/6
f 194/12/2 195/1/2 196/10/2
f 198/2/1 199/4/1 200/13/1
f 199/7/5 198/8/5 195/1/5
f 193/9/6 196/10/6 197/11/6
f 202/12/3 203/1/3 204/10/3
f 206/2/4 207/4/4 208/13/4
f 207/7/5 206/8/5 203/1/5
f 201/9/6 204/10/6 205/11/6
f 210/12/3 211/1/3 212/10/3
f 214/2/4 215/4/4 216/13/4
f 215/7/5 214/8/5 211/1/5
f 216/14/6 209/9/6 212/10/6
f 218/12/3 219/1/3 220/10/3
f 222/2/4 223/4/4 224/13/4
f 223/7/5 222/8/5 219/1/5
f 217/9/6 220/10/6 221/11/6
f 226/12/3 227/1/3 228/10/3
f 230/2/4 231/4/4 232/13/4
f 231/7/5 230/8/5 227/1/5
f 225/9/6 228/10/6 229/11/6
f 234/12/2 235/1/2 236/10/2
f 238/2/1 239/4/1 240/13/1
f 239/7/5 238/8/5 235/1/5
f 233/9/6 236/10/6 237/11/6
f 242/12/3 243/1/3 244/10/3
f 243/1/1 245/2/1 246/3/1
f 245/2/4 247/4/4 248/13/4
f 247/4/2 242/5/2 241/6/2
f 247/7/5 245/8/5 243/1/5
f 241/9/6 244/10/6 246/11/6
f 250/12/2 251/1/2 252/10/2
f 254/2/1 255/4/1 256/13/1
f 255/7/5 254/8/5 251/1/5
f 249/9/6 252/10/6 253/11/6
f 97/10/1 98/1/1 100/3/1
f 101/13/2 102/4/2 104/6/2
f 103/12/3 102/7/3 98/1/3
f 101/14/4 104/9/4 100/11/4
f 105/10/1 106/1/1 108/3/1
f 109/13/2 110/4/2 112/6/2
f 111/12/3 110/7/3 106/1/3
f 109/14/4 112/9/4 108/11/4
f 113/9/3 114/12/3 116/10/3
f 116/10/1 115/1/1 118/3/1
f 118/3/4 117/2/4 120/13/4
f 120/13/2 119/4/2 113/6/2
f 114/12/5 119/7/5 115/1/5
f 120/14/6 113/9/6 118/11/6
f 121/9/2 122/12/2 124/10/2
f 125/3/1 126/2/1 128/13/1
f 122/12/5 127/7/5 123/1/5
f 128/14/6 121/9/6 125/11/6
f 129/9/3 130/12/3 132/10/3
f 133/3/4 134/2/4 136/13/4
f 130/12/5 135/7/5 131/1/5
f 136/14/6 129/9/6 133/11/6
f 137/9/3 138/12/3 140/10/3
f 141/3/4 142/2/4 144/13/4
f 138/12/5 143/7/5 139/1/5
f 141/11/6 144/14/6 140/10/6
f 145/9/3 146/12/3 148/10/3
f 149/3/4 150/2/4 152/13/4
f 146/12/5 151/7/5 147/1/5
f 152/14/6 145/9/6 149/11/6
f 153/9/3 154/12/3 156/10/3
f 157/3/4 158/2/4 160/13/4
f 154/12/5 159/7/5 155/1/5
f 160/14/6 153/9/6 157/11/6
f 161/9/2 162/12/2 164/10/2
f 165/3/1 166/2/1 168/13/1
f 162/12/5 167/7/5 163/1/5
f 168/14/6 161/9/6 165/11/6
f 169/9/3 170/12/3 172/10/3
f 172/10/1 171/1/1 174/3/1
f 174/3/4 173/2/4 176/13/4
f 176/13/2 175/4/2 169/6/2
f 170/12/5 175/7/5 171/1/5
f 176/14/6 169/9/6 174/11/6
f 177/9/2 178/12/2 180/10/2
f 181/3/1 182/2/1 184/13/1
f 178/12/5 183/7/5 179/1/5
f 184/14/6 177/9/6 181/11/6
f 185/9/3 186/12/3 188/10/3
f 188/10/1 187/1/1 190/3/1
f 190/3/4 189/2/4 192/13/4
f 192/13/2 191/4/2 185/6/2
f 186/12/5 191/7/5 187/1/5
f 192/14/6 185/9/6 190/11/6
f 193/9/2 194/12/2 196/10/2
f 197/3/1 198/2/1 200/13/1
f 194/12/5 199/7/5 195/1/5
f 200/14/6 193/9/6 197/11/6
f 201/9/3 202/12/3 204/10/3
f 205/3/4 206/2/4 208/13/4
f 202/12/5 207/7/5 203/1/5
f 208/14/6 201/9/6 205/11/6
f 209/9/3 210/12/3 212/10/3
f 213/3/4 214/2/4 216/13/4
f 210/12/5 215/7/5 211/1/5
f 213/11/6 216/14/6 212/10/6
f 217/9/3 218/12/3 220/10/3
f 221/3/4 222/2/4 224/13/4
f 218/12/5 223/7/5 219/1/5
f 224/14/6 217/9/6 221/11/6
f 225/9/3 226/12/3 228/10/3
f 229/3/4 230/2/4 232/13/4
f 226/12/5 231/7/5 227/1/5
f 232/14/6 225/9/6 229/11/6
f 233/9/2 234/12/2 236/10/2
f 237/3/1 238/2/1 240/13/1
f 234/12/5 239/7/5 235/1/5
f 240/14/6 233/9/6 237/11/6
f 241/9/3 242/12/3 244/10/3
f 244/10/1 243/1/1 246/3/1
f 246/3/4 245/2/4 248/13/4
f 248/13/2 247/4/2 241/6/2
f 242/12/5 247/7/5 243/1/5
f 248/14/6 241/9/6 246/11/6
f 249/9/2 250/12/2 252/10/2
f 253/3/1 254/2/1 256/13/1
f 250/12/5 255/7/5 251/1/5
f 256/14/6 249/9/6 253/11/6
usemtl blinn1SG
s 1
f 2/15/7 3/16/8 4/17/9
f 6/18/10 7/19/11 8/20/12
f 10/21/13 11/22/14 12/23/15
f 13/24/16 14/25/17 15/26/18
f 18/27/19 19/28/20 20/29/21
f 22/30/22 23/31/23 24/32/24
f 25/33/25 26/34/26 1/35/27
f 27/36/28 28/37/29 26/34/26
f 12/23/15 11/22/14 28/38/29
f 29/39/30 30/40/31 5/41/32
f 31/42/33 32/43/34 30/40/31
f 4/17/9 3/16/8 32/44/34
f 12/23/15 33/45/35 34/46/36
f 35/47/37 36/48/38 34/49/36
f 8/20/12 7/19/11 36/48/38
f 37/50/39 38/51/40 13/24/16
f 37/52/39 39/53/41 40/54/42
f 3/16/8 2/15/7 40/54/42
f 41/55/43 42/56/44 6/18/10
f 43/57/45 44/58/46 42/56/44
f 43/59/45 16/60/47 15/26/18
f 45/61/48 46/62/49 10/21/13
f 47/63/50 48/64/51 46/65/49
f 20/29/21 19/28/20 48/64/51
f 20/29/21 49/66/52 50/67/53
f 51/68/54 52/69/55 50/70/53
f 7/19/11 6/18/10 52/69/55
f 53/71/56 54/72/57 18/27/19
f 55/73/58 56/74/59 54/72/57
f 15/26/18 14/25/17 56/75/59
f 57/76/60 58/77/61 11/22/14
f 59/78/62 60/79/63 58/80/61
f 24/32/24 23/31/23 60/79/63
f 61/81/64 62/82/65 21/83/66
f 63/84/67 64/85/68 62/86/65
f 19/28/20 18/27/19 64/85/68
f 65/87/69 66/88/70 22/30/22
f 67/89/71 68/90/72 66/88/70
f 67/91/71 14/25/17 13/24/16
f 69/92/73 70/93/74 2/15/7
f 71/94/75 72/95/76 70/96/74
f 23/31/23 22/30/22 72/95/76
f 12/23/15 27/97/28 73/98/77
f 27/36/28 25/33/25 74/99/78
f 4/17/9 31/100/33 74/99/78
f 31/42/33 29/39/30 75/101/79
f 8/20/12 35/47/37 75/101/79
f 75/101/79 35/47/37 33/102/35
f 73/103/77 74/104/78 75/101/79
f 3/16/8 39/53/41 76/105/80
f 76/105/80 39/53/41 37/52/39
f 16/60/47 43/59/45 77/106/81
f 43/57/45 41/55/43 78/107/82
f 5/41/32 30/40/31 78/107/82
f 30/40/31 32/43/34 76/108/80
f 76/108/80 77/109/81 78/107/82
f 20/29/21 47/63/50 79/110/83
f 79/110/83 47/63/50 45/111/48
f 9/112/84 34/46/36 80/113/85
f 34/49/36 36/48/38 81/114/86
f 7/19/11 51/68/54 81/114/86
f 51/68/54 49/115/52 79/116/83
f 79/116/83 80/117/85 81/114/86
f 15/26/18 55/118/58 82/119/87
f 55/73/58 53/71/56 83/120/88
f 17/121/89 50/67/53 83/120/88
f 83/122/88 50/70/53 52/69/55
f 6/18/10 42/56/44 84/123/90
f 84/123/90 42/56/44 44/58/46
f 82/124/87 83/122/88 84/123/90
f 24/32/24 59/78/62 85/125/91
f 59/78/62 57/126/60 86/127/92
f 10/21/13 46/62/49 86/128/92
f 46/65/49 48/64/51 87/129/93
f 19/28/20 63/84/67 87/129/93
f 87/129/93 63/84/67 61/130/64
f 85/131/91 86/132/92 87/129/93
f 14/25/17 67/91/71 88/133/94
f 67/89/71 65/87/69 89/134/95
f 21/83/66 62/82/65 89/134/95
f 62/86/65 64/85/68 90/135/96
f 18/27/19 54/72/57 90/135/96
f 90/135/96 54/72/57 56/74/59
f 88/136/94 89/137/95 90/135/96
f 1/35/27 26/34/26 91/138/97
f 91/138/97 26/34/26 28/37/29
f 11/22/14 58/77/61 92/139/98
f 92/140/98 58/80/61 60/79/63
f 23/31/23 71/94/75 93/141/99
f 71/94/75 69/142/73 91/143/97
f 91/143/97 92/140/98 93/141/99
f 13/24/16 38/51/40 94/144/100
f 38/145/40 40/54/42 95/146/101
f 2/15/7 70/93/74 95/146/101
f 70/96/74 72/95/76 96/147/102
f 22/30/22 66/88/70 96/147/102
f 66/88/70 68/90/72 94/148/100
f 94/148/100 95/149/101 96/147/102
f 1/35/27 2/15/7 4/17/9
f 5/41/32 6/18/10 8/20/12
f 9/112/84 10/21/13 12/23/15
f 16/60/47 13/24/16 15/26/18
f 17/121/89 18/27/19 20/29/21
f 21/83/66 22/30/22 24/32/24
f 4/17/9 25/33/25 1/35/27
f 25/33/25 27/36/28 26/34/26
f 27/97/28 12/23/15 28/38/29
f 8/20/12 29/39/30 5/41/32
f 29/39/30 31/42/33 30/40/31
f 31/100/33 4/17/9 32/44/34
f 9/112/84 12/23/15 34/46/36
f 33/102/35 35/47/37 34/49/36
f 35/47/37 8/20/12 36/48/38
f 16/60/47 37/50/39 13/24/16
f 38/145/40 37/52/39 40/54/42
f 39/53/41 3/16/8 40/54/42
f 5/41/32 41/55/43 6/18/10
f 41/55/43 43/57/45 42/56/44
f 44/150/46 43/59/45 15/26/18
f 9/112/84 45/61/48 10/21/13
f 45/111/48 47/63/50 46/65/49
f 47/63/50 20/29/21 48/64/51
f 17/121/89 20/29/21 50/67/53
f 49/115/52 51/68/54 50/70/53
f 51/68/54 7/19/11 52/69/55
f 17/121/89 53/71/56 18/27/19
f 53/71/56 55/73/58 54/72/57
f 55/118/58 15/26/18 56/75/59
f 10/21/13 57/76/60 11/22/14
f 57/126/60 59/78/62 58/80/61
f 59/78/62 24/32/24 60/79/63
f 24/32/24 61/81/64 21/83/66
f 61/130/64 63/84/67 62/86/65
f 63/84/67 19/28/20 64/85/68
f 21/83/66 65/87/69 22/30/22
f 65/87/69 67/89/71 66/88/70
f 68/151/72 67/91/71 13/24/16
f 1/35/27 69/92/73 2/15/7
f 69/142/73 71/94/75 70/96/74
f 71/94/75 23/31/23 72/95/76
f 33/45/35 12/23/15 73/98/77
f 73/152/77 27/36/28 74/99/78
f 25/33/25 4/17/9 74/99/78
f 74/104/78 31/42/33 75/101/79
f 29/39/30 8/20/12 75/101/79
f 73/103/77 75/101/79 33/102/35
f 32/44/34 3/16/8 76/105/80
f 77/153/81 76/105/80 37/52/39
f 37/50/39 16/60/47 77/106/81
f 77/109/81 43/57/45 78/107/82
f 41/55/43 5/41/32 78/107/82
f 78/107/82 30/40/31 76/108/80
f 49/66/52 20/29/21 79/110/83
f 80/154/85 79/110/83 45/111/48
f 45/61/48 9/112/84 80/113/85
f 80/117/85 34/49/36 81/114/86
f 36/48/38 7/19/11 81/114/86
f 81/114/86 51/68/54 79/116/83
f 44/150/46 15/26/18 82/119/87
f 82/155/87 55/73/58 83/120/88
f 53/71/56 17/121/89 83/120/88
f 84/123/90 83/122/88 52/69/55
f 52/69/55 6/18/10 84/123/90
f 82/124/87 84/123/90 44/58/46
f 61/81/64 24/32/24 85/125/91
f 85/125/91 59/78/62 86/127/92
f 57/76/60 10/21/13 86/128/92
f 86/132/92 46/65/49 87/129/93
f 48/64/51 19/28/20 87/129/93
f 85/131/91 87/129/93 61/130/64
f 56/75/59 14/25/17 88/133/94
f 88/156/94 67/89/71 89/134/95
f 65/87/69 21/83/66 89/134/95
f 89/137/95 62/86/65 90/135/96
f 64/85/68 18/27/19 90/135/96
f 88/136/94 90/135/96 56/74/59
f 69/92/73 1/35/27 91/138/97
f 92/157/98 91/138/97 28/37/29
f 28/38/29 11/22/14 92/139/98
f 93/141/99 92/140/98 60/79/63
f 60/79/63 23/31/23 93/141/99
f 93/141/99 71/94/75 91/143/97
f 68/151/72 13/24/16 94/144/100
f 94/158/100 38/145/40 95/146/101
f 40/54/42 2/15/7 95/146/101
f 95/149/101 70/96/74 96/147/102
f 72/95/76 22/30/22 96/147/102
f 96/147/102 66/88/70 94/148/100
