# Blender v2.76 (sub 0) OBJ File: ''
# www.blender.org
mtllib bed3.mtl
o bed3
v 1.312863 0.536723 0.834122
v -1.287066 0.536723 0.834122
v -1.287066 0.536723 -0.834122
v 1.312863 0.536723 -0.834122
v -1.287066 0.600716 -0.898116
v -1.287066 0.806073 -0.898116
v 1.312863 0.806073 -0.898116
v 1.312863 0.600716 -0.898116
v 1.376856 0.806073 -0.834122
v 1.376856 0.806073 0.834122
v 1.376856 0.600716 0.834122
v 1.376856 0.600716 -0.834122
v -1.351060 0.600716 0.834122
v -1.351060 0.806073 0.834122
v -1.351060 0.806073 -0.834122
v -1.351060 0.600716 -0.834122
v -1.287066 0.870066 -0.834122
v -1.287066 0.870066 0.834122
v 1.312863 0.870066 0.834122
v 1.312863 0.870066 -0.834122
v -1.287066 0.806073 0.898116
v -1.287066 0.600716 0.898116
v 1.312863 0.600716 0.898116
v 1.312863 0.806073 0.898116
v 1.344859 0.545296 -0.834122
v 1.344859 0.545296 0.834122
v 1.368283 0.568719 -0.834122
v 1.368283 0.568719 0.834122
v 1.312863 0.568719 -0.889543
v -1.287066 0.568719 -0.889542
v 1.312863 0.545296 -0.866119
v -1.287066 0.545296 -0.866119
v 1.368283 0.600716 -0.866119
v 1.368283 0.806073 -0.866119
v 1.344859 0.600716 -0.889543
v 1.344859 0.806073 -0.889543
v -1.342486 0.568719 -0.834122
v -1.342486 0.568719 0.834122
v -1.319063 0.545296 -0.834122
v -1.319063 0.545296 0.834122
v -1.319063 0.600716 -0.889542
v -1.319063 0.806073 -0.889542
v -1.342486 0.600716 -0.866119
v -1.342486 0.806073 -0.866119
v 1.368283 0.838070 -0.834122
v 1.368283 0.838070 0.834122
v 1.344859 0.861493 -0.834122
v 1.344859 0.861493 0.834122
v 1.312863 0.861493 -0.866119
v -1.287066 0.861493 -0.866119
v 1.312863 0.838070 -0.889543
v -1.287066 0.838069 -0.889542
v -1.319063 0.861493 -0.834122
v -1.319063 0.861493 0.834122
v -1.342486 0.838069 -0.834122
v -1.342486 0.838070 0.834122
v 1.368283 0.806073 0.866119
v 1.368283 0.600716 0.866119
v 1.344859 0.806073 0.889542
v 1.344859 0.600716 0.889542
v 1.312863 0.838070 0.889542
v -1.287066 0.838070 0.889543
v 1.312863 0.861493 0.866119
v -1.287066 0.861493 0.866119
v -1.319063 0.806073 0.889543
v -1.319063 0.600716 0.889543
v -1.342486 0.806073 0.866119
v -1.342486 0.600716 0.866119
v 1.312863 0.545296 0.866119
v -1.287066 0.545296 0.866119
v 1.312863 0.568719 0.889542
v -1.287066 0.568719 0.889543
v 1.360858 0.570863 -0.863976
v 1.342716 0.552721 -0.863976
v 1.342716 0.570863 -0.882118
v -1.316919 0.552721 -0.863976
v -1.335061 0.570863 -0.863976
v -1.316919 0.570863 -0.882118
v 1.342716 0.854068 -0.863976
v 1.360858 0.835926 -0.863976
v 1.342716 0.835926 -0.882118
v -1.335061 0.835926 -0.863976
v -1.316919 0.854068 -0.863976
v -1.316919 0.835926 -0.882118
v 1.342716 0.835926 0.882117
v 1.360858 0.835926 0.863976
v 1.342716 0.854068 0.863976
v -1.335061 0.835926 0.863976
v -1.316919 0.835926 0.882118
v -1.316919 0.854068 0.863976
v 1.342716 0.552721 0.863976
v 1.360858 0.570863 0.863976
v 1.342716 0.570863 0.882117
v -1.335061 0.570863 0.863976
v -1.316919 0.552721 0.863976
v -1.316919 0.570863 0.882118
v -1.358625 0.198334 -0.898116
v -1.428612 0.198334 -0.898116
v -1.428612 1.473312 -0.898116
v -1.358625 1.473312 -0.898116
v -1.428612 1.473312 0.898116
v -1.358625 1.473312 0.898116
v -1.428612 0.198334 0.898116
v -1.358625 0.198334 0.898116
v 1.428612 0.198334 -0.898116
v 1.373982 0.198334 -0.898116
v 1.373982 1.088780 -0.898116
v 1.428612 1.088780 -0.898116
v 1.373982 1.088780 0.898116
v 1.428612 1.088780 0.898116
v 1.373982 0.198334 0.898116
v 1.428612 0.198334 0.898116
v 1.398622 0.532054 -0.845624
v 1.398622 0.532054 -0.891340
v -1.366089 0.532054 -0.891340
v -1.366089 0.532054 -0.845624
v -1.366089 0.443765 -0.845624
v -1.366089 0.443765 -0.891340
v 1.398622 0.443765 -0.891340
v 1.398622 0.443765 -0.845624
v 1.398622 0.532054 0.892641
v 1.398622 0.532054 0.846924
v -1.366089 0.532054 0.846924
v -1.366089 0.532054 0.892641
v -1.366089 0.443765 0.892641
v -1.366089 0.443765 0.846924
v 1.398622 0.443765 0.846924
v 1.398622 0.443765 0.892641
vt 0.625000 0.000000
vt 0.625000 0.250000
vt 0.375000 0.250000
vt 0.625000 0.500000
vt 0.375000 0.500000
vt 0.625000 0.750000
vt 0.375000 0.750000
vt 0.625000 1.000000
vt 0.375000 1.000000
vt 0.875000 0.000000
vt 0.875000 0.250000
vt 0.375000 0.000000
vt 0.125000 0.250000
vt 0.125000 0.000000
vt 0.619135 0.757655
vt 0.619135 0.992345
vt 0.380865 0.992345
vt 0.619135 0.202006
vt 0.380865 0.202006
vt 0.380865 0.047994
vt 0.367345 0.202006
vt 0.132655 0.202006
vt 0.132655 0.047994
vt 0.867345 0.047994
vt 0.867345 0.202006
vt 0.632655 0.202006
vt 0.619135 0.492345
vt 0.380865 0.492345
vt 0.380865 0.257655
vt 0.619135 0.702006
vt 0.380865 0.702006
vt 0.380865 0.547994
vt 0.377932 0.992345
vt 0.377932 0.757655
vt 0.380865 0.757655
vt 0.375786 0.992345
vt 0.375786 0.757655
vt 0.367345 0.047994
vt 0.132655 0.023997
vt 0.380865 0.023997
vt 0.619135 0.023997
vt 0.380865 0.006430
vt 0.619135 0.006430
vt 0.619135 0.996172
vt 0.371172 0.047994
vt 0.371172 0.202006
vt 0.377932 0.047994
vt 0.377932 0.202006
vt 0.375786 0.202006
vt 0.632655 0.047994
vt 0.632655 0.023997
vt 0.867345 0.023997
vt 0.622068 0.992345
vt 0.622068 0.757655
vt 0.624214 0.757655
vt 0.622068 0.047994
vt 0.622068 0.202006
vt 0.624214 0.047994
vt 0.624214 0.202006
vt 0.628828 0.202006
vt 0.367345 0.226003
vt 0.132655 0.226003
vt 0.377932 0.257655
vt 0.377932 0.492345
vt 0.375786 0.492345
vt 0.380865 0.253828
vt 0.619135 0.253828
vt 0.619135 0.257655
vt 0.380865 0.243570
vt 0.380865 0.226003
vt 0.619135 0.226003
vt 0.622068 0.257655
vt 0.622068 0.492345
vt 0.624214 0.257655
vt 0.624214 0.492345
vt 0.867345 0.226003
vt 0.128828 0.202006
vt 0.128828 0.047994
vt 0.377932 0.547994
vt 0.377932 0.702006
vt 0.375786 0.702006
vt 0.380865 0.523997
vt 0.619135 0.523997
vt 0.619135 0.547994
vt 0.380865 0.496172
vt 0.619135 0.496172
vt 0.619135 0.498974
vt 0.622068 0.547994
vt 0.622068 0.702006
vt 0.624214 0.547994
vt 0.624214 0.702006
vt 0.871172 0.047994
vt 0.380865 0.753828
vt 0.619135 0.753828
vt 0.380865 0.726003
vt 0.619135 0.726003
vt 0.619135 0.743570
vt 0.367345 0.023997
vt 0.370916 0.025604
vt 0.378129 0.995916
vt 0.380865 0.996172
vt 0.378129 0.011998
vt 0.378129 0.025604
vt 0.375786 0.047994
vt 0.376466 0.025604
vt 0.621871 0.995916
vt 0.624214 0.992345
vt 0.628828 0.047994
vt 0.629084 0.025604
vt 0.623534 0.025604
vt 0.619135 0.047994
vt 0.621871 0.025604
vt 0.621871 0.011998
vt 0.378129 0.254084
vt 0.375786 0.257655
vt 0.370916 0.224396
vt 0.376466 0.224396
vt 0.378129 0.224396
vt 0.378129 0.238002
vt 0.632655 0.226003
vt 0.629084 0.224396
vt 0.623534 0.254084
vt 0.621871 0.254084
vt 0.621871 0.238002
vt 0.619135 0.243570
vt 0.621871 0.224396
vt 0.623534 0.224396
vt 0.378129 0.525604
vt 0.375786 0.547994
vt 0.376466 0.525604
vt 0.129084 0.224396
vt 0.378129 0.495916
vt 0.380865 0.498974
vt 0.378129 0.498086
vt 0.376466 0.495916
vt 0.871172 0.202006
vt 0.870916 0.224396
vt 0.623534 0.525604
vt 0.621871 0.525604
vt 0.621871 0.495916
vt 0.623534 0.495916
vt 0.621871 0.498086
vt 0.378129 0.754084
vt 0.129084 0.025604
vt 0.376466 0.724396
vt 0.378129 0.724396
vt 0.380865 0.743570
vt 0.378129 0.738002
vt 0.870916 0.025604
vt 0.623534 0.754084
vt 0.621871 0.754084
vt 0.621871 0.738002
vt 0.621871 0.724396
vt 0.623534 0.724396
vt 0.376466 0.995916
vt 0.623534 0.995916
vt 0.376466 0.254084
vt 0.376466 0.754084
vn 0.000000 -0.000000 -1.000000
vn 0.000000 1.000000 -0.000000
vn 0.000000 0.000000 1.000000
vn 0.000000 -1.000000 0.000000
vn -1.000000 0.000000 0.000000
vn 1.000000 0.000000 0.000000
vn -0.002200 -1.000000 0.004000
vn -0.002600 -1.000000 -0.004400
vn -0.044900 -0.984700 -0.168200
vn -0.002500 0.035500 -0.999400
vn 0.002500 0.035500 -0.999400
vn 0.010200 -0.025900 -0.999600
vn 0.999400 0.035400 -0.004100
vn 0.999400 0.035600 0.004400
vn 0.999600 -0.020900 0.016500
vn -0.999400 -0.035400 0.004200
vn -0.999400 0.035400 0.004100
vn -0.970500 0.240100 -0.021000
vn -0.002200 1.000000 0.004000
vn 0.002600 1.000000 0.004400
vn 0.089700 0.995000 0.044900
vn -0.002500 -0.035500 0.999400
vn 0.002500 -0.035500 0.999400
vn 0.010200 0.025800 0.999600
vn 0.499600 -0.866200 -0.005500
vn 0.499600 -0.866200 0.004000
vn 0.254400 -0.967100 0.005100
vn 0.866200 -0.499700 -0.003200
vn 0.913900 -0.388500 0.117400
vn 0.967100 -0.251900 -0.035600
vn 0.001800 -0.499800 -0.866100
vn -0.126300 -0.590500 -0.797100
vn 0.003500 -0.866200 -0.499700
vn -0.003500 -0.866200 -0.499700
vn 0.867200 -0.029800 -0.497100
vn 0.867200 0.029800 -0.497100
vn 0.497100 -0.029200 -0.867200
vn 0.497100 0.029200 -0.867200
vn -0.967100 -0.252100 -0.035500
vn -0.866200 -0.499700 -0.003200
vn -0.798500 -0.588800 0.125300
vn -0.499600 -0.866200 -0.004900
vn -0.499600 -0.866200 0.004100
vn -0.497100 -0.029200 -0.867200
vn -0.497100 0.029200 -0.867200
vn -0.867200 -0.029800 -0.497100
vn -0.867200 0.029800 -0.497100
vn 0.866200 0.499600 -0.004100
vn 0.866200 0.499600 0.004100
vn 0.499600 0.866200 -0.004900
vn 0.499600 0.866200 0.004900
vn 0.004100 0.866200 -0.499700
vn -0.002600 0.866200 -0.499800
vn -0.006000 0.966900 -0.255200
vn 0.002700 0.499800 -0.866200
vn -0.118000 0.386600 -0.914700
vn -0.499600 0.866200 -0.004100
vn -0.499600 0.866200 0.004100
vn -0.866200 0.499600 -0.004900
vn -0.866200 0.499600 0.004900
vn 0.867200 0.029800 0.497100
vn 0.867200 -0.029800 0.497100
vn 0.497100 0.029200 0.867200
vn 0.497100 -0.029200 0.867200
vn 0.002700 0.499800 0.866200
vn -0.002700 0.499800 0.866200
vn -0.037200 0.254700 0.966300
vn 0.003500 0.866200 0.499700
vn -0.003500 0.866200 0.499700
vn -0.497100 0.029200 0.867200
vn -0.497100 -0.029200 0.867200
vn -0.867200 0.029800 0.497100
vn -0.867200 -0.029800 0.497100
vn 0.003500 -0.866200 0.499700
vn -0.003500 -0.866200 0.499700
vn 0.003300 -0.499700 0.866200
vn -0.001800 -0.499800 0.866100
vn 0.798100 -0.452300 -0.398200
vn 0.397900 -0.798500 -0.451800
vn 0.486000 -0.449200 -0.749700
vn -0.452300 -0.798200 -0.397900
vn -0.749400 -0.449200 -0.486300
vn -0.253700 -0.213300 -0.943500
vn -0.449200 -0.485900 -0.749700
vn 0.452300 0.798200 -0.397900
vn 0.749400 0.449200 -0.486300
vn 0.449200 0.485900 -0.749700
vn -0.798200 0.452300 -0.397900
vn -0.449200 0.749400 -0.486300
vn -0.485900 0.449200 -0.749700
vn 0.452200 0.398600 0.797900
vn 0.798400 0.451700 0.398200
vn 0.397900 0.798500 0.451800
vn -0.798200 0.397900 0.452300
vn -0.449200 0.486000 0.749700
vn -0.451700 0.798400 0.398200
vn 0.452300 -0.798200 0.397900
vn 0.749400 -0.449200 0.486400
vn 0.449200 -0.485900 0.749700
vn -0.798200 -0.452300 0.397900
vn -0.449200 -0.749400 0.486300
vn -0.485900 -0.449200 0.749700
usemtl blinn2SG.002
s off
f 98/1/1 99/2/1 100/3/1
f 99/2/2 101/4/2 102/5/2
f 101/4/3 103/6/3 104/7/3
f 103/6/4 98/8/4 97/9/4
f 103/10/5 101/11/5 99/2/5
f 97/12/6 100/3/6 102/13/6
f 106/1/1 107/2/1 108/3/1
f 107/2/2 109/4/2 110/5/2
f 109/4/3 111/6/3 112/7/3
f 111/6/4 106/8/4 105/9/4
f 111/10/5 109/11/5 107/2/5
f 105/12/6 108/3/6 110/13/6
f 114/2/2 115/4/2 116/5/2
f 118/6/4 119/8/4 120/9/4
f 118/10/1 115/11/1 114/2/1
f 120/12/3 113/3/3 116/13/3
f 122/2/2 123/4/2 124/5/2
f 126/6/4 127/8/4 128/9/4
f 126/10/1 123/11/1 122/2/1
f 128/12/3 121/3/3 124/13/3
f 97/12/1 98/1/1 100/3/1
f 100/3/2 99/2/2 102/5/2
f 102/5/3 101/4/3 104/7/3
f 104/7/4 103/6/4 97/9/4
f 98/1/5 103/10/5 99/2/5
f 104/14/6 97/12/6 102/13/6
f 105/12/1 106/1/1 108/3/1
f 108/3/2 107/2/2 110/5/2
f 110/5/3 109/4/3 112/7/3
f 112/7/4 111/6/4 105/9/4
f 106/1/5 111/10/5 107/2/5
f 112/14/6 105/12/6 110/13/6
f 113/3/2 114/2/2 116/5/2
f 117/7/4 118/6/4 120/9/4
f 119/1/1 118/10/1 114/2/1
f 117/14/3 120/12/3 116/13/3
f 121/3/2 122/2/2 124/5/2
f 125/7/4 126/6/4 128/9/4
f 127/1/1 126/10/1 122/2/1
f 125/14/3 128/12/3 124/13/3
usemtl blinn1SG.002
s 1
f 2/15/7 3/16/8 4/17/9
f 6/18/10 7/19/11 8/20/12
f 9/21/13 10/22/14 11/23/15
f 13/24/16 14/25/17 15/26/18
f 18/27/19 19/28/20 20/29/21
f 22/30/22 23/31/23 24/32/24
f 25/33/25 26/34/26 1/35/27
f 25/33/25 27/36/28 28/37/29
f 12/38/30 11/23/15 28/39/29
f 8/20/12 29/40/31 30/41/32
f 31/42/33 32/43/34 30/41/32
f 4/17/9 3/16/8 32/44/34
f 33/45/35 34/46/36 9/21/13
f 35/47/37 36/48/38 34/49/36
f 8/20/12 7/19/11 36/48/38
f 16/50/39 37/51/40 38/52/41
f 39/53/42 40/54/43 38/55/41
f 3/16/8 2/15/7 40/54/43
f 41/56/44 42/57/45 6/18/10
f 43/58/46 44/59/47 42/57/45
f 16/50/39 15/26/18 44/60/47
f 45/61/48 46/62/49 10/22/14
f 47/63/50 48/64/51 46/65/49
f 20/29/21 19/28/20 48/64/51
f 49/66/52 50/67/53 17/68/54
f 49/69/52 51/70/55 52/71/56
f 51/70/55 7/19/11 6/18/10
f 53/72/57 54/73/58 18/27/19
f 55/74/59 56/75/60 54/73/58
f 15/26/18 14/25/17 56/76/60
f 57/77/61 58/78/62 11/23/15
f 59/79/63 60/80/64 58/81/62
f 24/32/24 23/31/23 60/80/64
f 61/82/65 62/83/66 21/84/67
f 63/85/68 64/86/69 62/87/66
f 19/28/20 18/27/19 64/86/69
f 65/88/70 66/89/71 22/30/22
f 67/90/72 68/91/73 66/89/71
f 14/25/17 13/24/16 68/92/73
f 69/93/74 70/94/75 2/15/7
f 71/95/76 72/96/77 70/97/75
f 71/95/76 23/31/23 22/30/22
f 12/38/30 27/98/28 73/99/78
f 27/36/28 25/33/25 74/100/79
f 4/17/9 31/101/33 74/100/79
f 74/102/79 31/42/33 29/40/31
f 8/20/12 35/47/37 75/103/80
f 35/47/37 33/104/35 73/105/78
f 73/105/78 74/102/79 75/103/80
f 3/16/8 39/53/42 76/106/81
f 76/106/81 39/53/42 37/107/40
f 16/50/39 43/108/46 77/109/82
f 77/110/82 43/58/46 41/56/44
f 5/111/83 30/41/32 78/112/84
f 30/41/32 32/43/34 76/113/81
f 76/113/81 77/110/82 78/112/84
f 20/29/21 47/63/50 79/114/85
f 79/114/85 47/63/50 45/115/48
f 9/21/13 34/46/36 80/116/86
f 80/117/86 34/49/36 36/48/38
f 7/19/11 51/70/55 81/118/87
f 51/70/55 49/69/52 79/119/85
f 79/119/85 80/117/86 81/118/87
f 15/26/18 55/120/59 82/121/88
f 82/122/88 55/74/59 53/72/57
f 17/68/54 50/67/53 83/123/89
f 83/124/89 50/125/53 52/71/56
f 6/18/10 42/57/45 84/126/90
f 42/57/45 44/59/47 82/127/88
f 82/127/88 83/124/89 84/126/90
f 24/32/24 59/79/63 85/128/91
f 59/79/63 57/129/61 86/130/92
f 10/22/14 46/62/49 86/131/92
f 46/65/49 48/64/51 87/132/93
f 19/28/20 63/85/68 87/132/93
f 87/132/93 63/85/68 61/133/65
f 85/134/91 86/135/92 87/132/93
f 14/25/17 67/136/72 88/137/94
f 88/138/94 67/90/72 65/88/70
f 21/84/67 62/83/66 89/139/95
f 62/87/66 64/86/69 90/140/96
f 18/27/19 54/73/58 90/140/96
f 54/73/58 56/75/60 88/141/94
f 88/141/94 89/142/95 90/140/96
f 1/35/27 26/34/26 91/143/97
f 91/143/97 26/34/26 28/37/29
f 11/23/15 58/78/62 92/144/98
f 92/145/98 58/81/62 60/80/64
f 23/31/23 71/95/76 93/146/99
f 71/95/76 69/147/74 91/148/97
f 91/148/97 92/145/98 93/146/99
f 13/24/16 38/52/41 94/149/100
f 94/150/100 38/55/41 40/54/43
f 2/15/7 70/94/75 95/151/101
f 95/152/101 70/97/75 72/96/77
f 22/30/22 66/89/71 96/153/102
f 66/89/71 68/91/73 94/154/100
f 94/154/100 95/152/101 96/153/102
f 1/35/27 2/15/7 4/17/9
f 5/111/83 6/18/10 8/20/12
f 12/38/30 9/21/13 11/23/15
f 16/50/39 13/24/16 15/26/18
f 17/68/54 18/27/19 20/29/21
f 21/84/67 22/30/22 24/32/24
f 4/17/9 25/33/25 1/35/27
f 26/34/26 25/33/25 28/37/29
f 27/98/28 12/38/30 28/39/29
f 5/111/83 8/20/12 30/41/32
f 29/40/31 31/42/33 30/41/32
f 31/101/33 4/17/9 32/44/34
f 12/38/30 33/45/35 9/21/13
f 33/104/35 35/47/37 34/49/36
f 35/47/37 8/20/12 36/48/38
f 13/24/16 16/50/39 38/52/41
f 37/107/40 39/53/42 38/55/41
f 39/53/42 3/16/8 40/54/43
f 5/111/83 41/56/44 6/18/10
f 41/56/44 43/58/46 42/57/45
f 43/108/46 16/50/39 44/60/47
f 9/21/13 45/61/48 10/22/14
f 45/115/48 47/63/50 46/65/49
f 47/63/50 20/29/21 48/64/51
f 20/29/21 49/66/52 17/68/54
f 50/125/53 49/69/52 52/71/56
f 52/71/56 51/70/55 6/18/10
f 17/68/54 53/72/57 18/27/19
f 53/72/57 55/74/59 54/73/58
f 55/120/59 15/26/18 56/76/60
f 10/22/14 57/77/61 11/23/15
f 57/129/61 59/79/63 58/81/62
f 59/79/63 24/32/24 60/80/64
f 24/32/24 61/82/65 21/84/67
f 61/133/65 63/85/68 62/87/66
f 63/85/68 19/28/20 64/86/69
f 21/84/67 65/88/70 22/30/22
f 65/88/70 67/90/72 66/89/71
f 67/136/72 14/25/17 68/92/73
f 1/35/27 69/93/74 2/15/7
f 69/147/74 71/95/76 70/97/75
f 72/96/77 71/95/76 22/30/22
f 33/45/35 12/38/30 73/99/78
f 73/155/78 27/36/28 74/100/79
f 25/33/25 4/17/9 74/100/79
f 75/103/80 74/102/79 29/40/31
f 29/40/31 8/20/12 75/103/80
f 75/103/80 35/47/37 73/105/78
f 32/44/34 3/16/8 76/106/81
f 77/156/82 76/106/81 37/107/40
f 37/51/40 16/50/39 77/109/82
f 78/112/84 77/110/82 41/56/44
f 41/56/44 5/111/83 78/112/84
f 78/112/84 30/41/32 76/113/81
f 49/66/52 20/29/21 79/114/85
f 80/157/86 79/114/85 45/115/48
f 45/61/48 9/21/13 80/116/86
f 81/118/87 80/117/86 36/48/38
f 36/48/38 7/19/11 81/118/87
f 81/118/87 51/70/55 79/119/85
f 44/60/47 15/26/18 82/121/88
f 83/123/89 82/122/88 53/72/57
f 53/72/57 17/68/54 83/123/89
f 84/126/90 83/124/89 52/71/56
f 52/71/56 6/18/10 84/126/90
f 84/126/90 42/57/45 82/127/88
f 61/82/65 24/32/24 85/128/91
f 85/128/91 59/79/63 86/130/92
f 57/77/61 10/22/14 86/131/92
f 86/135/92 46/65/49 87/132/93
f 48/64/51 19/28/20 87/132/93
f 85/134/91 87/132/93 61/133/65
f 56/76/60 14/25/17 88/137/94
f 89/139/95 88/138/94 65/88/70
f 65/88/70 21/84/67 89/139/95
f 89/142/95 62/87/66 90/140/96
f 64/86/69 18/27/19 90/140/96
f 90/140/96 54/73/58 88/141/94
f 69/93/74 1/35/27 91/143/97
f 92/158/98 91/143/97 28/37/29
f 28/39/29 11/23/15 92/144/98
f 93/146/99 92/145/98 60/80/64
f 60/80/64 23/31/23 93/146/99
f 93/146/99 71/95/76 91/148/97
f 68/92/73 13/24/16 94/149/100
f 95/151/101 94/150/100 40/54/43
f 40/54/43 2/15/7 95/151/101
f 96/153/102 95/152/101 72/96/77
f 72/96/77 22/30/22 96/153/102
f 96/153/102 66/89/71 94/154/100
