# Blender v2.76 (sub 0) OBJ File: ''
# www.blender.org
mtllib chair4.mtl
o chair4
v 0.773829 -0.000000 -0.284272
v 0.726932 -0.000000 -0.284272
v 0.726932 0.439076 -0.284272
v 0.773829 0.439076 -0.284272
v 0.773829 0.439076 -0.234499
v 0.726932 0.439076 -0.234499
v 0.726932 -0.000000 -0.234499
v 0.773829 -0.000000 -0.234499
v 0.773829 0.000000 0.241563
v 0.726932 0.000000 0.241563
v 0.726932 0.896632 0.241563
v 0.773829 0.896632 0.241563
v 0.726932 0.896632 0.291335
v 0.773829 0.896632 0.291335
v 0.726932 0.000000 0.291335
v 0.773829 0.000000 0.291335
v 0.684444 0.510919 0.246049
v 0.659593 0.510919 0.246049
v 0.659593 0.853673 0.246049
v 0.684444 0.853673 0.246049
v 0.684444 0.853673 0.282408
v 0.659593 0.853673 0.282408
v 0.659593 0.510919 0.282408
v 0.684444 0.510919 0.282408
v 0.606515 0.510919 0.246049
v 0.581664 0.510919 0.246049
v 0.581664 0.853673 0.246049
v 0.606515 0.853673 0.246049
v 0.606515 0.853673 0.282408
v 0.581664 0.853673 0.282408
v 0.581664 0.510919 0.282408
v 0.606515 0.510919 0.282408
v 0.472418 0.510919 0.246049
v 0.447567 0.510919 0.246049
v 0.447567 0.853673 0.246049
v 0.472418 0.853673 0.246049
v 0.472418 0.853673 0.282408
v 0.447567 0.853673 0.282408
v 0.447567 0.510919 0.282408
v 0.472418 0.510919 0.282408
v 0.325560 0.510919 0.246049
v 0.300708 0.510919 0.246049
v 0.300708 0.853673 0.246049
v 0.325560 0.853673 0.246049
v 0.325560 0.853673 0.282408
v 0.300708 0.853673 0.282408
v 0.300708 0.510919 0.282408
v 0.325560 0.510919 0.282408
v 0.174038 0.510919 0.246049
v 0.149186 0.510919 0.246049
v 0.149186 0.853673 0.246049
v 0.174038 0.853673 0.246049
v 0.174038 0.853673 0.282408
v 0.149186 0.853673 0.282408
v 0.149186 0.510919 0.282408
v 0.174038 0.510919 0.282408
v 0.734023 0.149987 0.263107
v 0.734023 0.182409 0.263107
v 0.734023 0.182409 -0.240775
v 0.734023 0.149987 -0.240775
v 0.768433 0.149987 -0.240775
v 0.768433 0.182409 -0.240775
v 0.768433 0.182409 0.263107
v 0.768433 0.149987 0.263107
v 0.014934 0.510919 0.246049
v -0.009917 0.510919 0.246049
v -0.009917 0.853673 0.246049
v 0.014934 0.853673 0.246049
v 0.014934 0.853673 0.282408
v -0.009917 0.853673 0.282408
v -0.009917 0.510919 0.282408
v 0.014934 0.510919 0.282408
v -0.119164 0.510919 0.246049
v -0.144015 0.510919 0.246049
v -0.144015 0.853673 0.246049
v -0.119164 0.853673 0.246049
v -0.119164 0.853673 0.282408
v -0.144015 0.853673 0.282408
v -0.144015 0.510919 0.282408
v -0.119164 0.510919 0.282408
v -0.266022 0.510919 0.246049
v -0.290874 0.510919 0.246049
v -0.290874 0.853673 0.246049
v -0.266022 0.853673 0.246049
v -0.266022 0.853673 0.282408
v -0.290874 0.853673 0.282408
v -0.290874 0.510919 0.282408
v -0.266022 0.510919 0.282408
v -0.417544 0.510919 0.246049
v -0.442396 0.510919 0.246049
v -0.442396 0.853673 0.246049
v -0.417544 0.853673 0.246049
v -0.417544 0.853673 0.282408
v -0.442396 0.853673 0.282408
v -0.442396 0.510919 0.282408
v -0.417544 0.510919 0.282408
v -0.557552 0.510919 0.246049
v -0.582404 0.510919 0.246049
v -0.582404 0.853673 0.246049
v -0.557552 0.853673 0.246049
v -0.557552 0.853673 0.282408
v -0.582404 0.853673 0.282408
v -0.582404 0.510919 0.282408
v -0.557552 0.510919 0.282408
v -0.735518 -0.000000 -0.284272
v -0.782415 -0.000000 -0.284272
v -0.782415 0.439076 -0.284272
v -0.735518 0.439076 -0.284272
v -0.735518 0.439076 -0.234499
v -0.782415 0.439076 -0.234499
v -0.782415 -0.000000 -0.234499
v -0.735518 -0.000000 -0.234499
v -0.735518 0.000000 0.241563
v -0.782415 0.000000 0.241563
v -0.782415 0.896632 0.241563
v -0.735518 0.896632 0.241563
v -0.782415 0.896632 0.291335
v -0.735518 0.896632 0.291335
v -0.782415 0.000000 0.291335
v -0.735518 0.000000 0.291335
v 0.790500 0.418280 -0.291335
v -0.790500 0.418280 -0.291335
v -0.790500 0.467077 -0.291335
v 0.790500 0.467077 -0.291335
v -0.790500 0.467077 0.256637
v 0.790500 0.467077 0.256637
v -0.790500 0.418280 0.256637
v 0.790500 0.418280 0.256637
v 0.755241 0.888773 0.243250
v 0.755241 0.841876 0.243250
v -0.770326 0.841876 0.243250
v -0.770326 0.888773 0.243250
v -0.770326 0.888773 0.285207
v -0.770326 0.841876 0.285207
v 0.755241 0.841876 0.285207
v 0.755241 0.888773 0.285207
v 0.755241 0.556778 0.243250
v 0.755241 0.509882 0.243250
v -0.770326 0.509882 0.243250
v -0.770326 0.556778 0.243250
v -0.770326 0.556778 0.285207
v -0.770326 0.509882 0.285207
v 0.755241 0.509882 0.285207
v 0.755241 0.556778 0.285207
v -0.753681 0.227783 0.246097
v -0.753681 0.260206 0.246097
v 0.743292 0.260206 0.246097
v 0.743292 0.227783 0.246097
v 0.743292 0.227783 0.280507
v 0.743292 0.260206 0.280507
v -0.753681 0.260206 0.280507
v -0.753681 0.227783 0.280507
v -0.753681 0.227783 -0.276458
v -0.753681 0.260206 -0.276458
v 0.743292 0.260206 -0.276458
v 0.743292 0.227783 -0.276458
v 0.743292 0.227783 -0.242048
v 0.743292 0.260206 -0.242048
v -0.753681 0.260206 -0.242048
v -0.753681 0.227783 -0.242048
v -0.779747 0.149987 0.263107
v -0.779747 0.182409 0.263107
v -0.779747 0.182409 -0.240775
v -0.779747 0.149987 -0.240775
v -0.745336 0.149987 -0.240775
v -0.745336 0.182409 -0.240775
v -0.745336 0.182409 0.263107
v -0.745336 0.149987 0.263107
vt 0.625000 0.000000
vt 0.625000 0.250000
vt 0.375000 0.250000
vt 0.625000 0.500000
vt 0.625000 0.750000
vt 0.375000 0.750000
vt 0.625000 1.000000
vt 0.375000 1.000000
vt 0.875000 0.000000
vt 0.875000 0.250000
vt 0.125000 0.000000
vt 0.375000 0.000000
vt 0.375000 0.500000
vt 0.125000 0.250000
vn 0.000000 -0.000000 -1.000000
vn 0.000000 0.000000 1.000000
vn 0.000000 -1.000000 0.000000
vn -1.000000 0.000000 0.000000
vn 1.000000 -0.000000 0.000000
vn 0.000000 1.000000 0.000000
usemtl blinn2SG.006
s 1
f 2/1/1 3/2/1 4/3/1
f 6/4/2 7/5/2 8/6/2
f 7/5/3 2/7/3 1/8/3
f 7/9/4 6/10/4 3/2/4
f 8/11/5 1/12/5 4/3/5
f 10/1/1 11/2/1 12/3/1
f 11/2/6 13/4/6 14/13/6
f 13/4/2 15/5/2 16/6/2
f 15/5/3 10/7/3 9/8/3
f 15/9/4 13/10/4 11/2/4
f 9/12/5 12/3/5 14/14/5
f 18/1/1 19/2/1 20/3/1
f 22/4/2 23/5/2 24/6/2
f 18/1/4 23/9/4 22/10/4
f 17/12/5 20/3/5 21/14/5
f 26/1/1 27/2/1 28/3/1
f 30/4/2 31/5/2 32/6/2
f 26/1/4 31/9/4 30/10/4
f 25/12/5 28/3/5 29/14/5
f 34/1/1 35/2/1 36/3/1
f 38/4/2 39/5/2 40/6/2
f 34/1/4 39/9/4 38/10/4
f 33/12/5 36/3/5 37/14/5
f 42/1/1 43/2/1 44/3/1
f 46/4/2 47/5/2 48/6/2
f 42/1/4 47/9/4 46/10/4
f 41/12/5 44/3/5 45/14/5
f 50/1/1 51/2/1 52/3/1
f 54/4/2 55/5/2 56/6/2
f 50/1/4 55/9/4 54/10/4
f 49/12/5 52/3/5 53/14/5
f 58/1/4 59/2/4 60/3/4
f 61/13/5 62/4/5 63/5/5
f 63/9/6 62/10/6 59/2/6
f 57/12/3 60/3/3 61/14/3
f 66/1/1 67/2/1 68/3/1
f 70/4/2 71/5/2 72/6/2
f 66/1/4 71/9/4 70/10/4
f 65/12/5 68/3/5 69/14/5
f 74/1/1 75/2/1 76/3/1
f 78/4/2 79/5/2 80/6/2
f 74/1/4 79/9/4 78/10/4
f 73/12/5 76/3/5 77/14/5
f 82/1/1 83/2/1 84/3/1
f 86/4/2 87/5/2 88/6/2
f 82/1/4 87/9/4 86/10/4
f 81/12/5 84/3/5 85/14/5
f 90/1/1 91/2/1 92/3/1
f 94/4/2 95/5/2 96/6/2
f 90/1/4 95/9/4 94/10/4
f 89/12/5 92/3/5 93/14/5
f 98/1/1 99/2/1 100/3/1
f 102/4/2 103/5/2 104/6/2
f 98/1/4 103/9/4 102/10/4
f 97/12/5 100/3/5 101/14/5
f 106/1/1 107/2/1 108/3/1
f 110/4/2 111/5/2 112/6/2
f 111/5/3 106/7/3 105/8/3
f 111/9/4 110/10/4 107/2/4
f 112/11/5 105/12/5 108/3/5
f 114/1/1 115/2/1 116/3/1
f 115/2/6 117/4/6 118/13/6
f 117/4/2 119/5/2 120/6/2
f 119/5/3 114/7/3 113/8/3
f 119/9/4 117/10/4 115/2/4
f 113/12/5 116/3/5 118/14/5
f 122/1/1 123/2/1 124/3/1
f 123/2/6 125/4/6 126/13/6
f 125/4/2 127/5/2 128/6/2
f 127/5/3 122/7/3 121/8/3
f 121/12/5 124/3/5 126/14/5
f 130/1/1 131/2/1 132/3/1
f 134/4/2 135/5/2 136/6/2
f 135/9/3 134/10/3 131/2/3
f 129/12/6 132/3/6 133/14/6
f 138/1/1 139/2/1 140/3/1
f 142/4/2 143/5/2 144/6/2
f 143/9/3 142/10/3 139/2/3
f 137/12/6 140/3/6 141/14/6
f 146/1/1 147/2/1 148/3/1
f 150/4/2 151/5/2 152/6/2
f 151/9/6 150/10/6 147/2/6
f 145/12/3 148/3/3 149/14/3
f 154/1/1 155/2/1 156/3/1
f 158/4/2 159/5/2 160/6/2
f 159/9/6 158/10/6 155/2/6
f 153/12/3 156/3/3 157/14/3
f 162/1/4 163/2/4 164/3/4
f 165/13/5 166/4/5 167/5/5
f 167/9/6 166/10/6 163/2/6
f 161/12/3 164/3/3 165/14/3
f 1/12/1 2/1/1 4/3/1
f 5/13/2 6/4/2 8/6/2
f 8/6/3 7/5/3 1/8/3
f 2/1/4 7/9/4 3/2/4
f 5/14/5 8/11/5 4/3/5
f 9/12/1 10/1/1 12/3/1
f 12/3/6 11/2/6 14/13/6
f 14/13/2 13/4/2 16/6/2
f 16/6/3 15/5/3 9/8/3
f 10/1/4 15/9/4 11/2/4
f 16/11/5 9/12/5 14/14/5
f 17/12/1 18/1/1 20/3/1
f 21/13/2 22/4/2 24/6/2
f 19/2/4 18/1/4 22/10/4
f 24/11/5 17/12/5 21/14/5
f 25/12/1 26/1/1 28/3/1
f 29/13/2 30/4/2 32/6/2
f 27/2/4 26/1/4 30/10/4
f 32/11/5 25/12/5 29/14/5
f 33/12/1 34/1/1 36/3/1
f 37/13/2 38/4/2 40/6/2
f 35/2/4 34/1/4 38/10/4
f 40/11/5 33/12/5 37/14/5
f 41/12/1 42/1/1 44/3/1
f 45/13/2 46/4/2 48/6/2
f 43/2/4 42/1/4 46/10/4
f 48/11/5 41/12/5 45/14/5
f 49/12/1 50/1/1 52/3/1
f 53/13/2 54/4/2 56/6/2
f 51/2/4 50/1/4 54/10/4
f 56/11/5 49/12/5 53/14/5
f 57/12/4 58/1/4 60/3/4
f 64/6/5 61/13/5 63/5/5
f 58/1/6 63/9/6 59/2/6
f 64/11/3 57/12/3 61/14/3
f 65/12/1 66/1/1 68/3/1
f 69/13/2 70/4/2 72/6/2
f 67/2/4 66/1/4 70/10/4
f 72/11/5 65/12/5 69/14/5
f 73/12/1 74/1/1 76/3/1
f 77/13/2 78/4/2 80/6/2
f 75/2/4 74/1/4 78/10/4
f 80/11/5 73/12/5 77/14/5
f 81/12/1 82/1/1 84/3/1
f 85/13/2 86/4/2 88/6/2
f 83/2/4 82/1/4 86/10/4
f 88/11/5 81/12/5 85/14/5
f 89/12/1 90/1/1 92/3/1
f 93/13/2 94/4/2 96/6/2
f 91/2/4 90/1/4 94/10/4
f 96/11/5 89/12/5 93/14/5
f 97/12/1 98/1/1 100/3/1
f 101/13/2 102/4/2 104/6/2
f 99/2/4 98/1/4 102/10/4
f 104/11/5 97/12/5 101/14/5
f 105/12/1 106/1/1 108/3/1
f 109/13/2 110/4/2 112/6/2
f 112/6/3 111/5/3 105/8/3
f 106/1/4 111/9/4 107/2/4
f 109/14/5 112/11/5 108/3/5
f 113/12/1 114/1/1 116/3/1
f 116/3/6 115/2/6 118/13/6
f 118/13/2 117/4/2 120/6/2
f 120/6/3 119/5/3 113/8/3
f 114/1/4 119/9/4 115/2/4
f 120/11/5 113/12/5 118/14/5
f 121/12/1 122/1/1 124/3/1
f 124/3/6 123/2/6 126/13/6
f 126/13/2 125/4/2 128/6/2
f 128/6/3 127/5/3 121/8/3
f 128/11/5 121/12/5 126/14/5
f 129/12/1 130/1/1 132/3/1
f 133/13/2 134/4/2 136/6/2
f 130/1/3 135/9/3 131/2/3
f 136/11/6 129/12/6 133/14/6
f 137/12/1 138/1/1 140/3/1
f 141/13/2 142/4/2 144/6/2
f 138/1/3 143/9/3 139/2/3
f 144/11/6 137/12/6 141/14/6
f 145/12/1 146/1/1 148/3/1
f 149/13/2 150/4/2 152/6/2
f 146/1/6 151/9/6 147/2/6
f 152/11/3 145/12/3 149/14/3
f 153/12/1 154/1/1 156/3/1
f 157/13/2 158/4/2 160/6/2
f 154/1/6 159/9/6 155/2/6
f 160/11/3 153/12/3 157/14/3
f 161/12/4 162/1/4 164/3/4
f 168/6/5 165/13/5 167/5/5
f 162/1/6 167/9/6 163/2/6
f 168/11/3 161/12/3 165/14/3
