# Blender v2.76 (sub 0) OBJ File: ''
# www.blender.org
mtllib chair5.mtl
o chair5
v -0.215614 -0.000000 -0.242498
v -0.262511 -0.000000 -0.242498
v -0.262511 0.485759 -0.242498
v -0.215614 0.485759 -0.242498
v -0.215614 0.485759 -0.192725
v -0.262511 0.485759 -0.192725
v -0.262511 -0.000000 -0.192725
v -0.215614 -0.000000 -0.192725
v 0.253924 -0.000000 -0.242498
v 0.207028 -0.000000 -0.242498
v 0.207028 0.485759 -0.242498
v 0.253924 0.485759 -0.242498
v 0.253924 0.485759 -0.192725
v 0.207028 0.485759 -0.192725
v 0.207028 -0.000000 -0.192725
v 0.253924 -0.000000 -0.192725
v -0.215614 0.000000 0.218205
v -0.262511 0.000000 0.218205
v -0.262511 0.973283 0.218205
v -0.215614 0.973283 0.218205
v -0.262511 0.973283 0.267977
v -0.215614 0.973283 0.267977
v -0.262511 0.000000 0.267977
v -0.215614 0.000000 0.267977
v 0.253924 0.000000 0.218205
v 0.207028 0.000000 0.218205
v 0.207028 0.973283 0.218205
v 0.253924 0.973283 0.218205
v 0.207028 0.973283 0.267977
v 0.253924 0.973283 0.267977
v 0.207028 0.000000 0.267977
v 0.253924 0.000000 0.267977
v 0.270596 0.464964 -0.267977
v -0.270596 0.464964 -0.267977
v -0.270596 0.513760 -0.267977
v 0.270596 0.513760 -0.267977
v -0.270596 0.513760 0.233279
v 0.270596 0.513760 0.233279
v -0.270596 0.464964 0.233279
v 0.270596 0.464964 0.233279
v 0.235337 0.965424 0.219892
v 0.235337 0.918528 0.219892
v -0.250422 0.918528 0.219892
v -0.250422 0.965424 0.219892
v -0.250422 0.965424 0.261849
v -0.250422 0.918528 0.261849
v 0.235337 0.918528 0.261849
v 0.235337 0.965424 0.261849
v 0.235337 0.633429 0.219892
v 0.235337 0.586533 0.219892
v -0.250422 0.586533 0.219892
v -0.250422 0.633429 0.219892
v -0.250422 0.633429 0.261849
v -0.250422 0.586533 0.261849
v 0.235337 0.586533 0.261849
v 0.235337 0.633429 0.261849
vt 0.625000 0.000000
vt 0.625000 0.250000
vt 0.375000 0.250000
vt 0.625000 0.500000
vt 0.625000 0.750000
vt 0.375000 0.750000
vt 0.625000 1.000000
vt 0.375000 1.000000
vt 0.875000 0.000000
vt 0.875000 0.250000
vt 0.375000 0.000000
vt 0.125000 0.250000
vt 0.375000 0.500000
vt 0.125000 0.000000
vn 0.000000 -0.000000 -1.000000
vn 0.000000 0.000000 1.000000
vn 0.000000 -1.000000 0.000000
vn -1.000000 0.000000 0.000000
vn 1.000000 0.000000 0.000000
vn 0.000000 1.000000 0.000000
usemtl blinn2SG.007
s 1
f 2/1/1 3/2/1 4/3/1
f 6/4/2 7/5/2 8/6/2
f 7/5/3 2/7/3 1/8/3
f 7/9/4 6/10/4 3/2/4
f 1/11/5 4/3/5 5/12/5
f 10/1/1 11/2/1 12/3/1
f 14/4/2 15/5/2 16/6/2
f 15/5/3 10/7/3 9/8/3
f 15/9/4 14/10/4 11/2/4
f 9/11/5 12/3/5 13/12/5
f 18/1/1 19/2/1 20/3/1
f 19/2/6 21/4/6 22/13/6
f 21/4/2 23/5/2 24/6/2
f 23/5/3 18/7/3 17/8/3
f 18/1/4 23/9/4 21/10/4
f 17/11/5 20/3/5 22/12/5
f 26/1/1 27/2/1 28/3/1
f 27/2/6 29/4/6 30/13/6
f 29/4/2 31/5/2 32/6/2
f 31/5/3 26/7/3 25/8/3
f 26/1/4 31/9/4 29/10/4
f 25/11/5 28/3/5 30/12/5
f 34/1/1 35/2/1 36/3/1
f 35/2/6 37/4/6 38/13/6
f 37/4/2 39/5/2 40/6/2
f 39/5/3 34/7/3 33/8/3
f 39/9/4 37/10/4 35/2/4
f 33/11/5 36/3/5 38/12/5
f 42/1/1 43/2/1 44/3/1
f 46/4/2 47/5/2 48/6/2
f 47/9/3 46/10/3 43/2/3
f 41/11/6 44/3/6 45/12/6
f 50/1/1 51/2/1 52/3/1
f 54/4/2 55/5/2 56/6/2
f 55/9/3 54/10/3 51/2/3
f 49/11/6 52/3/6 53/12/6
f 1/11/1 2/1/1 4/3/1
f 5/13/2 6/4/2 8/6/2
f 8/6/3 7/5/3 1/8/3
f 2/1/4 7/9/4 3/2/4
f 8/14/5 1/11/5 5/12/5
f 9/11/1 10/1/1 12/3/1
f 13/13/2 14/4/2 16/6/2
f 16/6/3 15/5/3 9/8/3
f 10/1/4 15/9/4 11/2/4
f 16/14/5 9/11/5 13/12/5
f 17/11/1 18/1/1 20/3/1
f 20/3/6 19/2/6 22/13/6
f 22/13/2 21/4/2 24/6/2
f 24/6/3 23/5/3 17/8/3
f 19/2/4 18/1/4 21/10/4
f 24/14/5 17/11/5 22/12/5
f 25/11/1 26/1/1 28/3/1
f 28/3/6 27/2/6 30/13/6
f 30/13/2 29/4/2 32/6/2
f 32/6/3 31/5/3 25/8/3
f 27/2/4 26/1/4 29/10/4
f 32/14/5 25/11/5 30/12/5
f 33/11/1 34/1/1 36/3/1
f 36/3/6 35/2/6 38/13/6
f 38/13/2 37/4/2 40/6/2
f 40/6/3 39/5/3 33/8/3
f 34/1/4 39/9/4 35/2/4
f 40/14/5 33/11/5 38/12/5
f 41/11/1 42/1/1 44/3/1
f 45/13/2 46/4/2 48/6/2
f 42/1/3 47/9/3 43/2/3
f 48/14/6 41/11/6 45/12/6
f 49/11/1 50/1/1 52/3/1
f 53/13/2 54/4/2 56/6/2
f 50/1/3 55/9/3 51/2/3
f 56/14/6 49/11/6 53/12/6
