# Blender v2.76 (sub 0) OBJ File: ''
# www.blender.org
mtllib doorframe2.mtl
o doorframe2
v 0.560787 2.376555 -0.110825
v -0.560787 2.376555 -0.110825
v -0.664066 2.479835 -0.110825
v 0.664066 2.479835 -0.110825
v -0.562769 -0.000000 -0.110825
v -0.661971 -0.000000 -0.110825
v 0.562769 -0.000000 -0.110825
v 0.661971 -0.000000 -0.110825
v -0.560787 2.376555 0.110825
v 0.560787 2.376555 0.110825
v 0.664066 2.479835 0.110825
v -0.664066 2.479835 0.110825
v -0.562769 0.000000 0.110825
v -0.661971 0.000000 0.110825
v 0.562769 0.000000 0.110825
v 0.661971 0.000000 0.110825
v 0.554770 2.370539 0.102826
v -0.554770 2.370539 0.102826
v -0.554770 2.370539 -0.102826
v 0.554770 2.370539 -0.102826
v -0.669970 2.485739 0.102826
v 0.669970 2.485739 0.102826
v 0.669970 2.485739 -0.102826
v -0.669970 2.485739 -0.102826
v -0.554770 0.000000 0.102826
v -0.554770 -0.000000 -0.102826
v -0.669970 0.000000 0.102826
v -0.669970 -0.000000 -0.102826
v 0.554770 0.000000 0.102826
v 0.554770 -0.000000 -0.102826
v 0.669970 0.000000 0.102826
v 0.669970 -0.000000 -0.102826
vt 0.625000 0.250000
vt 0.375000 0.250000
vt 0.625000 0.000000
vt 0.375000 0.000000
vn 0.000000 -1.000000 0.000000
vn 0.000000 1.000000 0.000000
vn 1.000000 0.000000 0.000000
vn -1.000000 0.000000 0.000000
vn -0.707100 0.000000 0.707100
vn 0.000000 -0.799200 0.601100
vn 0.798900 -0.000700 0.601500
vn 0.000000 0.804600 0.593800
vn 0.707100 -0.000600 0.707100
vn -0.804600 0.000000 0.593800
vn -0.798900 -0.000700 -0.601500
vn 0.000000 -0.799200 -0.601100
vn 0.707100 -0.000000 -0.707100
vn -0.707100 -0.000600 -0.707100
vn 0.000000 0.804600 -0.593800
vn 0.804600 -0.000000 -0.593800
vn -0.798900 -0.000700 0.601500
vn 0.707100 0.000000 0.707100
vn 0.000000 0.804600 0.593900
vn 0.804600 0.000000 0.593800
vn -0.707100 -0.000600 0.707100
vn -0.707100 -0.000000 -0.707100
vn 0.798900 -0.000700 -0.601500
vn -0.804600 -0.000000 -0.593800
vn 0.000000 0.804600 -0.593900
vn 0.707100 -0.000600 -0.707100
vn 0.000000 -0.000000 -1.000000
vn 0.000000 0.000000 1.000000
usemtl blinn1SG.004
s off
f 18/1/1 19/1/1 20/2/1
f 22/2/2 23/2/2 24/1/2
f 25/3/3 26/3/3 19/1/3
f 21/1/4 24/1/4 28/3/4
f 17/2/4 20/2/4 30/4/4
f 22/2/3 31/4/3 32/4/3
f 17/2/5 29/4/5 15/4/5
f 17/2/6 10/2/6 9/1/6
f 18/1/7 9/1/7 13/3/7
f 22/2/8 21/1/8 12/1/8
f 11/2/9 16/4/9 31/4/9
f 12/1/10 21/1/10 27/3/10
f 20/2/11 1/2/11 7/4/11
f 20/2/12 19/1/12 2/1/12
f 19/1/13 26/3/13 5/3/13
f 3/1/14 6/3/14 28/3/14
f 24/1/15 23/2/15 4/2/15
f 4/2/16 23/2/16 32/4/16
f 17/2/1 18/1/1 20/2/1
f 21/1/2 22/2/2 24/1/2
f 18/1/3 25/3/3 19/1/3
f 27/3/4 21/1/4 28/3/4
f 29/4/4 17/2/4 30/4/4
f 23/2/3 22/2/3 32/4/3
f 10/2/17 17/2/17 15/4/17
f 18/1/6 17/2/6 9/1/6
f 25/3/18 18/1/18 13/3/18
f 11/2/19 22/2/19 12/1/19
f 22/2/20 11/2/20 31/4/20
f 14/3/21 12/1/21 27/3/21
f 30/4/22 20/2/22 7/4/22
f 1/2/12 20/2/12 2/1/12
f 2/1/23 19/1/23 5/3/23
f 24/1/24 3/1/24 28/3/24
f 3/1/25 24/1/25 4/2/25
f 8/4/26 4/2/26 32/4/26
s 1
f 2/1/27 3/1/27 4/2/27
f 2/1/27 5/3/27 6/3/27
f 1/2/27 4/2/27 8/4/27
f 10/2/28 11/2/28 12/1/28
f 9/1/28 12/1/28 14/3/28
f 10/2/28 15/4/28 16/4/28
f 1/2/27 2/1/27 4/2/27
f 3/1/27 2/1/27 6/3/27
f 7/4/27 1/2/27 8/4/27
f 9/1/28 10/2/28 12/1/28
f 13/3/28 9/1/28 14/3/28
f 11/2/28 10/2/28 16/4/28
