# Blender v2.76 (sub 0) OBJ File: ''
# www.blender.org
mtllib doorframe1.mtl
o doorframe1
v 0.554770 2.370539 -0.110825
v -0.554770 2.370539 -0.110825
v -0.669970 2.485739 -0.110825
v 0.669970 2.485739 -0.110825
v -0.554770 -0.000000 -0.110825
v -0.669970 -0.000000 -0.110825
v 0.554770 -0.000000 -0.110825
v 0.669970 -0.000000 -0.110825
v 0.554770 2.370539 0.110825
v 0.669970 2.485739 0.110825
v -0.669970 2.485739 0.110825
v -0.554770 2.370539 0.110825
v -0.669970 0.000000 0.110825
v -0.554770 0.000000 0.110825
v 0.554770 0.000000 0.110825
v 0.669970 0.000000 0.110825
vt 0.625000 0.250000
vt 0.375000 0.250000
vt 0.625000 0.000000
vt 0.375000 0.000000
vn 0.000000 -1.000000 0.000000
vn 0.000000 1.000000 0.000000
vn 1.000000 0.000000 0.000000
vn -1.000000 0.000000 0.000000
vn 0.000000 -0.000000 -1.000000
vn 0.000000 0.000000 1.000000
usemtl blinn1SG.003
s off
f 12/1/1 2/1/1 1/2/1
f 10/2/2 4/2/2 3/1/2
f 14/3/3 5/3/3 2/1/3
f 11/1/4 3/1/4 6/3/4
f 9/2/4 1/2/4 7/4/4
f 16/4/3 8/4/3 4/2/3
f 9/2/1 12/1/1 1/2/1
f 11/1/2 10/2/2 3/1/2
f 12/1/3 14/3/3 2/1/3
f 13/3/4 11/1/4 6/3/4
f 15/4/4 9/2/4 7/4/4
f 10/2/3 16/4/3 4/2/3
s 1
f 2/1/5 3/1/5 4/2/5
f 2/1/5 5/3/5 6/3/5
f 1/2/5 4/2/5 8/4/5
f 10/2/6 11/1/6 12/1/6
f 12/1/6 11/1/6 13/3/6
f 16/4/6 10/2/6 9/2/6
f 1/2/5 2/1/5 4/2/5
f 3/1/5 2/1/5 6/3/5
f 7/4/5 1/2/5 8/4/5
f 9/2/6 10/2/6 12/1/6
f 14/3/6 12/1/6 13/3/6
f 15/4/6 16/4/6 9/2/6
