# Blender v2.76 (sub 0) OBJ File: ''
# www.blender.org
mtllib fence2.mtl
o fence2
v 0.708392 0.144616 -0.074068
v 0.635534 0.144616 -0.074068
v 0.635534 1.690275 -0.074068
v 0.708392 1.579649 -0.074068
v 0.635534 1.690275 -0.051842
v 0.708392 1.579649 -0.051842
v 0.635534 0.144616 -0.051842
v 0.708392 0.144616 -0.051842
v 0.561268 0.144616 -0.074068
v 0.561268 0.144616 -0.051842
v 0.561268 1.579649 -0.051842
v 0.561268 1.579649 -0.074068
v 0.965031 0.144616 -0.074068
v 0.892752 0.144616 -0.074068
v 0.892752 1.690275 -0.074068
v 0.965031 1.579649 -0.074068
v 0.892752 1.690275 -0.051842
v 0.965031 1.579649 -0.051842
v 0.892752 0.144616 -0.051842
v 0.965031 0.144616 -0.051842
v 0.817907 0.144616 -0.074068
v 0.817907 0.144616 -0.051842
v 0.817907 1.579649 -0.051842
v 0.817907 1.579649 -0.074068
v 1.235832 0.144616 -0.074068
v 1.163593 0.144616 -0.074068
v 1.163593 1.690275 -0.074068
v 1.235832 1.579649 -0.074068
v 1.163593 1.690275 -0.051842
v 1.235832 1.579649 -0.051842
v 1.163593 0.144616 -0.051842
v 1.235832 0.144616 -0.051842
v 1.088708 0.144616 -0.074068
v 1.088708 0.144616 -0.051842
v 1.088708 1.579649 -0.051842
v 1.088708 1.579649 -0.074068
v 1.492470 0.144616 -0.074068
v 1.422673 0.144616 -0.074068
v 1.422673 1.690275 -0.074068
v 1.492470 1.579649 -0.074068
v 1.422673 1.690275 -0.051842
v 1.492470 1.579649 -0.051842
v 1.422673 0.144616 -0.051842
v 1.492470 0.144616 -0.051842
v 1.345346 0.144616 -0.074068
v 1.345346 0.144616 -0.051842
v 1.345346 1.579649 -0.051842
v 1.345346 1.579649 -0.074068
v -0.331731 0.144616 -0.074068
v -0.405579 0.144616 -0.074068
v -0.405579 1.690275 -0.074068
v -0.331731 1.579649 -0.074068
v -0.405579 1.690275 -0.051842
v -0.331731 1.579649 -0.051842
v -0.405579 0.144616 -0.051842
v -0.331731 0.144616 -0.051842
v -0.478855 0.144616 -0.074068
v -0.478855 0.144616 -0.051842
v -0.478855 1.579649 -0.051842
v -0.478855 1.579649 -0.074068
v -0.075092 0.144616 -0.074068
v -0.150728 0.144616 -0.074068
v -0.150728 1.690275 -0.074068
v -0.075092 1.579649 -0.074068
v -0.150728 1.690275 -0.051842
v -0.075092 1.579649 -0.051842
v -0.150728 0.144616 -0.051842
v -0.075092 0.144616 -0.051842
v -0.222216 0.144616 -0.074068
v -0.222216 0.144616 -0.051842
v -0.222216 1.579649 -0.051842
v -0.222216 1.579649 -0.074068
v 0.195709 0.144616 -0.074068
v 0.117105 0.144616 -0.074068
v 0.117105 1.690275 -0.074068
v 0.195709 1.579649 -0.074068
v 0.117105 1.690275 -0.051842
v 0.195709 1.579649 -0.051842
v 0.117105 0.144616 -0.051842
v 0.195709 0.144616 -0.051842
v 0.048585 0.144616 -0.074068
v 0.048585 0.144616 -0.051842
v 0.048585 1.579649 -0.051842
v 0.048585 1.579649 -0.074068
v 0.452347 0.144616 -0.074068
v 0.381397 0.144616 -0.074068
v 0.381397 1.690275 -0.074068
v 0.452347 1.579649 -0.074068
v 0.381397 1.690275 -0.051842
v 0.452347 1.579649 -0.051842
v 0.381397 0.144616 -0.051842
v 0.452347 0.144616 -0.051842
v 0.305223 0.144616 -0.074068
v 0.305223 0.144616 -0.051842
v 0.305223 1.579649 -0.051842
v 0.305223 1.579649 -0.074068
v -1.338061 0.144616 -0.074068
v -1.407882 0.144616 -0.074068
v -1.407882 1.690275 -0.074068
v -1.338061 1.579649 -0.074068
v -1.407882 1.690275 -0.051842
v -1.338061 1.579649 -0.051842
v -1.407882 0.144616 -0.051842
v -1.338061 0.144616 -0.051842
v -1.485185 0.144616 -0.074068
v -1.485185 0.144616 -0.051842
v -1.485185 1.579649 -0.051842
v -1.485185 1.579649 -0.074068
v -1.081423 0.144616 -0.074068
v -1.154652 0.144616 -0.074068
v -1.154652 1.690275 -0.074068
v -1.081423 1.579649 -0.074068
v -1.154652 1.690275 -0.051842
v -1.081423 1.579649 -0.051842
v -1.154652 0.144616 -0.051842
v -1.081423 0.144616 -0.051842
v -1.228547 0.144616 -0.074068
v -1.228547 0.144616 -0.051842
v -1.228547 1.579649 -0.051842
v -1.228547 1.579649 -0.074068
v -0.810621 0.144616 -0.074068
v -0.887738 0.144616 -0.074068
v -0.887738 1.690275 -0.074068
v -0.810621 1.579649 -0.074068
v -0.887738 1.690275 -0.051842
v -0.810621 1.579649 -0.051842
v -0.887738 0.144616 -0.051842
v -0.810621 0.144616 -0.051842
v -0.957745 0.144616 -0.074068
v -0.957745 0.144616 -0.051842
v -0.957745 1.579649 -0.051842
v -0.957745 1.579649 -0.074068
v -0.553983 0.144616 -0.074068
v -0.630177 0.144616 -0.074068
v -0.630177 1.690275 -0.074068
v -0.553983 1.579649 -0.074068
v -0.630177 1.690275 -0.051842
v -0.553983 1.579649 -0.051842
v -0.630177 0.144616 -0.051842
v -0.553983 0.144616 -0.051842
v -0.701107 0.144616 -0.074068
v -0.701107 0.144616 -0.051842
v -0.701107 1.579649 -0.051842
v -0.701107 1.579649 -0.074068
v -1.546322 1.331230 -0.050648
v -1.546322 1.478354 -0.050648
v 1.546322 1.478354 -0.050648
v 1.546322 1.331230 -0.050648
v 1.546322 1.478354 -0.028422
v 1.546322 1.331230 -0.028422
v -1.546322 1.478354 -0.028422
v -1.546322 1.331230 -0.028422
v -1.546322 0.279928 -0.050648
v -1.546322 0.427052 -0.050648
v 1.546322 0.427052 -0.050648
v 1.546322 0.279928 -0.050648
v 1.546322 0.427052 -0.028422
v 1.546322 0.279928 -0.028422
v -1.546322 0.427052 -0.028422
v -1.546322 0.279928 -0.028422
v 0.042419 0.000715 -0.031861
v -0.059785 0.000715 -0.031861
v -0.059785 1.579649 -0.031861
v 0.042419 1.579649 -0.031861
v -0.059785 1.579649 0.074068
v 0.042419 1.579649 0.074068
v -0.059785 0.000715 0.074068
v 0.042419 0.000715 0.074068
vt 0.498804 0.000000
vt 0.498804 0.250000
vt 0.375000 0.250000
vt 0.498804 0.500000
vt 0.375000 0.500000
vt 0.498804 0.750000
vt 0.498804 1.000000
vt 0.375000 1.000000
vt 0.875000 0.000000
vt 0.875000 0.250000
vt 0.625000 0.250000
vt 0.375000 0.000000
vt 0.125000 0.250000
vt 0.497820 0.000000
vt 0.497820 0.250000
vt 0.497820 0.500000
vt 0.497820 0.750000
vt 0.497820 1.000000
vt 0.493602 0.000000
vt 0.493602 0.250000
vt 0.493602 0.500000
vt 0.493602 0.750000
vt 0.493602 1.000000
vt 0.500486 0.000000
vt 0.500486 0.250000
vt 0.500486 0.500000
vt 0.500486 0.750000
vt 0.500486 1.000000
vt 0.503524 0.000000
vt 0.503524 0.250000
vt 0.503524 0.500000
vt 0.503524 0.750000
vt 0.503524 1.000000
vt 0.508567 0.000000
vt 0.508567 0.250000
vt 0.508567 0.500000
vt 0.508567 0.750000
vt 0.508567 1.000000
vt 0.495561 0.000000
vt 0.495561 0.250000
vt 0.495561 0.500000
vt 0.495561 0.750000
vt 0.495561 1.000000
vt 0.486561 0.000000
vt 0.486561 0.250000
vt 0.486561 0.500000
vt 0.486561 0.750000
vt 0.486561 1.000000
vt 0.499435 0.000000
vt 0.499435 0.250000
vt 0.499435 0.500000
vt 0.499435 0.750000
vt 0.499435 1.000000
vt 0.506041 0.000000
vt 0.506041 0.250000
vt 0.506041 0.500000
vt 0.506041 0.750000
vt 0.506041 1.000000
vt 0.504473 0.000000
vt 0.504473 0.250000
vt 0.504473 0.500000
vt 0.504473 0.750000
vt 0.504473 1.000000
vt 0.625000 0.000000
vt 0.625000 0.500000
vt 0.625000 0.750000
vt 0.375000 0.750000
vt 0.625000 1.000000
vt 0.125000 0.000000
vn -0.000000 -0.000000 -1.000000
vn 0.835100 0.550000 0.000000
vn 0.000000 0.000000 1.000000
vn 0.000000 -1.000000 0.000000
vn -1.000000 0.000000 0.000000
vn 1.000000 0.000000 0.000000
vn 0.837200 0.547000 0.000000
vn 0.837300 0.546800 0.000000
vn 0.845700 0.533600 0.000000
vn 0.831700 0.555200 0.000000
vn 0.825500 0.564400 0.000000
vn 0.815200 0.579200 0.000000
vn 0.841800 0.539900 0.000000
vn 0.845700 0.533700 0.000000
vn 0.833900 0.552000 0.000000
vn 0.820300 0.571900 0.000000
vn 0.823600 0.567200 0.000000
vn 0.000000 1.000000 0.000000
vn -0.819600 0.572900 0.000000
vn -0.828100 0.560600 0.000000
vn -0.828200 0.560400 0.000000
vn -0.830300 0.557400 0.000000
vn -0.823600 0.567100 0.000000
vn -0.850100 0.526600 0.000000
vn -0.839900 0.542800 0.000000
vn -0.833700 0.552200 0.000000
vn -0.841800 0.539800 0.000000
vn -0.845000 0.534700 0.000000
vn -0.831500 0.555500 0.000000
vn -0.819700 0.572800 0.000000
usemtl blinn1SG.006
s 1
f 2/1/1 3/2/1 4/3/1
f 3/2/2 5/4/2 6/5/2
f 6/5/3 5/4/3 7/6/3
f 7/6/4 2/7/4 1/8/4
f 10/9/5 11/10/5 12/11/5
f 1/12/6 4/3/6 6/13/6
f 14/14/1 15/15/1 16/3/1
f 15/15/7 17/16/7 18/5/7
f 18/5/3 17/16/3 19/17/3
f 19/17/4 14/18/4 13/8/4
f 22/9/5 23/10/5 24/11/5
f 13/12/6 16/3/6 18/13/6
f 26/14/1 27/15/1 28/3/1
f 27/15/8 29/16/8 30/5/8
f 30/5/3 29/16/3 31/17/3
f 31/17/4 26/18/4 25/8/4
f 34/9/5 35/10/5 36/11/5
f 25/12/6 28/3/6 30/13/6
f 38/19/1 39/20/1 40/3/1
f 39/20/9 41/21/9 42/5/9
f 42/5/3 41/21/3 43/22/3
f 43/22/4 38/23/4 37/8/4
f 46/9/5 47/10/5 48/11/5
f 37/12/6 40/3/6 42/13/6
f 50/24/1 51/25/1 52/3/1
f 51/25/10 53/26/10 54/5/10
f 54/5/3 53/26/3 55/27/3
f 55/27/4 50/28/4 49/8/4
f 58/9/5 59/10/5 60/11/5
f 49/12/6 52/3/6 54/13/6
f 62/29/1 63/30/1 64/3/1
f 63/30/11 65/31/11 66/5/11
f 66/5/3 65/31/3 67/32/3
f 67/32/4 62/33/4 61/8/4
f 70/9/5 71/10/5 72/11/5
f 61/12/6 64/3/6 66/13/6
f 74/34/1 75/35/1 76/3/1
f 75/35/12 77/36/12 78/5/12
f 78/5/3 77/36/3 79/37/3
f 79/37/4 74/38/4 73/8/4
f 82/9/5 83/10/5 84/11/5
f 73/12/6 76/3/6 78/13/6
f 86/39/1 87/40/1 88/3/1
f 87/40/13 89/41/13 90/5/13
f 90/5/3 89/41/3 91/42/3
f 91/42/4 86/43/4 85/8/4
f 94/9/5 95/10/5 96/11/5
f 85/12/6 88/3/6 90/13/6
f 98/44/1 99/45/1 100/3/1
f 99/45/14 101/46/14 102/5/14
f 102/5/3 101/46/3 103/47/3
f 103/47/4 98/48/4 97/8/4
f 106/9/5 107/10/5 108/11/5
f 97/12/6 100/3/6 102/13/6
f 110/49/1 111/50/1 112/3/1
f 111/50/15 113/51/15 114/5/15
f 114/5/3 113/51/3 115/52/3
f 115/52/4 110/53/4 109/8/4
f 118/9/5 119/10/5 120/11/5
f 109/12/6 112/3/6 114/13/6
f 122/54/1 123/55/1 124/3/1
f 123/55/16 125/56/16 126/5/16
f 126/5/3 125/56/3 127/57/3
f 127/57/4 122/58/4 121/8/4
f 130/9/5 131/10/5 132/11/5
f 121/12/6 124/3/6 126/13/6
f 134/59/1 135/60/1 136/3/1
f 135/60/17 137/61/17 138/5/17
f 138/5/3 137/61/3 139/62/3
f 139/62/4 134/63/4 133/8/4
f 142/9/5 143/10/5 144/11/5
f 133/12/6 136/3/6 138/13/6
f 146/64/1 147/11/1 148/3/1
f 147/11/6 149/65/6 150/5/6
f 149/65/3 151/66/3 152/67/3
f 151/66/5 146/68/5 145/8/5
f 151/9/18 149/10/18 147/11/18
f 145/12/4 148/3/4 150/13/4
f 154/64/1 155/11/1 156/3/1
f 155/11/6 157/65/6 158/5/6
f 157/65/3 159/66/3 160/67/3
f 159/66/5 154/68/5 153/8/5
f 159/9/18 157/10/18 155/11/18
f 153/12/4 156/3/4 158/13/4
f 162/64/1 163/11/1 164/3/1
f 163/11/18 165/65/18 166/5/18
f 165/65/3 167/66/3 168/67/3
f 167/9/5 165/10/5 163/11/5
f 161/12/6 164/3/6 166/13/6
f 48/11/19 47/65/19 41/21/19
f 43/22/3 41/21/3 47/65/3
f 43/22/4 46/66/4 45/68/4
f 38/19/1 45/64/1 48/11/1
f 36/11/20 35/65/20 29/16/20
f 31/17/3 29/16/3 35/65/3
f 31/17/4 34/66/4 33/68/4
f 26/14/1 33/64/1 36/11/1
f 24/11/21 23/65/21 17/16/21
f 19/17/3 17/16/3 23/65/3
f 19/17/4 22/66/4 21/68/4
f 14/14/1 21/64/1 24/11/1
f 12/11/22 11/65/22 5/4/22
f 7/6/3 5/4/3 11/65/3
f 7/6/4 10/66/4 9/68/4
f 2/1/1 9/64/1 12/11/1
f 96/11/23 95/65/23 89/41/23
f 91/42/3 89/41/3 95/65/3
f 91/42/4 94/66/4 93/68/4
f 86/39/1 93/64/1 96/11/1
f 84/11/24 83/65/24 77/36/24
f 79/37/3 77/36/3 83/65/3
f 79/37/4 82/66/4 81/68/4
f 74/34/1 81/64/1 84/11/1
f 72/11/25 71/65/25 65/31/25
f 67/32/3 65/31/3 71/65/3
f 67/32/4 70/66/4 69/68/4
f 62/29/1 69/64/1 72/11/1
f 60/11/26 59/65/26 53/26/26
f 55/27/3 53/26/3 59/65/3
f 55/27/4 58/66/4 57/68/4
f 50/24/1 57/64/1 60/11/1
f 144/11/27 143/65/27 137/61/27
f 139/62/3 137/61/3 143/65/3
f 139/62/4 142/66/4 141/68/4
f 134/59/1 141/64/1 144/11/1
f 123/55/28 132/11/28 131/65/28
f 127/57/3 125/56/3 131/65/3
f 127/57/4 130/66/4 129/68/4
f 122/54/1 129/64/1 132/11/1
f 120/11/29 119/65/29 113/51/29
f 115/52/3 113/51/3 119/65/3
f 115/52/4 118/66/4 117/68/4
f 110/49/1 117/64/1 120/11/1
f 108/11/30 107/65/30 101/46/30
f 103/47/3 101/46/3 107/65/3
f 103/47/4 106/66/4 105/68/4
f 98/44/1 105/64/1 108/11/1
f 1/12/1 2/1/1 4/3/1
f 4/3/2 3/2/2 6/5/2
f 8/67/3 6/5/3 7/6/3
f 8/67/4 7/6/4 1/8/4
f 9/64/5 10/9/5 12/11/5
f 8/69/6 1/12/6 6/13/6
f 13/12/1 14/14/1 16/3/1
f 16/3/7 15/15/7 18/5/7
f 20/67/3 18/5/3 19/17/3
f 20/67/4 19/17/4 13/8/4
f 21/64/5 22/9/5 24/11/5
f 20/69/6 13/12/6 18/13/6
f 25/12/1 26/14/1 28/3/1
f 28/3/8 27/15/8 30/5/8
f 32/67/3 30/5/3 31/17/3
f 32/67/4 31/17/4 25/8/4
f 33/64/5 34/9/5 36/11/5
f 32/69/6 25/12/6 30/13/6
f 37/12/1 38/19/1 40/3/1
f 40/3/9 39/20/9 42/5/9
f 44/67/3 42/5/3 43/22/3
f 44/67/4 43/22/4 37/8/4
f 45/64/5 46/9/5 48/11/5
f 44/69/6 37/12/6 42/13/6
f 49/12/1 50/24/1 52/3/1
f 52/3/10 51/25/10 54/5/10
f 56/67/3 54/5/3 55/27/3
f 56/67/4 55/27/4 49/8/4
f 57/64/5 58/9/5 60/11/5
f 56/69/6 49/12/6 54/13/6
f 61/12/1 62/29/1 64/3/1
f 64/3/11 63/30/11 66/5/11
f 68/67/3 66/5/3 67/32/3
f 68/67/4 67/32/4 61/8/4
f 69/64/5 70/9/5 72/11/5
f 68/69/6 61/12/6 66/13/6
f 73/12/1 74/34/1 76/3/1
f 76/3/12 75/35/12 78/5/12
f 80/67/3 78/5/3 79/37/3
f 80/67/4 79/37/4 73/8/4
f 81/64/5 82/9/5 84/11/5
f 80/69/6 73/12/6 78/13/6
f 85/12/1 86/39/1 88/3/1
f 88/3/13 87/40/13 90/5/13
f 92/67/3 90/5/3 91/42/3
f 92/67/4 91/42/4 85/8/4
f 93/64/5 94/9/5 96/11/5
f 92/69/6 85/12/6 90/13/6
f 97/12/1 98/44/1 100/3/1
f 100/3/14 99/45/14 102/5/14
f 104/67/3 102/5/3 103/47/3
f 104/67/4 103/47/4 97/8/4
f 105/64/5 106/9/5 108/11/5
f 104/69/6 97/12/6 102/13/6
f 109/12/1 110/49/1 112/3/1
f 112/3/15 111/50/15 114/5/15
f 116/67/3 114/5/3 115/52/3
f 116/67/4 115/52/4 109/8/4
f 117/64/5 118/9/5 120/11/5
f 116/69/6 109/12/6 114/13/6
f 121/12/1 122/54/1 124/3/1
f 124/3/16 123/55/16 126/5/16
f 128/67/3 126/5/3 127/57/3
f 128/67/4 127/57/4 121/8/4
f 129/64/5 130/9/5 132/11/5
f 128/69/6 121/12/6 126/13/6
f 133/12/1 134/59/1 136/3/1
f 136/3/17 135/60/17 138/5/17
f 140/67/3 138/5/3 139/62/3
f 140/67/4 139/62/4 133/8/4
f 141/64/5 142/9/5 144/11/5
f 140/69/6 133/12/6 138/13/6
f 145/12/1 146/64/1 148/3/1
f 148/3/6 147/11/6 150/5/6
f 150/5/3 149/65/3 152/67/3
f 152/67/5 151/66/5 145/8/5
f 146/64/18 151/9/18 147/11/18
f 152/69/4 145/12/4 150/13/4
f 153/12/1 154/64/1 156/3/1
f 156/3/6 155/11/6 158/5/6
f 158/5/3 157/65/3 160/67/3
f 160/67/5 159/66/5 153/8/5
f 154/64/18 159/9/18 155/11/18
f 160/69/4 153/12/4 158/13/4
f 161/12/1 162/64/1 164/3/1
f 164/3/18 163/11/18 166/5/18
f 166/5/3 165/65/3 168/67/3
f 162/64/5 167/9/5 163/11/5
f 168/69/6 161/12/6 166/13/6
f 39/20/19 48/11/19 41/21/19
f 46/66/3 43/22/3 47/65/3
f 38/23/4 43/22/4 45/68/4
f 39/20/1 38/19/1 48/11/1
f 27/15/20 36/11/20 29/16/20
f 34/66/3 31/17/3 35/65/3
f 26/18/4 31/17/4 33/68/4
f 27/15/1 26/14/1 36/11/1
f 15/15/21 24/11/21 17/16/21
f 22/66/3 19/17/3 23/65/3
f 14/18/4 19/17/4 21/68/4
f 15/15/1 14/14/1 24/11/1
f 3/2/22 12/11/22 5/4/22
f 10/66/3 7/6/3 11/65/3
f 2/7/4 7/6/4 9/68/4
f 3/2/1 2/1/1 12/11/1
f 87/40/23 96/11/23 89/41/23
f 94/66/3 91/42/3 95/65/3
f 86/43/4 91/42/4 93/68/4
f 87/40/1 86/39/1 96/11/1
f 75/35/24 84/11/24 77/36/24
f 82/66/3 79/37/3 83/65/3
f 74/38/4 79/37/4 81/68/4
f 75/35/1 74/34/1 84/11/1
f 63/30/25 72/11/25 65/31/25
f 70/66/3 67/32/3 71/65/3
f 62/33/4 67/32/4 69/68/4
f 63/30/1 62/29/1 72/11/1
f 51/25/26 60/11/26 53/26/26
f 58/66/3 55/27/3 59/65/3
f 50/28/4 55/27/4 57/68/4
f 51/25/1 50/24/1 60/11/1
f 135/60/27 144/11/27 137/61/27
f 142/66/3 139/62/3 143/65/3
f 134/63/4 139/62/4 141/68/4
f 135/60/1 134/59/1 144/11/1
f 125/56/28 123/55/28 131/65/28
f 130/66/3 127/57/3 131/65/3
f 122/58/4 127/57/4 129/68/4
f 123/55/1 122/54/1 132/11/1
f 111/50/29 120/11/29 113/51/29
f 118/66/3 115/52/3 119/65/3
f 110/53/4 115/52/4 117/68/4
f 111/50/1 110/49/1 120/11/1
f 99/45/30 108/11/30 101/46/30
f 106/66/3 103/47/3 107/65/3
f 98/48/4 103/47/4 105/68/4
f 99/45/1 98/44/1 108/11/1
