# Blender v2.76 (sub 0) OBJ File: ''
# www.blender.org
mtllib fence1.mtl
o fence1
v 0.708392 0.144616 -0.074068
v 0.561268 0.144616 -0.074068
v 0.561268 1.579649 -0.074068
v 0.708392 1.579649 -0.074068
v 0.561268 1.579649 -0.051842
v 0.708392 1.579649 -0.051842
v 0.561268 0.144616 -0.051842
v 0.708392 0.144616 -0.051842
v 0.965031 0.144616 -0.074068
v 0.817907 0.144616 -0.074068
v 0.817907 1.579649 -0.074068
v 0.965031 1.579649 -0.074068
v 0.817907 1.579649 -0.051842
v 0.965031 1.579649 -0.051842
v 0.817907 0.144616 -0.051842
v 0.965031 0.144616 -0.051842
v 1.235832 0.144616 -0.074068
v 1.088708 0.144616 -0.074068
v 1.088708 1.579649 -0.074068
v 1.235832 1.579649 -0.074068
v 1.088708 1.579649 -0.051842
v 1.235832 1.579649 -0.051842
v 1.088708 0.144616 -0.051842
v 1.235832 0.144616 -0.051842
v 1.492470 0.144616 -0.074068
v 1.345346 0.144616 -0.074068
v 1.345346 1.579649 -0.074068
v 1.492470 1.579649 -0.074068
v 1.345346 1.579649 -0.051842
v 1.492470 1.579649 -0.051842
v 1.345346 0.144616 -0.051842
v 1.492470 0.144616 -0.051842
v -0.331731 0.144616 -0.074068
v -0.478855 0.144616 -0.074068
v -0.478855 1.579649 -0.074068
v -0.331731 1.579649 -0.074068
v -0.478855 1.579649 -0.051842
v -0.331731 1.579649 -0.051842
v -0.478855 0.144616 -0.051842
v -0.331731 0.144616 -0.051842
v -0.075092 0.144616 -0.074068
v -0.222216 0.144616 -0.074068
v -0.222216 1.579649 -0.074068
v -0.075092 1.579649 -0.074068
v -0.222216 1.579649 -0.051842
v -0.075092 1.579649 -0.051842
v -0.222216 0.144616 -0.051842
v -0.075092 0.144616 -0.051842
v 0.195709 0.144616 -0.074068
v 0.048585 0.144616 -0.074068
v 0.048585 1.579649 -0.074068
v 0.195709 1.579649 -0.074068
v 0.048585 1.579649 -0.051842
v 0.195709 1.579649 -0.051842
v 0.048585 0.144616 -0.051842
v 0.195709 0.144616 -0.051842
v 0.452347 0.144616 -0.074068
v 0.305223 0.144616 -0.074068
v 0.305223 1.579649 -0.074068
v 0.452347 1.579649 -0.074068
v 0.305223 1.579649 -0.051842
v 0.452347 1.579649 -0.051842
v 0.305223 0.144616 -0.051842
v 0.452347 0.144616 -0.051842
v -1.338061 0.144616 -0.074068
v -1.485185 0.144616 -0.074068
v -1.485185 1.579649 -0.074068
v -1.338061 1.579649 -0.074068
v -1.485185 1.579649 -0.051842
v -1.338061 1.579649 -0.051842
v -1.485185 0.144616 -0.051842
v -1.338061 0.144616 -0.051842
v -1.081423 0.144616 -0.074068
v -1.228547 0.144616 -0.074068
v -1.228547 1.579649 -0.074068
v -1.081423 1.579649 -0.074068
v -1.228547 1.579649 -0.051842
v -1.081423 1.579649 -0.051842
v -1.228547 0.144616 -0.051842
v -1.081423 0.144616 -0.051842
v -0.810621 0.144616 -0.074068
v -0.957745 0.144616 -0.074068
v -0.957745 1.579649 -0.074068
v -0.810621 1.579649 -0.074068
v -0.957745 1.579649 -0.051842
v -0.810621 1.579649 -0.051842
v -0.957745 0.144616 -0.051842
v -0.810621 0.144616 -0.051842
v -0.553983 0.144616 -0.074068
v -0.701107 0.144616 -0.074068
v -0.701107 1.579649 -0.074068
v -0.553983 1.579649 -0.074068
v -0.701107 1.579649 -0.051842
v -0.553983 1.579649 -0.051842
v -0.701107 0.144616 -0.051842
v -0.553983 0.144616 -0.051842
v -1.546322 1.331230 -0.050649
v -1.546322 1.478354 -0.050649
v 1.546322 1.478354 -0.050649
v 1.546322 1.331230 -0.050649
v 1.546322 1.478354 -0.028422
v 1.546322 1.331230 -0.028422
v -1.546322 1.478354 -0.028422
v -1.546322 1.331230 -0.028422
v -1.546322 0.279928 -0.050649
v -1.546322 0.427052 -0.050649
v 1.546322 0.427052 -0.050649
v 1.546322 0.279928 -0.050649
v 1.546322 0.427052 -0.028422
v 1.546322 0.279928 -0.028422
v -1.546322 0.427052 -0.028422
v -1.546322 0.279928 -0.028422
v 0.042419 0.000715 -0.031861
v -0.059785 0.000715 -0.031861
v -0.059785 1.579649 -0.031861
v 0.042419 1.579649 -0.031861
v -0.059785 1.579649 0.074068
v 0.042419 1.579649 0.074068
v -0.059785 0.000715 0.074068
v 0.042419 0.000715 0.074068
vt 0.625000 0.000000
vt 0.625000 0.250000
vt 0.375000 0.250000
vt 0.625000 0.500000
vt 0.375000 0.500000
vt 0.625000 0.750000
vt 0.375000 0.750000
vt 0.625000 1.000000
vt 0.375000 1.000000
vt 0.875000 0.000000
vt 0.875000 0.250000
vt 0.375000 0.000000
vt 0.125000 0.250000
vt 0.125000 0.000000
vn 0.000000 -0.000000 -1.000000
vn 0.000000 1.000000 0.000000
vn 0.000000 0.000000 1.000000
vn 0.000000 -1.000000 0.000000
vn -1.000000 0.000000 0.000000
vn 1.000000 0.000000 0.000000
usemtl blinn1SG.005
s 1
f 2/1/1 3/2/1 4/3/1
f 3/2/2 5/4/2 6/5/2
f 5/4/3 7/6/3 8/7/3
f 7/6/4 2/8/4 1/9/4
f 7/10/5 5/11/5 3/2/5
f 1/12/6 4/3/6 6/13/6
f 10/1/1 11/2/1 12/3/1
f 11/2/2 13/4/2 14/5/2
f 13/4/3 15/6/3 16/7/3
f 15/6/4 10/8/4 9/9/4
f 15/10/5 13/11/5 11/2/5
f 9/12/6 12/3/6 14/13/6
f 18/1/1 19/2/1 20/3/1
f 19/2/2 21/4/2 22/5/2
f 21/4/3 23/6/3 24/7/3
f 23/6/4 18/8/4 17/9/4
f 23/10/5 21/11/5 19/2/5
f 17/12/6 20/3/6 22/13/6
f 26/1/1 27/2/1 28/3/1
f 27/2/2 29/4/2 30/5/2
f 29/4/3 31/6/3 32/7/3
f 31/6/4 26/8/4 25/9/4
f 31/10/5 29/11/5 27/2/5
f 25/12/6 28/3/6 30/13/6
f 34/1/1 35/2/1 36/3/1
f 35/2/2 37/4/2 38/5/2
f 37/4/3 39/6/3 40/7/3
f 39/6/4 34/8/4 33/9/4
f 39/10/5 37/11/5 35/2/5
f 33/12/6 36/3/6 38/13/6
f 42/1/1 43/2/1 44/3/1
f 43/2/2 45/4/2 46/5/2
f 45/4/3 47/6/3 48/7/3
f 47/6/4 42/8/4 41/9/4
f 47/10/5 45/11/5 43/2/5
f 41/12/6 44/3/6 46/13/6
f 50/1/1 51/2/1 52/3/1
f 51/2/2 53/4/2 54/5/2
f 53/4/3 55/6/3 56/7/3
f 55/6/4 50/8/4 49/9/4
f 55/10/5 53/11/5 51/2/5
f 49/12/6 52/3/6 54/13/6
f 58/1/1 59/2/1 60/3/1
f 59/2/2 61/4/2 62/5/2
f 61/4/3 63/6/3 64/7/3
f 63/6/4 58/8/4 57/9/4
f 63/10/5 61/11/5 59/2/5
f 57/12/6 60/3/6 62/13/6
f 66/1/1 67/2/1 68/3/1
f 67/2/2 69/4/2 70/5/2
f 69/4/3 71/6/3 72/7/3
f 71/6/4 66/8/4 65/9/4
f 71/10/5 69/11/5 67/2/5
f 65/12/6 68/3/6 70/13/6
f 74/1/1 75/2/1 76/3/1
f 75/2/2 77/4/2 78/5/2
f 77/4/3 79/6/3 80/7/3
f 79/6/4 74/8/4 73/9/4
f 79/10/5 77/11/5 75/2/5
f 73/12/6 76/3/6 78/13/6
f 82/1/1 83/2/1 84/3/1
f 83/2/2 85/4/2 86/5/2
f 85/4/3 87/6/3 88/7/3
f 87/6/4 82/8/4 81/9/4
f 87/10/5 85/11/5 83/2/5
f 81/12/6 84/3/6 86/13/6
f 90/1/1 91/2/1 92/3/1
f 91/2/2 93/4/2 94/5/2
f 93/4/3 95/6/3 96/7/3
f 95/6/4 90/8/4 89/9/4
f 95/10/5 93/11/5 91/2/5
f 89/12/6 92/3/6 94/13/6
f 98/1/1 99/2/1 100/3/1
f 99/2/6 101/4/6 102/5/6
f 101/4/3 103/6/3 104/7/3
f 103/6/5 98/8/5 97/9/5
f 103/10/2 101/11/2 99/2/2
f 97/12/4 100/3/4 102/13/4
f 106/1/1 107/2/1 108/3/1
f 107/2/6 109/4/6 110/5/6
f 109/4/3 111/6/3 112/7/3
f 111/6/5 106/8/5 105/9/5
f 111/10/2 109/11/2 107/2/2
f 105/12/4 108/3/4 110/13/4
f 114/1/1 115/2/1 116/3/1
f 115/2/2 117/4/2 118/5/2
f 117/4/3 119/6/3 120/7/3
f 119/10/5 117/11/5 115/2/5
f 113/12/6 116/3/6 118/13/6
f 1/12/1 2/1/1 4/3/1
f 4/3/2 3/2/2 6/5/2
f 6/5/3 5/4/3 8/7/3
f 8/7/4 7/6/4 1/9/4
f 2/1/5 7/10/5 3/2/5
f 8/14/6 1/12/6 6/13/6
f 9/12/1 10/1/1 12/3/1
f 12/3/2 11/2/2 14/5/2
f 14/5/3 13/4/3 16/7/3
f 16/7/4 15/6/4 9/9/4
f 10/1/5 15/10/5 11/2/5
f 16/14/6 9/12/6 14/13/6
f 17/12/1 18/1/1 20/3/1
f 20/3/2 19/2/2 22/5/2
f 22/5/3 21/4/3 24/7/3
f 24/7/4 23/6/4 17/9/4
f 18/1/5 23/10/5 19/2/5
f 24/14/6 17/12/6 22/13/6
f 25/12/1 26/1/1 28/3/1
f 28/3/2 27/2/2 30/5/2
f 30/5/3 29/4/3 32/7/3
f 32/7/4 31/6/4 25/9/4
f 26/1/5 31/10/5 27/2/5
f 32/14/6 25/12/6 30/13/6
f 33/12/1 34/1/1 36/3/1
f 36/3/2 35/2/2 38/5/2
f 38/5/3 37/4/3 40/7/3
f 40/7/4 39/6/4 33/9/4
f 34/1/5 39/10/5 35/2/5
f 40/14/6 33/12/6 38/13/6
f 41/12/1 42/1/1 44/3/1
f 44/3/2 43/2/2 46/5/2
f 46/5/3 45/4/3 48/7/3
f 48/7/4 47/6/4 41/9/4
f 42/1/5 47/10/5 43/2/5
f 48/14/6 41/12/6 46/13/6
f 49/12/1 50/1/1 52/3/1
f 52/3/2 51/2/2 54/5/2
f 54/5/3 53/4/3 56/7/3
f 56/7/4 55/6/4 49/9/4
f 50/1/5 55/10/5 51/2/5
f 56/14/6 49/12/6 54/13/6
f 57/12/1 58/1/1 60/3/1
f 60/3/2 59/2/2 62/5/2
f 62/5/3 61/4/3 64/7/3
f 64/7/4 63/6/4 57/9/4
f 58/1/5 63/10/5 59/2/5
f 64/14/6 57/12/6 62/13/6
f 65/12/1 66/1/1 68/3/1
f 68/3/2 67/2/2 70/5/2
f 70/5/3 69/4/3 72/7/3
f 72/7/4 71/6/4 65/9/4
f 66/1/5 71/10/5 67/2/5
f 72/14/6 65/12/6 70/13/6
f 73/12/1 74/1/1 76/3/1
f 76/3/2 75/2/2 78/5/2
f 78/5/3 77/4/3 80/7/3
f 80/7/4 79/6/4 73/9/4
f 74/1/5 79/10/5 75/2/5
f 80/14/6 73/12/6 78/13/6
f 81/12/1 82/1/1 84/3/1
f 84/3/2 83/2/2 86/5/2
f 86/5/3 85/4/3 88/7/3
f 88/7/4 87/6/4 81/9/4
f 82/1/5 87/10/5 83/2/5
f 88/14/6 81/12/6 86/13/6
f 89/12/1 90/1/1 92/3/1
f 92/3/2 91/2/2 94/5/2
f 94/5/3 93/4/3 96/7/3
f 96/7/4 95/6/4 89/9/4
f 90/1/5 95/10/5 91/2/5
f 96/14/6 89/12/6 94/13/6
f 97/12/1 98/1/1 100/3/1
f 100/3/6 99/2/6 102/5/6
f 102/5/3 101/4/3 104/7/3
f 104/7/5 103/6/5 97/9/5
f 98/1/2 103/10/2 99/2/2
f 104/14/4 97/12/4 102/13/4
f 105/12/1 106/1/1 108/3/1
f 108/3/6 107/2/6 110/5/6
f 110/5/3 109/4/3 112/7/3
f 112/7/5 111/6/5 105/9/5
f 106/1/2 111/10/2 107/2/2
f 112/14/4 105/12/4 110/13/4
f 113/12/1 114/1/1 116/3/1
f 116/3/2 115/2/2 118/5/2
f 118/5/3 117/4/3 120/7/3
f 114/1/5 119/10/5 115/2/5
f 120/14/6 113/12/6 118/13/6
