# Blender v2.76 (sub 0) OBJ File: ''
# www.blender.org
mtllib frame1.mtl
o frame1
v 0.599203 0.000366 0.020490
v -0.599203 0.000366 0.020490
v -0.599203 0.000366 -0.007386
v 0.599203 0.000366 -0.007386
v 0.568453 0.036813 -0.000248
v -0.568452 0.036813 -0.000248
v -0.568452 0.811464 -0.000248
v 0.568453 0.811464 -0.000248
v 0.599203 0.847911 -0.007386
v -0.599203 0.847911 -0.007386
v -0.599203 0.847911 0.020490
v 0.599203 0.847911 0.020490
v 0.590722 0.010418 -0.020490
v -0.590722 0.010418 -0.020490
v -0.576948 0.026744 -0.020490
v 0.576948 0.026744 -0.020490
v -0.590722 0.837859 -0.020490
v -0.576948 0.821532 -0.020490
v 0.590722 0.837859 -0.020490
v 0.576948 0.821532 -0.020490
v 0.568453 0.036813 -0.007386
v -0.568452 0.036813 -0.007386
v -0.568452 0.811464 -0.007386
v 0.568453 0.811464 -0.007386
vt 0.625000 0.000000
vt 0.625000 0.170056
vt 0.375000 0.170056
vt 0.625000 0.579944
vt 0.625000 0.750000
vt 0.375000 0.750000
vt 0.875000 0.000000
vt 0.875000 0.170056
vt 0.375000 0.000000
vt 0.125000 0.170056
vt 0.625000 0.250000
vt 0.375000 0.250000
vt 0.625000 0.500000
vt 0.375000 0.500000
vt 0.372035 0.250000
vt 0.127965 0.250000
vt 0.623231 0.250000
vt 0.872035 0.250000
vt 0.376769 0.500000
vt 0.623231 0.500000
vt 0.375000 0.579944
vt 0.125000 0.000000
vt 0.376769 0.250000
vt 0.627965 0.250000
vn 0.000000 -1.000000 0.000000
vn 0.000000 1.000000 0.000000
vn -1.000000 -0.000000 0.000000
vn 1.000000 0.000000 0.000000
vn 0.000000 -0.000000 -1.000000
vn 0.839500 -0.000000 -0.543300
vn 0.000000 -0.793400 -0.608600
vn -0.839500 -0.000000 -0.543300
vn 0.000000 0.793400 -0.608700
vn 0.000000 0.793400 -0.608600
vn -0.839100 -0.000000 -0.544000
vn 0.000000 0.792900 -0.609300
vn 0.839100 -0.000000 -0.544000
vn 0.000000 -0.793000 -0.609200
vn 0.000000 -0.793000 -0.609300
usemtl blinn3SG.002
s 1
f 2/1/1 3/2/1 4/3/1
f 10/4/2 11/5/2 12/6/2
f 11/7/3 10/8/3 3/2/3
f 1/9/4 4/3/4 9/10/4
f 14/11/5 15/11/5 16/12/5
f 14/11/5 17/13/5 18/13/5
f 19/14/5 20/14/5 18/13/5
f 13/12/5 16/12/5 20/14/5
f 22/11/2 6/11/2 5/12/2
f 23/13/4 7/13/4 6/11/4
f 24/14/1 8/14/1 7/13/1
f 21/12/3 5/12/3 8/14/3
f 13/15/6 19/16/6 9/10/6
f 4/3/7 3/2/7 14/17/7
f 3/2/8 10/8/8 17/18/8
f 19/19/9 17/20/10 10/4/10
f 21/12/11 24/14/11 20/14/11
f 16/12/12 15/11/12 22/11/12
f 22/11/13 15/11/13 18/13/13
f 23/13/14 18/13/14 20/14/15
f 1/9/1 2/1/1 4/3/1
f 9/21/2 10/4/2 12/6/2
f 2/1/3 11/7/3 3/2/3
f 12/22/4 1/9/4 9/10/4
f 13/12/5 14/11/5 16/12/5
f 15/11/5 14/11/5 18/13/5
f 17/13/5 19/14/5 18/13/5
f 19/14/5 13/12/5 20/14/5
f 21/12/2 22/11/2 5/12/2
f 22/11/4 23/13/4 6/11/4
f 23/13/1 24/14/1 7/13/1
f 24/14/3 21/12/3 8/14/3
f 4/3/6 13/15/6 9/10/6
f 13/23/7 4/3/7 14/17/7
f 14/24/8 3/2/8 17/18/8
f 9/21/9 19/19/9 10/4/10
f 16/12/11 21/12/11 20/14/11
f 21/12/12 16/12/12 22/11/12
f 23/13/13 22/11/13 18/13/13
f 24/14/15 23/13/14 20/14/15
usemtl blinn1SG.008
f 6/11/5 7/13/5 8/14/5
f 5/12/5 6/11/5 8/14/5
