# Blender v2.76 (sub 0) OBJ File: ''
# www.blender.org
mtllib frame2.mtl
o frame2
v 0.599204 0.000366 0.020490
v -0.599202 0.000366 0.020490
v -0.599202 0.000366 -0.007386
v 0.599204 0.000366 -0.007386
v 0.528964 0.065193 -0.000248
v -0.531345 0.065193 -0.000248
v -0.531345 0.783084 -0.000248
v 0.528964 0.783084 -0.000248
v 0.599204 0.847911 -0.007386
v -0.599202 0.847911 -0.007386
v -0.599202 0.847911 0.020490
v 0.599204 0.847911 0.020490
v 0.590722 0.010418 -0.020490
v -0.590721 0.010418 -0.020490
v -0.542607 0.057070 -0.020490
v 0.540225 0.057070 -0.020490
v -0.590721 0.837859 -0.020490
v -0.542607 0.791207 -0.020490
v 0.590722 0.837859 -0.020490
v 0.540225 0.791207 -0.020490
v 0.528964 0.065193 -0.007386
v -0.531345 0.065193 -0.007386
v -0.531345 0.783084 -0.007386
v 0.528964 0.783084 -0.007386
vt 0.625000 0.000000
vt 0.625000 0.170056
vt 0.375000 0.170056
vt 0.625000 0.579944
vt 0.625000 0.750000
vt 0.375000 0.750000
vt 0.875000 0.000000
vt 0.875000 0.170056
vt 0.375000 0.000000
vt 0.125000 0.170056
vt 0.625000 0.250000
vt 0.375000 0.250000
vt 0.625000 0.500000
vt 0.375000 0.500000
vt 0.372035 0.250000
vt 0.127965 0.250000
vt 0.376769 0.250000
vt 0.872035 0.250000
vt 0.376769 0.500000
vt 0.623231 0.500000
vt 0.375000 0.579944
vt 0.125000 0.000000
vt 0.623231 0.250000
vt 0.627965 0.250000
vn 0.000000 -1.000000 0.000000
vn 0.000000 1.000000 0.000000
vn -1.000000 0.000000 0.000000
vn 1.000000 0.000000 0.000000
vn 0.000000 -0.000000 -1.000000
vn 0.839500 -0.000000 -0.543400
vn 0.000000 -0.793400 -0.608600
vn -0.839500 -0.000000 -0.543300
vn 0.000000 0.793400 -0.608600
vn 0.000000 0.793400 -0.608700
vn 0.000000 0.849900 -0.526900
vn -0.758400 -0.000000 -0.651800
vn 0.758400 -0.000000 -0.651800
vn 0.000000 -0.849900 -0.526900
usemtl blinn3SG.003
s 1
f 2/1/1 3/2/1 4/3/1
f 10/4/2 11/5/2 12/6/2
f 11/7/3 10/8/3 3/2/3
f 1/9/4 4/3/4 9/10/4
f 14/11/5 15/11/5 16/12/5
f 17/13/5 18/13/5 15/11/5
f 17/13/5 19/14/5 20/14/5
f 13/12/5 16/12/5 20/14/5
f 22/11/2 6/11/2 5/12/2
f 23/13/4 7/13/4 6/11/4
f 24/14/1 8/14/1 7/13/1
f 21/12/3 5/12/3 8/14/3
f 13/15/6 19/16/6 9/10/6
f 13/17/7 4/3/7 3/2/7
f 3/2/8 10/8/8 17/18/8
f 19/19/9 17/20/10 10/4/10
f 16/12/11 15/11/11 22/11/11
f 21/12/12 24/14/12 20/14/12
f 15/11/13 18/13/13 23/13/13
f 23/13/14 18/13/14 20/14/14
f 1/9/1 2/1/1 4/3/1
f 9/21/2 10/4/2 12/6/2
f 2/1/3 11/7/3 3/2/3
f 12/22/4 1/9/4 9/10/4
f 13/12/5 14/11/5 16/12/5
f 14/11/5 17/13/5 15/11/5
f 18/13/5 17/13/5 20/14/5
f 19/14/5 13/12/5 20/14/5
f 21/12/2 22/11/2 5/12/2
f 22/11/4 23/13/4 6/11/4
f 23/13/1 24/14/1 7/13/1
f 24/14/3 21/12/3 8/14/3
f 4/3/6 13/15/6 9/10/6
f 14/23/7 13/17/7 3/2/7
f 14/24/8 3/2/8 17/18/8
f 9/21/9 19/19/9 10/4/10
f 21/12/11 16/12/11 22/11/11
f 16/12/12 21/12/12 20/14/12
f 22/11/13 15/11/13 23/13/13
f 24/14/14 23/13/14 20/14/14
usemtl blinn1SG.009
f 6/11/5 7/13/5 8/14/5
f 5/12/5 6/11/5 8/14/5
