# Blender v2.76 (sub 0) OBJ File: ''
# www.blender.org
mtllib Roof3.mtl
o Roof3
v 3.544885 0.078337 -5.937406
v -0.056765 0.078337 -5.937406
v -0.056765 2.350685 -5.937407
v 3.544885 0.266506 -5.937406
v 3.700190 0.356069 -6.199924
v -0.058026 2.530848 -6.199924
v -0.058025 2.530850 6.199924
v 3.700190 0.356071 6.199924
v 3.544885 0.266508 5.984552
v -0.056765 2.350687 5.984551
v -0.056765 0.078339 5.984552
v 3.544885 0.078339 5.984552
v -3.700190 -0.031703 -6.199924
v -3.700190 -0.031701 6.199924
v -3.700190 0.354628 6.199924
v -3.700190 0.354626 -6.199924
v 3.700190 -0.031701 6.199924
v 3.700190 -0.031703 -6.199924
v -3.544884 0.266508 5.984552
v -3.544884 0.078339 5.984552
v -3.544884 0.078337 -5.937406
v -3.544884 0.266506 -5.937406
v -0.056765 2.350685 -6.199924
v 3.544885 0.266506 -6.199924
v 3.544885 0.266508 6.199924
v -0.056765 2.350687 6.199924
v -3.544884 -0.031701 6.199924
v -3.544884 -0.031703 -6.199924
v -3.544884 0.266508 6.199924
v -3.544884 0.266506 -6.199924
v 3.544885 -0.031703 -6.199924
v 3.544885 -0.031701 6.199924
vt 0.375000 0.250000
vt 0.502002 0.250000
vt 0.502002 0.500000
vt 0.875000 0.000000
vt 0.875000 0.250000
vt 0.625000 0.250000
vt 0.375000 0.000000
vt 0.125000 0.250000
vt 0.625000 0.500000
vt 0.375000 0.500000
vt 0.625000 0.000000
vt 0.125000 0.000000
vt 0.502002 0.000000
vt 0.502002 0.750000
vt 0.502002 1.000000
vt 0.375000 1.000000
vt 0.625000 0.750000
vt 0.625000 1.000000
vt 0.375000 0.750000
vn 0.500900 0.865500 -0.000000
vn -1.000000 0.000000 0.000000
vn 1.000000 0.000000 0.000000
vn -0.512900 0.858400 -0.000000
vn -0.500900 -0.865500 0.000000
vn 0.512900 -0.858400 0.000000
vn 0.000000 -1.000000 0.000000
vn 0.000000 -0.000000 -1.000000
vn -0.000000 0.000000 1.000000
usemtl blinn4SG.004
s off
f 5/1/1 6/2/1 7/3/1
f 14/4/2 15/5/2 16/6/2
f 18/7/3 5/1/3 8/8/3
f 16/6/4 15/9/4 7/3/4
f 3/2/5 23/2/5 24/1/5
f 9/10/5 25/10/5 26/3/5
f 22/6/6 30/6/6 23/2/6
f 10/3/6 26/3/6 29/9/6
f 27/4/7 14/4/7 13/11/7
f 31/7/7 18/7/7 17/12/7
f 8/10/1 5/1/1 7/3/1
f 13/11/2 14/4/2 16/6/2
f 17/12/3 18/7/3 8/8/3
f 6/2/4 16/6/4 7/3/4
f 4/1/5 3/2/5 24/1/5
f 10/3/5 9/10/5 26/3/5
f 3/2/6 22/6/6 23/2/6
f 19/9/6 10/3/6 29/9/6
f 28/11/7 27/4/7 13/11/7
f 32/12/7 31/7/7 17/12/7
s 1
f 21/11/3 20/4/3 27/4/3
f 20/4/3 19/5/3 29/5/3
f 21/11/3 28/11/3 30/6/3
f 1/7/2 31/7/2 32/12/2
f 1/7/2 4/1/2 24/1/2
f 12/12/2 32/12/2 25/8/2
f 23/2/8 6/2/8 5/1/8
f 26/3/9 25/10/9 8/10/9
f 29/5/9 15/5/9 14/4/9
f 30/6/8 28/11/8 13/11/8
f 24/1/8 5/1/8 18/7/8
f 25/8/9 32/12/9 17/12/9
f 23/2/8 30/6/8 16/6/8
f 26/3/9 7/3/9 15/9/9
f 28/11/3 21/11/3 27/4/3
f 27/4/3 20/4/3 29/5/3
f 22/6/3 21/11/3 30/6/3
f 12/12/2 1/7/2 32/12/2
f 31/7/2 1/7/2 24/1/2
f 9/8/2 12/12/2 25/8/2
f 24/1/8 23/2/8 5/1/8
f 7/3/9 26/3/9 8/10/9
f 27/4/9 29/5/9 14/4/9
f 16/6/8 30/6/8 13/11/8
f 31/7/8 24/1/8 18/7/8
f 8/8/9 25/8/9 17/12/9
f 6/2/8 23/2/8 16/6/8
f 29/9/9 26/3/9 15/9/9
usemtl blinn1SG.017
s off
f 2/13/8 3/2/8 4/1/8
f 9/10/9 10/3/9 11/14/9
f 11/14/7 2/15/7 1/16/7
f 11/14/9 10/3/9 19/9/9
f 11/14/7 20/17/7 21/18/7
f 2/13/8 21/11/8 22/6/8
f 1/7/8 2/13/8 4/1/8
f 12/19/9 9/10/9 11/14/9
f 12/19/7 11/14/7 1/16/7
f 20/17/9 11/14/9 19/9/9
f 2/15/7 11/14/7 21/18/7
f 3/2/8 2/13/8 22/6/8
