# Blender v2.76 (sub 0) OBJ File: ''
# www.blender.org
mtllib shelves4.mtl
o shelves4
v -0.395373 -0.000000 -0.221596
v -0.428593 -0.000000 -0.221596
v -0.428593 1.840944 -0.221596
v -0.395373 1.840944 -0.221596
v -0.428593 1.840944 0.221596
v -0.395373 1.840944 0.221596
v -0.428593 0.000000 0.221596
v -0.395373 0.000000 0.221596
v 0.428593 -0.000000 -0.221596
v 0.395373 -0.000000 -0.221596
v 0.395373 1.840944 -0.221596
v 0.428593 1.840944 -0.221596
v 0.395373 1.840944 0.221596
v 0.428593 1.840944 0.221596
v 0.395373 0.000000 0.221596
v 0.428593 0.000000 0.221596
v 0.417721 1.811864 0.199590
v 0.417721 0.079875 0.199590
v -0.422439 0.079875 0.199590
v -0.422439 1.811864 0.199590
v -0.409992 0.773796 -0.185088
v -0.409992 0.807016 -0.185088
v 0.414397 0.807016 -0.185088
v 0.414397 0.773796 -0.185088
v 0.414397 0.807016 0.211254
v 0.414397 0.773796 0.211254
v -0.409992 0.773796 0.211254
v -0.409992 0.807016 0.211254
v -0.409992 1.806275 -0.212918
v -0.409992 1.839496 -0.212918
v 0.414397 1.839496 -0.212918
v 0.414397 1.806275 -0.212918
v 0.414397 1.839496 0.211254
v 0.414397 1.806275 0.211254
v -0.409992 1.806275 0.211254
v -0.409992 1.839496 0.211254
v -0.409992 0.077165 -0.185088
v -0.409992 0.110385 -0.185088
v 0.414397 0.110385 -0.185088
v 0.414397 0.077165 -0.185088
v 0.414397 0.110385 0.211254
v 0.414397 0.077165 0.211254
v -0.409992 0.077165 0.211254
v -0.409992 0.110385 0.211254
v -0.409992 1.453227 -0.185088
v -0.409992 1.486448 -0.185088
v 0.414397 1.486448 -0.185088
v 0.414397 1.453227 -0.185088
v 0.414397 1.486448 0.211254
v 0.414397 1.453227 0.211254
v -0.409992 1.453227 0.211254
v -0.409992 1.486448 0.211254
v -0.409992 1.114084 -0.185088
v -0.409992 1.147305 -0.185088
v 0.414397 1.147305 -0.185088
v 0.414397 1.114084 -0.185088
v 0.414397 1.147305 0.211254
v 0.414397 1.114084 0.211254
v -0.409992 1.114084 0.211254
v -0.409992 1.147305 0.211254
v -0.409992 0.421949 -0.185088
v -0.409992 0.455169 -0.185088
v 0.414397 0.455169 -0.185088
v 0.414397 0.421949 -0.185088
v 0.414397 0.455169 0.211254
v 0.414397 0.421949 0.211254
v -0.409992 0.421949 0.211254
v -0.409992 0.455169 0.211254
vt 0.625000 0.000000
vt 0.625000 0.250000
vt 0.375000 0.250000
vt 0.625000 0.500000
vt 0.375000 0.500000
vt 0.875000 0.000000
vt 0.875000 0.250000
vt 0.125000 0.000000
vt 0.375000 0.000000
vt 1.000000 0.000000
vt 1.000000 1.000000
vt 0.000000 1.000000
vt 0.625000 0.750000
vt 0.625000 1.000000
vt 0.375000 1.000000
vt 0.125000 0.250000
vt 0.000000 0.000000
vt 0.375000 0.750000
vn 0.000000 -0.000000 -1.000000
vn 0.000000 1.000000 0.000000
vn -1.000000 0.000000 0.000000
vn 1.000000 0.000000 0.000000
vn 0.000000 -1.000000 0.000000
usemtl blinn2SG.014
s 1
f 2/1/1 3/2/1 4/3/1
f 3/2/2 5/4/2 6/5/2
f 7/6/3 5/7/3 3/2/3
f 8/8/4 1/9/4 4/3/4
f 10/1/1 11/2/1 12/3/1
f 11/2/2 13/4/2 14/5/2
f 15/6/3 13/7/3 11/2/3
f 16/8/4 9/9/4 12/3/4
f 18/10/1 19/11/1 20/12/1
f 22/1/1 23/2/1 24/3/1
f 23/2/4 25/4/4 26/5/4
f 28/13/3 22/14/3 21/15/3
f 28/6/2 25/7/2 23/2/2
f 21/9/5 24/3/5 26/16/5
f 30/1/1 31/2/1 32/3/1
f 31/2/4 33/4/4 34/5/4
f 36/13/3 30/14/3 29/15/3
f 36/6/2 33/7/2 31/2/2
f 29/9/5 32/3/5 34/16/5
f 38/1/1 39/2/1 40/3/1
f 39/2/4 41/4/4 42/5/4
f 44/13/3 38/14/3 37/15/3
f 44/6/2 41/7/2 39/2/2
f 37/9/5 40/3/5 42/16/5
f 46/1/1 47/2/1 48/3/1
f 47/2/4 49/4/4 50/5/4
f 52/13/3 46/14/3 45/15/3
f 52/6/2 49/7/2 47/2/2
f 45/9/5 48/3/5 50/16/5
f 54/1/1 55/2/1 56/3/1
f 56/3/4 55/2/4 57/4/4
f 60/13/3 54/14/3 53/15/3
f 60/6/2 57/7/2 55/2/2
f 53/9/5 56/3/5 58/16/5
f 62/1/1 63/2/1 64/3/1
f 63/2/4 65/4/4 66/5/4
f 68/13/3 62/14/3 61/15/3
f 68/6/2 65/7/2 63/2/2
f 61/9/5 64/3/5 66/16/5
f 1/9/1 2/1/1 4/3/1
f 4/3/2 3/2/2 6/5/2
f 2/1/3 7/6/3 3/2/3
f 6/16/4 8/8/4 4/3/4
f 9/9/1 10/1/1 12/3/1
f 12/3/2 11/2/2 14/5/2
f 10/1/3 15/6/3 11/2/3
f 14/16/4 16/8/4 12/3/4
f 17/17/1 18/10/1 20/12/1
f 21/9/1 22/1/1 24/3/1
f 24/3/4 23/2/4 26/5/4
f 27/18/3 28/13/3 21/15/3
f 22/1/2 28/6/2 23/2/2
f 27/8/5 21/9/5 26/16/5
f 29/9/1 30/1/1 32/3/1
f 32/3/4 31/2/4 34/5/4
f 35/18/3 36/13/3 29/15/3
f 30/1/2 36/6/2 31/2/2
f 35/8/5 29/9/5 34/16/5
f 37/9/1 38/1/1 40/3/1
f 40/3/4 39/2/4 42/5/4
f 43/18/3 44/13/3 37/15/3
f 38/1/2 44/6/2 39/2/2
f 43/8/5 37/9/5 42/16/5
f 45/9/1 46/1/1 48/3/1
f 48/3/4 47/2/4 50/5/4
f 51/18/3 52/13/3 45/15/3
f 46/1/2 52/6/2 47/2/2
f 51/8/5 45/9/5 50/16/5
f 53/9/1 54/1/1 56/3/1
f 58/5/4 56/3/4 57/4/4
f 59/18/3 60/13/3 53/15/3
f 54/1/2 60/6/2 55/2/2
f 59/8/5 53/9/5 58/16/5
f 61/9/1 62/1/1 64/3/1
f 64/3/4 63/2/4 66/5/4
f 67/18/3 68/13/3 61/15/3
f 62/1/2 68/6/2 63/2/2
f 67/8/5 61/9/5 66/16/5
