# Blender v2.76 (sub 0) OBJ File: ''
# www.blender.org
mtllib shelves2.mtl
o shelves2
v -0.576455 -0.000000 -0.328288
v -0.609676 -0.000000 -0.328288
v -0.609676 0.790084 -0.328288
v -0.576455 0.790084 -0.328288
v -0.609676 0.790084 0.328288
v -0.576455 0.790084 0.328288
v -0.609676 0.000000 0.328288
v -0.576455 0.000000 0.328288
v 0.609676 -0.000000 -0.328288
v 0.576455 -0.000000 -0.328288
v 0.576455 0.790084 -0.328288
v 0.609676 0.790084 -0.328288
v 0.576455 0.790084 0.328288
v 0.609676 0.790084 0.328288
v 0.576455 0.000000 0.328288
v 0.609676 0.000000 0.328288
v 0.598803 0.761004 0.306282
v 0.598803 0.079875 0.306282
v -0.603521 0.079875 0.306282
v -0.603521 0.761004 0.306282
v -0.591074 0.755416 -0.319610
v -0.591074 0.788636 -0.319610
v 0.595479 0.788636 -0.319610
v 0.595479 0.755416 -0.319610
v 0.595479 0.788636 0.317945
v 0.595479 0.755416 0.317945
v -0.591074 0.755416 0.317945
v -0.591074 0.788636 0.317945
v -0.591074 0.077165 -0.291780
v -0.591074 0.110385 -0.291780
v 0.595479 0.110385 -0.291780
v 0.595479 0.077165 -0.291780
v 0.595479 0.110385 0.317945
v 0.595479 0.077165 0.317945
v -0.591074 0.077165 0.317945
v -0.591074 0.110385 0.317945
v -0.591074 0.421949 -0.291780
v -0.591074 0.455169 -0.291780
v 0.595479 0.455169 -0.291780
v 0.595479 0.421949 -0.291780
v 0.595479 0.455169 0.317945
v 0.595479 0.421949 0.317945
v -0.591074 0.421949 0.317945
v -0.591074 0.455169 0.317945
vt 0.625000 0.000000
vt 0.625000 0.250000
vt 0.375000 0.250000
vt 0.625000 0.500000
vt 0.375000 0.500000
vt 0.875000 0.000000
vt 0.875000 0.250000
vt 0.375000 0.000000
vt 0.125000 0.250000
vt 1.000000 0.000000
vt 1.000000 1.000000
vt 0.000000 1.000000
vt 0.625000 0.750000
vt 0.625000 1.000000
vt 0.375000 1.000000
vt 0.375000 0.750000
vt 0.125000 0.000000
vt 0.000000 0.000000
vn 0.000000 -0.000000 -1.000000
vn 0.000000 1.000000 -0.000000
vn -1.000000 0.000000 0.000000
vn 1.000000 -0.000000 0.000000
vn 0.000000 -1.000000 0.000000
usemtl blinn2SG.012
s 1
f 2/1/1 3/2/1 4/3/1
f 3/2/2 5/4/2 6/5/2
f 7/6/3 5/7/3 3/2/3
f 1/8/4 4/3/4 6/9/4
f 10/1/1 11/2/1 12/3/1
f 11/2/2 13/4/2 14/5/2
f 15/6/3 13/7/3 11/2/3
f 9/8/4 12/3/4 14/9/4
f 18/10/1 19/11/1 20/12/1
f 22/1/1 23/2/1 24/3/1
f 23/2/4 25/4/4 26/5/4
f 28/13/3 22/14/3 21/15/3
f 28/6/2 25/7/2 23/2/2
f 21/8/5 24/3/5 26/9/5
f 30/1/1 31/2/1 32/3/1
f 31/2/4 33/4/4 34/5/4
f 35/16/3 36/13/3 30/14/3
f 36/6/2 33/7/2 31/2/2
f 29/8/5 32/3/5 34/9/5
f 38/1/1 39/2/1 40/3/1
f 39/2/4 41/4/4 42/5/4
f 43/16/3 44/13/3 38/14/3
f 44/6/2 41/7/2 39/2/2
f 37/8/5 40/3/5 42/9/5
f 1/8/1 2/1/1 4/3/1
f 4/3/2 3/2/2 6/5/2
f 2/1/3 7/6/3 3/2/3
f 8/17/4 1/8/4 6/9/4
f 9/8/1 10/1/1 12/3/1
f 12/3/2 11/2/2 14/5/2
f 10/1/3 15/6/3 11/2/3
f 16/17/4 9/8/4 14/9/4
f 17/18/1 18/10/1 20/12/1
f 21/8/1 22/1/1 24/3/1
f 24/3/4 23/2/4 26/5/4
f 27/16/3 28/13/3 21/15/3
f 22/1/2 28/6/2 23/2/2
f 27/17/5 21/8/5 26/9/5
f 29/8/1 30/1/1 32/3/1
f 32/3/4 31/2/4 34/5/4
f 29/15/3 35/16/3 30/14/3
f 30/1/2 36/6/2 31/2/2
f 35/17/5 29/8/5 34/9/5
f 37/8/1 38/1/1 40/3/1
f 40/3/4 39/2/4 42/5/4
f 37/15/3 43/16/3 38/14/3
f 38/1/2 44/6/2 39/2/2
f 43/17/5 37/8/5 42/9/5
