# Blender v2.76 (sub 0) OBJ File: ''
# www.blender.org
mtllib table4.mtl
o table4
v 0.018158 0.549092 0.463643
v 0.161431 0.549092 0.440951
v 0.161431 0.590899 0.440951
v 0.018158 0.590899 0.463643
v 0.290680 0.549092 0.375095
v 0.290680 0.590899 0.375095
v 0.393253 0.549092 0.272523
v 0.393253 0.590899 0.272523
v 0.459109 0.549092 0.143274
v 0.459109 0.590899 0.143274
v 0.481801 0.549092 -0.000000
v 0.481801 0.590899 -0.000000
v 0.459109 0.549092 -0.143274
v 0.459109 0.590899 -0.143274
v 0.393253 0.549092 -0.272523
v 0.393253 0.590899 -0.272523
v 0.290680 0.549092 -0.375095
v 0.290680 0.590899 -0.375095
v 0.161431 0.549092 -0.440951
v 0.161431 0.590899 -0.440951
v 0.018158 0.549092 -0.463643
v 0.018158 0.590899 -0.463643
v 0.018158 0.549092 -0.000000
v 0.018158 0.596468 0.458073
v 0.159710 0.596468 0.435655
v 0.018158 0.596468 -0.000000
v 0.287407 0.596468 0.370590
v 0.388748 0.596468 0.269249
v 0.453812 0.596468 0.141552
v 0.476232 0.596468 -0.000000
v 0.453812 0.596468 -0.141553
v 0.388747 0.596468 -0.269249
v 0.287407 0.596468 -0.370590
v 0.159710 0.596468 -0.435655
v 0.018158 0.596468 -0.458073
v -0.018158 0.590899 -0.463643
v -0.018158 0.549092 -0.463643
v -0.018158 0.549092 -0.000000
v -0.018158 0.596468 -0.458073
v -0.018158 0.596468 -0.000000
v -0.018158 0.549092 0.463643
v -0.018158 0.590899 0.463643
v -0.161432 0.590899 0.440951
v -0.161432 0.549092 0.440951
v -0.290681 0.590899 0.375095
v -0.290681 0.549092 0.375095
v -0.393253 0.590899 0.272523
v -0.393253 0.549092 0.272523
v -0.459109 0.590899 0.143274
v -0.459109 0.549092 0.143274
v -0.481801 0.590899 -0.000000
v -0.481801 0.549092 -0.000000
v -0.459109 0.590899 -0.143274
v -0.459109 0.549092 -0.143274
v -0.393253 0.590899 -0.272523
v -0.393253 0.549092 -0.272523
v -0.290680 0.590899 -0.375095
v -0.290680 0.549092 -0.375095
v -0.161431 0.590899 -0.440951
v -0.161431 0.549092 -0.440951
v -0.159711 0.596468 0.435655
v -0.018158 0.596468 0.458073
v -0.287407 0.596468 0.370590
v -0.388748 0.596468 0.269249
v -0.453812 0.596468 0.141552
v -0.476232 0.596468 -0.000000
v -0.453812 0.596468 -0.141553
v -0.388748 0.596468 -0.269249
v -0.287407 0.596468 -0.370590
v -0.159711 0.596468 -0.435655
v 0.296549 -0.015217 -0.262694
v 0.317191 -0.015217 -0.262694
v 0.317191 0.585933 -0.262694
v 0.296549 0.585933 -0.262694
v 0.327512 -0.015217 -0.280571
v 0.327512 0.585933 -0.280571
v 0.317191 -0.015217 -0.298447
v 0.317191 0.585933 -0.298447
v 0.296549 -0.015217 -0.298447
v 0.296549 0.585933 -0.298447
v 0.286228 -0.015217 -0.280571
v 0.286228 0.585933 -0.280571
v -0.321511 -0.015217 -0.262694
v -0.300869 -0.015217 -0.262694
v -0.300869 0.585933 -0.262694
v -0.321511 0.585933 -0.262694
v -0.290548 -0.015217 -0.280571
v -0.290548 0.585933 -0.280571
v -0.300869 -0.015217 -0.298447
v -0.300869 0.585933 -0.298447
v -0.321511 -0.015217 -0.298447
v -0.321511 0.585933 -0.298447
v -0.331832 -0.015217 -0.280571
v -0.331832 0.585933 -0.280571
v -0.321511 -0.015217 0.308847
v -0.300869 -0.015217 0.308847
v -0.300869 0.585933 0.308847
v -0.321511 0.585933 0.308847
v -0.290548 -0.015217 0.290971
v -0.290548 0.585933 0.290971
v -0.300869 -0.015217 0.273094
v -0.300869 0.585933 0.273094
v -0.321511 -0.015217 0.273094
v -0.321511 0.585933 0.273094
v -0.331832 -0.015217 0.290971
v -0.331832 0.585933 0.290971
v 0.296549 -0.015217 0.308847
v 0.317191 -0.015217 0.308847
v 0.317191 0.585933 0.308847
v 0.296549 0.585933 0.308847
v 0.327512 -0.015217 0.290971
v 0.327512 0.585933 0.290971
v 0.317191 -0.015217 0.273094
v 0.317191 0.585933 0.273094
v 0.296549 -0.015217 0.273094
v 0.296549 0.585933 0.273094
v 0.286228 -0.015217 0.290971
v 0.286228 0.585933 0.290971
vt 0.437500 0.312500
vt 0.437500 0.644249
vt 0.425000 0.644249
vt 0.450000 0.312500
vt 0.450000 0.644249
vt 0.462500 0.312500
vt 0.462500 0.644249
vt 0.475000 0.312500
vt 0.475000 0.644249
vt 0.487500 0.312500
vt 0.487500 0.644249
vt 0.500000 0.312500
vt 0.500000 0.644249
vt 0.512500 0.312500
vt 0.512500 0.644249
vt 0.525000 0.312500
vt 0.525000 0.644249
vt 0.537500 0.312500
vt 0.537500 0.644249
vt 0.550000 0.312500
vt 0.550000 0.644249
vt 0.451716 0.007647
vt 0.500000 -0.000000
vt 0.500000 0.150000
vt 0.408159 0.029841
vt 0.373591 0.064409
vt 0.351397 0.107966
vt 0.343750 0.156250
vt 0.351397 0.204534
vt 0.373591 0.248091
vt 0.408159 0.282659
vt 0.451716 0.304853
vt 0.500000 0.998048
vt 0.452296 0.990493
vt 0.500000 0.837500
vt 0.409262 0.968566
vt 0.375109 0.934413
vt 0.353182 0.891379
vt 0.345627 0.843675
vt 0.353182 0.795971
vt 0.375109 0.752937
vt 0.409262 0.718784
vt 0.452296 0.696857
vt 0.500000 0.689302
vt 0.117544 0.000000
vt 1.000000 0.000000
vt 0.000000 0.000000
vt 0.987986 0.000000
vt 0.882452 0.000000
vt 0.012014 0.000000
vt 0.437425 0.688440
vt 0.449925 0.688440
vt 0.450075 0.688440
vt 0.462575 0.688440
vt 0.475075 0.688440
vt 0.487575 0.688440
vt 0.500075 0.688440
vt 0.524925 0.688440
vt 0.525075 0.688440
vt 0.537575 0.688440
vt 0.437575 0.688440
vt 0.462425 0.688440
vt 0.474925 0.688440
vt 0.487425 0.688440
vt 0.499925 0.688440
vt 0.512425 0.688440
vt 0.512575 0.688440
vt 0.537425 0.688440
vt 0.549925 0.688440
vt 0.416667 0.312500
vt 0.416667 0.688440
vt 0.375000 0.688440
vt 0.458333 0.312500
vt 0.458333 0.688440
vt 0.500000 0.688440
vt 0.541667 0.312500
vt 0.541667 0.688440
vt 0.583333 0.312500
vt 0.583333 0.688440
vt 0.625000 0.312500
vt 0.625000 0.688440
vt 0.425000 0.312500
vt 0.425075 0.688440
vt 0.375000 0.312500
vn 0.309000 0.000000 0.951100
vn 0.125500 -0.000000 0.992100
vn 0.587800 0.000000 0.809000
vn 0.809000 0.000000 0.587800
vn 0.951100 0.000000 0.309000
vn 1.000000 0.000000 -0.000000
vn 0.951100 0.000000 -0.309000
vn 0.809000 0.000000 -0.587800
vn 0.587800 0.000000 -0.809000
vn 0.309000 0.000000 -0.951100
vn 0.125500 -0.000000 -0.992100
vn 0.125400 0.000000 -0.992100
vn 0.000000 -1.000000 -0.000000
vn -0.000000 1.000000 -0.000000
vn -0.125500 0.000000 -0.992100
vn -0.125500 0.000000 0.992100
vn -0.309000 0.000000 0.951100
vn -0.587800 0.000000 0.809000
vn -0.809000 0.000000 0.587800
vn -0.951100 0.000000 0.309000
vn -1.000000 0.000000 -0.000000
vn -0.951100 0.000000 -0.309000
vn -0.809000 0.000000 -0.587800
vn -0.587800 0.000000 -0.809000
vn -0.309000 0.000000 -0.951100
vn -0.125400 0.000000 -0.992100
vn -0.125400 0.000000 0.992100
vn 0.125400 0.000000 0.992100
vn 0.090200 0.704300 0.704200
vn -0.090100 0.704300 0.704200
vn -0.087700 0.704500 0.704300
vn 0.087600 0.704500 0.704300
vn 0.218500 0.707100 0.672500
vn 0.415600 0.707100 0.572100
vn 0.572100 0.707100 0.415600
vn 0.672400 0.707200 0.218500
vn 0.672500 0.707200 0.218500
vn 0.707100 0.707100 0.000000
vn 0.672500 0.707100 -0.218500
vn 0.572000 0.707200 -0.415600
vn 0.415600 0.707100 -0.572100
vn 0.218500 0.707100 -0.672500
vn 0.087700 0.704500 -0.704300
vn -0.087500 0.704500 -0.704300
vn -0.090200 0.704300 -0.704200
vn -0.218500 0.707100 0.672500
vn -0.415600 0.707100 0.572100
vn -0.572100 0.707100 0.415600
vn -0.672500 0.707200 0.218500
vn -0.672400 0.707200 0.218500
vn -0.707100 0.707100 0.000000
vn -0.672500 0.707100 -0.218500
vn -0.572100 0.707100 -0.415600
vn -0.415600 0.707100 -0.572100
vn -0.218500 0.707100 -0.672500
vn 0.500000 0.000000 0.866000
vn -0.500000 0.000000 0.866000
vn 0.500000 -0.000000 -0.866000
vn -0.500000 -0.000000 -0.866000
vn 0.090100 0.704300 -0.704200
usemtl blinn2SG.018
s 1
f 2/1/1 3/2/1 4/3/2
f 5/4/3 6/5/3 3/2/1
f 7/6/4 8/7/4 6/5/3
f 9/8/5 10/9/5 8/7/4
f 11/10/6 12/11/6 10/9/5
f 13/12/7 14/13/7 12/11/6
f 15/14/8 16/15/8 14/13/7
f 17/16/9 18/17/9 16/15/8
f 19/18/10 20/19/10 18/17/9
f 21/20/11 22/21/12 20/19/10
f 2/22/13 1/23/13 23/24/13
f 5/25/13 2/22/13 23/24/13
f 7/26/13 5/25/13 23/24/13
f 9/27/13 7/26/13 23/24/13
f 11/28/13 9/27/13 23/24/13
f 13/29/13 11/28/13 23/24/13
f 15/30/13 13/29/13 23/24/13
f 17/31/13 15/30/13 23/24/13
f 19/32/13 17/31/13 23/24/13
f 21/12/13 19/32/13 23/24/13
f 24/33/14 25/34/14 26/35/14
f 25/34/14 27/36/14 26/35/14
f 27/36/14 28/37/14 26/35/14
f 28/37/14 29/38/14 26/35/14
f 29/38/14 30/39/14 26/35/14
f 30/39/14 31/40/14 26/35/14
f 31/40/14 32/41/14 26/35/14
f 32/41/14 33/42/14 26/35/14
f 33/42/14 34/43/14 26/35/14
f 34/43/14 35/44/14 26/35/14
f 22/45/12 21/46/11 37/46/15
f 23/46/13 38/46/13 37/47/13
f 35/48/14 39/48/14 40/47/14
f 42/3/16 43/2/17 44/1/17
f 43/2/17 45/5/18 46/4/18
f 45/5/18 47/7/19 48/6/19
f 47/7/19 49/9/20 50/8/20
f 49/9/20 51/11/21 52/10/21
f 51/11/21 53/13/22 54/12/22
f 53/13/22 55/15/23 56/14/23
f 55/15/23 57/17/24 58/16/24
f 57/17/24 59/19/25 60/18/25
f 59/19/25 36/21/26 37/20/15
f 44/22/13 38/24/13 41/23/13
f 46/25/13 38/24/13 44/22/13
f 48/26/13 38/24/13 46/25/13
f 50/27/13 38/24/13 48/26/13
f 52/28/13 38/24/13 50/27/13
f 54/29/13 38/24/13 52/28/13
f 56/30/13 38/24/13 54/29/13
f 58/31/13 38/24/13 56/30/13
f 60/32/13 38/24/13 58/31/13
f 37/12/13 38/24/13 60/32/13
f 61/34/14 62/33/14 40/35/14
f 63/36/14 61/34/14 40/35/14
f 64/37/14 63/36/14 40/35/14
f 65/38/14 64/37/14 40/35/14
f 66/39/14 65/38/14 40/35/14
f 67/40/14 66/39/14 40/35/14
f 68/41/14 67/40/14 40/35/14
f 69/42/14 68/41/14 40/35/14
f 70/43/14 69/42/14 40/35/14
f 39/44/14 70/43/14 40/35/14
f 42/49/16 41/47/27 1/47/28
f 41/46/13 38/47/13 23/47/13
f 40/46/14 62/50/14 24/50/14
f 24/46/29 62/46/30 42/49/31
f 4/3/32 3/2/33 25/51/33
f 3/2/33 6/5/34 27/52/34
f 27/53/34 6/5/34 8/7/35
f 28/54/35 8/7/35 10/9/36
f 29/55/37 10/9/36 12/11/38
f 30/56/38 12/11/38 14/13/39
f 31/57/39 14/13/39 16/15/40
f 16/15/40 18/17/41 33/58/41
f 33/59/41 18/17/41 20/19/42
f 34/60/42 20/19/42 22/21/43
f 22/45/43 36/45/44 39/47/45
f 43/2/46 61/61/46 63/52/47
f 61/51/46 43/2/46 42/3/31
f 63/53/47 64/62/48 47/7/48
f 64/54/48 65/63/49 49/9/50
f 65/55/49 66/64/51 51/11/51
f 66/56/51 67/65/52 53/13/52
f 53/13/52 67/57/52 68/66/53
f 55/15/53 68/67/53 69/58/54
f 57/17/54 69/59/54 70/68/55
f 59/19/55 70/60/55 39/69/45
f 72/70/56 73/71/56 74/72/57
f 75/73/6 76/74/6 73/71/56
f 77/12/58 78/75/58 76/74/6
f 79/76/59 80/77/59 78/75/58
f 81/78/21 82/79/21 80/77/59
f 71/80/57 74/81/57 82/79/21
f 84/70/56 85/71/56 86/72/57
f 87/73/6 88/74/6 85/71/56
f 89/12/58 90/75/58 88/74/6
f 91/76/59 92/77/59 90/75/58
f 93/78/21 94/79/21 92/77/59
f 83/80/57 86/81/57 94/79/21
f 96/70/56 97/71/56 98/72/57
f 99/73/6 100/74/6 97/71/56
f 101/12/58 102/75/58 100/74/6
f 103/76/59 104/77/59 102/75/58
f 105/78/21 106/79/21 104/77/59
f 105/78/21 95/80/57 98/81/57
f 108/70/56 109/71/56 110/72/57
f 111/73/6 112/74/6 109/71/56
f 113/12/58 114/75/58 112/74/6
f 115/76/59 116/77/59 114/75/58
f 117/78/21 118/79/21 116/77/59
f 107/80/57 110/81/57 118/79/21
f 1/82/28 2/1/1 4/3/2
f 2/1/1 5/4/3 3/2/1
f 5/4/3 7/6/4 6/5/3
f 7/6/4 9/8/5 8/7/4
f 9/8/5 11/10/6 10/9/5
f 11/10/6 13/12/7 12/11/6
f 13/12/7 15/14/8 14/13/7
f 15/14/8 17/16/9 16/15/8
f 17/16/9 19/18/10 18/17/9
f 19/18/10 21/20/11 20/19/10
f 36/45/26 22/45/12 37/46/15
f 21/47/13 23/46/13 37/47/13
f 26/47/14 35/48/14 40/47/14
f 41/82/27 42/3/16 44/1/17
f 44/1/17 43/2/17 46/4/18
f 46/4/18 45/5/18 48/6/19
f 48/6/19 47/7/19 50/8/20
f 50/8/20 49/9/20 52/10/21
f 52/10/21 51/11/21 54/12/22
f 54/12/22 53/13/22 56/14/23
f 56/14/23 55/15/23 58/16/24
f 58/16/24 57/17/24 60/18/25
f 60/18/25 59/19/25 37/20/15
f 4/49/2 42/49/16 1/47/28
f 1/46/13 41/46/13 23/47/13
f 26/46/14 40/46/14 24/50/14
f 4/49/32 24/46/29 42/49/31
f 24/83/29 4/3/32 25/51/33
f 25/61/33 3/2/33 27/52/34
f 28/62/35 27/53/34 8/7/35
f 29/63/37 28/54/35 10/9/36
f 30/64/38 29/55/37 12/11/38
f 31/65/39 30/56/38 14/13/39
f 32/66/40 31/57/39 16/15/40
f 32/67/40 16/15/40 33/58/41
f 34/68/42 33/59/41 20/19/42
f 35/69/60 34/60/42 22/21/43
f 35/47/60 22/45/43 39/47/45
f 45/5/47 43/2/46 63/52/47
f 62/83/30 61/51/46 42/3/31
f 45/5/47 63/53/47 47/7/48
f 47/7/48 64/54/48 49/9/50
f 49/9/50 65/55/49 51/11/51
f 51/11/51 66/56/51 53/13/52
f 55/15/53 53/13/52 68/66/53
f 57/17/54 55/15/53 69/58/54
f 59/19/55 57/17/54 70/68/55
f 36/21/44 59/19/55 39/69/45
f 71/84/57 72/70/56 74/72/57
f 72/70/56 75/73/6 73/71/56
f 75/73/6 77/12/58 76/74/6
f 77/12/58 79/76/59 78/75/58
f 79/76/59 81/78/21 80/77/59
f 81/78/21 71/80/57 82/79/21
f 83/84/57 84/70/56 86/72/57
f 84/70/56 87/73/6 85/71/56
f 87/73/6 89/12/58 88/74/6
f 89/12/58 91/76/59 90/75/58
f 91/76/59 93/78/21 92/77/59
f 93/78/21 83/80/57 94/79/21
f 95/84/57 96/70/56 98/72/57
f 96/70/56 99/73/6 97/71/56
f 99/73/6 101/12/58 100/74/6
f 101/12/58 103/76/59 102/75/58
f 103/76/59 105/78/21 104/77/59
f 106/79/21 105/78/21 98/81/57
f 107/84/57 108/70/56 110/72/57
f 108/70/56 111/73/6 109/71/56
f 111/73/6 113/12/58 112/74/6
f 113/12/58 115/76/59 114/75/58
f 115/76/59 117/78/21 116/77/59
f 117/78/21 107/80/57 118/79/21
