# Blender v2.76 (sub 0) OBJ File: ''
# www.blender.org
mtllib table3.mtl
o table3
v 0.640651 0.650257 -0.316253
v -0.640651 0.650257 -0.316253
v -0.640651 0.699053 -0.316253
v 0.640651 0.699053 -0.316253
v -0.640651 0.699053 0.316253
v 0.640651 0.699053 0.316253
v -0.640651 0.650257 0.316253
v 0.640651 0.650257 0.316253
v 0.619352 -0.021216 -0.300176
v 0.578858 -0.021216 -0.300176
v 0.578858 0.678531 -0.300176
v 0.619352 0.678531 -0.300176
v 0.619352 0.678531 -0.255518
v 0.578858 0.678531 -0.255518
v 0.578858 -0.021216 -0.255518
v 0.619352 -0.021216 -0.255518
v -0.579271 -0.021216 -0.300176
v -0.622782 -0.021216 -0.300176
v -0.622782 0.678531 -0.300176
v -0.579271 0.678531 -0.300176
v -0.579271 0.678531 -0.255518
v -0.622782 0.678531 -0.255518
v -0.622782 -0.021216 -0.255518
v -0.579271 -0.021216 -0.255518
v -0.579271 -0.021216 0.260610
v -0.622782 -0.021216 0.260610
v -0.622782 0.678531 0.260610
v -0.579271 0.678531 0.260610
v -0.579271 0.678531 0.298228
v -0.622782 0.678531 0.298228
v -0.622782 -0.021216 0.298228
v -0.579271 -0.021216 0.298228
v 0.619352 -0.021216 0.260610
v 0.578858 -0.021216 0.260610
v 0.578858 0.678531 0.260610
v 0.619352 0.678531 0.260610
v 0.619352 0.678531 0.298228
v 0.578858 0.678531 0.298228
v 0.578858 -0.021216 0.298228
v 0.619352 -0.021216 0.298228
v 0.587640 0.570628 -0.297209
v 0.587640 0.535516 -0.297209
v -0.585517 0.535516 -0.297209
v -0.585517 0.570628 -0.297209
v -0.585517 0.570628 -0.258486
v -0.585517 0.535516 -0.258486
v 0.587640 0.535516 -0.258486
v 0.587640 0.570628 -0.258486
v 0.581779 0.569501 -0.281763
v 0.581779 0.536643 -0.281763
v 0.581779 0.536643 0.271090
v 0.581779 0.569501 0.271090
v 0.618017 0.569501 0.271090
v 0.618017 0.536643 0.271090
v 0.618017 0.536643 -0.281763
v 0.618017 0.569501 -0.281763
v -0.619559 0.569501 -0.281763
v -0.619559 0.536643 -0.281763
v -0.619559 0.536643 0.271090
v -0.619559 0.569501 0.271090
v -0.583320 0.569501 0.271090
v -0.583320 0.536643 0.271090
v -0.583320 0.536643 -0.281763
v -0.583320 0.569501 -0.281763
vt 0.625000 0.000000
vt 0.625000 0.250000
vt 0.375000 0.250000
vt 0.625000 0.500000
vt 0.375000 0.500000
vt 0.625000 0.750000
vt 0.375000 0.750000
vt 0.625000 1.000000
vt 0.375000 1.000000
vt 0.875000 0.000000
vt 0.875000 0.250000
vt 0.375000 0.000000
vt 0.125000 0.250000
vt 0.125000 0.000000
vn 0.000000 0.000000 -1.000000
vn 0.000000 1.000000 -0.000000
vn 0.000000 0.000000 1.000000
vn 0.000000 -1.000000 0.000000
vn -1.000000 0.000000 0.000000
vn 1.000000 0.000000 0.000000
usemtl blinn2SG.017
s 1
f 2/1/1 3/2/1 4/3/1
f 3/2/2 5/4/2 6/5/2
f 5/4/3 7/6/3 8/7/3
f 7/6/4 2/8/4 1/9/4
f 7/10/5 5/11/5 3/2/5
f 1/12/6 4/3/6 6/13/6
f 10/1/1 11/2/1 12/3/1
f 14/4/3 15/6/3 16/7/3
f 15/6/4 10/8/4 9/9/4
f 15/10/5 14/11/5 11/2/5
f 9/12/6 12/3/6 13/13/6
f 18/1/1 19/2/1 20/3/1
f 22/4/3 23/6/3 24/7/3
f 23/6/4 18/8/4 17/9/4
f 23/10/5 22/11/5 19/2/5
f 17/12/6 20/3/6 21/13/6
f 26/1/1 27/2/1 28/3/1
f 30/4/3 31/6/3 32/7/3
f 31/6/4 26/8/4 25/9/4
f 31/10/5 30/11/5 27/2/5
f 25/12/6 28/3/6 29/13/6
f 34/1/1 35/2/1 36/3/1
f 38/4/3 39/6/3 40/7/3
f 39/6/4 34/8/4 33/9/4
f 39/10/5 38/11/5 35/2/5
f 33/12/6 36/3/6 37/13/6
f 42/1/1 43/2/1 44/3/1
f 46/4/3 47/6/3 48/7/3
f 47/10/4 46/11/4 43/2/4
f 41/12/2 44/3/2 45/13/2
f 50/1/5 51/2/5 52/3/5
f 54/4/6 55/6/6 56/7/6
f 55/10/4 54/11/4 51/2/4
f 49/12/2 52/3/2 53/13/2
f 58/1/5 59/2/5 60/3/5
f 62/4/6 63/6/6 64/7/6
f 63/10/4 62/11/4 59/2/4
f 57/12/2 60/3/2 61/13/2
f 1/12/1 2/1/1 4/3/1
f 4/3/2 3/2/2 6/5/2
f 6/5/3 5/4/3 8/7/3
f 8/7/4 7/6/4 1/9/4
f 2/1/5 7/10/5 3/2/5
f 8/14/6 1/12/6 6/13/6
f 9/12/1 10/1/1 12/3/1
f 13/5/3 14/4/3 16/7/3
f 16/7/4 15/6/4 9/9/4
f 10/1/5 15/10/5 11/2/5
f 16/14/6 9/12/6 13/13/6
f 17/12/1 18/1/1 20/3/1
f 21/5/3 22/4/3 24/7/3
f 24/7/4 23/6/4 17/9/4
f 18/1/5 23/10/5 19/2/5
f 24/14/6 17/12/6 21/13/6
f 25/12/1 26/1/1 28/3/1
f 29/5/3 30/4/3 32/7/3
f 32/7/4 31/6/4 25/9/4
f 26/1/5 31/10/5 27/2/5
f 32/14/6 25/12/6 29/13/6
f 33/12/1 34/1/1 36/3/1
f 37/5/3 38/4/3 40/7/3
f 40/7/4 39/6/4 33/9/4
f 34/1/5 39/10/5 35/2/5
f 40/14/6 33/12/6 37/13/6
f 41/12/1 42/1/1 44/3/1
f 45/5/3 46/4/3 48/7/3
f 42/1/4 47/10/4 43/2/4
f 48/14/2 41/12/2 45/13/2
f 49/12/5 50/1/5 52/3/5
f 53/5/6 54/4/6 56/7/6
f 50/1/4 55/10/4 51/2/4
f 56/14/2 49/12/2 53/13/2
f 57/12/5 58/1/5 60/3/5
f 61/5/6 62/4/6 64/7/6
f 58/1/4 63/10/4 59/2/4
f 64/14/2 57/12/2 61/13/2
