# Blender v2.76 (sub 0) OBJ File: ''
# www.blender.org
mtllib table2.mtl
o table2
v 0.465280 0.647266 -0.451140
v -0.465280 0.647266 -0.451140
v -0.465280 0.696063 -0.451140
v 0.465280 0.696062 -0.451140
v -0.465280 0.696063 0.451140
v 0.465280 0.696062 0.451140
v -0.465280 0.647266 0.451140
v 0.465280 0.647266 0.451140
v 0.455067 -0.033569 -0.446346
v 0.392401 -0.033569 -0.446346
v 0.392401 0.675540 -0.446346
v 0.455067 0.675540 -0.446346
v 0.455067 0.675540 -0.379122
v 0.392401 0.675540 -0.379122
v 0.392401 -0.033569 -0.379122
v 0.455067 -0.033569 -0.379122
v -0.388099 -0.033569 -0.446346
v -0.450765 -0.033569 -0.446346
v -0.450765 0.675540 -0.446346
v -0.388099 0.675540 -0.446346
v -0.388099 0.675540 -0.379122
v -0.450765 0.675540 -0.379122
v -0.450765 -0.033569 -0.379122
v -0.388099 -0.033569 -0.379122
v -0.388099 -0.033569 0.372001
v -0.450765 -0.033569 0.372001
v -0.450765 0.675540 0.372001
v -0.388099 0.675540 0.372001
v -0.388099 0.675540 0.439225
v -0.450765 0.675540 0.439225
v -0.450765 -0.033569 0.439225
v -0.388099 -0.033569 0.439225
v 0.455067 -0.033569 0.372001
v 0.392401 -0.033569 0.372001
v 0.392401 0.675540 0.372001
v 0.455067 0.675540 0.372001
v 0.455067 0.675540 0.439225
v 0.392401 0.675540 0.439225
v 0.392401 -0.033569 0.439225
v 0.455067 -0.033569 0.439225
vt 0.625000 0.000000
vt 0.625000 0.250000
vt 0.375000 0.250000
vt 0.625000 0.500000
vt 0.375000 0.500000
vt 0.625000 0.750000
vt 0.375000 0.750000
vt 0.625000 1.000000
vt 0.375000 1.000000
vt 0.875000 0.000000
vt 0.875000 0.250000
vt 0.125000 0.000000
vt 0.375000 0.000000
vt 0.125000 0.250000
vn 0.000000 0.000000 -1.000000
vn 0.000000 1.000000 -0.000000
vn 0.000000 0.000000 1.000000
vn 0.000000 -1.000000 0.000000
vn -1.000000 0.000000 0.000000
vn 1.000000 0.000000 0.000000
usemtl blinn2SG.016
s 1
f 2/1/1 3/2/1 4/3/1
f 3/2/2 5/4/2 6/5/2
f 5/4/3 7/6/3 8/7/3
f 7/6/4 2/8/4 1/9/4
f 7/10/5 5/11/5 3/2/5
f 8/12/6 1/13/6 4/3/6
f 10/1/1 11/2/1 12/3/1
f 14/4/3 15/6/3 16/7/3
f 15/6/4 10/8/4 9/9/4
f 10/1/5 15/10/5 14/11/5
f 9/13/6 12/3/6 13/14/6
f 18/1/1 19/2/1 20/3/1
f 22/4/3 23/6/3 24/7/3
f 23/6/4 18/8/4 17/9/4
f 18/1/5 23/10/5 22/11/5
f 17/13/6 20/3/6 21/14/6
f 26/1/1 27/2/1 28/3/1
f 30/4/3 31/6/3 32/7/3
f 31/6/4 26/8/4 25/9/4
f 31/10/5 30/11/5 27/2/5
f 25/13/6 28/3/6 29/14/6
f 34/1/1 35/2/1 36/3/1
f 38/4/3 39/6/3 40/7/3
f 39/6/4 34/8/4 33/9/4
f 39/10/5 38/11/5 35/2/5
f 33/13/6 36/3/6 37/14/6
f 1/13/1 2/1/1 4/3/1
f 4/3/2 3/2/2 6/5/2
f 6/5/3 5/4/3 8/7/3
f 8/7/4 7/6/4 1/9/4
f 2/1/5 7/10/5 3/2/5
f 6/14/6 8/12/6 4/3/6
f 9/13/1 10/1/1 12/3/1
f 13/5/3 14/4/3 16/7/3
f 16/7/4 15/6/4 9/9/4
f 11/2/5 10/1/5 14/11/5
f 16/12/6 9/13/6 13/14/6
f 17/13/1 18/1/1 20/3/1
f 21/5/3 22/4/3 24/7/3
f 24/7/4 23/6/4 17/9/4
f 19/2/5 18/1/5 22/11/5
f 24/12/6 17/13/6 21/14/6
f 25/13/1 26/1/1 28/3/1
f 29/5/3 30/4/3 32/7/3
f 32/7/4 31/6/4 25/9/4
f 26/1/5 31/10/5 27/2/5
f 32/12/6 25/13/6 29/14/6
f 33/13/1 34/1/1 36/3/1
f 37/5/3 38/4/3 40/7/3
f 40/7/4 39/6/4 33/9/4
f 34/1/5 39/10/5 35/2/5
f 40/12/6 33/13/6 37/14/6
