# Blender v2.76 (sub 0) OBJ File: ''
# www.blender.org
mtllib table6.mtl
o table6
v 0.884674 0.669836 -0.451470
v -0.884674 0.669836 -0.451470
v -0.884674 0.718633 -0.451470
v 0.884674 0.718632 -0.451470
v -0.884674 0.718633 0.451470
v 0.884674 0.718632 0.451470
v -0.884674 0.669836 0.451470
v 0.884674 0.669836 0.451470
v 0.874461 -0.011000 -0.446676
v 0.811795 -0.011000 -0.446676
v 0.811795 0.698110 -0.446676
v 0.874461 0.698110 -0.446676
v 0.874461 0.698110 -0.379452
v 0.811795 0.698110 -0.379452
v 0.811795 -0.011000 -0.379452
v 0.874461 -0.011000 -0.379452
v -0.807493 -0.011000 -0.446676
v -0.870159 -0.011000 -0.446676
v -0.870159 0.698110 -0.446676
v -0.807493 0.698110 -0.446676
v -0.807493 0.698110 -0.379452
v -0.870159 0.698110 -0.379452
v -0.870159 -0.011000 -0.379452
v -0.807493 -0.011000 -0.379452
v -0.807493 -0.011000 0.371671
v -0.870159 -0.011000 0.371671
v -0.870159 0.698110 0.371671
v -0.807493 0.698110 0.371671
v -0.807493 0.698110 0.438895
v -0.870159 0.698110 0.438895
v -0.870159 -0.011000 0.438895
v -0.807493 -0.011000 0.438895
v 0.874461 -0.011000 0.371671
v 0.811795 -0.011000 0.371671
v 0.811795 0.698110 0.371671
v 0.874461 0.698110 0.371671
v 0.874461 0.698110 0.438895
v 0.811795 0.698110 0.438895
v 0.811795 -0.011000 0.438895
v 0.874461 -0.011000 0.438895
vt 0.625000 0.000000
vt 0.625000 0.250000
vt 0.375000 0.250000
vt 0.625000 0.500000
vt 0.375000 0.500000
vt 0.625000 0.750000
vt 0.625000 1.000000
vt 0.375000 1.000000
vt 0.875000 0.000000
vt 0.875000 0.250000
vt 0.375000 0.000000
vt 0.125000 0.250000
vt 0.375000 0.750000
vt 0.125000 0.000000
vn 0.000000 0.000000 -1.000000
vn 0.000000 1.000000 -0.000000
vn -0.000000 0.000000 1.000000
vn 0.000000 -1.000000 0.000000
vn -1.000000 0.000000 0.000000
vn 1.000000 0.000000 0.000000
usemtl blinn2SG.020
s 1
f 2/1/1 3/2/1 4/3/1
f 3/2/2 5/4/2 6/5/2
f 6/5/3 5/4/3 7/6/3
f 7/6/4 2/7/4 1/8/4
f 7/9/5 5/10/5 3/2/5
f 1/11/6 4/3/6 6/12/6
f 10/1/1 11/2/1 12/3/1
f 14/4/3 15/6/3 16/13/3
f 15/6/4 10/7/4 9/8/4
f 10/1/5 15/9/5 14/10/5
f 9/11/6 12/3/6 13/12/6
f 18/1/1 19/2/1 20/3/1
f 22/4/3 23/6/3 24/13/3
f 23/6/4 18/7/4 17/8/4
f 18/1/5 23/9/5 22/10/5
f 17/11/6 20/3/6 21/12/6
f 26/1/1 27/2/1 28/3/1
f 30/4/3 31/6/3 32/13/3
f 31/6/4 26/7/4 25/8/4
f 31/9/5 30/10/5 27/2/5
f 25/11/6 28/3/6 29/12/6
f 34/1/1 35/2/1 36/3/1
f 38/4/3 39/6/3 40/13/3
f 39/6/4 34/7/4 33/8/4
f 39/9/5 38/10/5 35/2/5
f 33/11/6 36/3/6 37/12/6
f 1/11/1 2/1/1 4/3/1
f 4/3/2 3/2/2 6/5/2
f 8/13/3 6/5/3 7/6/3
f 8/13/4 7/6/4 1/8/4
f 2/1/5 7/9/5 3/2/5
f 8/14/6 1/11/6 6/12/6
f 9/11/1 10/1/1 12/3/1
f 13/5/3 14/4/3 16/13/3
f 16/13/4 15/6/4 9/8/4
f 11/2/5 10/1/5 14/10/5
f 16/14/6 9/11/6 13/12/6
f 17/11/1 18/1/1 20/3/1
f 21/5/3 22/4/3 24/13/3
f 24/13/4 23/6/4 17/8/4
f 19/2/5 18/1/5 22/10/5
f 24/14/6 17/11/6 21/12/6
f 25/11/1 26/1/1 28/3/1
f 29/5/3 30/4/3 32/13/3
f 32/13/4 31/6/4 25/8/4
f 26/1/5 31/9/5 27/2/5
f 32/14/6 25/11/6 29/12/6
f 33/11/1 34/1/1 36/3/1
f 37/5/3 38/4/3 40/13/3
f 40/13/4 39/6/4 33/8/4
f 34/1/5 39/9/5 35/2/5
f 40/14/6 33/11/6 37/12/6
