# Blender v2.76 (sub 0) OBJ File: ''
# www.blender.org
mtllib table1.mtl
o table1
v 0.658558 0.648475 0.463643
v 0.801832 0.648475 0.440951
v 0.801832 0.690282 0.440951
v 0.658558 0.690282 0.463643
v 0.931081 0.648475 0.375095
v 0.931081 0.690282 0.375095
v 1.033654 0.648475 0.272523
v 1.033654 0.690282 0.272523
v 1.099509 0.648475 0.143274
v 1.099509 0.690282 0.143274
v 1.122202 0.648475 -0.000000
v 1.122202 0.690282 -0.000000
v 1.099509 0.648475 -0.143274
v 1.099509 0.690282 -0.143274
v 1.033654 0.648475 -0.272523
v 1.033654 0.690282 -0.272523
v 0.931081 0.648475 -0.375095
v 0.931081 0.690282 -0.375095
v 0.801832 0.648475 -0.440951
v 0.801832 0.690282 -0.440951
v 0.658558 0.648475 -0.463643
v 0.658558 0.690282 -0.463643
v 0.658558 0.648475 -0.000000
v 0.658558 0.695851 0.458073
v 0.800111 0.695851 0.435655
v 0.658558 0.695851 -0.000000
v 0.927808 0.695851 0.370590
v 1.029148 0.695851 0.269249
v 1.094213 0.695851 0.141553
v 1.116633 0.695851 -0.000000
v 1.094213 0.695851 -0.141553
v 1.029148 0.695851 -0.269249
v 0.927808 0.695851 -0.370590
v 0.800111 0.695851 -0.435655
v 0.658558 0.695851 -0.458073
v -0.658559 0.690282 -0.463643
v -0.658559 0.648475 -0.463643
v -0.658559 0.648475 -0.000000
v -0.658559 0.695851 -0.458073
v -0.658559 0.695851 -0.000000
v -0.658559 0.648475 0.463643
v -0.658559 0.690282 0.463643
v -0.801833 0.690282 0.440951
v -0.801833 0.648475 0.440951
v -0.931082 0.690282 0.375095
v -0.931082 0.648475 0.375095
v -1.033654 0.690282 0.272523
v -1.033654 0.648475 0.272523
v -1.099509 0.690282 0.143274
v -1.099509 0.648475 0.143274
v -1.122202 0.690282 -0.000000
v -1.122202 0.648475 -0.000000
v -1.099509 0.690282 -0.143274
v -1.099509 0.648475 -0.143274
v -1.033654 0.690282 -0.272523
v -1.033654 0.648475 -0.272523
v -0.931081 0.690282 -0.375095
v -0.931081 0.648475 -0.375095
v -0.801832 0.690282 -0.440951
v -0.801832 0.648475 -0.440951
v -0.800112 0.695851 0.435655
v -0.658559 0.695851 0.458073
v -0.927808 0.695851 0.370590
v -1.029148 0.695851 0.269249
v -1.094213 0.695851 0.141553
v -1.116633 0.695851 -0.000000
v -1.094213 0.695851 -0.141553
v -1.029148 0.695851 -0.269249
v -0.927808 0.695851 -0.370590
v -0.800111 0.695851 -0.435655
v 0.936172 -0.035663 -0.337375
v 0.887429 -0.035663 -0.337375
v 0.887429 0.673447 -0.337375
v 0.936172 0.673447 -0.337375
v 0.936172 0.673447 -0.294937
v 0.887429 0.673447 -0.294937
v 0.887429 -0.035663 -0.294937
v 0.936172 -0.035663 -0.294937
v -0.825743 -0.035663 -0.337375
v -0.883206 -0.035663 -0.337375
v -0.883206 0.673447 -0.337375
v -0.825743 0.673447 -0.337375
v -0.825743 0.673447 -0.294937
v -0.883206 0.673447 -0.294937
v -0.883206 -0.035663 -0.294937
v -0.825743 -0.035663 -0.294937
v -0.825743 -0.035663 0.289805
v -0.883206 -0.035663 0.289805
v -0.883206 0.673447 0.289805
v -0.825743 0.673447 0.289805
v -0.825743 0.673447 0.336225
v -0.883206 0.673447 0.336225
v -0.883206 -0.035663 0.336225
v -0.825743 -0.035663 0.336225
v 0.936172 -0.035663 0.289805
v 0.887429 -0.035663 0.289805
v 0.887429 0.673447 0.289805
v 0.936172 0.673447 0.289805
v 0.936172 0.673447 0.336225
v 0.887429 0.673447 0.336225
v 0.887429 -0.035663 0.336225
v 0.936172 -0.035663 0.336225
v 0.051682 -0.035663 -0.337375
v 0.002940 -0.035663 -0.337375
v 0.002940 0.673447 -0.337375
v 0.051682 0.673447 -0.337375
v 0.051682 0.673447 -0.294937
v 0.002940 0.673447 -0.294937
v 0.002940 -0.035663 -0.294937
v 0.051682 -0.035663 -0.294937
v 0.051682 -0.035663 0.289805
v 0.002940 -0.035663 0.289805
v 0.002940 0.673447 0.289805
v 0.051682 0.673447 0.289805
v 0.051682 0.673447 0.336225
v 0.002940 0.673447 0.336225
v 0.002940 -0.035663 0.336225
v 0.051682 -0.035663 0.336225
vt 0.625000 0.000000
vt 0.625000 0.250000
vt 0.375000 0.250000
vt 0.625000 0.500000
vt 0.625000 0.750000
vt 0.375000 0.750000
vt 0.625000 1.000000
vt 0.375000 1.000000
vt 0.875000 0.000000
vt 0.875000 0.250000
vt 0.375000 0.000000
vt 0.125000 0.250000
vt 0.375000 0.500000
vt 0.125000 0.000000
vt 0.437500 0.312500
vt 0.437500 0.644249
vt 0.425000 0.644249
vt 0.450000 0.312500
vt 0.450000 0.644249
vt 0.462500 0.312500
vt 0.462500 0.644249
vt 0.475000 0.312500
vt 0.475000 0.644249
vt 0.487500 0.312500
vt 0.487500 0.644249
vt 0.500000 0.312500
vt 0.500000 0.644249
vt 0.512500 0.312500
vt 0.512500 0.644249
vt 0.525000 0.312500
vt 0.525000 0.644249
vt 0.537500 0.312500
vt 0.537500 0.644249
vt 0.550000 0.312500
vt 0.550000 0.644249
vt 0.451716 0.007647
vt 0.500000 -0.000000
vt 0.500000 0.150000
vt 0.408159 0.029841
vt 0.373591 0.064409
vt 0.351397 0.107966
vt 0.343750 0.156250
vt 0.351397 0.204534
vt 0.373591 0.248091
vt 0.408159 0.282659
vt 0.451716 0.304853
vt 0.500000 0.998048
vt 0.452296 0.990493
vt 0.500000 0.837500
vt 0.409262 0.968566
vt 0.375109 0.934413
vt 0.353182 0.891379
vt 0.345627 0.843675
vt 0.353182 0.795971
vt 0.375109 0.752937
vt 0.409262 0.718784
vt 0.452296 0.696857
vt 0.500000 0.689302
vt 0.117544 0.000000
vt 1.000000 0.000000
vt 0.000000 0.000000
vt 0.987986 0.000000
vt 0.882452 0.000000
vt 0.012014 0.000000
vt 0.437425 0.688440
vt 0.449925 0.688440
vt 0.450075 0.688440
vt 0.462575 0.688440
vt 0.475075 0.688440
vt 0.499925 0.688440
vt 0.512425 0.688440
vt 0.512575 0.688440
vt 0.525075 0.688440
vt 0.537575 0.688440
vt 0.437575 0.688440
vt 0.462425 0.688440
vt 0.474925 0.688440
vt 0.487425 0.688440
vt 0.487575 0.688440
vt 0.500075 0.688440
vt 0.524925 0.688440
vt 0.537425 0.688440
vt 0.549925 0.688440
vt 0.425000 0.312500
vt 0.425075 0.688440
vn 0.000000 -0.000000 -1.000000
vn 0.000000 0.000000 1.000000
vn 0.000000 -1.000000 0.000000
vn -1.000000 -0.000000 0.000000
vn 1.000000 0.000000 0.000000
vn 0.309000 0.000000 0.951100
vn 0.015300 0.000000 0.999900
vn 0.587800 0.000000 0.809000
vn 0.809000 0.000000 0.587800
vn 0.951100 0.000000 0.309000
vn 0.951100 0.000000 -0.309000
vn 0.809000 0.000000 -0.587800
vn 0.587800 0.000000 -0.809000
vn 0.309000 0.000000 -0.951100
vn 0.015300 0.000000 -0.999900
vn -0.000000 1.000000 -0.000000
vn -0.015100 -0.000000 -0.999900
vn -0.015100 -0.000000 0.999900
vn -0.309000 0.000000 0.951100
vn -0.587800 0.000000 0.809000
vn -0.809000 0.000000 0.587800
vn -0.951100 0.000000 0.309000
vn -0.951100 0.000000 -0.309000
vn -0.809000 0.000000 -0.587800
vn -0.587800 0.000000 -0.809000
vn -0.309000 0.000000 -0.951100
vn -0.015500 0.000000 -0.999900
vn -0.015500 0.000000 0.999900
vn 0.011500 0.707100 0.707000
vn -0.011600 0.707200 0.707000
vn -0.010000 0.707100 0.707000
vn 0.010100 0.707200 0.707000
vn 0.218500 0.707100 0.672500
vn 0.415600 0.707100 0.572100
vn 0.572000 0.707200 0.415600
vn 0.672500 0.707100 0.218500
vn 0.707100 0.707100 0.000000
vn 0.672500 0.707100 -0.218500
vn 0.572000 0.707200 -0.415600
vn 0.415600 0.707100 -0.572100
vn 0.218500 0.707100 -0.672500
vn 0.010000 0.707100 -0.707000
vn -0.010100 0.707200 -0.707000
vn -0.011500 0.707100 -0.707000
vn -0.218500 0.707100 0.672500
vn -0.415600 0.707100 0.572100
vn -0.572000 0.707200 0.415600
vn -0.672500 0.707100 0.218500
vn -0.707100 0.707100 -0.000000
vn -0.672500 0.707100 -0.218500
vn -0.572000 0.707200 -0.415600
vn -0.415700 0.707100 -0.572100
vn -0.415600 0.707100 -0.572100
vn -0.218500 0.707100 -0.672500
vn 0.011600 0.707100 -0.707000
usemtl blinn2SG.015
s off
f 72/1/1 73/2/1 74/3/1
f 76/4/2 77/5/2 78/6/2
f 77/5/3 72/7/3 71/8/3
f 77/9/4 76/10/4 73/2/4
f 71/11/5 74/3/5 75/12/5
f 80/1/1 81/2/1 82/3/1
f 84/4/2 85/5/2 86/6/2
f 85/5/3 80/7/3 79/8/3
f 85/9/4 84/10/4 81/2/4
f 79/11/5 82/3/5 83/12/5
f 88/1/1 89/2/1 90/3/1
f 92/4/2 93/5/2 94/6/2
f 93/5/3 88/7/3 87/8/3
f 93/9/4 92/10/4 89/2/4
f 87/11/5 90/3/5 91/12/5
f 96/1/1 97/2/1 98/3/1
f 100/4/2 101/5/2 102/6/2
f 101/5/3 96/7/3 95/8/3
f 101/9/4 100/10/4 97/2/4
f 95/11/5 98/3/5 99/12/5
f 104/1/1 105/2/1 106/3/1
f 108/4/2 109/5/2 110/6/2
f 109/5/3 104/7/3 103/8/3
f 109/9/4 108/10/4 105/2/4
f 103/11/5 106/3/5 107/12/5
f 112/1/1 113/2/1 114/3/1
f 116/4/2 117/5/2 118/6/2
f 117/5/3 112/7/3 111/8/3
f 117/9/4 116/10/4 113/2/4
f 111/11/5 114/3/5 115/12/5
f 71/11/1 72/1/1 74/3/1
f 75/13/2 76/4/2 78/6/2
f 78/6/3 77/5/3 71/8/3
f 72/1/4 77/9/4 73/2/4
f 78/14/5 71/11/5 75/12/5
f 79/11/1 80/1/1 82/3/1
f 83/13/2 84/4/2 86/6/2
f 86/6/3 85/5/3 79/8/3
f 80/1/4 85/9/4 81/2/4
f 86/14/5 79/11/5 83/12/5
f 87/11/1 88/1/1 90/3/1
f 91/13/2 92/4/2 94/6/2
f 94/6/3 93/5/3 87/8/3
f 88/1/4 93/9/4 89/2/4
f 94/14/5 87/11/5 91/12/5
f 95/11/1 96/1/1 98/3/1
f 99/13/2 100/4/2 102/6/2
f 102/6/3 101/5/3 95/8/3
f 96/1/4 101/9/4 97/2/4
f 102/14/5 95/11/5 99/12/5
f 103/11/1 104/1/1 106/3/1
f 107/13/2 108/4/2 110/6/2
f 110/6/3 109/5/3 103/8/3
f 104/1/4 109/9/4 105/2/4
f 110/14/5 103/11/5 107/12/5
f 111/11/1 112/1/1 114/3/1
f 115/13/2 116/4/2 118/6/2
f 118/6/3 117/5/3 111/8/3
f 112/1/4 117/9/4 113/2/4
f 118/14/5 111/11/5 115/12/5
s 1
f 2/15/6 3/16/6 4/17/7
f 5/18/8 6/19/8 3/16/6
f 7/20/9 8/21/9 6/19/8
f 7/20/9 9/22/10 10/23/10
f 9/22/10 11/24/5 12/25/5
f 13/26/11 14/27/11 12/25/5
f 13/26/11 15/28/12 16/29/12
f 17/30/13 18/31/13 16/29/12
f 19/32/14 20/33/14 18/31/13
f 21/34/15 22/35/15 20/33/14
f 2/36/3 1/37/3 23/38/3
f 5/39/3 2/36/3 23/38/3
f 7/40/3 5/39/3 23/38/3
f 9/41/3 7/40/3 23/38/3
f 11/42/3 9/41/3 23/38/3
f 13/43/3 11/42/3 23/38/3
f 15/44/3 13/43/3 23/38/3
f 17/45/3 15/44/3 23/38/3
f 19/46/3 17/45/3 23/38/3
f 21/26/3 19/46/3 23/38/3
f 24/47/16 25/48/16 26/49/16
f 25/48/16 27/50/16 26/49/16
f 27/50/16 28/51/16 26/49/16
f 28/51/16 29/52/16 26/49/16
f 29/52/16 30/53/16 26/49/16
f 30/53/16 31/54/16 26/49/16
f 31/54/16 32/55/16 26/49/16
f 32/55/16 33/56/16 26/49/16
f 33/56/16 34/57/16 26/49/16
f 34/57/16 35/58/16 26/49/16
f 22/59/15 21/60/15 37/60/17
f 23/60/3 38/60/3 37/61/3
f 35/62/16 39/62/16 40/61/16
f 42/17/18 43/16/19 44/15/19
f 43/16/19 45/19/20 46/18/20
f 45/19/20 47/21/21 48/20/21
f 47/21/21 49/23/22 50/22/22
f 50/22/22 49/23/22 51/25/4
f 51/25/4 53/27/23 54/26/23
f 54/26/23 53/27/23 55/29/24
f 55/29/24 57/31/25 58/30/25
f 57/31/25 59/33/26 60/32/26
f 59/33/26 36/35/27 37/34/17
f 44/36/3 38/38/3 41/37/3
f 46/39/3 38/38/3 44/36/3
f 48/40/3 38/38/3 46/39/3
f 50/41/3 38/38/3 48/40/3
f 52/42/3 38/38/3 50/41/3
f 54/43/3 38/38/3 52/42/3
f 56/44/3 38/38/3 54/43/3
f 58/45/3 38/38/3 56/44/3
f 60/46/3 38/38/3 58/45/3
f 37/26/3 38/38/3 60/46/3
f 61/48/16 62/47/16 40/49/16
f 63/50/16 61/48/16 40/49/16
f 64/51/16 63/50/16 40/49/16
f 65/52/16 64/51/16 40/49/16
f 66/53/16 65/52/16 40/49/16
f 67/54/16 66/53/16 40/49/16
f 68/55/16 67/54/16 40/49/16
f 69/56/16 68/55/16 40/49/16
f 70/57/16 69/56/16 40/49/16
f 39/58/16 70/57/16 40/49/16
f 42/63/18 41/61/28 1/61/7
f 41/60/3 38/61/3 23/61/3
f 40/60/16 62/64/16 24/64/16
f 24/60/29 62/60/30 42/63/31
f 4/17/32 3/16/33 25/65/33
f 3/16/33 6/19/34 27/66/34
f 27/67/34 6/19/34 8/21/35
f 28/68/35 8/21/35 10/23/36
f 29/69/36 10/23/36 12/25/37
f 12/25/37 14/27/38 31/70/38
f 14/27/38 16/29/39 32/71/39
f 32/72/39 16/29/39 18/31/40
f 33/73/40 18/31/40 20/33/41
f 34/74/41 20/33/41 22/35/42
f 22/59/42 36/59/43 39/61/44
f 43/16/45 61/75/45 63/66/46
f 61/65/45 43/16/45 42/17/31
f 45/19/46 63/67/46 64/76/47
f 64/68/47 65/77/48 49/23/48
f 65/69/48 66/78/49 51/25/49
f 51/25/49 66/79/49 67/70/50
f 53/27/50 67/80/50 68/71/51
f 68/72/51 69/81/52 57/31/53
f 69/73/52 70/82/54 59/33/54
f 70/74/54 39/83/44 36/35/43
f 1/84/7 2/15/6 4/17/7
f 2/15/6 5/18/8 3/16/6
f 5/18/8 7/20/9 6/19/8
f 8/21/9 7/20/9 10/23/10
f 10/23/10 9/22/10 12/25/5
f 11/24/5 13/26/11 12/25/5
f 14/27/11 13/26/11 16/29/12
f 15/28/12 17/30/13 16/29/12
f 17/30/13 19/32/14 18/31/13
f 19/32/14 21/34/15 20/33/14
f 36/59/27 22/59/15 37/60/17
f 21/61/3 23/60/3 37/61/3
f 26/61/16 35/62/16 40/61/16
f 41/84/28 42/17/18 44/15/19
f 44/15/19 43/16/19 46/18/20
f 46/18/20 45/19/20 48/20/21
f 48/20/21 47/21/21 50/22/22
f 52/24/4 50/22/22 51/25/4
f 52/24/4 51/25/4 54/26/23
f 56/28/24 54/26/23 55/29/24
f 56/28/24 55/29/24 58/30/25
f 58/30/25 57/31/25 60/32/26
f 60/32/26 59/33/26 37/34/17
f 4/63/7 42/63/18 1/61/7
f 1/60/3 41/60/3 23/61/3
f 26/60/16 40/60/16 24/64/16
f 4/63/32 24/60/29 42/63/31
f 24/85/29 4/17/32 25/65/33
f 25/75/33 3/16/33 27/66/34
f 28/76/35 27/67/34 8/21/35
f 29/77/36 28/68/35 10/23/36
f 30/78/37 29/69/36 12/25/37
f 30/79/37 12/25/37 31/70/38
f 31/80/38 14/27/38 32/71/39
f 33/81/40 32/72/39 18/31/40
f 34/82/41 33/73/40 20/33/41
f 35/83/55 34/74/41 22/35/42
f 35/61/55 22/59/42 39/61/44
f 45/19/46 43/16/45 63/66/46
f 62/85/30 61/65/45 42/17/31
f 47/21/47 45/19/46 64/76/47
f 47/21/47 64/68/47 49/23/48
f 49/23/48 65/69/48 51/25/49
f 53/27/50 51/25/49 67/70/50
f 55/29/51 53/27/50 68/71/51
f 55/29/51 68/72/51 57/31/53
f 57/31/53 69/73/52 59/33/54
f 59/33/54 70/74/54 36/35/43
