# Blender v2.76 (sub 0) OBJ File: ''
# www.blender.org
mtllib Wall3.mtl
o Wall3
v -3.491603 0.000000 0.000222
v -3.491603 1.257439 -2.042990
v -3.491603 1.257438 -3.403858
v -3.493501 -0.000001 -4.693726
v -3.337262 1.257438 -3.403858
v -3.337262 1.257439 -2.042990
v -3.337262 0.000000 0.000222
v -3.337697 -0.000001 -4.539320
v -3.491603 2.448924 -3.403858
v -3.491603 2.448924 -2.042990
v -3.491603 3.199425 -0.021032
v -3.492168 3.199424 -4.693727
v -3.337262 3.199425 -0.021034
v -3.337262 2.448924 -2.042990
v -3.337262 2.448924 -3.403858
v -3.336363 3.199424 -4.539320
v -1.030954 -0.000001 -4.692837
v -0.155860 1.257438 -4.692837
v 1.205008 1.257438 -4.692837
v 3.496028 -0.000001 -4.692837
v 1.205008 1.257438 -4.538498
v -0.155860 1.257438 -4.538498
v -1.030954 -0.000001 -4.538498
v 3.351497 -0.000001 -4.538498
v -2.259543 2.448923 -4.538498
v -1.017213 2.448923 -4.538498
v -1.017213 3.199424 -4.538498
v -1.017213 3.199424 -4.692838
v -1.017213 2.448923 -4.692838
v -2.259543 2.448923 -4.692838
v -0.155860 2.448923 -4.692838
v -0.155860 3.199424 -4.692838
v 1.205008 2.448923 -4.692838
v 3.496028 3.199424 -4.692838
v -0.155860 3.199424 -4.538498
v -0.155860 2.448923 -4.538498
v 1.205008 2.448923 -4.538498
v 3.351497 3.199424 -4.538498
v -2.259543 -0.000001 -4.692837
v -2.259543 -0.000001 -4.538498
v -3.496368 0.000001 4.693726
v -3.491603 1.257440 3.404302
v -3.491603 1.257439 2.043434
v -3.337262 1.257440 3.404302
v -3.340435 0.000001 4.539353
v -3.337262 1.257439 2.043434
v -3.491603 2.448924 2.043433
v -3.491603 2.448925 3.404301
v -3.491965 3.199521 4.693726
v -3.336032 3.199521 4.539352
v -3.337262 2.448925 3.404301
v -3.337262 2.448924 2.043433
v 3.496368 0.000001 4.693282
v 0.778998 1.257440 4.693282
v -0.581870 1.257440 4.693282
v 0.778998 1.257440 4.538942
v 3.352052 0.000001 4.538942
v -0.581870 1.257440 4.538942
v 0.778998 2.448925 4.693282
v 3.496368 3.199426 4.693282
v -0.581870 2.448925 4.693282
v 3.352052 3.199426 4.538941
v 0.778998 2.448925 4.538941
v -0.581870 2.448925 4.538941
vt 0.000000 0.000000
vt 1.000000 0.000000
vt 0.509672 0.653834
vt 0.561859 0.653834
vt 0.598975 0.717945
vt 0.509672 0.096166
vt 0.509672 0.000000
vt 0.598975 0.032055
vt 0.509672 0.562712
vt 0.493157 0.500000
vt 0.589696 0.531356
vt 0.509672 0.187288
vt 0.561859 0.187288
vt 0.598975 0.229096
vt 0.493157 0.250000
vt 0.487651 0.717945
vt 0.561859 0.562712
vt 0.561859 0.096166
vt 0.428999 0.187288
vt 0.476641 0.187288
vt 0.476641 0.250000
vt 0.476641 0.500000
vt 0.476641 0.562712
vt 0.428999 0.562712
vt 0.509672 0.500000
vt 0.509672 0.250000
vt 0.476641 0.048083
vt 0.428999 0.750000
vt 0.381366 0.750000
vt 0.381366 0.000000
vt 0.428999 0.000000
vt 0.487651 0.229096
vt 0.397244 0.229096
vt 0.397244 0.520904
vn 1.000000 0.000000 -0.000000
vn -1.000000 -0.000000 0.000100
vn -1.000000 0.000400 0.000200
vn -1.000000 0.000900 0.000500
vn -1.000000 0.000700 0.000700
vn 1.000000 -0.000100 -0.000000
vn 1.000000 -0.000300 0.000000
vn -1.000000 -0.000200 0.000100
vn -1.000000 -0.000100 0.000000
vn -1.000000 -0.000000 0.000500
vn 1.000000 -0.000400 0.000100
vn 1.000000 -0.000700 0.000400
vn 1.000000 -0.000500 0.000300
vn -1.000000 0.000200 0.000100
vn -1.000000 -0.000400 0.000200
vn 1.000000 -0.000300 0.000100
vn 0.000000 -0.000000 -1.000000
vn 0.000000 0.000000 1.000000
vn -0.000500 0.000200 1.000000
vn -0.000100 0.000100 1.000000
vn 0.000100 -0.000100 -1.000000
vn 0.000500 -0.000300 -1.000000
vn 0.000700 -0.000000 -1.000000
vn -0.000800 0.000000 1.000000
vn -1.000000 0.002000 -0.001500
vn -1.000000 0.002400 -0.000900
vn -1.000000 0.001100 -0.000500
vn 1.000000 -0.001600 0.000800
vn 1.000000 -0.000400 0.000200
vn 1.000000 -0.000800 0.000300
vn -1.000000 -0.000000 -0.000000
vn -1.000000 0.000600 -0.000400
vn -1.000000 0.000400 -0.001000
vn 1.000000 -0.000900 0.000100
vn 1.000000 -0.000900 -0.000500
vn 1.000000 -0.000500 -0.000100
vn 1.000000 -0.000200 -0.000100
vn -1.000000 -0.000300 -0.000100
vn 1.000000 -0.001800 0.000400
vn 0.000100 0.000100 1.000000
vn -0.000100 -0.000100 -1.000000
vn 0.000100 -0.000100 1.000000
vn 0.000100 -0.000200 1.000000
vn -0.000100 0.000200 -1.000000
vn -0.000100 0.000100 -1.000000
vn -0.000600 0.000200 1.000000
vn 0.000600 -0.000200 -1.000000
usemtl blinn1SG.021
s off
f 20/1/1 34/2/1 60/1/1
f 38/1/2 24/2/2 57/1/2
f 53/2/1 20/1/1 60/1/1
f 62/2/2 38/1/2 57/1/2
s 1
f 2/3/3 3/4/4 4/5/5
f 6/6/6 7/7/6 8/8/7
f 10/9/8 11/10/9 12/11/10
f 14/12/11 15/13/12 16/14/13
f 6/6/6 14/12/11 13/15/6
f 2/3/3 1/16/14 11/10/9
f 3/4/4 9/17/15 12/11/10
f 5/18/16 8/8/7 16/14/13
f 17/16/17 18/3/17 19/4/17
f 21/18/18 22/6/18 23/7/18
f 25/19/19 26/20/18 27/21/20
f 28/22/21 29/23/17 30/24/22
f 29/23/17 28/22/21 32/25/17
f 33/17/17 31/9/17 32/25/17
f 35/26/18 36/12/18 37/13/18
f 26/20/18 36/12/18 35/26/18
f 26/20/18 23/27/18 22/6/18
f 18/3/17 17/16/17 29/23/17
f 19/4/17 33/17/17 34/11/17
f 21/18/18 24/8/18 38/14/18
f 30/24/22 39/28/23 4/29/23
f 8/30/24 40/31/24 25/19/19
f 41/5/25 42/4/26 43/3/27
f 45/8/28 7/7/29 46/6/30
f 11/10/31 1/16/32 43/3/27
f 49/11/33 11/10/31 47/9/9
f 50/14/34 51/13/35 52/12/36
f 13/15/37 52/12/36 46/6/30
f 49/11/33 48/17/38 42/4/26
f 50/14/34 45/8/28 44/18/39
f 53/5/18 54/4/18 55/3/40
f 57/8/17 45/7/41 58/6/41
f 60/11/18 49/10/42 61/9/43
f 62/14/17 63/13/17 64/12/44
f 58/6/41 45/27/41 50/32/45
f 55/3/40 61/9/43 49/23/42
f 60/11/18 59/17/18 54/4/18
f 62/14/17 57/8/17 56/18/17
f 1/16/14 2/3/3 4/5/5
f 5/18/16 6/6/6 8/8/7
f 9/17/15 10/9/8 12/11/10
f 13/15/6 14/12/11 16/14/13
f 7/27/6 6/6/6 13/15/6
f 10/9/8 2/3/3 11/10/9
f 4/5/5 3/4/4 12/11/10
f 15/13/12 5/18/16 16/14/13
f 20/5/17 17/16/17 19/4/17
f 24/8/18 21/18/18 23/7/18
f 16/33/46 25/19/19 27/21/20
f 12/34/47 28/22/21 30/24/22
f 31/9/17 29/23/17 32/25/17
f 34/11/17 33/17/17 32/25/17
f 38/14/18 35/26/18 37/13/18
f 27/21/20 26/20/18 35/26/18
f 36/12/18 26/20/18 22/6/18
f 31/9/17 18/3/17 29/23/17
f 20/5/17 19/4/17 34/11/17
f 37/13/18 21/18/18 38/14/18
f 12/34/47 30/24/22 4/29/23
f 16/33/46 8/30/24 25/19/19
f 1/16/32 41/5/25 43/3/27
f 44/18/39 45/8/28 46/6/30
f 47/9/9 11/10/31 43/3/27
f 48/17/38 49/11/33 47/9/9
f 13/15/37 50/14/34 52/12/36
f 7/27/29 13/15/37 46/6/30
f 41/5/25 49/11/33 42/4/26
f 51/13/35 50/14/34 44/18/39
f 41/16/40 53/5/18 55/3/40
f 56/18/17 57/8/17 58/6/41
f 59/17/18 60/11/18 61/9/43
f 50/32/45 62/14/17 64/12/44
f 64/12/44 58/6/41 50/32/45
f 41/16/40 55/3/40 49/23/42
f 53/5/18 60/11/18 54/4/18
f 63/13/17 62/14/17 56/18/17
