# Blender v2.76 (sub 0) OBJ File: ''
# www.blender.org
mtllib Wall4.mtl
o Wall4
v -4.556401 0.000000 0.189469
v -4.556401 1.257439 -1.072887
v -4.556401 1.257439 -2.433755
v -4.558300 -0.000001 -3.723624
v -4.556401 2.448924 -2.433755
v -4.556401 2.448924 -1.072887
v -4.556401 3.199425 0.168215
v -4.556964 3.199424 -3.723624
v -2.095753 -0.000001 -3.722735
v 0.066462 1.257438 -3.722735
v 1.427331 1.257438 -3.722735
v 4.560827 -0.000001 -3.722735
v -2.082011 3.199424 -3.722735
v -2.082011 2.448923 -3.722735
v -3.324341 2.448923 -3.722735
v 0.066462 2.448923 -3.722735
v -1.220657 3.199424 -3.722735
v 1.427331 2.448923 -3.722735
v 4.560827 3.199424 -3.722735
v -3.324341 -0.000001 -3.722735
v -4.561167 0.000001 3.723624
v -4.556401 1.257439 2.434200
v -4.556401 1.257439 1.073332
v -4.556401 2.448924 1.073332
v -4.556401 2.448925 2.434200
v -4.556761 3.199521 3.723624
v 4.561167 0.000001 3.723179
v 0.779454 1.257440 3.723179
v -0.581415 1.257440 3.723179
v 0.779454 2.448925 3.723179
v 4.561167 3.199426 3.723179
v -0.581415 2.448925 3.723179
v -4.402058 1.257439 -2.433755
v -4.402058 1.257439 -1.072887
v -4.402058 0.000000 0.189469
v -4.402495 -0.000001 -3.569217
v -4.402058 3.199425 0.168213
v -4.402058 2.448924 -1.072887
v -4.402058 2.448924 -2.433755
v -4.401159 3.199425 -3.569217
v 1.427331 1.257438 -3.568395
v 0.066462 1.257438 -3.568395
v -2.095753 -0.000001 -3.568395
v 4.416298 -0.000001 -3.568395
v -3.324341 2.448924 -3.568395
v -2.082011 2.448924 -3.568395
v -2.082011 3.199425 -3.568395
v -1.220659 3.199425 -3.568395
v 0.066462 2.448924 -3.568395
v 1.427331 2.448924 -3.568395
v 4.416298 3.199425 -3.568395
v -3.324341 -0.000001 -3.568395
v -4.402058 1.257439 2.434200
v -4.405233 0.000001 3.569250
v -4.402058 1.257439 1.073332
v -4.400831 3.199521 3.569250
v -4.402058 2.448925 2.434200
v -4.402058 2.448924 1.073332
v 0.779454 1.257440 3.568839
v 4.416853 0.000001 3.568839
v -0.581415 1.257440 3.568839
v 4.416853 3.199425 3.568839
v 0.779454 2.448925 3.568839
v -0.581415 2.448925 3.568839
vt 0.000000 0.000000
vt 1.000000 0.000000
vt 0.487651 0.717945
vt 0.509672 0.653834
vt 0.561859 0.653834
vt 0.561859 0.562712
vt 0.509672 0.562712
vt 0.493157 0.500000
vt 0.589696 0.531356
vt 0.476641 0.500000
vt 0.476641 0.562712
vt 0.428999 0.562712
vt 0.509672 0.500000
vt 0.428999 0.750000
vt 0.381366 0.750000
vt 0.598975 0.717945
vt 0.509672 0.096166
vt 0.509672 0.000000
vt 0.598975 0.032055
vt 0.509672 0.187288
vt 0.561859 0.187288
vt 0.598975 0.229096
vt 0.493157 0.250000
vt 0.561859 0.096166
vt 0.428999 0.187288
vt 0.476641 0.187288
vt 0.476641 0.250000
vt 0.509672 0.250000
vt 0.476641 0.048083
vt 0.381366 0.000000
vt 0.428999 0.000000
vt 0.487651 0.229096
vt 0.397244 0.520904
vt 0.397244 0.229096
vn 1.000000 0.000000 -0.000000
vn -1.000000 0.000000 0.000100
vn -1.000000 0.000300 0.000100
vn -1.000000 0.000000 0.000000
vn -1.000000 0.000600 0.000600
vn -1.000000 -0.000200 0.000300
vn -1.000000 -0.000100 0.000000
vn -1.000000 -0.000000 0.000600
vn 0.000000 -0.000000 -1.000000
vn 0.000100 -0.000100 -1.000000
vn 0.000500 -0.000300 -1.000000
vn 0.000700 -0.000000 -1.000000
vn -1.000000 0.000800 -0.000400
vn -1.000000 0.001900 -0.001900
vn -1.000000 0.001500 -0.001400
vn -1.000000 0.000300 -0.000200
vn -1.000000 -0.000100 -0.000200
vn -1.000000 0.000400 -0.001000
vn 0.000000 0.000000 1.000000
vn 0.000100 0.000100 1.000000
vn 0.000100 -0.000000 1.000000
vn 0.000100 -0.000200 1.000000
vn 1.000000 -0.000100 -0.000000
vn 1.000000 -0.000100 -0.000100
vn 1.000000 -0.000300 0.000000
vn 1.000000 -0.000300 0.000100
vn 1.000000 -0.000700 0.000400
vn 1.000000 -0.000400 0.000300
vn 1.000000 -0.000100 0.000100
vn -0.000500 0.000200 1.000000
vn -0.000100 0.000100 1.000000
vn -0.000800 0.000000 1.000000
vn 1.000000 -0.001200 0.000700
vn 1.000000 -0.001500 0.001100
vn 1.000000 -0.000800 0.000500
vn 1.000000 -0.000200 -0.000100
vn 1.000000 -0.000900 -0.000000
vn 1.000000 -0.000500 -0.000700
vn -0.000100 -0.000000 -1.000000
vn -0.000100 -0.000100 -1.000000
vn -0.000100 0.000200 -1.000000
vn -1.000000 0.000700 0.000800
vn 0.000600 -0.000200 -1.000000
vn -0.000600 0.000200 1.000000
usemtl blinn1SG.022
s off
f 12/1/1 19/2/1 31/1/1
f 51/1/2 44/2/2 60/1/2
f 27/2/1 12/1/1 31/1/1
f 62/2/2 51/1/2 60/1/2
s 1
f 1/3/3 2/4/4 3/5/5
f 5/6/6 6/7/4 7/8/7
f 2/4/4 1/3/3 7/8/7
f 3/5/5 5/6/6 8/9/8
f 9/3/9 10/4/9 11/5/9
f 13/10/10 14/11/9 15/12/11
f 14/11/9 13/10/10 17/13/9
f 18/6/9 16/7/9 17/13/9
f 10/4/9 9/3/9 14/11/9
f 11/5/9 18/6/9 19/9/9
f 15/12/11 20/14/12 4/15/12
f 1/3/13 21/16/14 22/5/15
f 7/8/7 1/3/13 23/4/16
f 25/6/17 26/9/18 7/8/7
f 26/9/18 25/6/17 22/5/15
f 27/16/19 28/5/19 29/4/20
f 31/9/19 26/8/21 32/7/22
f 29/4/20 32/7/22 26/11/21
f 31/9/19 30/6/19 28/5/19
f 34/17/23 35/18/24 36/19/25
f 38/20/26 39/21/27 40/22/28
f 34/17/23 38/20/26 37/23/29
f 33/24/26 36/19/25 40/22/28
f 41/24/19 42/17/19 43/18/19
f 45/25/30 46/26/19 47/27/31
f 48/28/19 49/20/19 50/21/19
f 46/26/19 49/20/19 48/28/19
f 46/26/19 43/29/19 42/17/19
f 41/24/19 44/19/19 51/22/19
f 36/30/32 52/31/32 45/25/30
f 53/24/33 54/19/34 35/18/35
f 37/23/36 56/22/37 57/21/38
f 37/23/36 58/20/1 55/17/1
f 56/22/37 54/19/34 53/24/33
f 60/19/9 54/18/39 61/17/40
f 62/22/9 63/21/9 64/20/41
f 61/17/40 54/29/39 56/32/39
f 62/22/9 60/19/9 59/24/9
f 4/16/42 1/3/3 3/5/5
f 8/9/8 5/6/6 7/8/7
f 6/7/4 2/4/4 7/8/7
f 4/16/42 3/5/5 8/9/8
f 12/16/9 9/3/9 11/5/9
f 8/33/43 13/10/10 15/12/11
f 16/7/9 14/11/9 17/13/9
f 19/9/9 18/6/9 17/13/9
f 16/7/9 10/4/9 14/11/9
f 12/16/9 11/5/9 19/9/9
f 8/33/43 15/12/11 4/15/12
f 23/4/16 1/3/13 22/5/15
f 24/7/4 7/8/7 23/4/16
f 24/7/4 25/6/17 7/8/7
f 21/16/14 26/9/18 22/5/15
f 21/3/21 27/16/19 29/4/20
f 30/6/19 31/9/19 32/7/22
f 21/3/21 29/4/20 26/11/21
f 27/16/19 31/9/19 28/5/19
f 33/24/26 34/17/23 36/19/25
f 37/23/29 38/20/26 40/22/28
f 35/29/24 34/17/23 37/23/29
f 39/21/27 33/24/26 40/22/28
f 44/19/19 41/24/19 43/18/19
f 40/34/44 45/25/30 47/27/31
f 51/22/19 48/28/19 50/21/19
f 47/27/31 46/26/19 48/28/19
f 49/20/19 46/26/19 42/17/19
f 50/21/19 41/24/19 51/22/19
f 40/34/44 36/30/32 45/25/30
f 55/17/1 53/24/33 35/18/35
f 58/20/1 37/23/36 57/21/38
f 35/29/35 37/23/36 55/17/1
f 57/21/38 56/22/37 53/24/33
f 59/24/9 60/19/9 61/17/40
f 56/32/39 62/22/9 64/20/41
f 64/20/41 61/17/40 56/32/39
f 63/21/9 62/22/9 59/24/9
