# Blender v2.76 (sub 0) OBJ File: ''
# www.blender.org
mtllib windowframe2.mtl
o windowframe2
v 0.113220 0.255583 -0.096188
v 1.210003 0.255583 -0.096188
v 1.334330 0.102171 -0.096188
v 0.004744 0.102171 -0.096188
v 1.210003 2.263860 -0.096188
v 0.113221 2.263860 -0.096188
v 0.004745 2.417273 -0.096188
v 1.334331 2.417273 -0.096188
v 0.113220 0.255583 0.103291
v 0.004744 0.102171 0.103291
v 1.334330 0.102171 0.103291
v 1.210003 0.255583 0.103291
v 1.210003 2.263860 0.103291
v 1.334331 2.417273 0.103291
v 0.004745 2.417273 0.103291
v 0.113221 2.263860 0.103291
v 1.359481 0.211645 -0.140803
v 1.359481 0.078536 -0.140803
v -1.359482 0.078536 -0.140802
v -1.359482 0.211645 -0.140802
v 1.359481 0.211645 0.140802
v -1.359482 0.211645 0.140802
v 1.359481 0.078536 0.140802
v -1.359482 0.078536 0.140802
v 1.359482 2.430037 -0.140802
v 1.359482 2.296927 -0.140802
v -1.359481 2.296927 -0.140802
v -1.359481 2.430037 -0.140802
v 1.359482 2.430037 0.140802
v -1.359481 2.430037 0.140803
v 1.359482 2.296927 0.140802
v -1.359481 2.296927 0.140803
v 1.257836 1.273755 -0.075975
v -1.248918 1.273755 -0.075975
v -1.248918 1.392013 -0.075975
v 1.257836 1.392013 -0.075975
v -1.248918 1.392013 0.075975
v 1.257836 1.392013 0.075975
v -1.248918 1.273755 0.075975
v 1.257836 1.273755 0.075975
v 1.257836 1.292772 -0.091118
v -1.248918 1.292772 -0.091118
v -1.248918 1.372996 -0.091118
v 1.257836 1.372996 -0.091118
v -1.248918 1.372996 0.091118
v 1.257836 1.372996 0.091118
v -1.248918 1.292772 0.091118
v 1.257836 1.292772 0.091118
v -0.103732 0.255583 -0.096188
v -1.334330 0.102171 -0.096188
v -1.210004 0.255583 -0.096188
v -1.210003 2.263860 -0.096188
v -1.334330 2.417273 -0.096188
v -0.103732 2.263860 -0.096188
v -0.103732 0.255583 0.103291
v -1.210004 0.255583 0.103291
v -1.334330 0.102171 0.103291
v -1.210003 2.263860 0.103291
v -0.103732 2.263860 0.103291
v -1.334330 2.417273 0.103291
vt 1.000000 0.000000
vt 1.000000 1.000000
vt 0.000000 1.000000
vt 0.000000 0.000000
vt 0.375000 0.000000
vt 0.375000 0.250000
vt 0.375000 0.500000
vt 0.375000 0.750000
vt 0.375000 1.000000
vt 0.125000 0.000000
vt 0.125000 0.250000
vt 0.625000 0.000000
vt 0.625000 0.250000
vt 0.625000 0.500000
vt 0.625000 0.750000
vt 0.625000 1.000000
vn -0.000000 -0.000000 -1.000000
vn 0.000000 0.000000 1.000000
vn 0.000000 1.000000 -0.000000
vn 0.000000 -1.000000 0.000000
vn -1.000000 -0.000000 0.000000
vn 1.000000 -0.000000 0.000000
usemtl blinn1SG.028
s 1
f 2/1/1 3/2/1 4/3/1
f 5/4/1 6/1/1 7/2/1
f 2/4/1 5/1/1 8/2/1
f 6/4/1 1/1/1 4/2/1
f 10/3/2 11/2/2 12/1/2
f 13/4/2 14/3/2 15/2/2
f 11/3/2 14/2/2 13/1/2
f 16/4/2 15/3/2 10/2/2
f 12/1/3 2/1/3 1/4/3
f 16/1/4 6/1/4 5/4/4
f 14/3/3 8/3/3 7/2/3
f 13/1/5 5/1/5 2/4/5
f 14/2/6 11/3/6 3/3/6
f 9/1/6 1/1/6 6/4/6
f 18/5/1 19/5/1 20/6/1
f 17/6/3 20/6/3 22/7/3
f 21/7/2 22/7/2 24/8/2
f 23/8/4 24/8/4 19/9/4
f 23/10/6 18/5/6 17/6/6
f 26/5/1 27/5/1 28/6/1
f 25/6/3 28/6/3 30/7/3
f 29/7/2 30/7/2 32/8/2
f 31/8/4 32/8/4 27/9/4
f 26/5/6 25/6/6 29/11/6
f 34/12/1 35/13/1 36/6/1
f 35/13/3 37/14/3 38/7/3
f 37/14/2 39/15/2 40/8/2
f 39/15/4 34/16/4 33/9/4
f 42/12/1 43/13/1 44/6/1
f 43/13/3 45/14/3 46/7/3
f 45/14/2 47/15/2 48/8/2
f 47/15/4 42/16/4 41/9/4
f 4/3/1 50/2/1 51/1/1
f 52/4/1 53/3/1 7/2/1
f 51/4/1 50/3/1 53/2/1
f 7/3/1 4/2/1 49/1/1
f 56/1/2 57/2/2 10/3/2
f 58/4/2 59/1/2 15/2/2
f 56/4/2 58/1/2 60/2/2
f 55/1/2 10/2/2 15/3/2
f 49/4/3 51/1/3 56/1/3
f 52/4/4 54/1/4 59/1/4
f 7/2/3 53/3/3 60/3/3
f 51/4/6 52/1/6 58/1/6
f 60/2/5 53/2/5 50/3/5
f 54/4/5 49/1/5 55/1/5
f 24/10/5 22/11/5 20/6/5
f 30/11/5 28/6/5 27/5/5
f 1/4/1 2/1/1 4/3/1
f 8/3/1 5/4/1 7/2/1
f 3/3/1 2/4/1 8/2/1
f 7/3/1 6/4/1 4/2/1
f 9/4/2 10/3/2 12/1/2
f 16/1/2 13/4/2 15/2/2
f 12/4/2 11/3/2 13/1/2
f 9/1/2 16/4/2 10/2/2
f 9/4/3 12/1/3 1/4/3
f 13/4/4 16/1/4 5/4/4
f 15/2/3 14/3/3 7/2/3
f 12/4/5 13/1/5 2/4/5
f 8/2/6 14/2/6 3/3/6
f 16/4/6 9/1/6 6/4/6
f 17/6/1 18/5/1 20/6/1
f 21/7/3 17/6/3 22/7/3
f 23/8/2 21/7/2 24/8/2
f 18/9/4 23/8/4 19/9/4
f 21/11/6 23/10/6 17/6/6
f 25/6/1 26/5/1 28/6/1
f 29/7/3 25/6/3 30/7/3
f 31/8/2 29/7/2 32/8/2
f 26/9/4 31/8/4 27/9/4
f 31/10/6 26/5/6 29/11/6
f 33/5/1 34/12/1 36/6/1
f 36/6/3 35/13/3 38/7/3
f 38/7/2 37/14/2 40/8/2
f 40/8/4 39/15/4 33/9/4
f 41/5/1 42/12/1 44/6/1
f 44/6/3 43/13/3 46/7/3
f 46/7/2 45/14/2 48/8/2
f 48/8/4 47/15/4 41/9/4
f 49/4/1 4/3/1 51/1/1
f 54/1/1 52/4/1 7/2/1
f 52/1/1 51/4/1 53/2/1
f 54/4/1 7/3/1 49/1/1
f 55/4/2 56/1/2 10/3/2
f 60/3/2 58/4/2 15/2/2
f 57/3/2 56/4/2 60/2/2
f 59/4/2 55/1/2 15/3/2
f 55/4/3 49/4/3 56/1/3
f 58/4/4 52/4/4 59/1/4
f 15/2/3 7/2/3 60/3/3
f 56/4/6 51/4/6 58/1/6
f 57/3/5 60/2/5 50/3/5
f 59/4/5 54/4/5 55/1/5
f 19/5/5 24/10/5 20/6/5
f 32/10/5 30/11/5 27/5/5
