# Blender v2.76 (sub 0) OBJ File: ''
# www.blender.org
mtllib Cloud2.mtl
o Icosphere.001_Icosphere.015
v 2.440630 -0.592515 0.701596
v 2.384778 -0.541690 0.781493
v 2.484919 -0.480998 0.826994
v 0.565391 -0.659857 0.971937
v 1.069546 -1.382262 0.012566
v 1.805807 -0.769927 -0.266251
v 2.128961 -0.712251 0.356071
v 2.155552 -1.021258 -0.437038
v 3.628381 -0.296562 0.314937
v 2.778008 0.542962 0.998777
v 2.299331 -0.308729 0.891075
v -0.587015 -0.754579 -0.156463
v 0.684223 -0.506229 -0.965249
v 1.215649 -0.374854 -0.928518
v 1.426372 -0.705338 -0.520592
v 3.226156 -0.210755 -1.218160
v 2.311704 -0.127044 0.907881
v 1.425672 0.769441 1.177478
v 0.188880 -0.210752 0.737816
v -0.167191 -0.530456 0.307761
v -0.261126 -0.587307 0.202013
v -0.558470 -0.443471 -0.041974
v 3.684124 0.735780 -0.244723
v 1.677483 -0.241963 -1.514350
v -0.486281 -0.370010 -0.281282
v -0.054664 -0.194272 -0.571100
v -0.035649 -0.184795 -0.584157
v -0.027906 -0.144882 -0.595474
v 0.000155 0.350772 -0.694910
v -0.063946 0.577996 -0.694030
v -0.542790 -0.481477 -0.133959
v -0.530167 -0.457848 -0.167812
v 0.502405 0.671976 0.764186
v 0.428978 0.151671 0.800076
v 0.351693 -0.122289 0.801137
v 0.206705 -0.208776 0.745783
v 1.213709 -0.374003 -0.928972
v 2.153432 0.911132 -1.451786
v 1.951492 1.572944 -0.500764
v 2.022362 0.580208 0.742111
v -0.087441 0.744481 -0.682546
v 0.937210 0.581713 -1.024374
v 0.963651 0.535139 -1.038715
v 0.965988 1.745450 0.020460
v 0.419196 1.296381 0.139045
v 0.665614 1.079083 0.475257
v 0.728985 0.896710 0.679163
v 0.710230 0.878873 0.685490
v 0.656516 0.820923 0.709985
v 0.948261 0.838664 -1.137960
v 2.014970 1.299578 -0.088607
v 2.157022 0.885248 0.436805
v 1.705417 1.340161 -0.256042
v -0.087474 0.768700 -0.679313
v 0.965977 0.849957 -0.997664
v 0.014995 0.935455 -0.529673
v 0.424287 1.296381 0.028766
v 1.110471 0.977543 -1.037366
v 1.121753 0.976679 -1.041955
v 1.141507 0.983380 -1.040385
v 1.158459 1.000521 -1.025179
v 1.158254 1.015832 -1.007153
v -0.088797 0.778842 -0.678563
v 1.128783 0.995907 -1.042311
v -0.018743 0.838365 -0.638227
v -1.085596 -0.168820 -0.406743
v -1.043023 -0.130079 -0.467644
v -0.601708 -0.304051 0.330989
v -0.848029 -0.260088 -0.143370
v -0.868298 -0.495626 0.461170
v -1.990948 0.056767 -0.112016
v -0.312487 -0.254818 0.524858
v -1.342758 0.696687 -0.633267
v -0.977892 0.047493 -0.551172
v -1.119354 -0.083818 -0.502327
v 0.253209 -0.103049 0.863794
v -0.151865 -0.002910 0.835796
v -1.684355 0.122173 1.056573
v -0.150387 -0.002261 0.836142
v -0.503894 0.098385 1.282341
v -2.033437 0.843660 0.314580
v -0.987323 0.185981 -0.563982
v -0.311953 0.869318 -0.769480
v 0.040218 0.690724 0.919793
v -0.866682 0.977321 1.234652
v -0.712754 1.481781 0.509744
v -0.766774 0.725077 -0.437626
v 0.060372 0.726225 0.908862
v 0.051948 0.922083 0.995441
v -0.525186 1.304344 0.323207
v -0.761140 1.273410 0.195582
v -0.869418 0.957591 -0.204909
v 0.038436 1.613272 0.112446
v 0.038444 0.930691 0.888502
v -0.071694 1.027942 0.918764
v -0.080294 1.027284 0.922263
v -0.095352 1.032391 0.921066
v -0.108273 1.045457 0.909475
v -0.108117 1.057127 0.895734
v -0.085653 1.041940 0.922534
vt 0.307611 0.109253
vt 1.217304 0.014031
vt 0.965227 0.493717
vt 0.597097 0.633125
vt 0.435519 0.321965
vt 0.422224 0.718519
vt -0.314191 0.342532
vt 0.110996 0.771481
vt 0.350335 0.345636
vt 0.257540 0.259501
vt 1.793507 0.578232
vt 1.157889 0.246886
vt 0.892175 0.312573
vt 0.786814 0.147331
vt 0.685809 0.342532
vt 1.422224 0.718519
vt 0.886922 1.109080
vt 0.344148 0.436478
vt 0.787164 0.884721
vt 1.217304 0.170072
vt 1.157889 0.982625
vt 0.793507 0.122710
vt 0.217304 0.170072
vt 0.630563 0.206347
vt 0.786814 0.760296
vt 0.351719 0.342532
vt 0.394623 1.109080
vt 0.867890 0.622361
vt 0.661259 1.257175
vt -0.113078 1.109080
vt 0.771481 0.000612
vt 0.157889 0.246886
vt 0.517825 0.407602
vt 0.513953 0.427559
vt 0.122710 0.578232
vt 0.259261 0.566980
vt 0.271076 0.583906
vt 0.285511 0.575836
vt 0.324153 0.438855
vt 0.892175 0.964259
vt 0.886922 0.394623
vt 1.423284 0.955566
vt 0.657938 0.867890
vt 1.661258 0.379018
vt 0.110996 0.000612
vt -0.342062 0.622361
vt 0.524254 0.750382
vt 0.488819 0.790104
vt 0.018174 0.767570
vt 0.531973 0.788998
vt -0.212836 0.884721
vt 0.167193 1.039541
vt 0.135507 0.948355
vt -0.106854 0.312999
vt 0.657938 0.622361
vt 1.423284 1.225893
vt 1.524254 0.750382
vt 0.661259 0.379018
vt 1.025869 0.919332
vt 0.423284 0.955566
vt 0.492515 0.544303
vt 0.017011 0.924978
vt 0.031395 0.790856
vt 0.543720 0.872241
vt 0.017006 0.489770
vt -0.212836 -0.088739
vt -0.578511 0.281597
vt 0.492503 0.764836
vt 0.287857 0.485617
vt 1.025869 1.068980
vt 0.939124 1.020977
vt 0.929246 1.020193
vt 0.379018 0.257175
vt 0.767570 0.019357
vt 0.919332 0.068980
vt -0.064391 0.997954
vt -0.055236 0.988771
vt 0.544398 0.889421
vt 0.924978 0.998832
vt 0.919332 1.068980
vt 0.790856 1.012187
vt 0.920873 1.003577
vt 0.935609 1.021155
vt 1.017006 0.489770
vt 0.935609 0.021155
vt 1.509372 -0.180887
vt 1.492502 -0.235164
vt 0.647291 0.628021
vt 0.025869 0.068980
vt 0.017011 -0.001168
vt -0.055236 0.018683
vt 0.929246 0.991690
vt 0.935609 0.997954
vt 0.920771 1.000260
vt 0.939124 0.988340
vt 1.042798 0.703372
vt 1.021512 0.733822
vt 0.765083 0.583906
vt 0.924015 0.571685
vt 0.771395 0.566980
vt 0.779235 0.520987
vt -0.075985 0.571685
vt -0.065851 0.269415
vt 0.495474 0.556008
vt 0.527332 0.785550
vt 0.743141 0.640641
vt 0.583596 0.346119
vt 0.656244 0.237571
vt 0.800854 0.334505
vt 0.171379 0.848343
vt -0.011054 0.523746
vt 0.059677 0.458091
vt 1.059677 0.751163
vt 0.517825 0.792078
vt 0.934149 0.269415
vt 0.575933 0.498545
vt 0.656244 0.372591
vt 0.405560 0.394624
vt 0.342178 -0.028287
vt 1.059677 0.458091
vt 0.988946 0.523746
vt 0.324153 0.099432
vt 0.373396 0.068103
vt 0.396648 0.127109
vt 0.575933 0.082102
vt 0.751947 -0.141171
vt 0.528383 0.556008
vt 0.561086 -0.028287
vt 0.921830 0.342710
vt 1.342178 -0.028287
vt 0.848343 0.816633
vt 0.993662 0.592991
vt 0.655977 0.934659
vt 0.499923 0.675386
vt 0.373396 0.448476
vt 0.479891 0.845362
vt 0.575194 0.498870
vt 0.342178 0.561086
vt -0.066659 0.988661
vt 0.516719 0.921830
vt -0.248053 0.549192
vt 0.171379 0.816633
vt 0.516719 0.342710
vt -0.143623 0.245128
vt -0.116613 0.862538
vt -0.006338 0.592991
vt 0.248798 0.835988
vt -0.066659 -0.117326
vt 0.751947 0.549192
vt 0.474026 0.961042
vt 0.933341 0.988661
vt -0.119430 0.402209
vt -0.065291 0.602454
vt 0.883387 0.862538
vt 0.480782 1.306636
vt 0.287857 1.148190
vt 0.492503 0.967728
vt 0.480778 0.965346
vt 0.469814 0.863113
vt 0.171742 0.910461
vt 0.549192 -0.141171
vt 0.498870 0.081929
vt 0.845362 0.040103
vt 0.474026 0.002279
vt 0.540147 0.038868
vt 0.547676 0.039467
vt 0.934709 0.602454
vt 0.880570 0.402209
vt 0.480782 0.443777
vt 0.167193 0.262371
vt 0.290402 0.430477
vt 0.542826 1.020970
vt 0.535847 1.013971
vt 0.965346 0.055749
vt 0.961042 0.002279
vt 0.863113 0.045569
vt 0.762593 0.338396
vt 0.856377 0.245128
vt 0.554058 0.052133
vt 0.542826 0.038733
vt 0.480778 0.055749
vt 0.535847 0.040618
vt 0.547676 0.016196
vt 0.542826 0.020970
vt 0.554137 0.022728
vt 0.540147 0.013642
vt 0.279685 0.149202
vt 0.257540 0.086503
vt 0.307611 0.229155
vt -0.314191 0.351719
vt 0.597097 0.115036
vt 0.965227 -0.191131
vt 0.583596 0.234772
vt 0.779235 0.278264
vt 0.527332 0.402864
vt 0.743141 0.314995
vt 0.278264 0.520987
vt 0.314995 0.640641
vt 0.396648 0.395612
vt 0.893146 0.964486
vt 0.017006 1.372725
vt 0.144885 0.939436
vt 0.290402 1.148190
vt -0.107825 0.312573
vt 0.421489 0.281597
vt 0.488819 0.128944
vt 0.421489 0.942624
vt 0.543737 0.884350
vt -0.507485 0.544303
vt 0.423284 1.225893
vt 0.944764 1.018683
vt 0.920771 1.012589
vt 0.790856 0.012187
vt 0.312999 -0.035514
vt -0.060876 0.988340
vt 1.544399 -0.160719
vt 1.017006 -0.510230
vt 0.630563 0.398993
vt 0.021512 0.733822
vt 0.042798 0.703372
vt 0.021512 0.434960
vt 0.495474 0.528383
vt 0.575194 0.081929
vt 0.509372 0.919183
vt -0.237407 0.338396
vt -0.116613 0.718813
vt 0.934709 0.978796
vt 0.933341 -0.117326
vt 0.554137 0.045262
vt 0.655977 0.884740
vt 0.540147 1.013642
vt 0.135507 0.160419
vn 0.127600 -0.744000 0.655900
vn 0.116200 -0.761500 0.637600
vn 0.117700 -0.764200 0.634200
vn 0.572200 -0.787600 -0.228600
vn 0.571700 -0.789300 -0.223700
vn 0.573400 -0.782900 -0.241300
vn 0.264100 -0.926100 0.269200
vn 0.258500 -0.897100 0.358200
vn 0.276100 -0.913600 0.298400
vn 0.380200 -0.257800 0.888200
vn 0.145000 -0.203900 0.968200
vn 0.340200 -0.591000 0.731500
vn -0.357600 -0.826600 0.434600
vn 0.229100 -0.686700 -0.689900
vn 0.219900 -0.699300 -0.680100
vn 0.267300 -0.683700 -0.679000
vn 0.506800 -0.843000 -0.180100
vn 0.080400 -0.144800 0.986200
vn 0.096300 -0.198200 0.975400
vn 0.093300 -0.194500 0.976500
vn -0.230100 -0.768100 -0.597500
vn -0.677300 -0.198500 0.708400
vn -0.423800 -0.832400 0.357100
vn -0.403200 -0.827100 0.391500
vn -0.433800 -0.834500 0.339700
vn 0.946700 -0.191600 -0.259100
vn 0.134000 -0.773700 -0.619200
vn 0.754400 0.280900 0.593300
vn -0.511700 -0.141100 -0.847500
vn -0.956300 0.174200 -0.235000
vn -0.416200 0.120900 0.901200
vn -0.322800 -0.835800 -0.444100
vn -0.330400 -0.820700 -0.466100
vn -0.322300 -0.824200 -0.465700
vn 0.590800 0.421600 -0.687900
vn 0.188300 -0.024400 -0.981800
vn 0.353400 0.850600 0.389400
vn -0.295900 0.076700 0.952100
vn -0.316200 0.092000 0.944200
vn -0.140600 -0.036400 0.989400
vn -0.315300 0.058300 -0.947200
vn -0.317300 0.018200 -0.948200
vn -0.314700 0.021800 -0.949000
vn -0.371300 0.631800 0.680400
vn 0.091600 -0.094800 -0.991300
vn 0.091500 -0.094500 -0.991300
vn 0.111800 -0.179700 -0.977300
vn 0.441800 0.777600 -0.447300
vn -0.257700 0.158100 -0.953200
vn -0.027100 0.826900 0.561600
vn -0.153000 0.754000 0.638800
vn -0.130700 0.816800 0.561900
vn 0.619100 0.406800 0.671700
vn 0.618900 0.410200 0.669900
vn 0.619200 0.405800 0.672200
vn -0.295900 0.126000 -0.946900
vn 0.383400 0.774400 0.503200
vn 0.384700 0.775200 0.501100
vn 0.383400 0.774500 0.503200
vn -0.638200 0.769300 -0.029500
vn -0.212700 0.725300 -0.654800
vn -0.193400 0.712400 -0.674600
vn -0.206300 0.733400 -0.647800
vn -0.720400 -0.271100 -0.638400
vn -0.722100 -0.253300 -0.643800
vn -0.717100 -0.249200 -0.650900
vn -0.324700 0.069800 -0.943200
vn -0.308100 0.051300 -0.950000
vn -0.291400 0.032700 -0.956000
vn -0.988600 0.094300 0.117200
vn 0.164900 0.806600 -0.567600
vn 0.163000 0.793500 -0.586300
vn 0.260600 0.824100 -0.503000
vn -0.307700 0.754700 -0.579400
vn -0.307600 0.754700 -0.579400
vn -0.619300 0.776500 0.115900
vn -0.658200 0.752500 0.022500
vn 0.437400 0.314700 -0.842400
vn 0.097300 -0.054000 -0.993800
vn -0.148700 -0.784000 -0.602700
vn -0.574800 -0.782200 0.240500
vn -0.575900 -0.784100 0.231300
vn -0.574600 -0.786300 0.227100
vn -0.264100 -0.926100 -0.269200
vn -0.258500 -0.897100 -0.358200
vn -0.276100 -0.913600 -0.298400
vn -0.116100 -0.763200 -0.635700
vn -0.321800 -0.684700 0.653900
vn -0.380200 -0.257800 -0.888200
vn -0.145000 -0.203900 -0.968200
vn -0.340200 -0.591000 -0.731500
vn -0.118600 -0.713500 -0.690600
vn 0.423800 -0.832400 -0.357100
vn 0.403200 -0.827100 -0.391500
vn 0.433800 -0.834500 -0.339700
vn -0.225700 -0.692900 0.684800
vn -0.234100 -0.682500 0.692400
vn -0.227700 -0.683500 0.693500
vn -0.506800 -0.843000 0.180100
vn -0.096300 -0.254200 -0.962300
vn 0.230100 -0.768100 0.597500
vn 0.322900 -0.835800 0.444100
vn 0.330400 -0.820700 0.466100
vn 0.322300 -0.824200 0.465700
vn -0.946700 -0.191600 0.259100
vn -0.134000 -0.773700 0.619200
vn -0.754400 0.280900 -0.593300
vn -0.109700 -0.126100 -0.985900
vn -0.096300 -0.198200 -0.975400
vn -0.091700 -0.189800 -0.977500
vn 0.511700 -0.141100 0.847500
vn -0.091600 -0.094800 0.991300
vn -0.091500 -0.094500 0.991300
vn -0.111800 -0.179700 0.977400
vn -0.590800 0.421600 0.687900
vn -0.188300 -0.024400 0.981800
vn -0.353400 0.850600 -0.389400
vn 0.295900 0.076700 -0.952100
vn 0.316200 0.092000 -0.944200
vn 0.140600 -0.036400 -0.989400
vn 0.416200 0.120900 -0.901200
vn 0.320300 0.059400 0.945500
vn 0.318000 0.018800 0.947900
vn 0.316000 0.022600 0.948500
vn -0.441800 0.777600 0.447300
vn 0.257700 0.158100 0.953200
vn 0.153000 0.754000 -0.638800
vn 0.027100 0.826900 -0.561600
vn 0.168900 0.747800 -0.642100
vn -0.619100 0.406800 -0.671700
vn -0.618900 0.410200 -0.669900
vn -0.619200 0.405800 -0.672200
vn 0.371300 0.631800 -0.680400
vn 0.295900 0.126000 0.946900
vn 0.720400 -0.271100 0.638400
vn 0.722400 -0.275300 0.634400
vn 0.722100 -0.253300 0.643800
vn 0.212700 0.725300 0.654800
vn 0.193400 0.712400 0.674600
vn 0.206300 0.733400 0.647800
vn -0.383400 0.774500 -0.503200
vn -0.381300 0.773200 -0.506700
vn -0.383400 0.774400 -0.503200
vn 0.638200 0.769300 0.029500
vn 0.324800 0.069800 0.943200
vn 0.308100 0.051300 0.950000
vn 0.291400 0.032700 0.956000
vn 0.988600 0.094300 -0.117200
vn 0.619300 0.776500 -0.115900
vn 0.307700 0.754700 0.579400
vn 0.658200 0.752500 -0.022600
vn -0.260600 0.824100 0.503000
vn -0.294700 0.843700 0.448600
vn -0.164900 0.806600 0.567600
vn -0.437400 0.314800 0.842400
vn -0.097300 -0.054000 0.993800
vn 0.148700 -0.784000 0.602700
vn 0.118600 -0.713500 0.690600
vn 0.573900 -0.780800 -0.247100
vn 0.377400 -0.639000 0.670300
vn 0.345000 -0.841500 0.415700
vn 0.324200 -0.848500 0.418300
vn 0.429700 -0.319600 0.844500
vn 0.321800 -0.684700 -0.653900
vn 0.271900 -0.679800 -0.681100
vn 0.096400 -0.254200 0.962300
vn 0.082700 -0.182800 0.979700
vn -0.449700 -0.837200 0.311100
vn -0.306600 -0.830600 -0.464800
vn -0.281200 -0.864000 -0.417700
vn -0.068300 -0.087300 0.993800
vn -0.313300 0.021300 -0.949400
vn -0.311900 0.107400 -0.944000
vn 0.124000 -0.232000 -0.964800
vn -0.168900 0.747800 0.642100
vn -0.185400 0.734800 0.652400
vn -0.199200 0.802200 0.562800
vn 0.619500 0.401600 0.674500
vn 0.381300 0.773200 0.506700
vn -0.192700 0.767000 -0.612000
vn -0.179400 0.789200 -0.587300
vn -0.185400 0.779000 -0.599000
vn -0.211900 0.723400 -0.657100
vn -0.203000 0.749100 -0.630500
vn -0.753000 -0.238700 -0.613200
vn -0.722400 -0.275300 -0.634400
vn -0.291400 0.032500 -0.956000
vn -0.366500 0.116900 -0.923000
vn 0.325000 0.860500 -0.392300
vn 0.294700 0.843700 -0.448600
vn 0.246200 0.740100 -0.625800
vn -0.569700 -0.789300 0.229000
vn -0.572600 -0.787500 0.228000
vn -0.573900 -0.780800 0.247100
vn -0.377400 -0.639000 -0.670300
vn -0.345000 -0.841500 -0.415700
vn -0.324200 -0.848500 -0.418300
vn -0.429700 -0.319600 -0.844500
vn 0.449700 -0.837200 -0.311100
vn -0.237300 -0.675200 0.698400
vn -0.218500 -0.683800 0.696200
vn 0.306600 -0.830600 0.464800
vn 0.281500 -0.863800 0.417800
vn -0.084400 -0.191400 -0.977900
vn -0.106300 -0.124800 -0.986500
vn -0.124000 -0.231900 0.964800
vn 0.068300 -0.087300 -0.993800
vn 0.415800 0.120900 -0.901400
vn 0.313300 0.021300 0.949400
vn 0.320400 0.097400 0.942300
vn 0.317300 0.018200 0.948200
vn 0.130700 0.816800 -0.561900
vn 0.199200 0.802200 -0.562800
vn 0.185400 0.734800 -0.652400
vn -0.619500 0.401600 -0.674500
vn 0.753000 -0.238700 0.613200
vn 0.717100 -0.249200 0.650900
vn 0.192700 0.767000 0.612000
vn 0.179400 0.789200 0.587300
vn 0.185400 0.779000 0.599000
vn 0.212000 0.723500 0.657000
vn 0.203000 0.749200 0.630500
vn -0.384700 0.775200 -0.501100
vn 0.291400 0.032600 0.956000
vn 0.366600 0.117000 0.923000
vn -0.246200 0.740100 0.625800
vn -0.163000 0.793500 0.586300
vn -0.325000 0.860500 0.392300
usemtl Material.055
s 1
f 2/1/1 4/2/2 5/3/3
f 5/3/4 6/4/5 7/5/6
f 7/5/7 8/6/8 9/7/9
f 10/8/10 11/9/11 3/10/12
f 5/3/13 4/2/13 12/11/13
f 13/12/14 14/13/15 15/14/16
f 9/15/17 8/16/17 16/17/17
f 17/18/18 18/19/19 4/20/20
f 5/3/21 12/11/21 13/21/21
f 12/22/22 4/23/22 21/24/22
f 6/4/23 15/25/24 8/6/25
f 9/26/26 16/27/26 23/28/26
f 8/6/27 24/29/27 16/30/27
f 9/26/28 23/28/28 10/31/28
f 13/32/29 27/33/29 28/34/29
f 12/35/30 31/36/30 32/37/30
f 4/23/31 34/38/31 35/39/31
f 14/40/32 24/29/33 15/25/34
f 16/41/35 38/42/35 23/43/35
f 16/41/36 24/44/36 38/42/36
f 10/45/37 23/46/37 39/47/37
f 10/8/38 40/48/39 17/18/40
f 43/49/41 13/32/42 30/50/43
f 18/51/44 46/52/44 47/53/44
f 13/32/45 43/49/46 37/54/47
f 23/55/48 38/56/48 39/57/48
f 24/58/49 50/59/49 38/60/49
f 51/61/50 10/45/51 39/47/52
f 18/19/53 17/18/54 40/48/55
f 55/62/56 42/63/56 41/64/56
f 44/65/57 18/66/58 52/67/59
f 44/65/60 56/68/60 57/69/60
f 50/70/61 59/71/62 60/72/63
f 24/73/64 43/74/65 50/75/66
f 64/76/67 58/77/68 63/78/69
f 55/79/70 50/80/70 42/81/70
f 62/82/71 64/83/72 44/84/73
f 64/85/74 65/86/74 56/87/75
f 53/88/76 39/47/76 62/82/76
f 50/89/77 55/90/77 58/91/77
f 60/92/78 64/93/78 61/94/78
f 59/95/79 64/93/79 60/92/79
f 66/96/80 67/97/80 32/98/80
f 69/99/81 31/100/82 22/101/83
f 69/102/84 70/103/85 71/104/86
f 67/97/87 26/105/87 25/106/87
f 20/107/88 72/108/88 68/109/88
f 73/110/89 74/111/90 75/112/91
f 67/97/92 75/113/92 27/114/92
f 68/109/93 72/108/94 70/115/95
f 77/116/96 72/117/97 19/118/98
f 71/104/99 70/103/99 78/119/99
f 27/33/100 75/120/100 74/121/100
f 35/122/101 76/123/101 36/124/101
f 77/125/102 80/126/103 72/108/104
f 71/127/105 78/128/105 81/129/105
f 70/115/106 80/126/106 78/130/106
f 71/127/107 81/129/107 73/131/107
f 82/132/108 83/133/109 29/134/110
f 34/38/111 76/135/111 35/39/111
f 76/135/112 84/136/113 79/137/114
f 78/138/115 85/139/115 81/140/115
f 78/138/116 80/141/116 85/139/116
f 73/142/117 81/143/117 86/144/117
f 73/110/118 87/145/119 82/146/120
f 83/133/121 63/78/121 41/64/121
f 84/136/122 34/38/123 33/147/124
f 81/143/125 85/148/125 86/144/125
f 80/149/126 89/150/126 85/151/126
f 73/142/127 91/152/128 92/153/129
f 83/133/130 82/132/131 87/154/132
f 93/155/133 57/156/133 56/157/133
f 94/158/134 88/159/134 49/160/134
f 80/161/135 79/162/136 84/163/137
f 89/164/138 96/165/139 97/166/140
f 92/167/141 91/168/142 93/169/143
f 93/169/144 46/170/144 45/171/144
f 100/172/145 95/173/146 47/53/147
f 94/174/148 89/175/148 88/176/148
f 90/177/149 86/178/149 99/179/149
f 46/170/150 93/169/150 100/180/150
f 89/164/151 94/181/151 95/182/151
f 93/169/152 90/177/153 99/179/154
f 97/183/155 100/184/155 98/185/155
f 96/186/156 100/184/156 97/183/156
f 5/3/3 1/187/157 2/1/1
f 2/1/1 3/188/158 4/2/2
f 1/187/159 5/3/4 7/5/6
f 9/7/9 2/1/160 1/187/161
f 1/187/161 7/5/7 9/7/9
f 3/10/12 2/189/162 9/190/163
f 9/190/163 10/8/10 3/10/12
f 15/14/16 6/191/164 5/192/165
f 5/192/165 13/12/14 15/14/16
f 4/20/20 3/10/166 11/9/167
f 11/9/167 17/18/18 4/20/20
f 4/23/22 19/118/22 20/193/22
f 21/24/22 22/194/22 12/22/22
f 4/23/22 20/193/22 21/24/22
f 7/5/168 6/4/23 8/6/25
f 13/32/29 12/22/29 26/195/29
f 29/134/29 30/50/29 13/32/29
f 12/22/29 25/196/29 26/195/29
f 28/34/29 29/134/29 13/32/29
f 13/32/29 26/195/29 27/33/29
f 12/35/30 22/197/30 31/36/30
f 32/37/30 25/198/30 12/35/30
f 4/23/31 18/51/31 34/38/31
f 36/199/31 19/118/31 4/23/31
f 18/51/31 33/147/31 34/38/31
f 35/39/31 36/199/31 4/23/31
f 8/6/169 15/25/34 24/29/33
f 14/40/32 37/200/170 24/29/33
f 11/9/171 10/8/38 17/18/40
f 30/50/43 41/64/172 42/63/173
f 42/63/173 43/49/41 30/50/43
f 49/160/44 33/147/44 18/51/44
f 18/51/44 44/201/44 46/52/44
f 47/53/44 48/202/44 18/51/44
f 44/201/44 45/203/44 46/52/44
f 48/202/44 49/160/44 18/51/44
f 14/204/174 13/32/45 37/54/47
f 52/205/175 40/206/176 10/45/51
f 39/47/52 53/88/177 51/61/50
f 51/61/50 52/205/175 10/45/51
f 52/207/178 18/19/53 40/48/55
f 54/208/56 55/62/56 41/64/56
f 51/209/179 44/65/57 52/67/59
f 45/171/60 44/65/60 57/69/60
f 62/82/180 39/47/181 38/210/182
f 50/70/61 58/211/183 59/71/62
f 61/212/184 62/82/180 38/210/182
f 38/210/182 50/70/61 60/72/63
f 60/72/63 61/212/184 38/210/182
f 42/213/185 50/75/66 43/74/65
f 24/73/64 37/214/186 43/74/65
f 54/208/69 63/78/69 55/62/187
f 64/76/67 59/215/188 58/77/68
f 58/77/68 55/62/187 63/78/69
f 44/84/73 51/61/189 53/88/190
f 62/82/71 61/212/191 64/83/72
f 44/84/73 53/88/190 62/82/71
f 64/85/74 63/216/74 65/86/74
f 56/87/75 44/217/74 64/85/74
f 31/100/80 66/96/80 32/98/80
f 22/101/83 21/218/192 68/109/193
f 69/99/81 66/96/194 31/100/82
f 22/101/83 68/109/193 69/99/81
f 71/104/86 67/219/195 66/220/196
f 66/220/196 69/102/84 71/104/86
f 32/98/87 67/97/87 25/106/87
f 21/218/88 20/107/88 68/109/88
f 75/112/91 67/221/197 71/222/198
f 71/222/198 73/110/89 75/112/91
f 26/105/92 67/97/92 27/114/92
f 69/99/199 68/109/93 70/115/95
f 19/118/98 36/199/200 76/135/201
f 76/135/201 77/116/96 19/118/98
f 72/117/97 20/193/200 19/118/98
f 28/34/100 27/33/100 74/121/100
f 70/115/202 72/108/104 80/126/103
f 77/125/102 79/223/203 80/126/103
f 29/134/110 28/34/204 74/121/205
f 74/121/205 82/132/108 29/134/110
f 77/116/206 76/135/112 79/137/114
f 74/111/207 73/110/118 82/146/120
f 30/50/121 29/134/121 83/133/121
f 83/133/121 65/224/121 63/78/121
f 63/78/121 54/208/208 41/64/121
f 41/64/121 30/50/121 83/133/121
f 33/147/124 49/160/209 88/159/210
f 88/159/210 84/136/122 33/147/124
f 76/135/211 34/38/123 84/136/122
f 86/144/212 90/225/213 91/152/128
f 92/153/129 87/226/214 73/142/127
f 73/142/127 86/144/212 91/152/128
f 92/227/215 83/133/130 87/154/132
f 56/157/133 65/224/133 83/133/133
f 83/133/133 93/155/133 56/157/133
f 48/202/134 94/158/134 49/160/134
f 84/163/137 88/176/216 89/175/217
f 89/175/217 80/161/135 84/163/137
f 99/179/218 86/178/219 85/228/220
f 89/164/138 95/182/221 96/165/139
f 98/229/222 99/179/218 85/228/220
f 85/228/220 89/164/138 97/166/140
f 97/166/140 98/229/222 85/228/220
f 83/230/223 92/167/141 93/169/143
f 57/69/144 93/169/144 45/171/144
f 48/202/147 47/53/147 94/158/224
f 100/172/145 96/231/225 95/173/146
f 95/173/146 94/158/224 47/53/147
f 47/232/150 46/170/150 100/180/150
f 99/179/154 98/229/226 100/180/227
f 93/169/152 91/168/228 90/177/153
f 99/179/154 100/180/227 93/169/152
