# Blender v2.76 (sub 0) OBJ File: ''
# www.blender.org
mtllib Cloud1.mtl
o Icosphere.003_Icosphere.022
v -0.695687 -1.111769 0.633005
v -2.071235 -0.216252 0.470409
v -1.159957 -0.339868 -0.587390
v 0.285878 -0.398584 -0.465413
v -1.032572 -0.182355 1.531105
v -1.864143 1.000158 -0.080786
v 0.740171 -0.211010 0.891985
v 0.690912 -0.221285 0.613040
v -0.310046 1.304031 -0.631541
v -1.399686 1.336934 1.253225
v 0.652445 -0.174360 0.953228
v 0.797395 1.080985 0.222284
v 0.798100 0.699017 0.429438
v 0.691142 0.553450 0.197680
v 0.688811 0.545020 0.195451
v 0.618151 -0.133022 0.354807
v 0.645232 -0.218522 0.479191
v -0.056300 1.440634 1.290367
v 0.635487 -0.167830 0.959427
v 0.527586 0.090210 1.011462
v 0.549257 0.298649 1.016140
v -0.594657 2.053055 0.308852
v 0.517192 0.432037 0.990915
v 0.567052 0.594110 0.828745
v 0.795317 0.700735 0.432622
v 1.386206 -0.456092 0.693030
v 0.687296 -0.170066 1.120363
v 1.192880 -0.030790 0.085907
v 1.605717 -0.088165 1.234308
v 1.991572 0.035938 0.521780
v 1.076265 0.509902 1.331159
v 1.546481 0.658469 0.278643
v 1.721595 0.676634 0.947277
v 0.945910 0.898551 0.746985
v 2.720052 -0.232482 0.284853
v 2.795301 -0.173144 0.404806
v 2.672540 -0.169206 0.443964
v 2.612286 -0.155477 0.313663
v 2.815622 -0.169837 0.241708
v 2.752134 -0.067223 0.460156
v 2.689552 -0.153155 0.171945
v 2.631389 -0.046217 0.396666
v 2.832218 -0.057724 0.327870
v 2.645993 -0.037997 0.242853
v 2.764330 -0.036457 0.211846
v 2.728552 0.012058 0.346017
vt 0.847844 0.183497
vt 1.535617 0.264795
vt 1.079978 0.793695
vt 0.357061 0.732706
vt 0.535617 0.264795
vt -0.152156 0.183497
vt 0.016286 -0.265553
vt 0.330066 0.793695
vt 0.391874 0.264795
vt 1.000079 0.540393
vt 0.154544 0.193480
vt 0.357061 0.300708
vt 1.079978 0.330066
vt 0.655023 1.152015
vt 0.408823 -0.265553
vt 1.168467 -0.126612
vt 0.173777 0.412820
vt 1.016286 0.408823
vt 0.847844 -0.055884
vt 0.079978 0.330066
vt 0.432071 1.000079
vt -0.344977 1.152015
vt 1.040493 0.388858
vt 0.776725 0.401160
vt 0.772510 0.402274
vt 0.101303 1.040493
vt 0.016286 0.408823
vt -0.471850 1.220317
vt 0.199843 1.168467
vt -0.763793 0.545105
vt -0.774629 0.649325
vt 0.655023 0.815771
vt 1.432071 0.540393
vt 0.797328 0.345574
vt 0.432071 0.540393
vt 0.199843 -0.126612
vt -0.202672 0.345574
vt 1.220317 -0.145184
vt 0.797055 0.085627
vt 0.101303 0.388858
vt 0.199843 0.873388
vt -0.471850 0.854816
vt -0.202672 1.345574
vt 0.528150 0.854816
vt 0.101303 1.388858
vt 0.797328 1.345574
vt 1.156352 -0.060181
vt 1.173777 0.023386
vt 1.129915 0.054008
vt -0.096440 0.457047
vt -0.193103 0.153485
vt 0.177384 0.260404
vt 0.156352 0.939819
vt -0.193103 1.153485
vt -0.302858 0.882846
vt 0.416085 0.020287
vt 0.414967 -0.060181
vt 0.545105 -0.005731
vt 0.155594 0.772510
vt -0.096440 0.484605
vt 0.190924 0.433489
vt 0.806897 0.153485
vt 0.903560 0.457047
vt 0.504214 0.239110
vt 0.156352 0.414967
vt -0.302858 0.455918
vt -0.038132 0.754951
vt 0.697142 -0.117154
vt 0.225372 0.649325
vt 0.154429 0.776725
vt -0.273241 0.829234
vt 0.504214 0.517969
vt 0.903560 0.484605
vt 0.726759 0.829234
vt 0.697142 0.455918
vt 0.639202 0.838317
vt 0.961868 0.754951
vt 0.455918 0.882846
vt 0.517969 1.239110
vt 0.838317 1.026361
vt -0.038132 -0.165579
vt 0.027045 0.126507
vt 0.216474 0.085627
vt 1.154429 0.401160
vt 1.100950 0.285281
vt 0.726759 0.360678
vt 0.517969 0.239110
vt 0.829234 0.360678
vt 0.838317 0.026361
vt 0.961868 0.834421
vt 0.639202 1.026361
vt 1.027045 1.126508
vt 0.102342 0.283689
vt 0.639202 0.026361
vt 1.027045 0.126507
vt 0.139974 0.357574
vt 0.102350 0.297597
vt 0.163730 0.278018
vt 0.193857 0.343168
vt 0.092189 0.379146
vt 0.163730 0.415397
vt 0.102350 0.413428
vt 0.123933 0.466388
vt 0.155224 0.414028
vt 0.422262 0.343168
vt 0.415397 0.278018
vt 0.476891 0.301667
vt 0.413428 0.297597
vt 0.415082 0.379146
vt 0.471138 0.336065
vt 0.184306 0.476891
vt 0.466388 0.269922
vt 0.423423 0.414028
vt 0.481001 0.378574
vt 0.481771 0.394077
vt 0.092189 0.415082
vt 0.155224 0.423423
vt 0.117835 0.481771
vt 0.184306 0.301667
vt 0.123933 0.269922
vt 0.135724 0.326991
vt 0.083891 0.336065
vt 0.177004 0.481001
vt 0.177004 0.378574
vt 0.117835 0.394077
vt 0.129914 0.054008
vt 0.129914 0.394495
vt 0.390739 0.260404
vt 0.389358 0.193480
vt 0.300708 0.732706
vt 0.849509 0.285281
vt 0.433489 0.322596
vt -0.826223 0.412820
vt -0.817744 0.416085
vt 0.850367 0.283689
vt 0.649325 -0.008070
vt 0.716018 0.004542
vt 1.154544 0.193480
vt 1.177384 0.260404
vt 1.182256 0.020287
vt 0.190924 0.322596
vt 0.236207 0.545105
vt 0.241404 0.716018
vt 0.241404 0.004542
vt 1.102342 0.283689
vn -0.488400 -0.809400 -0.326100
vn 0.011100 -0.843200 -0.537500
vn -0.508400 -0.686600 0.519800
vn -0.757100 -0.158300 -0.633800
vn 0.538600 -0.840100 -0.064200
vn 0.081100 -0.068600 -0.994300
vn -0.713100 -0.044300 0.699700
vn 0.256700 -0.621900 0.739800
vn -0.357400 0.160100 -0.920100
vn -0.927800 0.273100 0.254100
vn 0.931100 -0.172600 -0.321300
vn 0.931200 -0.172600 -0.321200
vn 0.622200 0.142700 -0.769700
vn -0.040400 0.170300 0.984600
vn 0.324100 -0.054900 0.944400
vn -0.360400 0.673400 -0.645500
vn -0.643700 0.764600 0.031100
vn 0.792700 0.291800 0.535300
vn 0.493800 0.746800 -0.445400
vn -0.079200 0.825700 0.558600
vn 0.570300 0.800000 0.186400
vn -0.328100 -0.940100 0.092600
vn -0.108300 -0.830100 -0.547000
vn 0.004200 -0.827800 0.561000
vn -0.866600 -0.417500 0.273200
vn -0.392300 -0.171500 -0.903700
vn 0.389800 -0.691300 -0.608400
vn -0.098100 -0.243100 0.965000
vn 0.652100 -0.723300 0.227200
vn -0.523100 0.035300 0.851500
vn 0.062400 0.239000 -0.969000
vn 0.479100 -0.000300 -0.877800
vn 0.444900 0.254800 0.858600
vn 0.874800 0.048400 0.482100
vn -0.440200 0.699100 0.563400
vn -0.056800 0.857000 -0.512100
vn 0.831900 0.504300 -0.231600
vn 0.101700 0.838600 0.535200
vn -0.639200 0.750800 -0.166300
vn 0.298300 0.948800 -0.103900
vn 0.095800 -0.914800 0.392400
vn -0.543900 -0.822800 0.164800
vn 0.564200 -0.823900 0.053600
vn 0.273700 -0.355500 0.893700
vn -0.605100 -0.719000 -0.341700
vn -0.903500 -0.147600 0.402300
vn 0.965900 -0.231800 0.115600
vn 0.230900 -0.765700 -0.600300
vn -0.429600 0.195300 0.881600
vn 0.850700 0.074800 0.520400
vn -0.877100 -0.036900 -0.478800
vn -0.969900 0.230200 -0.079800
vn 0.858200 0.226900 -0.460500
vn 0.483100 -0.010200 -0.875500
vn -0.170100 0.792500 0.585600
vn 0.560000 0.730200 0.391500
vn -0.232400 0.444700 -0.865000
vn -0.515600 0.856900 -0.003200
vn 0.532000 0.831700 -0.158900
vn -0.107200 0.925500 -0.363200
vn 0.931100 -0.172500 -0.321300
vn 0.324100 -0.054800 0.944400
vn 0.792600 0.291800 0.535300
vn 0.792600 0.291800 0.535400
vn -0.328200 -0.940100 0.092600
vn -0.056800 0.857100 -0.512100
usemtl Material.054
s 1
f 1/1/1 2/2/1 3/3/1
f 1/1/2 3/3/2 4/4/2
f 2/5/3 1/6/3 5/7/3
f 3/8/4 2/9/4 6/10/4
f 1/1/5 4/4/5 8/11/5
f 4/12/6 3/13/6 9/14/6
f 2/9/7 5/15/7 10/16/7
f 11/17/8 5/18/8 1/19/8
f 3/20/9 6/21/9 9/22/9
f 2/9/10 10/16/10 6/10/10
f 12/23/11 14/24/12 15/25/11
f 4/12/13 9/14/13 12/26/13
f 5/27/14 18/28/14 10/29/14
f 5/27/15 20/30/15 21/31/15
f 9/32/16 6/33/16 22/34/16
f 6/35/17 10/36/17 22/37/17
f 18/38/18 24/39/18 12/23/18
f 12/40/19 9/32/19 22/34/19
f 10/41/20 18/42/20 22/43/20
f 18/44/21 12/45/21 22/46/21
f 27/47/22 11/48/22 7/49/22
f 28/50/23 26/51/23 17/52/23
f 27/53/24 26/54/24 29/55/24
f 19/56/25 27/57/25 20/58/25
f 15/59/26 28/60/26 16/61/26
f 26/62/27 28/63/27 30/64/27
f 27/65/28 29/66/28 31/67/28
f 26/62/29 30/64/29 29/68/29
f 31/67/30 21/69/30 27/65/30
f 14/70/31 32/71/31 28/60/31
f 30/72/32 28/73/32 32/74/32
f 29/75/33 33/76/33 31/77/33
f 29/78/34 30/79/34 33/80/34
f 31/81/35 34/82/35 24/83/35
f 14/84/36 13/85/36 32/86/36
f 30/87/37 32/88/37 33/89/37
f 31/90/38 33/91/38 34/92/38
f 24/83/39 34/82/39 25/93/39
f 33/94/40 32/86/40 34/95/40
f 35/96/41 36/97/41 37/98/41
f 35/96/42 37/98/42 38/99/42
f 36/97/43 35/96/43 39/100/43
f 37/101/44 36/102/44 40/103/44
f 35/96/45 38/99/45 41/104/45
f 38/105/46 37/106/46 42/107/46
f 36/108/47 39/109/47 43/110/47
f 35/96/48 41/104/48 39/100/48
f 37/101/49 40/103/49 42/111/49
f 36/108/50 43/110/50 40/112/50
f 41/113/51 38/105/51 44/114/51
f 38/105/52 42/107/52 44/114/52
f 39/109/53 45/115/53 43/110/53
f 39/116/54 41/117/54 45/118/54
f 42/119/55 40/120/55 46/121/55
f 40/120/56 43/122/56 46/121/56
f 41/117/57 44/123/57 45/118/57
f 44/124/58 42/119/58 46/121/58
f 43/122/59 45/125/59 46/121/59
f 45/125/60 44/124/60 46/121/60
f 7/126/5 1/1/5 8/11/5
f 7/127/8 11/17/8 1/19/8
f 17/128/61 8/129/61 4/130/11
f 12/23/11 13/131/11 14/24/12
f 16/132/11 17/128/61 4/130/11
f 4/130/11 12/23/11 15/25/11
f 15/25/11 16/132/11 4/130/11
f 5/27/15 11/133/62 19/134/62
f 21/31/15 18/28/15 5/27/15
f 5/27/15 19/134/62 20/30/15
f 25/135/63 13/131/64 12/23/18
f 18/38/18 21/136/18 23/137/18
f 25/135/63 12/23/18 24/39/18
f 18/38/18 23/137/18 24/39/18
f 26/62/22 27/47/22 7/49/22
f 8/138/22 17/139/22 26/62/22
f 27/47/22 19/140/65 11/48/22
f 7/49/22 8/138/22 26/62/22
f 16/141/23 28/50/23 17/52/23
f 20/142/30 27/65/30 21/69/30
f 31/67/30 23/143/30 21/69/30
f 15/59/31 14/70/31 28/60/31
f 23/144/35 31/81/35 24/83/35
f 34/95/36 32/86/36 13/85/36
f 13/85/36 25/145/66 34/95/36
