# Blender v2.76 (sub 0) OBJ File: ''
# www.blender.org
mtllib Cloud8.mtl
o Sphere.002_Sphere.006
v 2.419687 0.487380 0.101582
v 2.652582 0.348015 0.103237
v 2.613521 0.568398 -0.001594
v 2.623970 0.551179 0.114730
v 2.552809 0.377588 0.220294
v 2.426299 0.413798 0.212485
v 1.489208 0.214840 0.306008
v 1.720096 0.706600 0.235253
v 1.042651 0.569594 0.601967
v 1.539591 1.128902 -0.004986
v 1.015110 1.346653 -0.003249
v 0.335251 0.559706 0.395017
v 0.470694 0.077083 0.473034
v 0.585100 1.086833 0.133749
v 0.203997 0.601071 -0.003566
v 0.505141 0.138453 0.023297
v 0.493296 1.123585 -0.180530
v 1.093733 0.694144 -0.732269
v 1.027889 1.172324 -0.678543
v 0.959640 0.171495 -0.282350
v 1.758164 0.722596 -0.486839
v 1.553289 1.178586 -0.486735
v 0.904843 -0.084887 0.500317
v 1.487099 0.172020 -0.174180
v -0.594922 0.351718 -0.158978
v -0.271907 1.193741 -0.045288
v -1.426094 1.046761 0.135450
v -0.655264 1.874469 -0.685724
v -1.613817 1.870957 -0.513674
v -3.096110 1.128259 -0.586327
v -2.551434 0.272536 -0.554409
v -2.682230 1.886828 -1.050394
v -3.453268 1.154805 -1.489208
v -2.719812 0.307609 -1.179142
v -2.951042 1.886902 -1.761567
v -1.724730 1.088495 -2.323922
v -1.872697 1.875104 -2.339840
v -1.829723 0.273786 -1.610200
v -0.226536 1.114585 -1.568400
v -0.682743 1.853948 -1.681901
v -1.815418 2.153940 -1.122283
v -1.488497 -0.099713 -0.508979
v -1.483765 0.256895 -0.108251
v -0.699407 0.279906 -1.046572
vt 0.290156 0.743690
vt 0.173709 0.674008
vt 0.193239 0.784199
vt 0.784199 0.500797
vt 0.674008 0.448381
vt 0.775589 0.442635
vt 0.688794 0.389853
vt 0.188015 0.775589
vt 0.223595 0.688794
vt 0.286850 0.706899
vt 0.223595 0.389853
vt 0.173709 0.448381
vt 0.286850 0.393757
vt 0.193239 0.500797
vt 0.188015 0.442635
vt 0.290156 0.449209
vt 0.755396 0.607420
vt 0.639952 0.853300
vt 0.978674 0.784797
vt 0.730205 0.064451
vt 0.992445 0.173326
vt 0.978674 -0.215203
vt 1.332375 0.779853
vt 1.264653 0.538541
vt 1.207450 0.043417
vt 1.332375 -0.220147
vt 0.779853 0.302491
vt 0.800536 0.501783
vt 0.569227 0.488351
vt 0.043417 0.433125
vt 0.061792 0.590265
vt -0.199464 0.501783
vt 0.247429 0.569227
vt 0.398001 0.800536
vt -0.046866 0.847072
vt 0.253352 0.061792
vt -0.013945 0.086162
vt -0.046866 -0.152928
vt 0.020180 0.585747
vt -0.379082 0.861298
vt 0.953134 0.847072
vt 0.986055 1.086162
vt 0.723355 1.089293
vt 0.207450 0.433125
vt -0.007555 0.501625
vt 0.253352 0.590265
vt 0.047579 0.249842
vt 0.264653 0.263483
vt 0.247429 0.488351
vt -0.013945 0.839271
vt 0.020180 0.641175
vt 0.986055 0.839271
vt 0.992445 0.501625
vt 0.723355 0.743367
vt -0.243550 0.587090
vt 0.861298 0.743420
vt 1.089293 0.743367
vt 1.064451 0.502493
vt 0.586010 0.587090
vt 0.853300 0.382374
vt 0.730205 0.502493
vt -0.244604 0.346996
vt 0.797461 0.675859
vt 0.635953 1.096870
vt 1.213047 1.023381
vt 0.827632 0.437235
vt 1.306908 0.435478
vt 1.213047 0.023381
vt 0.213047 0.023381
vt 1.048055 0.064129
vt 0.775717 -0.363732
vt 0.306908 0.435478
vt 0.841115 0.443414
vt 0.064129 0.793164
vt 0.077402 1.244604
vt -0.346196 1.089571
vt 0.443414 0.025197
vt 0.443451 0.380784
vt 0.077402 0.244604
vt 0.859906 0.653804
vt 1.226634 1.077402
vt 0.362365 1.044248
vt 0.975521 0.443451
vt 0.436348 0.437552
vt 0.362365 0.044248
vt 0.414861 0.636893
vt -0.386732 1.057292
vt -0.158628 0.426974
vt 0.827632 0.842862
vt 1.407709 1.061141
vt 1.306908 0.756837
vt 0.244249 0.754490
vt -0.202539 0.579489
vt 0.241883 0.554125
vt 0.306908 0.756837
vt 0.407709 1.061141
vt 0.841115 1.025197
vt 0.775717 0.777205
vt 0.841115 0.025197
vt 0.407709 0.061141
vt 0.975521 0.380784
vt 0.859906 1.089571
vt 0.436348 0.669920
vt 0.414861 1.305100
vt -0.158628 0.340950
vt -0.150297 1.023286
vt 0.057292 0.284200
vt 0.426974 0.340950
vt 0.437235 -0.157138
vt 0.639953 0.023286
vt 1.057292 0.284200
vt 1.096870 -0.477356
vt 0.841372 0.340950
vt 1.407709 0.061141
vt 0.827632 -0.157138
vt 0.047579 0.457556
vt -0.244604 0.607420
vt -0.021326 0.784797
vt 0.730205 1.064451
vt 0.264653 0.538541
vt 0.992445 1.173326
vt 0.538541 0.263483
vt 1.043417 0.433125
vt 0.253352 1.061792
vt 0.756450 0.586010
vt 1.020180 0.585747
vt 0.620918 0.861298
vt 0.607420 0.346996
vt 0.241883 0.628448
vt -0.202539 0.675859
vt 0.213047 1.023381
vt 0.635953 0.096870
vt 0.775717 0.636268
vt 0.636268 0.777205
vt 1.064129 0.793164
vt 0.653804 1.089571
vt 0.443414 1.025197
vt 0.226634 0.077402
vt -0.024479 0.443451
vt -0.637635 0.044248
vt 0.849703 0.639953
vt 1.414861 0.636893
vt 0.613268 1.057292
vt 0.613268 0.057292
vt 1.362365 0.044248
vt 0.841372 0.426974
vt 0.096870 0.522644
vt 0.057292 1.284200
vt 0.437235 0.842862
vt 0.675859 0.579489
vt 0.639953 1.023286
vt 1.096870 0.522644
vn 0.264500 0.452100 0.851900
vn -0.987400 -0.142900 0.067500
vn -0.768000 -0.072200 -0.636400
vn -0.087100 -0.491300 -0.866600
vn 0.275600 0.961200 -0.007900
vn 0.303700 -0.938200 -0.166200
vn 0.449300 0.756500 0.475200
vn 0.489800 -0.105400 0.865400
vn 0.251700 0.600200 0.759200
vn -0.280900 0.075800 0.956700
vn 0.024100 0.434800 0.900200
vn -0.823800 -0.523700 0.216900
vn -0.790600 0.537200 0.293800
vn -0.554300 -0.403100 -0.728200
vn -0.681000 -0.011500 -0.732200
vn 0.283300 -0.666400 -0.689700
vn 0.337100 0.151200 -0.929200
vn 0.337400 0.150900 -0.929200
vn 0.337000 0.151300 -0.929300
vn -0.447900 0.863500 0.231800
vn -0.337000 -0.929100 -0.152600
vn -0.310300 0.919000 -0.243100
vn -0.145200 -0.937200 -0.317200
vn 0.078900 0.965600 -0.247800
vn 0.063800 -0.949700 -0.306600
vn 0.910100 0.408900 0.068000
vn 0.905000 -0.423800 0.038300
vn 0.381600 0.918300 0.105600
vn 0.475000 -0.876700 0.076100
vn 0.176200 -0.197800 0.964300
vn 0.134700 0.631800 0.763300
vn -0.396100 -0.218900 0.891700
vn -0.345000 0.619600 0.705100
vn -0.773600 -0.563800 0.289400
vn -0.740000 0.611700 0.279800
vn -0.371600 -0.584300 -0.721500
vn -0.370800 -0.585000 -0.721300
vn -0.371200 -0.584600 -0.721400
vn -0.470800 -0.106300 -0.875800
vn 0.354200 -0.641600 -0.680300
vn 0.483600 0.073300 -0.872200
vn 0.068800 0.913100 0.401800
vn 0.116900 -0.742600 0.659500
vn -0.223900 0.853300 0.470900
vn -0.278100 -0.715900 0.640400
vn -0.284600 0.952600 0.107700
vn -0.331700 -0.942700 0.036500
vn -0.105900 0.970400 -0.217200
vn -0.166800 -0.948300 -0.270000
vn 0.142800 0.963300 -0.227300
vn 0.188000 -0.910900 -0.367200
vn 0.852900 0.521000 -0.034300
vn 0.882200 -0.468200 0.050600
vn 0.243600 0.969500 -0.026700
vn 0.444500 -0.895500 0.020100
vn 0.282100 -0.791600 -0.542000
vn 0.408900 -0.223500 0.884800
vn 0.301200 0.565500 0.767800
vn -0.110400 -0.129800 0.985400
vn -0.233900 0.592300 0.771100
vn -0.951900 -0.285200 -0.111800
vn -0.788000 0.529300 0.314400
vn -0.453500 -0.511800 -0.729700
vn -0.636700 0.093300 -0.765500
vn 0.168500 -0.548200 -0.819200
vn 0.336800 0.151500 -0.929300
vn 0.905900 0.419700 0.057100
vn 0.906500 -0.420800 0.033500
vn 0.086200 -0.299500 0.950200
vn 0.024800 0.692400 0.721100
vn -0.376600 -0.247900 0.892600
vn -0.310500 0.543500 0.779900
vn -0.830700 -0.521500 0.194600
vn -0.741500 0.594700 0.310800
vn -0.371600 -0.584200 -0.721500
vn -0.435700 -0.035700 -0.899400
vn 0.349000 -0.630900 -0.692900
vn 0.444000 0.138100 -0.885300
vn 0.871200 0.491000 0.000400
vn 0.934200 -0.347300 -0.081900
usemtl Material.014
s 1
f 1/1/1 2/2/1 3/3/1
f 3/4/2 2/5/2 4/6/2
f 4/6/3 2/5/3 5/7/3
f 4/8/4 5/9/4 6/10/4
f 5/11/5 2/12/5 6/13/5
f 3/14/6 4/15/6 1/16/6
f 6/13/7 2/12/7 1/16/7
f 7/17/8 8/18/8 9/19/8
f 10/20/9 11/21/9 9/22/9
f 9/19/10 12/23/10 13/24/10
f 11/21/11 14/25/11 12/26/11
f 12/27/12 15/28/12 16/29/12
f 14/30/13 17/31/13 15/32/13
f 16/33/14 15/34/14 18/35/14
f 17/36/15 19/37/15 18/38/15
f 20/39/16 18/35/16 21/40/16
f 18/41/17 19/42/18 22/43/19
f 14/44/20 11/45/20 17/46/20
f 23/47/21 13/48/21 16/49/21
f 17/46/22 11/45/22 19/50/22
f 23/47/23 16/49/23 20/51/23
f 19/52/24 11/53/24 22/54/24
f 23/47/25 20/51/25 24/55/25
f 21/56/26 22/57/26 10/58/26
f 24/59/27 21/56/27 8/60/27
f 22/54/28 11/53/28 10/61/28
f 23/47/29 24/55/29 7/62/29
f 25/63/30 26/64/30 27/65/30
f 28/66/31 29/67/31 27/68/31
f 27/69/32 30/70/32 31/71/32
f 29/72/33 32/73/33 30/70/33
f 30/74/34 33/75/34 34/76/34
f 32/77/35 35/78/35 33/79/35
f 34/80/36 33/81/37 36/82/38
f 35/83/39 37/84/39 36/85/39
f 38/86/40 36/82/40 39/87/40
f 36/85/41 37/84/41 40/88/41
f 28/89/42 41/90/42 29/91/42
f 42/92/43 25/93/43 43/94/43
f 29/95/44 41/96/44 32/97/44
f 42/92/45 43/94/45 31/98/45
f 32/99/46 41/100/46 35/101/46
f 42/92/47 31/98/47 34/102/47
f 35/101/48 41/100/48 37/103/48
f 42/92/49 34/102/49 38/104/49
f 37/103/50 41/100/50 40/105/50
f 42/92/51 38/104/51 44/106/51
f 39/107/52 40/108/52 28/109/52
f 44/110/53 39/111/53 26/112/53
f 40/113/54 41/114/54 28/115/54
f 42/92/55 44/106/55 25/93/55
f 1/16/56 4/15/56 6/13/56
f 23/116/57 7/117/57 9/118/57
f 8/18/58 10/119/58 9/19/58
f 23/116/59 9/118/59 13/120/59
f 9/19/60 11/121/60 12/23/60
f 13/122/61 12/27/61 16/29/61
f 12/27/62 14/123/62 15/28/62
f 20/39/63 16/33/63 18/35/63
f 15/34/64 17/124/64 18/35/64
f 24/125/65 20/126/65 21/127/65
f 21/127/66 18/41/17 22/43/19
f 8/60/67 21/56/67 10/58/67
f 7/128/68 24/59/68 8/60/68
f 43/129/69 25/130/69 27/131/69
f 26/132/70 28/66/70 27/68/70
f 43/129/71 27/131/71 31/133/71
f 27/69/72 29/72/72 30/70/72
f 31/134/73 30/135/73 34/136/73
f 30/74/74 32/137/74 33/75/74
f 38/86/75 34/80/36 36/82/38
f 33/138/76 35/139/76 36/140/76
f 44/141/77 38/142/77 39/143/77
f 39/144/78 36/145/78 40/146/78
f 26/147/79 39/148/79 28/149/79
f 25/150/80 44/151/80 26/152/80
