# Blender v2.76 (sub 0) OBJ File: ''
# www.blender.org
mtllib Cloud6.mtl
o Cube_Cube.001
v 0.507436 -0.870797 -1.235409
v -0.415074 -0.764016 -1.728485
v 0.436586 -0.266767 -2.093125
v 1.002440 0.056286 -1.267894
v -0.379427 -0.749817 -0.780069
v -0.150772 -0.779478 -0.819843
v -0.490215 0.229064 -2.065714
v 0.756429 -0.089569 -0.839225
v 0.700834 -0.313165 -0.992093
v 0.616532 -0.471053 -0.986561
v 0.504353 -0.591935 -0.862323
v 0.385849 0.736035 -1.781046
v -0.084852 -0.770648 -0.837502
v -0.578577 -1.058914 -0.626112
v -0.629953 -0.379912 -0.856687
v -0.532565 -0.575230 -0.808548
v -0.992178 -0.068539 -1.191056
v 0.528289 0.627693 -0.826341
v 0.557145 0.567105 -0.841567
v 1.390497 0.080571 0.013696
v 0.533987 1.024812 -0.699125
v 0.702885 -1.207243 0.058821
v 0.422645 0.750691 -0.802054
v -0.763983 0.061740 -0.858261
v -0.497174 0.858544 -1.223541
v 0.260760 0.770813 -0.818430
v 0.042982 0.740672 -0.858672
v 0.581613 1.043782 0.567980
v 0.707622 0.897072 0.539011
v 0.770346 0.827924 0.591212
v 1.057129 -0.117076 0.594581
v 1.000537 -0.344682 0.438971
v 0.804908 -0.711071 0.451809
v 0.698665 -0.825557 0.569474
v -0.163454 -1.087048 0.605792
v -0.257298 -1.076186 0.555633
v -0.532361 -1.040505 0.603480
v -1.380234 -0.092824 0.120432
v -0.716225 0.300853 -1.036588
v -0.683417 0.362299 -1.038741
v -0.465266 0.586514 -0.837261
v -0.692622 1.194989 0.075307
v 0.225925 1.088668 0.566265
v 0.272704 1.082178 0.536730
v -0.793348 -0.742964 0.554944
v -0.823923 -0.706119 0.583417
v -0.649023 0.823285 0.603123
v -1.064709 0.087313 0.580588
v -1.015249 0.334945 0.395908
v -0.882796 0.583014 0.387216
v 0.903644 -1.552831 1.647099
v -0.746522 -1.361824 0.765096
v 1.789097 0.105516 1.588991
v -0.675889 -1.333688 2.644352
v 0.686151 1.321436 0.671076
v 0.891196 -0.426831 3.153562
v -1.778835 -0.117769 1.726437
v 0.756785 1.349571 2.550333
v -0.766646 0.460103 3.202594
v -0.893382 1.540577 1.668329
vt 0.246282 0.117705
vt 0.707537 0.364243
vt 0.281707 0.546563
vt 0.064602 0.117705
vt 0.366616 0.546563
vt 0.528143 0.133947
vt 0.707537 1.364243
vt 0.246282 1.117705
vt 0.575386 0.909922
vt 0.281707 0.366616
vt 0.707537 0.117992
vt 0.745108 0.614532
vt 0.343417 -0.003953
vt 0.264473 -0.006719
vt 0.868017 0.390523
vt 0.789289 -0.029457
vt 0.766282 0.212385
vt 0.689713 0.125091
vt 0.212385 0.904274
vt 0.465730 1.095528
vt 0.117992 1.364243
vt 0.247824 -0.068838
vt 0.542426 -0.081249
vt 0.307076 0.868017
vt 0.117992 0.364243
vt 0.465730 0.095528
vt 0.614532 0.532857
vt 0.528143 1.133947
vt 0.813846 0.913170
vt 0.783553 0.920784
vt 0.540286 0.493152
vt 0.455216 0.919613
vt 0.343417 0.996047
vt -0.103621 0.470589
vt 0.148558 0.470589
vt 0.542426 0.918751
vt 0.247824 0.931162
vt 0.868017 1.390523
vt 0.310044 0.928344
vt 0.307076 0.390523
vt 0.745108 0.532857
vt 0.748587 0.111771
vt 0.929272 0.111771
vt 0.235855 0.813846
vt 0.288678 0.875345
vt 0.233007 1.012406
vt 1.012406 0.849563
vt 0.948536 0.230494
vt 0.896379 0.470589
vt 1.327659 0.280514
vt 1.144464 0.274096
vt 0.628649 0.222183
vt 0.789289 0.813056
vt 0.307076 1.390523
vt 0.748587 1.111771
vt 0.369620 0.909215
vt 1.453588 0.439784
vt 1.530870 0.929130
vt 1.310044 0.928344
vt 0.650427 0.018294
vt 0.681149 0.019371
vt 0.441462 0.202709
vt 0.913962 0.204394
vt 0.846311 0.462346
vt 0.387038 0.216868
vt 0.363648 0.231635
vt 0.581727 0.197104
vt 0.150667 0.215263
vt 0.979747 0.198260
vt 1.128518 0.222528
vt 0.970543 0.813056
vt 0.732633 0.918630
vt 0.478509 0.929336
vt 0.453588 -0.560216
vt 1.097494 -0.537654
vt 0.824512 0.198438
vt 0.543656 0.209706
vt 0.453588 0.439784
vt 0.146940 0.208292
vt 0.667472 0.302046
vt 0.791507 0.306392
vt 0.048178 0.676450
vt 0.581727 1.197104
vt 0.150667 1.215263
vt 0.327659 0.280514
vt 0.552758 -0.294496
vt -0.276416 -0.323550
vt 0.873261 0.117452
vt 0.048178 -0.323550
vt 0.837945 -0.822176
vt 0.873261 0.819088
vt 0.896674 1.128518
vt 0.766181 0.979747
vt 0.552758 0.705504
vt 0.913962 1.204394
vt 1.160718 1.164462
vt 0.723584 0.676450
vt 1.552758 0.705504
vt 1.286584 -0.076781
vt 0.819088 0.117452
vt 0.833156 -0.822176
vt 1.441115 -0.363218
vt 0.054402 -0.076781
vt 0.837945 0.177824
vt 1.543656 0.209706
vt 1.146940 0.208292
vt 1.174785 0.224833
vt 0.156924 0.160718
vt 0.146189 -0.051464
vt 0.209193 0.021891
vt 0.286584 0.923219
vt 0.552758 1.705504
vt 1.174785 1.224833
vt 0.833156 0.177824
vt 1.730051 -0.101297
vt 1.441115 0.636782
vt 0.837945 0.833156
vt 0.054402 1.286584
vt 0.883323 1.730051
vt 0.441115 -0.363218
vt 1.270288 -0.334165
vt 0.121608 0.224833
vt 0.156924 1.164462
vt 0.946691 0.665835
vt 0.946691 -0.334165
vt 0.054402 0.286584
vt 0.121608 1.174785
vt 0.883323 0.730051
vt 0.441115 0.636782
vt 0.730051 -0.101297
vt 1.270288 0.665835
vt 0.883323 0.898703
vt 0.121608 1.224833
vt 0.946691 1.665835
vt 0.689713 0.890034
vt 0.455216 -0.080387
vt 0.204033 -0.068838
vt 0.575386 0.110261
vt 0.542426 0.114676
vt 0.814977 0.310044
vt 0.125091 0.890034
vt 0.575386 -0.090078
vt 0.264473 0.993281
vt 0.191734 0.993281
vt 0.875345 0.901027
vt 0.530870 0.929130
vt 0.369620 0.885406
vt 0.478509 0.870336
vt 0.221428 0.783553
vt 1.021891 0.216010
vt 1.540286 0.493152
vt 1.441462 0.202709
vt 1.087222 0.215263
vt 0.766181 0.198260
vt 0.288678 0.901027
vt 1.650427 1.018294
vt 0.530870 -0.070870
vt 0.793257 -0.081370
vt 0.209193 0.216010
vt 0.233007 0.849563
vt 0.841709 1.019371
vt 0.911642 0.198438
vt 1.097494 0.462346
vt 0.873261 1.117452
vt 0.097546 1.274096
vt 0.628649 1.222183
vt 0.144464 0.274096
vt 0.628649 0.961907
vt 0.327659 1.280514
vt 0.441462 1.202709
vt 0.948536 1.230494
vt 1.667472 0.302046
vt 0.363648 0.041089
vt 0.156924 0.164462
vt 0.941398 0.306392
vn 0.215400 -0.789900 -0.574100
vn 0.810000 -0.445800 -0.380900
vn -0.125300 -0.991900 0.019600
vn -0.203100 -0.328600 -0.922400
vn 0.836800 -0.435200 0.332200
vn 0.759000 0.228200 -0.609800
vn -0.754300 -0.655400 0.038200
vn 0.258800 -0.772700 0.579700
vn 0.132900 0.300600 -0.944400
vn -0.802400 -0.245400 -0.544000
vn 0.802400 0.245400 0.544000
vn 0.754300 0.655400 -0.038200
vn -0.759000 -0.228200 0.609800
vn -0.258800 0.772700 -0.579700
vn -0.836800 0.435200 -0.332200
vn 0.125300 0.991900 -0.019600
vn -0.810000 0.445800 0.380900
vn -0.215400 0.789900 0.574100
vn -0.132900 -0.300600 0.944400
vn 0.203100 0.328600 0.922400
vn -0.754300 -0.655400 0.038100
vn -0.810000 0.445900 0.380900
usemtl Material.013
s 1
f 1/1/1 2/2/1 3/3/1
f 1/4/2 3/5/2 4/6/2
f 2/7/3 1/8/3 6/9/3
f 3/10/4 2/11/4 7/12/4
f 1/4/5 9/13/5 10/14/5
f 4/6/6 3/5/6 12/15/6
f 14/16/4 16/17/4 5/18/4
f 16/19/7 17/20/7 2/21/7
f 1/1/8 11/22/8 13/23/8
f 3/10/9 7/12/9 12/24/9
f 2/25/10 17/26/10 7/27/10
f 4/28/11 18/29/11 19/30/11
f 20/31/6 8/32/6 19/30/6
f 9/33/2 20/31/2 22/34/2
f 22/35/1 13/36/1 11/37/1
f 18/29/12 4/28/12 12/38/12
f 17/20/13 16/19/13 15/39/13
f 12/40/14 7/41/14 25/42/14
f 7/27/15 17/26/15 25/43/15
f 18/44/9 23/45/9 21/46/9
f 21/47/12 29/48/12 20/31/12
f 22/49/5 32/50/5 33/51/5
f 22/35/3 36/52/3 14/53/3
f 12/54/16 25/55/16 26/56/16
f 38/57/10 24/58/10 15/59/10
f 39/60/17 40/61/17 17/26/17
f 31/62/11 20/31/11 30/63/11
f 42/64/16 43/65/16 44/66/16
f 35/67/8 22/35/8 34/68/8
f 37/69/7 45/70/7 14/71/7
f 25/55/18 41/72/18 27/73/18
f 39/60/15 38/74/15 42/75/15
f 27/73/14 41/72/14 42/64/14
f 43/65/18 42/64/18 47/76/18
f 48/77/13 38/78/13 46/79/13
f 49/80/17 50/81/17 38/78/17
f 51/82/1 35/83/1 34/84/1
f 32/85/2 53/86/2 51/87/2
f 52/88/3 51/89/3 54/90/3
f 52/91/4 45/92/4 37/93/4
f 53/94/6 30/95/6 55/96/6
f 51/97/5 53/98/5 56/99/5
f 52/100/7 54/101/7 57/102/7
f 51/82/8 56/103/8 54/104/8
f 57/102/10 48/105/10 46/106/10
f 53/94/12 55/96/12 58/107/12
f 55/108/9 29/109/9 28/110/9
f 56/111/11 53/112/11 58/113/11
f 54/114/13 59/115/13 57/116/13
f 54/117/19 56/118/19 59/119/19
f 49/80/15 57/120/15 60/121/15
f 58/122/16 55/123/16 60/124/16
f 43/65/14 47/76/14 60/125/14
f 56/126/20 58/127/20 59/128/20
f 57/129/17 59/130/17 60/131/17
f 59/132/18 58/133/18 60/134/18
f 5/135/3 2/7/3 6/9/3
f 4/6/5 8/136/5 9/13/5
f 10/14/5 11/137/5 1/4/5
f 1/4/5 4/6/5 9/13/5
f 6/138/4 13/139/4 14/16/4
f 14/16/4 15/140/4 16/17/4
f 5/18/4 6/138/4 14/16/4
f 5/141/7 16/19/7 2/21/7
f 6/142/8 1/1/8 13/23/8
f 8/32/11 4/28/11 19/30/11
f 20/31/6 9/33/6 8/32/6
f 19/30/6 21/47/6 20/31/6
f 10/143/2 9/33/2 22/34/2
f 22/35/1 14/53/1 13/36/1
f 11/37/1 10/144/1 22/35/1
f 23/145/12 18/29/12 12/38/12
f 24/146/13 17/20/13 15/39/13
f 26/147/9 27/148/9 21/46/9
f 21/46/9 19/149/9 18/44/9
f 23/45/9 26/147/9 21/46/9
f 30/63/12 20/31/12 29/48/12
f 21/47/12 28/150/12 29/48/12
f 20/151/5 31/152/5 32/50/5
f 33/51/5 34/153/5 22/49/5
f 22/49/5 20/151/5 32/50/5
f 37/154/3 14/53/3 36/52/3
f 22/35/3 35/67/3 36/52/3
f 23/155/16 12/54/16 26/56/16
f 15/59/10 14/71/10 38/57/10
f 38/57/10 39/156/10 24/58/10
f 17/26/17 24/157/17 39/60/17
f 40/61/17 41/158/17 25/43/17
f 25/43/17 17/26/17 40/61/17
f 44/66/16 28/159/16 21/160/16
f 21/160/16 42/64/16 44/66/16
f 38/57/7 14/71/7 45/70/7
f 45/70/7 46/106/21 38/57/7
f 26/56/18 25/55/18 27/73/18
f 40/61/15 39/60/15 42/75/15
f 42/64/14 21/160/14 27/73/14
f 41/72/14 40/161/14 42/64/14
f 38/78/17 48/77/17 49/80/17
f 50/81/17 47/162/22 42/163/17
f 42/163/17 38/78/17 50/81/17
f 51/82/1 52/164/1 35/83/1
f 34/84/1 33/165/1 51/82/1
f 52/164/1 36/166/1 35/83/1
f 33/167/2 32/85/2 51/87/2
f 36/168/4 52/91/4 37/93/4
f 53/94/6 32/169/6 31/170/6
f 29/171/6 55/96/6 30/95/6
f 53/94/6 31/170/6 30/95/6
f 45/70/10 52/100/10 46/106/10
f 57/102/10 49/172/10 48/105/10
f 46/106/10 52/100/10 57/102/10
f 44/173/9 55/108/9 28/110/9
f 50/81/15 49/80/15 60/121/15
f 60/125/14 55/174/14 43/65/14
f 47/76/14 50/175/14 60/125/14
f 55/174/14 44/66/14 43/65/14
