# Blender v2.76 (sub 0) OBJ File: ''
# www.blender.org
mtllib Cloud3.mtl
o Icosphere_Icosphere.002
v 2.729172 -0.310685 0.652183
v 2.572656 -0.105497 0.212615
v 3.112779 -0.629368 0.106138
v 3.246887 -0.350390 0.777750
v 3.012727 0.129372 0.758549
v 2.939977 0.059518 -0.099901
v 3.614208 -0.185375 0.465234
v 3.143017 0.358168 0.293740
v 3.457691 0.019814 0.025667
v -1.816511 0.672605 -1.807928
v -2.090634 -1.407511 -0.421785
v -3.410897 0.576531 -1.389216
v -1.573208 2.061309 -0.631211
v -0.734476 -0.570932 -0.543666
v -3.870068 -0.535418 0.137227
v -0.220712 0.934293 -0.461557
v -4.210850 1.486375 0.074463
v -0.899447 -1.190443 0.528151
v -4.421727 0.696247 1.353837
v -2.403259 -1.080955 1.888449
v 0.050390 1.506957 0.309127
v -3.523374 2.073785 1.009820
v 0.934494 -1.355011 1.268479
v 0.482827 0.481438 -0.873042
v -2.000237 1.922622 1.811005
v -0.474355 -0.806209 1.729295
v 1.083869 -1.094467 -0.770701
v -1.859791 0.941049 2.495113
v 1.475693 0.875460 0.149175
v -0.079217 1.016264 1.287880
v -1.162933 -0.153266 2.123515
v 2.086067 -0.305247 0.654989
v 0.839598 0.204506 1.911577
v -0.008609 -0.186446 0.411134
v -1.629682 0.290996 -0.217855
v -1.579842 0.554752 0.454597
vt 0.135414 0.173909
vt 0.213672 0.393692
vt -0.056389 0.446931
vt -0.123443 0.111125
vt 0.344657 0.173909
vt 0.564686 0.120726
vt 0.447251 0.393692
vt 0.213672 0.447251
vt 0.030012 0.529759
vt -0.056389 0.185316
vt 0.135414 0.344657
vt -0.123443 0.324805
vt -0.006364 0.564686
vt 0.876557 0.111125
vt 0.943611 0.446931
vt 0.692896 0.267383
vt -0.006364 0.120726
vt -0.071509 0.353130
vt 0.030012 0.549950
vt 0.943611 0.185316
vt 1.030012 0.529759
vt 0.771155 0.509907
vt 0.993636 0.564686
vt 0.876557 0.324805
vt 0.692896 0.407313
vt 0.407313 0.267383
vt 0.185316 0.446931
vt 0.509907 0.487166
vt 0.993636 0.120726
vt 0.928491 0.353130
vt -0.228845 0.487166
vt 0.679084 0.353130
vt 0.408256 0.836303
vt 0.545317 -0.203755
vt 1.205449 0.788265
vt 0.286604 1.530655
vt 0.545317 0.796245
vt 0.408256 1.836303
vt -0.132762 1.214534
vt 0.205449 0.194608
vt -0.454683 -0.289108
vt 0.435034 -0.568614
vt -0.389644 0.967147
vt 0.605425 -0.537232
vt -0.713396 -0.184394
vt 0.545317 0.710892
vt -0.132762 0.771833
vt -0.050277 0.235925
vt -0.132762 0.214534
vt 0.788265 0.194608
vt 0.232291 -0.568614
vt 0.848123 -1.176919
vt 0.435034 0.431387
vt -0.454683 0.710892
vt -0.298370 -0.444224
vt 0.610356 0.967147
vt 1.286604 1.530655
vt 0.474805 1.253479
vt 0.243187 0.462768
vt -0.211735 1.194608
vt -0.151877 -0.176919
vt 0.286604 0.815606
vt 1.605425 0.462768
vt 1.261687 -0.004910
vt 0.701630 -0.444224
vt 0.867238 0.771833
vt 0.032753 -0.134239
vt 0.949723 0.235925
vt 0.258586 0.740719
vt 0.867238 0.214534
vt 0.232291 0.431387
vt -0.040478 -0.444224
vt 0.848123 -0.176919
vt 0.258586 0.936521
vt 0.610356 0.730779
vt 0.474805 0.345437
vt 1.286604 0.815606
vt 1.500118 -0.405502
vt 0.536893 -0.004910
vt 0.500118 -0.405502
vt 0.737177 -0.364648
vt 1.701630 -0.444224
vt 0.032753 0.865761
vt 0.867238 1.771833
vt -0.041934 1.885350
vt 0.958066 0.952766
vt 1.867238 1.214534
vt 1.258587 1.740719
vt 0.710864 0.848123
vt -0.298370 -0.040478
vt -0.570104 0.970524
vt 0.762154 0.425413
vt 1.258587 0.936521
vt 1.474805 0.345437
vt 0.539608 -0.143940
vt 0.500118 0.461311
vt 1.261687 0.536893
vt 1.710864 -0.151877
vt 0.701630 0.959522
vt -0.262823 1.096895
vt 0.081466 1.423367
vt -0.543033 1.172505
vt 0.737177 0.096895
vt 0.032753 -0.177505
vt 0.080201 0.602253
vt 0.762154 1.937730
vt 0.429896 -0.029476
vt 0.429896 1.970525
vt 1.539608 -0.143940
vt 0.539608 0.008132
vt 1.500118 0.461311
vt 1.429896 -0.029476
vt 1.081466 0.423367
vt 0.032753 0.822495
vt -0.543033 1.347376
vt 0.080201 1.602253
vt 0.347376 0.172505
vt -0.047234 0.885350
vt 0.937730 0.425413
vt 0.081466 0.423367
vt -0.460392 1.008132
vt 0.429896 0.970524
vt 0.539608 0.856060
vt 0.080201 0.544212
vt -0.237846 1.425413
vt -0.919799 0.602253
vt 0.602253 -0.455788
vt 0.967147 0.730779
vt 1.253479 0.345437
vt 0.406777 0.294433
vt 0.214534 0.771833
vt 1.314841 0.608927
vt 1.008132 -0.143940
vt 0.904778 0.235925
vt 1.214534 0.771833
vt 1.406777 0.294433
vt 1.314841 0.645498
vt 1.289921 0.272702
vt 0.096895 -0.364648
vt 1.096895 -0.364648
vt 0.645498 0.608927
vt -0.095222 0.235925
vt 0.777376 0.272702
vt 0.539608 1.008132
vt 0.289921 0.272702
vt 0.081466 -0.561757
vt -0.460392 -0.143940
vt 1.777376 0.272702
vt 0.096895 0.635352
vt 0.423367 0.438243
vt 0.777376 1.272702
vn -0.702100 -0.707500 -0.080300
vn -0.167500 -0.898200 0.406500
vn -0.790500 0.396600 0.466600
vn -0.504800 -0.361100 -0.784000
vn -0.240700 -0.078700 0.967400
vn 0.551400 -0.803700 0.223700
vn -0.635400 0.748400 0.190300
vn -0.581300 0.764000 -0.279800
vn 0.212600 -0.230700 -0.949500
vn 0.539000 0.294600 0.789100
vn 0.748700 -0.457300 -0.480000
vn 0.579300 0.655200 0.484900
vn 0.215000 0.721500 -0.658200
vn 0.748200 0.662100 0.042600
vn -0.185900 -0.527800 -0.828800
vn -0.229000 0.652300 -0.722500
vn 0.273900 -0.558100 -0.783300
vn -0.495600 -0.624300 -0.603800
vn 0.507400 0.503600 -0.699200
vn -0.321900 0.715100 -0.620500
vn 0.457500 -0.798600 -0.391200
vn 0.651300 -0.182100 -0.736600
vn -0.936300 -0.082100 -0.341500
vn -0.420900 -0.904300 0.070900
vn 0.549200 0.566600 -0.614200
vn -0.905000 -0.278800 -0.321300
vn -0.287700 0.892000 -0.348700
vn 0.061900 -0.987100 0.147900
vn 0.117300 -0.867500 -0.483400
vn -0.403700 0.186600 -0.895600
vn -0.668800 -0.652200 0.357000
vn 0.133900 0.772300 -0.621000
vn 0.268400 0.958000 0.101300
vn -0.790300 0.570900 0.222300
vn 0.063300 0.995700 0.067600
vn 0.156700 -0.955400 0.250200
vn -0.290200 -0.946300 -0.142200
vn -0.229900 -0.900400 0.369400
vn -0.158000 -0.123900 -0.979600
vn -0.387700 -0.167700 0.906400
vn 0.278900 0.773600 -0.569000
vn 0.478400 0.758000 0.443400
vn -0.380400 0.449900 0.808000
vn 0.132500 -0.406200 0.904100
vn 0.658900 -0.750700 -0.047600
vn 0.156200 -0.368400 0.916400
vn 0.661300 0.205400 -0.721500
vn -0.393800 0.487000 0.779600
vn 0.041600 -0.297400 0.953900
vn 0.403200 0.795500 0.452200
vn 0.451500 0.552800 0.700400
vn 0.163900 -0.377400 0.911400
vn 0.629400 -0.263200 0.731100
vn 0.773900 0.135000 -0.618800
vn 0.557500 0.074200 0.826900
vn 0.401000 0.798600 0.448800
vn -0.021000 0.594100 0.804200
vn 0.692000 0.555300 0.461200
vn 0.953400 -0.051100 -0.297400
vn 0.816600 -0.250400 -0.520000
vn -0.435300 0.789200 -0.433300
vn 0.992700 -0.027500 0.117700
vn 0.704100 -0.656300 -0.271000
vn -0.226300 0.129900 -0.965400
vn -0.502400 0.816900 -0.283200
vn 0.952400 -0.141100 0.270200
vn -0.448300 0.821400 0.352500
vn 0.744100 -0.666100 -0.050300
vn -0.701800 -0.564700 -0.434400
vn -0.914900 -0.348100 0.204300
vn 0.552100 0.081300 0.829800
vn -0.478600 0.758900 0.441500
vn -0.857500 -0.317300 0.405000
vn -0.716900 -0.688000 -0.112800
usemtl Material.010
s 1
f 1/1/1 2/2/1 3/3/1
f 1/1/2 3/3/2 4/4/2
f 1/5/3 5/6/3 2/7/3
f 2/8/4 6/9/4 3/10/4
f 1/11/5 4/12/5 5/13/5
f 4/14/6 3/15/6 7/16/6
f 2/2/7 5/17/7 8/18/7
f 2/2/8 8/18/8 6/19/8
f 3/20/9 6/21/9 9/22/9
f 5/23/10 4/24/10 7/25/10
f 7/26/11 3/27/11 9/28/11
f 5/29/12 7/16/12 8/30/12
f 6/19/13 8/18/13 9/31/13
f 8/32/14 7/26/14 9/28/14
f 10/33/15 11/34/15 12/35/15
f 10/33/16 12/35/16 13/36/16
f 11/37/17 10/38/17 14/39/17
f 12/40/18 11/41/18 15/42/18
f 10/33/19 13/36/19 16/43/19
f 12/40/20 17/44/20 13/45/20
f 11/46/21 14/47/21 18/48/21
f 10/33/22 16/43/22 14/49/22
f 12/50/23 15/51/23 19/52/23
f 15/53/24 11/54/24 20/55/24
f 16/56/25 13/57/25 21/58/25
f 17/59/26 12/60/26 19/61/26
f 13/62/27 17/63/27 22/64/27
f 11/46/28 18/48/28 20/65/28
f 14/66/29 23/67/29 18/68/29
f 24/69/30 14/70/30 16/56/30
f 15/71/31 20/72/31 19/73/31
f 24/74/32 16/75/32 21/76/32
f 21/76/33 13/77/33 25/78/33
f 17/59/34 19/61/34 22/79/34
f 13/62/35 22/64/35 25/80/35
f 18/68/36 26/81/36 20/82/36
f 23/83/37 14/84/37 27/85/37
f 18/68/38 23/67/38 26/81/38
f 27/86/39 14/87/39 24/88/39
f 19/89/40 20/90/40 28/91/40
f 29/92/41 24/93/41 21/94/41
f 21/76/42 25/78/42 30/95/42
f 25/96/43 22/97/43 19/98/43
f 20/99/44 26/100/44 31/101/44
f 23/83/45 27/85/45 32/102/45
f 26/103/46 23/104/46 33/105/46
f 27/86/47 24/88/47 29/106/47
f 25/96/48 19/98/48 28/107/48
f 20/99/49 31/101/49 28/108/49
f 29/92/50 21/94/50 30/109/50
f 30/110/51 25/111/51 28/112/51
f 26/103/52 33/105/52 31/113/52
f 23/114/53 32/115/53 33/116/53
f 32/117/54 27/118/54 29/119/54
f 31/120/55 30/121/55 28/122/55
f 30/123/56 33/124/56 29/125/56
f 31/120/57 33/126/57 30/121/57
f 32/117/58 29/119/58 33/127/58
f 16/128/59 21/129/59 34/130/59
f 14/131/60 16/128/60 34/130/60
f 16/75/61 35/132/61 21/76/61
f 34/130/62 21/129/62 30/133/62
f 18/134/63 14/135/63 34/136/63
f 14/70/64 35/137/64 16/56/64
f 21/76/65 35/132/65 36/138/65
f 34/130/66 30/133/66 26/139/66
f 21/76/67 36/138/67 30/95/67
f 18/134/68 34/136/68 26/140/68
f 35/141/69 14/131/69 18/142/69
f 35/141/70 18/142/70 36/143/70
f 26/103/71 30/144/71 31/113/71
f 36/145/72 31/146/72 30/147/72
f 18/134/73 26/140/73 36/148/73
f 26/149/74 31/150/74 36/151/74
