# Blender v2.76 (sub 0) OBJ File: ''
# www.blender.org
mtllib Cactus.mtl
o Cube.003_Cube.002
v 1.912219 -1.657130 1.277269
v 1.912219 -1.656137 1.267676
v 1.891041 -1.658329 1.267676
v 1.950172 -1.660065 1.305629
v 1.885767 -1.319040 2.120917
v 1.358650 -1.319040 1.816585
v 1.433103 -1.533110 1.773600
v 1.885767 -1.533110 2.034946
v 1.364348 -0.987710 1.813296
v 1.358650 -1.319040 1.207922
v 1.882378 -1.700207 1.663661
v 1.853412 -1.701238 1.644658
v 2.412885 -1.319040 1.816585
v 1.885767 -0.987710 2.114337
v 1.433103 -1.533110 1.250908
v 2.338432 -1.533110 1.773600
v 1.912219 -1.696250 1.655270
v 1.925627 -1.695599 1.648982
v 1.749592 -1.706068 1.587508
v 1.364348 -0.987710 1.211212
v 1.750220 -0.872686 1.747029
v 1.885767 -1.533110 0.989562
v 1.743526 -1.696154 1.485650
v 1.733428 -1.690850 1.424300
v 2.037945 -1.691061 1.605126
v 2.412885 -1.319040 1.207922
v 2.407187 -0.987710 1.813296
v 1.885767 -1.319040 0.903591
v 1.803184 -1.676108 1.351618
v 2.054987 -1.682102 1.518569
v 2.338432 -1.533110 1.250908
v 1.755273 -0.877025 1.286231
v 1.885767 -0.987710 0.910170
v 2.145333 -0.873727 1.477671
v 1.882301 -1.659233 1.264617
v 1.878753 -1.659600 1.267676
v 2.076332 -1.673121 1.402232
v 2.075311 -1.673016 1.430769
v 2.407187 -0.987710 1.211212
v 1.842482 -0.884164 1.568484
v 1.946999 -0.881647 1.547606
v 2.005739 -1.665815 1.350344
v 1.885767 -0.888246 1.446738
v 1.751215 -0.782960 1.512254
v 1.885767 -0.730474 1.701819
v 2.049936 -0.730474 1.417471
v 1.885767 -0.730474 1.322689
v 2.049936 -0.730474 1.607036
v 1.885767 -0.824932 1.512254
vt 0.105765 0.921875
vt 0.105469 0.921875
vt 0.105469 0.921221
vt 0.106636 0.923042
vt 0.951553 0.942794
vt 0.952478 0.943879
vt 0.952981 0.944258
vt 0.957482 0.947926
vt 0.957401 0.947830
vt 0.957418 0.947609
vt 0.953087 0.944631
vt 0.954028 0.944693
vt 0.953116 0.943999
vt 0.956529 0.947579
vt 0.956569 0.947705
vt 0.956967 0.948100
vt 0.952394 0.941739
vt 0.952453 0.942717
vt 0.953246 0.942886
vt 0.952795 0.943442
vt 0.953358 0.944198
vt 0.953755 0.944394
vt 0.951957 0.943917
vt 0.952810 0.944198
vt 0.952602 0.944090
vt 0.957067 0.947949
vt 0.957292 0.947923
vt 0.956808 0.946761
vt 0.956377 0.943736
vt 0.956769 0.943655
vt 0.956396 0.943596
vt 0.955701 0.945098
vt 0.955942 0.945023
vt 0.949944 0.941524
vt 0.950747 0.941747
vt 0.949926 0.941428
vt 0.957045 0.947780
vt 0.957074 0.947698
vt 0.957004 0.947469
vt 0.952970 0.944549
vt 0.953971 0.944629
vt 0.953037 0.943916
vt 0.955367 0.946693
vt 0.955306 0.946383
vt 0.955458 0.947280
vt 0.952959 0.943439
vt 0.952573 0.942902
vt 0.952503 0.943359
vt 0.953574 0.944703
vt 0.954513 0.945170
vt 0.951709 0.940599
vt 0.952166 0.940736
vt 0.951435 0.940785
vt 0.956100 0.943438
vt 0.956324 0.943398
vt 0.957451 0.943200
vt 0.957344 0.943602
vt 0.957435 0.943135
vt 0.951087 0.942362
vt 0.951746 0.942731
vt 0.951817 0.942826
vt 0.957154 0.947964
vt 0.957358 0.947944
vt 0.956884 0.946748
vt 0.951635 0.942120
vt 0.952008 0.942505
vt 0.952331 0.942765
vt 0.955022 0.944693
vt 0.955901 0.944631
vt 0.955240 0.943999
vt 0.952877 0.945202
vt 0.953452 0.945102
vt 0.952624 0.944376
vt 0.955189 0.943562
vt 0.954683 0.942400
vt 0.954737 0.943624
vt 0.951064 0.940936
vt 0.949987 0.940717
vt 0.953894 0.944319
vt 0.953586 0.944321
vt 0.954294 0.944374
vt 0.955947 0.946297
vt 0.955975 0.946270
vt 0.956244 0.946900
vt 0.955768 0.944205
vt 0.956353 0.943937
vt 0.955867 0.944077
vt 0.956197 0.944785
vt 0.956231 0.944993
vt 0.956515 0.945299
vt 0.954988 0.947923
vt 0.955238 0.947949
vt 0.954310 0.946761
vt 0.956155 0.946413
vt 0.956719 0.946442
vt 0.956080 0.945382
vt 0.950274 0.942992
vt 0.950394 0.943029
vt 0.954240 0.945080
vt 0.954996 0.945643
vt 0.956159 0.943431
vt 0.956039 0.943772
vt 0.956069 0.943701
vt 0.957045 0.943346
vt 0.957004 0.943617
vt 0.957074 0.943456
vt 0.955502 0.946447
vt 0.955745 0.946761
vt 0.956245 0.947337
vt 0.952085 0.941496
vt 0.952218 0.941541
vt 0.954643 0.942910
vt 0.954793 0.943467
vt 0.955197 0.943401
vt 0.955015 0.944629
vt 0.955936 0.944549
vt 0.955236 0.943916
vt 0.952131 0.942640
vt 0.953956 0.942685
vt 0.953068 0.942541
vt 0.950867 0.941718
vt 0.951015 0.941711
vt 0.953492 0.944963
vt 0.953774 0.945107
vt 0.951702 0.943478
vt 0.951524 0.943484
vt 0.951767 0.943528
vt 0.954942 0.947944
vt 0.955166 0.947964
vt 0.954220 0.946748
vt 0.956861 0.944533
vt 0.956863 0.944609
vt 0.956464 0.942827
vt 0.956417 0.942720
vt 0.956462 0.942877
vt 0.951892 0.943142
vt 0.952641 0.944005
vt 0.953432 0.944589
vt 0.957368 0.944268
vt 0.957345 0.944550
vt 0.957322 0.944216
vt 0.953893 0.943327
vt 0.954058 0.943518
vt 0.954092 0.943410
vt 0.945325 0.075174
vt 0.945911 0.075168
vt 0.945582 0.075100
vt 0.954456 0.942199
vt 0.954631 0.942307
vt 0.954588 0.942228
vt 0.947524 0.080246
vt 0.947328 0.080095
vt 0.947534 0.078907
vt 0.947565 0.078963
vt 0.947677 0.079056
vt 0.948991 0.079769
vt 0.948982 0.079915
vt 0.949084 0.079583
vt 0.947311 0.079978
vt 0.947214 0.079863
vt 0.947035 0.079857
vt 0.945623 0.076898
vt 0.945889 0.076869
vt 0.945676 0.076711
vt 0.946974 0.077221
vt 0.947014 0.077278
vt 0.945117 0.076436
vt 0.945206 0.076672
vt 0.945422 0.076790
vt 0.943035 0.074459
vt 0.942852 0.074599
vt 0.947667 0.074599
vt 0.947344 0.074459
vt 0.947583 0.074603
vt 0.946666 0.078351
vt 0.946580 0.078182
vt 0.946475 0.078294
vt 0.946619 0.077465
vt 0.946765 0.077465
vt 0.946661 0.077403
vt 0.947522 0.078182
vt 0.947604 0.078351
vt 0.947737 0.078293
vt 0.953219 0.942796
vt 0.955420 0.944643
vt 0.951632 0.940616
vt 0.954818 0.943935
vt 0.954010 0.944320
vt 0.953599 0.944649
vn -0.102400 0.989500 0.102400
vn -0.000000 0.994700 0.103000
vn -0.472300 -0.328500 0.818000
vn -0.499900 0.017200 0.865900
vn -0.944500 -0.328500 0.000000
vn -0.231500 -0.886300 0.401000
vn 0.472300 -0.328500 0.818000
vn -0.999900 0.017200 -0.000000
vn 0.229600 -0.888300 0.397700
vn -0.208400 -0.867400 0.451800
vn 0.499900 0.017200 0.865900
vn -0.208800 0.908700 0.361600
vn -0.472300 -0.328500 -0.818000
vn -0.465000 -0.885300 -0.000000
vn 0.208700 -0.871100 0.444400
vn -0.503100 -0.862500 -0.054000
vn 0.944500 -0.328500 0.000000
vn -0.285700 0.958300 -0.000000
vn -0.499900 0.017200 -0.865900
vn 0.142800 0.958300 0.247400
vn -0.232500 -0.885300 -0.402700
vn 0.465300 -0.885200 -0.000000
vn 0.999900 0.017200 0.000000
vn -0.270300 0.962700 -0.012000
vn 0.147600 0.965900 0.212800
vn -0.258700 -0.876800 -0.405300
vn 0.472300 -0.328500 -0.818000
vn 0.480200 -0.876900 0.020400
vn 0.107800 0.994100 -0.008200
vn -0.195600 0.920300 -0.338700
vn 0.499900 0.017200 -0.865900
vn 0.399100 0.916900 -0.000000
vn -0.084500 0.988200 -0.127800
vn 0.232600 -0.885200 -0.402900
vn 0.222400 -0.876900 -0.426100
vn 0.088200 0.996100 -0.002000
vn -0.041000 0.995500 -0.085200
vn 0.111900 0.963100 -0.244600
vn 0.150300 0.953800 -0.260300
vn -0.051800 0.998100 -0.033900
vn -0.664200 -0.716800 -0.212100
vn -0.070400 0.989500 0.126400
vn 0.160600 -0.672200 0.722700
vn 0.622400 -0.709100 -0.331400
vn -0.654800 -0.467100 -0.594100
vn -0.728400 -0.320300 0.605700
vn 0.413300 -0.562800 0.715800
vn 0.826600 -0.562800 0.000000
vn 0.413300 -0.562800 -0.715800
vn 0.268900 0.862100 0.429600
vn 0.268900 0.862100 -0.429600
vn -0.249400 0.866800 -0.431900
vn -0.498700 0.866800 0.000000
vn -0.249400 0.866800 0.431900
vn 0.232600 -0.885200 -0.403000
usemtl Material.019
s 1
f 1/1/1 2/2/1 3/3/1
f 2/2/2 1/1/2 4/4/2
f 5/5/3 6/6/3 7/7/3
f 8/8/3 5/9/3 7/10/3
f 6/11/4 5/12/4 9/13/4
f 7/14/5 6/15/5 10/16/5
f 8/17/6 7/18/6 12/19/6
f 13/20/7 5/21/7 8/22/7
f 10/23/8 6/24/8 9/25/8
f 5/26/4 14/27/4 9/28/4
f 15/29/5 7/30/5 10/31/5
f 8/32/9 17/33/9 18/33/9
f 12/34/10 7/35/10 19/36/10
f 16/37/7 13/38/7 8/39/7
f 5/40/11 13/41/11 14/42/11
f 20/43/8 10/44/8 9/45/8
f 9/46/12 14/47/12 21/48/12
f 15/13/13 10/49/13 22/50/13
f 23/51/14 7/52/14 15/53/14
f 25/54/15 16/55/15 18/54/15
f 19/56/16 7/57/16 23/58/16
f 26/59/17 13/60/17 16/61/17
f 13/62/11 27/63/11 14/64/11
f 20/65/18 9/66/18 21/67/18
f 28/68/19 10/69/19 20/70/19
f 14/71/20 27/72/20 21/73/20
f 15/74/21 22/75/21 29/76/21
f 10/77/13 28/78/13 22/78/13
f 30/79/22 31/80/22 16/81/22
f 31/82/17 26/83/17 16/84/17
f 13/85/23 26/86/23 27/87/23
f 32/88/24 20/89/24 21/90/24
f 33/91/19 28/92/19 20/93/19
f 27/94/25 34/95/25 21/96/25
f 22/97/26 35/98/26 36/98/26
f 22/12/27 28/99/27 26/100/27
f 31/101/28 30/102/28 38/103/28
f 31/104/27 22/105/27 26/106/27
f 26/107/23 39/108/23 27/109/23
f 32/110/29 21/111/29 40/111/29
f 33/112/30 20/113/30 32/114/30
f 26/115/31 28/116/31 33/117/31
f 27/118/32 39/119/32 34/120/32
f 21/121/33 34/122/33 41/121/33
f 4/123/34 1/123/34 22/124/34
f 42/125/35 31/126/35 37/127/35
f 39/128/31 26/129/31 33/130/31
f 43/131/36 32/132/36 40/131/36
f 40/133/37 21/134/37 41/135/37
f 33/136/38 32/137/38 34/138/38
f 39/139/39 33/140/39 34/141/39
f 34/142/40 43/143/40 41/144/40
f 43/145/41 40/146/41 44/147/41
f 34/148/42 32/149/42 43/150/42
f 40/151/43 41/151/43 45/152/43
f 41/153/44 43/154/44 46/155/44
f 43/156/45 44/157/45 47/158/45
f 44/159/46 40/160/46 45/161/46
f 41/162/47 48/163/47 45/164/47
f 48/165/48 41/165/48 46/166/48
f 43/167/49 47/168/49 46/169/49
f 47/170/50 44/171/50 49/171/50
f 44/172/51 45/173/51 49/174/51
f 45/175/52 48/176/52 49/177/52
f 48/178/53 46/179/53 49/180/53
f 46/181/54 47/182/54 49/183/54
f 11/184/6 8/17/6 12/19/6
f 18/33/9 16/185/9 8/32/9
f 8/32/9 11/33/9 17/33/9
f 24/186/14 23/51/14 15/53/14
f 24/187/21 15/74/21 29/76/21
f 25/188/22 30/79/22 16/81/22
f 29/98/26 22/97/26 36/98/26
f 37/103/28 31/101/28 38/103/28
f 35/72/55 22/124/34 3/72/55
f 31/189/34 42/123/34 4/123/34
f 3/72/55 22/124/34 1/123/34
f 31/189/34 4/123/34 22/124/34
