# Blender v2.76 (sub 0) OBJ File: ''
# www.blender.org
mtllib DeadTree.mtl
o Cylinder_Cylinder.008
v 3.240914 -0.520409 1.638408
v 3.117658 -0.520274 1.526962
v 3.113967 -1.947475 1.599119
v 3.294831 -1.947475 1.686218
v 3.475695 -1.947475 1.599118
v 3.404771 -0.527310 1.611656
v 3.238403 0.412829 1.797907
v 3.129346 0.428695 1.673541
v 3.069297 -1.947475 1.403407
v 3.194459 -1.947475 1.246460
v 3.395203 -1.947475 1.246460
v 3.520365 -1.947475 1.403407
v 3.127817 -0.527006 1.361240
v 3.404269 0.420873 1.791914
v 3.263741 -0.535536 1.266034
v 3.423076 -0.539441 1.313036
v 3.485840 -0.535780 1.466853
v 3.159220 0.456524 1.512466
v 3.235240 0.989665 1.676068
v 3.233083 1.382785 1.593033
v 3.127755 1.380806 1.502179
v 3.235659 0.913194 1.692220
v 3.220647 0.947998 1.668409
v 3.230189 0.971693 1.674146
v 3.369617 1.374333 1.567740
v 3.318013 0.996191 1.658261
v 3.320122 0.992321 1.659122
v 3.356372 0.954622 1.667124
v 3.353266 0.943158 1.669907
v 3.354655 0.884334 1.683756
v 3.348255 0.882405 1.684369
v 3.304510 0.848704 1.693403
v 3.299208 0.853051 1.692508
v 3.298522 0.853367 1.692451
v 3.502044 0.446770 1.660074
v 3.240556 0.889718 1.696233
v 3.238460 0.904878 1.693430
v 3.250315 1.018668 1.666920
v 3.269153 1.011147 1.664779
v 3.311403 1.009104 1.656831
v 3.434543 1.361815 1.445346
v 3.305529 0.475360 1.435974
v 3.458100 0.471019 1.501666
v 3.132946 1.369887 1.363592
v 3.307201 2.441046 1.424090
v 3.261178 2.440182 1.384392
v 3.366859 2.437353 1.413038
v 3.395228 2.431883 1.359558
v 3.378971 1.354656 1.318015
v 3.263447 2.435411 1.323836
v 3.334210 2.774487 1.357372
v 3.316020 2.774146 1.341681
v 3.357789 2.773028 1.353004
v 3.370946 2.428756 1.303922
v 3.369001 2.770866 1.331866
v 3.244748 1.358248 1.281631
v 3.312298 2.430325 1.288024
v 3.316916 2.772260 1.317747
v 3.359404 2.769630 1.309877
v 3.336224 2.770250 1.303593
v 3.220838 1.153710 1.942712
v 3.179466 1.168778 1.914712
v 3.175773 1.339537 2.170361
v 3.137553 1.361728 2.142622
v 3.270864 1.167280 1.936723
v 3.226264 1.352545 2.172396
v 3.177902 1.201136 1.873808
v 3.140385 1.402406 2.110066
v 3.116812 1.607044 2.318258
v 3.081701 1.618549 2.294954
v 3.158547 1.618323 2.312001
v 3.291875 1.199268 1.901255
v 3.251006 1.390955 2.147193
v 3.175480 1.643893 2.280893
v 3.217324 1.226419 1.850801
v 3.182135 1.430941 2.097208
v 3.079654 1.644176 2.259636
v 3.078766 1.892709 2.493563
v 3.063424 1.897737 2.483380
v 3.097002 1.897638 2.490828
v 3.104401 1.908811 2.477236
v 3.268047 1.225588 1.863016
v 3.231366 1.425845 2.113731
v 3.154859 1.664500 2.248360
v 3.062530 1.908934 2.467948
v 3.067493 1.985649 2.545612
v 3.061429 1.987636 2.541587
v 3.074701 1.987597 2.544531
v 3.095390 1.917815 2.463021
v 3.077625 1.992013 2.539159
v 3.112212 1.664626 2.238900
v 3.076756 1.917870 2.458887
v 3.061076 1.992061 2.535488
v 3.074064 1.995571 2.533541
v 3.066699 1.995593 2.531907
vt 0.190855 0.409605
vt 0.168520 0.409605
vt 0.168520 0.387270
vt 0.170957 0.391475
vt 0.174842 0.408499
vt 0.188418 0.391475
vt 0.190855 0.387270
vt 0.168520 0.398438
vt 0.171791 0.406334
vt 0.190855 0.398438
vt 0.174104 0.388766
vt 0.185271 0.408109
vt 0.179688 0.387270
vt 0.173124 0.407472
vt 0.190308 0.394987
vt 0.184533 0.408499
vt 0.186251 0.407472
vt 0.168800 0.400922
vt 0.190575 0.400922
vt 0.187584 0.390541
vt 0.171791 0.390541
vt 0.179688 0.409605
vt 0.187584 0.406334
vt 0.185271 0.388766
vt 0.170016 0.392854
vt 0.174104 0.408109
vt 0.189359 0.392854
vt 0.170016 0.404021
vt 0.189359 0.404021
vt 0.169067 0.394987
vn -0.651900 0.037100 0.757400
vn -0.670100 0.039200 0.741200
vn -0.452300 0.015700 0.891700
vn 0.415200 0.015600 0.909600
vn 0.433800 0.013700 0.900900
vn 0.186100 0.037100 0.981800
vn -0.676500 -0.106500 0.728700
vn -0.754200 -0.112600 0.647000
vn -0.745300 -0.111900 0.657300
vn 0.000000 -1.000000 -0.000000
vn -0.998600 0.037100 -0.037600
vn -0.997300 0.039200 -0.062700
vn -0.979200 0.015700 0.202300
vn 0.139600 -0.182900 0.973200
vn 0.150800 -0.184600 0.971200
vn 0.055800 -0.170100 0.983800
vn -0.768600 0.015600 -0.639600
vn -0.781800 0.013700 -0.623400
vn -0.592400 0.037200 -0.804800
vn 0.020900 0.015800 -0.999700
vn 0.000000 0.013900 -0.999900
vn 0.259400 0.037500 -0.965000
vn 0.794500 0.015900 -0.607000
vn 0.781800 0.014000 -0.623400
vn 0.915400 0.037500 -0.400700
vn 0.970000 0.015800 0.242500
vn 0.974800 0.013800 0.222500
vn 0.884200 0.037300 0.465500
vn -0.996400 0.041300 -0.073800
vn -0.983700 0.039200 -0.175700
vn -0.985700 0.039500 -0.163500
vn -0.657200 0.147600 0.739100
vn -0.729700 0.134900 0.670300
vn -0.699700 0.127700 0.702900
vn 0.024000 0.229600 0.973000
vn 0.024100 0.229700 0.973000
vn 0.859500 -0.110600 0.499000
vn 0.864400 -0.110700 0.490400
vn 0.814900 -0.109700 0.569100
vn 0.190500 0.203900 0.960300
vn 0.190400 0.203900 0.960300
vn 0.190600 0.203900 0.960300
vn 0.868700 0.170300 0.465100
vn 0.775000 0.171200 0.608400
vn 0.784100 0.171300 0.596500
vn -0.551500 0.158800 -0.818900
vn -0.473100 0.148600 -0.868400
vn -0.482700 0.149900 -0.862800
vn 0.383700 0.154700 -0.910400
vn 0.394400 0.155400 -0.905700
vn 0.294400 0.148500 -0.944100
vn 0.961100 0.036000 -0.273900
vn 0.964400 0.035600 -0.262100
vn 0.929100 0.038300 -0.367700
vn -0.998100 -0.034500 -0.050400
vn -0.998800 -0.034400 -0.034700
vn -0.983700 -0.035400 -0.176100
vn -0.646100 0.164200 0.745400
vn 0.188800 0.141900 0.971700
vn 0.884200 0.069500 0.461900
vn 0.922000 -0.000100 -0.387100
vn 0.963900 0.008700 -0.266100
vn 0.960900 0.007900 -0.276900
vn -0.991700 0.119700 -0.046600
vn -0.642100 0.200100 0.740000
vn 0.189900 0.177800 0.965600
vn 0.916500 0.001600 -0.400100
vn 0.882900 0.105700 0.457500
vn -0.577200 -0.175900 -0.797400
vn -0.593800 -0.178100 -0.784700
vn -0.455900 -0.158800 -0.875700
vn 0.375500 -0.154000 -0.914000
vn 0.255000 -0.149500 -0.955300
vn 0.269200 -0.150100 -0.951300
vn -0.587900 0.041900 -0.807900
vn -0.986600 0.155700 -0.049200
vn 0.261300 -0.010700 -0.965200
vn 0.261400 -0.010700 -0.965200
vn 0.915100 0.038000 -0.401500
vn -0.584100 0.078100 -0.807900
vn 0.047400 0.995900 -0.076700
vn 0.262200 0.025700 -0.964700
vn -0.585900 -0.603100 0.541200
vn -0.585900 -0.603100 0.541300
vn 0.504700 -0.459100 0.731100
vn -0.575200 -0.674700 0.462500
vn -0.658200 -0.641800 0.393500
vn -0.648600 -0.646200 0.402200
vn -0.345700 -0.624300 0.700500
vn -0.345700 -0.624200 0.700600
vn 0.253900 -0.601800 0.757200
vn 0.262100 -0.732700 0.628100
vn 0.273100 -0.730500 0.625900
vn 0.178700 -0.746000 0.641600
vn -0.985100 -0.151400 -0.082100
vn 0.969100 0.077900 0.233800
vn -0.991600 -0.111900 -0.064600
vn -0.988600 -0.045700 -0.143100
vn -0.989600 -0.053700 -0.133800
vn -0.595900 -0.500200 0.628200
vn -0.586200 -0.503800 0.634500
vn -0.673600 -0.467100 0.572800
vn 0.229000 -0.429600 0.873500
vn 0.245800 -0.426900 0.870200
vn 0.094800 -0.446200 0.889900
vn -0.941700 -0.293100 0.165300
vn 0.903500 -0.147100 0.402600
vn 0.910200 -0.238100 0.339000
vn 0.914200 -0.231700 0.332500
vn 0.873100 -0.290800 0.391400
vn 0.868800 -0.005600 0.495100
vn 0.790600 -0.114500 0.601600
vn 0.798400 -0.105100 0.592900
vn -0.642200 0.414700 -0.644700
vn 0.697900 0.582600 -0.416600
vn -0.647100 0.537500 -0.540700
vn -0.573300 0.576500 -0.582200
vn -0.582400 0.572100 -0.577500
vn -0.978300 -0.183600 -0.095900
vn -0.977500 -0.193700 -0.083900
vn -0.976200 -0.101000 -0.191800
vn -0.589000 -0.478200 0.651400
vn -0.589100 -0.478200 0.651400
vn 0.255700 -0.480700 0.838800
vn 0.900600 -0.075600 0.428100
vn -0.834500 0.285000 -0.471700
vn 0.871800 0.418000 -0.255500
vn 0.871700 0.417900 -0.255700
vn 0.871800 0.418000 -0.255600
vn 0.869400 0.441000 -0.222700
vn 0.864200 0.447200 -0.230700
vn 0.910300 0.385300 -0.151600
vn 0.867000 0.423500 -0.262500
vn 0.918400 0.360500 -0.163200
vn 0.914500 0.366300 -0.172000
vn -0.997500 -0.070000 0.007000
vn -0.591700 -0.447400 0.670600
vn -0.591700 -0.447300 0.670600
vn 0.250200 -0.449800 0.857400
vn 0.860000 0.432000 -0.271500
vn 0.892800 -0.046100 0.448100
vn 0.892800 -0.046200 0.448000
vn 0.184600 0.667700 -0.721200
vn -0.104800 0.674800 -0.730500
vn 0.262200 0.771200 -0.580100
vn 0.273000 0.770700 -0.575700
vn 0.172300 0.771100 -0.612900
vn -0.614100 0.269800 -0.741700
vn -0.628800 0.256900 -0.733900
vn -0.505600 0.355700 -0.786000
vn -0.662100 0.436500 -0.609200
vn -0.998800 -0.040600 0.028400
vn -0.998800 -0.040500 0.028400
vn -0.127900 0.799200 0.587300
vn -0.128000 0.799200 0.587300
vn 0.164600 0.659900 -0.733100
vn 0.852400 0.459700 -0.249100
vn 0.197100 0.548800 -0.812400
vn 0.317400 0.541100 -0.778800
vn 0.305500 0.542200 -0.782700
vn -0.664500 0.464200 -0.585600
vn 0.159300 0.686800 -0.709100
vn 0.159400 0.686800 -0.709100
vn -0.433800 0.013800 0.900900
vn 0.162600 0.039200 0.985900
vn -0.667000 -0.105700 0.737500
vn -0.974800 0.013800 0.222500
vn 0.043700 -0.168200 0.984800
vn -0.571600 0.039400 -0.819600
vn 0.283600 0.039700 -0.958100
vn 0.924800 0.039600 -0.378300
vn 0.872900 0.039300 0.486400
vn -0.997200 0.041500 -0.062800
vn -0.736400 0.136100 0.662700
vn -0.698800 0.122800 0.704700
vn -0.647000 0.154200 0.746700
vn -0.736200 0.136000 0.662900
vn 0.024500 0.230100 0.972800
vn 0.026400 0.232300 0.972300
vn 0.023900 0.229500 0.973000
vn 0.024200 0.229700 0.973000
vn 0.024000 0.229700 0.973000
vn 0.808600 -0.109500 0.578100
vn 0.190300 0.204000 0.960300
vn 0.190500 0.203800 0.960300
vn 0.877600 0.169900 0.448200
vn -0.559600 0.159800 -0.813200
vn 0.283200 0.147600 -0.947600
vn 0.924900 0.038600 -0.378300
vn -0.981500 -0.035500 -0.188200
vn 0.916500 -0.001000 -0.400000
vn -0.441700 -0.156700 -0.883400
vn 0.387000 -0.154300 -0.909100
vn 0.047500 0.995900 -0.076600
vn -0.565100 -0.678000 0.470100
vn -0.345700 -0.624900 0.700000
vn 0.166600 -0.747400 0.643100
vn -0.991300 -0.118900 -0.056100
vn -0.680800 -0.463600 0.567100
vn 0.079400 -0.447600 0.890700
vn 0.867700 -0.297600 0.398200
vn 0.876000 0.006600 0.482300
vn -0.654700 0.533100 -0.536000
vn -0.975200 -0.092900 -0.200900
vn 0.871400 0.417300 -0.257900
vn 0.914700 0.378100 -0.142700
vn 0.860600 0.429900 -0.273100
vn 0.161100 0.770600 -0.616600
vn -0.492700 0.364900 -0.790000
vn -0.127800 0.799300 0.587200
vn -0.128100 0.799200 0.587300
vn 0.852400 0.459800 -0.249100
vn 0.182500 0.549100 -0.815600
usemtl Material.023
s 1
f 1/1/1 2/2/2 3/3/3
f 4/1/4 5/2/5 6/3/6
f 1/1/7 7/2/8 8/3/9
f 3/4/10 10/5/10 5/6/10
f 2/1/11 13/2/12 9/3/13
f 1/2/14 6/3/15 14/7/16
f 10/1/17 9/2/18 13/3/19
f 11/1/20 10/2/21 15/3/22
f 12/1/23 11/2/24 16/3/25
f 5/1/26 12/2/27 17/3/28
f 2/1/29 8/2/30 18/3/31
f 21/8/32 8/9/33 23/10/34
f 14/11/35 30/12/36 32/10/36
f 6/2/37 17/3/38 35/7/39
f 7/13/40 36/14/40 22/15/41
f 25/4/40 38/16/40 40/6/42
f 25/1/43 14/2/44 35/3/45
f 13/1/46 18/2/47 42/3/48
f 42/2/49 43/3/50 16/7/51
f 43/2/52 35/3/53 17/7/54
f 21/2/55 44/3/56 18/7/57
f 21/1/58 20/2/58 45/3/58
f 25/2/59 47/3/59 45/7/59
f 41/2/60 48/3/60 47/7/60
f 41/1/61 35/2/62 43/3/63
f 44/1/64 21/2/64 46/3/64
f 46/1/65 45/2/65 51/3/65
f 47/2/66 53/3/66 51/7/66
f 49/2/67 54/3/67 48/7/67
f 48/2/68 55/3/68 53/7/68
f 44/2/69 56/3/70 42/7/71
f 42/1/72 56/2/73 49/3/74
f 44/2/75 50/3/75 57/7/75
f 46/2/76 52/3/76 58/7/76
f 49/1/77 56/2/77 57/3/78
f 54/2/79 59/3/79 55/7/79
f 50/2/80 58/3/80 60/7/80
f 59/4/81 52/16/81 55/13/81
f 54/1/82 57/2/82 60/3/82
f 61/2/83 62/3/83 33/7/84
f 31/1/85 61/2/85 32/3/85
f 61/1/86 63/2/87 64/3/88
f 33/1/89 62/2/90 36/3/90
f 65/2/91 61/3/91 31/7/91
f 61/2/92 65/3/93 66/7/94
f 62/2/95 67/3/95 37/7/95
f 29/1/96 65/2/96 30/3/96
f 62/1/97 64/2/98 68/3/99
f 69/2/100 70/3/101 64/7/102
f 71/2/103 69/3/104 63/7/105
f 67/2/106 23/3/106 22/7/106
f 28/1/107 72/2/107 65/3/107
f 65/2/108 72/3/109 73/7/110
f 71/1/111 66/2/112 73/3/113
f 67/2/114 75/3/114 24/7/114
f 27/1/115 72/2/115 28/3/115
f 67/1/116 68/2/117 76/3/118
f 70/2/119 77/3/120 68/7/121
f 70/1/122 69/2/122 78/3/123
f 71/2/124 80/3/124 78/7/124
f 71/1/125 74/2/125 81/3/125
f 75/2/126 38/3/126 19/7/126
f 72/14/127 27/17/128 40/13/129
f 72/2/130 82/3/131 83/7/132
f 74/1/133 73/2/134 83/3/135
f 70/2/136 79/3/136 85/7/136
f 79/1/137 78/2/137 86/3/138
f 80/2/139 88/3/139 86/7/139
f 84/2/140 89/3/140 81/7/140
f 80/1/141 81/2/141 90/3/142
f 38/1/143 75/2/143 82/3/143
f 39/1/144 82/2/144 40/3/144
f 76/2/145 83/3/146 82/7/147
f 77/2/148 91/3/149 76/7/150
f 91/1/151 77/2/151 85/3/151
f 79/2/152 87/3/153 93/7/153
f 90/4/154 95/5/155 86/6/154
f 84/1/156 91/2/156 92/3/156
f 81/1/157 89/2/157 94/3/157
f 84/1/158 83/2/159 76/3/160
f 92/1/161 85/2/161 93/3/161
f 92/2/162 95/3/163 94/7/163
f 4/7/164 1/1/1 3/3/3
f 1/7/165 4/1/4 6/3/6
f 2/7/166 1/1/7 8/3/9
f 5/6/10 4/13/10 3/4/10
f 3/4/10 9/18/10 10/5/10
f 10/5/10 11/16/10 5/6/10
f 12/19/10 5/6/10 11/16/10
f 3/7/167 2/1/11 9/3/13
f 7/1/168 1/2/14 14/7/16
f 15/7/169 10/1/17 13/3/19
f 16/7/170 11/1/20 15/3/22
f 17/7/171 12/1/23 16/3/25
f 6/7/172 5/1/26 17/3/28
f 13/7/173 2/1/29 18/3/31
f 24/20/174 19/13/175 23/10/34
f 20/21/176 21/8/32 19/13/175
f 8/9/33 7/22/177 22/23/177
f 23/10/34 19/13/175 21/8/32
f 8/9/33 22/23/177 23/10/34
f 34/24/178 7/13/35 32/10/36
f 25/25/35 26/8/35 28/26/35
f 33/27/179 34/24/178 32/10/36
f 26/8/35 27/28/180 28/26/35
f 32/10/36 7/13/35 14/11/35
f 14/11/35 25/25/35 28/26/35
f 28/26/35 29/22/181 30/12/36
f 30/12/36 31/29/182 32/10/36
f 14/11/35 28/26/35 30/12/36
f 14/1/183 6/2/37 35/7/39
f 7/13/40 34/30/40 36/14/40
f 37/17/184 22/15/41 36/14/40
f 40/6/42 26/13/42 25/4/40
f 25/4/40 20/18/40 38/16/40
f 38/16/40 39/19/185 40/6/42
f 20/18/40 19/5/40 38/16/40
f 41/7/186 25/1/43 35/3/45
f 15/7/187 13/1/46 42/3/48
f 15/1/188 42/2/49 16/7/51
f 16/1/189 43/2/52 17/7/54
f 8/1/190 21/2/55 18/7/57
f 46/7/58 21/1/58 45/3/58
f 20/1/59 25/2/59 45/7/59
f 25/1/60 41/2/60 47/7/60
f 49/7/191 41/1/61 43/3/63
f 50/7/64 44/1/64 46/3/64
f 52/7/65 46/1/65 51/3/65
f 45/1/66 47/2/66 51/7/66
f 41/1/67 49/2/67 48/7/67
f 47/1/68 48/2/68 53/7/68
f 18/1/192 44/2/69 42/7/71
f 43/7/193 42/1/72 49/3/74
f 56/1/75 44/2/75 57/7/75
f 50/1/76 46/2/76 58/7/76
f 54/7/78 49/1/77 57/3/78
f 48/1/79 54/2/79 55/7/79
f 57/1/80 50/2/80 60/7/80
f 53/6/81 55/13/81 51/19/194
f 59/4/81 60/18/81 58/5/81
f 58/5/81 52/16/81 59/4/81
f 51/19/194 55/13/81 52/16/81
f 59/7/82 54/1/82 60/3/82
f 32/1/84 61/2/83 33/7/84
f 62/7/195 61/1/86 64/3/88
f 34/7/196 33/1/89 36/3/90
f 30/1/91 65/2/91 31/7/91
f 63/1/197 61/2/92 66/7/94
f 36/1/95 62/2/95 37/7/95
f 67/7/198 62/1/97 68/3/99
f 63/1/199 69/2/100 64/7/102
f 66/1/200 71/2/103 63/7/105
f 37/1/106 67/2/106 22/7/106
f 29/7/107 28/1/107 65/3/107
f 66/1/201 65/2/108 73/7/110
f 74/7/202 71/1/111 73/3/113
f 23/1/114 67/2/114 24/7/114
f 75/7/203 67/1/116 76/3/118
f 64/1/204 70/2/119 68/7/121
f 79/7/123 70/1/122 78/3/123
f 69/1/124 71/2/124 78/7/124
f 80/7/125 71/1/125 81/3/125
f 24/1/126 75/2/126 19/7/126
f 26/15/205 40/13/129 27/17/128
f 82/30/127 72/14/127 40/13/129
f 73/1/206 72/2/130 83/7/132
f 84/7/207 74/1/133 83/3/135
f 77/1/136 70/2/136 85/7/136
f 87/7/138 79/1/137 86/3/138
f 78/1/139 80/2/139 86/7/139
f 74/1/140 84/2/140 81/7/140
f 88/7/142 80/1/141 90/3/142
f 39/7/143 38/1/143 82/3/143
f 75/1/208 76/2/145 82/7/147
f 68/1/209 77/2/148 76/7/150
f 92/7/151 91/1/151 85/3/151
f 85/1/152 79/2/152 93/7/153
f 86/6/154 88/13/155 90/4/154
f 90/4/154 94/18/210 95/5/155
f 95/5/155 93/16/211 87/19/154
f 87/19/154 86/6/154 95/5/155
f 89/7/156 84/1/156 92/3/156
f 90/7/212 81/1/157 94/3/157
f 91/7/213 84/1/158 76/3/160
f 95/7/161 92/1/161 93/3/161
f 89/1/162 92/2/162 94/7/163
