# Blender v2.76 (sub 0) OBJ File: ''
# www.blender.org
mtllib Pyramid.mtl
o Cube.002_Cube.009
v 1.862619 -1.070001 -0.962055
v 1.862619 -1.070001 1.012012
v 1.853996 -1.163481 1.003389
v 1.853996 -1.163481 -0.953432
v -0.111448 -1.070001 1.012012
v -0.102824 -1.163481 1.003389
v -0.111448 -1.070001 -0.962055
v -0.102824 -1.163481 -0.953432
v 0.721263 0.538082 -0.129345
v 0.721263 0.538082 0.179302
v 1.029909 0.538082 0.179302
v 1.029909 0.538082 -0.129345
v -0.090825 -0.749060 -0.941432
v 1.841997 -0.749060 -0.941432
v -0.090825 -0.749060 0.991390
v 1.841997 -0.749060 0.991390
v 1.699586 -0.453996 -0.799022
v 1.699586 -0.453996 0.848979
v 1.749574 -0.749060 0.898967
v 1.749574 -0.749060 -0.849010
v 0.051586 -0.453996 0.848979
v 0.001598 -0.749060 0.898967
v 0.051586 -0.453996 -0.799022
v 0.001598 -0.749060 -0.849010
v 0.185335 -0.453996 -0.665272
v 1.565837 -0.453996 -0.665272
v 0.185335 -0.453996 0.715230
v 1.565837 -0.453996 0.715230
v 1.532262 -0.223806 -0.631698
v 1.532262 -0.223806 0.681655
v 0.218909 -0.223806 0.681655
v 0.218909 -0.223806 -0.631698
v 0.316496 -0.223806 -0.534112
v 1.434676 -0.223806 -0.534112
v 0.316496 -0.223806 0.584069
v 1.434676 -0.223806 0.584069
v 1.408915 -0.024462 -0.508350
v 1.408915 -0.024462 0.558308
v 0.342257 -0.024462 0.558308
v 0.342257 -0.024462 -0.508351
v 0.470855 -0.024463 -0.379752
v 1.280317 -0.024462 -0.379752
v 0.470855 -0.024463 0.429709
v 1.280317 -0.024463 0.429709
v 1.277690 0.194842 -0.377126
v 1.277690 0.194842 0.427083
v 0.473481 0.194842 0.427083
v 0.473481 0.194842 -0.377126
v 0.587695 0.194842 -0.262912
v 1.163477 0.194842 -0.262912
v 0.587695 0.194842 0.312869
v 1.163477 0.194842 0.312869
v 1.140771 0.416138 -0.240207
v 1.140771 0.416138 0.290164
v 0.610400 0.416138 0.290164
v 0.610400 0.416138 -0.240207
v 0.715943 0.416138 -0.134664
v 1.035228 0.416138 -0.134664
v 0.715943 0.416138 0.184621
v 1.035228 0.416138 0.184621
vt 0.422463 0.311090
vt 0.422463 0.363252
vt 0.370300 0.363252
vt 0.370300 0.311090
vn 0.995800 -0.091900 0.000000
vn 0.000000 -0.091900 0.995800
vn -0.995800 -0.091900 0.000000
vn 0.000000 -0.091900 -0.995800
vn 0.000000 -1.000000 0.000000
vn 0.000000 1.000000 0.000000
vn 0.000000 0.064100 -0.997900
vn -0.997900 0.064100 -0.000000
vn 0.000000 0.064100 0.997900
vn 0.997900 0.064100 -0.000000
vn 0.986000 0.167000 -0.000000
vn 0.000000 0.167000 0.986000
vn -0.986000 0.167000 -0.000000
vn 0.000000 0.167000 -0.986000
vn 0.989500 0.144300 -0.000000
vn 0.000000 0.144300 0.989500
vn -0.989500 0.144300 -0.000000
vn 0.000000 0.144300 -0.989500
vn 0.991800 0.128200 -0.000000
vn 0.000000 0.128200 0.991800
vn -0.991800 0.128200 -0.000000
vn 0.000000 0.128200 -0.991800
vn 0.999900 0.012000 0.000000
vn 0.000000 0.012000 0.999900
vn -0.999900 0.012000 -0.000000
vn 0.000000 0.012000 -0.999900
vn 0.994800 0.102100 -0.000000
vn 0.000000 0.102100 0.994800
vn -0.994800 0.102100 -0.000000
vn 0.000000 0.102100 -0.994800
vn 0.999000 0.043600 -0.000000
vn 0.999100 0.043600 0.000000
vn 0.000000 0.043600 0.999100
vn -0.999000 0.043600 -0.000000
vn 0.000000 0.043600 -0.999100
usemtl Material.026
s 1
f 2/1/1 3/2/1 4/3/1
f 2/4/2 5/1/2 6/2/2
f 5/4/3 7/1/3 8/2/3
f 1/1/4 4/2/4 8/3/4
f 3/1/5 6/2/5 8/3/5
f 10/1/6 11/2/6 12/3/6
f 13/4/7 14/1/7 1/2/7
f 13/1/8 7/2/8 5/3/8
f 15/1/9 5/2/9 2/3/9
f 14/4/10 16/1/10 2/2/10
f 18/1/11 19/2/11 20/3/11
f 21/1/12 22/2/12 19/3/12
f 23/1/13 24/2/13 22/3/13
f 23/4/14 17/1/14 20/2/14
f 19/1/6 16/2/6 14/3/6
f 19/4/6 22/1/6 15/2/6
f 22/4/6 24/1/6 13/2/6
f 20/1/6 14/2/6 13/3/6
f 26/1/6 17/2/6 23/3/6
f 25/1/6 23/2/6 21/3/6
f 27/1/6 21/2/6 18/3/6
f 26/4/6 28/1/6 18/2/6
f 30/1/15 28/2/15 26/3/15
f 30/4/16 31/1/16 27/2/16
f 31/4/17 32/1/17 25/2/17
f 29/1/18 26/2/18 25/3/18
f 33/4/6 34/1/6 29/2/6
f 33/1/6 32/2/6 31/3/6
f 35/1/6 31/2/6 30/3/6
f 36/1/6 30/2/6 29/3/6
f 37/4/19 38/1/19 36/2/19
f 39/1/20 35/2/20 36/3/20
f 40/1/21 33/2/21 35/3/21
f 37/1/22 34/2/22 33/3/22
f 42/1/6 37/2/6 40/3/6
f 41/1/6 40/2/6 39/3/6
f 43/1/6 39/2/6 38/3/6
f 44/1/6 38/2/6 37/3/6
f 46/1/23 44/2/23 42/3/23
f 46/4/24 47/1/24 43/2/24
f 48/1/25 41/2/25 43/3/25
f 45/1/26 42/2/26 41/3/26
f 49/4/6 50/1/6 45/2/6
f 49/1/6 48/2/6 47/3/6
f 51/1/6 47/2/6 46/3/6
f 52/1/6 46/2/6 45/3/6
f 54/1/27 52/2/27 50/3/27
f 54/4/28 55/1/28 51/2/28
f 56/1/29 49/2/29 51/3/29
f 53/1/30 50/2/30 49/3/30
f 58/1/6 53/2/6 56/3/6
f 57/1/6 56/2/6 55/3/6
f 60/4/6 59/1/6 55/2/6
f 60/1/6 54/2/6 53/3/6
f 12/4/31 11/1/32 60/2/32
f 10/1/33 59/2/33 60/3/33
f 10/4/34 9/1/34 57/2/34
f 9/4/35 12/1/35 58/2/35
f 1/4/1 2/1/1 4/3/1
f 3/3/2 2/4/2 6/2/2
f 6/3/3 5/4/3 8/2/3
f 7/4/4 1/1/4 8/3/4
f 4/4/5 3/1/5 8/3/5
f 9/4/6 10/1/6 12/3/6
f 7/3/7 13/4/7 1/2/7
f 15/4/8 13/1/8 5/3/8
f 16/4/9 15/1/9 2/3/9
f 1/3/10 14/4/10 2/2/10
f 17/4/11 18/1/11 20/3/11
f 18/4/12 21/1/12 19/3/12
f 21/4/13 23/1/13 22/3/13
f 24/3/14 23/4/14 20/2/14
f 20/4/6 19/1/6 14/3/6
f 16/3/6 19/4/6 15/2/6
f 15/3/6 22/4/6 13/2/6
f 24/4/6 20/1/6 13/3/6
f 25/4/6 26/1/6 23/3/6
f 27/4/6 25/1/6 21/3/6
f 28/4/6 27/1/6 18/3/6
f 17/3/6 26/4/6 18/2/6
f 29/4/15 30/1/15 26/3/15
f 28/3/16 30/4/16 27/2/16
f 27/3/17 31/4/17 25/2/17
f 32/4/18 29/1/18 25/3/18
f 32/3/6 33/4/6 29/2/6
f 35/4/6 33/1/6 31/3/6
f 36/4/6 35/1/6 30/3/6
f 34/4/6 36/1/6 29/3/6
f 34/3/19 37/4/19 36/2/19
f 38/4/20 39/1/20 36/3/20
f 39/4/21 40/1/21 35/3/21
f 40/4/22 37/1/22 33/3/22
f 41/4/6 42/1/6 40/3/6
f 43/4/6 41/1/6 39/3/6
f 44/4/6 43/1/6 38/3/6
f 42/4/6 44/1/6 37/3/6
f 45/4/23 46/1/23 42/3/23
f 44/3/24 46/4/24 43/2/24
f 47/4/25 48/1/25 43/3/25
f 48/4/26 45/1/26 41/3/26
f 48/3/6 49/4/6 45/2/6
f 51/4/6 49/1/6 47/3/6
f 52/4/6 51/1/6 46/3/6
f 50/4/6 52/1/6 45/3/6
f 53/4/27 54/1/27 50/3/27
f 52/3/28 54/4/28 51/2/28
f 55/4/29 56/1/29 51/3/29
f 56/4/30 53/1/30 49/3/30
f 57/4/6 58/1/6 56/3/6
f 59/4/6 57/1/6 55/3/6
f 54/3/6 60/4/6 55/2/6
f 58/4/6 60/1/6 53/3/6
f 58/3/32 12/4/31 60/2/32
f 11/4/33 10/1/33 60/3/33
f 59/3/34 10/4/34 57/2/34
f 57/3/35 9/4/35 58/2/35
