# Blender v2.76 (sub 0) OBJ File: ''
# www.blender.org
mtllib Skull.mtl
o Icosphere_Icosphere.001
v -0.485678 0.556120 -0.591610
v -0.142715 0.285962 -0.568262
v -0.473460 0.396130 0.013155
v 0.006482 0.533305 -0.630174
v 0.327424 0.462447 -0.229200
v 0.021354 0.300805 0.199909
v -0.518823 0.868595 0.086526
v -0.503487 0.715267 -0.060271
v -0.484707 0.519672 -0.090646
v -0.245143 0.555985 -0.732738
v -0.218396 0.998442 -0.358936
v 0.282033 0.934278 -0.154731
v 0.235656 0.758411 -0.265536
v 0.126673 0.599823 -0.453578
v 0.280347 0.720594 0.348412
v -0.214602 0.680059 0.497413
v -0.648604 0.870346 0.283903
v -0.395557 0.720555 0.555231
v -0.050405 1.102346 0.253977
v -0.795482 0.798232 0.313807
v -0.607192 0.686774 0.515700
v -0.702562 0.521855 0.286358
v -1.024418 0.609060 0.316315
v -0.921816 0.505685 0.525823
v -0.835632 0.538922 0.315634
v -0.954566 0.218135 0.220142
v -0.946576 0.180754 0.271369
v -0.890351 0.443200 0.244939
v -0.900598 0.201989 0.219477
v 0.565639 0.734217 0.231184
v 0.555121 1.057797 -0.003920
v 0.706812 0.654846 0.193258
v 0.698986 0.895620 0.018319
v 0.650859 0.623029 -0.092449
v 0.908770 0.478867 0.065007
v 0.971201 0.677437 -0.082572
v 0.770224 0.572112 -0.047555
v 0.841934 0.353334 -0.318040
v 0.871923 0.389072 -0.361730
v 0.780429 0.462795 -0.118972
v 0.801568 0.380538 -0.346399
v -0.161263 0.722209 -0.062295
v -0.142483 0.526614 -0.092670
v -0.489766 0.585906 -0.341013
v -0.003823 0.758876 -0.214008
v -0.112805 0.600288 -0.402050
v 0.253609 0.571798 -0.294990
v 0.014130 0.572263 -0.243461
v -0.147541 0.592848 -0.343037
v -0.262701 0.364007 -0.816074
vt 0.409444 0.370140
vt 0.407832 0.370271
vt 0.412255 0.370044
vt 0.407587 0.370632
vt 0.399788 0.367752
vt 0.408649 0.368957
vt 0.413432 0.369791
vt 0.412219 0.370105
vt 0.408574 0.370345
vt 0.410728 0.369779
vt 0.410702 0.370190
vt 0.406512 0.369392
vt 0.405904 0.369373
vt 0.410702 0.367009
vt 0.412318 0.369051
vt 0.404595 0.374080
vt 0.404595 0.372217
vt 0.406655 0.372729
vt 0.120463 0.197916
vt 0.124036 0.198293
vt 0.121982 0.198130
vt 0.411676 0.368937
vt 0.127046 0.198515
vt 0.125207 0.198924
vt 0.119350 0.197176
vt 0.124414 0.198213
vt 0.119287 0.198169
vt 0.135368 0.199923
vt 0.131070 0.199403
vt 0.129317 0.198977
vt 0.131025 0.200338
vt 0.131076 0.199184
vt 0.130997 0.200183
vt 0.131056 0.200094
vt 0.111623 0.206141
vt 0.106820 0.203463
vt 0.109212 0.203461
vt 0.109428 0.203240
vt 0.109632 0.203397
vt 0.109798 0.203679
vt 0.109729 0.202970
vt 0.109407 0.203036
vt 0.109446 0.203069
vt 0.109499 0.203134
vt 0.109304 0.202838
vt 0.109331 0.202902
vt 0.111623 0.200342
vt 0.411906 0.370004
vt 0.411844 0.370060
vt 0.411220 0.370130
vt 0.404214 0.368906
vt 0.405566 0.369402
vt 0.405761 0.369426
vt 0.411607 0.370072
vt 0.408366 0.370390
vn -0.598900 -0.777100 -0.193500
vn 0.619300 -0.520700 -0.587700
vn 0.392000 -0.917600 -0.066000
vn -0.212100 -0.975100 0.064100
vn -0.995500 -0.094800 -0.005000
vn -0.402800 0.604800 -0.687000
vn 0.783800 0.169700 -0.597400
vn 0.752000 -0.576800 0.319100
vn -0.365300 -0.704500 0.608400
vn -0.729700 0.606800 -0.315300
vn 0.367900 0.594700 -0.714800
vn 0.995200 0.089200 0.041200
vn 0.289300 -0.472900 0.832300
vn 0.312200 0.926400 0.210500
vn 0.325500 0.922800 0.205900
vn 0.290400 0.931800 0.217900
vn -0.436900 0.898900 -0.032600
vn 0.211700 0.952400 -0.219500
vn 0.688200 0.666900 0.285500
vn 0.230500 0.417200 0.879100
vn -0.513600 0.569600 0.641700
vn 0.349300 0.592300 -0.726100
vn -0.235700 0.740900 0.628900
vn 0.038800 -0.840500 0.540400
vn 0.007300 -0.808200 0.588900
vn 0.066800 -0.866300 0.495000
vn -0.798100 0.078700 -0.597300
vn -0.759600 0.028000 -0.649800
vn -0.783200 0.058200 -0.619100
vn -0.419100 0.644500 0.639500
vn -0.520100 0.637000 0.569000
vn -0.440100 0.643700 0.626000
vn 0.022400 -0.816100 0.577500
vn -0.211600 0.025900 -0.977000
vn -0.925900 -0.220600 0.306700
vn -0.913100 -0.243600 0.327000
vn -0.975900 -0.096900 0.195700
vn 0.666900 -0.728200 0.158300
vn 0.499300 -0.863700 0.068200
vn 0.586300 -0.802100 0.113600
vn 0.097100 0.270600 -0.957800
vn 0.187200 0.512100 -0.838300
vn 0.068300 0.193400 -0.978700
vn -0.246300 -0.800800 -0.545900
vn 0.957800 -0.182900 0.221700
vn 0.969600 -0.192500 0.151400
vn 0.882200 -0.143800 0.448400
vn -0.248700 0.175900 -0.952500
vn 0.018900 0.104200 -0.994400
vn -0.048600 0.123100 -0.991200
vn -0.333900 0.713900 0.615500
vn 0.116000 0.914100 0.388600
vn -0.132500 0.836800 0.531200
vn 0.483300 0.524800 0.700700
vn 0.345400 0.227100 -0.910600
vn 0.372400 0.263200 -0.890000
vn 0.333200 0.210900 -0.919000
vn 0.643800 0.403400 0.650200
vn 0.679500 0.287900 0.674900
vn 0.651800 0.380500 0.656000
vn 0.438000 0.271000 -0.857200
vn -0.443500 -0.877100 0.184500
vn 0.935000 -0.353600 -0.026600
vn 0.940400 -0.335800 -0.054000
vn 0.890200 -0.440200 0.117200
vn -0.332300 0.341800 -0.879000
vn -0.241800 0.142200 -0.959900
vn -0.288600 0.242700 -0.926200
vn -0.700600 -0.624600 0.344900
vn -0.725600 -0.422500 0.543100
vn -0.682000 -0.675800 0.279600
vn -0.050600 -0.755700 -0.652900
vn -0.584400 0.688600 -0.429400
vn -0.635800 0.638600 -0.433600
vn -0.390000 0.829900 -0.399000
vn -0.417600 -0.844500 0.335300
vn -0.642600 -0.737700 0.207100
vn -0.590500 -0.770200 0.241100
vn 0.249200 -0.884900 0.393400
vn 0.279100 -0.883200 0.376900
vn 0.233600 -0.885400 0.401800
vn -0.008900 0.152600 -0.988200
vn 0.126600 -0.793200 0.595600
vn -0.208200 0.132900 -0.969000
vn 0.033700 0.988500 0.147700
vn 0.020900 -0.907600 0.419200
vn -0.018100 0.966500 0.256000
vn -0.620200 -0.782600 0.053800
vn -0.466300 0.387800 -0.795100
vn 0.381200 0.338600 -0.860300
vn 0.681400 -0.535800 -0.498600
vn 0.279800 0.934200 0.221500
vn 0.080700 -0.878100 0.471700
vn -0.828600 0.124400 -0.545900
vn -0.348800 0.644000 0.680800
vn -0.990600 -0.029000 0.133400
vn 0.768100 -0.601400 0.219800
vn -0.005900 -0.006100 -1.000000
vn 0.764600 -0.099700 0.636700
vn -0.276200 0.182800 -0.943600
vn -0.579900 0.466500 0.668000
vn 0.307400 0.177100 -0.935000
vn 0.614900 0.476500 0.628400
vn 0.855000 -0.481300 0.193100
vn -0.388000 0.478400 -0.787800
vn -0.613600 -0.782300 0.107200
vn -0.187500 0.918000 -0.349500
vn -0.391500 -0.852000 0.347500
vn 0.212000 -0.885700 0.413100
usemtl Material.028
s 1
f 1/1/1 2/2/1 3/3/1
f 2/2/2 4/4/2 5/5/2
f 2/2/3 5/5/3 6/6/3
f 2/2/4 6/6/4 3/3/4
f 3/3/5 7/7/5 8/8/5
f 10/9/6 1/1/6 11/10/6
f 12/11/7 13/12/7 14/13/7
f 6/6/8 5/5/8 15/14/8
f 3/3/9 6/6/9 16/15/9
f 1/1/10 7/7/10 11/10/10
f 4/4/11 11/10/11 12/11/11
f 5/16/12 12/17/12 15/18/12
f 6/6/13 15/14/13 16/15/13
f 7/19/14 17/20/15 18/21/16
f 11/10/17 7/7/17 19/22/17
f 12/11/18 11/10/18 19/22/18
f 15/14/19 12/11/19 19/22/19
f 16/15/20 15/14/20 19/22/20
f 7/7/21 16/15/21 19/22/21
f 4/4/22 10/9/22 11/10/22
f 17/20/23 20/23/23 21/24/23
f 16/25/24 18/21/25 22/26/26
f 7/19/27 3/27/28 22/26/29
f 20/23/30 23/28/31 24/29/32
f 22/26/33 18/21/33 21/24/33
f 22/26/34 25/30/34 20/23/34
f 24/29/35 23/28/36 26/31/37
f 25/30/38 21/24/39 24/29/40
f 25/30/41 28/32/42 23/28/43
f 29/33/44 27/34/44 26/31/44
f 28/32/45 24/29/46 27/34/47
f 28/32/48 29/33/49 26/31/50
f 12/35/51 15/36/52 30/37/53
f 30/37/54 32/38/54 33/39/54
f 12/35/55 31/40/56 34/41/57
f 32/38/58 35/42/59 36/43/60
f 34/41/61 31/40/61 33/39/61
f 34/41/62 37/44/62 32/38/62
f 36/43/63 35/42/64 38/45/65
f 37/44/66 33/39/67 36/43/68
f 37/44/69 40/42/70 35/42/71
f 41/46/72 39/46/72 38/45/72
f 40/42/73 36/43/74 39/46/75
f 40/42/76 41/46/77 38/45/78
f 5/47/79 34/41/80 30/37/81
f 9/48/82 8/8/82 42/49/82
f 7/7/5 1/1/5 44/50/5
f 3/3/5 9/48/5 44/50/5
f 14/13/83 13/12/83 45/13/83
f 5/5/7 47/51/7 13/12/7
f 5/5/7 4/4/7 14/13/7
f 48/52/7 46/53/7 45/13/7
f 13/12/84 47/51/84 48/52/84
f 14/13/85 46/53/85 48/52/85
f 49/54/5 43/49/5 42/49/5
f 44/50/86 49/54/86 42/49/86
f 9/48/87 43/49/87 49/54/87
f 2/2/88 1/1/88 50/55/88
f 1/1/89 10/9/89 50/55/89
f 10/9/90 4/4/90 50/55/90
f 4/4/91 2/2/91 50/55/91
f 9/48/5 3/3/5 8/8/5
f 4/4/7 12/11/7 14/13/7
f 16/25/92 7/19/14 18/21/16
f 18/21/23 17/20/23 21/24/23
f 3/27/93 16/25/24 22/26/26
f 17/20/94 7/19/27 22/26/29
f 21/24/95 20/23/30 24/29/32
f 25/30/33 22/26/33 21/24/33
f 17/20/34 22/26/34 20/23/34
f 27/34/96 24/29/35 26/31/37
f 28/32/97 25/30/38 24/29/40
f 20/23/98 25/30/41 23/28/43
f 29/33/99 28/32/45 27/34/47
f 23/28/100 28/32/48 26/31/50
f 31/40/101 12/35/51 30/37/53
f 31/40/54 30/37/54 33/39/54
f 5/47/102 12/35/55 34/41/57
f 33/39/103 32/38/58 36/43/60
f 37/44/61 34/41/61 33/39/61
f 30/37/62 34/41/62 32/38/62
f 39/46/104 36/43/63 38/45/65
f 40/42/105 37/44/66 36/43/68
f 32/38/106 37/44/69 35/42/71
f 41/46/107 40/42/73 39/46/75
f 35/42/108 40/42/76 38/45/78
f 15/36/109 5/47/79 30/37/81
f 43/49/82 9/48/82 42/49/82
f 8/8/5 7/7/5 44/50/5
f 1/1/5 3/3/5 44/50/5
f 46/53/83 14/13/83 45/13/83
f 12/11/7 5/5/7 13/12/7
f 47/51/7 5/5/7 14/13/7
f 45/13/84 13/12/84 48/52/84
f 47/51/85 14/13/85 48/52/85
f 8/8/86 44/50/86 42/49/86
f 44/50/87 9/48/87 49/54/87
