# Blender v2.76 (sub 0) OBJ File: ''
# www.blender.org
mtllib naturePack_flat_010.mtl
o Mesh4_Flower_Red_Model
v 0.000000 0.210877 0.242963
v -0.217556 0.000000 0.242963
v -0.038001 0.000000 0.242963
v -0.217556 0.107776 0.242963
vt -1.496090 0.000000
vt -8.565200 0.000000
vt 0.000000 8.302230
vt -8.565200 4.243150
vn 0.000000 -0.000000 -1.000000
usemtl Green_leafs.057
s 1
f 3/1/1 2/2/1 1/3/1
f 4/4/1 1/3/1 2/2/1
o Mesh1_Flower_Red_Model
v -0.268370 0.107776 0.242963
v -0.447925 0.000000 0.242963
v -0.268370 0.000000 0.242963
v -0.485926 0.210877 0.242963
vt -10.565700 0.000000
vt -17.634800 0.000000
vt -10.565700 4.243150
vt -19.130899 8.302230
vn 0.000000 -0.000000 -1.000000
usemtl Green_leafs.057
s 1
f 7/5/2 6/6/2 5/7/2
f 8/8/2 5/7/2 6/6/2
o Mesh3_Flower_Red_Model
v -0.242963 0.000000 0.268370
v -0.217556 0.000000 0.242963
v -0.217556 0.000000 0.268370
v -0.217556 0.000000 0.217556
v -0.217556 0.282100 0.268370
v -0.217556 0.282100 0.217556
v -0.268370 0.282100 0.217556
v -0.242963 0.000000 0.217556
v -0.268370 0.000000 0.217556
v -0.268370 0.000000 0.268370
v -0.268370 0.282100 0.268370
v -0.346125 0.282100 0.346125
v -0.139800 0.282100 0.346125
v -0.139800 0.282100 0.139800
v -0.346125 0.282100 0.139800
v -0.268370 0.000000 0.242963
v -0.097504 0.400000 0.388422
v -0.388422 0.400000 0.388422
v -0.388422 0.400000 0.097504
v -0.097504 0.400000 0.097504
vt -8.565200 10.565700
vt -8.565200 9.565470
vt -9.565470 10.565700
vt -8.565200 11.106300
vt -8.565200 0.000000
vt -10.565700 11.106300
vt 8.565200 0.000000
vt 10.565700 11.106300
vt 8.565200 11.106300
vt 9.565470 0.000000
vt 10.565700 0.000000
vt -9.565470 8.565200
vt -10.565700 8.565200
vt -8.565200 8.565200
vt -10.565700 10.565700
vt -9.565470 0.000000
vt -10.565700 0.000000
vt -13.627000 13.627000
vt -10.565700 9.565470
vt -3.838730 13.526800
vt -5.503950 8.595370
vt -15.292200 13.526800
vt -5.503950 5.503950
vt -5.503950 13.627000
vt -13.627000 5.503950
vt -3.838730 19.986900
vt -13.627000 15.055500
vt -5.503950 15.055500
vt -15.292200 19.986900
vt 3.838730 15.292200
vt 15.292200 3.838730
vt 15.292200 15.292200
vt 3.838730 3.838730
vt -13.627000 8.595370
vt 5.503950 8.595370
vt 15.292200 13.526800
vt 3.838730 13.526800
vt 13.627000 8.595370
vt 5.503950 15.055500
vt 15.292200 19.986900
vt 3.838730 19.986900
vt 13.627000 15.055500
vn 0.000000 1.000000 -0.000000
vn -1.000000 -0.000000 0.000000
vn 0.000000 -0.000000 -1.000000
vn 0.000000 -1.000000 0.000000
vn 0.000000 0.000000 1.000000
vn -0.923900 0.000000 0.382700
vn -0.923900 -0.000000 -0.382700
vn -0.923900 -0.270600 0.270600
vn -0.941300 0.337700 0.000000
vn 0.000000 -0.337700 0.941300
vn 0.941300 -0.337700 0.000000
vn 0.000000 -0.337700 -0.941300
vn -0.941300 -0.337700 0.000000
usemtl Green_leafs.057
s 1
f 11/9/3 10/10/3 9/11/3
f 14/12/4 12/13/4 13/14/4
f 12/15/5 15/16/5 14/17/5
f 16/18/5 15/16/5 12/15/5
f 15/16/5 16/18/5 17/19/5
f 16/20/6 9/11/6 17/21/6
f 12/22/3 9/11/3 10/10/3
f 16/20/3 9/11/3 12/22/3
f 18/23/3 9/11/3 17/21/3
f 9/24/7 13/12/7 18/25/7
f 13/12/7 9/24/7 11/13/7
f 18/25/7 13/12/7 19/14/7
f 19/23/3 20/26/3 13/9/3
f 15/17/4 24/18/4 19/16/4
f 24/18/4 15/17/4 17/15/4
f 19/16/4 24/18/4 18/19/4
f 17/21/8 18/23/9 24/27/10
f 28/28/11 22/29/11 25/30/11
f 13/9/3 22/31/3 14/22/3
f 11/25/4 13/14/4 10/24/4
f 10/24/4 13/14/4 12/13/4
usemtl Mushroom_Red.001
f 13/9/6 21/32/6 20/26/6
f 21/32/6 13/9/6 22/31/6
f 22/31/6 14/22/6 23/33/6
f 23/33/6 14/22/6 15/21/6
f 23/33/6 15/21/6 20/26/6
f 19/23/6 20/26/6 15/21/6
f 25/34/12 20/35/12 21/36/12
f 20/35/12 25/34/12 26/37/12
f 25/38/3 27/39/3 26/40/3
f 27/39/3 25/38/3 28/41/3
f 22/29/13 25/30/13 21/42/13
f 22/43/14 27/44/14 28/45/14
f 27/44/14 22/43/14 23/46/14
f 23/47/15 26/48/15 27/49/15
f 26/48/15 23/47/15 20/50/15
o Mesh2_Flower_Red_Model
v -0.242963 0.000000 0.038001
v -0.242963 0.107776 0.217556
v -0.242963 0.210877 -0.000000
v -0.242963 0.000000 0.217556
vt 0.000000 8.302230
vt 8.565200 4.243150
vt 1.496090 0.000000
vt 8.565200 0.000000
vn 1.000000 -0.000000 0.000000
usemtl Green_leafs.057
s 1
f 31/51/16 30/52/16 29/53/16
f 32/54/16 29/53/16 30/52/16
o Mesh5_Flower_Red_Model
v -0.242963 0.000000 0.447925
v -0.242963 0.107776 0.268370
v -0.242963 0.000000 0.268370
v -0.242963 0.210877 0.485926
vt 10.565700 -0.000000
vt 10.565700 4.243150
vt 17.634800 -0.000000
vt 19.130899 8.302230
vn 1.000000 0.000000 0.000000
usemtl Green_leafs.057
s 1
f 35/55/17 34/56/17 33/57/17
f 36/58/17 33/57/17 34/56/17
