# Blender v2.76 (sub 0) OBJ File: ''
# www.blender.org
mtllib naturePack_154.mtl
o Mesh1_Group1_Model.070
v -2.035390 0.480000 -0.000000
v -0.850807 0.890000 0.767791
v -0.484176 0.480000 0.392080
v -1.828070 0.890000 0.520780
v -2.074410 0.890000 0.799133
v -2.426400 0.480000 0.441830
v -2.426400 0.290000 0.441830
v -2.035390 0.290000 -0.000000
v -0.484176 0.290000 0.392080
v 0.000000 0.480000 1.232600
v 0.000000 0.290000 1.232600
v -0.225550 0.480000 2.350060
v -0.225550 0.290000 2.350060
v -1.484620 0.290000 2.808700
v -1.484620 0.480000 2.808700
v -0.687872 0.890000 2.001320
v -1.481080 0.890000 2.290260
v -0.545775 0.890000 1.297320
v -1.904830 0.890000 2.294250
v -1.904830 0.890000 1.260350
v -2.157230 0.480000 1.173920
v -2.157230 0.290000 1.173920
v -2.236130 0.000000 0.634967
v -2.020800 0.000000 1.220630
v -1.923330 0.000000 0.281503
v -2.020800 0.000000 2.533530
v -1.482710 0.000000 2.528470
v -0.682355 0.000000 0.595167
v -0.475454 0.000000 2.161550
v -0.295014 0.000000 1.267580
v -2.157230 0.290000 2.815030
v -2.157230 0.480000 2.815030
v -2.154600 0.890000 2.102300
v -2.677250 0.685000 2.058020
v -2.154600 0.890000 1.585350
v -2.950140 0.480000 2.205690
v -2.950140 0.290000 2.205690
v -2.655120 0.000000 2.046050
vt 77.690300 27.239201
vt 25.067699 51.326000
vt 14.698200 27.239201
vt 64.752701 51.326000
vt 53.106300 -34.440601
vt 77.684998 -8.971860
vt 63.051102 -8.971860
vt 76.334702 -34.440601
vt 53.106300 18.897600
vt 76.334702 11.417300
vt 76.334702 18.897600
vt 53.106300 11.417300
vt 77.690300 18.897600
vt 14.698200 11.417300
vt 77.690300 11.417300
vt 14.698200 18.897600
vt -42.049900 18.897600
vt -3.860880 11.417300
vt -3.860880 18.897600
vt -42.049900 11.417300
vt -92.450203 18.897600
vt -47.568298 11.417300
vt -47.568298 18.897600
vt -92.450203 11.417300
vt -40.011002 18.897600
vt -92.766899 11.417300
vt -40.011002 11.417300
vt -92.766899 18.897600
vt -52.414001 -26.902300
vt -92.766899 -51.932999
vt -40.011002 -51.932999
vt -85.650200 -26.902300
vt 27.081600 78.792198
vt 33.496300 30.228001
vt 58.310398 90.167900
vt 21.487200 51.075500
vt -92.450203 4.118720
vt -54.317101 30.256800
vt -82.592697 30.256800
vt -47.568298 4.118720
vt -3.860880 30.716499
vt -33.532299 56.333000
vt -42.049900 30.716499
vt -9.473280 56.333000
vt 71.971397 20.503201
vt 74.993301 90.324699
vt 74.993301 49.619900
vt 81.669601 31.461901
vt 1.346000 -8.173690
vt 14.069500 -26.257299
vt 20.692499 -8.173690
vt -16.639099 -26.257299
vt -16.639099 18.897600
vt 14.069500 11.417300
vt 14.069500 18.897600
vt -16.639099 11.417300
vt -6.917440 32.858601
vt 14.069500 45.096802
vt -16.639099 45.096802
vt 17.649500 32.858601
vt -75.721603 11.082800
vt -79.558998 48.056499
vt -88.036697 24.998699
vt -79.558998 99.745102
vt -58.374298 99.545898
vt -26.864401 23.431801
vt -18.718599 85.100601
vt -11.614700 49.904800
vt -3.860880 -8.294390
vt -37.445801 -23.977400
vt -6.894610 -23.977400
vt -42.049900 -8.294390
vt -92.450203 14.878400
vt -51.216301 -1.054180
vt -47.568298 14.878400
vt -87.121803 -1.054180
vt -40.011002 64.781197
vt -88.919998 49.376999
vt -46.715302 49.376999
vt -92.766899 64.781197
vt -59.486500 84.662399
vt -80.493202 68.786201
vt -59.307598 68.786201
vt -85.968498 84.662399
vt -59.486500 18.897600
vt -85.968498 11.417300
vt -59.486500 11.417300
vt -85.968498 18.897600
vt -59.486500 -74.572601
vt -75.839203 -48.551998
vt -85.968498 -74.572601
vt -59.155499 -48.551998
vt -16.825600 -74.511803
vt 0.190292 -102.051003
vt -4.424040 -74.511803
vt -34.203499 -88.281197
vt 81.024597 -88.278000
vt 82.767899 -66.174896
vt 62.415501 -66.174896
vt 84.826599 62.415501
vt 84.826599 82.767899
vt 85.040604 14.486300
vt 139.628006 -4.477060
vt 101.178001 14.486300
vt 88.397598 -4.477060
vt 88.397598 18.897600
vt 139.628006 11.417300
vt 139.628006 18.897600
vt 88.397598 11.417300
vt 86.583000 14.407100
vt 139.628006 27.028400
vt 88.397598 27.028400
vt 127.567001 14.407100
vt -104.531998 80.553200
vt 0.190292 109.248001
vt -33.799999 92.640503
vt -2.303940 92.640503
vt -39.179798 109.248001
vt 0.190292 18.897600
vt -39.179798 11.417300
vt 0.190292 11.417300
vt -39.179798 18.897600
vt -39.179798 -102.051003
vt 128.472000 5.004630
vt 20.303301 -18.929701
vt 77.690300 -3.971700
vt 14.698200 -3.971700
vt 70.696999 -18.929701
vt 77.064598 33.667099
vt 53.106300 49.279701
vt 58.481899 33.667099
vt 76.334702 49.279701
vn 0.164200 0.742200 -0.649700
vn -0.474600 0.773500 -0.420000
vn -0.748900 -0.000000 -0.662700
vn 0.245100 -0.000000 -0.969500
vn 0.866500 -0.000000 -0.499200
vn 0.980200 0.000000 0.197900
vn 0.342300 0.000000 0.939600
vn 0.220700 0.764300 0.605900
vn -0.000000 1.000000 -0.000000
vn 0.605300 0.786500 0.122200
vn 0.546000 0.776500 -0.314500
vn -0.837800 0.450800 0.308000
vn -0.938600 0.000000 0.345100
vn -0.875600 -0.360100 0.321900
vn 0.000000 -1.000000 0.000000
vn 0.630800 -0.685600 -0.363400
vn 0.702400 -0.697500 0.141800
vn 0.253700 -0.671300 0.696400
vn 0.006800 -0.694900 0.719100
vn 0.009400 0.000000 1.000000
vn 0.005800 0.784300 0.620300
vn -0.357200 0.810200 0.464800
vn -0.365100 0.930900 -0.000000
vn -0.674900 0.524800 -0.518700
vn -0.792900 0.000000 -0.609300
vn -0.717300 -0.426200 -0.551200
vn -0.717300 -0.426300 -0.551200
vn -0.418900 -0.726200 0.545100
vn -0.609300 0.000000 0.792900
vn 0.187000 -0.646100 -0.740000
vn -0.547600 -0.682100 -0.484600
usemtl Stone.047
s 1
f 1/1/1 2/2/1 3/3/1
f 2/2/1 1/1/1 4/4/1
f 1/5/2 5/6/2 4/7/2
f 5/6/2 1/5/2 6/8/2
f 1/9/3 7/10/3 6/11/3
f 7/10/3 1/9/3 8/12/3
f 1/13/4 9/14/4 8/15/4
f 9/14/4 1/13/4 3/16/4
f 10/17/5 9/18/5 3/19/5
f 9/18/5 10/17/5 11/20/5
f 12/21/6 11/22/6 10/23/6
f 11/22/6 12/21/6 13/24/6
f 12/25/7 14/26/7 13/27/7
f 14/26/7 12/25/7 15/28/7
f 16/29/8 15/30/8 12/31/8
f 15/30/8 16/29/8 17/32/8
f 16/33/9 2/34/9 17/35/9
f 2/34/9 16/33/9 18/36/9
f 12/37/10 18/38/10 16/39/10
f 18/38/10 12/37/10 10/40/10
f 3/41/11 18/42/11 10/43/11
f 18/42/11 3/41/11 2/44/11
f 17/35/9 2/34/9 4/45/9
f 17/35/9 4/45/9 19/46/9
f 19/46/9 4/45/9 20/47/9
f 5/48/9 20/47/9 4/45/9
f 5/49/12 21/50/12 20/51/12
f 21/50/12 5/49/12 6/52/12
f 6/53/13 22/54/13 21/55/13
f 22/54/13 6/53/13 7/56/13
f 23/57/14 22/58/14 7/59/14
f 22/58/14 23/57/14 24/60/14
f 25/61/15 24/62/15 23/63/15
f 25/61/15 26/64/15 24/62/15
f 25/61/15 27/65/15 26/64/15
f 28/66/15 27/65/15 25/61/15
f 28/66/15 29/67/15 27/65/15
f 29/67/15 28/66/15 30/68/15
f 9/69/16 30/70/16 28/71/16
f 30/70/16 9/69/16 11/72/16
f 13/73/17 30/74/17 11/75/17
f 30/74/17 13/73/17 29/76/17
f 13/77/18 27/78/18 29/79/18
f 27/78/18 13/77/18 14/80/18
f 14/81/19 26/82/19 27/83/19
f 26/82/19 14/81/19 31/84/19
f 15/85/20 31/86/20 14/87/20
f 31/86/20 15/85/20 32/88/20
f 15/89/21 19/90/21 32/91/21
f 19/90/21 15/89/21 17/92/21
f 33/93/22 32/94/22 19/95/22
f 32/94/22 33/93/22 34/96/22
f 34/97/23 33/98/23 35/99/23
f 19/46/9 35/100/9 33/101/9
f 19/46/9 20/47/9 35/100/9
f 20/102/24 36/103/24 35/104/24
f 36/103/24 20/102/24 21/105/24
f 21/106/25 37/107/25 36/108/25
f 37/107/25 21/106/25 22/109/25
f 24/110/26 37/111/26 22/112/26
f 37/111/26 24/110/26 38/113/27
f 38/114/15 24/62/15 26/64/15
f 31/115/28 38/116/28 26/117/28
f 38/116/28 31/115/28 37/118/28
f 32/119/29 37/120/29 31/121/29
f 37/120/29 32/119/29 36/122/29
f 32/94/22 34/96/22 36/123/22
f 35/104/24 36/103/24 34/124/24
f 28/125/30 8/126/30 9/127/30
f 8/126/30 28/125/30 25/128/30
f 23/129/31 8/130/31 25/131/31
f 8/130/31 23/129/31 7/132/31
