# Blender v2.76 (sub 0) OBJ File: ''
# www.blender.org
mtllib naturePack_084.mtl
o Mesh1_Tree_Model
v -0.177000 0.600000 1.003000
v -1.180000 0.000000 1.295700
v 0.000000 0.000000 1.295700
v -1.003000 0.600000 1.003000
v -1.097400 0.600000 1.097400
v 0.096935 0.600000 1.097400
v 0.096935 0.600000 0.082600
v -0.177000 0.600000 0.177000
v -1.097400 0.600000 0.082600
v -1.003000 0.600000 0.177000
v 0.000000 0.000000 0.000000
v -1.180000 0.000000 0.000000
v -0.393303 0.000000 0.393303
v -0.393303 0.000000 0.786697
v -0.786697 0.000000 0.786697
v -0.786697 0.000000 0.393303
v -0.342162 -0.495868 0.837838
v -0.342162 -0.495868 0.342162
v -0.837838 -0.495868 0.837838
v -0.837838 -0.495868 0.342162
v -0.945180 1.343040 0.234820
v -0.945180 1.343040 0.945180
v -0.234820 1.343040 0.945180
v -0.234820 1.343040 0.234820
v -1.142070 1.343040 0.153636
v -0.153636 1.343040 0.153636
v -0.153636 1.343040 1.026360
v -1.142070 1.343040 1.026360
v -0.383388 3.216760 0.589999
vt -6.968500 3.916990
vt -46.456699 -22.365999
vt -0.000000 -22.365999
vt -39.488201 3.916990
vt -6.968500 39.488201
vt -43.204700 43.204700
vt -39.488201 39.488201
vt 3.816350 43.204700
vt 3.816350 3.251970
vt -6.968500 6.968500
vt -43.204700 3.251970
vt -39.488201 6.968500
vt 0.000000 0.000000
vt 39.488201 24.628500
vt 6.968500 24.628500
vt 46.456699 -0.000000
vt -15.484400 15.484400
vt -46.456699 0.000000
vt -15.484400 30.972300
vt 0.000000 51.011902
vt -46.456699 51.011902
vt -30.972300 30.972300
vt -30.972300 15.484400
vt 51.011902 -13.144700
vt 6.968500 11.483800
vt 0.000000 -13.144700
vt 39.488201 11.483800
vt 43.204700 14.470500
vt 9.244880 44.331600
vt 3.251970 14.470500
vt 37.211800 44.331600
vt -43.204700 14.470500
vt -9.244880 44.331600
vt -37.211800 44.331600
vt 3.816350 14.470500
vt -43.204700 20.013800
vt -9.244880 52.050800
vt -37.211800 52.050800
vt -3.251970 20.013800
vt -3.816350 23.794100
vt 37.211800 53.655201
vt 9.244880 53.655201
vt 43.204700 23.794100
vt -44.963200 6.048660
vt -9.244880 9.244880
vt -37.211800 9.244880
vt -6.048660 6.048660
vt -9.244880 37.211800
vt -6.048660 40.408001
vt -44.963200 40.408001
vt -15.094000 118.074997
vt -44.963200 42.332298
vt -6.048660 42.332298
vt 40.408001 32.135399
vt 23.228300 111.722000
vt 6.048660 32.135399
vt 15.094000 128.612000
vt 6.048660 52.869499
vt 44.963200 52.869499
vt -40.408001 53.218700
vt -6.048660 53.218700
vt -23.228300 127.540001
vt -37.211800 37.211800
vt -6.968500 24.628500
vt -51.011902 0.000000
vt -39.488201 24.628500
vt -32.985802 -18.037399
vt -15.484400 1.588550
vt -30.972300 1.588550
vt -13.470900 -18.037399
vt -32.985802 32.985802
vt -13.470900 13.470900
vt -13.470900 32.985802
vt -32.985802 13.470900
vt 32.985802 -22.803400
vt 15.484400 -3.177470
vt 13.470900 -22.803400
vt 30.972300 -3.177470
vt -32.985802 -22.803400
vt -15.484400 -3.177470
vt -30.972300 -3.177470
vt -13.470900 -22.803400
vt 30.972300 1.588550
vt 13.470900 -18.037399
vt 32.985802 -18.037399
vt 15.484400 1.588550
vn 0.000000 0.438400 0.898800
vn -0.000000 -1.000000 -0.000000
vn 0.000000 0.282900 -0.959100
vn -0.959100 0.282900 -0.000000
vn -0.979700 0.200700 -0.000000
vn 0.000000 0.200700 0.979700
vn 0.913100 0.407700 -0.000000
vn 0.000000 0.200700 -0.979700
vn 0.000000 0.226800 0.973900
vn -0.926900 0.375300 0.000000
vn 0.000000 0.226800 -0.973900
vn 0.992600 0.121700 0.000000
vn 0.959100 0.282900 -0.000000
vn 0.994700 0.102600 -0.000000
vn -0.994700 0.102600 -0.000000
vn 0.000000 0.102600 0.994700
vn 0.000000 0.102600 -0.994700
usemtl Leafs.022
s 1
f 1/1/1 2/2/1 3/3/1
f 2/2/1 1/1/1 4/4/1
f 1/5/2 5/6/2 4/7/2
f 1/5/2 6/8/2 5/6/2
f 6/8/2 1/5/2 7/9/2
f 8/10/2 7/9/2 1/5/2
f 7/9/2 8/10/2 9/11/2
f 9/11/2 8/10/2 10/12/2
f 11/13/3 10/14/3 8/15/3
f 10/14/3 11/13/3 12/16/3
f 11/13/2 13/17/2 12/18/2
f 13/17/2 11/13/2 14/19/2
f 3/20/2 14/19/2 11/13/2
f 14/19/2 3/20/2 2/21/2
f 14/19/2 2/21/2 15/22/2
f 15/22/2 2/21/2 16/23/2
f 12/18/2 16/23/2 2/21/2
f 12/18/2 13/17/2 16/23/2
f 13/17/2 15/22/2 16/23/2
f 15/22/2 13/17/2 14/19/2
f 2/24/4 10/25/4 12/26/4
f 10/25/4 2/24/4 4/27/4
f 4/7/2 5/6/2 10/12/2
f 9/11/2 10/12/2 5/6/2
f 5/28/5 21/29/5 9/30/5
f 21/29/5 5/28/5 22/31/5
f 5/32/6 23/33/6 22/34/6
f 23/33/6 5/32/6 6/35/6
f 6/36/7 24/37/7 23/38/7
f 24/37/7 6/36/7 7/39/7
f 7/40/8 21/41/8 24/42/8
f 21/41/8 7/40/8 9/43/8
f 25/44/2 24/45/2 21/46/2
f 26/47/2 24/45/2 25/44/2
f 24/45/2 26/47/2 23/48/2
f 27/49/2 23/48/2 26/47/2
f 23/48/2 27/49/2 28/50/2
f 29/51/9 28/52/9 27/53/9
f 28/54/10 29/55/10 25/56/10
f 29/57/11 26/58/11 25/59/11
f 27/60/12 26/61/12 29/62/12
f 25/44/2 21/46/2 28/50/2
f 22/63/2 28/50/2 21/46/2
f 23/48/2 28/50/2 22/63/2
f 8/64/13 3/65/13 11/13/13
f 3/65/13 8/64/13 1/66/13
usemtl Wood.055
f 17/67/14 13/68/14 14/69/14
f 13/68/14 17/67/14 18/70/14
f 19/71/2 18/72/2 17/73/2
f 18/72/2 19/71/2 20/74/2
f 19/75/15 16/76/15 20/77/15
f 16/76/15 19/75/15 15/78/15
f 19/79/16 14/80/16 15/81/16
f 14/80/16 19/79/16 17/82/16
f 16/83/17 18/84/17 20/85/17
f 18/84/17 16/83/17 13/86/17
