# Blender v2.76 (sub 0) OBJ File: ''
# www.blender.org
mtllib naturePack_166.mtl
o Mesh1_Group1_Model.082
v -0.926394 4.134120 0.677633
v -0.642890 0.000000 0.590170
v -1.013860 0.000000 0.590170
v -0.730354 4.134120 0.677633
v -0.918320 4.134120 0.677633
v -1.424860 4.134120 -0.000001
v -0.294067 4.134120 -0.000001
v -0.730354 4.134120 0.873673
v -0.226254 4.134120 1.567799
v -0.117292 4.134120 0.176774
v -0.117292 4.134120 1.414579
v -0.331462 4.836250 0.214169
v -0.331462 4.836250 1.213629
v -0.170441 4.836250 1.327849
v -0.122500 4.836250 0.099945
v 0.000000 4.836250 0.222445
v 0.000000 4.836250 1.189449
v -0.401424 5.705770 0.284131
v -0.401424 5.705770 1.143669
v -0.303191 5.705770 0.312309
v -0.429602 5.705770 0.185899
v -1.260960 5.705770 0.284131
v -1.369460 4.836250 0.099945
v -1.330920 4.836250 0.214169
v -1.545090 4.134120 0.120232
v -1.545090 4.134120 1.445189
v -1.422480 4.134120 1.567799
v -0.926394 4.134120 0.873673
v -0.738427 4.134120 0.873673
v -1.330920 4.836250 1.213629
v -1.369460 4.836250 1.327849
v -1.260960 5.705770 1.143669
v -0.451025 5.705770 1.241899
v -0.303191 5.705770 1.130559
v -0.560906 7.738420 0.684595
v -0.560906 7.738420 0.744303
v -0.570130 7.738420 0.675370
v -0.571693 7.738420 0.752428
v -1.369460 5.705770 1.241899
v -0.638712 7.738420 0.752428
v -0.631977 7.738420 0.675370
v -1.277170 5.705770 0.185899
v -1.445150 4.836250 1.189449
v -1.445150 4.836250 0.175632
v -1.499190 5.705770 0.312309
v -1.499190 5.705770 1.112169
v -0.648179 7.738420 0.742961
v -0.648179 7.738420 0.684595
v -1.013860 0.000000 0.961138
v -0.642890 0.000000 0.961138
v -0.828374 4.134120 0.775653
vt -22.082899 29.303301
vt -22.446100 26.589399
vt -22.082899 26.952600
vt -22.507601 29.623199
vt -24.881001 26.589399
vt -25.146200 29.623199
vt -25.518900 26.952600
vt -25.518900 29.250500
vt 36.472198 163.289001
vt 25.310600 0.491464
vt 39.915699 0.491464
vt 28.754101 163.289001
vt 36.154301 163.289001
vt -36.472198 161.996994
vt -28.754101 161.996994
vt -29.071899 161.996994
vt -39.915699 -0.800388
vt -25.310600 -0.800388
vt -39.915699 37.840099
vt -25.310600 23.235001
vt -25.310600 37.840099
vt -39.915699 23.235001
vt 37.840099 -0.844291
vt 26.678499 161.953003
vt 23.235001 -0.844291
vt 34.396599 161.953003
vt -37.840099 0.535367
vt -26.678499 163.332993
vt -34.396599 163.332993
vt -23.235001 0.535367
vt -56.096802 0.000000
vt -36.154301 26.678499
vt -36.472198 26.678499
vt -28.754101 26.678499
vt -11.577400 0.000000
vt -28.754101 34.396599
vt -8.907620 61.724400
vt -4.617780 6.959660
vt -4.617780 55.692299
vt -8.431890 185.927002
vt -55.692299 157.026993
vt -6.959660 157.026993
vt -47.780701 185.927002
vt -13.049700 8.431890
vt -6.710290 52.277699
vt -13.049700 47.780701
vt -4.822820 3.934880
vt 0.000000 8.757700
vt 0.000000 46.828602
vt -11.186300 210.576004
vt -46.828602 172.871002
vt -8.757700 172.871002
vt -45.026299 210.576004
vt -15.804100 11.186300
vt -11.936700 12.295700
vt -15.804100 45.026299
vt -16.913401 7.318880
vt -49.644100 11.186300
vt 4.822820 187.085999
vt 49.644100 222.078003
vt 15.804100 222.078003
vt 53.915699 187.085999
vt -53.915699 3.934880
vt -52.398499 8.431890
vt 11.577400 155.679001
vt 52.398499 184.580002
vt 13.049700 184.580002
vt 56.096802 155.679001
vt 43.013599 172.636993
vt 39.666401 143.694000
vt 46.360699 143.694000
vt -60.830399 56.897202
vt -60.830399 4.733570
vt -56.003201 61.724400
vt -36.472198 34.396599
vt -29.071899 34.396599
vt -13.049700 148.481003
vt -56.003201 117.521004
vt -8.907620 117.521004
vt -52.398499 148.481003
vt -53.915699 52.277699
vt -52.398499 47.780701
vt -15.804100 210.429993
vt -53.915699 175.436996
vt -6.710290 175.436996
vt -49.644100 210.429993
vt -17.756901 48.893700
vt -49.644100 45.026299
vt -11.936700 44.510101
vt -26.952600 305.019989
vt -44.510101 224.354004
vt -12.295700 224.354004
vt -29.303301 305.019989
vt -43.599201 212.703995
vt -35.268799 294.785004
vt -35.800499 294.785004
vt -36.312801 212.703995
vt -22.507601 289.260986
vt -53.915699 206.947006
vt -17.756901 206.947006
vt -25.146200 289.260986
vt 16.913401 220.106995
vt 24.881001 302.420990
vt 22.446100 302.420990
vt 50.282101 220.106995
vt -50.282101 7.318880
vt -53.915699 48.893700
vt 11.186300 209.473007
vt 46.828602 174.479996
vt 45.026299 209.473007
vt 6.914670 174.479996
vt 43.013599 212.235001
vt 40.906502 177.046005
vt 45.120602 177.046005
vt -56.895500 46.828602
vt -56.895500 6.914670
vt 8.431890 166.832001
vt 56.897202 137.932007
vt 47.780701 166.832001
vt 4.733570 137.932007
vt 4.045500 114.396004
vt -3.265260 144.695999
vt -2.781150 114.396004
vt 19.999399 171.345001
vt 15.686600 206.332993
vt 13.788800 171.345001
vt -59.023300 12.295700
vt -59.023300 43.786098
vt 3.165730 265.309998
vt -10.774300 178.373001
vt -3.551090 178.373001
vt 2.638650 265.309998
vt 47.317402 204.561005
vt 35.511902 289.786987
vt 34.777901 289.786987
vt 57.376099 204.561005
vt 43.786098 184.414993
vt 26.952600 271.170990
vt 12.295700 184.414993
vt 29.250500 271.170990
vt -2.929800 305.022003
vt -0.253856 223.097000
vt 6.784380 223.097000
vt -3.443380 305.022003
vt -40.652199 205.328995
vt -38.164001 169.259995
vt -29.519899 169.259995
vt -55.463799 139.442001
vt -48.061798 139.442001
vt -46.501202 169.365005
vt -32.613098 30.537600
vt 3.265260 188.302994
vt -1.655960 159.787003
vt 8.186490 159.787003
vt 3.265260 216.949005
vt -6.192630 180.369003
vt 0.627864 180.369003
vn 0.000000 -1.000000 -0.000000
vn 0.000000 0.021200 -0.999800
vn 0.000000 0.021100 -0.999800
vn -0.000000 0.021100 0.999800
vn 0.000000 0.021200 0.999800
vn -0.999800 0.021200 0.000000
vn 0.999800 0.021200 0.000000
vn 0.956500 0.291800 0.000000
vn 0.907900 0.419200 0.000000
vn 0.000000 0.207200 -0.978300
vn 0.000000 0.291800 -0.956500
vn -0.675400 0.296400 -0.675300
vn 0.000000 -1.000000 0.000100
vn 0.000000 0.450400 0.892800
vn 0.000000 0.207200 0.978300
vn 0.992100 0.125800 0.000000
vn 0.586500 0.222400 0.778800
vn 0.586600 0.222400 0.778800
vn 0.000000 0.234100 0.972200
vn 0.000000 0.234100 -0.972200
vn -0.978300 0.207200 0.000000
vn -0.687900 0.231500 -0.687900
vn -0.956500 0.291800 0.000000
vn -0.645100 0.409500 0.645100
vn -0.858400 0.206600 0.469500
vn -0.650900 0.390700 0.650900
vn -0.464600 0.344000 -0.816000
vn -0.922400 0.386200 0.000000
vn 0.690700 0.214100 -0.690700
vn 0.598300 0.315000 0.736800
vn 0.752800 0.382900 0.535400
vn 0.685500 0.245600 -0.685500
vn 0.661700 0.352400 -0.661700
usemtl FrontColor.007
s 1
f 36/1/1 37/2/1 35/3/1
f 37/2/1 36/1/1 38/4/1
f 41/5/1 38/4/1 40/6/1
f 37/2/1 38/4/1 41/5/1
f 48/7/1 40/6/1 47/8/1
f 41/5/1 40/6/1 48/7/1
usemtl Wood.102
f 1/9/2 2/10/2 3/11/2
f 2/10/2 1/9/2 4/12/2
f 4/12/3 1/9/3 5/13/3
f 28/14/4 8/15/4 29/16/4
f 49/17/5 8/15/5 28/14/5
f 8/15/5 49/17/5 50/18/5
f 49/19/1 2/20/1 50/21/1
f 2/20/1 49/19/1 3/22/1
f 49/23/6 1/24/6 3/25/6
f 1/24/6 49/23/6 28/26/6
f 50/27/7 4/28/7 8/29/7
f 4/28/7 50/27/7 2/30/7
usemtl Leafs.061
f 6/31/1 5/32/1 1/33/1
f 6/31/1 4/34/1 5/32/1
f 7/35/1 4/34/1 6/31/1
f 4/34/1 7/35/1 8/36/1
f 7/35/1 9/37/1 8/36/1
f 10/38/1 9/37/1 7/35/1
f 9/37/1 10/38/1 11/39/1
f 12/40/8 11/41/8 10/42/8
f 11/41/8 12/40/8 13/43/8
f 12/44/1 14/45/1 13/46/1
f 15/47/1 14/45/1 12/44/1
f 16/48/1 14/45/1 15/47/1
f 14/45/1 16/48/1 17/49/1
f 18/50/9 17/51/9 16/52/9
f 17/51/9 18/50/9 19/53/9
f 18/54/1 20/55/1 19/56/1
f 20/55/1 18/54/1 21/57/1
f 21/57/1 18/54/1 22/58/1
f 15/59/10 22/60/10 18/61/10
f 22/60/10 15/59/10 23/62/10
f 15/47/1 12/44/1 23/63/1
f 23/63/1 12/44/1 24/64/1
f 7/65/11 24/66/11 12/67/11
f 24/66/11 7/65/11 6/68/11
f 24/69/12 6/70/12 25/71/12
f 6/31/1 26/72/1 25/73/1
f 6/31/1 27/74/1 26/72/1
f 6/31/1 1/33/1 27/74/1
f 28/75/1 27/74/1 1/33/1
f 29/76/13 27/74/1 28/75/1
f 8/36/1 27/74/1 29/76/13
f 8/36/1 9/37/1 27/74/1
f 13/77/14 27/78/14 9/79/14
f 27/78/14 13/77/14 30/80/14
f 13/46/1 31/81/1 30/82/1
f 31/81/1 13/46/1 14/45/1
f 19/83/15 31/84/15 14/85/15
f 31/84/15 19/83/15 32/86/15
f 19/56/1 33/87/1 32/88/1
f 19/56/1 34/89/1 33/87/1
f 34/89/1 19/56/1 20/55/1
f 35/90/16 34/91/16 20/92/16
f 34/91/16 35/90/16 36/93/16
f 33/94/17 36/95/18 38/96/18
f 36/95/18 33/94/17 34/97/17
f 38/98/19 39/99/19 33/100/19
f 39/99/19 38/98/19 40/101/19
f 21/102/20 41/103/20 37/104/20
f 41/103/20 21/102/20 42/105/20
f 21/57/1 22/58/1 42/106/1
f 22/58/1 39/107/1 42/106/1
f 32/88/1 39/107/1 22/58/1
f 32/88/1 33/87/1 39/107/1
f 22/108/21 43/109/21 32/110/21
f 43/109/21 22/108/21 44/111/21
f 22/112/22 23/113/22 44/114/22
f 23/63/1 43/115/1 44/116/1
f 23/63/1 31/81/1 43/115/1
f 23/63/1 24/64/1 31/81/1
f 30/82/1 31/81/1 24/64/1
f 24/117/23 26/118/23 30/119/23
f 26/118/23 24/117/23 25/120/23
f 27/121/24 30/122/24 26/123/24
f 31/124/25 32/125/25 43/126/25
f 42/106/1 39/107/1 45/127/1
f 45/127/1 39/107/1 46/128/1
f 40/129/26 46/130/26 39/131/26
f 46/130/26 40/129/26 47/132/26
f 42/133/27 48/134/27 41/135/27
f 48/134/27 42/133/27 45/136/27
f 46/137/28 48/138/28 45/139/28
f 48/138/28 46/137/28 47/140/28
f 37/141/29 20/142/29 21/143/29
f 20/142/29 37/141/29 35/144/29
f 19/145/30 14/146/30 17/147/30
f 9/148/31 11/149/31 13/150/31
f 51/151/1 28/75/1 1/33/1
f 28/75/1 51/151/1 29/76/1
f 51/151/1 8/36/1 29/76/1
f 51/151/1 4/34/1 8/36/1
f 4/34/1 51/151/1 5/32/1
f 1/33/1 5/32/1 51/151/1
f 12/152/32 10/153/32 7/154/32
f 18/155/33 16/156/33 15/157/33
