# Blender v2.76 (sub 0) OBJ File: ''
# www.blender.org
mtllib naturePack_020.mtl
o Mesh1_Group1_Model.013
v -0.516773 0.340000 0.365546
v 0.000000 0.000000 0.601275
v -0.500000 0.000000 0.000000
v -0.311522 0.340000 0.612370
v -0.378312 0.340000 0.705433
v -0.661429 0.340000 0.604677
v -0.694871 0.340000 0.543644
v -1.000000 0.000000 0.500000
v -0.832586 0.000000 0.805538
v -0.286158 0.000000 1.000000
vt 20.345400 14.391600
vt 14.894200 27.772900
vt 12.264700 24.109100
vt 26.040501 23.806200
vt 27.357100 21.403299
vt 1.942940 25.423401
vt -18.201300 8.886950
vt 12.586300 8.886950
vt -10.695400 25.423401
vt 24.562700 8.363580
vt 41.758301 -8.172860
vt 34.478802 8.363580
vt 13.919400 -8.172860
vt -19.684999 0.000000
vt -32.778999 31.714100
vt -39.370098 19.684999
vt -11.266000 39.370098
vt 0.000000 23.672300
vt -26.737900 8.432270
vt -38.554100 -8.104170
vt -19.232000 -8.104170
vt -31.247700 8.432270
vt -4.720350 -7.459740
vt -20.248600 -23.996201
vt 2.586050 -23.996201
vt -16.551500 -7.459740
vt 5.624510 -9.290140
vt 12.061500 -25.826599
vt 8.364420 -9.290140
vt -1.654930 -25.826599
vn 0.000000 1.000000 0.000000
vn 0.622400 0.587200 -0.517600
vn -0.572400 0.587200 -0.572400
vn -0.000000 -1.000000 0.000000
vn 0.657600 0.587200 0.472000
vn -0.271400 0.587200 0.762600
vn -0.709900 0.587200 0.389000
usemtl Green_leafs.013
s 1
f 1/1/1 5/2/1 4/3/1
f 5/2/1 1/1/1 6/4/1
f 6/4/1 1/1/1 7/5/1
usemtl Wood.017
f 1/6/2 2/7/2 3/8/2
f 2/7/2 1/6/2 4/9/2
f 1/10/3 8/11/3 7/12/3
f 8/11/3 1/10/3 3/13/3
f 3/14/4 9/15/4 8/16/4
f 3/14/4 10/17/4 9/15/4
f 10/17/4 3/14/4 2/18/4
f 4/19/5 10/20/5 2/21/5
f 10/20/5 4/19/5 5/22/5
f 5/23/6 9/24/6 10/25/6
f 9/24/6 5/23/6 6/26/6
f 7/27/7 9/28/7 6/29/7
f 9/28/7 7/27/7 8/30/7
