# Blender v2.76 (sub 0) OBJ File: ''
# www.blender.org
mtllib naturePack_018.mtl
o Mesh1_Group1_Model.011
v -0.695000 0.490000 0.095263
v -0.250000 0.000000 0.000000
v -0.750000 0.000000 0.000000
v -0.305000 0.490000 0.095263
v -0.418394 0.490000 0.185263
v -0.305978 0.490000 0.379973
v -0.305000 0.490000 0.770763
v -0.110000 0.490000 0.433013
v 0.000000 0.000000 0.433013
v -0.250000 0.000000 0.866025
v -0.750000 0.000000 0.866025
v -0.695000 0.490000 0.770763
v -0.418394 0.490000 0.574682
v -0.448746 0.710000 0.522111
v -0.366683 0.710000 0.379973
v -0.448746 0.710000 0.237834
v -0.612873 0.710000 0.237834
v -0.643226 0.490000 0.185263
v -0.755642 0.490000 0.379973
v -0.890000 0.490000 0.433013
v -1.000000 0.000000 0.433013
v -0.643226 0.490000 0.574682
v -0.612873 0.710000 0.522111
v -0.694937 0.710000 0.379973
vt 16.472200 7.293800
vt 12.007900 3.750500
vt 27.362200 3.750500
vt 12.046400 14.959500
vt 12.007900 30.344999
vt 4.330710 17.047701
vt 16.472200 22.625299
vt 27.362200 30.344999
vt 25.323799 7.293800
vt 29.749701 14.959500
vt 35.039398 17.047701
vt 25.323799 22.625299
vt 17.667200 20.555500
vt 24.128901 9.363550
vt 24.128901 20.555500
vt 17.667200 9.363550
vt 14.436300 14.959500
vt 27.359699 14.959500
vt 27.362200 19.652500
vt 9.842520 0.000000
vt 29.527599 0.000000
vt 12.007900 19.652500
vt -32.283501 18.025801
vt -14.763800 -1.626700
vt -16.929100 18.025801
vt -34.448799 -1.626700
vt -12.007900 13.145700
vt -29.527599 -6.506810
vt -9.842520 -6.506810
vt -27.362200 13.145700
vt -18.978500 19.449301
vt -26.635201 28.354601
vt -27.830200 19.449301
vt -20.173500 28.354601
vt -6.932150 22.926201
vt 0.724514 31.831499
vt -5.737180 31.831499
vt 1.919490 22.926201
vt 16.472200 20.458300
vt 24.128901 29.363600
vt 17.667200 29.363600
vt 25.323799 20.458300
vt 16.929100 14.772400
vt 34.448799 -4.880110
vt 32.283501 14.772400
vt 14.763800 -4.880110
vt -29.527599 0.000000
vt -29.527599 34.095501
vt -39.370098 17.047701
vt -9.842520 0.000000
vt -9.842520 34.095501
vt 0.000000 17.047701
vt 2.755910 21.279200
vt -14.763800 1.626700
vt 4.921260 1.626700
vt -12.598400 21.279200
vt 14.763800 -8.133510
vt -2.755910 11.519000
vt -4.921260 -8.133510
vt 12.598400 11.519000
vt -17.667200 22.409800
vt -25.323799 13.504500
vt -16.472200 13.504500
vt -24.128901 22.409800
vt 20.173500 23.418800
vt 27.830200 14.513500
vt 26.635201 23.418800
vt 18.978500 14.513500
vt 6.932150 11.036600
vt -0.724514 19.941900
vt -1.919490 11.036600
vt 5.737180 19.941900
vn -0.000000 1.000000 -0.000000
vn 0.000000 0.190800 -0.981600
vn 0.850100 0.190800 0.490800
vn 0.000000 0.190800 0.981600
vn 0.842300 0.232400 0.486300
vn 0.842300 0.232400 -0.486300
vn 0.000000 0.232400 -0.972600
vn -0.850100 0.190800 -0.490800
vn 0.000000 -1.000000 0.000000
vn 0.850100 0.190800 -0.490800
vn -0.850100 0.190800 0.490800
vn 0.000000 0.232400 0.972600
vn -0.842300 0.232400 -0.486300
vn -0.842300 0.232400 0.486300
usemtl Green_leafs.011
s 1
f 5/1/1 4/2/1 1/3/1
f 6/4/1 4/2/1 5/1/1
f 7/5/1 4/2/1 6/4/1
f 4/2/1 7/5/1 8/6/1
f 7/5/1 13/7/1 12/8/1
f 13/7/1 7/5/1 6/4/1
f 5/1/1 1/3/1 18/9/1
f 18/9/1 1/3/1 19/10/1
f 19/10/1 1/3/1 20/11/1
f 12/8/1 19/10/1 20/11/1
f 12/8/1 22/12/1 19/10/1
f 12/8/1 13/7/1 22/12/1
f 14/13/1 17/14/1 23/15/1
f 14/13/1 16/16/1 17/14/1
f 16/16/1 14/13/1 15/17/1
f 23/15/1 17/14/1 24/18/1
usemtl Wood.015
f 1/19/2 2/20/2 3/21/2
f 2/20/2 1/19/2 4/22/2
f 7/23/3 9/24/3 8/25/3
f 9/24/3 7/23/3 10/26/3
f 7/27/4 11/28/4 10/29/4
f 11/28/4 7/27/4 12/30/4
f 6/31/5 14/32/5 13/33/5
f 14/32/5 6/31/5 15/34/5
f 6/35/6 16/36/6 15/37/6
f 16/36/6 6/35/6 5/38/6
f 5/39/7 17/40/7 16/41/7
f 17/40/7 5/39/7 18/42/7
f 1/43/8 21/44/8 20/45/8
f 21/44/8 1/43/8 3/46/8
f 3/47/9 11/48/9 21/49/9
f 2/50/9 11/48/9 3/47/9
f 2/50/9 10/51/9 11/48/9
f 10/51/9 2/50/9 9/52/9
f 4/53/10 9/54/10 2/55/10
f 9/54/10 4/53/10 8/56/10
f 11/57/11 20/58/11 21/59/11
f 20/58/11 11/57/11 12/60/11
f 14/61/12 22/62/12 13/63/12
f 22/62/12 14/61/12 23/64/12
f 17/65/13 19/66/13 24/67/13
f 19/66/13 17/65/13 18/68/13
f 22/69/14 24/70/14 19/71/14
f 24/70/14 22/69/14 23/72/14
