# Blender v2.76 (sub 0) OBJ File: ''
# www.blender.org
mtllib naturePack_152.mtl
o Mesh1_Group1_Model.068
v -0.822724 0.000000 1.805000
v -0.082272 0.000000 0.522500
v -0.082272 0.000000 1.377500
v -0.822724 0.000000 0.095000
v -1.563180 0.000000 1.377500
v -0.822724 0.250000 1.900000
v -1.645450 0.250000 1.425000
v -0.822724 0.680000 1.643500
v -1.423310 0.680000 1.296750
v -1.423310 0.680000 0.603250
v -0.822724 0.680000 0.256500
v -0.222136 0.680000 1.296750
v -0.222136 0.680000 0.603250
v 0.000000 0.250000 1.425000
v 0.000000 0.250000 0.475000
v -0.822724 0.250000 -0.000000
v -1.645450 0.250000 0.475000
v -1.563180 0.000000 0.522500
vt -32.390701 71.063004
vt -3.239070 20.570900
vt -3.239070 54.232300
vt -32.390701 3.740160
vt -61.542400 54.232300
vt 9.350390 34.662399
vt -26.181101 24.300600
vt 7.480310 24.300600
vt -28.051201 34.662399
vt 4.301180 -9.366610
vt -28.051201 -28.421200
vt 9.350390 -28.421200
vt -23.002001 -9.366610
vt 32.390701 64.704697
vt 56.035900 23.750000
vt 56.035900 51.053101
vt 32.390701 10.098400
vt 8.745490 51.053101
vt 8.745490 23.750000
vt -56.102402 8.744610
vt -23.750000 27.799200
vt -51.053101 27.799200
vt -18.700800 8.744610
vt -56.102402 9.349270
vt -20.570900 -1.012530
vt -18.700800 9.349270
vt -54.232300 -1.012530
vt -28.051201 24.537201
vt -63.582699 14.175400
vt -29.921301 14.175400
vt -65.452797 24.537201
vt -33.100399 5.499730
vt -65.452797 -13.554900
vt -28.051201 -13.554900
vt -60.403500 5.499730
vt -7.480310 -6.075150
vt 28.051201 4.286640
vt -9.350390 4.286640
vt 26.181101 -6.075150
vt 29.921301 4.050100
vt 65.452797 14.411900
vt 28.051201 14.411900
vt 63.582699 4.050100
vt -61.542400 20.570900
vt 56.102402 29.599800
vt 20.570900 19.238001
vt 54.232300 19.238001
vt 18.700800 29.599800
vt 56.102402 -20.988100
vt 23.750000 -1.933440
vt 18.700800 -20.988100
vt 51.053101 -1.933440
vt 60.403500 20.366100
vt 28.051201 1.311440
vt 65.452797 1.311440
vt 33.100399 20.366100
vt 23.002001 35.232399
vt -9.350390 16.177799
vt 28.051201 16.177799
vt -4.301180 35.232399
vn -0.000000 -1.000000 0.000000
vn -0.474900 -0.312600 0.822600
vn -0.444200 0.459000 0.769400
vn -0.000000 1.000000 -0.000000
vn 0.888500 0.459000 -0.000000
vn 0.949900 -0.312600 0.000000
vn 0.474900 -0.312600 0.822600
vn 0.444200 0.459000 0.769400
vn 0.474900 -0.312600 -0.822600
vn -0.474900 -0.312600 -0.822600
vn -0.949900 -0.312600 0.000000
vn -0.888400 0.459000 -0.000000
vn -0.444200 0.459000 -0.769400
vn 0.444200 0.459000 -0.769400
usemtl Stone.045
s 1
f 1/1/1 2/2/1 3/3/1
f 2/2/1 1/1/1 4/4/1
f 4/4/1 1/1/1 5/5/1
f 6/6/2 5/7/2 1/8/2
f 5/7/2 6/6/2 7/9/2
f 8/10/3 7/11/3 6/12/3
f 7/11/3 8/10/3 9/13/3
f 8/14/4 10/15/4 9/16/4
f 8/14/4 11/17/4 10/15/4
f 12/18/4 11/17/4 8/14/4
f 11/17/4 12/18/4 13/19/4
f 14/20/5 13/21/5 12/22/5
f 13/21/5 14/20/5 15/23/5
f 14/24/6 2/25/6 15/26/6
f 2/25/6 14/24/6 3/27/6
f 14/28/7 1/29/7 3/30/7
f 1/29/7 14/28/7 6/31/7
f 12/32/8 6/33/8 14/34/8
f 6/33/8 12/32/8 8/35/8
f 2/36/9 16/37/9 15/38/9
f 16/37/9 2/36/9 4/39/9
f 4/40/10 17/41/10 16/42/10
f 17/41/10 4/40/10 18/43/10
f 4/4/1 5/5/1 18/44/1
f 7/45/11 18/46/11 5/47/11
f 18/46/11 7/45/11 17/48/11
f 7/49/12 10/50/12 17/51/12
f 10/50/12 7/49/12 9/52/12
f 10/53/13 16/54/13 17/55/13
f 16/54/13 10/53/13 11/56/13
f 11/57/14 15/58/14 16/59/14
f 15/58/14 11/57/14 13/60/14
