# Blender v2.76 (sub 0) OBJ File: ''
# www.blender.org
mtllib naturePack_157.mtl
o Mesh1_Group1_Model.073
v -0.656220 0.000000 0.656220
v -0.656220 0.460000 -0.000000
v -0.656220 0.000000 0.000000
v -0.656220 0.460000 0.656220
v 0.000000 0.460000 0.656220
v 0.000000 0.000000 0.656220
v 0.000000 0.000000 0.000000
v 0.000000 0.460000 -0.000000
v -0.600441 0.520000 0.055779
v -0.600441 0.520000 0.600441
v -0.055779 0.520000 0.600441
v -0.055779 0.520000 0.055779
v -0.500441 0.620000 0.055779
v -0.600441 1.910000 0.055778
v -0.600441 0.620000 0.155779
v -0.600441 0.620000 0.500441
v -0.600441 1.810000 0.500441
v -0.600441 1.910000 0.600441
v -0.600441 1.810000 0.155779
v -0.530441 1.810000 0.155779
v -0.530441 0.620000 0.155779
v -0.530441 0.620000 0.500441
v -0.530441 1.810000 0.500441
v -0.649460 2.000000 0.649460
v -0.649460 2.000000 0.006759
v -0.649460 2.260000 0.006759
v -0.649460 2.260000 0.649460
v -0.006759 2.260000 0.649460
v -0.006759 2.000000 0.649460
v -0.055779 1.910000 0.600441
v -0.055779 1.910000 0.055778
v -0.006759 2.000000 0.006759
v -0.155779 1.810000 0.055778
v -0.155779 0.620000 0.055779
v -0.155779 0.620000 0.125779
v -0.500441 0.620000 0.125779
v -0.500441 1.810000 0.125779
v -0.500441 1.810000 0.055778
v -0.155779 1.810000 0.125779
v -0.055779 1.810000 0.155779
v -0.055779 1.810000 0.500441
v -0.055779 0.620000 0.500441
v -0.055779 0.620000 0.155779
v -0.125779 0.620000 0.155779
v -0.125779 1.810000 0.155779
v -0.125779 1.810000 0.500441
v -0.125779 0.620000 0.500441
v -0.155779 0.620000 0.600441
v -0.500441 0.620000 0.600441
v -0.500441 1.810000 0.600441
v -0.500441 0.620000 0.530441
v -0.500441 1.810000 0.530441
v -0.155779 1.810000 0.530441
v -0.155779 0.620000 0.530441
v -0.155779 1.810000 0.600441
v -0.006759 2.260000 0.006759
v -0.616328 2.300000 0.039891
v -0.039892 2.300000 0.039891
v -0.039892 2.300000 0.616328
v -0.616328 2.300000 0.616328
vt 25.835400 0.000000
vt 0.000000 18.110201
vt 0.000000 0.000000
vt 25.835400 18.110201
vt -25.835400 0.000000
vt -25.835400 18.110201
vt -25.835400 25.835400
vt 0.000000 25.835400
vt 25.835400 25.835400
vt 25.835400 -4.326670
vt 2.196010 -1.101380
vt -0.000000 -4.326670
vt 23.639400 -1.101380
vt -25.835400 -4.326670
vt -2.196010 -1.101380
vt -23.639400 -1.101380
vt -25.835400 13.264000
vt -2.196010 16.489300
vt -23.639400 16.489300
vt 0.000000 13.264000
vt 23.639400 16.489300
vt 2.196010 16.489300
vt 25.835400 13.264000
vt 23.639400 20.472401
vt 19.702400 24.409401
vt 2.196010 20.472401
vt 23.639400 75.196899
vt 6.133020 24.409401
vt 2.196010 75.196899
vt 19.702400 71.259804
vt 6.133020 71.259804
vt -23.639400 24.409401
vt -20.883499 71.259804
vt -23.639400 71.259804
vt -20.883499 24.409401
vt 23.639400 6.133020
vt 20.883499 19.702400
vt 20.883499 6.133020
vt 23.639400 19.702400
vt 23.639400 71.259804
vt 20.883499 24.409401
vt 23.639400 24.409401
vt 20.883499 71.259804
vt -23.639400 19.702400
vt -20.883499 6.133020
vt -20.883499 19.702400
vt -23.639400 6.133020
vt 25.569300 81.378899
vt 2.196010 77.344101
vt 23.639400 77.344101
vt 0.266105 81.378899
vt 25.569300 78.740196
vt 0.266105 88.976402
vt 0.266105 78.740196
vt 25.569300 88.976402
vt -25.569300 78.740196
vt -0.266105 88.976402
vt -25.569300 88.976402
vt -0.266105 78.740196
vt -23.639400 77.344101
vt -0.266105 81.378899
vt -25.569300 81.378899
vt -2.196010 77.344101
vt 2.196010 23.639400
vt 23.639400 2.196010
vt 23.639400 23.639400
vt 2.196010 2.196010
vt -2.196010 64.986603
vt -25.569300 69.021400
vt -23.639400 64.986603
vt -0.266105 69.021400
vt 2.196010 64.986603
vt 25.569300 69.021400
vt 0.266105 69.021400
vt 23.639400 64.986603
vt 19.702400 2.196010
vt 6.133020 4.951920
vt 6.133020 2.196010
vt 19.702400 4.951920
vt -2.196010 24.409401
vt -4.951920 71.259804
vt -4.951920 24.409401
vt -2.196010 71.259804
vt -6.133020 2.196010
vt -19.702400 4.951920
vt -19.702400 2.196010
vt -6.133020 4.951920
vt 2.196010 71.259804
vt 4.951920 24.409401
vt 4.951920 71.259804
vt 2.196010 24.409401
vt -2.196010 75.196899
vt -6.133020 71.259804
vt -2.196010 20.472401
vt -23.639400 75.196899
vt -19.702400 71.259804
vt -19.702400 24.409401
vt -23.639400 20.472401
vt -6.133020 24.409401
vt -2.196010 6.133020
vt -4.951920 19.702400
vt -4.951920 6.133020
vt -2.196010 19.702400
vt 2.196010 19.702400
vt 4.951920 6.133020
vt 4.951920 19.702400
vt 2.196010 6.133020
vt 19.702400 20.883499
vt 6.133020 23.639400
vt 6.133020 20.883499
vt 19.702400 23.639400
vt -19.702400 23.639400
vt -6.133020 20.883499
vt -6.133020 23.639400
vt -19.702400 20.883499
vt 24.264900 70.737000
vt 0.266105 68.692200
vt 25.569300 68.692200
vt 1.570540 70.737000
vt 24.264900 1.570540
vt 1.570540 24.264900
vt 1.570540 1.570540
vt 24.264900 24.264900
vt 1.570540 54.256599
vt 25.569300 52.211700
vt 24.264900 54.256599
vt 0.266105 52.211700
vt 0.266105 25.569300
vt 25.569300 0.266105
vt 25.569300 25.569300
vt 0.266105 0.266105
vt -1.570540 70.737000
vt -25.569300 68.692200
vt -0.266105 68.692200
vt -24.264900 70.737000
vt -1.570540 54.256599
vt -25.569300 52.211700
vt -0.266105 52.211700
vt -24.264900 54.256599
vn -1.000000 0.000000 0.000000
vn 0.000000 0.000000 1.000000
vn 0.000000 -1.000000 0.000000
vn 0.000000 -0.000000 -1.000000
vn 0.000000 1.000000 -0.000000
vn -0.732400 0.680900 -0.000000
vn 0.000000 0.680900 0.732400
vn 0.732400 0.680900 -0.000000
vn 1.000000 0.000000 0.000000
vn 0.000000 0.680900 -0.732400
vn -0.878200 -0.478300 0.000000
vn 0.000000 -0.478300 0.878200
vn 0.878200 -0.478300 0.000000
vn 0.000000 -0.478300 -0.878200
vn 0.000000 0.637900 -0.770100
vn -0.770100 0.637900 0.000000
vn 0.770100 0.637900 0.000000
vn 0.000000 0.637900 0.770100
usemtl Stone.049
s 1
f 1/1/1 2/2/1 3/3/1
f 2/2/1 1/1/1 4/4/1
f 1/5/2 5/2/2 4/6/2
f 5/2/2 1/5/2 6/3/2
f 1/7/3 7/3/3 6/8/3
f 7/3/3 1/7/3 3/5/3
f 2/4/4 7/3/4 3/1/4
f 7/3/4 2/4/4 8/2/4
f 2/1/5 5/8/5 8/3/5
f 5/8/5 2/1/5 4/9/5
f 4/10/6 9/11/6 2/12/6
f 9/11/6 4/10/6 10/13/6
f 4/14/7 11/15/7 10/16/7
f 11/15/7 4/14/7 5/12/7
f 5/17/8 12/18/8 11/19/8
f 12/18/8 5/17/8 8/20/8
f 5/6/9 7/3/9 8/2/9
f 7/3/9 5/6/9 6/5/9
f 8/20/10 9/21/10 12/22/10
f 9/21/10 8/20/10 2/23/10
f 9/24/4 13/25/4 12/26/4
f 13/25/4 9/24/4 14/27/4
f 9/26/1 15/28/1 14/29/1
f 15/28/1 9/26/1 10/24/1
f 15/28/1 10/24/1 16/25/1
f 16/25/1 10/24/1 17/30/1
f 18/27/1 17/30/1 10/24/1
f 18/27/1 19/31/1 17/30/1
f 14/29/1 19/31/1 18/27/1
f 19/31/1 14/29/1 15/28/1
f 15/32/2 20/33/2 19/34/2
f 20/33/2 15/32/2 21/35/2
f 15/36/5 22/37/5 21/38/5
f 22/37/5 15/36/5 16/39/5
f 17/40/4 22/41/4 16/42/4
f 22/41/4 17/40/4 23/43/4
f 17/44/3 20/45/3 23/46/3
f 20/45/3 17/44/3 19/47/3
f 20/31/1 22/25/1 23/30/1
f 22/25/1 20/31/1 21/28/1
f 24/48/11 14/49/11 18/50/11
f 14/49/11 24/48/11 25/51/11
f 24/52/1 26/53/1 25/54/1
f 26/53/1 24/52/1 27/55/1
f 24/56/2 28/57/2 27/58/2
f 28/57/2 24/56/2 29/59/2
f 18/60/12 29/61/12 24/62/12
f 29/61/12 18/60/12 30/63/12
f 30/64/5 14/65/5 18/66/5
f 14/65/5 30/64/5 31/67/5
f 31/68/13 29/69/13 30/70/13
f 29/69/13 31/68/13 32/71/13
f 31/72/14 25/73/14 32/74/14
f 25/73/14 31/72/14 14/75/14
f 31/29/4 33/31/4 14/27/4
f 31/29/4 34/28/4 33/31/4
f 12/26/4 34/28/4 31/29/4
f 34/28/4 12/26/4 13/25/4
f 13/76/5 35/77/5 34/78/5
f 35/77/5 13/76/5 36/79/5
f 13/80/9 37/81/9 36/82/9
f 37/81/9 13/80/9 38/83/9
f 13/25/4 14/27/4 38/30/4
f 38/30/4 14/27/4 33/31/4
f 33/84/3 37/85/3 38/86/3
f 37/85/3 33/84/3 39/87/3
f 33/88/1 35/89/1 39/90/1
f 35/89/1 33/88/1 34/91/1
f 35/28/4 37/30/4 39/31/4
f 37/30/4 35/28/4 36/25/4
f 31/92/9 40/93/9 12/94/9
f 40/93/9 31/92/9 30/95/9
f 40/93/9 30/95/9 41/96/9
f 41/96/9 30/95/9 42/97/9
f 11/98/9 42/97/9 30/95/9
f 11/98/9 43/99/9 42/97/9
f 12/94/9 43/99/9 11/98/9
f 43/99/9 12/94/9 40/93/9
f 40/83/2 44/82/2 43/80/2
f 44/82/2 40/83/2 45/81/2
f 40/100/3 46/101/3 45/102/3
f 46/101/3 40/100/3 41/103/3
f 42/91/4 46/90/4 41/88/4
f 46/90/4 42/91/4 47/89/4
f 42/104/5 44/105/5 47/106/5
f 44/105/5 42/104/5 43/107/5
f 44/99/9 46/96/9 47/97/9
f 46/96/9 44/99/9 45/93/9
f 48/99/2 11/94/2 30/92/2
f 11/94/2 48/99/2 10/98/2
f 49/97/2 10/98/2 48/99/2
f 10/98/2 49/97/2 18/95/2
f 18/95/2 49/97/2 50/96/2
f 51/35/9 50/34/9 49/32/9
f 50/34/9 51/35/9 52/33/9
f 51/97/2 53/93/2 52/96/2
f 53/93/2 51/97/2 54/99/2
f 51/108/5 48/109/5 54/110/5
f 48/109/5 51/108/5 49/111/5
f 48/42/1 53/43/1 54/41/1
f 53/43/1 48/42/1 55/40/1
f 48/99/2 30/92/2 55/93/2
f 55/93/2 30/92/2 50/96/2
f 18/95/2 50/96/2 30/92/2
f 50/112/3 53/113/3 55/114/3
f 53/113/3 50/112/3 52/115/3
f 26/55/4 32/54/4 25/52/4
f 32/54/4 26/55/4 56/53/4
f 57/116/15 56/117/15 26/118/15
f 56/117/15 57/116/15 58/119/15
f 57/120/5 59/121/5 58/122/5
f 59/121/5 57/120/5 60/123/5
f 57/124/16 27/125/16 60/126/16
f 27/125/16 57/124/16 26/127/16
f 28/128/5 26/129/5 27/130/5
f 26/129/5 28/128/5 56/131/5
f 58/132/17 28/133/17 56/134/17
f 28/133/17 58/132/17 59/135/17
f 59/136/18 27/137/18 28/138/18
f 27/137/18 59/136/18 60/139/18
f 28/58/9 32/59/9 56/57/9
f 32/59/9 28/58/9 29/56/9
