# Blender v2.76 (sub 0) OBJ File: ''
# www.blender.org
mtllib naturePack_096.mtl
o Mesh1_Grey_Cliff_Top_Model
v 0.420000 0.290000 3.000000
v -0.500000 0.000000 3.000000
v 0.280000 0.000000 3.000000
v -0.500000 0.290000 3.000000
v 0.215291 0.290000 3.000000
v 0.273829 0.290000 2.387190
v 0.133829 0.000000 2.387190
v -0.082659 0.000000 1.274920
v -0.500000 0.000000 0.000000
v 0.161050 0.000000 0.371864
v 0.280000 0.000000 0.000000
v -0.500000 0.290000 -0.000000
v 0.420000 0.290000 -0.000000
v 0.210938 0.290000 -0.000000
v 0.090737 0.290000 0.375774
v -0.174238 0.290000 1.268630
v 0.067353 0.290000 2.379780
v 0.204229 0.290000 1.946340
v 0.420000 0.290000 1.924320
v 0.057341 0.290000 1.274920
v 0.280000 0.000000 1.924320
v 0.280000 0.000000 0.701031
v 0.420000 0.290000 0.701031
v 0.301050 0.290000 0.371864
v 0.199607 0.290000 0.677046
vt 19.684999 0.000000
vt -3.572320 14.794200
vt -8.304630 -0.000000
vt 6.859780 49.946201
vt 19.684999 118.110001
vt -2.651690 93.692299
vt -8.476010 118.110001
vt -7.858530 26.655300
vt -8.040530 76.627502
vt 16.535400 11.417300
vt -19.684999 -0.000000
vt 11.023600 -0.000000
vt -19.684999 11.417300
vt 8.476010 11.417300
vt -16.535400 118.110001
vt -10.780700 93.983902
vt -117.445000 -7.090210
vt -93.920601 5.523270
vt -118.723999 5.523270
vt -92.641701 -7.090210
vt -19.684999 118.110001
vt 5.268870 93.983902
vt 11.023600 118.110001
vt -3.254290 50.193600
vt 6.340550 14.640300
vt 19.684999 11.417300
vt -11.023600 -0.000000
vt -16.535400 11.417300
vt -8.304630 11.417300
vt -16.535400 75.760399
vt -2.257520 50.193600
vt -74.207199 1.781170
vt -42.236401 -10.608900
vt -44.923801 1.781170
vt -71.519798 -10.608900
vt -86.375099 26.504801
vt -68.924301 13.935700
vt -67.264603 26.504801
vt -88.034897 13.935700
vt 11.023600 75.760399
vt -17.442499 9.092080
vt -41.225399 21.423599
vt -44.169800 9.092080
vt -14.498100 21.423599
vt -15.923800 0.408251
vt -31.576500 12.947200
vt -29.703300 0.408251
vt -17.797001 12.947200
vt 3.358540 4.386300
vt -10.333300 16.952700
vt -12.012500 4.386300
vt 5.037820 16.952700
vt -11.852400 14.640300
vt -16.535400 -0.000000
vt -16.535400 27.599600
vt 11.023600 27.599600
vt -0.000000 11.417300
vt 118.110001 -0.000000
vt 118.110001 11.417300
vt -0.000000 -0.000000
vn -0.000000 1.000000 -0.000000
vn 0.000000 0.000000 1.000000
vn 0.880500 -0.425100 -0.210000
vn 0.000000 -1.000000 0.000000
vn -0.000000 -0.000000 -1.000000
vn 0.804500 -0.388400 -0.449300
vn 0.866200 -0.418200 0.273500
vn 0.782700 -0.377800 0.494600
vn 0.856300 -0.413400 -0.309500
vn 0.865400 -0.417800 0.276800
vn -1.000000 0.000000 0.000000
usemtl Leafs.032
s 1
f 12/1/1 15/2/1 14/3/1
f 15/2/1 12/1/1 16/4/1
f 4/5/1 16/4/1 12/1/1
f 4/5/1 17/6/1 16/4/1
f 17/6/1 4/5/1 5/7/1
f 16/4/1 25/8/1 15/2/1
f 16/4/1 17/6/1 18/9/1
usemtl Stone.024
f 1/10/2 2/11/2 3/12/2
f 2/11/2 1/10/2 4/13/2
f 4/13/2 1/10/2 5/14/2
f 5/7/1 1/15/1 6/16/1
f 3/17/3 6/18/3 1/19/3
f 6/18/3 3/17/3 7/20/3
f 2/21/4 7/22/4 3/23/4
f 7/22/4 2/21/4 8/24/4
f 9/11/4 8/24/4 2/21/4
f 9/11/4 10/25/4 8/24/4
f 10/25/4 9/11/4 11/12/4
f 12/26/5 11/27/5 9/1/5
f 11/27/5 12/26/5 13/28/5
f 13/28/5 12/26/5 14/29/5
f 17/6/1 5/7/1 18/9/1
f 6/16/1 18/9/1 5/7/1
f 19/30/1 18/9/1 6/16/1
f 18/9/1 19/30/1 20/31/1
f 19/32/6 8/33/6 20/34/6
f 8/33/6 19/32/6 21/35/6
f 6/36/7 21/37/7 19/38/7
f 21/37/7 6/36/7 7/39/7
f 8/24/4 21/40/4 7/22/4
f 22/41/8 20/42/8 8/43/8
f 20/42/8 22/41/8 23/44/8
f 10/45/9 23/46/9 22/47/9
f 23/46/9 10/45/9 24/48/9
f 11/49/10 24/50/10 10/51/10
f 24/50/10 11/49/10 13/52/10
f 14/3/1 24/53/1 13/54/1
f 25/8/1 24/53/1 14/3/1
f 20/31/1 24/53/1 25/8/1
f 24/53/1 20/31/1 23/55/1
f 20/31/1 25/8/1 16/4/1
f 15/2/1 25/8/1 14/3/1
f 18/9/1 20/31/1 16/4/1
f 8/24/4 10/25/4 22/56/4
f 12/57/11 2/58/11 4/59/11
f 2/58/11 12/57/11 9/60/11
