# Blender v2.76 (sub 0) OBJ File: ''
# www.blender.org
mtllib naturePack_flat_012.mtl
o Mesh2_Group1_Model.003
v -1.035070 0.415000 0.372555
v -0.517537 0.000000 0.372555
v -0.629033 0.181782 0.582555
v -0.629033 0.181782 0.162555
vt 8.197390 28.991899
vt 3.059930 18.387600
vt -6.739790 42.596600
vt 22.659401 7.976550
vt 17.521900 18.580799
vt 32.459099 32.185501
vn 0.591700 0.737900 -0.324600
vn 0.591700 0.737900 0.324600
usemtl Green_leafs.059
s 1
f 3/1/1 2/2/1 1/3/1
f 2/4/2 4/5/2 1/6/2
o Mesh1_Group1_Model.089
v -0.517537 0.000000 0.372555
v 0.000000 0.415000 0.372555
v -0.406041 0.181782 0.582555
v -0.406041 0.181782 0.162555
vt -27.796801 2.627680
vt -12.859700 16.232401
vt -22.659401 -7.976550
vt -12.859700 5.821330
vt 2.077530 -7.783410
vt -3.059930 -18.387600
vn -0.591700 0.737900 -0.324600
vn -0.591700 0.737900 0.324600
usemtl Green_leafs.059
s 1
f 7/7/3 6/8/3 5/9/3
f 6/10/4 8/11/4 5/12/4
o Mesh3_Group1_Model.002
v -0.517537 0.560250 -0.000000
v -0.517537 0.000000 0.372555
v -0.727537 0.245406 0.292293
v -0.307537 0.245406 0.292293
vt 30.867800 8.120810
vt 24.338600 -3.239500
vt 18.951300 22.695601
vt 13.564000 -11.112700
vt 7.034800 0.247600
vt 18.951300 14.822400
vn 0.312400 0.526000 0.791000
vn -0.312400 0.526000 0.791000
usemtl Green_leafs.059
s 1
f 11/13/5 10/14/5 9/15/5
f 10/16/6 12/17/6 9/18/6
o Mesh4_Group1_Model.002
v -0.517537 0.560250 0.745109
v -0.517537 0.000000 0.372555
v -0.307537 0.245406 0.452816
v -0.727537 0.245406 0.452816
vt -17.809401 14.599800
vt -24.338600 3.239500
vt -29.725901 29.174601
vt -13.564000 11.112700
vt -20.093300 22.473000
vt -8.176750 37.047798
vn -0.312400 0.526000 -0.791000
vn 0.312400 0.526000 -0.791000
usemtl Green_leafs.059
s 1
f 15/19/7 14/20/7 13/21/7
f 14/22/8 16/23/8 13/24/8
