# Blender v2.76 (sub 0) OBJ File: ''
# www.blender.org
mtllib naturePack_079.mtl
o Mesh1_Group1_Model.056
v -0.798649 0.210000 0.333900
v -0.458993 0.000000 0.000000
v -0.917987 0.000000 0.265000
v -0.458993 0.210000 0.137800
v -0.798649 0.590000 0.333900
v -0.458993 0.590000 0.137800
v -0.458993 0.590000 0.250668
v -0.217085 0.590000 0.390334
v -0.119338 0.590000 0.333900
v -0.119338 0.590000 0.726100
v -0.217085 0.590000 0.669666
v -0.458993 0.590000 0.922200
v -0.458993 0.590000 0.809332
v -0.217085 0.510000 0.669666
v -0.458993 0.510000 0.809332
v -0.458993 0.510000 0.250668
v -0.217085 0.510000 0.390334
v -0.700902 0.510000 0.390334
v -0.700902 0.590000 0.390334
v -0.700902 0.590000 0.669666
v -0.798649 0.590000 0.726100
v -0.700902 0.510000 0.669666
v -0.798649 0.210000 0.726100
v -0.458993 0.210000 0.922200
v -0.917987 0.000000 0.795000
v -0.458993 0.000000 1.060000
v 0.000000 0.000000 0.265000
v 0.000000 0.000000 0.795000
v -0.119338 0.210000 0.333900
v -0.119338 0.210000 0.726100
vt 20.584000 20.078699
vt 31.581301 23.228300
vt 20.584000 23.228300
vt 31.581301 20.078699
vt 8.546660 26.364799
vt 18.070601 9.868830
vt 18.070601 31.863501
vt 8.546660 15.367500
vt 26.364799 20.078699
vt 15.367500 23.228300
vt 15.367500 20.078699
vt 26.364799 23.228300
vt 0.282120 23.228300
vt -10.715200 20.078699
vt 0.282120 20.078699
vt -10.715200 23.228300
vt -20.584000 23.228300
vt -31.581301 20.078699
vt -20.584000 20.078699
vt -31.581301 23.228300
vt -0.282120 20.078699
vt 10.715200 23.228300
vt -0.282120 23.228300
vt 10.715200 20.078699
vt 27.594601 15.367500
vt 27.594601 26.364799
vt -15.367500 20.078699
vt -26.364799 23.228300
vt -26.364799 20.078699
vt -15.367500 23.228300
vt 33.803101 5.045360
vt 15.649600 -4.464090
vt 36.515701 -4.464090
vt 18.362200 5.045360
vt 33.803101 23.228300
vt 18.362200 8.267720
vt 33.803101 8.267720
vt 18.362200 23.228300
vt 18.070601 5.425200
vt 31.442900 13.145700
vt 4.698360 13.145700
vt 4.698360 28.586599
vt 18.070601 36.307098
vt 31.442900 28.586599
vt -12.937000 8.267720
vt 2.503940 23.228300
vt -12.937000 23.228300
vt 2.503940 8.267720
vt -15.649600 -22.320499
vt 2.503940 -12.811000
vt -12.937000 -12.811000
vt 5.216540 -22.320499
vt -18.070601 0.000000
vt -18.070601 41.732300
vt -36.141201 31.299200
vt 0.000000 10.433100
vt 0.000000 31.299200
vt -13.145700 9.509450
vt -31.299200 -0.000000
vt -10.433100 -0.000000
vt -28.586599 9.509450
vt -13.145700 8.267720
vt -28.586599 23.228300
vt -28.586599 8.267720
vt -13.145700 23.228300
vt -2.503940 8.267720
vt 12.937000 23.228300
vt -2.503940 23.228300
vt 12.937000 8.267720
vt -5.216540 4.464090
vt 12.937000 13.973500
vt -2.503940 13.973500
vt 15.649600 4.464090
vt -18.362200 23.228300
vt -33.803101 8.267720
vt -18.362200 8.267720
vt -33.803101 23.228300
vt -36.515701 -13.392300
vt -18.362200 -3.882830
vt -33.803101 -3.882830
vt -15.649600 -13.392300
vt -36.141201 10.433100
vt 31.299200 -17.856400
vt 13.145700 -8.346920
vt 10.433100 -17.856400
vt 28.586599 -8.346920
vt 28.586599 8.267720
vt 13.145700 23.228300
vt 13.145700 8.267720
vt 28.586599 23.228300
vn -0.500000 -0.000000 -0.866000
vn -0.000000 1.000000 -0.000000
vn -1.000000 -0.000000 0.000000
vn -0.500000 0.000000 0.866000
vn 0.500000 0.000000 0.866000
vn 0.500000 -0.000000 -0.866000
vn 1.000000 -0.000000 0.000000
vn -0.434700 0.494100 -0.752900
vn -0.434700 0.494100 0.752900
vn -0.000000 -1.000000 0.000000
vn 0.869400 0.494100 -0.000000
vn 0.434700 0.494100 -0.752900
vn 0.434700 0.494100 0.752900
vn -0.869400 0.494100 -0.000000
usemtl Light_Wood.001
s 1
f 14/1/1 13/2/1 11/3/1
f 13/2/1 14/1/1 15/4/1
f 14/5/2 16/6/2 15/7/2
f 16/6/2 14/5/2 17/8/2
f 14/9/3 8/10/3 17/11/3
f 8/10/3 14/9/3 11/12/3
f 8/13/4 16/14/4 17/15/4
f 16/14/4 8/13/4 7/16/4
f 7/17/5 18/18/5 16/19/5
f 18/18/5 7/17/5 19/20/5
f 15/21/6 20/22/6 13/23/6
f 20/22/6 15/21/6 22/24/6
f 15/7/2 18/25/2 22/26/2
f 15/7/2 16/6/2 18/25/2
f 18/27/7 20/28/7 22/29/7
f 20/28/7 18/27/7 19/30/7
usemtl Wood.050
f 1/31/8 2/32/8 3/33/8
f 2/32/8 1/31/8 4/34/8
f 5/35/1 4/36/1 1/37/1
f 4/36/1 5/35/1 6/38/1
f 7/6/2 6/39/2 5/40/2
f 8/8/2 6/39/2 7/6/2
f 8/8/2 9/41/2 6/39/2
f 9/41/2 8/8/2 10/42/2
f 11/5/2 10/42/2 8/8/2
f 10/42/2 11/5/2 12/43/2
f 12/43/2 11/5/2 13/7/2
f 7/6/2 5/40/2 19/25/2
f 19/25/2 5/40/2 20/26/2
f 21/44/2 20/26/2 5/40/2
f 12/43/2 20/26/2 21/44/2
f 12/43/2 13/7/2 20/26/2
f 23/45/4 12/46/4 21/47/4
f 12/46/4 23/45/4 24/48/4
f 25/49/9 24/50/9 23/51/9
f 24/50/9 25/49/9 26/52/9
f 2/53/10 26/54/10 25/55/10
f 27/56/10 26/54/10 2/53/10
f 26/54/10 27/56/10 28/57/10
f 29/58/11 28/59/11 27/60/11
f 28/59/11 29/58/11 30/61/11
f 29/62/7 10/63/7 30/64/7
f 10/63/7 29/62/7 9/65/7
f 29/66/6 6/67/6 9/68/6
f 6/67/6 29/66/6 4/69/6
f 27/70/12 4/71/12 29/72/12
f 4/71/12 27/70/12 2/73/12
f 10/74/5 24/75/5 30/76/5
f 24/75/5 10/74/5 12/77/5
f 26/78/13 30/79/13 24/80/13
f 30/79/13 26/78/13 28/81/13
f 2/53/10 25/55/10 3/82/10
f 25/83/14 1/84/14 3/85/14
f 1/84/14 25/83/14 23/86/14
f 23/87/3 5/88/3 1/89/3
f 5/88/3 23/87/3 21/90/3
