# Blender v2.76 (sub 0) OBJ File: ''
# www.blender.org
mtllib naturePack_077.mtl
o Mesh1_Group1_Model.055
v -1.671200 0.265000 0.831652
v -1.606420 0.000000 0.570621
v -1.843350 0.000000 0.807548
v -1.581760 0.265000 0.742219
v -1.607530 0.265000 0.946226
v -1.516540 0.265000 0.931263
v -1.516540 0.265000 0.777847
v -1.377770 0.000000 1.049080
v -1.377770 0.000000 0.695526
v -1.403040 0.000000 0.681719
v -1.411170 0.000000 1.054570
v -1.441860 0.012729 1.052860
v -1.609200 0.038425 1.066750
v -1.681390 0.000000 1.099010
v -1.629960 0.000000 1.090550
v -1.629960 0.000000 1.295990
v -1.566120 0.000000 0.592638
v -1.492070 0.000000 0.225122
v -1.440890 0.000000 1.545990
v -1.319850 0.000000 0.283750
v -1.316750 0.000000 0.696108
v -1.267490 0.000000 0.057520
v -1.207200 0.000000 0.450679
v -1.206450 0.000000 0.451795
v -1.067730 0.000000 0.531883
v -0.956449 0.000000 0.018783
v -0.875982 0.000000 0.347444
v -0.823615 0.000000 0.095474
v -0.813350 0.000000 0.046169
v -0.616777 0.000000 0.447463
v -0.536673 0.000000 0.603834
v -0.500000 0.000000 0.616885
v -0.483127 0.000000 0.000000
v -0.500000 0.000000 0.825280
v -0.386766 0.000000 0.217451
v -0.379098 0.000000 0.985145
v -0.370380 0.000000 0.201065
v -0.378766 0.170000 0.383839
v -0.392571 0.070879 0.295965
v -0.516347 0.265000 0.267563
v -0.567588 0.265000 0.151932
v -0.697400 0.265000 0.170081
v -0.796101 0.076098 0.158830
v -0.984164 0.245000 0.155617
v -1.185790 0.245000 0.180727
v -1.362020 0.000000 0.221258
v -1.206030 0.245000 0.215793
v -1.113820 0.245000 0.352439
v -1.221390 0.064888 0.366989
v -1.444290 0.170000 0.371646
v -1.592190 0.000000 0.367677
v -1.464290 0.170000 0.400122
v -1.446990 0.170000 0.549379
v -1.534220 0.037375 0.632363
v -1.390500 0.170000 0.558799
v -1.325080 0.170000 0.412230
v -1.087750 0.245000 0.367488
v -0.875999 0.000118 0.347371
v -0.551955 0.056603 0.440704
v -0.620380 0.000000 0.451065
v -0.467815 0.170000 0.472888
v -0.451095 0.170000 0.503404
v -0.309536 0.170000 0.553782
v -0.276141 0.170000 0.507251
v -0.196840 0.000000 0.608240
v -0.120380 0.000000 0.501703
v -0.299609 0.000000 1.485140
v -0.106042 0.000000 1.042820
v -0.049608 0.000000 1.235140
v -0.226870 0.265000 1.123920
v -0.145209 0.069136 1.037930
v -0.156184 0.084720 1.029510
v -0.204592 0.245000 0.942920
v -0.288162 0.084720 1.029510
v -0.245083 0.245000 0.942920
v -0.329668 0.245000 0.707640
v -0.132360 0.245000 0.794738
v -0.132360 0.245000 0.764640
v 0.000000 0.000000 0.825280
v 0.000000 0.000000 0.665105
v -0.285953 0.082991 0.629165
v -0.317158 0.081422 0.619267
v -0.479893 0.037218 0.595386
v -0.367640 0.245000 0.707640
v -0.367640 0.245000 0.780865
v -0.353346 0.265000 1.123920
v -0.458032 0.000000 0.985145
v -0.634468 0.000000 1.757010
v -0.349693 0.000000 1.449210
v -0.344468 0.000000 1.467010
v -0.525820 0.215180 1.420710
v -0.550092 0.215180 1.337990
v -0.483611 0.109129 1.282780
v -0.481908 0.093452 1.246920
v -0.389345 0.265000 1.249950
v -0.512835 0.000000 1.177010
v -0.818239 0.000000 1.177010
v -0.857895 0.000000 1.596690
v -0.651659 0.215180 1.546550
v -0.876567 0.055444 1.532240
v -0.738563 0.215180 1.484190
v -0.696804 0.215180 1.337990
v -0.881963 0.000000 1.400110
v -0.856196 0.059067 1.470790
v -1.084510 0.170000 1.407950
v -1.123710 0.000000 1.229230
v -0.891024 0.000000 1.684520
v -0.973651 0.170000 1.554180
v -0.953437 0.170000 1.500590
v -1.123420 0.170000 1.542160
v -1.147470 0.170000 1.517010
v -1.264260 0.036828 1.526090
v -1.141990 0.022276 1.293210
v -1.129960 0.000000 1.240050
v -1.180090 0.000000 1.661320
v -1.278470 0.024467 1.532770
v -1.375040 0.245000 1.413630
v -1.290380 0.000000 1.545990
v -1.129960 0.000000 1.135810
v -1.262320 0.245000 1.235350
v -1.262320 0.245000 1.265440
v -1.459620 0.245000 1.178350
v -1.334550 0.245000 1.413630
v -1.497600 0.245000 1.251570
v -1.497600 0.245000 1.178350
v -0.314428 0.265000 1.303710
v -0.205946 0.265000 1.195230
v -0.573065 0.265000 0.315584
v -0.716195 0.265000 0.260354
v -0.848300 0.032176 0.296698
v -0.920749 0.245000 0.192230
v -0.939735 0.245000 0.225115
vt 69.676399 -1.600060
vt 60.606300 -13.377100
vt 73.797897 -13.377100
vt 64.696999 -1.600060
vt 63.288601 37.252998
vt 62.274101 29.221201
vt 65.795097 32.742199
vt 59.706501 36.663898
vt 59.706501 30.623899
vt -41.302299 25.164000
vt -30.623899 36.941002
vt -36.663898 36.941002
vt -27.382900 25.164000
vt -54.243000 41.302299
vt -55.237999 26.839300
vt -54.243000 27.382900
vt -55.557899 41.518600
vt -64.864601 -3.046250
vt -61.558899 -14.823300
vt -60.226200 -14.823300
vt -62.740200 -14.257600
vt -69.329597 -13.115700
vt -68.494904 -3.046250
vt -72.340401 -14.823300
vt -70.288200 -14.823300
vt -72.572701 31.793200
vt -64.171600 42.935101
vt -66.196602 43.268101
vt -63.244900 22.465401
vt -64.171600 51.023102
vt -61.658100 23.332199
vt -58.742901 8.863060
vt -56.727901 60.865601
vt -51.962700 11.171200
vt -51.840599 27.405800
vt -49.901100 2.264580
vt -47.527599 17.743299
vt -47.498001 17.787201
vt -42.036701 20.940300
vt -37.655499 0.739471
vt -34.487499 13.678900
vt -32.425800 3.758810
vt -32.021599 1.817680
vt -24.282600 17.616600
vt -21.128901 23.773001
vt -19.684999 24.286800
vt -19.020700 0.000000
vt -19.684999 32.491299
vt -15.227000 8.561060
vt -14.925100 38.785198
vt -14.581900 7.915960
vt 16.820700 -2.767570
vt 21.230000 5.500650
vt 15.908400 -2.767570
vt 19.168100 0.679737
vt -1.657900 8.067330
vt -1.394760 19.844400
vt -4.391340 11.217300
vt 3.584620 19.844400
vt 7.706090 8.067330
vt 18.837500 -1.221810
vt 28.119400 10.555200
vt 22.959000 10.555200
vt 31.964899 -1.221810
vt 10.289400 -14.371500
vt 12.152100 -2.594410
vt 8.306620 -14.371500
vt 12.510600 -10.989500
vt 26.202200 9.253490
vt 30.492201 20.216801
vt 24.016899 12.658700
vt 32.240799 9.253490
vt 37.458199 -1.863210
vt 47.206001 9.100070
vt 39.206799 9.100070
vt 49.798500 -1.863210
vt 34.355400 -20.002899
vt 29.504200 -9.039570
vt 26.911800 -20.002899
vt 31.098400 -9.039570
vt -22.774900 -23.443199
vt -13.027800 -12.479900
vt -19.517900 -12.479900
vt -19.806801 -23.443199
vt -53.623001 8.710950
vt -14.921900 -20.539600
vt 45.590302 16.041700
vt 49.112999 24.309900
vt 40.864498 19.197599
vt 52.752701 16.041700
vt 47.872200 -25.234900
vt 44.653702 -16.966700
vt 41.014000 -25.234900
vt 46.023701 -16.966700
vt 16.079100 -37.539200
vt 9.011650 -29.271000
vt 7.163110 -37.539200
vt 14.927200 -29.271000
vt 17.777300 -35.721500
vt 42.925098 23.212099
vt 40.642502 34.989101
vt 41.073299 24.873100
vt 44.733200 23.212099
vt 37.716702 34.989101
vt 34.475700 23.212099
vt 35.609501 23.212099
vt -50.071602 -20.878500
vt -50.380299 -12.610300
vt -55.485199 -19.060699
vt -46.627300 -20.878500
vt -35.574799 21.236300
vt -42.403198 29.504499
vt -46.156200 21.236300
vt -36.084099 29.504499
vt -32.793701 24.392200
vt -11.825300 -23.443199
vt -11.878300 -23.443199
vt -32.240799 -18.610100
vt -29.853399 -7.646800
vt -31.038401 -7.646800
vt -25.934700 -18.610100
vt -44.812901 6.677830
vt -34.336800 6.683100
vt -40.894199 17.641100
vt -34.338299 6.677830
vt -27.250900 -11.680000
vt -14.027400 -9.164440
vt -27.252501 -11.674700
vt -16.312599 -11.680000
vt 29.827801 -2.767570
vt 27.634501 -0.014586
vt 29.627199 -2.767570
vt 26.188101 5.500650
vt 17.759600 19.819099
vt 14.912100 15.111800
vt 18.417900 18.617599
vt 12.186400 21.802401
vt 10.871700 19.970501
vt -23.973200 -4.501330
vt -22.563400 3.766890
vt -24.818300 3.766890
vt -18.810499 -4.501330
vt -7.749590 23.946501
vt -4.739370 19.752100
vt -11.795600 58.470299
vt -4.174880 41.056000
vt -1.953090 48.627701
vt -38.219501 7.221110
vt -39.943699 18.998199
vt -46.110500 7.221110
vt -37.600498 10.293600
vt -37.160801 10.986200
vt -8.054800 -9.158630
vt -6.148980 -16.330900
vt -5.716880 -17.028200
vt -11.344900 -16.330900
vt -9.648930 -9.158630
vt 8.054800 37.122799
vt 12.979000 27.859800
vt 9.648930 37.122799
vt 5.211010 31.288900
vt 5.211010 30.103901
vt -32.491299 -0.000000
vt -30.103901 10.963300
vt -31.288900 10.963300
vt -26.185200 -0.000000
vt 0.000000 26.185200
vt 0.000000 32.491299
vt 3.940940 15.670900
vt -7.267470 11.957300
vt 0.799018 11.957300
vt -3.348780 22.920601
vt 4.736900 22.920601
vt 5.229390 15.600700
vt -10.086700 -9.041740
vt -3.589480 -13.349900
vt -2.301370 -13.273600
vt -9.940750 -15.499800
vt -11.935300 -17.309999
vt -10.402700 -17.309999
vt 24.286800 -9.356590
vt 27.859800 1.606690
vt 23.440399 -7.691170
vt 32.491299 -9.356590
vt 30.742701 1.606690
vt 14.040900 -16.778299
vt 23.788700 -5.815010
vt 15.789500 -5.815010
vt 21.931999 -16.778299
vt 25.484699 -12.987200
vt 14.925100 17.992901
vt 13.911300 29.770000
vt 11.344900 21.757999
vt 18.032700 17.992901
vt -24.979099 69.173698
vt -18.032700 38.785198
vt -13.767400 57.055401
vt -13.561700 57.756302
vt -50.870800 17.536501
vt -47.841801 28.116400
vt -51.601299 17.536501
vt -44.447800 28.116400
vt -43.098999 22.902201
vt -41.763401 22.131300
vt 51.528198 8.674840
vt 52.414501 1.050940
vt 53.790100 1.747680
vt 50.102299 -3.102210
vt 46.367901 8.674840
vt 42.246399 -3.102210
vt -20.190300 46.339001
vt -32.214100 46.339001
vt -33.775398 62.861900
vt 14.652200 -31.810101
vt 9.206210 -42.389999
vt 20.032700 -42.389999
vt 7.129660 -39.663898
vt 10.441100 -31.810101
vt 25.655800 60.887600
vt 27.433201 52.676701
vt 29.077299 58.432598
vt 21.657200 52.676701
vt 20.701599 55.933300
vt -66.575996 -18.719801
vt -54.189098 -8.139870
vt -61.195499 -8.139870
vt -50.429501 -18.719801
vt 18.972799 32.353199
vt 27.433201 38.338299
vt 21.657200 38.338299
vt 20.190300 27.758400
vt 32.214100 27.758400
vt 62.539200 -10.931400
vt 58.185501 -0.351424
vt 53.404598 -10.931400
vt 64.171501 -0.351424
vt 64.936302 -8.027170
vt -3.462260 38.197498
vt 2.871330 46.465698
vt -5.896830 41.070301
vt 8.192990 38.197498
vt -34.722900 55.122398
vt -35.079700 66.319702
vt -44.240601 48.395000
vt -70.737000 5.528930
vt -70.779503 13.797100
vt -74.432701 5.528930
vt -68.622299 8.225540
vt -68.524597 13.797100
vt -66.075600 8.401740
vt 67.482903 -8.205290
vt -3.447840 46.465698
vt 42.697102 55.431000
vt 38.332699 61.188301
vt 37.536900 59.078499
vt 44.229301 60.714901
vt 45.176102 59.724800
vt 69.353203 -0.020067
vt 76.919701 -6.497090
vt 74.311302 -0.020067
vt 66.572800 -7.204870
vt 64.523399 -8.288290
vt 64.031601 -8.288290
vt -46.460400 65.406197
vt -44.486500 48.820900
vt -33.313702 -32.195000
vt -41.077801 -40.463200
vt -29.660500 -40.463200
vt -39.229198 -32.195000
vt 11.942200 -37.989300
vt 15.160700 -46.257500
vt 13.312200 -37.989300
vt 8.826330 -45.067600
vt 77.427200 -7.098320
vt -54.135399 -17.967100
vt -50.333302 -27.835501
vt -49.773899 -27.282400
vt -56.727901 -28.930300
vt -50.802399 -28.930300
vt -50.802399 60.865601
vt -44.486500 44.716999
vt -48.635700 32.108398
vt -48.820900 21.145100
vt -44.716999 21.145100
vt -49.820702 32.108398
vt 57.465599 46.391602
vt 49.697498 49.820702
vt 49.697498 48.635700
vt 52.541302 55.654598
vt 54.135399 55.654598
vt 58.960499 49.274502
vt 58.960499 46.391602
vt 57.465599 30.537001
vt 63.354301 21.293200
vt 58.960499 30.537001
vt 56.766300 20.143400
vt 34.246700 37.251598
vt 43.031700 26.857901
vt 42.332401 37.251598
vt 30.327999 26.288300
vt 41.852200 26.288300
vt 42.935101 -30.501699
vt 46.391602 -19.538401
vt 41.997799 -28.782301
vt 51.023102 -30.501699
vt 49.274502 -19.538401
vt 1.987530 -38.956699
vt 11.735300 -27.993401
vt 3.736130 -27.993401
vt 14.327800 -38.956699
vt -52.541302 -17.967100
vt -65.466202 9.377460
vt -73.049500 19.343901
vt -75.816902 10.028700
vt -66.559303 19.343901
vt -50.913799 22.141899
vt 8.878210 -46.257500
vt 12.379000 51.327099
vt 13.911300 44.248699
vt 15.328600 49.210701
vt 8.931890 44.248699
vt 8.108100 47.056198
vt -49.685501 -15.310900
vt -39.007000 -3.533880
vt -45.047100 -3.533880
vt -35.766102 -15.310900
vt -42.869598 18.998199
vt 19.865601 -13.451700
vt 22.077101 -25.228701
vt 24.504000 -25.228701
vt 13.973400 -20.378799
vt 16.235300 -13.451700
vt 8.931890 29.770000
vt 6.148980 21.757999
vt 14.474000 30.742701
vt 14.474000 27.859800
vt 12.486500 14.408800
vt 14.474000 21.728600
vt 12.979000 21.728600
vt 18.893400 12.430700
vt 7.477010 -9.318910
vt 10.695500 -17.587099
vt 8.846970 -9.318910
vt 3.837300 -17.587099
vt -24.424400 17.758499
vt -4.171160 -9.041740
vt -26.688101 -0.464953
vt -29.206200 -6.766920
vt -36.898800 4.196360
vt -38.734200 -6.766920
vt -30.408600 4.196360
vt -39.236698 -3.673220
vt -2.084760 17.823099
vt -12.156900 9.554880
vt 3.236900 9.554880
vt -8.403930 17.823099
vt -19.324900 2.979590
vt -25.247200 11.606700
vt -27.796000 2.345150
vt -22.321400 11.606700
vt 22.346001 5.981570
vt 22.561600 12.424500
vt 20.328600 10.534000
vt 27.456699 6.696100
vt 28.196699 10.250200
vt 18.243401 -12.941500
vt 15.782400 -2.594410
vt -24.679100 21.609501
vt -26.814899 12.086100
vt -21.086700 14.051500
vt -26.174101 21.609501
vt 38.746601 6.126640
vt 36.997501 8.862790
vt 36.250000 7.568090
vt 42.824902 14.468000
vt 46.684502 7.115250
vt 43.851101 13.875600
vt 47.481602 8.495800
vt -32.167801 8.117650
vt -32.808601 17.641100
vt 20.418800 -14.366200
vt -22.616100 0.097074
vt -16.576099 0.097074
vt 27.609301 20.216801
vt 44.154900 24.309900
vt 56.861900 14.631700
vt 54.744099 22.000000
vt 52.168400 16.229500
vt 56.968300 21.629101
vt 57.649200 15.752800
vt -52.635201 -12.610300
vt -62.684502 14.475500
vt 5.669110 -36.593201
vt -3.336790 -24.816099
vt -7.458260 -36.593201
vt 1.823600 -24.816099
vn -0.626400 0.463900 -0.626400
vn 0.000000 1.000000 -0.000000
vn 0.885900 0.463900 -0.000000
vn 0.000000 -1.000000 0.000000
vn 0.143800 0.463900 0.874100
vn 0.143700 0.463900 0.874200
vn 0.143700 0.463900 0.874100
vn 0.143800 0.463800 0.874200
vn -0.572400 0.587200 -0.572400
vn -0.572400 0.587100 -0.572400
vn 0.809900 0.463900 -0.358900
vn -0.122700 0.463900 -0.877300
vn -0.867300 0.463900 -0.180600
vn 0.439900 0.475300 -0.761900
vn -0.108700 0.475300 -0.873100
vn -0.762000 0.475300 -0.439900
vn -0.762000 0.475300 -0.439800
vn -0.729300 0.475300 0.492100
vn 0.260900 0.587200 -0.766300
vn -0.662400 0.587200 -0.465200
vn -0.804100 0.587200 0.093200
vn 0.424700 0.463900 -0.777400
vn 0.424700 0.463900 -0.777500
vn 0.424700 0.464000 -0.777400
vn 0.424700 0.464100 -0.777300
vn -0.133100 0.587200 0.798500
vn -0.133100 0.587200 0.798400
vn 0.739200 0.587200 0.329900
vn -0.439900 0.475300 0.761900
vn -0.439900 0.475300 0.762000
vn 0.609900 0.475300 0.634100
vn 0.609900 0.475400 0.634100
vn -0.319000 0.463900 0.826400
vn -0.318900 0.463900 0.826500
vn -0.319000 0.463900 0.826500
vn -0.572300 0.587100 -0.572500
vn 0.657600 0.587200 0.472000
vn 0.850000 0.463900 -0.249400
vn 0.850100 0.463900 -0.249400
vn -0.000000 0.475300 0.879800
vn -0.000100 0.475300 0.879800
vn 0.879800 0.475300 -0.000000
vn 0.244200 0.475300 -0.845200
vn 0.244200 0.475300 -0.845300
vn 0.123000 0.479000 -0.869200
vn -0.271400 0.587200 0.762600
vn -0.271400 0.587100 0.762600
vn -0.879800 0.475300 -0.000000
vn -0.701700 0.475300 0.530700
vn -0.000000 0.463900 -0.885900
vn 0.768300 0.599000 -0.225500
vn 0.768300 0.599000 -0.225400
vn 0.768400 0.599000 -0.225400
vn -0.851800 0.463900 -0.243300
vn -0.466800 0.599000 0.650600
vn 0.566200 0.599000 0.566200
vn -0.000000 0.599000 -0.800700
vn -0.769900 0.599000 -0.219900
vn 0.467200 0.587200 -0.661000
vn 0.757400 0.587200 0.285700
vn 0.467200 0.587100 -0.661100
vn -0.701000 0.587200 -0.404700
vn -0.701000 0.587200 -0.404600
vn -0.701100 0.587100 -0.404700
vn -0.700900 0.587200 -0.404800
vn -0.700900 0.587200 -0.404900
vn -0.064800 0.587200 0.806900
vn -0.585000 0.587200 0.559500
vn -0.585000 0.587200 0.559400
vn -0.585000 0.587100 0.559500
vn -0.701100 0.587200 -0.404600
vn 0.000100 0.475300 0.879800
vn 0.000000 0.475400 0.879800
vn -0.000000 0.475300 -0.879800
vn 0.244200 0.475200 -0.845300
vn 0.790900 0.475300 0.385500
vn 0.879800 0.475300 -0.000100
vn -0.585100 0.587100 0.559500
vn 0.626400 0.463900 0.626400
vn -0.516500 0.463900 0.719800
vn -0.516400 0.463900 0.719800
vn -0.516500 0.463900 0.719700
vn -0.709900 0.587200 0.389000
vn -0.709900 0.587100 0.389000
vn 0.622400 0.587200 -0.517600
vn 0.572400 0.463900 0.676100
vn 0.761900 0.475300 0.439900
vn 0.691200 0.479000 0.541100
vn -0.774400 0.463900 0.430300
vn -0.774300 0.463900 0.430300
usemtl Stone.020
s 1
f 1/1/1 2/2/1 3/3/1
f 2/2/1 1/1/1 4/4/1
f 5/5/2 4/6/2 1/7/2
f 6/8/2 4/6/2 5/5/2
f 4/6/2 6/8/2 7/9/2
f 8/10/3 7/11/3 6/12/3
f 7/11/3 8/10/3 9/13/3
f 8/14/4 10/15/4 9/16/4
f 10/15/4 8/14/4 11/17/4
f 6/18/5 11/19/6 8/20/6
f 11/19/6 6/18/5 12/21/6
f 12/21/6 6/18/5 13/22/7
f 5/23/7 13/22/7 6/18/5
f 14/24/6 13/22/7 5/23/7
f 13/22/7 14/24/6 15/25/8
f 3/26/4 15/27/4 14/28/4
f 2/29/4 15/27/4 3/26/4
f 2/29/4 16/30/4 15/27/4
f 17/31/4 16/30/4 2/29/4
f 18/32/4 16/30/4 17/31/4
f 18/32/4 19/33/4 16/30/4
f 18/32/4 11/17/4 19/33/4
f 18/32/4 10/15/4 11/17/4
f 20/34/4 10/15/4 18/32/4
f 10/15/4 20/34/4 21/35/4
f 22/36/4 21/35/4 20/34/4
f 22/36/4 23/37/4 21/35/4
f 22/36/4 24/38/4 23/37/4
f 22/36/4 25/39/4 24/38/4
f 26/40/4 25/39/4 22/36/4
f 26/40/4 27/41/4 25/39/4
f 28/42/4 27/41/4 26/40/4
f 29/43/4 27/41/4 28/42/4
f 29/43/4 30/44/4 27/41/4
f 29/43/4 31/45/4 30/44/4
f 29/43/4 32/46/4 31/45/4
f 33/47/4 32/46/4 29/43/4
f 33/47/4 34/48/4 32/46/4
f 35/49/4 34/48/4 33/47/4
f 35/49/4 36/50/4 34/48/4
f 36/50/4 35/49/4 37/51/4
f 35/52/9 38/53/9 37/54/9
f 38/53/9 35/52/9 39/55/10
f 35/56/11 40/57/11 39/58/11
f 35/56/11 41/59/11 40/57/11
f 41/59/11 35/56/11 33/60/11
f 33/61/12 42/62/12 41/63/12
f 42/62/12 33/61/12 29/64/12
f 28/65/13 42/66/13 29/67/13
f 42/66/13 28/65/13 43/68/13
f 28/69/14 44/70/14 43/71/14
f 44/70/14 28/69/14 26/72/14
f 26/73/15 45/74/15 44/75/15
f 45/74/15 26/73/15 22/76/15
f 46/77/16 45/78/17 22/79/16
f 45/78/17 46/77/16 47/80/17
f 46/81/18 48/82/18 47/83/18
f 48/82/18 46/81/18 20/84/18
f 22/36/4 20/34/4 46/85/4
f 48/82/18 20/84/18 49/86/18
f 20/87/19 50/88/19 49/89/19
f 50/88/19 20/87/19 18/90/19
f 51/91/20 50/92/20 18/93/20
f 50/92/20 51/91/20 52/94/20
f 17/95/21 52/96/21 51/97/21
f 52/96/21 17/95/21 53/98/21
f 53/98/21 17/95/21 54/99/21
f 17/100/22 4/101/22 54/102/23
f 4/101/22 17/100/22 2/103/22
f 7/104/22 54/102/23 4/101/22
f 9/105/24 54/102/23 7/104/22
f 54/102/23 9/105/24 10/106/25
f 10/107/26 55/108/27 54/109/26
f 55/108/27 10/107/26 21/110/26
f 23/111/28 55/112/28 21/113/28
f 23/111/28 56/114/28 55/112/28
f 56/114/28 23/111/28 49/115/28
f 24/116/18 49/86/18 23/117/18
f 48/82/18 49/86/18 24/116/18
f 24/118/29 57/119/30 48/120/30
f 57/119/30 24/118/29 25/121/29
f 25/122/31 58/123/32 57/124/31
f 58/123/32 25/122/31 27/125/31
f 27/126/33 59/127/34 58/128/35
f 59/127/34 27/126/33 30/129/34
f 60/130/36 59/131/9 30/132/36
f 61/133/9 59/131/9 60/130/36
f 61/133/9 39/55/10 59/131/9
f 38/53/9 39/55/10 61/133/9
f 62/134/2 38/135/2 61/136/2
f 63/137/2 38/135/2 62/134/2
f 38/135/2 63/137/2 64/138/2
f 65/139/37 64/140/37 63/141/37
f 64/140/37 65/139/37 66/142/37
f 65/143/4 37/51/4 66/144/4
f 37/51/4 65/143/4 67/145/4
f 68/146/4 67/145/4 65/143/4
f 67/145/4 68/146/4 69/147/4
f 68/148/38 70/149/38 69/150/38
f 71/151/38 70/149/38 68/148/38
f 70/149/38 71/151/38 72/152/39
f 73/153/40 72/154/41 71/155/41
f 72/154/41 73/153/40 74/156/40
f 74/156/40 73/153/40 75/157/40
f 73/158/2 76/159/2 75/160/2
f 77/161/2 76/159/2 73/158/2
f 76/159/2 77/161/2 78/162/2
f 79/163/42 78/164/42 77/165/42
f 78/164/42 79/163/42 80/166/42
f 68/146/4 80/167/4 79/168/4
f 80/167/4 68/146/4 65/143/4
f 81/169/43 80/170/44 65/171/44
f 80/170/44 81/169/43 78/172/44
f 78/172/44 81/169/43 76/173/45
f 76/173/45 81/169/43 82/174/45
f 62/175/46 82/176/47 81/177/47
f 62/175/46 83/178/46 82/176/47
f 31/179/46 83/178/46 62/175/46
f 83/178/46 31/179/46 32/180/46
f 32/181/48 84/182/48 83/183/48
f 84/182/48 32/181/48 34/184/48
f 84/182/48 34/184/48 85/185/48
f 34/186/49 75/187/49 85/188/49
f 75/187/49 34/186/49 36/189/49
f 75/187/49 36/189/49 74/190/49
f 36/191/50 86/192/50 74/193/50
f 86/192/50 36/191/50 87/194/50
f 36/50/4 88/195/4 87/196/4
f 89/197/4 88/195/4 36/50/4
f 88/195/4 89/197/4 90/198/4
f 89/199/51 91/200/52 90/201/51
f 89/199/51 92/202/52 91/200/52
f 93/203/53 92/202/52 89/199/51
f 92/202/52 93/203/53 94/204/53
f 95/205/54 94/206/54 93/207/54
f 95/205/54 96/208/54 94/206/54
f 86/209/54 96/208/54 95/205/54
f 96/208/54 86/209/54 87/210/54
f 87/196/4 88/195/4 96/211/4
f 96/211/4 88/195/4 97/212/4
f 97/212/4 88/195/4 98/213/4
f 99/214/55 98/215/55 88/216/55
f 98/215/55 99/214/55 100/217/55
f 100/217/55 99/214/55 101/218/55
f 99/219/2 102/220/2 101/221/2
f 99/219/2 92/222/2 102/220/2
f 92/222/2 99/219/2 91/223/2
f 88/224/56 91/225/56 99/226/56
f 91/225/56 88/224/56 90/227/56
f 94/228/57 102/229/57 92/230/57
f 96/231/57 102/229/57 94/228/57
f 102/229/57 96/231/57 97/232/57
f 103/233/58 102/234/58 97/235/58
f 102/234/58 103/233/58 101/236/58
f 101/236/58 103/233/58 104/237/58
f 103/238/59 105/239/59 104/240/59
f 105/239/59 103/238/59 106/241/59
f 103/242/4 107/243/4 106/244/4
f 103/242/4 98/213/4 107/243/4
f 97/212/4 98/213/4 103/242/4
f 98/245/60 108/246/60 107/247/60
f 100/248/60 108/246/60 98/245/60
f 100/248/60 109/249/60 108/246/60
f 109/249/60 100/248/60 104/250/60
f 101/236/58 104/237/58 100/251/58
f 104/240/59 105/239/59 109/252/61
f 105/253/2 108/254/2 109/255/2
f 108/254/2 105/253/2 110/256/2
f 110/256/2 105/253/2 111/257/2
f 105/258/62 112/259/63 111/260/62
f 105/258/62 113/261/64 112/259/63
f 105/258/62 114/262/65 113/261/64
f 114/262/65 105/258/62 106/263/66
f 106/244/4 115/264/4 114/265/4
f 106/244/4 107/243/4 115/264/4
f 108/266/67 115/267/67 107/268/67
f 115/267/67 108/266/67 110/269/67
f 111/270/68 115/271/68 110/272/69
f 115/271/68 111/270/68 116/273/70
f 111/260/62 112/259/63 116/274/71
f 117/275/40 116/276/40 112/277/72
f 19/278/40 116/276/40 117/275/40
f 116/276/40 19/278/40 118/279/73
f 11/17/4 118/280/4 19/33/4
f 11/17/4 115/264/4 118/280/4
f 119/281/4 115/264/4 11/17/4
f 114/265/4 115/264/4 119/281/4
f 120/282/42 114/283/42 119/284/42
f 114/283/42 120/282/42 121/285/42
f 122/286/2 121/287/2 120/288/2
f 121/287/2 122/286/2 123/289/2
f 123/289/2 122/286/2 117/290/2
f 117/290/2 122/286/2 124/291/2
f 124/291/2 122/286/2 125/292/2
f 122/293/45 13/294/74 125/295/74
f 13/294/74 122/293/45 12/296/45
f 120/297/43 12/298/45 122/299/45
f 119/300/43 12/298/45 120/297/43
f 12/298/45 119/300/43 11/301/75
f 15/302/48 125/303/48 13/304/48
f 125/303/48 15/302/48 16/305/48
f 125/303/48 16/305/48 124/306/48
f 16/307/49 117/308/49 124/309/49
f 117/308/49 16/307/49 19/310/49
f 117/275/40 112/277/72 123/311/40
f 113/312/76 123/313/76 112/314/76
f 123/313/76 113/312/76 121/315/76
f 114/283/42 121/285/42 113/316/77
f 115/271/68 116/273/70 118/317/78
f 126/318/2 86/319/2 95/320/2
f 126/318/2 70/321/2 86/319/2
f 70/321/2 126/318/2 127/322/2
f 67/323/79 127/324/79 126/325/79
f 127/324/79 67/323/79 69/326/79
f 69/150/38 70/149/38 127/327/38
f 126/328/80 89/329/81 67/330/81
f 89/329/81 126/328/80 93/331/80
f 93/331/80 126/328/80 95/332/82
f 37/51/4 67/145/4 89/197/4
f 89/197/4 36/50/4 37/51/4
f 70/333/50 74/193/50 86/192/50
f 74/193/50 70/333/50 72/334/50
f 75/160/2 76/159/2 85/335/2
f 85/335/2 76/159/2 84/336/2
f 82/337/45 84/338/74 76/339/45
f 84/338/74 82/337/45 83/340/74
f 61/341/83 31/342/83 62/343/84
f 31/342/83 61/341/83 60/344/83
f 60/345/4 30/44/4 31/45/4
f 62/175/46 81/177/47 63/346/46
f 65/139/37 63/141/37 81/347/37
f 79/348/76 73/349/76 68/350/76
f 73/349/76 79/348/76 77/351/76
f 68/350/76 73/349/76 71/352/76
f 38/353/85 66/354/85 37/355/85
f 66/354/85 38/353/85 64/356/85
f 39/357/86 128/358/86 59/359/86
f 128/358/86 39/357/86 40/360/86
f 41/361/2 128/362/2 40/363/2
f 128/362/2 41/361/2 42/364/2
f 128/362/2 42/364/2 129/365/2
f 42/66/13 130/366/13 129/367/13
f 42/66/13 43/68/13 130/366/13
f 131/368/87 130/369/88 43/370/87
f 130/369/88 131/368/87 132/371/88
f 44/372/2 132/373/2 131/374/2
f 132/373/2 44/372/2 57/375/2
f 57/375/2 44/372/2 45/376/2
f 57/375/2 45/376/2 48/377/2
f 48/377/2 45/376/2 47/378/2
f 57/124/31 130/379/88 132/380/88
f 57/124/31 58/123/32 130/379/88
f 129/367/13 130/366/13 58/381/13
f 58/128/35 59/127/34 129/382/34
f 129/382/34 59/127/34 128/383/34
f 43/71/14 44/70/14 131/384/14
f 49/89/19 50/88/19 56/385/19
f 50/386/2 55/387/2 56/388/2
f 55/387/2 50/386/2 53/389/2
f 53/389/2 50/386/2 52/390/2
f 54/109/26 55/108/27 53/391/27
f 51/392/4 18/32/4 17/31/4
f 14/393/89 1/394/89 3/395/89
f 1/394/89 14/393/89 5/396/90
