# Blender v2.76 (sub 0) OBJ File: ''
# www.blender.org
mtllib naturePack_048.mtl
o Mesh1_Group1_Model.037
v -2.798700 0.885988 2.798700
v -0.201300 0.630000 2.798700
v -2.798700 0.630000 2.798700
v -0.201300 0.885988 2.798700
v -0.201300 0.885988 2.899350
v -2.798700 0.885988 2.899350
v -2.798700 1.112990 3.000000
v -2.798700 1.112990 2.798700
v -3.000000 1.112990 2.798700
v -2.798700 0.475988 2.798700
v -2.798700 0.220000 2.798700
v -2.798700 0.000000 2.798700
v -3.000000 0.000000 2.798700
v -3.000000 0.000000 3.000000
v -2.798700 0.000000 3.000000
v -2.798700 0.220000 2.899350
v -0.201300 0.220000 2.798700
v -0.201300 0.220000 2.899350
v -0.201300 0.475988 2.798700
v -0.201300 0.475988 2.899350
v -2.798700 0.475988 2.899350
v -0.201300 0.630000 2.899350
v -0.201300 0.000000 3.000000
v -0.201300 0.000000 2.798700
v 0.000000 0.000000 2.798700
v -0.100650 0.220000 2.798700
v -0.100650 0.475988 2.798700
v -0.100650 0.475988 0.201300
v -0.201300 0.475988 0.201300
v -0.100650 0.630000 0.201300
v -0.000000 1.112990 0.201300
v -0.100650 0.220000 0.201300
v -0.000000 0.000000 0.201300
v -0.201300 0.000000 0.201300
v -0.201300 0.220000 0.201300
v -0.201300 1.112990 0.201300
v -0.201300 1.112990 -0.000000
v -0.201300 0.000000 0.000000
v -0.000000 0.000000 -0.000000
v -0.000000 1.112990 -0.000000
v -0.201300 0.885988 0.201300
v -0.100650 0.885988 0.201300
v -0.100650 0.885988 2.798700
v -0.100650 0.630000 2.798700
v -0.201300 0.630000 0.201300
v -2.798700 0.630000 2.899350
v -3.000000 1.112990 3.000000
v -0.201300 1.112990 3.000000
v -0.201300 1.112990 2.798700
v 0.000000 1.112990 3.000000
v 0.000000 1.112990 2.798700
v 0.000000 0.000000 3.000000
vt 110.184998 34.881401
vt 7.925200 24.803101
vt 110.184998 24.803101
vt 7.925200 34.881401
vt 110.184998 110.184998
vt 7.925200 114.148003
vt 7.925200 110.184998
vt 110.184998 114.148003
vt -110.184998 34.881401
vt -118.110001 43.818600
vt -114.148003 34.881401
vt -110.184998 43.818600
vt 118.110001 43.818600
vt 110.184998 43.818600
vt 110.184998 18.739700
vt 110.184998 8.661420
vt 110.184998 -0.000000
vt 118.110001 -0.000000
vt -110.184998 110.184998
vt -118.110001 118.110001
vt -118.110001 110.184998
vt -110.184998 118.110001
vt -110.184998 8.661420
vt -118.110001 0.000000
vt -110.184998 0.000000
vt -114.148003 8.661420
vt -7.925200 110.184998
vt -110.184998 114.148003
vt -7.925200 114.148003
vt 114.148003 8.661420
vt 114.148003 18.739700
vt -7.925200 18.739700
vt -7.925200 8.661420
vt -110.184998 18.739700
vt 114.148003 24.803101
vt 7.925200 8.661420
vt -0.000000 -0.000000
vt 7.925200 -0.000000
vt 3.962600 8.661420
vt 7.925200 18.739700
vt 3.962600 18.739700
vt 3.962600 7.925200
vt 3.962600 110.184998
vt 7.925200 7.925200
vt -3.962600 18.739700
vt -3.962600 24.803101
vt -0.000002 43.818600
vt -3.962600 8.661420
vt -7.925200 0.000000
vt 7.925200 43.818600
vt 0.000002 7.925200
vt -7.925200 34.881401
vt -7.925200 43.818600
vt -3.962600 34.881401
vt -7.925200 24.803101
vt -110.184998 24.803101
vt 3.962600 24.803101
vt 3.962600 34.881401
vt -3.962600 7.925200
vt -3.962600 110.184998
vt -7.925200 7.925200
vt 114.148003 34.881401
vt -114.148003 24.803101
vt -114.148003 18.739700
vt 110.184998 118.110001
vt 118.110001 110.184998
vt 118.110001 118.110001
vt 0.000000 118.110001
vt 7.925200 118.110001
vt 0.000000 110.184998
vt -7.925200 118.110001
vn -0.000000 -0.000000 -1.000000
vn 0.000000 1.000000 0.000000
vn 1.000000 -0.000000 0.000000
vn 0.000000 -1.000000 0.000000
vn -1.000000 0.000000 0.000000
vn 0.000000 0.000000 1.000000
vn -0.447200 0.000000 0.894400
vn 0.649000 0.000000 0.760800
usemtl Wood.028
s 1
f 1/1/1 2/2/1 3/3/1
f 2/2/1 1/1/1 4/4/1
f 1/5/2 5/6/2 4/7/2
f 5/6/2 1/5/2 6/8/2
f 1/9/3 7/10/3 6/11/3
f 7/10/3 1/9/3 8/12/3
f 1/1/1 9/13/1 8/14/1
f 3/3/1 9/13/1 1/1/1
f 10/15/1 9/13/1 3/3/1
f 11/16/1 9/13/1 10/15/1
f 12/17/1 9/13/1 11/16/1
f 9/13/1 12/17/1 13/18/1
f 12/19/4 14/20/4 13/21/4
f 14/20/4 12/19/4 15/22/4
f 11/23/3 15/24/3 12/25/3
f 15/24/3 11/23/3 16/26/3
f 17/27/4 16/28/4 11/19/4
f 16/28/4 17/27/4 18/29/4
f 18/30/5 19/15/5 17/16/5
f 19/15/5 18/30/5 20/31/5
f 20/32/6 16/23/6 18/33/6
f 16/23/6 20/32/6 21/34/6
f 20/6/2 10/5/2 21/8/2
f 10/5/2 20/6/2 19/7/2
f 20/31/5 2/3/5 19/15/5
f 2/3/5 20/31/5 22/35/5
f 20/31/5 23/18/5 22/35/5
f 18/30/5 23/18/5 20/31/5
f 17/16/5 23/18/5 18/30/5
f 23/18/5 17/16/5 24/17/5
f 17/36/1 25/37/1 24/38/1
f 25/37/1 17/36/1 26/39/1
f 19/40/1 26/39/1 17/36/1
f 26/39/1 19/40/1 27/41/1
f 28/42/2 19/7/2 27/43/2
f 19/7/2 28/42/2 29/44/2
f 28/45/6 30/46/6 29/32/6
f 28/45/6 31/47/6 30/46/6
f 32/48/6 31/47/6 28/45/6
f 32/48/6 33/37/6 31/47/6
f 33/37/6 32/48/6 34/49/6
f 35/33/6 34/49/6 32/48/6
f 36/50/5 34/38/5 35/36/5
f 37/47/5 34/38/5 36/50/5
f 34/38/5 37/47/5 38/37/5
f 37/50/1 39/37/1 38/38/1
f 39/37/1 37/50/1 40/47/1
f 36/44/2 40/37/2 37/38/2
f 40/37/2 36/44/2 31/51/2
f 41/52/6 31/47/6 36/53/6
f 42/54/6 31/47/6 41/52/6
f 30/46/6 31/47/6 42/54/6
f 43/9/3 30/55/3 42/52/3
f 30/55/3 43/9/3 44/56/3
f 44/57/1 4/4/1 43/58/1
f 4/4/1 44/57/1 2/2/1
f 2/27/4 30/59/4 44/60/4
f 30/59/4 2/27/4 45/61/4
f 2/3/5 41/4/7 45/2/5
f 41/4/7 2/3/5 4/1/5
f 22/35/5 4/1/5 2/3/5
f 4/1/5 22/35/5 5/62/5
f 5/52/6 46/56/6 22/55/6
f 46/56/6 5/52/6 6/9/6
f 6/11/3 7/10/3 46/63/3
f 46/63/3 7/10/3 21/64/3
f 21/64/3 7/10/3 16/26/3
f 15/24/3 16/26/3 7/10/3
f 7/12/6 14/24/6 15/25/6
f 14/24/6 7/12/6 47/10/6
f 7/65/2 9/66/2 47/67/2
f 9/66/2 7/65/2 8/5/2
f 9/14/5 14/18/5 47/13/5
f 14/18/5 9/14/5 13/17/5
f 10/34/3 46/63/3 21/64/3
f 46/63/3 10/34/3 3/56/3
f 2/27/4 46/28/4 3/19/4
f 46/28/4 2/27/4 22/29/4
f 22/35/5 23/18/5 5/62/5
f 48/13/5 5/62/5 23/18/5
f 48/13/5 4/1/5 5/62/5
f 4/1/5 48/13/5 49/14/5
f 50/68/2 49/7/2 48/69/2
f 49/7/2 50/68/2 51/70/2
f 50/10/3 25/25/3 51/12/3
f 25/25/3 50/10/3 52/24/3
f 50/47/6 23/49/6 52/37/6
f 23/49/6 50/47/6 48/53/6
f 23/71/4 25/70/4 52/68/4
f 25/70/4 23/71/4 24/27/4
f 25/37/1 26/39/1 51/47/1
f 51/47/1 26/39/1 27/41/1
f 32/33/3 27/34/3 26/23/3
f 27/34/3 32/33/3 28/32/3
f 17/27/4 32/59/4 26/60/4
f 32/59/4 17/27/4 35/61/4
f 17/16/5 29/40/8 35/36/5
f 29/40/8 17/16/5 19/15/5
f 17/36/1 10/15/1 19/40/1
f 10/15/1 17/36/1 11/16/1
f 41/4/7 35/36/5 29/40/8
f 36/50/5 35/36/5 41/4/7
f 41/4/7 29/40/8 45/2/5
f 45/55/6 29/32/6 30/46/6
f 51/47/1 27/41/1 44/57/1
f 44/57/1 27/41/1 2/2/1
f 2/2/1 27/41/1 19/40/1
f 51/47/1 44/57/1 43/58/1
f 51/47/1 43/58/1 49/50/1
f 49/50/1 43/58/1 4/4/1
f 42/42/2 4/7/2 43/43/2
f 4/7/2 42/42/2 41/44/2
f 31/53/3 39/37/3 40/47/3
f 39/37/3 31/53/3 33/49/3
f 34/61/4 39/37/4 33/51/4
f 39/37/4 34/61/4 38/49/4
