# Blender v2.76 (sub 0) OBJ File: ''
# www.blender.org
mtllib naturePack_147.mtl
o Mesh1_Plate_River_Dirt_Model.006
v -3.000000 0.000000 0.000000
v -2.241300 0.150000 -0.000000
v 0.000000 0.000000 0.000000
v -3.000000 0.300000 -0.000000
v -3.000000 0.150000 0.758698
v -3.000000 0.000000 3.000000
v 0.000000 0.000000 3.000000
v 0.000000 0.150000 0.758698
v 0.000000 0.300000 0.758698
v 0.000000 0.300000 -0.000000
v -0.758698 0.150000 -0.000000
v -0.877648 0.150000 0.371864
v -0.936265 0.150000 0.982021
v -2.241300 0.150000 3.000000
v -0.889083 0.150000 2.453370
v -0.758698 0.150000 3.000000
v -3.000000 0.300000 3.000000
v -2.241300 0.300000 3.000000
v -2.374550 0.150000 2.441370
v -2.374550 0.300000 2.441370
v -3.000000 0.300000 2.241300
v -3.000000 0.150000 2.241300
v -2.399190 0.150000 0.950882
v -2.241300 0.150000 0.701031
v -2.360250 0.150000 0.371864
v -2.241300 0.300000 0.701031
v -2.360250 0.300000 0.371864
v -2.241300 0.300000 -0.000000
v -2.399190 0.300000 0.950882
v -3.000000 0.300000 0.758698
v 0.000000 0.300000 3.000000
v 0.000000 0.150000 2.241300
v -0.936265 0.300000 0.982021
v -0.758698 0.300000 0.701031
v -0.758698 0.300000 -0.000000
v -0.877648 0.300000 0.371864
v -0.758698 0.150000 0.701031
v -0.889083 0.300000 2.453370
v 0.000000 0.300000 2.241300
v -0.758698 0.300000 3.000000
vt 118.110001 0.000000
vt 88.240196 5.905510
vt 0.000000 0.000000
vt 118.110001 11.811000
vt 29.870001 5.905510
vt 0.000000 11.811000
vt -118.110001 118.110001
vt -118.110001 0.000000
vt 0.000000 118.110001
vt -29.870001 5.905510
vt -29.870001 11.811000
vt -88.240196 5.905510
vt -118.110001 11.811000
vt -88.240196 11.811000
vt -71.803596 5.905510
vt -94.414001 11.811000
vt -94.414001 5.905510
vt -71.803596 11.811000
vt 59.757999 5.905510
vt 85.611099 11.811000
vt 59.757999 11.811000
vt 85.611099 5.905510
vt 17.811800 5.905510
vt 4.032260 11.811000
vt 4.032260 5.905510
vt 17.811800 11.811000
vt -26.884001 5.905510
vt -42.255001 11.811000
vt -42.255001 5.905510
vt -26.884001 11.811000
vt 88.240196 11.811000
vt 29.870001 11.811000
vt -103.394997 5.905510
vt -78.560097 11.811000
vt -103.394997 11.811000
vt -78.560097 5.905510
vt -70.470100 5.905510
vt -82.106201 11.811000
vt -82.106201 5.905510
vt -70.470100 11.811000
vt -6.930340 11.811000
vt -44.825298 5.905510
vt -6.930340 5.905510
vt -44.825298 11.811000
vt 24.471500 5.905510
vt 9.100430 11.811000
vt 9.100430 5.905510
vt 24.471500 11.811000
vt 15.805300 5.905510
vt 2.025760 11.811000
vt 2.025760 5.905510
vt 15.805300 11.811000
vt 52.374599 5.905510
vt 39.288200 11.811000
vt 39.288200 5.905510
vt 52.374599 11.811000
vt 56.458500 11.811000
vt 20.473200 5.905510
vt 56.458500 5.905510
vt 20.473200 11.811000
vt 85.832298 11.811000
vt 107.957001 5.905510
vt 107.957001 11.811000
vt 85.832298 5.905510
vt 88.240196 0.000000
vt 34.553101 14.640300
vt 29.870001 0.000000
vt 36.860802 38.662300
vt 88.240196 118.110001
vt 35.003300 96.589401
vt 29.870001 118.110001
vt 93.486198 96.116798
vt 94.456398 37.436298
vt 118.110001 88.240196
vt 88.240196 27.599600
vt 92.923302 14.640300
vt 118.110001 29.870001
vt 0.000000 29.870001
vt -0.000000 88.240196
vt 29.870001 27.599600
vt 118.110001 118.110001
vn -0.000000 -0.000000 -1.000000
vn -1.000000 0.000000 0.000000
vn 0.000000 -1.000000 0.000000
vn 1.000000 0.000000 0.000000
vn 0.000000 0.000000 1.000000
vn 0.972700 0.000000 -0.232000
vn 0.304700 0.000000 -0.952500
vn 0.940500 -0.000000 -0.339900
vn 0.952500 0.000000 0.304700
vn -0.304700 0.000000 0.952500
vn 0.845400 -0.000000 0.534200
vn 0.232000 0.000000 0.972700
vn -0.952500 0.000000 -0.304700
vn -0.940500 0.000000 0.339900
vn -0.845400 -0.000000 -0.534200
vn -0.232000 0.000000 -0.972700
vn -0.972700 0.000000 0.232000
vn -0.000000 1.000000 -0.000000
vn 0.210700 -0.511500 0.833000
usemtl Wood.089
s 1
f 1/1/1 2/2/1 3/3/1
f 2/2/1 1/1/1 4/4/1
f 1/3/2 5/5/2 4/6/2
f 5/5/2 1/3/2 6/1/2
f 3/3/3 6/7/3 1/8/3
f 6/7/3 3/3/3 7/9/3
f 3/3/4 8/10/4 7/8/4
f 3/3/4 9/11/4 8/10/4
f 9/11/4 3/3/4 10/6/4
f 3/3/1 11/5/1 10/6/1
f 11/5/1 3/3/1 2/2/1
f 14/12/5 6/8/5 16/10/5
f 6/8/5 14/12/5 17/13/5
f 17/13/5 14/12/5 18/14/5
f 19/15/6 18/16/6 14/17/6
f 18/16/6 19/15/6 20/18/6
f 19/19/7 21/20/7 20/21/7
f 21/20/7 19/19/7 22/22/7
f 25/23/8 26/24/8 24/25/8
f 26/24/8 25/23/8 27/26/8
f 2/27/9 27/28/9 25/29/9
f 27/28/9 2/27/9 28/30/9
f 2/2/1 4/4/1 28/31/1
f 30/32/2 4/6/2 5/5/2
f 5/33/10 29/34/10 30/35/10
f 29/34/10 5/33/10 23/36/10
f 5/5/2 6/1/2 22/2/2
f 22/2/2 6/1/2 21/31/2
f 21/31/2 6/1/2 17/4/2
f 24/37/11 29/38/11 23/39/11
f 29/38/11 24/37/11 26/40/11
f 7/3/5 16/10/5 6/8/5
f 16/10/5 7/3/5 31/6/5
f 7/8/4 32/12/4 31/13/4
f 7/8/4 8/10/4 32/12/4
f 9/41/12 13/42/12 8/43/12
f 13/42/12 9/41/12 33/44/12
f 10/6/1 11/5/1 35/32/1
f 12/45/13 35/46/13 11/47/13
f 35/46/13 12/45/13 36/48/13
f 37/49/14 36/50/14 12/51/14
f 36/50/14 37/49/14 34/52/14
f 13/53/15 34/54/15 37/55/15
f 34/54/15 13/53/15 33/56/15
f 38/57/16 32/58/16 15/59/16
f 32/58/16 38/57/16 39/60/16
f 38/61/17 16/62/17 40/63/17
f 16/62/17 38/61/17 15/64/17
f 16/10/5 31/6/5 40/11/5
f 31/13/4 32/12/4 39/14/4
usemtl Water.013
f 2/65/18 12/66/18 11/67/18
f 12/66/18 2/65/18 13/68/18
f 14/69/18 13/68/18 2/65/18
f 14/69/18 15/70/18 13/68/18
f 15/70/18 14/69/18 16/71/18
f 19/72/18 23/73/18 22/74/18
f 14/69/18 23/73/18 19/72/18
f 14/69/18 24/75/19 23/73/18
f 14/69/18 2/65/18 24/75/19
f 25/76/18 24/75/19 2/65/18
f 22/74/18 23/73/18 5/77/18
f 8/78/18 15/70/18 32/79/18
f 15/70/18 8/78/18 13/68/18
f 13/68/18 37/80/18 12/66/18
usemtl Leafs.053
f 4/1/18 27/76/18 28/65/18
f 27/76/18 4/1/18 29/73/18
f 29/73/18 4/1/18 30/77/18
f 17/81/18 20/72/18 21/74/18
f 20/72/18 17/81/18 18/69/18
f 29/73/18 26/75/18 27/76/18
f 9/78/18 34/80/18 33/68/18
f 9/78/18 35/67/18 34/80/18
f 35/67/18 9/78/18 10/3/18
f 36/66/18 34/80/18 35/67/18
f 38/70/18 31/9/18 39/79/18
f 31/9/18 38/70/18 40/71/18
