# Blender v2.76 (sub 0) OBJ File: ''
# www.blender.org
mtllib naturePack_089.mtl
o Mesh1_Group1_Model.063
v -0.515910 1.050100 1.637140
v -1.117170 0.839675 2.103650
v -0.412531 0.839675 1.696830
v -1.117170 1.050100 1.984280
v -1.821810 0.839675 1.696830
v -1.718440 1.050100 1.637140
v -1.718440 1.050100 0.942861
v -1.821810 0.839675 0.883175
v -1.117170 0.839675 0.476349
v -1.117170 1.050100 0.595722
v -0.412531 0.839675 0.883175
v -0.515910 1.050100 0.942861
v -0.245778 0.839675 1.793100
v -0.245778 0.839675 0.786900
v -1.117170 0.839675 0.283800
v 0.000000 0.000000 0.645000
v -1.117170 0.000000 0.000000
v -0.000000 0.000000 1.935000
v -1.117170 0.000000 2.580000
v -1.117170 0.839675 2.296200
v -0.584989 1.768200 1.597260
v -1.117170 1.768200 1.904510
v -0.648188 1.941190 1.560770
v -1.117170 1.941190 1.831540
v -1.649360 1.768200 1.597260
v -1.586160 1.941190 1.560770
v -1.586160 1.941190 1.019230
v -1.649360 1.768200 0.982744
v -1.117170 1.768200 0.675487
v -1.117170 1.941190 0.748463
v -0.584989 1.768200 0.982744
v -0.648188 1.941190 1.019230
v -1.988570 0.839675 0.786900
v -2.234350 0.000000 0.645000
v -2.234350 0.000000 1.935000
v -1.988570 0.839675 1.793100
v -1.117170 1.768200 2.069100
v -0.442452 1.768200 1.679550
v -0.442452 1.768200 0.900450
v -1.117170 1.768200 0.510899
v -1.791890 1.768200 0.900450
v -1.791890 1.768200 1.679550
v -1.117170 2.839520 1.741619
v -1.508280 2.839520 1.515810
v -1.117170 2.839520 1.847059
v -0.726061 2.839520 1.515810
v -0.634747 2.839520 1.568529
v -0.634747 2.839520 1.011469
v -0.726061 2.839520 1.064190
v -1.117170 2.839520 0.838383
v -1.508280 2.839520 1.064190
v -1.599600 2.839520 1.568529
v -1.117170 4.253340 1.367949
v -1.184680 4.253340 1.328979
v -1.184680 4.253340 1.251019
v -1.117170 4.253340 1.212049
v -1.049670 4.253340 1.328979
v -1.049670 4.253340 1.251019
v -1.117170 2.839520 0.732943
v -1.117170 2.945200 0.870688
v -0.754038 2.945200 1.080340
v -0.754038 2.945200 1.499660
v -1.117170 2.945200 1.709310
v -1.480310 2.945200 1.499660
v -1.480310 2.945200 1.080340
v -1.599600 2.839520 1.011469
vt -49.817402 16.970600
vt -79.500999 7.740440
vt -47.467499 7.740440
vt -77.151100 16.970600
vt 0.970039 -2.424000
vt -28.713600 -11.654100
vt 3.319900 -11.654100
vt -26.363701 -2.424000
vt 37.120499 7.273290
vt 66.804100 -1.956850
vt 64.454300 7.273290
vt 34.770699 -1.956850
vt 77.151100 36.365200
vt 47.467499 27.135000
vt 79.500999 27.135000
vt 49.817402 36.365200
vt 26.363701 55.759701
vt -3.319900 46.529598
vt 28.713600 46.529598
vt -0.970039 55.759701
vt -37.120499 46.062401
vt -66.804100 36.832298
vt -34.770699 36.832298
vt -64.454300 46.062401
vt -16.241400 34.770699
vt -9.676300 70.594498
vt -16.241400 66.804100
vt -9.676300 30.980301
vt -43.983200 11.173200
vt -43.983200 18.753901
vt -12.696900 9.697290
vt 38.090599 9.697290
vt -0.000000 76.181099
vt -43.983200 0.000000
vt 0.000000 25.393700
vt -43.983200 101.574997
vt -88.877998 -29.091900
vt -38.090599 -29.091900
vt -43.983200 90.401604
vt -43.983200 82.820900
vt -51.387501 50.651402
vt -83.291298 11.732500
vt -43.677200 11.732500
vt -75.581001 50.651402
vt -52.824100 57.902500
vt -74.144402 57.902500
vt -2.036680 42.810001
vt -24.793600 35.558899
vt -0.600138 35.558899
vt -23.357000 42.810001
vt 40.127201 50.356300
vt 62.884102 43.105202
vt 61.447601 50.356300
vt 38.690701 43.105202
vt 74.144402 72.995003
vt 51.387501 65.744003
vt 75.581001 65.744003
vt 52.824100 72.995003
vt 23.357000 88.087601
vt 0.600138 80.836502
vt 24.793600 80.836502
vt 2.036680 88.087601
vt -40.127201 80.541298
vt -62.884102 73.290199
vt -38.690701 73.290199
vt -61.447601 80.541298
vt -70.594498 34.371201
vt -30.980301 34.371201
vt -7.110240 41.917500
vt 32.503899 41.917500
vt 43.677200 26.825001
vt 83.291298 26.825001
vt -78.290100 30.980301
vt -71.724998 34.770699
vt 38.090599 -9.697290
vt 88.877998 -9.697290
vt -87.966400 76.181099
vt -87.966400 25.393700
vt -38.090599 -48.486401
vt 12.696900 -48.486401
vt -78.290100 70.594498
vt -71.724998 66.804100
vt -32.503899 -3.360030
vt 7.110240 -3.360030
vt -43.983200 74.980797
vt -43.983200 81.460701
vt -64.935303 62.884102
vt -23.031099 62.884102
vt -17.419399 66.124001
vt -23.031099 38.690701
vt -17.419399 35.450802
vt -43.983200 20.114100
vt -43.983200 26.594000
vt -64.935303 38.690701
vt -70.546997 35.450802
vt -70.546997 66.124001
vt -3.806760 87.245201
vt -28.033501 43.614101
vt 2.639780 43.614101
vt -21.586901 87.245201
vt -43.983200 68.567596
vt -43.983200 72.718803
vt -59.381302 59.677502
vt -28.585100 59.677502
vt -24.990101 61.753101
vt -24.990101 39.821701
vt -28.585100 41.897301
vt -66.124001 71.753700
vt -41.897301 115.385002
vt -59.677502 115.385002
vt -35.450802 71.753700
vt -2.639780 77.381599
vt 21.586901 121.013000
vt 3.806760 121.013000
vt 28.033501 77.381599
vt 48.147598 66.125801
vt 72.374298 109.757004
vt 54.594200 109.757004
vt 78.820900 66.125801
vt 66.124001 49.242001
vt 41.897301 92.873199
vt 35.450802 49.242001
vt 59.677502 92.873199
vt -62.976299 61.753101
vt -59.381302 41.897301
vt -11.162400 141.350998
vt -23.662500 83.341599
vt -1.731160 83.341599
vt -14.231300 141.350998
vt 43.983200 53.856300
vt 46.640900 49.252998
vt 46.640900 52.321899
vt 43.983200 47.718498
vt 41.325401 52.321899
vt 41.325401 49.252998
vt -61.753101 114.305000
vt -49.252998 172.315002
vt -52.321899 172.315002
vt -39.821701 114.305000
vt 1.731160 120.498001
vt 14.231300 178.507996
vt 11.162400 178.507996
vt 23.662500 120.498001
vt -43.983200 28.856001
vt -43.983200 33.007198
vt 20.951000 125.317001
vt 4.442680 125.317001
vt -42.533199 119.689003
vt -59.041599 119.689003
vt -55.230099 102.805000
vt -72.374298 98.501099
vt -54.594200 98.501099
vt -71.738403 102.805000
vt -4.442680 91.549202
vt -20.951000 91.549202
vt 42.533199 97.177101
vt 59.041599 97.177101
vt 71.738403 114.060997
vt 55.230099 114.060997
vt -62.976299 39.821701
vt 61.753101 89.534302
vt 49.252998 147.544006
vt 39.821701 89.534302
vt 52.321899 147.544006
vt 65.018700 166.121994
vt 52.518600 108.112999
vt 74.449898 108.112999
vt 61.949799 166.121994
vt -78.820900 54.869900
vt -48.147598 54.869900
vt -61.949799 153.737000
vt -74.449898 95.727097
vt -52.518600 95.727097
vt -65.018700 153.737000
vt 70.594498 4.186230
vt 30.980301 4.186230
vt 76.181099 -38.789101
vt 25.393700 -38.789101
vt -76.181099 -0.000000
vt -25.393700 -0.000000
vn 0.448800 0.441000 0.777300
vn 0.448800 0.440900 0.777300
vn -0.448800 0.440900 0.777300
vn -0.897500 0.440900 0.000000
vn -0.448800 0.440900 -0.777300
vn -0.448800 0.441000 -0.777300
vn 0.448800 0.440900 -0.777300
vn 0.897500 0.440900 -0.000000
vn 0.000000 -1.000000 -0.000000
vn 0.448800 0.441000 -0.777300
vn 0.469600 0.343100 0.813400
vn 0.469600 0.343200 0.813400
vn -0.469600 0.343100 0.813500
vn -0.469600 0.343200 0.813400
vn -0.939300 0.343200 -0.000000
vn -0.469600 0.343100 -0.813400
vn -0.469600 0.343200 -0.813400
vn 0.469600 0.343100 -0.813400
vn 0.469600 0.343200 -0.813400
vn 0.939300 0.343100 -0.000000
vn 0.939300 0.343200 -0.000000
vn -0.448800 0.441000 0.777300
vn -0.469600 0.343100 0.813400
vn -0.483400 0.255900 0.837200
vn 0.966700 0.255900 0.000000
vn 0.483400 0.255900 -0.837200
vn 0.483300 0.255900 -0.837200
vn -0.483400 0.255900 -0.837200
vn -0.483300 0.255900 -0.837200
vn -0.966700 0.255900 0.000000
vn -0.479700 0.281600 0.831000
vn -0.479800 0.281600 0.831000
vn 0.000000 1.000000 0.000000
vn 0.959500 0.281600 0.000000
vn 0.479800 0.281600 -0.831000
vn 0.483400 0.255900 0.837200
vn 0.483300 0.255900 0.837200
vn 0.483300 0.256000 0.837200
vn -0.483300 0.255900 0.837200
vn -0.483300 0.256000 0.837200
vn -0.959500 0.281600 0.000000
vn -0.479700 0.281600 -0.831000
vn -0.479800 0.281600 -0.831000
vn 0.479800 0.281600 0.831000
vn -0.939300 0.343100 -0.000000
vn -0.897500 0.441000 -0.000000
vn 0.897500 0.441000 -0.000000
usemtl Leafs.026
s 1
f 1/1/1 2/2/2 3/3/1
f 2/2/2 1/1/1 4/4/2
f 4/5/3 5/6/3 2/7/3
f 5/6/3 4/5/3 6/8/3
f 7/9/4 5/10/4 6/11/4
f 5/10/4 7/9/4 8/12/4
f 7/13/5 9/14/5 8/15/5
f 9/14/5 7/13/5 10/16/6
f 10/17/7 11/18/7 9/19/7
f 11/18/7 10/17/7 12/20/7
f 12/21/8 3/22/8 11/23/8
f 3/22/8 12/21/8 1/24/8
f 11/25/9 13/26/9 3/27/9
f 11/25/9 14/28/9 13/26/9
f 14/28/9 11/25/9 15/29/9
f 15/29/9 11/25/9 9/30/9
f 16/31/10 9/19/10 11/18/10
f 9/19/10 16/31/10 17/32/10
f 18/33/9 17/34/9 16/35/9
f 17/34/9 18/33/9 19/36/9
f 3/3/1 19/37/1 18/38/1
f 19/37/1 3/3/1 2/2/1
f 3/27/9 20/39/9 2/40/9
f 20/39/9 3/27/9 13/26/9
f 21/41/11 20/42/11 13/43/11
f 20/42/11 21/41/11 22/44/11
f 23/45/12 22/44/11 21/41/12
f 22/44/11 23/45/12 24/46/11
f 24/47/13 25/48/14 22/49/13
f 25/48/14 24/47/13 26/50/14
f 27/51/15 25/52/15 26/53/15
f 25/52/15 27/51/15 28/54/15
f 27/55/16 29/56/17 28/57/16
f 29/56/17 27/55/16 30/58/17
f 30/59/18 31/60/18 29/61/19
f 31/60/18 30/59/18 32/62/18
f 32/63/20 21/64/21 31/65/20
f 21/64/21 32/63/20 23/66/21
f 13/67/20 31/65/20 21/64/20
f 31/65/20 13/67/20 14/68/20
f 14/69/18 29/61/18 31/60/18
f 29/61/18 14/69/18 15/70/18
f 15/71/16 28/57/16 29/56/16
f 28/57/16 15/71/16 33/72/16
f 15/29/9 9/30/9 33/73/9
f 33/73/9 9/30/9 8/74/9
f 17/75/6 8/15/6 9/14/6
f 8/15/6 17/75/6 34/76/6
f 17/34/9 35/77/9 34/78/9
f 17/34/9 19/36/9 35/77/9
f 2/7/22 35/79/22 19/80/22
f 35/79/22 2/7/22 5/6/22
f 2/40/9 36/81/9 5/82/9
f 2/40/9 20/39/9 36/81/9
f 22/49/23 36/83/23 20/84/23
f 36/83/23 22/49/23 25/48/13
f 22/85/9 37/86/9 25/87/9
f 21/88/9 37/86/9 22/85/9
f 37/86/9 21/88/9 38/89/9
f 31/90/9 38/89/9 21/88/9
f 31/90/9 39/91/9 38/89/9
f 39/91/9 31/90/9 40/92/9
f 40/92/9 31/90/9 29/93/9
f 40/92/9 29/93/9 28/94/9
f 40/92/9 28/94/9 41/95/9
f 41/95/9 28/94/9 42/96/9
f 25/87/9 42/96/9 28/94/9
f 25/87/9 37/86/9 42/96/9
f 43/97/24 42/98/24 37/99/24
f 42/98/24 43/97/24 44/100/24
f 43/101/9 45/102/9 44/103/9
f 46/104/9 45/102/9 43/101/9
f 46/104/9 47/105/9 45/102/9
f 47/105/9 46/104/9 48/106/9
f 48/106/9 46/104/9 49/107/9
f 38/108/25 49/109/25 46/110/25
f 49/109/25 38/108/25 39/111/25
f 39/112/26 50/113/26 49/114/27
f 50/113/26 39/112/26 40/115/26
f 40/116/28 51/117/29 50/118/29
f 51/117/29 40/116/28 41/119/28
f 42/120/30 51/121/30 41/122/30
f 51/121/30 42/120/30 44/123/30
f 44/103/9 52/124/9 51/125/9
f 44/103/9 45/102/9 52/124/9
f 53/126/31 52/127/32 45/128/32
f 52/127/32 53/126/31 54/129/31
f 53/130/33 55/131/33 54/132/33
f 53/130/33 56/133/33 55/131/33
f 57/134/33 56/133/33 53/130/33
f 56/133/33 57/134/33 58/135/33
f 47/136/34 58/137/34 57/138/34
f 58/137/34 47/136/34 48/139/34
f 48/140/35 56/141/35 58/142/35
f 56/141/35 48/140/35 59/143/35
f 49/107/9 59/144/9 48/106/9
f 59/144/9 49/107/9 50/145/9
f 60/146/27 49/114/27 50/113/27
f 49/114/27 60/146/27 61/147/27
f 61/148/25 46/110/25 49/109/25
f 46/110/25 61/148/25 62/149/25
f 62/150/36 43/151/37 46/152/36
f 43/151/37 62/150/36 63/153/38
f 63/154/39 44/100/39 43/97/40
f 44/100/39 63/154/39 64/155/39
f 65/156/30 44/123/30 64/157/30
f 44/123/30 65/156/30 51/121/30
f 65/158/28 50/118/29 51/117/28
f 50/118/29 65/158/28 60/159/29
f 59/144/9 50/145/9 51/125/9
f 59/144/9 51/125/9 66/160/9
f 66/160/9 51/125/9 52/124/9
f 52/161/41 55/162/41 66/163/41
f 55/162/41 52/161/41 54/164/41
f 55/165/42 59/166/43 66/167/43
f 59/166/43 55/165/42 56/168/42
f 37/169/36 46/152/36 43/151/36
f 46/152/36 37/169/36 38/170/36
f 57/171/44 45/172/44 47/173/44
f 45/172/44 57/171/44 53/174/44
f 28/54/45 36/175/45 25/52/45
f 36/175/45 28/54/45 33/176/45
f 33/73/9 8/74/9 36/81/9
f 5/82/9 36/81/9 8/74/9
f 8/12/46 35/177/46 5/10/46
f 35/177/46 8/12/46 34/178/46
f 18/179/47 11/23/47 3/22/47
f 11/23/47 18/179/47 16/180/47
