# Blender v2.76 (sub 0) OBJ File: ''
# www.blender.org
mtllib naturePack_041.mtl
o Mesh10_Group1_Model
v -0.631243 0.000000 0.166263
v -0.631243 0.090000 0.080863
v -0.631243 0.000000 0.080863
v -0.631243 0.090000 0.166263
v -0.545843 0.090000 0.166263
v -0.545843 0.000000 0.166263
v -0.545843 0.000000 0.080863
v -0.545843 0.090000 0.080863
vt 6.545810 0.000000
vt 3.183600 3.543310
vt 3.183600 0.000000
vt 6.545810 3.543310
vt -24.852100 0.000000
vt -21.489901 3.543310
vt -24.852100 3.543310
vt -21.489901 0.000000
vt -24.852100 6.545810
vt -21.489901 3.183600
vt -21.489901 6.545810
vt -24.852100 3.183600
vt 24.852100 3.543310
vt 21.489901 0.000000
vt 24.852100 0.000000
vt 21.489901 3.543310
vt 24.852100 3.183600
vt 21.489901 6.545810
vt 21.489901 3.183600
vt 24.852100 6.545810
vt -6.545810 3.543310
vt -3.183600 0.000000
vt -3.183600 3.543310
vt -6.545810 0.000000
vn -1.000000 0.000000 0.000000
vn 0.000000 0.000000 1.000000
vn 0.000000 -1.000000 0.000000
vn 0.000000 -0.000000 -1.000000
vn 0.000000 1.000000 -0.000000
vn 1.000000 -0.000000 0.000000
usemtl Green_leafs.022
s 1
f 1/1/1 2/2/1 3/3/1
f 2/2/1 1/1/1 4/4/1
f 1/5/2 5/6/2 4/7/2
f 5/6/2 1/5/2 6/8/2
f 1/9/3 7/10/3 6/11/3
f 7/10/3 1/9/3 3/12/3
f 2/13/4 7/14/4 3/15/4
f 7/14/4 2/13/4 8/16/4
f 2/17/5 5/18/5 8/19/5
f 5/18/5 2/17/5 4/20/5
f 5/21/6 7/22/6 8/23/6
f 7/22/6 5/21/6 6/24/6
o Mesh6_Group1_Model
v -0.228269 0.000000 0.450696
v -0.228269 0.090000 0.365296
v -0.228269 0.000000 0.365296
v -0.228269 0.090000 0.450696
v -0.142869 0.090000 0.450696
v -0.142869 0.000000 0.450696
v -0.142869 0.000000 0.365296
v -0.142869 0.090000 0.365296
vt 17.743900 0.000000
vt 14.381700 3.543310
vt 14.381700 0.000000
vt 17.743900 3.543310
vt -8.986980 0.000000
vt -5.624780 3.543310
vt -8.986980 3.543310
vt -5.624780 0.000000
vt -8.986980 17.743900
vt -5.624780 14.381700
vt -5.624780 17.743900
vt -8.986980 14.381700
vt 8.986980 3.543310
vt 5.624780 0.000000
vt 8.986980 0.000000
vt 5.624780 3.543310
vt 8.986980 14.381700
vt 5.624780 17.743900
vt 5.624780 14.381700
vt 8.986980 17.743900
vt -17.743900 3.543310
vt -14.381700 0.000000
vt -14.381700 3.543310
vt -17.743900 0.000000
vn -1.000000 0.000000 0.000000
vn 0.000000 0.000000 1.000000
vn 0.000000 -1.000000 0.000000
vn 0.000000 0.000000 -1.000000
vn 0.000000 1.000000 -0.000000
vn 1.000000 0.000000 0.000000
usemtl Green_leafs.022
s 1
f 9/25/7 10/26/7 11/27/7
f 10/26/7 9/25/7 12/28/7
f 9/29/8 13/30/8 12/31/8
f 13/30/8 9/29/8 14/32/8
f 9/33/9 15/34/9 14/35/9
f 15/34/9 9/33/9 11/36/9
f 10/37/10 15/38/10 11/39/10
f 15/38/10 10/37/10 16/40/10
f 10/41/11 13/42/11 16/43/11
f 13/42/11 10/41/11 12/44/11
f 13/45/12 15/46/12 16/47/12
f 15/46/12 13/45/12 14/48/12
o Mesh8_Group1_Model
v 0.049042 0.140000 -0.336064
v -0.036358 -0.000000 -0.336064
v 0.049042 -0.000000 -0.336064
v -0.036358 0.140000 -0.336064
v -0.036358 0.140000 -0.421464
v 0.049042 0.140000 -0.421464
v 0.049042 -0.000000 -0.421464
v -0.036358 -0.000000 -0.421464
vt 1.930790 5.511810
vt -1.431410 0.000000
vt 1.930790 0.000000
vt -1.431410 5.511810
vt -1.930790 -13.230900
vt 1.431410 -16.593100
vt 1.431410 -13.230900
vt -1.930790 -16.593100
vt 13.230900 5.511810
vt 16.593100 0.000000
vt 16.593100 5.511810
vt 13.230900 0.000000
vt -1.431410 -13.230900
vt 1.930790 -16.593100
vt 1.930790 -13.230900
vt -1.431410 -16.593100
vt -13.230900 0.000000
vt -16.593100 5.511810
vt -16.593100 0.000000
vt -13.230900 5.511810
vt 1.431410 5.511810
vt -1.930790 0.000000
vt 1.431410 0.000000
vt -1.930790 5.511810
vn 0.000000 0.000000 1.000000
vn 0.000000 1.000000 -0.000000
vn 1.000000 0.000000 0.000000
vn 0.000000 -1.000000 0.000000
vn -1.000000 0.000000 0.000000
vn 0.000000 -0.000000 -1.000000
usemtl Green_leafs.022
s 1
f 17/49/13 18/50/13 19/51/13
f 18/50/13 17/49/13 20/52/13
f 17/53/14 21/54/14 20/55/14
f 21/54/14 17/53/14 22/56/14
f 17/57/15 23/58/15 22/59/15
f 23/58/15 17/57/15 19/60/15
f 18/61/16 23/62/16 19/63/16
f 23/62/16 18/61/16 24/64/16
f 18/65/17 21/66/17 24/67/17
f 21/66/17 18/65/17 20/68/17
f 21/69/18 23/70/18 24/71/18
f 23/70/18 21/69/18 22/72/18
o Mesh3_Group1_Model.001
v 0.029098 0.000000 0.289775
v 0.029098 0.200000 0.204375
v 0.029098 0.000000 0.204375
v 0.029098 0.200000 0.289775
v 0.114498 0.200000 0.289775
v 0.114498 0.000000 0.289775
v 0.114498 0.000000 0.204375
v 0.114498 0.200000 0.204375
vt 11.408500 0.000000
vt 8.046270 7.874020
vt 8.046270 0.000000
vt 11.408500 7.874020
vt 1.145580 0.000000
vt 4.507780 7.874020
vt 1.145580 7.874020
vt 4.507780 0.000000
vt 1.145580 11.408500
vt 4.507780 8.046270
vt 4.507780 11.408500
vt 1.145580 8.046270
vt -1.145580 7.874020
vt -4.507780 0.000000
vt -1.145580 0.000000
vt -4.507780 7.874020
vt -1.145580 8.046270
vt -4.507780 11.408500
vt -4.507780 8.046270
vt -1.145580 11.408500
vt -11.408500 7.874020
vt -8.046270 0.000000
vt -8.046270 7.874020
vt -11.408500 0.000000
vn -1.000000 0.000000 0.000000
vn 0.000000 0.000000 1.000000
vn 0.000000 -1.000000 0.000000
vn 0.000000 -0.000000 -1.000000
vn 0.000000 1.000000 0.000000
vn 1.000000 -0.000000 0.000000
usemtl Green_leafs.022
s 1
f 25/73/19 26/74/19 27/75/19
f 26/74/19 25/73/19 28/76/19
f 25/77/20 29/78/20 28/79/20
f 29/78/20 25/77/20 30/80/20
f 25/81/21 31/82/21 30/83/21
f 31/82/21 25/81/21 27/84/21
f 26/85/22 31/86/22 27/87/22
f 31/86/22 26/85/22 32/88/22
f 26/89/23 29/90/23 32/91/23
f 29/90/23 26/89/23 28/92/23
f 29/93/24 31/94/24 32/95/24
f 31/94/24 29/93/24 30/96/24
o Mesh7_Group1_Model
v -0.524765 -0.000000 -0.169231
v -0.524765 0.090000 -0.254631
v -0.524765 -0.000000 -0.254631
v -0.524765 0.090000 -0.169231
v -0.439365 0.090000 -0.169231
v -0.439365 -0.000000 -0.169231
v -0.439365 -0.000000 -0.254631
v -0.439365 0.090000 -0.254631
vt -6.662650 0.000000
vt -10.024900 3.543310
vt -10.024900 0.000000
vt -6.662650 3.543310
vt -20.660000 0.000000
vt -17.297800 3.543310
vt -20.660000 3.543310
vt -17.297800 0.000000
vt -20.660000 -6.662650
vt -17.297800 -10.024900
vt -17.297800 -6.662650
vt -20.660000 -10.024900
vt 20.660000 3.543310
vt 17.297800 0.000000
vt 20.660000 0.000000
vt 17.297800 3.543310
vt 20.660000 -10.024900
vt 17.297800 -6.662650
vt 17.297800 -10.024900
vt 20.660000 -6.662650
vt 6.662650 3.543310
vt 10.024900 0.000000
vt 10.024900 3.543310
vt 6.662650 0.000000
vn -1.000000 -0.000000 0.000000
vn 0.000000 0.000000 1.000000
vn 0.000000 -1.000000 0.000000
vn 0.000000 0.000000 -1.000000
vn 0.000000 1.000000 -0.000000
vn 1.000000 0.000000 0.000000
usemtl Green_leafs.022
s 1
f 33/97/25 34/98/25 35/99/25
f 34/98/25 33/97/25 36/100/25
f 33/101/26 37/102/26 36/103/26
f 37/102/26 33/101/26 38/104/26
f 33/105/27 39/106/27 38/107/27
f 39/106/27 33/105/27 35/108/27
f 34/109/28 39/110/28 35/111/28
f 39/110/28 34/109/28 40/112/28
f 34/113/29 37/114/29 40/115/29
f 37/114/29 34/113/29 36/116/29
f 37/117/30 39/118/30 40/119/30
f 39/118/30 37/117/30 38/120/30
o Mesh2_Group1_Model.001
v 0.220000 0.480000 0.085400
v 0.220000 0.000000 0.000000
v 0.220000 0.480000 -0.000000
v 0.220000 0.000000 0.085400
v 0.134600 0.000000 0.085400
v 0.134600 0.480000 0.085400
v 0.134600 0.480000 -0.000000
v 0.134600 0.000000 0.000000
vt -3.362200 18.897600
vt 0.000000 0.000000
vt 0.000000 18.897600
vt -3.362200 0.000000
vt 8.661420 18.897600
vt 5.299210 0.000000
vt 8.661420 0.000000
vt 5.299210 18.897600
vt -8.661420 3.362200
vt -5.299210 0.000000
vt -5.299210 3.362200
vt -8.661420 0.000000
vt -5.299210 18.897600
vt -8.661420 18.897600
vt 5.299210 3.362200
vt 8.661420 3.362200
vt 3.362200 0.000000
vt 3.362200 18.897600
vn 1.000000 0.000000 0.000000
vn 0.000000 0.000000 1.000000
vn 0.000000 1.000000 0.000000
vn 0.000000 -0.000000 -1.000000
vn 0.000000 -1.000000 0.000000
vn -1.000000 -0.000000 0.000000
usemtl Green_leafs.022
s 1
f 41/121/31 42/122/31 43/123/31
f 42/122/31 41/121/31 44/124/31
f 41/125/32 45/126/32 44/127/32
f 45/126/32 41/125/32 46/128/32
f 41/129/33 47/130/33 46/131/33
f 47/130/33 41/129/33 43/132/33
f 42/132/34 47/133/34 43/134/34
f 47/133/34 42/132/34 48/130/34
f 42/127/35 45/135/35 48/126/35
f 45/135/35 42/127/35 44/136/35
f 45/137/36 47/123/36 48/122/36
f 47/123/36 45/137/36 46/138/36
o Mesh5_Group1_Model.001
v -0.210150 -0.000000 -0.082759
v -0.210150 0.480000 -0.168159
v -0.210150 -0.000000 -0.168159
v -0.210150 0.480000 -0.082759
v -0.124750 0.480000 -0.082759
v -0.124750 -0.000000 -0.082759
v -0.124750 -0.000000 -0.168159
v -0.124750 0.480000 -0.168159
vt -3.258230 0.000000
vt -6.620430 18.897600
vt -6.620430 0.000000
vt -3.258230 18.897600
vt -8.273610 0.000000
vt -4.911410 18.897600
vt -8.273610 18.897600
vt -4.911410 0.000000
vt -8.273610 -3.258230
vt -4.911410 -6.620430
vt -4.911410 -3.258230
vt -8.273610 -6.620430
vt 8.273610 18.897600
vt 4.911410 0.000000
vt 8.273610 0.000000
vt 4.911410 18.897600
vt 8.273610 -6.620430
vt 4.911410 -3.258230
vt 4.911410 -6.620430
vt 8.273610 -3.258230
vt 3.258230 18.897600
vt 6.620430 0.000000
vt 6.620430 18.897600
vt 3.258230 0.000000
vn -1.000000 0.000000 0.000000
vn 0.000000 0.000000 1.000000
vn 0.000000 -1.000000 0.000000
vn 0.000000 -0.000000 -1.000000
vn 0.000000 1.000000 -0.000000
vn 1.000000 0.000000 0.000000
usemtl Green_leafs.022
s 1
f 49/139/37 50/140/37 51/141/37
f 50/140/37 49/139/37 52/142/37
f 49/143/38 53/144/38 52/145/38
f 53/144/38 49/143/38 54/146/38
f 49/147/39 55/148/39 54/149/39
f 55/148/39 49/147/39 51/150/39
f 50/151/40 55/152/40 51/153/40
f 55/152/40 50/151/40 56/154/40
f 50/155/41 53/156/41 56/157/41
f 53/156/41 50/155/41 52/158/41
f 53/159/42 55/160/42 56/161/42
f 55/160/42 53/159/42 54/162/42
o Mesh9_Group1_Model
v 0.294976 -0.000000 -0.144182
v 0.294976 0.090000 -0.229582
v 0.294976 -0.000000 -0.229582
v 0.294976 0.090000 -0.144182
v 0.380376 0.090000 -0.144182
v 0.380376 -0.000000 -0.144182
v 0.380376 -0.000000 -0.229582
v 0.380376 0.090000 -0.229582
vt -5.676470 0.000000
vt -9.038680 3.543310
vt -9.038680 0.000000
vt -5.676470 3.543310
vt 11.613200 0.000000
vt 14.975400 3.543310
vt 11.613200 3.543310
vt 14.975400 0.000000
vt 11.613200 -5.676470
vt 14.975400 -9.038680
vt 14.975400 -5.676470
vt 11.613200 -9.038680
vt -11.613200 3.543310
vt -14.975400 0.000000
vt -11.613200 0.000000
vt -14.975400 3.543310
vt -11.613200 -9.038680
vt -14.975400 -5.676470
vt -14.975400 -9.038680
vt -11.613200 -5.676470
vt 5.676470 3.543310
vt 9.038680 0.000000
vt 9.038680 3.543310
vt 5.676470 0.000000
vn -1.000000 0.000000 0.000000
vn 0.000000 0.000000 1.000000
vn 0.000000 -1.000000 0.000000
vn 0.000000 -0.000000 -1.000000
vn 0.000000 1.000000 -0.000000
vn 1.000000 0.000000 0.000000
usemtl Green_leafs.022
s 1
f 57/163/43 58/164/43 59/165/43
f 58/164/43 57/163/43 60/166/43
f 57/167/44 61/168/44 60/169/44
f 61/168/44 57/167/44 62/170/44
f 57/171/45 63/172/45 62/173/45
f 63/172/45 57/171/45 59/174/45
f 58/175/46 63/176/46 59/177/46
f 63/176/46 58/175/46 64/178/46
f 58/179/47 61/180/47 64/181/47
f 61/180/47 58/179/47 60/182/47
f 61/183/48 63/184/48 64/185/48
f 63/184/48 61/183/48 62/186/48
o Mesh1_Group1_Model.030
v 0.000000 0.240000 0.085400
v 0.000000 0.000000 0.000000
v 0.000000 0.240000 -0.000000
v 0.000000 0.000000 0.085400
v -0.085400 0.000000 0.085400
v -0.085400 0.240000 0.085400
v -0.085400 0.240000 -0.000000
v -0.085400 0.000000 0.000000
vt -3.362200 9.448820
vt 0.000000 0.000000
vt 0.000000 9.448820
vt -3.362200 0.000000
vt 0.000000 3.362200
vt 3.362200 0.000000
vt 3.362200 3.362200
vt 3.362200 9.448820
vt -3.362200 3.362200
vn 1.000000 0.000000 0.000000
vn 0.000000 0.000000 1.000000
vn 0.000000 1.000000 -0.000000
vn 0.000000 -0.000000 -1.000000
vn 0.000000 -1.000000 0.000000
vn -1.000000 0.000000 0.000000
usemtl Green_leafs.022
s 1
f 65/187/49 66/188/49 67/189/49
f 66/188/49 65/187/49 68/190/49
f 65/189/50 69/190/50 68/188/50
f 69/190/50 65/189/50 70/187/50
f 65/191/51 71/192/51 70/193/51
f 71/192/51 65/191/51 67/188/51
f 66/188/52 71/194/52 67/189/52
f 71/194/52 66/188/52 72/192/52
f 66/188/53 69/195/53 72/190/53
f 69/195/53 66/188/53 68/191/53
f 69/192/54 71/189/54 72/188/54
f 71/189/54 69/192/54 70/194/54
o Mesh4_Group1_Model.001
v -0.324807 0.000000 0.181833
v -0.324807 0.190000 0.096433
v -0.324807 0.000000 0.096433
v -0.324807 0.190000 0.181833
v -0.239407 0.190000 0.181833
v -0.239407 0.000000 0.181833
v -0.239407 0.000000 0.096433
v -0.239407 0.190000 0.096433
vt 7.158780 0.000000
vt 3.796570 7.480310
vt 3.796570 0.000000
vt 7.158780 7.480310
vt -12.787700 0.000000
vt -9.425470 7.480310
vt -12.787700 7.480310
vt -9.425470 0.000000
vt -12.787700 7.158780
vt -9.425470 3.796570
vt -9.425470 7.158780
vt -12.787700 3.796570
vt 12.787700 7.480310
vt 9.425470 0.000000
vt 12.787700 0.000000
vt 9.425470 7.480310
vt 12.787700 3.796570
vt 9.425470 7.158780
vt 9.425470 3.796570
vt 12.787700 7.158780
vt -7.158780 7.480310
vt -3.796570 0.000000
vt -3.796570 7.480310
vt -7.158780 0.000000
vn -1.000000 0.000000 0.000000
vn 0.000000 0.000000 1.000000
vn 0.000000 -1.000000 0.000000
vn 0.000000 -0.000000 -1.000000
vn 0.000000 1.000000 -0.000000
vn 1.000000 0.000000 0.000000
usemtl Green_leafs.022
s 1
f 73/196/55 74/197/55 75/198/55
f 74/197/55 73/196/55 76/199/55
f 73/200/56 77/201/56 76/202/56
f 77/201/56 73/200/56 78/203/56
f 73/204/57 79/205/57 78/206/57
f 79/205/57 73/204/57 75/207/57
f 74/208/58 79/209/58 75/210/58
f 79/209/58 74/208/58 80/211/58
f 74/212/59 77/213/59 80/214/59
f 77/213/59 74/212/59 76/215/59
f 77/216/60 79/217/60 80/218/60
f 79/217/60 77/216/60 78/219/60
