# Blender v2.76 (sub 0) OBJ File: ''
# www.blender.org
mtllib naturePack_114.mtl
o Mesh1_Tree_Model.001
v -0.177000 0.600000 1.003000
v -1.180000 0.000000 1.180000
v 0.000000 0.000000 1.180000
v -1.003000 0.600000 1.003000
v -1.097400 0.600000 1.097400
v -0.082600 0.600000 1.097400
v -0.082600 0.600000 0.082600
v -0.177000 0.600000 0.177000
v -1.097400 0.600000 0.082600
v -1.003000 0.600000 0.177000
v 0.000000 0.000000 0.000000
v -1.180000 0.000000 0.000000
v -0.393303 0.000000 0.393303
v -0.393303 0.000000 0.786697
v -0.786697 0.000000 0.786697
v -0.786697 0.000000 0.393303
v -0.342162 -0.495868 0.837838
v -0.342162 -0.495868 0.342162
v -0.837838 -0.495868 0.837838
v -0.837838 -0.495868 0.342162
v -0.945180 1.343040 0.234820
v -0.945180 1.343040 0.945180
v -0.234820 1.343040 0.945180
v -0.234820 1.343040 0.234820
v -1.026360 1.343040 0.153636
v -0.153636 1.343040 0.153636
v -0.153636 1.343040 1.026360
v -1.026360 1.343040 1.026360
v -0.590000 2.663040 0.590000
vt -6.968500 11.483800
vt -46.456699 -13.144700
vt 0.000000 -13.144700
vt -39.488201 11.483800
vt -6.968500 39.488201
vt -43.204700 43.204700
vt -39.488201 39.488201
vt -3.251970 43.204700
vt -3.251970 3.251970
vt -6.968500 6.968500
vt -43.204700 3.251970
vt -39.488201 6.968500
vt 0.000000 0.000000
vt 39.488201 24.628500
vt 6.968500 24.628500
vt 46.456699 -0.000000
vt -15.484400 15.484400
vt -46.456699 0.000000
vt -15.484400 30.972300
vt 0.000000 46.456699
vt -46.456699 46.456699
vt -30.972300 30.972300
vt -30.972300 15.484400
vt 46.456699 -13.144700
vt 6.968500 11.483800
vt 39.488201 11.483800
vt 43.204700 14.470500
vt 9.244880 44.331600
vt 3.251970 14.470500
vt 37.211800 44.331600
vt -43.204700 14.470500
vt -9.244880 44.331600
vt -37.211800 44.331600
vt -3.251970 14.470500
vt -43.204700 23.794100
vt -9.244880 53.655201
vt -37.211800 53.655201
vt -3.251970 23.794100
vt 3.251970 23.794100
vt 37.211800 53.655201
vt 9.244880 53.655201
vt 43.204700 23.794100
vt -40.408001 6.048660
vt -9.244880 9.244880
vt -37.211800 9.244880
vt -6.048660 6.048660
vt -9.244880 37.211800
vt -6.048660 40.408001
vt -40.408001 40.408001
vt -23.228300 92.254997
vt -40.408001 37.520500
vt -6.048660 37.520500
vt 40.408001 37.520500
vt 23.228300 92.254997
vt 6.048660 37.520500
vt 23.228300 106.836998
vt 6.048660 52.102001
vt 40.408001 52.102001
vt -40.408001 52.102001
vt -6.048660 52.102001
vt -23.228300 106.836998
vt -37.211800 37.211800
vt -6.968500 24.628500
vt -39.488201 24.628500
vt -32.985802 -18.037399
vt -15.484400 1.588550
vt -30.972300 1.588550
vt -13.470900 -18.037399
vt -32.985802 32.985802
vt -13.470900 13.470900
vt -13.470900 32.985802
vt -32.985802 13.470900
vt 32.985802 -22.803400
vt 15.484400 -3.177470
vt 13.470900 -22.803400
vt 30.972300 -3.177470
vt -32.985802 -22.803400
vt -15.484400 -3.177470
vt -30.972300 -3.177470
vt -13.470900 -22.803400
vt 30.972300 1.588550
vt 13.470900 -18.037399
vt 32.985802 -18.037399
vt 15.484400 1.588550
vn 0.000000 0.282900 0.959100
vn -0.000000 -1.000000 -0.000000
vn 0.000000 0.282900 -0.959100
vn -0.959100 0.282900 -0.000000
vn -0.979700 0.200700 -0.000000
vn 0.000000 0.200700 0.979700
vn 0.979700 0.200700 -0.000000
vn 0.000000 0.200700 -0.979700
vn 0.000000 0.313900 0.949500
vn -0.949500 0.313900 -0.000000
vn 0.000000 0.313900 -0.949500
vn 0.949500 0.313900 -0.000000
vn 0.959100 0.282900 -0.000000
vn 0.994700 0.102600 -0.000000
vn -0.994700 0.102600 -0.000000
vn 0.000000 0.102600 0.994700
vn 0.000000 0.102600 -0.994700
usemtl Leafs.039
s 1
f 1/1/1 2/2/1 3/3/1
f 2/2/1 1/1/1 4/4/1
f 1/5/2 5/6/2 4/7/2
f 1/5/2 6/8/2 5/6/2
f 6/8/2 1/5/2 7/9/2
f 8/10/2 7/9/2 1/5/2
f 7/9/2 8/10/2 9/11/2
f 9/11/2 8/10/2 10/12/2
f 11/13/3 10/14/3 8/15/3
f 10/14/3 11/13/3 12/16/3
f 11/13/2 13/17/2 12/18/2
f 13/17/2 11/13/2 14/19/2
f 3/20/2 14/19/2 11/13/2
f 14/19/2 3/20/2 2/21/2
f 14/19/2 2/21/2 15/22/2
f 15/22/2 2/21/2 16/23/2
f 12/18/2 16/23/2 2/21/2
f 12/18/2 13/17/2 16/23/2
f 13/17/2 15/22/2 16/23/2
f 15/22/2 13/17/2 14/19/2
f 2/24/4 10/25/4 12/3/4
f 10/25/4 2/24/4 4/26/4
f 4/7/2 5/6/2 10/12/2
f 9/11/2 10/12/2 5/6/2
f 5/27/5 21/28/5 9/29/5
f 21/28/5 5/27/5 22/30/5
f 5/31/6 23/32/6 22/33/6
f 23/32/6 5/31/6 6/34/6
f 6/35/7 24/36/7 23/37/7
f 24/36/7 6/35/7 7/38/7
f 7/39/8 21/40/8 24/41/8
f 21/40/8 7/39/8 9/42/8
f 25/43/2 24/44/2 21/45/2
f 26/46/2 24/44/2 25/43/2
f 24/44/2 26/46/2 23/47/2
f 27/48/2 23/47/2 26/46/2
f 23/47/2 27/48/2 28/49/2
f 29/50/9 28/51/9 27/52/9
f 28/53/10 29/54/10 25/55/10
f 29/56/11 26/57/11 25/58/11
f 27/59/12 26/60/12 29/61/12
f 25/43/2 21/45/2 28/49/2
f 22/62/2 28/49/2 21/45/2
f 23/47/2 28/49/2 22/62/2
f 8/63/13 3/18/13 11/13/13
f 3/18/13 8/63/13 1/64/13
usemtl Wood.065
f 17/65/14 13/66/14 14/67/14
f 13/66/14 17/65/14 18/68/14
f 19/69/2 18/70/2 17/71/2
f 18/70/2 19/69/2 20/72/2
f 19/73/15 16/74/15 20/75/15
f 16/74/15 19/73/15 15/76/15
f 19/77/16 14/78/16 15/79/16
f 14/78/16 19/77/16 17/80/16
f 16/81/17 18/82/17 20/83/17
f 18/82/17 16/81/17 13/84/17
