# Blender v2.76 (sub 0) OBJ File: ''
# www.blender.org
mtllib naturePack_046.mtl
o Mesh1_Group1_Model.035
v -0.201300 0.000000 0.201300
v 0.000000 0.000000 0.000000
v 0.000000 0.000000 0.201300
v -0.201300 0.000000 0.000000
v -0.201300 0.220000 -0.000000
v -0.201300 0.220000 0.100650
v -0.201300 0.475988 0.100650
v -0.201300 0.630000 0.100650
v -0.201300 0.885988 0.100650
v -0.201300 1.112990 0.201300
v -0.201300 0.885988 -0.000000
v -0.201300 1.112990 -0.000000
v 0.000000 1.112990 0.201300
v 0.000000 1.112990 -0.000000
v -0.201300 0.475988 -0.000000
v -2.798700 0.475988 -0.000000
v -2.798700 0.220000 -0.000000
v -2.798700 0.220000 0.100650
v -2.798700 0.475988 0.100650
v -0.201300 0.630000 -0.000000
v -2.798700 0.630000 0.100650
v -2.798700 0.630000 -0.000000
v -2.798700 1.112990 0.201300
v -2.798700 0.885988 0.100650
v -2.798700 0.885988 -0.000000
v -2.798700 1.112990 -0.000000
v -3.000000 1.112990 -0.000000
v -2.798700 0.000000 0.000000
v -3.000000 0.000000 0.000000
v -3.000000 0.000000 0.201300
v -2.798700 0.000000 0.201300
v -3.000000 1.112990 0.201300
vt -7.925200 7.925200
vt 0.000000 0.000000
vt 0.000000 7.925200
vt -7.925200 0.000000
vt 7.925200 0.000000
vt -0.000000 8.661420
vt 3.962600 8.661420
vt 3.962600 18.739700
vt 3.962600 24.803101
vt 3.962600 34.881401
vt 7.925200 43.818600
vt -0.000000 34.881401
vt -0.000000 43.818600
vt 7.925200 7.925200
vt -7.925200 43.818600
vt 7.925200 8.661420
vt 7.925200 18.739700
vt 110.184998 18.739700
vt 110.184998 8.661420
vt -110.184998 3.962600
vt -110.184998 0.000000
vt -7.925200 3.962600
vt -7.925200 18.739700
vt -110.184998 8.661420
vt -7.925200 8.661420
vt -110.184998 18.739700
vt 7.925200 3.962600
vt 110.184998 0.000000
vt 110.184998 3.962600
vt -0.000000 24.803101
vt -0.000000 18.739700
vt -3.962600 24.803101
vt -3.962600 18.739700
vt -3.962600 34.881401
vt 110.184998 34.881401
vt 118.110001 43.818600
vt 110.184998 43.818600
vt 110.184998 24.803101
vt 118.110001 -0.000000
vt -118.110001 7.925200
vt -118.110001 0.000000
vt -110.184998 7.925200
vt -3.962600 8.661420
vt -110.184998 43.818600
vt -118.110001 43.818600
vt 110.184998 7.925200
vt 118.110001 7.925200
vt 7.925200 24.803101
vt 7.925200 34.881401
vt -110.184998 24.803101
vt -7.925200 34.881401
vt -110.184998 34.881401
vt -7.925200 24.803101
vn 0.000000 -1.000000 0.000000
vn -1.000000 0.000000 0.000000
vn 0.000000 1.000000 0.000000
vn 1.000000 0.000000 0.000000
vn 0.000000 0.000000 1.000000
vn 0.000000 -0.000000 -1.000000
usemtl Wood.026
s 1
f 1/1/1 2/2/1 3/3/1
f 2/2/1 1/1/1 4/4/1
f 1/5/2 5/6/2 4/2/2
f 5/6/2 1/5/2 6/7/2
f 6/7/2 1/5/2 7/8/2
f 7/8/2 1/5/2 8/9/2
f 8/9/2 1/5/2 9/10/2
f 10/11/2 9/10/2 1/5/2
f 10/11/2 11/12/2 9/10/2
f 11/12/2 10/11/2 12/13/2
f 13/3/3 12/5/3 10/14/3
f 12/5/3 13/3/3 14/2/3
f 13/15/4 2/2/4 14/13/4
f 2/2/4 13/15/4 3/4/4
f 13/13/5 1/4/5 3/2/5
f 1/4/5 13/13/5 10/15/5
f 2/2/6 5/16/6 14/13/6
f 5/16/6 2/2/6 4/5/6
f 14/13/6 5/16/6 15/17/6
f 5/16/6 16/18/6 15/17/6
f 16/18/6 5/16/6 17/19/6
f 5/4/1 18/20/1 17/21/1
f 18/20/1 5/4/1 6/22/1
f 7/23/5 18/24/5 6/25/5
f 18/24/5 7/23/5 19/26/5
f 7/27/3 16/28/3 19/29/3
f 16/28/3 7/27/3 15/5/3
f 7/8/2 20/30/2 15/31/2
f 20/30/2 7/8/2 8/9/2
f 21/20/1 20/4/1 8/22/1
f 20/4/1 21/20/1 22/21/1
f 21/32/4 16/31/4 22/30/4
f 16/31/4 21/32/4 19/33/4
f 21/32/4 23/15/4 19/33/4
f 24/34/4 23/15/4 21/32/4
f 25/12/4 23/15/4 24/34/4
f 23/15/4 25/12/4 26/13/4
f 25/35/6 27/36/6 26/37/6
f 22/38/6 27/36/6 25/35/6
f 16/18/6 27/36/6 22/38/6
f 17/19/6 27/36/6 16/18/6
f 28/28/6 27/36/6 17/19/6
f 27/36/6 28/28/6 29/39/6
f 28/21/1 30/40/1 29/41/1
f 30/40/1 28/21/1 31/42/1
f 17/6/4 31/4/4 28/2/4
f 31/4/4 17/6/4 18/43/4
f 31/4/4 18/43/4 23/15/4
f 19/33/4 23/15/4 18/43/4
f 23/44/5 30/41/5 31/21/5
f 30/41/5 23/44/5 32/45/5
f 23/46/3 27/39/3 32/47/3
f 27/39/3 23/46/3 26/28/3
f 27/13/2 30/5/2 32/11/2
f 30/5/2 27/13/2 29/2/2
f 25/35/6 20/48/6 22/38/6
f 20/48/6 25/35/6 11/49/6
f 25/28/3 9/27/3 11/5/3
f 9/27/3 25/28/3 24/29/3
f 21/50/5 9/51/5 24/52/5
f 9/51/5 21/50/5 8/53/5
f 14/13/6 20/48/6 11/49/6
f 14/13/6 15/17/6 20/48/6
f 14/13/6 11/49/6 12/11/6
