# Blender v2.76 (sub 0) OBJ File: ''
# www.blender.org
mtllib naturePack_053.mtl
o Mesh1_Group1_Model.042
v -1.159100 4.247250 1.176449
v -1.091710 4.257170 1.293019
v -1.091710 4.253220 1.215169
v -1.159100 4.255140 1.332149
v -1.226490 4.245220 1.215579
v -1.075250 2.813490 0.769358
v -1.556820 2.799000 1.048980
v -1.486520 2.804810 1.080999
v -1.067500 2.818280 0.854779
v -0.680144 2.854070 1.106490
v -0.593672 2.856150 1.046080
v -0.593672 2.884340 1.602430
v -1.075250 2.869850 1.882050
v -1.226490 4.249170 1.293429
v -1.556820 2.827190 1.605319
v -1.463250 2.830240 1.555619
v -1.054630 2.864920 1.760409
v -0.687702 2.875510 1.538520
v -0.514564 1.668390 1.631210
v -0.514564 1.724090 0.854104
v -0.585892 1.725500 0.949900
v -1.184810 1.829300 0.471096
v -1.148900 1.809950 0.682862
v -0.209482 0.873652 0.815862
v -1.078750 0.784007 0.317095
v -0.423937 0.862892 0.889760
v -0.209482 0.931573 1.820390
v -0.545492 1.673200 1.614130
v -1.184810 1.717890 2.025310
v -1.137620 1.719800 1.922300
v -1.657280 1.805940 1.561530
v -1.855060 1.823090 1.642300
v -1.410260 2.966450 1.543900
v -1.049530 2.909830 1.750040
v -0.688804 2.883190 1.537930
v -0.688804 2.913170 1.119689
v -1.049530 2.969790 0.913559
v -1.855060 1.878800 0.865194
v -1.410260 2.996430 1.125659
v -1.636470 1.844980 0.983228
v -1.948030 0.752283 0.822860
v -1.117170 0.788835 0.447508
v 0.000000 0.000000 0.645000
v -1.117170 0.000000 0.000000
v -0.000000 0.000000 1.935000
v -1.117170 0.000000 2.580000
v -0.445517 0.906817 1.677780
v -1.117170 0.882914 2.079120
v -1.078750 0.899849 2.326160
v -0.515910 1.050100 0.942861
v -0.515910 1.050100 1.637140
v -1.117170 1.050100 1.984280
v -1.718440 1.050100 1.637140
v -1.835900 0.810998 1.704960
v -1.718440 1.050100 0.942861
v -1.860670 0.760585 0.860741
v -1.117170 1.050100 0.595722
v -2.234350 0.000000 0.645000
v -2.234350 0.000000 1.935000
v -1.948030 0.810204 1.827390
v -0.687749 1.987180 1.526810
v -1.155590 1.970110 1.799010
v -1.623430 1.921860 1.530580
v -1.623430 1.890690 0.989937
v -1.155590 1.907760 0.717735
v -0.687749 1.956010 0.986171
vt 64.849602 8.325960
vt 66.623703 13.336700
vt 64.290199 11.343400
vt 69.516602 12.312400
vt 67.742500 7.301690
vt 51.845100 109.267998
vt 65.883499 166.925003
vt 62.815601 167.005997
vt 73.768700 108.684998
vt -50.507099 -3.924990
vt -70.346397 -8.311040
vt -71.180901 -11.244800
vt -52.869801 -1.505100
vt -50.527302 16.585800
vt -46.509300 17.638901
vt 17.825899 177.841003
vt 0.754737 121.009003
vt 22.616699 119.265999
vt 14.766700 178.085007
vt -47.052601 172.419998
vt -62.652599 115.166000
vt -40.752899 113.987999
vt -50.117100 172.585007
vt -65.576698 148.746994
vt -51.470600 91.107002
vt -62.508999 148.832993
vt -73.393501 90.498100
vt -14.877700 139.690002
vt 2.231240 82.868599
vt -11.818700 139.936005
vt -19.629601 81.111000
vt 48.416000 152.205002
vt 63.910702 94.922302
vt 51.480801 152.363998
vt 42.008900 93.783897
vt -87.856903 2.999410
vt -83.978699 4.540370
vt -83.859100 24.563299
vt -79.686798 22.069000
vt -63.669998 27.419901
vt -63.185299 31.883101
vt -64.426903 67.808701
vt -43.837299 114.972000
vt -60.848400 115.824997
vt -33.833801 70.024498
vt 43.939201 9.142510
vt 39.254601 8.732420
vt 65.281197 -7.499160
vt 40.298302 39.387901
vt 46.647499 33.750900
vt -7.836380 43.054401
vt 27.262501 82.069901
vt 2.756900 78.550797
vt 31.601299 39.318901
vt -30.040400 17.097401
vt -37.652699 12.408700
vt -36.630901 -21.964800
vt -60.574001 42.335899
vt -36.792400 71.827202
vt -71.433403 37.605301
vt -31.897900 35.108700
vt -62.975601 69.572899
vt 65.349403 -6.097070
vt 92.351501 6.924760
vt 87.924896 7.481110
vt 86.596802 32.582100
vt 93.395203 37.580299
vt -4.493870 89.139900
vt -34.550201 46.787800
vt -4.176530 42.511101
vt -22.485100 87.730003
vt -20.853399 93.267197
vt -4.506300 90.965500
vt -54.380798 106.863998
vt -70.880402 108.228996
vt -71.262604 106.444000
vt -54.406101 107.169998
vt -44.360401 117.322998
vt -60.825600 116.129997
vt -0.225597 121.753998
vt 16.136299 126.469002
vt -0.210026 124.162003
vt 17.958000 120.294998
vt 29.848900 79.994301
vt -0.523338 75.707298
vt 80.390198 66.678101
vt 53.074600 106.471001
vt 49.788700 64.581497
vt 71.820900 105.901001
vt 62.583599 39.577202
vt 40.901001 81.081001
vt 32.000900 41.932098
vt 59.605099 82.155998
vt 42.742699 89.181999
vt 59.202301 87.914497
vt 70.047699 114.016998
vt 53.577999 112.889000
vt 67.368599 53.811798
vt 66.797798 43.957600
vt 42.895302 26.918900
vt 75.161301 70.203903
vt 52.618801 68.774902
vt 82.488403 25.624701
vt -41.556198 -19.860701
vt -73.754898 -35.788300
vt -12.696900 9.697290
vt 29.281300 44.299500
vt -3.060630 47.548000
vt 38.090599 9.697290
vt -0.000000 76.181099
vt -43.983200 0.000000
vt 0.000000 25.393700
vt -43.983200 101.574997
vt -48.217300 10.685600
vt -88.877998 -29.091900
vt -38.090599 -29.091900
vt -79.018097 9.637090
vt -62.145199 31.548901
vt -97.697998 28.512400
vt -91.150398 21.133101
vt -37.120499 46.062401
vt -66.054298 39.777500
vt -35.029900 37.850700
vt -64.454300 46.062401
vt -77.151100 16.970600
vt -49.817402 16.970600
vt -26.363701 -2.424000
vt 2.837040 -9.757480
vt 0.970039 -2.424000
vt -29.033800 -12.912100
vt 37.120499 7.273290
vt 67.124397 -3.214790
vt 64.454300 7.273290
vt 33.887402 -5.426110
vt 77.151100 36.365200
vt 46.899799 24.904900
vt 80.384201 23.665701
vt 49.817402 36.365200
vt 26.363701 55.759701
vt -0.970039 55.759701
vt -72.720497 -32.170399
vt 38.090599 -9.697290
vt 88.877998 -9.697290
vt -87.966400 76.181099
vt -87.966400 25.393700
vt -38.090599 -48.486401
vt 12.696900 -48.486401
vt -104.288002 -10.549700
vt -97.761497 -10.203800
vt 12.160200 -2.554130
vt -23.060301 35.617401
vt -27.273500 -6.330670
vt 1.812430 31.988501
vt -42.319199 8.649860
vt -76.135696 42.866699
vt -81.909500 7.272710
vt -49.869202 40.843899
vt -53.065701 54.473999
vt -74.373100 53.732800
vt -1.346550 42.533600
vt -22.569799 40.501099
vt 40.028198 54.057999
vt 62.550701 50.586102
vt 61.310200 55.334999
vt 39.772598 52.185299
vt 53.545799 72.765503
vt 74.854797 72.068901
vt 5.623470 88.156197
vt 26.848801 86.145798
vt -38.116798 81.763397
vt -59.394798 83.107101
vt 73.206100 9.795700
vt 33.663101 7.422960
vt 76.181099 -38.789101
vt 25.393700 -38.789101
vt -76.181099 -0.000000
vt -25.393700 -0.000000
vt -81.023399 60.846802
vt -50.413300 58.879101
vt 70.075996 9.294900
vn -0.059300 0.997000 -0.050500
vn -0.059300 0.997000 -0.050600
vn -0.495600 0.210300 -0.842700
vn 0.059300 -0.997000 0.050500
vn 0.059400 -0.997000 0.050500
vn 0.462200 0.267100 -0.845600
vn 0.941100 0.337600 -0.017100
vn 0.462200 0.351200 0.814300
vn -0.495600 0.294400 0.817100
vn -0.495600 0.294400 0.817200
vn -0.974500 0.223900 -0.011400
vn -0.974500 0.223900 -0.011300
vn 0.989700 0.142700 0.010200
vn -0.115000 -0.990800 -0.071000
vn -0.114900 -0.990800 -0.071000
vn 0.444600 0.327600 -0.833700
vn 0.069800 -0.995900 0.057400
vn 0.913100 0.407200 -0.023500
vn -0.450700 0.249100 0.857200
vn 0.509600 0.138200 0.849200
vn 0.509600 0.138400 0.849200
vn 0.989700 0.142800 0.010200
vn 0.509600 0.258000 -0.820800
vn -0.450700 0.368800 -0.812900
vn -0.930900 0.364400 0.026100
vn -0.492400 0.262200 -0.829900
vn 0.069700 -0.995900 0.057400
vn 0.448800 0.441000 -0.777300
vn -0.000000 -1.000000 0.000000
vn 0.448800 0.441000 0.777300
vn 0.897500 0.440900 0.000000
vn 0.448800 0.440900 0.777300
vn -0.448800 0.440900 0.777300
vn -0.897500 0.440900 -0.000000
vn -0.448800 0.440900 -0.777300
vn -0.448800 0.441000 -0.777300
vn 0.448800 0.440900 -0.777300
vn -0.448800 0.441000 0.777300
vn -0.492400 0.355900 0.794300
vn 0.444600 0.421300 0.790500
vn -0.960900 0.276300 -0.015900
vn -0.961000 0.276100 -0.016000
vn -0.492400 0.262300 -0.829900
vn -0.897500 0.441000 0.000000
vn 0.897500 0.441000 -0.000000
vn 0.509600 0.138300 0.849200
usemtl Leafs.008
s 1
f 1/1/1 2/2/1 3/3/2
f 2/2/1 1/1/1 4/4/1
f 4/4/1 1/1/1 5/5/1
f 6/6/3 5/7/3 1/8/3
f 5/7/3 6/6/3 7/9/3
f 6/10/4 8/11/5 7/12/5
f 6/10/4 9/13/4 8/11/5
f 6/10/4 10/14/4 9/13/4
f 10/14/4 6/10/4 11/15/4
f 1/16/6 11/17/6 6/18/6
f 11/17/6 1/16/6 3/19/6
f 3/20/7 12/21/7 11/22/7
f 12/21/7 3/20/7 2/23/7
f 4/24/8 12/25/8 2/26/8
f 12/25/8 4/24/8 13/27/8
f 14/28/9 13/29/9 4/30/10
f 13/29/9 14/28/9 15/31/9
f 5/32/11 15/33/12 14/34/11
f 15/33/12 5/32/11 7/35/12
f 7/12/5 8/11/5 15/36/4
f 16/37/4 15/36/4 8/11/5
f 16/37/4 13/38/4 15/36/4
f 17/39/4 13/38/4 16/37/4
f 18/40/4 13/38/4 17/39/4
f 18/40/4 12/41/4 13/38/4
f 12/41/4 18/40/4 11/15/4
f 11/15/4 18/40/4 10/14/4
f 19/42/13 10/43/13 18/44/13
f 10/43/13 19/42/13 20/45/13
f 21/46/14 20/47/14 19/48/15
f 20/47/14 21/46/14 22/49/15
f 22/49/15 21/46/14 23/50/15
f 24/51/16 23/52/16 21/53/16
f 23/52/16 24/51/16 25/54/16
f 24/55/17 26/56/17 25/57/17
f 26/56/17 24/55/17 27/58/17
f 21/59/18 27/60/18 24/61/18
f 27/60/18 21/59/18 28/62/18
f 21/46/14 19/48/15 28/63/15
f 29/64/15 28/63/15 19/48/15
f 28/63/15 29/64/15 30/65/15
f 30/65/15 29/64/15 31/66/15
f 31/66/15 29/64/15 32/67/15
f 17/68/19 32/69/19 29/70/19
f 32/69/19 17/68/19 16/71/19
f 17/68/19 33/72/19 16/71/19
f 33/72/19 17/68/19 34/73/19
f 18/74/20 34/75/20 17/76/20
f 34/75/21 18/74/21 35/77/21
f 18/44/22 36/78/13 35/79/22
f 36/78/13 18/44/22 10/43/13
f 10/80/23 37/81/23 36/82/23
f 37/81/23 10/80/23 9/83/23
f 10/80/23 22/84/23 9/83/23
f 22/84/23 10/80/23 20/85/23
f 38/86/24 9/87/24 22/88/24
f 9/87/24 38/86/24 8/89/24
f 32/90/25 8/91/25 38/92/25
f 8/91/25 32/90/25 16/93/25
f 16/93/25 39/94/25 8/91/25
f 39/94/25 16/93/25 33/95/25
f 39/96/24 9/87/24 8/89/24
f 9/87/24 39/96/24 37/97/24
f 38/98/15 31/66/15 32/67/15
f 38/98/15 40/99/15 31/66/15
f 22/49/15 40/99/15 38/98/15
f 22/49/15 23/50/15 40/99/15
f 25/100/26 40/101/26 23/102/26
f 40/101/26 25/100/26 41/103/26
f 25/57/17 42/104/17 41/105/27
f 25/57/17 26/56/17 42/104/17
f 43/106/28 42/107/28 26/108/28
f 42/107/28 43/106/28 44/109/28
f 45/110/29 44/111/29 43/112/29
f 44/111/29 45/110/29 46/113/29
f 47/114/30 46/115/30 45/116/30
f 46/115/30 47/114/30 48/117/30
f 47/118/17 49/119/17 48/120/17
f 47/118/17 27/58/17 49/119/17
f 27/58/17 47/118/17 26/56/17
f 50/121/31 47/122/31 26/123/31
f 47/122/31 50/121/31 51/124/31
f 52/125/32 47/114/32 51/126/32
f 47/114/32 52/125/32 48/117/32
f 53/127/33 48/128/33 52/129/33
f 48/128/33 53/127/33 54/130/33
f 55/131/34 54/132/34 53/133/34
f 54/132/34 55/131/34 56/134/34
f 55/135/35 42/136/35 56/137/35
f 42/136/35 55/135/35 57/138/36
f 57/139/37 26/108/37 42/107/37
f 26/108/37 57/139/37 50/140/37
f 41/105/27 42/104/17 56/141/27
f 44/142/36 56/137/36 42/136/36
f 56/137/36 44/142/36 58/143/36
f 44/111/29 59/144/29 58/145/29
f 44/111/29 46/113/29 59/144/29
f 48/128/38 59/146/38 46/147/38
f 59/146/38 48/128/38 54/130/38
f 48/120/17 60/148/17 54/149/17
f 48/120/17 49/119/17 60/148/17
f 49/150/39 31/151/39 60/152/39
f 31/151/39 49/150/39 30/153/39
f 27/154/40 30/155/40 49/156/40
f 30/155/40 27/154/40 28/157/40
f 61/158/40 30/155/40 28/157/40
f 30/155/40 61/158/40 62/159/40
f 62/160/39 31/151/39 30/153/39
f 31/151/39 62/160/39 63/161/39
f 64/162/41 31/163/41 63/164/41
f 31/163/42 64/162/42 40/165/42
f 65/166/43 40/101/43 64/167/43
f 40/101/26 65/166/26 23/102/26
f 66/168/16 23/52/16 65/169/16
f 23/52/16 66/168/16 21/53/16
f 66/170/18 28/62/18 21/59/18
f 28/62/18 66/170/18 61/171/18
f 40/165/41 60/172/41 31/163/41
f 60/172/41 40/165/41 41/173/41
f 41/105/27 56/141/27 60/148/17
f 54/149/17 60/148/17 56/141/27
f 56/134/44 59/174/44 54/132/44
f 59/174/44 56/134/44 58/175/44
f 45/176/45 26/123/45 47/122/45
f 26/123/45 45/176/45 43/177/45
f 29/178/46 18/74/46 17/76/46
f 18/74/46 29/178/46 19/179/46
f 4/4/1 5/5/1 14/180/2
