# Blender v2.76 (sub 0) OBJ File: ''
# www.blender.org
mtllib naturePack_flat_005.mtl
o Mesh2_Flower_Tall_Yellow_Model
v -0.268370 0.107776 0.242963
v -0.447925 0.000000 0.242963
v -0.268370 0.000000 0.242963
v -0.485926 0.210877 0.242963
vt -10.565700 0.000000
vt -17.634800 0.000000
vt -10.565700 4.243150
vt -19.130899 8.302230
vn 0.000000 -0.000000 -1.000000
usemtl Green_leafs.052
s 1
f 3/1/1 2/2/1 1/3/1
f 4/4/1 1/3/1 2/2/1
o Mesh4_Flower_Tall_Yellow_Model
v -0.242963 0.000000 0.038001
v -0.242963 0.107776 0.217556
v -0.242963 0.210877 -0.000000
v -0.242963 0.000000 0.217556
vt 0.000000 8.302230
vt 8.565200 4.243150
vt 1.496090 0.000000
vt 8.565200 0.000000
vn 1.000000 -0.000000 0.000000
usemtl Green_leafs.052
s 1
f 7/5/2 6/6/2 5/7/2
f 8/8/2 5/7/2 6/6/2
o Mesh3_Flower_Tall_Yellow_Model
v -0.242963 0.000000 0.447925
v -0.242963 0.107776 0.268370
v -0.242963 0.000000 0.268370
v -0.242963 0.210877 0.485926
vt 10.565700 -0.000000
vt 10.565700 4.243150
vt 17.634800 -0.000000
vt 19.130899 8.302230
vn 1.000000 0.000000 0.000000
usemtl Green_leafs.052
s 1
f 11/9/3 10/10/3 9/11/3
f 12/12/3 9/11/3 10/10/3
o Mesh5_Flower_Tall_Yellow_Model
v 0.000000 0.210877 0.242963
v -0.217556 0.000000 0.242963
v -0.038001 0.000000 0.242963
v -0.217556 0.107776 0.242963
vt -1.496090 0.000000
vt -8.565200 0.000000
vt 0.000000 8.302230
vt -8.565200 4.243150
vn 0.000000 -0.000000 -1.000000
usemtl Green_leafs.052
s 1
f 15/13/4 14/14/4 13/15/4
f 16/16/4 13/15/4 14/14/4
o Mesh1_Flower_Tall_Yellow_Model
v -0.268370 0.000000 0.242963
v -0.268370 0.360000 0.217556
v -0.268370 0.000000 0.217556
v -0.268370 0.360000 0.268370
v -0.242963 0.000000 0.217556
v -0.217556 0.000000 0.217556
v -0.242963 0.000000 0.268370
v -0.217556 0.000000 0.242963
v -0.217556 0.000000 0.268370
v -0.217556 0.360000 0.268370
v -0.217556 0.360000 0.217556
v -0.321713 0.360000 0.164213
v -0.164213 0.360000 0.164213
v -0.321713 0.360000 0.321713
v -0.164213 0.360000 0.321713
v -0.131925 0.540000 0.354000
v -0.354000 0.540000 0.354000
v -0.354000 0.540000 0.131925
v -0.131925 0.540000 0.131925
v -0.268370 0.000000 0.268370
vt -12.665900 6.465070
vt -8.565200 8.565200
vt -10.565700 8.565200
vt -6.465070 6.465070
vt -8.565200 10.565700
vt -12.665900 12.665900
vt -10.565700 10.565700
vt -6.465070 12.665900
vt -5.193910 23.386499
vt -12.665900 16.186800
vt -6.465070 16.186800
vt -13.937000 23.386499
vt -13.937000 20.008801
vt -6.465070 12.809100
vt -5.193910 20.008801
vt -12.665900 12.809100
vt 13.937000 20.008801
vt 6.465070 12.809100
vt 12.665900 12.809100
vt 8.565200 0.000000
vt 8.565200 14.173200
vt 9.565470 0.000000
vt 10.565700 14.173200
vt 10.565700 0.000000
vt -9.565470 8.565200
vt -9.565470 10.565700
vt -8.565200 9.565470
vt -8.565200 0.000000
vt -10.565700 14.173200
vt -9.565470 0.000000
vt -8.565200 14.173200
vt 5.193910 5.193910
vt 5.193910 13.937000
vt 13.937000 5.193910
vt 5.193910 20.008801
vt 5.193910 23.386499
vt 13.937000 23.386499
vt 6.465070 16.186800
vt 13.937000 13.937000
vt 12.665900 16.186800
vt -10.565700 9.565470
vt -10.565700 0.000000
vn 0.000000 -1.000000 0.000000
vn 0.000000 -0.176600 0.984300
vn 0.984300 -0.176600 0.000000
vn 0.000000 -0.176600 -0.984300
vn 1.000000 0.000000 0.000000
vn 0.000000 -0.000000 -1.000000
vn 0.000000 1.000000 -0.000000
vn -1.000000 0.000000 0.000000
vn 0.000000 0.000000 1.000000
vn 0.000000 0.176600 0.984300
vn 0.984300 0.176600 0.000000
vn -0.923900 0.000000 0.382700
vn -0.923900 -0.000000 -0.382700
vn -0.923900 -0.270600 0.270600
usemtl Light_Wood.008
s 1
f 28/17/5 27/18/5 18/19/5
f 29/20/5 27/18/5 28/17/5
f 27/18/5 29/20/5 26/21/5
f 26/21/5 30/22/5 20/23/5
f 31/24/5 26/21/5 29/20/5
f 32/25/6 30/26/6 31/27/6
f 30/26/6 32/25/6 33/28/6
f 32/29/7 29/30/7 35/31/7
f 29/30/7 32/29/7 31/32/7
f 34/33/8 29/34/8 28/35/8
usemtl Green_leafs.052
f 19/36/9 18/37/9 17/38/9
f 18/39/10 21/38/10 19/40/10
f 21/41/5 23/42/5 19/19/5
f 22/18/5 23/42/5 21/41/5
f 24/43/5 23/42/5 22/18/5
f 25/21/11 24/43/11 23/42/11
f 22/44/9 26/45/9 24/46/9
f 27/47/12 22/44/12 26/45/12
f 22/36/13 18/39/13 21/38/13
f 27/37/13 18/39/13 22/36/13
f 30/22/11 18/19/11 28/17/11
f 30/22/11 31/24/11 26/21/11
f 35/48/5 32/49/5 34/50/5
f 35/51/14 34/33/14 29/34/14
f 34/52/15 33/53/15 28/54/15
f 33/55/5 34/50/5 32/49/5
f 30/56/15 28/54/15 33/53/15
f 18/19/11 30/22/11 20/23/11
f 20/39/9 17/38/9 18/37/9
f 20/39/12 17/38/12 36/40/12
f 19/19/16 36/23/17 17/57/18
f 19/19/5 23/42/5 36/23/5
f 25/44/10 23/46/10 26/47/10
f 36/58/10 26/47/10 23/46/10
f 20/45/10 26/47/10 36/58/10
f 25/58/12 26/45/12 24/46/12
