# Blender v2.76 (sub 0) OBJ File: ''
# www.blender.org
mtllib naturePack_082.mtl
o Mesh1_Trunk_Model
v -0.803690 0.000000 0.803690
v -0.701729 0.230000 0.101961
v -0.803690 0.000000 0.000000
v -0.701729 0.230000 0.701729
v -0.101961 0.230000 0.701729
v 0.000000 0.000000 0.803690
v 0.000000 0.000000 0.000000
v -0.101961 0.230000 0.101961
v -0.639848 0.830000 0.163841
v -0.163841 0.830000 0.163841
v -0.163841 0.830000 0.639848
v -0.639848 0.830000 0.639848
vt 25.190901 6.450450
vt 6.450450 25.190901
vt 6.450450 6.450450
vt 25.190901 25.190901
vt 31.641300 -12.823300
vt 4.014200 -2.918280
vt 0.000000 -12.823300
vt 27.627100 -2.918280
vt -31.641300 -12.823300
vt -4.014200 -2.918280
vt -27.627100 -2.918280
vt -31.641300 31.641300
vt 0.000000 0.000000
vt 0.000000 31.641300
vt -31.641300 0.000000
vt 27.627100 9.905000
vt 31.641300 -0.000000
vt 4.014200 9.905000
vt 25.190901 33.166500
vt 4.014200 9.419160
vt 27.627100 9.419160
vt 6.450450 33.166500
vt 6.450450 29.920401
vt 27.627100 6.173060
vt 25.190901 29.920401
vt 4.014200 6.173060
vt -27.627100 6.173060
vt -6.450450 29.920401
vt -25.190901 29.920401
vt -4.014200 6.173060
vt -27.627100 9.419160
vt -6.450450 33.166500
vt -25.190901 33.166500
vt -4.014200 9.419160
vt -4.014200 9.905000
vt -27.627100 9.905000
vn 0.000000 1.000000 -0.000000
vn -0.914200 0.405300 -0.000000
vn -0.966400 0.257100 -0.000000
vn 0.000000 0.405300 0.914200
vn 0.000000 0.257100 0.966400
vn 0.000000 -1.000000 0.000000
vn -0.000000 0.257100 -0.966400
vn 0.000000 0.405300 -0.914200
vn 0.000000 0.102600 -0.994700
vn -0.994700 0.102600 -0.000000
vn 0.000000 0.102600 0.994700
vn 0.966400 0.257100 0.000000
vn 0.994700 0.102600 -0.000000
vn 0.914200 0.405300 -0.000000
usemtl Light_Wood.003
s 1
f 9/1/1 11/2/1 10/3/1
f 11/2/1 9/1/1 12/4/1
usemtl Wood.053
f 1/5/2 2/6/3 3/7/2
f 2/6/3 1/5/2 4/8/3
f 1/9/4 5/10/5 4/11/5
f 5/10/5 1/9/4 6/7/4
f 1/12/6 7/13/6 6/14/6
f 7/13/6 1/12/6 3/15/6
f 2/16/7 7/13/8 3/17/8
f 7/13/8 2/16/7 8/18/7
f 9/19/9 8/20/7 2/21/7
f 8/20/7 9/19/9 10/22/9
f 9/23/10 4/24/3 12/25/10
f 4/24/3 9/23/10 2/26/3
f 4/27/5 11/28/11 12/29/11
f 11/28/11 4/27/5 5/30/5
f 5/31/12 10/32/13 11/33/13
f 10/32/13 5/31/12 8/34/12
f 6/15/14 8/35/12 5/36/12
f 8/35/12 6/15/14 7/13/14
