# Blender v2.76 (sub 0) OBJ File: ''
# www.blender.org
mtllib naturePack_023.mtl
o Mesh1_Group1_Model.016
v -0.239301 0.000000 1.025280
v -0.507280 0.210000 0.162059
v 0.000000 0.210000 0.917550
v -0.634979 0.000000 0.435998
v -0.438396 0.000000 1.474540
v -0.607664 0.000000 2.504880
v -0.438396 0.000000 2.136560
v -0.295607 0.000000 2.405170
v -0.255250 0.210000 2.342270
v -0.072187 0.210000 2.686640
v -0.072187 0.400000 2.686640
v -0.255250 0.400000 2.342270
v -0.255250 0.210000 1.493530
v -0.255250 0.400000 1.493530
v 0.000000 0.400000 0.917550
v -0.507280 0.400000 0.162059
v -1.686190 0.400000 -0.000000
v -1.686190 0.210000 -0.000000
v -1.554530 0.000000 0.309592
v -0.920803 0.000000 2.304040
v -0.873721 0.210000 2.556990
v -0.472260 0.210000 2.814470
v -0.472260 0.400000 2.814470
v -0.387006 0.720000 2.290020
v -0.663056 0.720000 2.378230
v -0.513319 0.720000 2.052410
v -0.513319 0.720000 1.466780
v -0.337197 0.720000 1.069350
v -0.687220 0.720000 0.548064
v -1.093950 0.720000 0.492153
v -1.593430 0.560000 0.218122
v -1.669470 0.720000 0.645819
v -1.838270 0.720000 0.855395
v -2.175460 0.400000 0.607467
v -2.175460 0.210000 0.607467
v -1.936160 0.000000 0.783416
v -1.810340 0.000000 1.258440
v -2.014160 0.210000 1.216470
v -2.014160 0.400000 1.216470
v -0.873721 0.400000 2.556990
v -0.940064 0.720000 2.200570
v -1.726970 0.720000 1.275610
vt -28.259899 -23.543900
vt 5.836250 -10.424800
vt -29.990499 -10.424800
vt -0.314969 -23.543900
vt -17.259701 58.052799
vt -24.999201 17.165300
vt -9.421290 40.365398
vt -23.923800 98.617302
vt -17.259701 84.116699
vt -11.638100 94.691704
vt -76.708199 -7.560300
vt -78.149002 -16.216801
vt -66.172600 -16.216801
vt -92.062599 -7.560300
vt -76.708199 8.267720
vt -92.062599 15.748000
vt -92.062599 8.267720
vt -76.708199 15.748000
vt -58.800201 8.267720
vt -92.215401 15.748000
vt -92.215401 8.267720
vt -58.800201 15.748000
vt -33.026199 8.267720
vt -57.829399 15.748000
vt -57.829399 8.267720
vt -33.026199 15.748000
vt 5.836250 8.267720
vt -29.990499 15.748000
vt -29.990499 8.267720
vt 5.836250 15.748000
vt 18.916700 8.267720
vt 65.767097 15.748000
vt 18.916700 15.748000
vt 65.767097 8.267720
vt 22.428600 -16.506701
vt 65.767097 -2.449200
vt 18.916700 -2.449200
vt 58.972000 -16.506701
vt -36.252102 90.710403
vt -61.202000 12.188700
vt 33.102299 63.888699
vt 25.392799 74.972298
vt 18.456200 63.888699
vt 44.169800 74.972298
vt -39.906799 73.491997
vt -51.436298 89.095299
vt -52.804401 73.491997
vt -34.900902 89.095299
vt -34.900902 15.748000
vt -51.436298 8.267720
vt -34.900902 8.267720
vt -51.436298 15.748000
vt -41.954700 -51.448601
vt -51.436298 -73.952103
vt -34.900902 -73.952103
vt -53.364101 -51.448601
vt 26.104601 93.630997
vt 15.236400 90.158401
vt 20.209400 80.803596
vt -72.457001 42.628899
vt -76.708199 29.522100
vt -61.862598 42.628899
vt -92.062599 29.522100
vt -58.800201 18.566900
vt -80.803596 34.751701
vt -92.215401 18.566900
vt -57.747101 34.751701
vt -57.829399 3.532660
vt -43.868900 19.442200
vt -60.983101 19.442200
vt -33.026199 3.532660
vt 5.836250 25.522800
vt -27.551800 44.620701
vt -29.990499 25.522800
vt -2.831370 44.620701
vt 65.767097 16.841200
vt 23.865400 37.221802
vt 18.916700 16.841200
vt 40.028702 37.221802
vt 60.979599 27.031500
vt 41.641499 -31.486300
vt 61.030300 -10.756900
vt 46.038700 -21.121599
vt 71.624802 -10.756900
vt 72.350197 -31.486300
vt 41.641499 15.748000
vt 72.350197 8.267720
vt 72.350197 15.748000
vt 41.641499 8.267720
vt 41.641499 46.978199
vt 71.835403 32.666100
vt 72.350197 46.978199
vt 47.882599 32.666100
vt -71.273399 49.544701
vt -76.226799 30.843201
vt 54.386200 54.656898
vt -8.447160 44.973598
vt 45.600101 44.973598
vt -14.905100 54.656898
vt 54.386200 8.267720
vt -14.905100 15.748000
vt -14.905100 8.267720
vt 54.386200 15.748000
vt 25.392799 8.267720
vt 44.169800 15.748000
vt 25.392799 15.748000
vt 44.169800 8.267720
vt 28.574699 -37.292702
vt 25.392799 -53.630299
vt 44.169800 -53.630299
vt 15.618500 -37.292702
vt 27.055901 21.577299
vt 37.010399 86.636497
vt 20.209400 57.747101
vt 13.275500 42.100498
vt 43.068699 19.376101
vt 67.990799 50.220699
vt 65.727097 25.426001
vt 70.061501 17.724400
vt 46.609402 17.724400
vt 62.825500 0.996676
vt 72.372704 33.676998
vt 14.024300 -27.919800
vt 25.992901 -44.214199
vt 31.138500 -27.919800
vt 1.189710 -44.214199
vt 1.189710 15.748000
vt 25.992901 8.267720
vt 25.992901 15.748000
vt 1.189710 8.267720
vt 10.298100 54.137100
vt 25.992901 65.188698
vt 1.189710 65.188698
vt 29.644600 54.137100
vt 54.386200 -31.187201
vt -5.805260 -16.724300
vt -14.905100 -31.187201
vt 42.005798 -16.724300
vt -57.829399 15.723400
vt -40.721001 4.957880
vt -33.026199 15.723400
vt -60.067501 4.957880
vt -58.800201 -0.374140
vt -84.116699 -11.344400
vt -58.052799 -11.344400
vt -92.215401 -0.374140
vn 0.523200 -0.776400 -0.351300
vn 0.000000 -1.000000 0.000000
vn 0.843300 -0.296300 -0.448300
vn 0.883000 0.000000 -0.469400
vn 1.000000 -0.000000 0.000000
vn 0.914200 0.000000 0.405200
vn 0.830200 -0.000000 -0.557500
vn 0.136200 -0.000000 -0.990700
vn 0.080100 -0.808800 -0.582700
vn -0.402700 -0.666000 0.627900
vn 0.161300 -0.848100 0.504700
vn 0.304400 0.000000 0.952600
vn 0.170400 0.828600 0.533300
vn 0.000000 1.000000 -0.000000
vn 0.848700 0.275800 -0.451200
vn 0.778400 0.627800 -0.000000
vn 0.724000 0.610700 0.320800
vn 0.547700 0.751500 -0.367700
vn 0.547700 0.751600 -0.367700
vn 0.084200 0.786100 -0.612400
vn -0.473300 0.794100 -0.381200
vn -0.778800 0.000000 -0.627300
vn -0.449900 -0.816300 -0.362400
vn -0.650300 -0.520600 0.553200
vn -0.761700 0.000000 0.648000
vn -0.539900 0.000000 0.841800
vn -0.416300 0.636700 0.649100
vn -0.097100 0.926400 -0.363800
vn -0.747400 0.634200 0.198000
vn -0.966700 -0.000000 0.256000
vn -0.723200 -0.663600 0.191500
vn -0.663500 0.491100 0.564400
vn 0.702100 -0.640500 0.311200
vn 0.753600 -0.657300 0.000000
usemtl Stone.002
s 1
f 1/1/1 2/2/1 3/3/1
f 2/2/1 1/1/1 4/4/1
f 5/5/2 4/6/2 1/7/2
f 4/6/2 5/5/2 6/8/2
f 7/9/2 6/8/2 5/5/2
f 6/8/2 7/9/2 8/10/2
f 9/11/3 8/12/3 7/13/3
f 8/12/3 9/11/3 10/14/3
f 9/15/4 11/16/4 10/17/4
f 11/16/4 9/15/4 12/18/4
f 13/19/5 12/20/5 9/21/5
f 12/20/5 13/19/5 14/22/5
f 3/23/6 14/24/6 13/25/6
f 14/24/6 3/23/6 15/26/6
f 2/27/7 15/28/7 3/29/7
f 15/28/7 2/27/7 16/30/7
f 2/31/8 17/32/8 16/33/8
f 17/32/8 2/31/8 18/34/8
f 4/35/9 18/36/9 2/37/9
f 18/36/9 4/35/9 19/38/9
f 4/6/2 20/39/2 19/40/2
f 4/6/2 6/8/2 20/39/2
f 6/41/10 21/42/10 20/43/10
f 21/42/10 6/41/10 22/44/10
f 8/45/11 22/46/11 6/47/11
f 22/46/11 8/45/11 10/48/11
f 11/49/12 22/50/12 10/51/12
f 22/50/12 11/49/12 23/52/12
f 24/53/13 23/54/13 11/55/13
f 23/54/13 24/53/13 25/56/13
f 25/57/14 24/58/14 26/59/14
f 24/60/15 12/61/15 26/62/15
f 12/61/15 24/60/15 11/63/15
f 14/64/16 26/65/16 12/66/16
f 26/65/16 14/64/16 27/67/16
f 14/68/17 28/69/17 27/70/17
f 28/69/17 14/68/17 15/71/17
f 16/72/18 28/73/18 15/74/18
f 28/73/18 16/72/18 29/75/19
f 17/76/20 29/77/20 16/78/20
f 29/77/20 17/76/20 30/79/20
f 30/79/20 17/76/20 31/80/20
f 17/81/21 32/82/21 31/83/21
f 32/82/21 17/81/21 33/84/21
f 33/84/21 17/81/21 34/85/21
f 17/86/22 35/87/22 34/88/22
f 35/87/22 17/86/22 18/89/22
f 18/90/23 36/91/23 35/92/23
f 36/91/23 18/90/23 19/93/23
f 19/40/2 37/94/2 36/95/2
f 19/40/2 20/39/2 37/94/2
f 21/96/24 37/97/24 20/98/24
f 37/97/24 21/96/24 38/99/24
f 21/100/25 39/101/25 38/102/25
f 39/101/25 21/100/25 40/103/25
f 21/104/26 23/105/26 40/106/26
f 23/105/26 21/104/26 22/107/26
f 25/108/27 40/109/27 23/110/27
f 40/109/27 25/108/27 41/111/27
f 25/57/14 29/112/14 41/113/14
f 26/59/14 29/112/14 25/57/14
f 27/114/14 29/112/14 26/59/14
f 29/112/14 27/114/14 28/115/14
f 41/113/14 29/112/14 30/116/14
f 41/113/14 30/116/14 42/117/14
f 42/117/14 30/116/14 32/118/14
f 32/119/28 30/120/28 31/121/28
f 42/117/14 32/118/14 33/122/14
f 33/123/29 39/124/29 42/125/29
f 39/124/29 33/123/29 34/126/29
f 34/127/30 38/128/30 39/129/30
f 38/128/30 34/127/30 35/130/30
f 36/131/31 38/132/31 35/133/31
f 38/132/31 36/131/31 37/134/31
f 40/135/32 42/136/32 39/137/32
f 42/136/32 40/135/32 41/138/32
f 13/139/33 1/140/33 3/141/33
f 1/140/33 13/139/33 5/142/33
f 13/143/34 7/144/34 5/145/34
f 7/144/34 13/143/34 9/146/34
