# Blender v2.76 (sub 0) OBJ File: ''
# www.blender.org
mtllib naturePack_123.mtl
o Mesh1_Brown_Cliff_Bottom_Corner_Model
v -1.140000 0.000000 0.000000
v 0.000000 0.000000 -0.000000
v -1.140000 0.000000 1.140000
v -1.140000 2.200000 -0.000000
v -0.360000 2.200000 -0.000000
v -1.140000 2.200000 0.780000
vt -44.881901 -0.000000
vt 0.000000 -0.000000
vt -44.881901 44.881901
vt 44.881901 86.614197
vt 44.881901 0.000000
vt 14.173200 86.614197
vt 44.881901 30.708700
vt 14.173200 0.000000
vt -0.000000 86.614197
vt 30.708700 86.614197
vt -53.450600 87.192101
vt -63.472599 -0.000000
vt -10.022000 87.192101
vn 0.000000 -1.000000 0.000000
vn 0.000000 -0.000000 -1.000000
vn 0.000000 1.000000 -0.000000
vn -1.000000 -0.000000 0.000000
vn 0.702400 0.114900 0.702400
usemtl Wood.074
s 1
f 1/1/1 2/2/1 3/3/1
f 4/4/2 2/2/2 1/5/2
f 2/2/2 4/4/2 5/6/2
f 4/5/3 6/7/3 5/8/3
f 4/9/4 3/5/4 6/10/4
f 3/5/4 4/9/4 1/2/4
f 2/2/5 6/11/5 3/12/5
f 6/11/5 2/2/5 5/13/5
