# Blender v2.76 (sub 0) OBJ File: ''
# www.blender.org
mtllib naturePack_014.mtl
o Mesh1_Group1_Model.007
v -0.496579 0.770000 0.277856
v -0.240630 0.770000 0.721172
v -0.240630 0.770000 0.425628
v -0.496579 0.770000 0.868944
v -0.752528 0.770000 0.425628
v -0.930390 0.570000 0.322939
v -0.496579 0.570000 0.072478
v -0.062768 0.570000 0.322939
v -0.062768 0.570000 0.823861
v -0.496579 0.570000 1.074320
v -0.930390 0.570000 0.823861
v -0.752528 0.770000 0.721172
v -0.993158 0.180000 0.860100
v -0.993158 0.180000 0.286700
v -0.496579 0.180000 -0.000000
v 0.000000 0.180000 0.286700
v 0.000000 0.180000 0.860100
v -0.496579 0.180000 1.146800
v -0.903611 0.000000 0.808400
v -0.496579 0.000000 1.043400
v -0.496579 0.000000 0.103400
v -0.089547 0.000000 0.338400
v -0.089547 0.000000 0.808400
v -0.903611 0.000000 0.338400
vt 19.550400 10.939200
vt 9.473630 28.392599
vt 9.473630 16.757000
vt 19.550400 34.210400
vt 29.627100 16.757000
vt 29.627100 28.392599
vt 22.400700 22.452499
vt 38.079201 11.915200
vt 34.036301 22.452499
vt 18.357800 11.915200
vt -0.174097 35.444500
vt 15.504400 24.907200
vt 11.461500 35.444500
vt -4.216970 24.907200
vt -16.757000 28.948500
vt -32.435501 18.411200
vt -12.714100 18.411200
vt -28.392599 28.948500
vt -22.400700 9.460510
vt -38.079201 -1.076790
vt -18.357800 -1.076790
vt -34.036301 9.460510
vt 0.174097 -3.531500
vt -15.504400 -14.068800
vt 4.216970 -14.068800
vt -11.461500 -3.531500
vt 16.757000 2.964500
vt 32.435501 -7.572800
vt 28.392599 2.964500
vt 12.714100 -7.572800
vt 12.714100 16.335501
vt 33.862202 0.783565
vt 32.435501 16.335501
vt 11.287400 0.783565
vt 38.079201 20.995199
vt 16.931101 5.443330
vt 39.505901 5.443330
vt 18.357800 20.995199
vt 15.504400 24.101700
vt -5.643700 8.549830
vt 16.931101 8.549830
vt -4.216970 24.101700
vt -12.714100 22.548500
vt -33.862202 6.996580
vt -11.287400 6.996580
vt -32.435501 22.548500
vt -18.357800 17.888700
vt -39.505901 2.336820
vt -16.931101 2.336820
vt -38.079201 17.888700
vt 4.216970 14.782200
vt -16.931101 -0.769689
vt 5.643700 -0.769689
vt -15.504400 14.782200
vt -14.895700 20.199499
vt 5.643700 28.114700
vt -16.931101 28.114700
vt 3.608270 20.199499
vt -19.550400 4.070870
vt -19.550400 41.078701
vt -35.575199 31.826799
vt -3.525470 13.322800
vt -3.525470 31.826799
vt -13.322800 -1.570280
vt -33.862202 6.344830
vt -31.826799 -1.570280
vt -11.287400 6.344830
vt -3.608270 -5.924250
vt 16.931101 1.990870
vt -5.643700 1.990870
vt 14.895700 -5.924250
vt 18.966499 2.783680
vt 39.505901 10.698800
vt 16.931101 10.698800
vt 37.470501 2.783680
vt -35.575199 13.322800
vt 33.862202 23.760700
vt 13.322800 15.845600
vt 31.826799 15.845600
vt 11.287400 23.760700
vt -16.931101 19.406700
vt -37.470501 11.491600
vt -18.966499 11.491600
vt -39.505901 19.406700
vn -0.000000 1.000000 -0.000000
vn -0.373600 0.664500 -0.647100
vn 0.373600 0.664500 -0.647100
vn 0.747300 0.664500 0.000000
vn 0.373600 0.664500 0.647100
vn -0.373600 0.664500 0.647100
vn -0.747300 0.664500 0.000000
vn -0.987300 0.158900 -0.000000
vn -0.493600 0.158900 -0.855000
vn 0.493600 0.158900 -0.855000
vn 0.987300 0.158900 -0.000000
vn 0.493600 0.158900 0.855000
vn -0.493600 0.158900 0.855000
vn -0.447700 -0.445400 0.775400
vn 0.000000 -1.000000 0.000000
vn 0.895300 -0.445400 0.000000
vn 0.447700 -0.445400 -0.775400
vn -0.447700 -0.445400 -0.775400
vn -0.895300 -0.445400 0.000000
vn 0.447700 -0.445400 0.775400
usemtl Green_leafs.007
s 1
f 1/1/1 2/2/1 3/3/1
f 2/2/1 1/1/1 4/4/1
f 4/4/1 1/1/1 5/5/1
f 4/4/1 5/5/1 12/6/1
usemtl Wood.011
f 1/7/2 6/8/2 5/9/2
f 6/8/2 1/7/2 7/10/2
f 3/11/3 7/12/3 1/13/3
f 7/12/3 3/11/3 8/14/3
f 3/15/4 9/16/4 8/17/4
f 9/16/4 3/15/4 2/18/4
f 2/19/5 10/20/5 9/21/5
f 10/20/5 2/19/5 4/22/5
f 4/23/6 11/24/6 10/25/6
f 11/24/6 4/23/6 12/26/6
f 5/27/7 11/28/7 12/29/7
f 11/28/7 5/27/7 6/30/7
f 6/31/8 13/32/8 11/33/8
f 13/32/8 6/31/8 14/34/8
f 6/35/9 15/36/9 14/37/9
f 15/36/9 6/35/9 7/38/9
f 7/39/10 16/40/10 15/41/10
f 16/40/10 7/39/10 8/42/10
f 8/43/11 17/44/11 16/45/11
f 17/44/11 8/43/11 9/46/11
f 9/47/12 18/48/12 17/49/12
f 18/48/12 9/47/12 10/50/12
f 10/51/13 13/52/13 18/53/13
f 13/52/13 10/51/13 11/54/13
f 19/55/14 18/56/14 13/57/14
f 18/56/14 19/55/14 20/58/14
f 21/59/15 20/60/15 19/61/15
f 22/62/15 20/60/15 21/59/15
f 20/60/15 22/62/15 23/63/15
f 22/64/16 17/65/16 23/66/16
f 17/65/16 22/64/16 16/67/16
f 22/68/17 15/69/17 16/70/17
f 15/69/17 22/68/17 21/71/17
f 21/72/18 14/73/18 15/74/18
f 14/73/18 21/72/18 24/75/18
f 21/59/15 19/61/15 24/76/15
f 13/77/19 24/78/19 19/79/19
f 24/78/19 13/77/19 14/80/19
f 17/81/20 20/82/20 23/83/20
f 20/82/20 17/81/20 18/84/20
