# Blender v2.76 (sub 0) OBJ File: ''
# www.blender.org
mtllib naturePack_074.mtl
o Mesh1_Oak_Dark_Model.002
v -0.788083 2.817000 1.820000
v -1.576170 1.533500 1.365000
v -0.788083 1.533500 1.820000
v -1.576170 2.817000 1.365000
v -0.788083 4.508500 1.437799
v -1.245170 4.508500 1.173899
v -0.788083 4.933500 0.909999
v -0.330995 4.508500 1.173899
v -0.000000 2.817000 1.365000
v -0.000000 1.533500 1.365000
v -0.346757 1.270000 1.164800
v -0.788083 1.270000 1.419600
v -1.229410 1.270000 1.164800
v -1.229410 1.270000 0.655200
v -1.576170 1.533500 0.455000
v -1.576170 2.817000 0.455000
v -1.245170 4.508500 0.646099
v -0.788083 4.508500 0.382199
v -0.330995 4.508500 0.646099
v 0.000000 2.817000 0.455000
v 0.000000 1.533500 0.455000
v -0.346757 1.270000 0.655200
v -0.673827 1.270000 1.024260
v -0.902339 1.270000 1.024260
v -0.902339 1.270000 0.795744
v -0.788083 1.270000 0.400400
v -0.673827 1.270000 0.795744
v -0.608153 0.000000 1.089930
v -0.608153 0.000000 0.730070
v -0.968014 0.000000 1.089930
v -0.968014 0.000000 0.730070
v -0.788083 1.533500 -0.000000
v -0.788083 2.817000 -0.000000
vt 8.956690 110.905998
vt -26.870100 60.374001
vt 8.956690 60.374001
vt -26.870100 110.905998
vt 1.433070 161.802994
vt -26.870100 93.945297
vt 8.956690 93.945297
vt -19.346500 161.802994
vt -19.346500 73.603104
vt 1.433070 73.603104
vt -8.956690 98.175697
vt -55.173199 96.325500
vt -34.393700 96.325500
vt -44.783501 120.898003
vt -62.696899 99.903702
vt -34.393700 167.761002
vt -55.173199 167.761002
vt -26.870100 99.903702
vt -62.696899 60.374001
vt -62.696899 110.905998
vt -62.696899 73.583702
vt -34.751999 56.437500
vt -26.870100 73.583702
vt -54.814999 56.437500
vt 8.956690 98.287300
vt -18.988199 81.141098
vt 1.074800 81.141098
vt -26.870100 98.287300
vt 53.740200 85.935501
vt 25.795300 68.789299
vt 45.858299 68.789299
vt 17.913401 85.935501
vt 53.740200 60.374001
vt 17.913401 110.905998
vt 17.913401 60.374001
vt 53.740200 110.905998
vt 53.740200 96.924500
vt 25.437000 164.781998
vt 17.913401 96.924500
vt 46.216499 164.781998
vt 46.216499 84.964302
vt 35.826801 109.537003
vt 25.437000 84.964302
vt 55.173199 119.047997
vt 44.783501 143.619995
vt 34.393700 119.047997
vt 19.346500 141.770004
vt 8.956690 166.343002
vt -1.433070 141.770004
vt -35.826801 154.981995
vt -46.216499 130.408997
vt -25.437000 130.408997
vt -53.740200 108.841003
vt -25.437000 176.699005
vt -46.216499 176.699005
vt -17.913401 108.841003
vt -53.740200 110.905998
vt -17.913401 60.374001
vt -17.913401 110.905998
vt -53.740200 60.374001
vt -53.740200 36.528198
vt -25.795300 19.382000
vt -17.913401 36.528198
vt -45.858299 19.382000
vt -31.026899 55.889801
vt -13.651800 25.795300
vt -13.651800 45.858299
vt -26.528601 40.325001
vt -35.525200 40.325001
vt -48.402000 45.858299
vt -35.525200 31.328501
vt -48.402000 25.795300
vt -31.026899 15.763800
vt -26.528601 31.328501
vt 26.870100 24.176399
vt -1.074800 7.030190
vt 18.988199 7.030190
vt -8.956690 24.176399
vt 26.870100 110.905998
vt -8.956690 60.374001
vt 26.870100 60.374001
vt -8.956690 110.905998
vt 19.346500 179.677994
vt -8.956690 111.820000
vt 26.870100 111.820000
vt -1.433070 179.677994
vt 26.870100 105.862000
vt 55.173199 173.720001
vt 34.393700 173.720001
vt 62.696899 105.862000
vt 62.696899 110.905998
vt 62.696899 60.374001
vt 26.870100 48.880100
vt 54.814999 31.733801
vt 62.696899 48.880100
vt 34.751999 31.733801
vt -42.910599 1.236500
vt -31.328501 51.303299
vt -40.325001 51.303299
vt -28.742901 1.236500
vt -38.110802 42.910599
vt -23.943001 28.742901
vt -23.943001 42.910599
vt -38.110802 28.742901
vt 42.910599 -1.968170
vt 31.328501 48.098598
vt 28.742901 -1.968170
vt 40.325001 48.098598
vt -38.110802 -2.216050
vt -26.528601 47.850800
vt -35.525200 47.850800
vt -23.943001 -2.216050
vt 35.525200 51.551201
vt 23.943001 1.484380
vt 38.110802 1.484380
vt 26.528601 51.551201
vn -0.497700 0.096400 0.862000
vn -0.500000 0.000000 0.866000
vn -0.490700 0.192000 0.849900
vn -0.340500 0.732300 0.589700
vn 0.340500 0.732300 0.589700
vn 0.497700 0.096400 0.862000
vn 0.490700 0.192000 0.849900
vn 0.500000 0.000000 0.866000
vn 0.302500 -0.796200 0.524000
vn -0.302500 -0.796200 0.524000
vn -0.605000 -0.796200 0.000000
vn -1.000000 -0.000000 0.000000
vn -0.995300 0.096400 -0.000000
vn -0.981400 0.192000 -0.000000
vn -0.680900 0.732300 0.000000
vn -0.340500 0.732300 -0.589700
vn 0.340500 0.732300 -0.589700
vn 0.680900 0.732300 0.000000
vn 0.995300 0.096400 -0.000000
vn 0.981400 0.192000 -0.000000
vn 0.995300 0.096500 -0.000000
vn 1.000000 0.000000 0.000000
vn 0.605000 -0.796200 0.000000
vn 0.000000 -1.000000 0.000000
vn 0.302500 -0.796200 -0.524000
vn 0.497700 0.096400 -0.862000
vn 0.500000 -0.000000 -0.866000
vn 0.490700 0.192000 -0.849900
vn -0.497700 0.096400 -0.862000
vn -0.490700 0.192000 -0.849900
vn -0.497700 0.096500 -0.862000
vn -0.500000 -0.000000 -0.866000
vn -0.302500 -0.796200 -0.524000
vn 0.998700 0.051600 0.000000
vn -0.998700 0.051600 0.000000
vn 0.000000 0.051600 0.998700
vn 0.000000 0.051600 -0.998700
usemtl Leafs.018
s 1
f 1/1/1 2/2/2 3/3/2
f 2/2/2 1/1/1 4/4/1
f 5/5/3 4/6/1 1/7/1
f 4/6/1 5/5/3 6/8/3
f 6/9/4 5/10/4 7/11/4
f 5/12/5 8/13/5 7/14/5
f 1/15/6 8/16/7 5/17/7
f 8/16/7 1/15/6 9/18/6
f 3/19/8 9/4/6 1/20/6
f 9/4/6 3/19/8 10/2/8
f 3/21/9 11/22/9 10/23/9
f 11/22/9 3/21/9 12/24/9
f 3/25/10 13/26/10 12/27/10
f 13/26/10 3/25/10 2/28/10
f 2/29/11 14/30/11 13/31/11
f 14/30/11 2/29/11 15/32/11
f 2/33/12 16/34/13 15/35/12
f 16/34/13 2/33/12 4/36/13
f 4/37/13 17/38/14 16/39/13
f 17/38/14 4/37/13 6/40/14
f 6/41/15 7/42/15 17/43/15
f 17/44/16 7/45/16 18/46/16
f 18/47/17 7/48/17 19/49/17
f 7/50/18 8/51/18 19/52/18
f 9/53/19 19/54/20 8/55/20
f 19/54/20 9/53/19 20/56/21
f 9/57/19 21/58/22 20/59/21
f 21/58/22 9/57/19 10/60/22
f 10/61/23 22/62/23 21/63/23
f 22/62/23 10/61/23 11/64/23
f 12/65/24 22/66/24 11/67/24
f 22/66/24 12/65/24 23/68/24
f 23/68/24 12/65/24 24/69/24
f 24/69/24 12/65/24 13/70/24
f 24/69/24 13/70/24 25/71/24
f 14/72/24 25/71/24 13/70/24
f 26/73/24 25/71/24 14/72/24
f 26/73/24 27/74/24 25/71/24
f 22/66/24 27/74/24 26/73/24
f 27/74/24 22/66/24 23/68/24
f 32/75/25 22/76/25 26/77/25
f 22/76/25 32/75/25 21/78/25
f 33/79/26 21/80/27 32/81/27
f 21/80/27 33/79/26 20/82/26
f 18/83/28 20/84/26 33/85/26
f 20/84/26 18/83/28 19/86/28
f 33/87/29 17/88/30 18/89/30
f 17/88/30 33/87/29 16/90/31
f 32/81/32 16/91/31 33/79/29
f 16/91/31 32/81/32 15/92/32
f 32/93/33 14/94/33 15/95/33
f 14/94/33 32/93/33 26/96/33
usemtl Wood.047
f 28/97/34 27/98/34 23/99/34
f 27/98/34 28/97/34 29/100/34
f 30/101/24 29/102/24 28/103/24
f 29/102/24 30/101/24 31/104/24
f 30/105/35 25/106/35 31/107/35
f 25/106/35 30/105/35 24/108/35
f 30/109/36 23/110/36 24/111/36
f 23/110/36 30/109/36 28/112/36
f 25/113/37 29/114/37 31/115/37
f 29/114/37 25/113/37 27/116/37
