# Blender v2.76 (sub 0) OBJ File: ''
# www.blender.org
mtllib naturePack_172.mtl
o Mesh1_Group1_Model.085
v -1.697390 0.480000 2.322790
v -2.415960 0.260000 2.549530
v -1.697390 0.260000 2.322790
v -2.415960 0.480000 2.549530
v -1.657950 0.810000 2.092220
v -2.218430 0.810000 2.269080
v -2.117360 0.810000 0.563999
v -1.291060 0.810000 0.280449
v -0.646199 0.810000 0.852311
v -0.595113 0.810000 1.921880
v -0.464547 0.810000 1.525530
v -0.334784 0.480000 2.104400
v -0.166991 0.645000 1.108660
v 0.000000 0.480000 1.088120
v 0.000000 0.260000 1.088120
v -0.334784 0.260000 2.104400
v -1.661530 0.000000 2.113180
v -0.571446 0.000000 1.938480
v -1.285240 0.000000 0.254953
v -0.303619 0.000000 1.125450
v -1.227020 0.260000 -0.000000
v -1.227020 0.480000 -0.000000
v -2.286390 0.480000 0.363526
v -2.286390 0.260000 0.363526
v -2.132730 0.000000 0.545774
v -2.236390 0.000000 2.294580
v -2.732570 0.000000 1.740200
v -3.036190 0.260000 1.856560
v -3.036190 0.480000 1.856560
v -2.702210 0.810000 1.728570
v -2.337870 0.810000 1.156070
v -2.569090 0.480000 1.122590
v -2.569090 0.260000 1.122590
v -2.358890 0.000000 1.153030
vt -91.247902 18.897600
vt -120.913002 10.236200
vt -91.247902 10.236200
vt -120.913002 18.897600
vt -87.035301 -4.435670
vt -120.913002 -19.793400
vt -91.247902 -19.793400
vt -110.174004 -4.435670
vt 65.273598 82.371002
vt 83.360703 22.204700
vt 87.339798 89.334000
vt 50.829102 11.041300
vt 25.440901 33.555599
vt 23.429600 75.664703
vt 18.289301 60.060398
vt -82.814697 4.803840
vt -62.767300 22.478300
vt -79.196404 22.478300
vt -43.513401 13.641000
vt -40.688702 4.803840
vt -82.814697 18.897600
vt -40.688702 10.236200
vt -40.688702 18.897600
vt -82.814697 10.236200
vt -26.125601 18.897600
vt -80.456299 10.236200
vt -26.125601 10.236200
vt -80.456299 18.897600
vt -35.108501 -13.079500
vt -80.456299 -28.725100
vt -26.125601 -28.725100
vt -77.486397 -13.079500
vt -77.756401 43.951302
vt -26.125601 56.896599
vt -80.456299 56.896599
vt -34.291801 43.951302
vt -50.599899 10.037500
vt -22.497900 76.317902
vt -65.414703 83.196297
vt -11.953500 44.309200
vt 36.143299 -13.528400
vt -20.455299 -27.178801
vt 31.198299 -27.178801
vt -28.423700 -13.528400
vt 36.143299 10.236200
vt -28.423700 18.897600
vt -28.423700 10.236200
vt 36.143299 18.897600
vt 45.692600 10.236200
vt 89.787003 18.897600
vt 45.692600 18.897600
vt 89.787003 10.236200
vt 51.118301 4.502590
vt 89.787003 17.969101
vt 45.692600 17.969101
vt 86.393898 4.502590
vt -83.965599 21.487200
vt -88.046799 90.337799
vt -91.247902 47.745602
vt -111.150002 35.088402
vt -87.418297 35.088402
vt -120.913002 47.745602
vt 11.357800 111.366997
vt -20.697800 95.622902
vt 8.593530 95.622902
vt -25.256300 111.366997
vt 11.357800 10.236200
vt -25.256300 18.897600
vt -25.256300 10.236200
vt 11.357800 18.897600
vt 11.357800 -84.790901
vt -20.242001 -66.299301
vt -25.256300 -84.790901
vt 8.317100 -66.299301
vt 92.042099 45.514500
vt 106.386002 68.053802
vt 49.902500 -13.819800
vt 76.718498 -29.619400
vt 74.776497 -13.819800
vt 44.828701 -29.619400
vt 86.054604 22.019800
vt 45.692600 5.850710
vt 89.787003 5.850710
vt 51.660900 22.019800
vt -3.229320 50.834999
vt 36.143299 34.480400
vt 30.703699 50.834999
vt -24.041100 42.657700
vt -28.423700 34.480400
vt -25.769400 43.009102
vt -53.222099 43.009102
vt -40.428101 26.123699
vt 44.828701 18.897600
vt 76.718498 10.236200
vt 76.718498 18.897600
vt 44.828701 10.236200
vt 49.441299 44.417900
vt 76.718498 57.516800
vt 44.828701 57.516800
vt 74.953102 44.417900
vt -92.869698 45.394699
vt -107.582001 68.511902
vt 125.843002 45.008202
vt 88.159103 32.244202
vt 115.560997 32.244202
vt 91.591301 45.008202
vt 125.843002 10.236200
vt 91.591301 18.897600
vt 91.591301 10.236200
vt 125.843002 18.897600
vt 125.843002 -17.534201
vt 87.815804 -2.069910
vt 91.591301 -17.534201
vt 114.531998 -2.069910
vt -82.814697 16.777500
vt -45.824501 1.829300
vt -40.688702 16.777500
vt -79.525299 1.829300
vn 0.300900 0.000000 0.953700
vn 0.300900 0.000000 0.953600
vn 0.254600 0.533200 0.806700
vn 0.254600 0.533200 0.806800
vn -0.000000 1.000000 -0.000000
vn 0.698200 0.678000 0.230000
vn 0.949800 0.000000 0.312900
vn 0.158300 0.000000 0.987400
vn 0.131400 0.557200 0.819900
vn 0.125100 -0.612200 0.780800
vn 0.000000 -1.000000 0.000000
vn 0.497500 -0.661600 -0.561100
vn 0.663500 0.000000 -0.748200
vn -0.324600 -0.000000 -0.945900
vn -0.246700 -0.649800 -0.719000
vn 0.243400 -0.588200 0.771200
vn -0.484500 -0.759800 0.433600
vn -0.745100 0.000000 0.666900
vn -0.523500 0.711600 0.468600
vn -0.770600 0.569100 -0.287000
vn -0.770600 0.569000 -0.287000
vn -0.260800 0.595300 -0.760000
vn 0.527100 0.607400 -0.594400
vn 0.527100 0.607400 -0.594300
vn 0.371400 0.923000 -0.100200
vn -0.937100 -0.000000 -0.349000
vn -0.732300 -0.624000 -0.272700
vn -0.676600 -0.597400 -0.430600
vn -0.843600 -0.000000 -0.536900
vn -0.708800 0.542400 -0.451100
vn 0.650400 -0.728700 0.214300
vn 0.650400 -0.728800 0.214300
usemtl Stone.052
s 1
f 1/1/1 2/2/1 3/3/2
f 2/2/1 1/1/1 4/4/1
f 5/5/3 4/6/4 1/7/3
f 4/6/4 5/5/3 6/8/4
f 5/9/5 7/10/5 6/11/5
f 5/9/5 8/12/5 7/10/5
f 5/9/5 9/13/5 8/12/5
f 10/14/5 9/13/5 5/9/5
f 9/13/5 10/14/5 11/15/5
f 12/16/6 11/17/6 10/18/6
f 12/16/6 13/19/6 11/17/6
f 13/19/6 12/16/6 14/20/6
f 12/21/7 15/22/7 14/23/7
f 15/22/7 12/21/7 16/24/7
f 12/25/8 3/26/8 16/27/8
f 3/26/8 12/25/8 1/28/8
f 10/29/9 1/30/9 12/31/9
f 1/30/9 10/29/9 5/32/9
f 17/33/10 16/34/10 3/35/10
f 16/34/10 17/33/10 18/36/10
f 19/37/11 18/38/11 17/39/11
f 18/38/11 19/37/11 20/40/11
f 21/41/12 20/42/12 19/43/12
f 20/42/12 21/41/12 15/44/12
f 21/45/13 14/46/13 15/47/13
f 14/46/13 21/45/13 22/48/13
f 21/49/14 23/50/14 22/51/14
f 23/50/14 21/49/14 24/52/14
f 19/53/15 24/54/15 21/55/15
f 24/54/15 19/53/15 25/56/15
f 19/37/11 17/39/11 25/57/11
f 25/57/11 17/39/11 26/58/11
f 3/59/16 26/60/16 17/61/16
f 26/60/16 3/59/16 2/62/16
f 2/63/17 27/64/17 26/65/17
f 27/64/17 2/63/17 28/66/17
f 2/67/18 29/68/18 28/69/18
f 29/68/18 2/67/18 4/70/18
f 4/71/19 30/72/19 29/73/19
f 30/72/19 4/71/19 6/74/19
f 6/11/5 31/75/5 30/76/5
f 6/11/5 7/10/5 31/75/5
f 7/77/20 32/78/20 31/79/21
f 32/78/20 7/77/20 23/80/20
f 7/81/22 22/82/22 23/83/22
f 22/82/22 7/81/22 8/84/22
f 9/85/23 22/86/23 8/87/23
f 13/88/23 22/86/23 9/85/23
f 22/86/23 13/88/23 14/89/24
f 9/90/25 11/91/25 13/92/25
f 23/93/26 33/94/26 32/95/26
f 33/94/26 23/93/26 24/96/26
f 25/97/27 33/98/27 24/99/27
f 33/98/27 25/97/27 34/100/27
f 25/57/11 26/58/11 34/101/11
f 34/101/11 26/58/11 27/102/11
f 28/103/28 34/104/28 27/105/28
f 34/104/28 28/103/28 33/106/28
f 28/107/29 32/108/29 33/109/29
f 32/108/29 28/107/29 29/110/29
f 29/111/30 31/112/30 32/113/30
f 31/112/30 29/111/30 30/114/30
f 16/115/31 20/116/31 15/117/32
f 20/116/31 16/115/31 18/118/31
