# Blender v2.76 (sub 0) OBJ File: ''
# www.blender.org
mtllib naturePack_007.mtl
o Mesh1_Group1_Model
v -2.884380 0.292500 1.798380
v -2.545730 0.000000 1.446610
v -2.545730 0.000000 1.948960
v -3.036190 0.585000 1.856560
v -2.358890 0.000000 1.153030
v -2.569090 0.585000 1.122590
v -2.165720 1.327500 1.181000
v -2.309630 1.327500 1.407130
v -2.744870 0.956250 1.744910
v -2.415960 0.585000 2.549530
v -2.274780 1.327500 1.833000
v -2.071360 1.327500 2.060280
v -1.628580 1.327500 1.920560
v -1.697390 0.585000 2.322790
v -2.236390 0.000000 2.294580
v -1.661530 0.000000 2.113180
v -2.132730 0.000000 0.545774
v -1.285240 0.000000 0.254953
v -1.116490 0.000000 2.025830
v -0.437533 0.000000 1.531960
v -0.303619 0.000000 1.125450
v 0.000000 0.585000 1.088120
v -1.227020 0.585000 -0.000000
v -2.286390 0.585000 0.363526
v -1.991520 1.327500 0.713260
v -1.338740 1.327500 0.489255
v -1.208760 1.327500 1.853270
v -0.685792 1.327500 1.472870
v -0.582646 1.327500 1.159760
v -0.334784 0.585000 2.104400
v -0.453115 0.292500 2.021440
v -0.561862 0.956250 1.945200
vt 81.549599 81.113297
vt 78.406097 28.081100
vt 85.264503 46.495899
vt 64.117302 75.612503
vt 52.706200 19.261999
vt 47.589001 72.963501
vt 26.999701 57.987099
vt 22.938801 45.659801
vt -81.404297 9.021610
vt -62.937000 -14.093900
vt -55.944401 9.021610
vt 89.558403 72.165298
vt 90.930397 55.398899
vt 70.802399 93.467499
vt 56.953300 75.849998
vt 76.730598 75.849998
vt 125.843002 41.224998
vt 101.860001 16.964100
vt 120.702003 29.094601
vt 88.159103 16.964100
vt 91.591301 41.224998
vt 125.843002 -6.977640
vt 85.004799 25.712200
vt 91.591301 -6.977640
vt 95.557800 25.712200
vt 115.976997 9.367300
vt 11.357800 -67.002403
vt -20.882401 -48.418301
vt -25.256300 -67.002403
vt -5.955490 -29.834200
vt 6.053140 -29.834200
vt -120.913002 -8.770680
vt -83.898903 23.766001
vt -102.178001 23.766001
vt -91.247902 -8.770680
vt -111.150002 18.348499
vt -91.247902 42.553299
vt -120.913002 42.553299
vt -87.418297 18.348499
vt -83.965599 21.487200
vt -65.414703 83.196297
vt -88.046799 90.337799
vt -50.599899 10.037500
vt -43.956299 79.757103
vt -17.225700 60.313499
vt -11.953500 44.309200
vt 31.198299 -14.996700
vt -28.423700 9.741920
vt -20.455299 -14.996700
vt 36.143299 9.741920
vt 51.118301 2.461030
vt 89.787003 27.098700
vt 45.692600 27.098700
vt 86.393898 2.461030
vt 49.441299 23.807600
vt 76.718498 48.246399
vt 44.828701 48.246399
vt 74.953102 23.807600
vt -92.869698 45.394699
vt -100.225998 76.730598
vt 11.357800 83.961502
vt -9.667940 58.008801
vt 8.593530 58.008801
vt -25.256300 83.961502
vt -22.977100 70.985199
vt -100.225998 56.953300
vt 76.718498 -17.226000
vt 53.680199 15.948200
vt 44.828701 -17.226000
vt 73.330704 15.948200
vt -82.814697 10.937300
vt -50.544399 46.875198
vt -63.523399 46.875198
vt -40.688702 10.937300
vt -82.814697 26.551100
vt -45.824501 1.073280
vt -40.688702 26.551100
vt -62.674900 1.073280
vt -81.169998 13.812200
vt -80.456299 47.716400
vt -30.208700 35.537998
vt -26.125601 47.716400
vt -77.756401 23.359600
vt -56.024101 23.359600
vt -82.462799 30.818001
vt -49.408699 30.818001
vt -61.240398 49.906101
vt -33.961102 0.115407
vt -80.456299 -16.360300
vt -26.125601 -16.360300
vt -75.275200 16.591101
vt -58.535900 16.591101
vt -79.658501 28.906200
vt 36.143299 36.156700
vt -13.132400 70.139702
vt -28.423700 36.156700
vt 26.653799 70.139702
vt 45.692600 12.161200
vt 83.275703 45.873001
vt 56.104599 45.873001
vt 89.787003 12.161200
vt 59.654701 -64.672699
vt 64.620499 -41.359200
vt 47.798000 -41.359200
vn 0.000000 1.000000 -0.000000
vn 0.371900 0.774700 0.511300
vn -0.653700 -0.756800 0.000000
vn -0.800900 -0.314300 -0.509700
vn -0.754400 0.447600 -0.480100
vn -0.586000 0.617600 0.524500
vn 0.270400 0.439100 0.856800
vn 0.286300 -0.307600 0.907400
vn 0.000000 -1.000000 0.000000
vn 0.617700 -0.365000 -0.696600
vn -0.303400 -0.355200 -0.884200
vn -0.883200 -0.334400 -0.328900
vn -0.661300 -0.460900 0.591900
vn -0.661300 -0.460900 0.591800
vn -0.825800 0.472800 -0.307500
vn 0.772600 0.581700 0.254500
vn 0.858600 -0.427600 0.282800
vn 0.149600 -0.325400 0.933700
vn 0.149600 -0.325300 0.933700
vn 0.354900 -0.797500 0.487900
vn 0.140400 0.461500 0.876000
vn 0.140400 0.461500 0.875900
vn 0.570700 0.510000 -0.643600
vn -0.281400 0.498100 -0.820200
vn -0.624800 0.779100 0.051100
usemtl Green_leafs
s 1
f 12/1/1 25/2/1 7/3/1
f 13/4/1 25/2/1 12/1/1
f 13/4/1 26/5/1 25/2/1
f 27/6/1 26/5/1 13/4/1
f 28/7/1 26/5/1 27/6/1
f 26/5/1 28/7/1 29/8/1
f 27/9/2 32/10/2 28/11/2
f 12/1/1 7/3/1 11/12/1
f 11/12/1 7/3/1 8/13/1
usemtl Wood.004
f 1/14/3 2/15/3 3/16/3
f 4/17/4 2/18/4 1/19/4
f 4/17/4 5/20/4 2/18/4
f 5/20/4 4/17/4 6/21/4
f 4/22/5 7/23/5 6/24/5
f 7/23/5 4/22/5 8/25/5
f 8/25/5 4/22/5 9/26/5
f 10/27/6 9/28/6 4/29/6
f 10/27/6 11/30/6 9/28/6
f 11/30/6 10/27/6 12/31/6
f 10/32/7 13/33/7 12/34/7
f 13/33/7 10/32/7 14/35/7
f 15/36/8 14/37/8 10/38/8
f 14/37/8 15/36/8 16/39/8
f 17/40/9 16/41/9 15/42/9
f 18/43/9 16/41/9 17/40/9
f 18/43/9 19/44/9 16/41/9
f 18/43/9 20/45/9 19/44/9
f 20/45/9 18/43/9 21/46/9
f 18/47/10 22/48/10 21/49/10
f 22/48/10 18/47/10 23/50/10
f 18/51/11 24/52/11 23/53/11
f 24/52/11 18/51/11 17/54/11
f 17/55/12 6/56/12 24/57/12
f 6/56/12 17/55/12 5/58/12
f 17/40/9 15/42/9 5/59/9
f 5/59/9 15/42/9 3/60/9
f 10/61/13 3/62/14 15/63/13
f 4/64/14 3/62/14 10/61/13
f 3/62/14 4/64/14 1/65/14
f 5/59/9 3/60/9 2/66/9
f 6/67/15 25/68/15 24/69/15
f 25/68/15 6/67/15 7/70/15
f 30/71/16 29/72/16 28/73/16
f 29/72/16 30/71/16 22/74/16
f 30/75/17 21/76/17 22/77/17
f 21/76/17 30/75/17 20/78/17
f 20/78/17 30/75/17 31/79/17
f 14/80/18 31/81/18 30/82/18
f 16/83/18 31/81/18 14/80/18
f 31/81/18 16/83/18 19/84/19
f 19/85/20 20/86/20 31/87/20
f 32/88/21 14/89/21 30/90/21
f 14/89/21 32/88/21 13/91/21
f 13/91/21 32/88/21 27/92/22
f 30/71/16 28/73/16 32/93/16
f 23/94/23 29/95/23 22/96/23
f 29/95/23 23/94/23 26/97/23
f 23/98/24 25/99/24 26/100/24
f 25/99/24 23/98/24 24/101/24
f 9/102/25 11/103/25 8/104/25
