# Blender v2.76 (sub 0) OBJ File: ''
# www.blender.org
mtllib naturePack_139.mtl
o Mesh1_Large_Oak_Fall_Model
v -1.335190 0.971550 1.132890
v -1.234710 0.000000 1.582990
v -1.234710 0.000000 1.032400
v -1.335190 0.971550 1.482510
v -0.921100 0.971550 0.287694
v -2.098900 0.971550 0.287694
v -1.684810 0.971550 1.132890
v -1.785290 0.000000 1.032400
v -1.785290 0.000000 1.582990
v -1.684810 0.971550 1.482510
v -2.098900 0.971550 2.327700
v -0.921100 0.971550 2.327700
v -0.332200 0.971550 1.307700
v 0.000000 1.591550 1.307700
v -0.755000 1.591550 -0.000000
v -2.265000 1.591550 -0.000000
v -3.020000 1.591550 1.307700
v -2.687800 0.971550 1.307700
v -2.265000 1.591550 2.615400
v -2.672700 3.771550 1.307699
v -2.091350 3.771550 2.314629
v -0.928650 3.771550 2.314629
v -0.755000 1.591550 2.615400
v -0.347300 3.771550 1.307699
v -0.928650 3.771550 0.300770
v -2.091350 3.771550 0.300770
v -1.510000 4.601550 1.307699
vt -52.566502 44.601799
vt -36.263802 11.326500
vt -52.566502 58.366501
vt -82.633904 11.326500
vt -66.331200 44.601799
vt -82.633904 91.641899
vt -66.331200 58.366501
vt -36.263802 91.641899
vt -13.078700 51.484200
vt 8.322830 19.093901
vt -44.586601 46.003201
vt -38.047199 19.093901
vt 14.862200 46.003201
vt 36.263802 29.929100
vt 89.173203 56.838402
vt 29.724400 56.838402
vt 82.633904 29.929100
vt 51.125999 62.434799
vt 104.035004 89.344101
vt 44.586601 89.344101
vt 97.496101 62.434799
vt -105.819000 51.484200
vt 44.586601 111.014999
vt -8.322830 84.105202
vt 38.047199 84.105202
vt -14.862200 111.014999
vt 44.586601 44.480202
vt -8.025590 131.119995
vt -14.862200 44.480202
vt 37.750000 131.119995
vt -89.173203 47.998402
vt -36.561001 134.638000
vt -82.336601 134.638000
vt -29.724400 47.998402
vt -82.633904 73.269997
vt -29.724400 100.179001
vt -89.173203 100.179001
vt -36.263802 73.269997
vt -51.125999 40.764301
vt -104.035004 67.673599
vt -97.496101 40.764301
vt -44.586601 67.673599
vt -44.586601 58.553200
vt -97.198799 145.192993
vt -104.035004 58.553200
vt -51.423199 145.192993
vt -44.586601 65.589699
vt 8.025590 152.229996
vt -37.750000 152.229996
vt 14.862200 65.589699
vt 29.724400 62.071499
vt 82.336601 148.710999
vt 36.561001 148.710999
vt 89.173203 62.071499
vt 104.035004 51.516701
vt 51.423199 138.156006
vt 44.586601 51.516701
vt 97.198799 138.156006
vt 97.198799 43.991901
vt 74.310997 95.366501
vt 51.423199 43.991901
vt -8.025590 4.264510
vt 37.750000 4.264510
vt 14.862200 55.639099
vt -82.336601 24.128201
vt -36.561001 24.128201
vt -59.448799 75.502800
vt -74.310997 135.093994
vt -97.198799 83.719299
vt -51.423199 83.719299
vt -14.862200 174.820999
vt -37.750000 123.446999
vt 8.025590 123.446999
vt 82.336601 103.583000
vt 59.448799 154.957993
vt 36.561001 103.583000
vt -44.601799 43.454899
vt -62.322498 5.000850
vt -40.645901 5.000850
vt -58.366501 43.454899
vt 48.610500 4.181480
vt 66.331200 42.635502
vt 52.566502 42.635502
vt 70.287201 4.181480
vt -48.610500 40.645901
vt -70.287201 62.322498
vt -70.287201 40.645901
vt -48.610500 62.322498
vt -52.566502 32.042500
vt -70.287201 -6.411480
vt -48.610500 -6.411480
vt -66.331200 32.042500
vt 44.601799 31.223200
vt 62.322498 -7.230850
vt 58.366501 31.223200
vt 40.645901 -7.230850
vn 0.000000 -1.000000 -0.000000
vn 0.785600 -0.420900 -0.453500
vn 0.000000 -0.420900 -0.907100
vn -0.785600 -0.420900 -0.453500
vn -0.785600 -0.420900 0.453600
vn -0.785600 -0.420900 0.453500
vn -0.857900 0.136700 0.495300
vn 0.000000 0.136700 0.990600
vn 0.000000 -0.420900 0.907100
vn 0.785600 -0.420900 0.453600
vn 0.785600 -0.420900 0.453500
vn 0.857900 0.136700 0.495300
vn 0.857900 0.136700 -0.495300
vn 0.000000 0.136700 -0.990600
vn -0.857900 0.136700 -0.495300
vn -0.550800 0.771600 -0.318000
vn -0.550800 0.771600 0.318000
vn 0.000000 0.771600 0.636100
vn 0.550800 0.771600 0.318000
vn 0.550800 0.771600 -0.318000
vn 0.000000 0.771600 -0.636100
vn 0.994700 0.102900 -0.000000
vn 0.000000 0.102900 -0.994700
vn 0.000000 0.102900 0.994700
vn -0.994700 0.102900 -0.000000
usemtl Fall_Leafs.005
s 1
f 1/1/1 5/2/1 4/3/1
f 5/2/1 1/1/1 6/4/1
f 6/4/1 1/1/1 7/5/1
f 4/3/1 11/6/1 10/7/1
f 4/3/1 12/8/1 11/6/1
f 5/2/1 12/8/1 4/3/1
f 12/8/1 5/2/1 13/9/1
f 5/10/2 14/11/2 13/12/2
f 14/11/2 5/10/2 15/13/2
f 5/14/3 16/15/3 15/16/3
f 16/15/3 5/14/3 6/17/3
f 6/18/4 17/19/4 16/20/4
f 17/19/4 6/18/4 18/21/4
f 6/4/1 11/6/1 18/22/1
f 6/4/1 7/5/1 11/6/1
f 10/7/1 11/6/1 7/5/1
f 19/23/5 18/24/5 11/25/5
f 18/24/5 19/23/5 17/26/6
f 19/27/7 20/28/7 17/29/7
f 20/28/7 19/27/7 21/30/7
f 19/31/8 22/32/8 21/33/8
f 22/32/8 19/31/8 23/34/8
f 11/35/9 23/36/9 19/37/9
f 23/36/9 11/35/9 12/38/9
f 13/39/10 23/40/10 12/41/10
f 23/40/10 13/39/10 14/42/11
f 14/43/12 22/44/12 23/45/12
f 22/44/12 14/43/12 24/46/12
f 14/47/13 25/48/13 24/49/13
f 25/48/13 14/47/13 15/50/13
f 15/51/14 26/52/14 25/53/14
f 26/52/14 15/51/14 16/54/14
f 17/55/15 26/56/15 16/57/15
f 26/56/15 17/55/15 20/58/15
f 20/59/16 27/60/16 26/61/16
f 20/62/17 21/63/17 27/64/17
f 21/65/18 22/66/18 27/67/18
f 27/68/19 22/69/19 24/70/19
f 27/71/20 24/72/20 25/73/20
f 26/74/21 27/75/21 25/76/21
usemtl Wood.085
f 1/77/22 2/78/22 3/79/22
f 2/78/22 1/77/22 4/80/22
f 3/81/23 7/82/23 1/83/23
f 7/82/23 3/81/23 8/84/23
f 3/85/1 9/86/1 8/87/1
f 9/86/1 3/85/1 2/88/1
f 4/89/24 9/90/24 2/91/24
f 9/90/24 4/89/24 10/92/24
f 7/93/25 9/94/25 10/95/25
f 9/94/25 7/93/25 8/96/25
