# Blender v2.76 (sub 0) OBJ File: ''
# www.blender.org
mtllib naturePack_098.mtl
o Mesh1_Grey_Cliff_Corner_Green_Top_Model
v -0.780000 0.000000 0.000000
v 0.000000 0.000000 0.000000
v -0.780000 0.000000 0.780000
v -0.780000 2.200000 -0.000000
v 0.000000 2.200000 -0.000000
v -0.780000 2.200000 0.780000
vt 30.708700 30.708700
vt 0.000000 0.000000
vt 30.708700 0.000000
vt -30.708700 0.000000
vt -30.708700 30.708700
vt 30.708700 86.614197
vt 0.000000 86.614197
vt -43.428600 86.614197
vt -43.428600 0.000000
vn 0.000000 1.000000 -0.000000
vn 0.000000 -1.000000 0.000000
vn 0.000000 -0.000000 -1.000000
vn 0.707100 0.000000 0.707100
vn -1.000000 0.000000 0.000000
usemtl Leafs.034
s 1
f 6/1/1 5/2/1 4/3/1
usemtl Stone.026
f 1/4/2 2/2/2 3/5/2
f 4/6/3 2/2/3 1/3/3
f 2/2/3 4/6/3 5/7/3
f 6/8/4 2/2/4 5/7/4
f 2/2/4 6/8/4 3/9/4
f 4/7/5 3/3/5 6/6/5
f 3/3/5 4/7/5 1/2/5
