# Blender v2.76 (sub 0) OBJ File: ''
# www.blender.org
mtllib naturePack_flat_011.mtl
o Mesh5_Flower_Tall_Red_Model
v 0.000000 0.210877 0.242963
v -0.217556 0.000000 0.242963
v -0.038001 0.000000 0.242963
v -0.217556 0.107776 0.242963
vt -1.496090 0.000000
vt -8.565200 0.000000
vt 0.000000 8.302230
vt -8.565200 4.243150
vn 0.000000 -0.000000 -1.000000
usemtl Green_leafs.058
s 1
f 3/1/1 2/2/1 1/3/1
f 4/4/1 1/3/1 2/2/1
o Mesh4_Flower_Tall_Red_Model
v -0.242963 0.000000 0.038001
v -0.242963 0.107776 0.217556
v -0.242963 0.210877 -0.000000
v -0.242963 0.000000 0.217556
vt 0.000000 8.302230
vt 8.565200 4.243150
vt 1.496090 0.000000
vt 8.565200 0.000000
vn 1.000000 -0.000000 0.000000
usemtl Green_leafs.058
s 1
f 7/5/2 6/6/2 5/7/2
f 8/8/2 5/7/2 6/6/2
o Mesh1_Flower_Tall_Red_Model
v -0.268370 0.000000 0.242963
v -0.268370 0.360000 0.217556
v -0.268370 0.000000 0.217556
v -0.268370 0.360000 0.268370
v -0.242963 0.000000 0.217556
v -0.217556 0.000000 0.217556
v -0.242963 0.000000 0.268370
v -0.217556 0.000000 0.242963
v -0.217556 0.000000 0.268370
v -0.217556 0.360000 0.268370
v -0.217556 0.360000 0.217556
v -0.321713 0.360000 0.164213
v -0.164213 0.360000 0.164213
v -0.321713 0.360000 0.321713
v -0.164213 0.360000 0.321713
v -0.131925 0.540000 0.354000
v -0.354000 0.540000 0.354000
v -0.354000 0.540000 0.131925
v -0.131925 0.540000 0.131925
v -0.268370 0.000000 0.268370
vt 8.565200 0.000000
vt 8.565200 14.173200
vt 9.565470 0.000000
vt 10.565700 14.173200
vt 10.565700 0.000000
vt -9.565470 8.565200
vt -9.565470 10.565700
vt -10.565700 8.565200
vt -8.565200 8.565200
vt -8.565200 9.565470
vt -8.565200 10.565700
vt -8.565200 0.000000
vt -10.565700 14.173200
vt -9.565470 0.000000
vt -8.565200 14.173200
vt -12.665900 12.665900
vt -12.665900 6.465070
vt -6.465070 12.665900
vt 5.193910 5.193910
vt 5.193910 13.937000
vt 13.937000 5.193910
vt 5.193910 20.008801
vt 13.937000 20.008801
vt 6.465070 12.809100
vt 5.193910 23.386499
vt 13.937000 23.386499
vt 6.465070 16.186800
vt 13.937000 13.937000
vt 12.665900 16.186800
vt -10.565700 10.565700
vt -10.565700 9.565470
vt -10.565700 0.000000
vt -6.465070 6.465070
vt -5.193910 23.386499
vt -12.665900 16.186800
vt -6.465070 16.186800
vt -13.937000 23.386499
vt -13.937000 20.008801
vt -6.465070 12.809100
vt -5.193910 20.008801
vt -12.665900 12.809100
vt 12.665900 12.809100
vn 1.000000 0.000000 0.000000
vn 0.000000 -0.000000 -1.000000
vn 0.000000 -1.000000 0.000000
vn 0.000000 1.000000 -0.000000
vn -1.000000 0.000000 0.000000
vn 0.000000 0.000000 1.000000
vn 0.000000 0.176600 0.984300
vn 0.984300 0.176600 0.000000
vn -0.923900 0.000000 0.382700
vn -0.923900 -0.000000 -0.382700
vn -0.923900 -0.270600 0.270600
vn 0.000000 -0.176600 0.984300
vn 0.984300 -0.176600 0.000000
vn 0.000000 -0.176600 -0.984300
usemtl Green_leafs.058
s 1
f 11/9/3 10/10/3 9/11/3
f 10/12/4 13/11/4 11/13/4
f 13/14/5 15/15/5 11/16/5
f 14/17/5 15/15/5 13/14/5
f 16/18/5 15/15/5 14/17/5
f 17/19/6 16/18/6 15/15/6
f 14/20/3 18/21/3 16/22/3
f 19/23/7 14/20/7 18/21/7
f 14/9/8 10/12/8 13/11/8
f 19/10/8 10/12/8 14/9/8
f 22/24/6 10/16/6 20/25/6
f 22/24/6 23/26/6 18/19/6
f 27/27/5 24/28/5 26/29/5
f 27/30/9 26/31/9 21/32/9
f 26/33/10 25/34/10 20/35/10
f 25/36/5 26/29/5 24/28/5
f 22/37/10 20/35/10 25/34/10
f 10/16/6 22/24/6 12/38/6
f 12/12/3 9/11/3 10/10/3
f 12/12/7 9/11/7 28/13/7
f 11/16/11 28/38/12 9/39/13
f 11/16/5 15/15/5 28/38/5
f 17/20/4 15/22/4 18/23/4
f 28/40/4 18/23/4 15/22/4
f 12/21/4 18/23/4 28/40/4
f 17/40/7 18/21/7 16/22/7
usemtl Mushroom_Red.002
f 20/25/5 19/17/5 10/16/5
f 21/41/5 19/17/5 20/25/5
f 19/17/5 21/41/5 18/19/5
f 18/19/5 22/24/5 12/38/5
f 23/26/5 18/19/5 21/41/5
f 24/42/14 22/43/14 23/44/14
f 22/43/14 24/42/14 25/45/14
f 24/46/15 21/47/15 27/48/15
f 21/47/15 24/46/15 23/49/15
f 26/31/16 21/32/16 20/50/16
o Mesh2_Flower_Tall_Red_Model
v -0.268370 0.107776 0.242963
v -0.447925 0.000000 0.242963
v -0.268370 0.000000 0.242963
v -0.485926 0.210877 0.242963
vt -10.565700 0.000000
vt -17.634800 0.000000
vt -10.565700 4.243150
vt -19.130899 8.302230
vn 0.000000 -0.000000 -1.000000
usemtl Green_leafs.058
s 1
f 31/51/17 30/52/17 29/53/17
f 32/54/17 29/53/17 30/52/17
o Mesh3_Flower_Tall_Red_Model
v -0.242963 0.000000 0.447925
v -0.242963 0.107776 0.268370
v -0.242963 0.000000 0.268370
v -0.242963 0.210877 0.485926
vt 10.565700 -0.000000
vt 10.565700 4.243150
vt 17.634800 -0.000000
vt 19.130899 8.302230
vn 1.000000 0.000000 0.000000
usemtl Green_leafs.058
s 1
f 35/55/18 34/56/18 33/57/18
f 36/58/18 33/57/18 34/56/18
