# Blender v2.76 (sub 0) OBJ File: ''
# www.blender.org
mtllib naturePack_flat_003.mtl
o Mesh1_Plant_3_Model
v -0.769823 0.557804 0.696363
v -0.662239 0.098600 0.336363
v -0.769823 0.557804 0.336363
v -0.662239 0.098600 0.696363
v -0.572239 0.000000 0.426363
v -0.572239 0.000000 0.606363
v -0.392239 0.000000 0.426363
v -0.392239 0.000000 0.606363
v -0.302239 0.098600 0.696363
v -0.302239 0.098600 0.336363
v -0.302239 0.362757 0.241430
v -0.662239 0.362757 0.241430
v -0.372439 0.488320 0.126427
v -0.592039 0.488320 0.126427
v -0.482239 0.354831 -0.000000
v -0.672239 0.387745 0.777805
v -0.312239 0.387745 0.777805
v -0.372439 0.525185 0.942809
v -0.592039 0.525185 0.942809
v -0.482239 0.379069 1.091220
v -0.246937 0.455569 0.696363
v -0.246937 0.455569 0.336363
v -0.113601 0.565249 0.406563
v -0.113601 0.565249 0.626163
v 0.000000 0.444859 0.516363
v -0.966493 0.696081 0.626163
v -0.966493 0.696081 0.406563
v -1.149720 0.544027 0.516363
vt -13.242600 28.295300
vt -13.242600 9.726830
vt -27.415800 28.295300
vt -27.415800 9.726830
vt 13.242600 20.444099
vt 27.415800 20.444099
vt 16.785900 15.188300
vt 23.872499 15.188300
vt -15.442500 16.785900
vt -22.529100 23.872499
vt -22.529100 16.785900
vt -15.442500 23.872499
vt -16.785900 -10.410700
vt -27.415800 -5.154880
vt -23.872499 -10.410700
vt -13.242600 -5.154880
vt 15.442500 -11.316400
vt 26.072399 -6.060580
vt 11.899200 -6.060580
vt 22.529100 -11.316400
vt -11.899200 10.225500
vt -26.072399 -0.825557
vt -11.899200 -0.825557
vt -26.072399 10.225500
vt -14.662900 10.815500
vt -26.072399 4.112010
vt -11.899200 4.112010
vt -23.308599 10.815500
vt 23.308599 17.381201
vt 18.985800 10.142700
vt 14.662900 17.381201
vt -15.442500 16.094000
vt -22.529100 16.094000
vt -11.899200 21.349800
vt -26.072399 21.349800
vt 26.466101 22.996000
vt 11.899200 11.169400
vt 26.072399 11.169400
vt 12.292900 22.996000
vt 26.466101 33.299198
vt 14.662900 41.753799
vt 12.292900 33.299198
vt 23.308599 41.753799
vt -23.308599 -11.944700
vt -18.985800 -20.144300
vt -14.662900 -11.944700
vt 13.242600 2.014430
vt 27.415800 16.236000
vt 13.242600 16.236000
vt 27.415800 3.885980
vt 16.006399 10.683200
vt 13.242600 3.885980
vt 24.652100 10.683200
vt -24.652100 19.255100
vt -20.329201 12.738300
vt -16.006399 19.255100
vt 27.415800 2.014430
vt -27.415800 37.424099
vt -24.652100 46.889301
vt -13.242600 37.424099
vt -16.006399 46.889301
vt 16.006399 -11.780500
vt 24.652100 -11.780500
vt 20.329201 -21.154600
vn -0.973600 -0.228100 0.000000
vn 0.738600 0.674200 -0.000000
vn 0.000000 -1.000000 0.000000
vn 0.738600 -0.674200 0.000000
vn -0.738600 0.674200 -0.000000
vn 0.000000 -0.674200 -0.738600
vn 0.000000 0.338200 0.941100
vn 0.000000 -0.338200 -0.941100
vn 0.000000 0.675400 0.737400
vn 0.000000 -0.687600 0.726100
vn 0.000000 0.674200 -0.738600
vn 0.000000 0.271100 -0.962500
vn 0.000000 -0.271100 0.962500
vn 0.000000 0.768400 -0.640000
vn 0.000000 -0.768400 0.640000
vn 0.000000 0.712600 0.701600
vn -0.988200 0.153100 -0.000000
vn -0.635300 0.772300 -0.000000
vn 0.635300 -0.772300 0.000000
vn 0.727300 0.686300 0.000000
vn 0.988200 -0.153100 0.000000
vn -0.575200 -0.818000 0.000000
vn 0.638600 -0.769500 0.000000
usemtl Green_leafs.050
s 1
f 3/1/1 2/2/1 1/3/1
f 4/4/1 1/3/1 2/2/1
f 2/5/2 4/6/2 5/7/2
f 6/8/2 5/7/2 4/6/2
f 7/9/3 6/10/3 5/11/3
f 6/10/3 7/9/3 8/12/3
f 7/13/4 9/14/4 8/15/4
f 10/16/5 7/13/5 9/14/5
f 7/17/6 2/18/6 10/19/6
f 2/18/6 7/17/6 5/20/6
f 11/21/7 2/22/7 10/23/7
f 12/24/8 11/21/8 2/22/8
f 13/25/9 12/26/9 11/27/9
f 12/26/9 13/25/9 14/28/9
f 14/29/10 15/30/10 13/31/10
f 8/32/11 6/33/11 9/34/11
f 4/35/11 9/34/11 6/33/11
f 16/36/12 9/37/12 4/38/12
f 17/39/13 16/36/13 9/37/13
f 16/40/14 18/41/14 17/42/14
f 19/43/15 16/40/15 18/41/15
f 19/44/16 20/45/16 18/46/16
f 10/47/17 21/48/17 22/49/17
f 21/50/18 23/51/18 22/52/18
f 24/53/19 21/50/19 23/51/19
f 24/54/20 25/55/20 23/56/20
f 9/57/21 10/47/21 21/48/21
f 1/58/22 26/59/22 3/60/22
f 27/61/22 3/60/22 26/59/22
f 27/62/23 26/63/23 28/64/23
