# Blender v2.76 (sub 0) OBJ File: ''
# www.blender.org
mtllib naturePack_065.mtl
o Mesh1_Large_Oak_Dark_Model
v -1.335190 3.201550 1.482509
v -1.278270 1.387870 1.163520
v -1.335190 3.201550 1.132890
v -1.278270 1.387870 1.403520
v -1.270740 1.147990 1.403520
v -1.234710 0.000000 1.582990
v -1.270740 1.147990 1.163520
v -1.234710 0.000000 1.032400
v -1.397680 2.144940 1.099720
v -1.627680 2.144940 1.099720
v -1.785290 0.000000 1.032400
v -1.684810 3.201550 1.132890
v -1.699560 2.731500 1.198850
v -1.785290 0.000000 1.582990
v -1.421960 0.770207 1.558820
v -1.421960 0.990099 1.551920
v -1.641960 0.990099 1.551920
v -1.684810 3.201550 1.482509
v -1.641960 0.770207 1.558820
v -1.458260 0.815587 1.847540
v -1.605660 0.815587 1.847540
v -1.458260 0.962914 1.842910
v -1.605660 0.962914 1.842910
v -1.693600 2.921410 1.388849
v -1.699560 2.731500 1.388849
v -1.998730 2.762750 1.367000
v -1.998730 2.762750 1.220700
v -1.994140 2.908980 1.220700
v -1.994140 2.908980 1.367000
v -1.693600 2.921410 1.198850
v -2.098900 3.201550 2.327699
v -0.921100 3.201550 2.327699
v -0.921100 3.201550 0.287693
v -0.332200 3.201550 1.307700
v 0.000000 3.821550 1.307699
v -0.755000 3.821550 -0.000001
v -2.265000 3.821550 -0.000001
v -2.098900 3.201550 0.287693
v -1.397680 2.374830 1.106940
v -1.428730 2.354460 0.766133
v -1.428730 2.186640 0.760866
v -1.596630 2.186640 0.760866
v -1.596630 2.354460 0.766133
v -1.627680 2.374830 1.106940
v -2.687800 3.201550 1.307700
v -3.020000 3.821550 1.307699
v -2.265000 3.821550 2.615399
v -0.755000 3.821550 2.615399
v -0.928650 6.001551 2.314629
v -0.347300 6.001550 1.307699
v -0.928650 6.001550 0.300770
v -2.091350 6.001550 0.300770
v -2.672700 6.001550 1.307699
v -2.091350 6.001551 2.314629
v -1.510000 6.831550 1.307699
v -0.932146 1.198240 1.203120
v -0.937190 1.358960 1.203120
v -0.937190 1.358960 1.363920
v -0.932146 1.198240 1.363920
vt -58.366501 127.632004
vt -45.807999 56.192501
vt -44.601799 127.632004
vt -55.256802 56.192501
vt -55.256802 46.743698
vt -62.322498 1.524910
vt -45.807999 46.743698
vt -40.645901 1.524910
vt 48.610500 1.275060
vt 55.026699 85.763199
vt 52.566502 127.382004
vt 64.081802 85.763199
vt 70.287201 1.275060
vt 66.331200 127.382004
vt 40.645901 -2.204910
vt 47.198700 105.387001
vt 44.601799 123.902000
vt 62.322498 -2.204910
vt -48.610500 40.645901
vt -70.287201 62.322498
vt -70.287201 40.645901
vt -48.610500 62.322498
vt -48.610500 -1.955060
vt -55.982498 28.382999
vt -70.287201 -1.955060
vt -52.566502 124.152000
vt -55.982498 37.044399
vt -64.643898 37.044399
vt -66.331200 124.152000
vt -64.643898 28.382999
vt -57.411701 76.841202
vt -64.643898 65.334801
vt -55.982498 65.334801
vt -63.214802 76.841202
vt -57.411701 35.615299
vt -63.214802 29.812099
vt -57.411701 29.812099
vt -63.214802 35.615299
vt -57.411701 -68.714897
vt -64.643898 -57.208500
vt -63.214802 -68.714897
vt -55.982498 -57.208500
vt -79.121597 38.096600
vt -67.845901 30.509600
vt -67.576302 39.166901
vt -79.302299 32.296299
vt 52.870998 30.043301
vt 64.146698 37.630199
vt 52.601398 38.700500
vt 64.327301 31.829901
vt 54.679001 112.867996
vt 58.366501 123.902000
vt 54.679001 105.387001
vt 53.818802 89.564697
vt 47.198700 77.722397
vt 54.679001 77.722397
vt 48.058998 89.564697
vt 53.818802 106.248001
vt 48.058998 112.008003
vt 48.058998 106.248001
vt 53.818802 112.008003
vt -74.574997 108.634003
vt -62.531300 114.879997
vt -74.394798 114.390999
vt -62.765400 107.403999
vt 54.679001 -61.868099
vt 48.058998 -73.710503
vt 53.818802 -73.710503
vt 47.198700 -61.868099
vt 47.198700 112.867996
vt 81.971901 108.865997
vt 69.928200 115.112000
vt 70.162300 107.635002
vt 81.791603 114.623001
vt 55.026699 94.818298
vt -38.115002 84.613800
vt -24.924801 92.862503
vt -38.397900 93.664497
vt -24.718300 86.255501
vt 64.081802 -32.657799
vt 56.249100 -19.216200
vt 55.026699 -32.657799
vt 62.859299 -19.216200
vt 48.942101 84.275398
vt 35.751801 92.524101
vt 35.545300 85.917099
vt 49.224998 93.326103
vt 64.081802 94.818298
vt 56.249100 35.639198
vt 64.081802 49.080799
vt 55.026699 49.080799
vt 62.859299 35.639198
vt 56.249100 86.985603
vt 62.859299 93.595901
vt 56.249100 93.595901
vt 62.859299 86.985603
vt 44.690899 54.826599
vt 30.975300 47.360500
vt 44.396500 45.382301
vt 31.172600 53.688202
vt -45.807999 54.761200
vt -53.697701 41.284801
vt -47.367001 41.284801
vt -55.256802 54.761200
vt -56.377300 54.462200
vt -42.661701 46.996201
vt -42.859001 53.323898
vt -56.082901 45.018002
vt -55.256802 -42.852600
vt -47.367001 -29.376301
vt -53.697701 -29.376301
vt -45.807999 -42.852600
vt -47.367001 48.302700
vt -53.697701 54.633400
vt -53.697701 48.302700
vt -47.367001 54.633400
vt -66.331200 58.366501
vt -82.633904 91.641899
vt -66.331200 44.601799
vt -52.566502 58.366501
vt -36.263802 91.641899
vt -36.263802 11.326500
vt -13.078700 51.484200
vt 8.322830 98.733002
vt -44.586601 125.641998
vt -38.047199 98.733002
vt 14.862200 125.641998
vt 36.263802 109.568001
vt 89.173203 136.477997
vt 29.724400 136.477997
vt 82.633904 109.568001
vt -52.566502 44.601799
vt -82.633904 11.326500
vt -105.819000 51.484200
vt 38.047199 163.744003
vt -14.862200 190.654007
vt -8.322830 163.744003
vt 44.586601 190.654007
vt -82.633904 152.908997
vt -29.724400 179.817993
vt -89.173203 179.817993
vt -36.263802 152.908997
vt -51.125999 120.403000
vt -104.035004 147.313004
vt -97.496101 120.403000
vt -44.586601 147.313004
vt -44.586601 145.524994
vt -97.198799 232.164001
vt -104.035004 145.524994
vt -51.423199 232.164001
vt -44.586601 152.561005
vt 8.025590 239.201004
vt -37.750000 239.201004
vt 14.862200 152.561005
vt 29.724400 149.042999
vt 82.336601 235.682999
vt 36.561001 235.682999
vt 89.173203 149.042999
vt 104.035004 138.488007
vt 51.423199 225.128006
vt 44.586601 138.488007
vt 97.198799 225.128006
vt -14.862200 131.451996
vt 37.750000 218.091003
vt -8.025590 218.091003
vt 44.586601 131.451996
vt -89.173203 134.970001
vt -36.561001 221.610001
vt -82.336601 221.610001
vt -29.724400 134.970001
vt -82.336601 79.971001
vt -36.561001 79.971001
vt -59.448799 131.345993
vt -74.310997 190.936996
vt -97.198799 139.561996
vt -51.423199 139.561996
vt -14.862200 230.664001
vt -37.750000 179.289001
vt 8.025590 179.289001
vt 82.336601 159.425995
vt 59.448799 210.800003
vt 36.561001 159.425995
vt 97.198799 99.834702
vt 74.310997 151.209000
vt 51.423199 99.834702
vt -8.025590 60.107300
vt 37.750000 60.107300
vt 14.862200 111.482002
vt 51.125999 142.074005
vt 104.035004 168.983002
vt 44.586601 168.983002
vt 97.496101 142.074005
vn 0.999500 0.031400 -0.000000
vn 0.999500 0.031400 0.000300
vn 0.999500 0.031400 -0.000100
vn 0.000000 0.031400 -0.999500
vn -0.999500 0.031400 0.000000
vn 0.000000 -1.000000 0.000000
vn 0.000000 0.031400 0.999500
vn 0.000100 0.031400 0.999500
vn -0.000300 0.031400 0.999500
vn 0.000000 -0.987900 0.155300
vn 0.000000 0.995700 0.093000
vn 0.992300 0.003900 0.124100
vn -0.992300 0.003900 0.124100
vn -0.103900 -0.994600 0.000000
vn -0.072600 0.002300 0.997400
vn -0.041300 0.999100 0.000000
vn -0.072600 0.002300 -0.997400
vn -0.000100 0.031400 -0.999500
vn 0.995900 0.002900 -0.090900
vn 0.000000 -0.992500 -0.122100
vn -0.995900 0.002900 -0.090900
vn 0.000200 0.031400 -0.999500
vn 0.000000 0.998200 -0.059700
vn 0.115600 0.003600 -0.993300
vn 0.084500 0.996400 0.000000
vn 0.115600 0.003600 0.993300
vn 0.146800 -0.989200 0.000000
vn 0.785600 -0.420900 -0.453500
vn 0.000000 -0.420900 -0.907100
vn -0.785600 -0.420900 0.453500
vn -0.785600 -0.420900 0.453600
vn 0.000000 -0.420900 0.907100
vn 0.785600 -0.420900 0.453600
vn 0.857900 0.136700 0.495300
vn 0.857900 0.136700 -0.495300
vn 0.000000 0.136700 -0.990600
vn -0.857900 0.136700 -0.495300
vn -0.857900 0.136700 0.495300
vn 0.000000 0.136700 0.990600
vn 0.000000 0.771600 0.636100
vn 0.550800 0.771600 0.318000
vn 0.550800 0.771600 -0.318000
vn 0.000000 0.771600 -0.636100
vn -0.550800 0.771600 -0.318000
vn -0.550800 0.771600 0.318000
vn -0.785600 -0.420900 -0.453500
usemtl Wood.038
s 1
f 1/1/1 2/2/2 3/3/1
f 2/2/2 1/1/1 4/4/3
f 4/4/3 1/1/1 5/5/1
f 6/6/1 5/5/1 1/1/1
f 6/6/1 7/7/1 5/5/1
f 8/8/1 7/7/1 6/6/1
f 7/7/1 8/8/1 3/3/1
f 8/9/4 9/10/4 3/11/4
f 9/10/4 8/9/4 10/12/4
f 11/13/4 10/12/4 8/9/4
f 10/12/4 11/13/4 12/14/4
f 11/15/5 13/16/5 12/17/5
f 13/16/5 11/15/5 14/18/5
f 8/19/6 14/20/6 11/21/6
f 14/20/6 8/19/6 6/22/6
f 6/23/7 15/24/7 14/25/7
f 15/24/7 6/23/7 1/26/7
f 15/24/7 1/26/7 16/27/8
f 16/27/8 1/26/7 17/28/9
f 18/29/7 17/28/9 1/26/7
f 18/29/7 19/30/7 17/28/9
f 14/25/7 19/30/7 18/29/7
f 19/30/7 14/25/7 15/24/7
f 20/31/10 19/32/10 15/33/10
f 19/32/10 20/31/10 21/34/10
f 22/35/7 21/36/7 20/37/7
f 21/36/7 22/35/7 23/38/7
f 22/39/11 17/40/11 23/41/11
f 17/40/11 22/39/11 16/42/11
f 22/43/12 15/44/12 16/45/12
f 15/44/12 22/43/12 20/46/12
f 19/47/13 23/48/13 17/49/13
f 23/48/13 19/47/13 21/50/13
f 24/51/5 14/18/5 18/52/5
f 25/53/5 14/18/5 24/51/5
f 13/16/5 14/18/5 25/53/5
f 26/54/14 13/55/14 25/56/14
f 13/55/14 26/54/14 27/57/14
f 26/58/5 28/59/5 27/60/5
f 28/59/5 26/58/5 29/61/5
f 26/62/15 24/63/15 29/64/15
f 24/63/15 26/62/15 25/65/15
f 24/66/16 28/67/16 29/68/16
f 28/67/16 24/66/16 30/69/16
f 18/52/5 30/70/5 24/51/5
f 12/17/5 30/70/5 18/52/5
f 30/70/5 12/17/5 13/16/5
f 27/71/17 30/72/17 13/73/17
f 30/72/17 27/71/17 28/74/17
f 3/11/4 39/75/18 12/14/4
f 3/11/4 9/10/4 39/75/18
f 9/76/19 40/77/19 39/78/19
f 40/77/19 9/76/19 41/79/19
f 10/80/20 41/81/20 9/82/20
f 41/81/20 10/80/20 42/83/20
f 10/84/21 43/85/21 42/86/21
f 43/85/21 10/84/21 44/87/21
f 10/12/4 12/14/4 44/88/22
f 44/88/22 12/14/4 39/75/18
f 40/89/23 44/90/23 39/91/23
f 44/90/23 40/89/23 43/92/23
f 41/93/4 43/94/4 40/95/4
f 43/94/4 41/93/4 42/96/4
f 7/7/1 3/3/1 2/2/2
f 2/97/24 56/98/24 7/99/24
f 56/98/24 2/97/24 57/100/24
f 2/101/25 58/102/25 57/103/25
f 58/102/25 2/101/25 4/104/25
f 4/105/26 59/106/26 58/107/26
f 59/106/26 4/105/26 5/108/26
f 5/109/27 56/110/27 59/111/27
f 56/110/27 5/109/27 7/112/27
f 56/113/1 58/114/1 59/115/1
f 58/114/1 56/113/1 57/116/1
usemtl Leafs.014
f 18/117/6 31/118/6 12/119/6
f 1/120/6 31/118/6 18/117/6
f 1/120/6 32/121/6 31/118/6
f 33/122/6 32/121/6 1/120/6
f 32/121/6 33/122/6 34/123/6
f 33/124/28 35/125/28 34/126/28
f 35/125/28 33/124/28 36/127/28
f 33/128/29 37/129/29 36/130/29
f 37/129/29 33/128/29 38/131/29
f 33/122/6 3/132/6 38/133/6
f 3/132/6 33/122/6 1/120/6
f 38/133/6 3/132/6 12/119/6
f 38/133/6 12/119/6 31/118/6
f 38/133/6 31/118/6 45/134/6
f 31/135/30 46/136/31 45/137/31
f 46/136/31 31/135/30 47/138/30
f 31/139/32 48/140/32 47/141/32
f 48/140/32 31/139/32 32/142/32
f 34/143/33 48/144/33 32/145/33
f 48/144/33 34/143/33 35/146/33
f 35/147/34 49/148/34 48/149/34
f 49/148/34 35/147/34 50/150/34
f 35/151/35 51/152/35 50/153/35
f 51/152/35 35/151/35 36/154/35
f 36/155/36 52/156/36 51/157/36
f 52/156/36 36/155/36 37/158/36
f 46/159/37 52/160/37 37/161/37
f 52/160/37 46/159/37 53/162/37
f 46/163/38 54/164/38 53/165/38
f 54/164/38 46/163/38 47/166/38
f 47/167/39 49/168/39 54/169/39
f 49/168/39 47/167/39 48/170/39
f 54/171/40 49/172/40 55/173/40
f 55/174/41 49/175/41 50/176/41
f 55/177/42 50/178/42 51/179/42
f 52/180/43 55/181/43 51/182/43
f 53/183/44 55/184/44 52/185/44
f 53/186/45 54/187/45 55/188/45
f 38/189/46 46/190/46 37/191/46
f 46/190/46 38/189/46 45/192/46
