# Blender v2.76 (sub 0) OBJ File: ''
# www.blender.org
mtllib naturePack_086.mtl
o Mesh1_Trunk_Alt_Model
v -0.803690 0.000000 0.803690
v -0.701729 0.230000 0.101961
v -0.803690 0.000000 0.000000
v -0.701729 0.230000 0.701729
v -0.101961 0.230000 0.701729
v 0.000000 0.000000 0.803690
v 0.000000 0.000000 0.000000
v -0.101961 0.230000 0.101961
v -0.639848 0.830000 0.163841
v -0.163841 0.830000 0.163841
v -0.163841 0.830000 0.639848
v -0.639848 0.830000 0.639848
v -0.118130 0.386775 0.527126
v -0.118130 0.386775 0.276564
v -0.147672 0.673225 0.306107
v -0.147672 0.673225 0.497583
v 0.163841 0.479545 0.472002
v 0.147297 0.639957 0.455458
v 0.147297 0.639957 0.348231
v 0.163841 0.479545 0.331687
vt 25.190901 6.450450
vt 6.450450 25.190901
vt 6.450450 6.450450
vt 25.190901 25.190901
vt -18.582800 18.118401
vt -13.709900 24.467300
vt -17.931400 24.467300
vt -13.058600 18.118401
vt 31.641300 -12.823300
vt 4.014200 -2.918280
vt 0.000000 -12.823300
vt 27.627100 -2.918280
vt -31.641300 -12.823300
vt -4.014200 -2.918280
vt -27.627100 -2.918280
vt -31.641300 31.641300
vt 0.000000 0.000000
vt 0.000000 31.641300
vt -31.641300 0.000000
vt 27.627100 9.905000
vt 31.641300 -0.000000
vt 4.014200 9.905000
vt 25.190901 33.166500
vt 4.014200 9.419160
vt 27.627100 9.419160
vt 6.450450 33.166500
vt 6.450450 29.920401
vt 27.627100 6.173060
vt 25.190901 29.920401
vt 4.014200 6.173060
vt -27.627100 6.173060
vt -6.450450 29.920401
vt -25.190901 29.920401
vt -4.014200 6.173060
vt -27.627100 9.419160
vt -20.753000 15.624200
vt -25.190901 33.166500
vt -10.888300 15.624200
vt -4.014200 9.419160
vt -6.450450 33.166500
vt -12.051400 26.961500
vt -19.589899 26.961500
vt 3.504160 16.485201
vt -8.768590 24.163099
vt -7.799000 12.807600
vt 2.961190 22.844299
vt -20.753000 0.341146
vt -13.058600 12.027700
vt -18.582800 12.027700
vt -10.888300 0.341146
vt 3.883590 27.821100
vt -8.389160 20.143200
vt 2.914000 16.465599
vt -7.846190 26.502300
vt -12.051400 8.747730
vt -17.931400 -2.938860
vt -13.709900 -2.938860
vt -19.589899 8.747730
vt -4.014200 9.905000
vt -27.627100 9.905000
vn 0.000000 1.000000 -0.000000
vn 0.994700 0.102600 -0.000000
vn -0.914200 0.405300 -0.000000
vn -0.966400 0.257100 -0.000000
vn 0.000000 0.405300 0.914200
vn 0.000000 0.257100 0.966400
vn 0.000000 -1.000000 0.000000
vn -0.000000 0.257100 -0.966400
vn 0.000000 0.405300 -0.914200
vn 0.000000 0.102600 -0.994700
vn -0.994700 0.102600 -0.000000
vn 0.000000 0.102600 0.994700
vn 0.966400 0.257100 -0.000000
vn 0.153300 0.117000 0.981200
vn 0.312500 -0.949900 0.000000
vn 0.153300 0.117000 -0.981200
vn 0.112100 0.993700 0.000000
vn 0.914200 0.405300 -0.000000
usemtl Light_Wood.004
s 1
f 9/1/1 11/2/1 10/3/1
f 11/2/1 9/1/1 12/4/1
f 17/5/2 19/6/2 18/7/2
f 19/6/2 17/5/2 20/8/2
usemtl Wood.057
f 1/9/3 2/10/4 3/11/3
f 2/10/4 1/9/3 4/12/4
f 1/13/5 5/14/6 4/15/6
f 5/14/6 1/13/5 6/11/5
f 1/16/7 7/17/7 6/18/7
f 7/17/7 1/16/7 3/19/7
f 2/20/8 7/17/9 3/21/9
f 7/17/9 2/20/8 8/22/8
f 9/23/10 8/24/8 2/25/8
f 8/24/8 9/23/10 10/26/10
f 9/27/11 4/28/4 12/29/11
f 4/28/4 9/27/11 2/30/4
f 4/31/6 11/32/12 12/33/12
f 11/32/12 4/31/6 5/34/6
f 5/35/13 13/36/2 11/37/2
f 5/35/13 14/38/2 13/36/2
f 8/39/13 14/38/2 5/35/13
f 14/38/2 8/39/13 10/40/2
f 10/40/2 15/41/2 14/38/2
f 15/41/2 10/40/2 11/37/2
f 15/41/2 11/37/2 16/42/2
f 16/42/2 11/37/2 13/36/2
f 17/43/14 16/44/14 13/45/14
f 16/44/14 17/43/14 18/46/14
f 13/47/15 20/48/15 17/49/15
f 20/48/15 13/47/15 14/50/15
f 15/51/16 20/52/16 14/53/16
f 20/52/16 15/51/16 19/54/16
f 15/55/17 18/56/17 19/57/17
f 18/56/17 15/55/17 16/58/17
f 6/19/18 8/59/13 5/60/13
f 8/59/13 6/19/18 7/17/18
