# Blender v2.76 (sub 0) OBJ File: ''
# www.blender.org
mtllib naturePack_044.mtl
o Mesh1_Group1_Model.033
v -0.980415 0.180000 -0.000000
v -0.262534 0.000000 0.249491
v -0.980415 0.000000 0.000000
v -0.262534 0.180000 0.249491
v -0.491024 0.180000 1.115170
v 0.000000 0.180000 1.057930
v -0.491024 0.000000 1.115170
v 0.000000 0.000000 1.057930
v -1.190430 0.000000 0.386643
v -1.190430 0.180000 0.386643
vt 36.459900 7.086610
vt 6.538670 0.000000
vt 36.459900 0.000000
vt 6.538670 7.086610
vt 19.331699 43.904301
vt 10.336000 9.822470
vt 38.598999 0.000000
vt 0.000000 41.650799
vt -24.285101 0.000000
vt -4.822550 7.086610
vt -24.285101 7.086610
vt -4.822550 0.000000
vt -19.331699 43.904301
vt -10.336000 9.822470
vt -38.598999 0.000000
vt -46.867401 15.222200
vt 18.283501 0.000000
vt -21.476801 7.086610
vt -21.476801 0.000000
vt 18.283501 7.086610
vt 46.867401 15.222200
vt 18.423700 7.086610
vt 35.746601 0.000000
vt 35.746601 7.086610
vt 18.423700 0.000000
vt -6.149820 0.000000
vt -39.614399 7.086610
vt -39.614399 0.000000
vt -6.149820 7.086610
vn 0.328300 -0.000000 -0.944600
vn -0.000000 1.000000 -0.000000
vn 0.115800 0.000000 0.993300
vn 0.000000 -1.000000 0.000000
vn -0.721400 -0.000000 0.692500
vn -0.878700 -0.000000 -0.477300
vn 0.951100 -0.000000 -0.308900
usemtl Stone.015
s 1
f 1/1/1 2/2/1 3/3/1
f 2/2/1 1/1/1 4/4/1
f 5/5/2 4/6/2 1/7/2
f 4/6/2 5/5/2 6/8/2
f 7/9/3 6/10/3 5/11/3
f 6/10/3 7/9/3 8/12/3
f 7/13/4 2/14/4 8/8/4
f 2/14/4 7/13/4 3/15/4
f 3/15/4 7/13/4 9/16/4
f 7/17/5 10/18/5 9/19/5
f 10/18/5 7/17/5 5/20/5
f 5/5/2 1/7/2 10/21/2
f 1/22/6 9/23/6 10/24/6
f 9/23/6 1/22/6 3/25/6
f 2/26/7 6/27/7 8/28/7
f 6/27/7 2/26/7 4/29/7
