# Blender v2.76 (sub 0) OBJ File: ''
# www.blender.org
mtllib naturePack_004.mtl
o Mesh1_Plate_Grass_Model.001
v -3.000000 0.300000 -0.000000
v 0.000000 0.000000 0.000000
v -3.000000 0.000000 0.000000
v 0.000000 0.300000 -0.000000
v -1.500000 0.660000 1.500000
v -3.000000 0.300000 3.000000
v 0.000000 0.300000 3.000000
v -3.000000 0.000000 3.000000
v 0.000000 0.000000 3.000000
vt 118.110001 11.811000
vt 0.000000 0.000000
vt 118.110001 0.000000
vt 0.000000 11.811000
vt -118.110001 0.000000
vt -118.110001 11.811000
vt -118.110001 118.110001
vt 0.000000 118.110001
vt 118.110001 2.756370
vt 59.055099 63.488499
vt 0.000000 2.756370
vt 118.110001 -112.093002
vt 59.055099 -51.360401
vt 0.000000 -112.093002
vt -118.110001 -112.093002
vt -59.055099 -51.360401
vt -59.055099 63.488499
vt -118.110001 2.756370
vn 0.000000 -0.000000 -1.000000
vn 0.000000 0.000000 1.000000
vn 0.000000 -1.000000 0.000000
vn -1.000000 0.000000 0.000000
vn 1.000000 0.000000 0.000000
vn 0.000000 0.972400 -0.233400
vn -0.233400 0.972400 -0.000000
vn 0.000000 0.972400 0.233400
vn 0.233400 0.972400 -0.000000
usemtl Wood.003
s 1
f 1/1/1 2/2/1 3/3/1
f 2/2/1 1/1/1 4/4/1
f 8/5/2 7/4/2 6/6/2
f 7/4/2 8/5/2 9/2/2
f 8/7/3 2/2/3 9/8/3
f 2/2/3 8/7/3 3/5/3
f 8/3/4 1/4/4 3/2/4
f 1/4/4 8/3/4 6/1/4
f 2/2/5 7/6/5 9/5/5
f 7/6/5 2/2/5 4/4/5
usemtl Leafs.003
f 1/9/6 5/10/6 4/11/6
f 6/12/7 5/13/7 1/14/7
f 6/15/8 7/14/8 5/16/8
f 5/17/9 7/18/9 4/11/9
