# Blender v2.76 (sub 0) OBJ File: ''
# www.blender.org
mtllib naturePack_170.mtl
o Mesh1_Group1_Model.083
v -0.319563 0.170000 -0.000000
v -0.059756 0.000000 0.219000
v -0.319563 0.000000 0.069000
v 0.000000 0.170000 0.184500
v -0.319563 0.420000 0.036900
v -0.031956 0.420000 0.202950
v -0.158503 0.540000 0.276012
v -0.319563 0.540000 0.183024
v -0.480623 0.540000 0.276012
v -0.607170 0.420000 0.202950
v -0.639127 0.170000 0.184500
v -0.579371 0.000000 0.219000
v -0.579371 0.000000 0.519000
v -0.319563 0.000000 0.669000
v -0.059756 0.000000 0.519000
v 0.000000 0.170000 0.553500
v -0.031956 0.420000 0.535050
v -0.158503 0.540000 0.461988
v -0.294363 0.540000 0.346950
v -0.344763 0.540000 0.346950
v -0.344763 0.540000 0.391050
v -0.480623 0.540000 0.461988
v -0.319563 0.540000 0.554976
v -0.294363 0.540000 0.391050
v -0.284787 0.620000 0.399429
v -0.284787 0.620000 0.338571
v -0.354339 0.620000 0.338571
v -0.354339 0.620000 0.399429
v -0.319563 0.420000 0.701100
v -0.319563 0.170000 0.738000
v -0.639127 0.170000 0.553500
v -0.607170 0.420000 0.535050
vt 10.895700 4.228130
vt -2.273620 -2.866210
vt 9.537400 -2.866210
vt -3.631890 4.228130
vt 10.169300 17.359100
vt -3.631890 7.436510
vt 10.895700 7.436510
vt -2.905510 17.359100
vt 10.169300 16.855400
vt -0.029055 23.721399
vt -2.905510 16.855400
vt 7.292830 23.721399
vt 11.622000 7.726090
vt 21.820400 14.592100
vt 14.498500 14.592100
vt 24.696899 7.726090
vt 10.895700 5.841290
vt 24.696899 15.763900
vt 11.622000 15.763900
vt 25.423201 5.841290
vt 12.253900 1.305910
vt 25.423201 8.400250
vt 10.895700 8.400250
vt 24.065001 1.305910
vt -12.581200 2.716540
vt -22.809900 20.433100
vt -22.809900 8.622050
vt -12.581200 26.338600
vt -2.352590 8.622050
vt -2.352590 20.433100
vt -8.622050 -0.780153
vt -21.791300 6.314190
vt -20.433100 -0.780153
vt -7.263780 6.314190
vt -7.990160 16.561501
vt -21.791300 6.638900
vt -7.263780 6.638900
vt -21.065001 16.561501
vt -10.866600 19.156799
vt -21.065001 12.290700
vt -7.990160 12.290700
vt -18.188499 19.156799
vt 12.581200 7.205670
vt 6.240290 18.188499
vt 6.240290 10.866600
vt 11.589100 13.659400
vt 13.573400 13.659400
vt 18.922199 10.866600
vt 13.573400 15.395700
vt 18.922199 18.188499
vt 12.581200 21.849400
vt 11.589100 15.395700
vt -24.696899 -1.403210
vt -14.498500 5.462800
vt -21.820400 5.462800
vt -11.622000 -1.403210
vt -25.423201 4.246060
vt -11.622000 14.168700
vt -24.696899 14.168700
vt -10.895700 4.246060
vt -24.065001 5.478030
vt -10.895700 12.572400
vt -25.423201 12.572400
vt -12.253900 5.478030
vt 3.631890 16.744499
vt -9.537400 9.650150
vt 2.273620 9.650150
vt -10.895700 16.744499
vt 2.905510 12.573400
vt -10.895700 2.650840
vt 3.631890 2.650840
vt -10.169300 12.573400
vt 2.905510 -10.532500
vt -7.292830 -3.666500
vt -10.169300 -10.532500
vt 0.029055 -3.666500
vt 18.188499 0.898151
vt 7.990160 -5.967860
vt 21.065001 -5.967860
vt 10.866600 0.898151
vt 7.990160 13.371100
vt 21.791300 3.448450
vt 21.065001 13.371100
vt 7.263780 3.448450
vt 8.622050 7.564090
vt 21.791300 14.658400
vt 7.263780 14.658400
vt 20.433100 7.564090
vt -13.659400 19.731800
vt -15.725600 22.903900
vt -15.395700 19.731800
vt -13.329600 22.903900
vt 11.589100 19.721300
vt 13.950400 22.888100
vt 11.212100 22.888100
vt 13.573400 19.721300
vt 13.659400 22.722401
vt 15.725600 25.894501
vt 13.329600 25.894501
vt 15.395700 22.722401
vt -13.573400 22.747900
vt -11.212100 25.914700
vt -13.950400 25.914700
vt -11.589100 22.747900
vt 11.212100 15.725600
vt 13.950400 13.329600
vt 13.950400 15.725600
vt 11.212100 13.329600
vn 0.471700 -0.331600 -0.817000
vn 0.496000 0.126800 -0.859000
vn 0.344000 0.725600 -0.595900
vn -0.344000 0.725600 -0.595900
vn -0.496000 0.126800 -0.859000
vn -0.471700 -0.331600 -0.817000
vn 0.000000 -1.000000 0.000000
vn 0.943400 -0.331600 0.000000
vn 0.991900 0.126800 -0.000000
vn 0.688100 0.725600 -0.000000
vn 0.000000 1.000000 0.000000
vn 0.344000 0.725600 0.595900
vn 0.496000 0.126800 0.859000
vn 0.471700 -0.331600 0.817000
vn -0.471700 -0.331600 0.817000
vn -0.496000 0.126800 0.859000
vn -0.344000 0.725600 0.595900
vn -0.688100 0.725600 -0.000000
vn -0.991900 0.126800 -0.000000
vn -0.943400 -0.331600 0.000000
vn 0.992900 -0.118900 0.000000
vn 0.000000 -0.104200 -0.994600
vn -0.992900 -0.118900 0.000000
vn 0.000000 -0.104200 0.994600
usemtl Fall_Leafs.008
s 1
f 1/1/1 2/2/1 3/3/1
f 2/2/1 1/1/1 4/4/1
f 5/5/2 4/6/2 1/7/2
f 4/6/2 5/5/2 6/8/2
f 5/9/3 7/10/3 6/11/3
f 7/10/3 5/9/3 8/12/3
f 5/13/4 9/14/4 8/15/4
f 9/14/4 5/13/4 10/16/4
f 1/17/5 10/18/5 5/19/5
f 10/18/5 1/17/5 11/20/5
f 3/21/6 11/22/6 1/23/6
f 11/22/6 3/21/6 12/24/6
f 3/25/7 13/26/7 12/27/7
f 3/25/7 14/28/7 13/26/7
f 2/29/7 14/28/7 3/25/7
f 14/28/7 2/29/7 15/30/7
f 2/31/8 16/32/8 15/33/8
f 16/32/8 2/31/8 4/34/8
f 6/35/9 16/36/9 4/37/9
f 16/36/9 6/35/9 17/38/9
f 7/39/10 17/40/10 6/41/10
f 17/40/10 7/39/10 18/42/10
f 8/43/11 18/44/11 7/45/11
f 18/44/11 8/43/11 19/46/11
f 19/46/11 8/43/11 20/47/11
f 20/47/11 8/43/11 9/48/11
f 20/47/11 9/48/11 21/49/11
f 22/50/11 21/49/11 9/48/11
f 23/51/11 21/49/11 22/50/11
f 23/51/11 24/52/11 21/49/11
f 18/44/11 24/52/11 23/51/11
f 24/52/11 18/44/11 19/46/11
f 29/53/12 18/54/12 23/55/12
f 18/54/12 29/53/12 17/56/12
f 30/57/13 17/58/13 29/59/13
f 17/58/13 30/57/13 16/60/13
f 14/61/14 16/62/14 30/63/14
f 16/62/14 14/61/14 15/64/14
f 30/65/15 13/66/15 14/67/15
f 13/66/15 30/65/15 31/68/15
f 29/69/16 31/70/16 30/71/16
f 31/70/16 29/69/16 32/72/16
f 29/73/17 22/74/17 32/75/17
f 22/74/17 29/73/17 23/76/17
f 22/77/18 10/78/18 32/79/18
f 10/78/18 22/77/18 9/80/18
f 10/81/19 31/82/19 32/83/19
f 31/82/19 10/81/19 11/84/19
f 12/85/20 31/86/20 11/87/20
f 31/86/20 12/85/20 13/88/20
usemtl Green_leafs.046
f 19/89/21 25/90/21 24/91/21
f 25/90/21 19/89/21 26/92/21
f 19/93/22 27/94/22 26/95/22
f 27/94/22 19/93/22 20/96/22
f 20/97/23 28/98/23 27/99/23
f 28/98/23 20/97/23 21/100/23
f 21/101/24 25/102/24 28/103/24
f 25/102/24 21/101/24 24/104/24
f 25/105/11 27/106/11 28/107/11
f 27/106/11 25/105/11 26/108/11
