# Blender v2.76 (sub 0) OBJ File: ''
# www.blender.org
mtllib naturePack_136.mtl
o Mesh1_Rock_5_Model
v -0.659335 0.490000 0.264719
v -0.264719 0.490000 0.438916
v -0.264719 0.490000 0.378720
v -0.409184 0.490000 0.735281
v -0.490166 0.490000 0.735281
v -0.735281 0.490000 0.411171
v -0.735281 0.490000 0.264719
v -0.621864 0.000000 0.000000
v -1.000000 0.000000 0.000000
v -1.000000 0.000000 0.500000
v -0.621864 0.000000 1.000000
v -0.243728 0.000000 1.000000
v 0.000000 0.000000 0.179650
v 0.000000 0.000000 0.500000
vt 25.958099 10.422000
vt 10.422000 17.280199
vt 10.422000 14.910200
vt 16.109600 28.948099
vt 19.297899 28.948099
vt 28.948099 16.187799
vt 28.948099 10.422000
vt 24.482800 0.000000
vt 28.948099 21.926600
vt 25.958099 21.926600
vt 39.370098 0.000000
vt -24.482800 0.000000
vt -39.370098 19.684999
vt -39.370098 0.000000
vt -24.482800 39.370098
vt -9.595570 39.370098
vt 0.000000 7.072850
vt 0.000000 19.684999
vt -14.910200 21.926600
vt -19.684999 -0.000000
vt -7.072850 -0.000000
vt -17.280199 21.926600
vt -33.079899 17.826799
vt -17.694700 -4.099780
vt -20.099600 17.826799
vt -39.593899 -4.099780
vt -16.109600 3.213380
vt -24.482800 -18.713200
vt -9.595570 -18.713200
vt -19.297899 3.213380
vt 11.448300 1.357200
vt -8.047280 -20.569401
vt 16.633301 -20.569401
vt -4.550080 1.357200
vt 10.422000 3.213380
vt 19.684999 -18.713200
vt 16.187799 3.213380
vt 0.000000 -18.713200
vt -1.963000 3.229760
vt 22.045700 25.156300
vt 5.874390 25.156300
vt 23.521000 3.229760
vn 0.000000 1.000000 -0.000000
vn 0.123000 0.479000 -0.869200
vn 0.000000 0.475300 -0.879800
vn 0.000000 -1.000000 0.000000
vn 0.879800 0.475300 -0.000000
vn 0.790900 0.475300 0.385500
vn 0.000000 0.475300 0.879800
vn -0.701700 0.475300 0.530700
vn -0.879800 0.475300 -0.000000
vn 0.244200 0.475300 -0.845300
usemtl Stone.039
s 1
f 1/1/1 2/2/1 3/3/1
f 2/2/1 1/1/1 4/4/1
f 4/4/1 1/1/1 5/5/1
f 5/5/1 1/1/1 6/6/1
f 6/6/1 1/1/1 7/7/1
f 8/8/2 7/9/3 1/10/2
f 7/9/3 8/8/2 9/11/3
f 8/12/4 10/13/4 9/14/4
f 8/12/4 11/15/4 10/13/4
f 8/12/4 12/16/4 11/15/4
f 13/17/4 12/16/4 8/12/4
f 12/16/4 13/17/4 14/18/4
f 3/19/5 14/20/5 13/21/5
f 14/20/5 3/19/5 2/22/5
f 4/23/6 14/24/6 2/25/6
f 14/24/6 4/23/6 12/26/6
f 4/27/7 11/28/7 12/29/7
f 11/28/7 4/27/7 5/30/7
f 5/31/8 10/32/8 11/33/8
f 10/32/8 5/31/8 6/34/8
f 7/35/9 10/36/9 6/37/9
f 10/36/9 7/35/9 9/38/9
f 13/39/10 1/40/2 3/41/10
f 1/40/2 13/39/10 8/42/2
