# Blender v2.76 (sub 0) OBJ File: ''
# www.blender.org
mtllib naturePack_033.mtl
o Mesh1_Group1_Model.023
v -2.254330 0.832100 1.286090
v -1.930850 0.000000 1.355120
v -2.145850 0.832100 1.177610
v -2.224690 0.000000 1.648960
v -2.724690 0.000000 1.290190
v -2.404170 0.832100 1.178570
v -2.332170 0.832100 0.926507
v -2.147060 0.832100 1.176910
v -2.147060 0.832100 0.926507
v -2.096000 1.751120 1.147430
v -2.096000 1.751120 0.802400
v -2.193280 0.000000 0.648961
v -2.096000 1.751120 0.457368
v -2.193280 0.000000 0.401200
v -1.498390 0.000000 0.000000
v -1.498390 1.751120 0.112336
v -2.012330 2.444960 0.471199
v -1.498390 2.444960 0.174472
v -1.949000 3.584840 0.485642
v -1.522420 3.584840 0.239358
v -1.949000 3.584840 0.731925
v -1.481280 3.584840 0.872962
v -1.330570 3.584840 0.350123
v -1.448810 2.444960 0.937851
v -1.267240 2.444960 0.307924
v -0.984438 2.444960 0.767927
v -0.984438 2.444960 0.471199
v -0.900773 1.751120 0.802400
v -0.900773 1.751120 0.457368
v -0.868060 1.162300 0.507287
v -0.849186 0.822583 0.427585
v -0.796743 1.162300 0.466112
v -0.796743 0.542800 0.340640
v -0.882718 0.542800 0.390277
v -0.960153 0.330400 0.331944
v -0.796743 0.330400 0.237600
v -0.159349 0.330400 0.605600
v -0.261332 0.542800 0.649760
v -0.421955 1.162300 0.682496
v -0.421955 1.162300 0.805937
v -0.767868 1.162300 0.805937
v -0.868060 1.162300 1.005920
v -0.741895 1.162300 0.947636
v -0.718388 0.542800 1.028530
v -0.833643 0.542800 1.081770
v -0.900773 1.751120 1.147430
v -1.440740 1.751120 0.999986
v -1.498390 1.751120 1.492460
v -2.012330 2.444960 0.767927
v -1.498390 0.000000 1.604800
v -1.397670 0.000000 1.546650
v -1.101150 0.000000 0.229347
v -0.796743 0.000000 0.053600
v -0.796743 0.000000 1.893600
v 0.000000 0.000000 0.513600
v 0.000000 0.000000 1.433600
v -0.159349 0.330400 0.815534
v -0.261332 0.542800 0.826104
v -0.755492 0.542800 0.826104
v -0.659291 0.330400 1.297500
v -0.747635 0.330400 0.815534
v -0.159349 0.330400 1.341600
v -0.796743 0.330400 1.709600
v -1.115440 0.330400 1.525600
v -0.681284 0.542800 1.230960
v -1.064450 0.542800 1.422560
v -0.833643 0.542800 1.186190
v -1.153750 0.542800 1.371000
v -1.256680 0.330400 1.444060
v -2.541540 0.000000 0.648961
vt -98.561203 39.605499
vt -91.477501 5.071360
vt -92.521202 39.605499
vt -107.837997 5.071360
vt -42.591099 1.688030
vt -57.542702 -32.846100
vt -33.314301 -32.846100
vt -49.851700 1.688030
vt 88.753197 50.633400
vt 91.817596 36.476700
vt 94.652199 46.400600
vt 84.529800 46.334999
vt 84.529800 36.476700
vt 45.174500 64.258202
vt 36.476700 28.020500
vt 46.334999 28.020500
vt 31.590599 64.258202
vt 25.549601 -4.789890
vt 18.006599 64.258202
vt 15.795300 -4.789890
vt 80.467400 67.411903
vt 51.088200 -1.636150
vt 82.678703 -1.636150
vt 53.299500 67.411903
vt 77.887001 94.149300
vt 53.299500 66.750801
vt 80.467400 66.750801
vt 54.522701 94.149300
vt 76.012001 140.184998
vt 54.522701 95.274200
vt 77.887001 95.274200
vt 56.619598 140.184998
vt 76.732300 28.816000
vt 59.937901 9.423570
vt 76.732300 19.119801
vt 58.318001 34.368599
vt 52.384701 13.784400
vt -51.276901 98.089996
vt -27.754000 143.009003
vt -49.176201 143.009003
vt -25.466900 98.089996
vt 38.757401 30.233299
vt 49.891300 12.123000
vt 57.039799 36.923302
vt 38.757401 18.551100
vt -31.590599 72.691498
vt -18.551100 100.206001
vt -30.233299 100.206001
vt -18.006599 72.691498
vt -19.971901 47.585098
vt -18.006599 70.802803
vt -31.590599 70.802803
vt -16.834000 34.189800
vt 36.340801 45.107800
vt 37.370399 31.528900
vt 39.582901 45.107800
vt 33.870899 20.345600
vt 37.779301 20.345600
vt 33.870899 18.125601
vt 39.271198 9.055390
vt 37.779301 18.125601
vt 31.842501 9.055390
vt 20.459801 30.275400
vt -6.488190 21.205200
vt 22.488199 21.205200
vt -3.880310 30.275400
vt 17.989901 50.527000
vt -3.880310 25.764900
vt 20.459801 25.764900
vt 0.951807 50.527000
vt 31.367800 18.350901
vt 16.612400 31.729799
vt 16.612400 26.869900
vt 30.231001 31.729799
vt 34.175598 39.603001
vt 29.208500 37.308498
vt -47.633202 42.470600
vt -42.657101 17.861401
vt -42.161701 42.470600
vt -47.655399 17.861401
vt -39.603001 47.585098
vt -45.174500 70.802803
vt -42.589500 23.157801
vt 34.175598 19.971901
vt 56.722099 39.369499
vt 35.463501 45.174500
vt 35.463501 31.590599
vt 58.991600 58.758400
vt 82.519600 31.590599
vt -43.951302 91.678802
vt -69.885696 64.269699
vt -42.940899 64.269699
vt -67.123901 91.678802
vt -45.912601 138.684998
vt -67.123901 93.759903
vt -43.951302 93.759903
vt -65.145798 138.684998
vt 19.119801 136.660995
vt 30.233299 91.714897
vt 28.816000 136.660995
vt 18.551100 91.714897
vt 18.551100 86.081398
vt 31.590599 58.567001
vt 30.233299 86.081398
vt 18.006599 58.567001
vt -66.796700 67.141800
vt -46.786499 94.564102
vt -66.254402 94.564102
vt -44.159599 67.141800
vt 82.519600 45.174500
vt -50.037399 28.139000
vt -21.709000 64.376701
vt -48.876801 64.376701
vt -49.982498 28.139000
vt -39.157700 -4.671320
vt -19.497601 -4.671320
vt -58.991600 -0.000000
vt -58.991600 63.181099
vt -76.017700 53.351101
vt -55.026501 60.891899
vt -43.352200 9.029400
vt -31.367800 2.110240
vt -31.367800 74.551201
vt 0.000000 20.220501
vt 0.000000 56.440899
vt -23.842501 14.441700
vt -56.440899 0.000000
vt -20.220501 0.000000
vt -32.107601 14.441700
vt -25.581100 23.717800
vt -32.523800 23.717800
vt -26.869900 48.464600
vt -32.523800 23.268299
vt -25.581100 23.268299
vt -31.729799 48.464600
vt -16.612400 44.703201
vt -29.743799 20.300600
vt -10.288700 20.300600
vt -30.231001 44.703201
vt -31.431101 46.243999
vt -26.628201 21.851900
vt -25.759399 46.243999
vt -34.730598 21.851900
vt -45.566002 14.568700
vt -26.628201 22.939501
vt -34.730598 22.939501
vt -26.274599 14.568700
vt 6.273570 52.818901
vt 29.434500 32.107601
vt 25.956400 51.082802
vt 6.273570 32.107601
vt -52.818901 14.441700
vt -31.842501 -6.791810
vt -64.440903 -21.233500
vt -28.220501 -21.233500
vt -60.818901 -6.791810
vt 31.367800 67.307098
vt 43.915001 60.063000
vt -45.665001 10.583700
vt -66.140999 1.786970
vt -46.062302 1.786970
vt -62.531101 10.583700
vt 26.822201 48.463001
vt 32.820599 46.700401
vt 41.907398 56.006302
vt 28.283001 40.493401
vt -42.832901 22.939501
vt 32.820599 42.589500
vt -46.700401 23.157801
vt -53.299500 67.649002
vt -66.325897 20.004000
vt -51.773602 20.004000
vt -80.467400 67.649002
vt -71.273399 11.628900
vt -82.678703 -1.399010
vt -78.100304 -1.399010
vt -17.208401 -34.859901
vt -8.000000 -20.418200
vt -14.420800 -20.418200
vt 6.488190 -20.418200
vt 10.110200 -34.859901
vt -8.289760 -14.207700
vt -14.420800 -23.711901
vt -8.000000 -23.711901
vt -12.349400 -14.207700
vt 45.423199 53.976501
vt -10.288700 22.960300
vt -29.434500 14.587700
vt -6.273570 14.587700
vt -29.743799 22.960300
vt -10.110200 7.607090
vt 22.488199 22.048800
vt -6.488190 22.048800
vt 26.110201 7.607090
vt 28.220501 -6.019320
vt 39.271198 8.422370
vt 31.842501 8.422370
vt 42.058800 -6.019320
vt 33.029400 1.636150
vt 48.876801 70.684196
vt 26.202499 14.664100
vt 51.088200 1.636150
vt 22.414101 23.039200
vt 20.536400 34.071301
vt 21.709000 70.684196
vt 47.653702 98.710800
vt 21.709000 71.312202
vt 48.876801 71.312202
vt 24.289301 98.710800
vt 37.145599 98.710800
vt 47.195999 143.160995
vt 37.145599 98.203697
vt 47.653702 98.203697
vt 38.474300 143.160995
vt -86.349800 15.795300
vt -86.349800 25.549601
vt -87.586304 64.919701
vt -100.060997 25.549601
vt -107.271004 50.794800
vt 78.303200 -28.222601
vt 60.291401 6.311540
vt 52.048401 -28.222601
vt 70.612198 6.311540
vt 84.529800 42.618401
vt 100.060997 8.084220
vt 91.817596 42.618401
vt 86.349800 8.084220
vt 84.482201 46.362499
vn 0.670800 0.316400 0.670800
vn -0.553000 0.316400 0.770700
vn 0.000000 1.000000 -0.000000
vn -0.998500 0.055500 -0.000000
vn -0.996200 0.087700 -0.000000
vn -0.996200 0.087600 0.000000
vn -0.498900 0.066400 -0.864100
vn -0.499200 0.055500 -0.864700
vn -0.498900 0.066100 -0.864100
vn -0.499200 0.058100 -0.864600
vn -0.499600 0.038700 -0.865400
vn 0.960000 0.043100 0.276700
vn 0.996200 0.087600 0.000000
vn 0.992800 0.119700 0.000000
vn 0.998500 0.055500 0.000000
vn -0.492500 0.172800 -0.853000
vn -0.479700 0.281800 -0.830900
vn -0.455800 0.411000 -0.789500
vn 0.479700 0.281800 -0.830900
vn 0.455800 0.411000 -0.789500
vn 0.492500 0.172800 -0.853000
vn 0.415600 0.133300 0.899700
vn -0.288100 0.064300 0.955400
vn -0.287700 0.082100 0.954200
vn -0.288400 0.046200 0.956400
vn -0.996100 0.088000 0.000000
vn 0.342300 0.087800 0.935500
vn -0.499200 0.055500 0.864700
vn -0.499300 0.055600 0.864700
vn 0.000000 -1.000000 0.000000
vn 0.901200 0.433400 -0.000000
vn 0.900700 0.434400 -0.000000
vn 0.901000 0.433900 -0.000000
vn 0.939100 0.343500 -0.000000
vn 0.939300 0.343100 0.000000
vn 0.968000 0.251000 0.000000
vn 0.000000 0.032500 0.999500
vn 0.000000 -0.008300 1.000000
vn 0.000000 -0.008600 1.000000
vn 0.983500 0.013800 -0.180300
vn 0.983200 0.029600 -0.180200
vn 0.982600 0.045300 -0.180100
vn 0.450400 0.434400 0.780000
vn 0.425200 0.310400 0.850200
vn 0.499200 0.055500 0.864700
vn -0.450400 0.434400 0.780000
vn -0.445300 0.455000 0.771200
vn -0.445200 0.455000 0.771200
vn -0.439900 0.475300 0.762000
vn -0.439900 0.475300 0.761900
vn 0.000000 -0.049700 0.998800
vn 0.450400 0.434400 -0.780000
vn -0.450400 0.434400 -0.780000
vn 0.499200 0.055500 -0.864700
vn 0.498900 0.066100 -0.864100
vn 0.498900 0.066000 -0.864100
vn 0.498800 0.068600 -0.864000
vn 0.498500 0.077300 -0.863400
vn 0.498800 0.068500 -0.864000
vn 0.499100 0.059700 -0.864500
vn -0.912100 0.316400 -0.260500
vn 0.000000 0.316400 -0.948600
usemtl Stone.012
s 1
f 1/1/1 2/2/1 3/3/1
f 2/2/1 1/1/1 4/4/1
f 1/5/2 5/6/2 4/7/2
f 5/6/2 1/5/2 6/8/2
f 1/9/3 7/10/3 6/11/3
f 8/12/3 7/10/3 1/9/3
f 7/10/3 8/12/3 9/13/3
f 10/14/4 9/15/4 8/16/4
f 11/17/5 9/15/4 10/14/4
f 11/17/5 12/18/4 9/15/4
f 13/19/6 12/18/4 11/17/5
f 12/18/4 13/19/6 14/20/4
f 13/21/7 15/22/8 14/23/8
f 15/22/8 13/21/7 16/24/9
f 17/25/10 16/26/9 13/27/7
f 16/26/9 17/25/10 18/28/10
f 19/29/11 18/30/10 17/31/10
f 18/30/10 19/29/11 20/32/11
f 21/33/3 20/34/3 19/35/3
f 22/36/3 20/34/3 21/33/3
f 20/34/3 22/36/3 23/37/3
f 24/38/12 23/39/12 22/40/12
f 23/39/12 24/38/12 25/41/12
f 26/42/3 25/43/3 24/44/3
f 25/43/3 26/42/3 27/45/3
f 28/46/13 27/47/14 26/48/14
f 27/47/14 28/46/13 29/49/13
f 30/50/15 29/51/13 28/52/13
f 29/51/13 30/50/15 31/53/15
f 32/54/16 31/55/16 30/56/16
f 33/57/17 31/55/16 32/54/16
f 31/55/16 33/57/17 34/58/17
f 33/59/17 35/60/18 34/61/17
f 35/60/18 33/59/17 36/62/18
f 33/63/19 37/64/20 36/65/20
f 37/64/20 33/63/19 38/66/19
f 32/67/21 38/68/19 33/69/19
f 38/68/19 32/67/21 39/70/21
f 32/71/3 40/72/3 39/73/3
f 40/72/3 32/71/3 41/74/3
f 42/75/3 41/74/3 32/71/3
f 41/74/3 42/75/3 43/76/3
f 42/77/22 44/78/22 43/79/22
f 44/78/22 42/77/22 45/80/22
f 42/81/15 46/82/15 45/83/15
f 42/81/15 28/52/13 46/82/15
f 30/50/15 28/52/13 42/81/15
f 42/75/3 32/71/3 30/84/3
f 47/85/3 46/86/3 28/87/3
f 46/86/3 47/85/3 48/88/3
f 48/88/3 47/85/3 11/89/3
f 24/90/23 11/91/24 47/92/24
f 11/91/24 24/90/23 49/93/23
f 22/94/25 49/95/23 24/96/23
f 49/95/23 22/94/25 21/97/25
f 19/98/4 49/99/6 21/100/4
f 49/99/6 19/98/4 17/101/26
f 17/102/26 11/103/5 49/104/6
f 11/103/5 17/102/26 13/105/6
f 47/106/27 26/107/27 24/108/27
f 26/107/27 47/106/27 28/109/27
f 48/88/3 11/89/3 10/110/3
f 8/111/28 48/112/28 10/113/28
f 3/114/29 48/112/28 8/111/28
f 2/115/28 48/112/28 3/114/29
f 48/112/28 2/115/28 50/116/28
f 15/117/30 50/118/30 2/119/30
f 15/117/30 51/120/30 50/118/30
f 52/121/30 51/120/30 15/117/30
f 53/122/30 51/120/30 52/121/30
f 53/122/30 54/123/30 51/120/30
f 55/124/30 54/123/30 53/122/30
f 54/123/30 55/124/30 56/125/30
f 37/126/31 56/127/32 55/128/32
f 56/127/32 37/126/31 57/129/33
f 38/130/34 57/129/33 37/126/31
f 57/129/33 38/130/34 58/131/35
f 39/132/36 58/133/35 38/134/34
f 58/133/35 39/132/36 40/135/36
f 40/136/37 59/137/38 58/138/39
f 59/137/38 40/136/37 41/139/37
f 43/140/40 59/141/41 41/142/40
f 59/141/41 43/140/40 44/143/41
f 60/144/42 59/145/41 44/146/41
f 59/145/41 60/144/42 61/147/42
f 62/148/3 61/149/3 60/150/3
f 61/149/3 62/148/3 57/151/3
f 56/127/32 57/129/33 62/152/32
f 62/153/43 54/154/43 56/155/43
f 54/154/43 62/153/43 63/156/43
f 60/150/3 63/157/3 62/148/3
f 63/157/3 60/150/3 64/158/3
f 65/159/44 64/160/44 60/161/44
f 64/160/44 65/159/44 66/162/44
f 65/163/3 67/164/3 66/165/3
f 67/164/3 65/163/3 44/166/3
f 60/144/42 44/146/41 65/167/42
f 67/164/3 44/166/3 45/168/3
f 45/83/15 46/82/15 67/169/15
f 46/170/45 68/171/45 67/172/45
f 48/173/45 68/171/45 46/170/45
f 48/173/45 69/174/45 68/171/45
f 50/175/45 69/174/45 48/173/45
f 69/174/45 50/175/45 51/176/45
f 51/177/46 64/178/47 69/179/48
f 51/177/46 63/180/46 64/178/47
f 63/180/46 51/177/46 54/181/46
f 66/182/49 69/183/48 64/184/47
f 69/183/48 66/182/49 68/185/50
f 66/165/3 67/164/3 68/186/3
f 58/187/39 61/188/51 57/189/51
f 61/188/51 58/187/39 59/190/38
f 55/191/52 36/192/20 37/193/20
f 36/192/20 55/191/52 53/194/52
f 53/195/53 35/196/18 36/197/18
f 35/196/18 53/195/53 52/198/53
f 52/199/54 16/200/55 35/201/54
f 16/200/55 52/199/54 15/202/54
f 35/201/54 16/200/55 34/203/54
f 34/203/54 16/200/55 31/204/54
f 31/204/54 16/200/55 29/205/56
f 18/206/57 29/207/56 16/208/55
f 29/207/56 18/206/57 27/209/58
f 27/209/58 18/206/57 25/210/59
f 20/211/60 25/212/59 18/213/57
f 25/212/59 20/211/60 23/214/60
f 15/117/30 2/119/30 14/215/30
f 14/215/30 2/119/30 12/216/30
f 4/217/30 12/216/30 2/119/30
f 12/216/30 4/217/30 70/218/30
f 70/218/30 4/217/30 5/219/30
f 5/220/61 7/221/61 70/222/61
f 7/221/61 5/220/61 6/223/61
f 9/224/62 70/225/62 7/226/62
f 70/225/62 9/224/62 12/227/62
f 1/9/3 3/228/3 8/12/3
