# Blender v2.76 (sub 0) OBJ File: ''
# www.blender.org
mtllib naturePack_148.mtl
o Mesh1_Group1_Model.064
v -0.986828 1.417320 0.864746
v -0.658516 0.000000 0.791454
v -1.060120 0.000000 0.791454
v -0.731809 1.417320 0.864746
v -0.859319 1.417320 0.631296
v -0.546718 1.417320 0.811776
v -0.731809 1.417320 1.119770
v -0.859319 1.417320 1.353220
v -0.546718 1.417320 1.172740
v -0.338318 1.649170 1.293060
v -0.338318 1.649170 0.691456
v -0.859319 1.649170 0.390656
v -1.171920 1.417320 0.811776
v -1.380320 1.649170 0.691456
v -1.380320 1.649170 1.293060
v -1.171920 1.417320 1.172740
v -0.986828 1.417320 1.119770
v -1.060120 0.000000 1.193060
v -0.658516 0.000000 1.193060
v -0.859319 1.649170 1.593860
v -0.859319 3.244920 1.984509
v -1.718640 3.244920 1.488379
v -0.859319 7.868910 1.533299
v -1.327870 7.868910 1.262779
v -0.859319 8.248870 1.282149
v -1.110370 8.248870 1.137199
v -1.110370 8.248870 0.847310
v -0.859319 8.248870 0.702365
v -0.608267 8.248870 1.137199
v -0.608267 8.248870 0.847310
v -0.390764 7.868910 1.262779
v -0.390764 7.868910 0.721735
v 0.000000 3.244920 1.488379
v 0.000000 3.244920 0.496127
v -0.859319 3.244920 -0.000001
v -1.718640 3.244920 0.496127
v -1.327870 7.868910 0.721735
v -0.859319 7.868910 0.451214
vt 38.851501 57.483700
vt 25.925800 1.609180
vt 41.737099 1.609180
vt 28.811399 57.483700
vt -41.737099 -2.425730
vt -28.811399 53.448799
vt -38.851501 53.448799
vt -25.925800 -2.425730
vt -41.737099 46.970798
vt -25.925800 31.159599
vt -25.925800 46.970798
vt -41.737099 31.159599
vt 46.970798 -2.155440
vt 34.045101 53.719101
vt 31.159599 -2.155440
vt 44.085300 53.719101
vt -34.045101 57.213501
vt -46.970798 1.338900
vt -31.159599 1.338900
vt -44.085300 57.213501
vt -33.831501 24.854200
vt -28.811399 34.045101
vt -38.851501 34.045101
vt -21.524300 31.959700
vt -28.811399 44.085300
vt -33.831501 53.276199
vt -21.524300 46.170700
vt -31.959700 27.110701
vt -50.907700 39.384300
vt -46.170700 27.110701
vt -27.222700 39.384300
vt 2.660790 15.802700
vt 21.608801 28.076200
vt -2.076220 28.076200
vt 16.871799 15.802700
vt 55.937000 38.418800
vt 36.988998 50.692299
vt 41.726002 38.418800
vt 60.674000 50.692299
vt 31.959700 72.342796
vt 50.907700 84.616302
vt 27.222700 84.616302
vt 46.170700 72.342796
vt -46.138599 31.959700
vt -46.138599 46.170700
vt -38.851501 44.085300
vt 2.076220 95.924301
vt -16.871799 83.650803
vt -2.660790 83.650803
vt -21.608801 95.924301
vt 9.766300 142.516998
vt -21.608801 78.295502
vt 2.076220 78.295502
vt -29.298901 142.516998
vt 0.884107 302.872986
vt -29.298901 120.177002
vt 9.766300 120.177002
vt -20.416700 302.872986
vt -4.059810 251.725006
vt -20.416700 234.488007
vt 0.884107 234.488007
vt -15.472800 251.725006
vt 33.831501 50.478199
vt 43.715401 33.358700
vt 43.715401 44.771702
vt 33.831501 27.652201
vt 23.947500 44.771702
vt 23.947500 33.358700
vt -49.715599 276.506989
vt -33.358700 293.743011
vt -44.771702 293.743011
vt -28.414801 276.506989
vt -58.597801 127.299004
vt -28.414801 309.994995
vt -49.715599 309.994995
vt -19.532600 127.299004
vt -58.597801 124.974998
vt -27.222700 60.753700
vt -19.532600 124.974998
vt -50.907700 60.753700
vt -29.298901 135.500000
vt -60.674000 71.278801
vt -36.988998 71.278801
vt -68.364098 135.500000
vt -38.181099 305.721985
vt -68.364098 123.026001
vt -29.298901 123.026001
vt -59.481899 305.721985
vt -43.125000 268.532013
vt -59.481899 251.296005
vt -38.181099 251.296005
vt -54.537998 268.532013
vt -60.674000 73.308296
vt -41.726002 61.034801
vt -36.988998 73.308296
vt -55.937000 61.034801
vt -2.076220 57.245399
vt 29.298901 121.467003
vt -9.766300 121.467003
vt 21.608801 57.245399
vt 36.988998 64.262100
vt 68.364098 128.483002
vt 29.298901 128.483002
vt 60.674000 64.262100
vt 27.222700 74.787102
vt 58.597801 139.007996
vt 19.532600 139.007996
vt 50.907700 74.787102
vt 58.597801 121.600998
vt 28.414801 304.296997
vt 19.532600 121.600998
vt 49.715599 304.296997
vt 49.715599 242.891998
vt 33.358700 260.127991
vt 28.414801 242.891998
vt 44.771702 260.127991
vt 54.537998 285.339996
vt 38.181099 268.102997
vt 59.481899 268.102997
vt 43.125000 285.339996
vt 15.472800 302.147003
vt -0.884107 284.911011
vt 20.416700 284.911011
vt 4.059810 302.147003
vt -9.766300 128.723999
vt 20.416700 311.419006
vt -0.884107 311.419006
vt 29.298901 128.723999
vt 29.298901 125.875000
vt 59.481899 308.570007
vt 38.181099 308.570007
vt 68.364098 125.875000
vn 0.000000 0.051600 -0.998700
vn 0.000000 0.051600 0.998700
vn 0.000000 -1.000000 0.000000
vn -0.998700 0.051600 -0.000000
vn 0.998700 0.051600 -0.000000
vn 0.743700 -0.668500 0.000000
vn 0.371900 -0.668500 -0.644100
vn -0.371900 -0.668500 -0.644100
vn -0.743700 -0.668500 0.000000
vn -0.371900 -0.668500 0.644100
vn -0.489100 -0.207400 0.847200
vn -0.498200 0.084200 0.862900
vn -0.433900 0.496800 0.751600
vn 0.000000 1.000000 0.000000
vn 0.867900 0.496800 0.000000
vn 0.996400 0.084200 -0.000000
vn 0.978300 -0.207400 0.000000
vn 0.489100 -0.207400 0.847200
vn 0.498200 0.084200 0.862900
vn 0.433900 0.496800 0.751600
vn 0.371900 -0.668500 0.644100
vn 0.489100 -0.207400 -0.847200
vn -0.489100 -0.207400 -0.847200
vn -0.978300 -0.207400 0.000000
vn -0.996400 0.084200 -0.000000
vn -0.867900 0.496800 0.000000
vn -0.433900 0.496800 -0.751600
vn 0.433900 0.496800 -0.751600
vn 0.498200 0.084200 -0.862900
vn -0.498200 0.084200 -0.862900
usemtl Wood.090
s 1
f 1/1/1 2/2/1 3/3/1
f 2/2/1 1/1/1 4/4/1
f 18/5/2 7/6/2 17/7/2
f 7/6/2 18/5/2 19/8/2
f 18/9/3 2/10/3 19/11/3
f 2/10/3 18/9/3 3/12/3
f 18/13/4 1/14/4 3/15/4
f 1/14/4 18/13/4 17/16/4
f 4/17/5 19/18/5 2/19/5
f 19/18/5 4/17/5 7/20/5
usemtl Leafs.054
f 5/21/3 4/22/3 1/23/3
f 6/24/3 4/22/3 5/21/3
f 4/22/3 6/24/3 7/25/3
f 6/24/3 8/26/3 7/25/3
f 8/26/3 6/24/3 9/27/3
f 6/28/6 10/29/6 9/30/6
f 10/29/6 6/28/6 11/31/6
f 6/32/7 12/33/7 11/34/7
f 12/33/7 6/32/7 5/35/7
f 13/36/8 12/37/8 5/38/8
f 12/37/8 13/36/8 14/39/8
f 13/40/9 15/41/9 14/42/9
f 15/41/9 13/40/9 16/43/9
f 13/44/3 1/23/3 16/45/3
f 5/21/3 1/23/3 13/44/3
f 17/46/3 16/45/3 1/23/3
f 17/46/3 8/26/3 16/45/3
f 7/25/3 8/26/3 17/46/3
f 20/47/10 16/48/10 8/49/10
f 16/48/10 20/47/10 15/50/10
f 21/51/11 15/52/11 20/53/11
f 15/52/11 21/51/11 22/54/11
f 23/55/12 22/56/12 21/57/12
f 22/56/12 23/55/12 24/58/12
f 25/59/13 24/60/13 23/61/13
f 24/60/13 25/59/13 26/62/13
f 25/63/14 27/64/14 26/65/14
f 25/63/14 28/66/14 27/64/14
f 29/67/14 28/66/14 25/63/14
f 28/66/14 29/67/14 30/68/14
f 31/69/15 30/70/15 29/71/15
f 30/70/15 31/69/15 32/72/15
f 33/73/16 32/74/16 31/75/16
f 32/74/16 33/73/16 34/76/16
f 33/77/17 11/78/17 34/79/17
f 11/78/17 33/77/17 10/80/17
f 33/81/18 20/82/18 10/83/18
f 20/82/18 33/81/18 21/84/18
f 31/85/19 21/86/19 33/87/19
f 21/86/19 31/85/19 23/88/19
f 29/89/20 23/90/20 31/91/20
f 23/90/20 29/89/20 25/92/20
f 20/93/21 9/94/21 10/95/21
f 9/94/21 20/93/21 8/96/21
f 11/97/22 35/98/22 34/99/22
f 35/98/22 11/97/22 12/100/22
f 12/101/23 36/102/23 35/103/23
f 36/102/23 12/101/23 14/104/23
f 14/105/24 22/106/24 36/107/24
f 22/106/24 14/105/24 15/108/24
f 22/109/25 37/110/25 36/111/25
f 37/110/25 22/109/25 24/112/25
f 24/113/26 27/114/26 37/115/26
f 27/114/26 24/113/26 26/116/26
f 27/117/27 38/118/27 37/119/27
f 38/118/27 27/117/27 28/120/27
f 28/121/28 32/122/28 38/123/28
f 32/122/28 28/121/28 30/124/28
f 34/125/29 38/126/29 32/127/29
f 38/126/29 34/125/29 35/128/29
f 35/129/30 37/130/30 38/131/30
f 37/130/30 35/129/30 36/132/30
