# Blender v2.76 (sub 0) OBJ File: ''
# www.blender.org
mtllib naturePack_091.mtl
o Mesh1_Plate_River_Corner_Dirt_Model
v -3.000000 0.300000 -0.000000
v 0.000000 0.000000 0.000000
v -3.000000 0.000000 0.000000
v 0.000000 0.300000 -0.000000
v -0.857709 0.300000 0.699307
v 0.000000 0.300000 0.758698
v -0.857709 0.150000 0.699307
v 0.000000 0.150000 0.758698
v -0.534905 0.150000 2.413340
v 0.000000 0.150000 2.241300
v -0.534905 0.300000 2.413340
v 0.000000 0.300000 2.241300
v 0.000000 0.300000 3.000000
v -0.758698 0.300000 3.000000
v -0.758698 0.150000 3.000000
v -2.241300 0.150000 3.000000
v -1.812920 0.150000 1.828320
v -1.584840 0.150000 1.095160
v -1.584840 0.300000 1.095160
v -1.812920 0.300000 1.828320
v -2.367710 0.300000 2.365910
v -3.000000 0.300000 3.000000
v -2.241300 0.300000 3.000000
v -3.000000 0.000000 3.000000
v 0.000000 0.000000 3.000000
v -2.367710 0.150000 2.365910
vt 118.110001 11.811000
vt 0.000000 0.000000
vt 118.110001 0.000000
vt 0.000000 11.811000
vt -31.785601 5.905510
vt 2.063370 11.811000
vt -31.785601 11.811000
vt 2.063370 5.905510
vt 49.139198 11.811000
vt 27.017500 5.905510
vt 49.139198 5.905510
vt 27.017500 11.811000
vt 96.279503 11.811000
vt 121.000000 5.905510
vt 121.000000 11.811000
vt 96.279503 5.905510
vt -42.821999 11.811000
vt -75.416496 5.905510
vt -42.821999 5.905510
vt -75.416496 11.811000
vt -118.110001 11.811000
vt -88.240196 5.905510
vt -88.240196 11.811000
vt -118.110001 0.000000
vt -29.870001 5.905510
vt -29.870001 11.811000
vt -118.110001 118.110001
vt 0.000000 118.110001
vt -73.123901 5.905510
vt -98.579201 11.811000
vt -98.579201 5.905510
vt -73.123901 11.811000
vt -101.348999 5.905510
vt -131.763000 11.811000
vt -131.763000 5.905510
vt -101.348999 11.811000
vt -59.704899 5.905510
vt -89.934097 11.811000
vt -89.934097 5.905510
vt -59.704899 11.811000
vt 21.059299 95.013496
vt -0.000000 29.870001
vt 33.768101 27.531799
vt -0.000000 88.240196
vt 29.870001 118.110001
vt 88.240196 118.110001
vt 71.374901 71.981201
vt 62.395302 43.116501
vt 93.217003 93.146202
vt 118.110001 118.110001
vn 0.000000 -0.000000 -1.000000
vn -0.069100 0.000000 0.997600
vn -0.306200 0.000000 -0.952000
vn -0.934300 0.000000 -0.356400
vn 0.478100 0.000000 0.878300
vn 0.000000 0.000000 1.000000
vn 1.000000 -0.000000 0.000000
vn 0.000000 -1.000000 0.000000
vn -1.000000 0.000000 0.000000
vn 0.980700 0.000000 -0.195500
vn 0.695900 0.000000 0.718200
vn 0.954900 0.000000 0.297000
vn 0.000000 1.000000 -0.000000
usemtl Wood.058
s 1
f 1/1/1 2/2/1 3/3/1
f 2/2/1 1/1/1 4/4/1
f 7/5/2 6/6/2 5/7/2
f 6/6/2 7/5/2 8/8/2
f 11/9/3 10/10/3 9/11/3
f 10/10/3 11/9/3 12/12/3
f 11/13/4 15/14/4 14/15/4
f 15/14/4 11/13/4 9/16/4
f 5/17/5 18/18/5 7/19/5
f 18/18/5 5/17/5 19/20/5
f 22/21/6 16/22/6 23/23/6
f 24/24/6 16/22/6 22/21/6
f 16/22/6 24/24/6 15/25/6
f 25/2/6 15/25/6 24/24/6
f 15/25/6 25/2/6 13/4/6
f 25/24/7 10/22/7 13/21/7
f 25/24/7 8/25/7 10/22/7
f 2/2/7 8/25/7 25/24/7
f 2/2/7 6/26/7 8/25/7
f 6/26/7 2/2/7 4/4/7
f 24/27/8 2/2/8 25/28/8
f 2/2/8 24/27/8 3/24/8
f 24/3/9 1/4/9 3/2/9
f 1/4/9 24/3/9 22/1/9
f 13/21/7 10/22/7 12/23/7
f 15/25/6 13/4/6 14/26/6
f 26/29/10 23/30/10 16/31/10
f 23/30/10 26/29/10 21/32/10
f 17/33/11 21/34/11 26/35/11
f 21/34/11 17/33/11 20/36/11
f 18/37/12 20/38/12 17/39/12
f 20/38/12 18/37/12 19/40/12
usemtl Water.003
f 9/41/13 8/42/13 7/43/13
f 8/42/13 9/41/13 10/44/13
f 9/41/13 7/43/13 15/45/13
f 15/45/13 7/43/13 16/46/13
f 16/46/13 7/43/13 17/47/13
f 17/47/13 7/43/13 18/48/13
f 16/46/13 17/47/13 26/49/13
usemtl Leafs.028
f 5/43/13 4/2/13 1/3/13
f 4/2/13 5/43/13 6/42/13
f 11/41/13 13/28/13 12/44/13
f 13/28/13 11/41/13 14/45/13
f 5/43/13 1/3/13 19/48/13
f 19/48/13 1/3/13 20/47/13
f 20/47/13 1/3/13 21/49/13
f 22/50/13 21/49/13 1/3/13
f 21/49/13 22/50/13 23/46/13
