# Blender v2.76 (sub 0) OBJ File: ''
# www.blender.org
mtllib naturePack_flat_007.mtl
o Mesh1_Hanging_Moss_Model
v 0.000000 1.430000 0.630000
v 0.000000 1.169170 0.173333
v 0.000000 1.430000 0.173333
v 0.000000 1.011040 0.235744
v 0.000000 0.221043 0.235744
v 0.000000 0.502914 0.388156
v 0.000000 0.910641 0.509078
v 0.000000 0.958367 0.630000
v 0.000000 0.550641 0.509078
v 0.000000 0.062914 0.298156
v 0.000000 0.062914 0.388156
vt -15.281700 19.799801
vt -24.803101 56.299198
vt -20.042400 35.852001
vt -9.281260 8.702500
vt -11.738400 2.476940
vt -6.824120 56.299198
vt -6.824120 46.030399
vt -9.281260 39.804901
vt -24.803101 37.730999
vt -20.042400 21.678801
vt -15.281700 2.476940
vn 1.000000 0.000000 0.000000
vn -1.000000 0.000000 0.000000
usemtl Green_leafs.054
s 1
f 6/1/1 1/2/1 7/3/1
f 5/4/1 6/1/1 10/5/1
usemtl BackColor
f 3/6/2 2/7/2 1/2/2
f 4/8/2 1/2/2 2/7/2
f 5/4/2 1/2/2 4/8/2
f 6/1/2 1/2/2 5/4/2
f 8/9/2 1/2/2 7/3/2
f 7/3/2 6/1/2 9/10/2
f 6/1/2 10/5/2 11/11/2
