# Blender v2.76 (sub 0) OBJ File: ''
# www.blender.org
mtllib naturePack_006.mtl
o Mesh1_Plate_Grass_Model.003
v -3.000000 0.300000 -0.000000
v 0.000000 0.000000 0.000000
v -3.000000 0.000000 0.000000
v 0.000000 0.300000 -0.000000
v 0.000000 0.300000 3.000000
v -3.000000 0.300000 3.000000
v -3.000000 0.000000 3.000000
v 0.000000 0.000000 3.000000
vt 118.110001 0.000000
vt 0.000000 118.110001
vt 0.000000 0.000000
vt 118.110001 118.110001
vt 118.110001 11.811000
vt 0.000000 11.811000
vt -118.110001 118.110001
vt -118.110001 0.000000
vt -118.110001 11.811000
vn 0.000000 1.000000 -0.000000
vn 0.000000 -0.000000 -1.000000
vn -1.000000 0.000000 0.000000
vn 0.000000 -1.000000 0.000000
vn 1.000000 0.000000 0.000000
vn 0.000000 0.000000 1.000000
usemtl Leafs.005
s 1
f 1/1/1 5/2/1 4/3/1
f 5/2/1 1/1/1 6/4/1
usemtl Stone.001
f 1/5/2 2/3/2 3/1/2
f 2/3/2 1/5/2 4/6/2
f 1/6/3 7/1/3 6/5/3
f 7/1/3 1/6/3 3/3/3
f 2/3/4 7/7/4 3/8/4
f 7/7/4 2/3/4 8/2/4
f 2/3/5 5/9/5 8/8/5
f 5/9/5 2/3/5 4/6/5
f 5/6/6 7/8/6 8/3/6
f 7/8/6 5/6/6 6/9/6
