# Blender v2.76 (sub 0) OBJ File: ''
# www.blender.org
mtllib naturePack_142.mtl
o Mesh1_Grey_Cliff_Top_Corner_Model
v -0.920000 0.290000 -0.000000
v -0.920000 0.290000 0.710938
v -0.204709 0.290000 -0.000000
v -0.920000 0.000000 0.780000
v -0.920000 0.000000 0.000000
v -0.140000 0.000000 0.000000
v 0.000000 0.290000 -0.000000
v -0.920000 0.290000 0.920000
vt 36.220501 0.000000
vt 36.220501 27.989700
vt 8.059430 -0.000000
vt -0.000000 11.417300
vt 30.708700 -0.000000
vt 27.989700 11.417300
vt -0.000000 -0.000000
vt 36.220501 11.417300
vt 5.511810 0.000000
vt 8.059430 11.417300
vt 36.220501 36.220501
vt -47.326000 -1.259100
vt -0.000000 10.805100
vt -51.223499 10.805100
vt -3.897440 -1.259100
vt -36.220501 0.000000
vt -5.511810 0.000000
vt -36.220501 30.708700
vn 0.000000 1.000000 -0.000000
vn -1.000000 -0.000000 0.000000
vn 0.000000 -0.000200 -1.000000
vn 0.000000 -0.000000 -1.000000
vn 0.000000 -0.000300 -1.000000
vn 0.669200 -0.323100 0.669200
vn 0.000000 -1.000000 0.000000
usemtl Leafs.049
s 1
f 1/1/1 2/2/1 3/3/1
usemtl Stone.042
f 1/4/2 4/5/2 2/6/2
f 4/5/2 1/4/2 5/7/2
f 1/8/3 6/9/4 5/1/4
f 6/9/4 1/8/3 7/4/5
f 7/4/5 1/8/3 3/10/4
f 3/3/1 8/11/1 7/7/1
f 8/11/1 3/3/1 2/2/1
f 2/6/2 4/5/2 8/8/2
f 4/12/6 7/13/6 8/14/6
f 7/13/6 4/12/6 6/15/6
f 5/16/7 6/17/7 4/18/7
