# Blender v2.76 (sub 0) OBJ File: ''
# www.blender.org
mtllib naturePack_105.mtl
o Mesh1_Grey_Cliff_Corner_Model
v -0.780000 0.000000 0.000000
v 0.000000 0.000000 0.000000
v -0.780000 0.000000 0.780000
v -0.780000 2.200000 -0.000000
v 0.000000 2.200000 -0.000000
v -0.780000 2.200000 0.780000
vt -30.708700 0.000000
vt 0.000000 0.000000
vt -30.708700 30.708700
vt 30.708700 86.614197
vt 30.708700 0.000000
vt 0.000000 86.614197
vt 30.708700 30.708700
vt -43.428600 86.614197
vt -43.428600 0.000000
vn 0.000000 -1.000000 0.000000
vn 0.000000 -0.000000 -1.000000
vn 0.000000 1.000000 -0.000000
vn 0.707100 0.000000 0.707100
vn -1.000000 0.000000 0.000000
usemtl Stone.033
s 1
f 1/1/1 2/2/1 3/3/1
f 4/4/2 2/2/2 1/5/2
f 2/2/2 4/4/2 5/6/2
f 6/7/3 5/2/3 4/5/3
f 6/8/4 2/2/4 5/6/4
f 2/2/4 6/8/4 3/9/4
f 4/6/5 3/5/5 6/4/5
f 3/5/5 4/6/5 1/2/5
