# Blender v2.76 (sub 0) OBJ File: ''
# www.blender.org
mtllib naturePack_137.mtl
o Mesh1_Rock_3_Model
v -0.376736 0.680000 0.620532
v -0.210336 0.320000 0.424352
v -0.263472 0.680000 0.424352
v -0.350168 0.320000 0.666549
v -0.629832 0.320000 0.666549
v -0.603264 0.680000 0.620532
v -0.603264 0.680000 0.228173
v -0.376736 0.680000 0.228173
v -0.350168 0.320000 0.182156
v -0.294000 0.320000 0.084870
v -0.098000 0.320000 0.424352
v -0.294000 0.320000 0.763834
v -0.686000 0.320000 0.763834
v -0.769664 0.320000 0.424352
v -0.716528 0.680000 0.424352
v -0.629832 0.320000 0.182156
v -0.686000 0.320000 0.084870
v -0.245000 0.000000 0.000000
v -0.735000 0.000000 0.000000
v -0.245000 0.000000 0.848705
v 0.000000 0.000000 0.424352
v -0.735000 0.000000 0.848705
v -0.980000 0.000000 0.424352
v -0.882000 0.320000 0.424352
vt -28.573400 26.635401
vt -18.608999 12.346900
vt -19.655001 26.635401
vt -29.619400 12.346900
vt -14.832100 23.457899
vt -24.796499 9.169400
vt -13.786100 9.169400
vt -23.750601 23.457899
vt 14.832100 24.430401
vt 23.750601 8.983200
vt 23.750601 24.430401
vt 14.832100 8.983200
vt 10.372900 16.706800
vt -10.328000 14.465200
vt -0.363618 28.753799
vt -9.282050 28.753799
vt 0.682372 14.465200
vt 8.280930 16.706800
vt 11.574800 3.341360
vt 13.786100 7.171490
vt 3.858270 16.706800
vt 11.574800 30.072201
vt 13.786100 26.242100
vt 27.007900 30.072201
vt 24.796499 26.242100
vt 30.301800 16.706800
vt 9.282050 22.398800
vt -0.682372 8.110230
vt 10.328000 8.110230
vt 0.363618 22.398800
vt 28.209801 16.706800
vt 19.655001 24.517099
vt 29.619400 10.228600
vt 28.573400 24.517099
vt 18.608999 10.228600
vt 23.750601 27.694599
vt 13.786100 13.406000
vt 24.796499 13.406000
vt 14.832100 27.694599
vt 27.007900 3.341360
vt 24.796499 7.171490
vt 9.645670 0.000000
vt 27.007900 13.034000
vt 11.574800 13.034000
vt 28.937000 0.000000
vt -9.645670 0.000000
vt -9.645670 33.413601
vt -28.937000 0.000000
vt 0.000000 16.706800
vt 2.893700 15.175400
vt -14.468500 2.141450
vt 4.822830 2.141450
vt -12.539400 15.175400
vt -31.830700 10.892500
vt -14.468500 -2.141450
vt -16.397600 10.892500
vt -33.759800 -2.141450
vt -11.574800 4.468180
vt -28.937000 -8.565810
vt -9.645670 -8.565810
vt -27.007900 4.468180
vt 12.539400 2.326730
vt -4.822830 -10.707300
vt 14.468500 -10.707300
vt -2.893700 2.326730
vt 34.724400 16.706800
vt 16.397600 6.609640
vt 33.759800 -6.424360
vt 31.830700 6.609640
vt 14.468500 -6.424360
vt -28.937000 33.413601
vt -38.582699 16.706800
vn 0.859000 0.126800 0.496000
vn 0.000000 0.126800 0.991900
vn 0.000000 1.000000 -0.000000
vn 0.859000 0.126800 -0.496000
vn -0.859000 0.126800 0.496000
vn -0.859000 0.126800 -0.496000
vn 0.000000 0.126800 -0.991900
vn 0.000000 0.256400 -0.966600
vn -0.000000 -1.000000 0.000000
vn 0.837100 0.256400 -0.483300
vn 0.837100 0.256400 0.483300
vn 0.000000 0.256400 0.966600
vn -0.837100 0.256400 0.483300
vn -0.837100 0.256400 -0.483300
usemtl Stone.040
s 1
f 1/1/1 2/2/1 3/3/1
f 2/2/1 1/1/1 4/4/1
f 1/5/2 5/6/2 4/7/2
f 5/6/2 1/5/2 6/8/2
f 1/9/3 7/10/3 6/11/3
f 1/9/3 8/12/3 7/10/3
f 8/12/3 1/9/3 3/13/3
f 2/14/4 8/15/4 3/16/4
f 8/15/4 2/14/4 9/17/4
f 2/18/3 10/19/3 9/20/3
f 10/19/3 2/18/3 11/21/3
f 2/18/3 12/22/3 11/21/3
f 12/22/3 2/18/3 4/23/3
f 12/22/3 4/23/3 13/24/3
f 13/24/3 4/23/3 5/25/3
f 13/24/3 5/25/3 14/26/3
f 6/27/5 14/28/5 5/29/5
f 14/28/5 6/27/5 15/30/5
f 6/11/3 7/10/3 15/31/3
f 7/32/6 14/33/6 15/34/6
f 14/33/6 7/32/6 16/35/6
f 7/36/7 9/37/7 16/38/7
f 9/37/7 7/36/7 8/39/7
f 9/20/3 17/40/3 16/41/3
f 9/20/3 10/19/3 17/40/3
f 18/42/8 17/43/8 10/44/8
f 17/43/8 18/42/8 19/45/8
f 18/46/9 20/47/9 19/48/9
f 20/47/9 18/46/9 21/49/9
f 10/50/10 21/51/10 18/52/10
f 21/51/10 10/50/10 11/53/10
f 12/54/11 21/55/11 11/56/11
f 21/55/11 12/54/11 20/57/11
f 12/58/12 22/59/12 20/60/12
f 22/59/12 12/58/12 13/61/12
f 13/62/13 23/63/13 22/64/13
f 23/63/13 13/62/13 24/65/13
f 13/24/3 14/26/3 24/66/3
f 14/26/3 17/40/3 24/66/3
f 16/41/3 17/40/3 14/26/3
f 17/67/14 23/68/14 24/69/14
f 23/68/14 17/67/14 19/70/14
f 19/48/9 22/71/9 23/72/9
f 19/48/9 20/47/9 22/71/9
