# Blender v2.76 (sub 0) OBJ File: ''
# www.blender.org
mtllib naturePack_116.mtl
o Mesh1_Brown_Cliff_Green_Top_Model
v 0.280000 2.200001 3.000000
v -0.500000 0.000000 3.000000
v 0.280000 0.000000 3.000000
v -0.500000 2.200001 3.000000
v 0.133829 2.200001 2.387190
v -0.082659 2.200000 1.274920
v 0.280000 2.200000 1.924320
v 0.280000 0.000000 1.924320
v 0.133829 0.000000 2.387190
v -0.082659 0.000000 1.274920
v -0.500000 -0.000000 -0.000000
v 0.161050 0.000000 0.371864
v 0.280000 -0.000000 -0.000000
v 0.280000 2.200000 -0.000000
v -0.500000 2.200000 -0.000000
v 0.161050 2.200000 0.371864
v 0.280000 2.200000 0.701031
v 0.280000 0.000000 0.701031
vt 11.023600 86.614197
vt -19.684999 0.000000
vt 11.023600 -0.000000
vt -19.684999 86.614197
vt -88.034897 86.614197
vt -68.924301 0.000000
vt -68.924301 86.614197
vt -88.034897 -0.000000
vt -117.445000 86.614197
vt -92.641701 0.000000
vt -92.641701 86.614197
vt -117.445000 -0.000000
vt -19.684999 118.110001
vt 5.268870 93.983902
vt 11.023600 118.110001
vt -3.254290 50.193600
vt 6.340550 14.640300
vt 19.684999 0.000000
vt -11.023600 86.614197
vt -11.023600 -0.000000
vt 19.684999 86.614197
vt 118.110001 -0.000000
vt -0.000000 86.614197
vt -0.000000 -0.000000
vt 118.110001 86.614197
vt -12.012500 86.614197
vt 3.358540 -0.000000
vt 3.358540 86.614197
vt -12.012500 -0.000000
vt -29.703300 86.614197
vt -15.923800 -0.000000
vt -15.923800 86.614197
vt -29.703300 0.000000
vt -44.169800 86.614197
vt -17.442499 0.000000
vt -17.442499 86.614197
vt -44.169800 0.000000
vt -71.519798 86.614197
vt -42.236401 0.000000
vt -42.236401 86.614197
vt -71.519798 0.000000
vt 11.023600 75.760399
vt 11.023600 27.599600
vt -5.268870 93.983902
vt 19.684999 118.110001
vt -11.023600 118.110001
vt 3.254290 50.193600
vt -11.023600 75.760399
vt -6.340550 14.640300
vt -11.023600 27.599600
vn 0.000000 0.000000 1.000000
vn 0.953600 0.000000 0.301100
vn 0.972700 -0.000000 -0.232000
vn 0.000000 -1.000000 0.000000
vn 0.000000 -0.000000 -1.000000
vn -1.000000 -0.000000 0.000000
vn 0.952500 0.000000 0.304700
vn 0.940500 -0.000000 -0.339900
vn 0.845400 0.000000 0.534200
vn 0.873100 -0.000000 -0.487600
vn -0.000000 1.000000 -0.000000
usemtl Wood.067
s 1
f 1/1/1 2/2/1 3/3/1
f 2/2/1 1/1/1 4/4/1
f 5/5/2 8/6/2 7/7/2
f 8/6/2 5/5/2 9/8/2
f 1/9/3 9/10/3 5/11/3
f 9/10/3 1/9/3 3/12/3
f 2/13/4 9/14/4 3/15/4
f 9/14/4 2/13/4 10/16/4
f 11/2/4 10/16/4 2/13/4
f 11/2/4 12/17/4 10/16/4
f 12/17/4 11/2/4 13/3/4
f 11/18/5 14/19/5 13/20/5
f 14/19/5 11/18/5 15/21/5
f 2/22/6 15/23/6 11/24/6
f 15/23/6 2/22/6 4/25/6
f 16/26/7 13/27/7 14/28/7
f 13/27/7 16/26/7 12/29/7
f 17/30/8 12/31/8 16/32/8
f 12/31/8 17/30/8 18/33/8
f 6/34/9 18/35/9 17/36/9
f 18/35/9 6/34/9 10/37/9
f 7/38/10 10/39/10 6/40/10
f 10/39/10 7/38/10 8/41/10
f 10/16/4 8/42/4 9/14/4
f 10/16/4 12/17/4 18/43/4
usemtl Leafs.041
f 5/44/11 4/45/11 1/46/11
f 4/45/11 5/44/11 6/47/11
f 6/47/11 5/44/11 7/48/11
f 6/47/11 15/18/11 4/45/11
f 16/49/11 15/18/11 6/47/11
f 15/18/11 16/49/11 14/20/11
f 6/47/11 17/50/11 16/49/11
