# Blender v2.76 (sub 0) OBJ File: ''
# www.blender.org
mtllib naturePack_138.mtl
o Mesh1_Fallen_Trunk_Model
v -2.190000 0.795200 -0.000000
v -1.860000 0.000000 0.122500
v -2.190000 0.000000 -0.000000
v -1.860000 0.710000 0.122500
v -1.860000 0.710000 0.822500
v -2.190000 0.795200 0.945000
v -2.190000 0.696053 0.119507
v -2.190000 0.099147 0.119507
v -2.190000 0.000000 0.945000
v -1.860000 0.000000 0.822500
v -0.410000 0.000000 0.154000
v -0.410000 0.000000 0.791000
v 0.000000 0.000000 0.074375
v 0.000000 0.000000 0.870625
v -0.000000 0.087639 0.175071
v -0.000000 0.615261 0.175071
v 0.000000 0.702900 0.074375
v 0.000000 0.702900 0.870625
v -0.410000 0.639000 0.154000
v -0.410000 0.639000 0.791000
v -1.860000 0.621476 0.211024
v -1.860000 0.088524 0.211024
v -1.860000 0.088524 0.733976
v -1.860000 0.621476 0.733976
v -2.190000 0.696053 0.825493
v -2.190000 0.099147 0.825493
v -0.410000 0.079672 0.710443
v -0.410000 0.079672 0.234557
v -0.000000 0.087639 0.769929
v -0.000000 0.615261 0.769929
v -0.410000 0.559328 0.710443
v -0.410000 0.559328 0.234557
v -0.808992 0.154074 0.799668
v -1.162290 0.154074 0.807343
v -1.162290 0.474074 0.807343
v -0.922896 0.205274 1.175050
v -0.922896 0.422874 1.175050
v -0.718944 0.422874 1.170620
v -0.718944 0.205274 1.170620
v -0.808992 0.474074 0.799668
vt 0.000000 31.307100
vt 4.705010 27.403700
vt 37.204700 31.307100
vt 4.705010 3.903420
vt 0.000000 0.000000
vt 37.204700 0.000000
vt -2.928150 0.000000
vt -6.892560 3.450340
vt -34.276600 0.000000
vt -6.892560 24.222900
vt -2.928150 27.673201
vt -34.276600 27.673201
vt 32.499699 27.403700
vt 32.499699 3.903420
vt -30.312201 3.450340
vt -30.312201 24.222900
vt -37.330700 8.081630
vt -29.299200 16.648600
vt -37.330700 16.648600
vt -29.299200 8.081630
vt 80.831001 31.307100
vt 66.972603 0.000000
vt 80.831001 0.000000
vt 66.972603 27.952801
vt -0.000000 91.309196
vt -32.381901 77.891098
vt -4.822830 77.891098
vt -37.204700 91.309196
vt -73.228302 4.822830
vt -86.220497 37.204700
vt -86.220497 -0.000000
vt -73.228302 32.381901
vt -16.141701 6.062990
vt -16.141701 31.141701
vt 0.000000 2.928150
vt 0.000000 34.276600
vt 6.062990 -12.075100
vt 34.276600 4.261530
vt 2.928150 4.261530
vt 31.141701 -12.075100
vt -4.822830 74.507797
vt -31.141701 17.352800
vt -6.062990 17.352800
vt -32.381901 74.507797
vt 4.822830 27.952801
vt 8.308030 24.467600
vt 32.381901 27.952801
vt 8.308030 3.485190
vt 4.822830 0.000000
vt 32.381901 0.000000
vt 28.896700 3.485190
vt 28.896700 24.467600
vt 32.499699 90.140297
vt 8.308030 76.820503
vt 28.896700 76.820503
vt 4.705010 90.140297
vt -28.896700 73.302597
vt -4.705010 86.301399
vt -32.499699 86.301399
vt -8.308030 73.302597
vt -27.970200 16.160601
vt -8.308030 73.248299
vt -28.896700 73.248299
vt -9.234520 16.160601
vt 30.312201 0.067035
vt 9.234520 -16.077700
vt 27.970200 -16.077700
vt 6.892560 0.067035
vt -27.970200 -13.017000
vt -6.892560 3.274200
vt -30.312201 3.274200
vt -9.234520 -13.017000
vt 28.896700 74.208900
vt 9.234520 17.069901
vt 27.970200 17.069901
vt 8.308030 74.208900
vt -73.083900 3.485190
vt -15.989800 22.020800
vt -73.083900 24.467600
vt -15.989800 3.136670
vt -0.989661 3.450340
vt -17.300400 22.020800
vt -17.300400 3.136670
vt -0.989661 24.222900
vt -9.234520 3.136670
vt -6.062990 0.000000
vt -9.234520 22.020800
vt -31.141701 0.000000
vt -27.970200 3.136670
vt -31.141701 25.157499
vt -27.970200 22.020800
vt -6.062990 25.157499
vt 0.558238 27.673201
vt 17.001600 0.000000
vt 17.001600 25.157499
vt 0.558238 0.000000
vt 73.106300 0.000000
vt 16.006201 25.157499
vt 16.006201 0.000000
vt 73.106300 27.952801
vt 11.958400 22.020800
vt -4.352340 3.450340
vt 11.958400 3.136670
vt -4.352340 24.222900
vt 73.687599 3.485190
vt 16.593500 22.020800
vt 16.593500 3.136670
vt 73.687599 24.467600
vt 91.769798 3.903420
vt 78.287399 24.467600
vt 78.287399 3.485190
vt 91.769798 27.403700
vt -9.908650 0.000000
vt 6.534670 27.673201
vt -9.908650 25.157499
vt 6.534670 0.000000
vt -32.526299 6.065890
vt -16.814301 0.000000
vt -16.814301 25.157499
vt -73.914398 0.000000
vt -46.438900 6.065890
vt -73.914398 27.952801
vt -46.438900 18.664301
vt 18.945900 8.081630
vt 1.671510 18.664301
vt 1.671510 6.065890
vt 18.945900 16.648600
vt -37.330700 46.138699
vt -32.526299 31.322800
vt -29.299200 46.138699
vt -46.438900 31.322800
vt -23.081301 6.065890
vt -38.109901 16.648600
vt -38.109901 8.081630
vt -23.081301 18.664301
vt -32.526299 18.664301
vt -37.330700 -42.774101
vt -32.526299 -27.958200
vt -46.438900 -27.958200
vt -29.299200 -42.774101
vt -93.778503 31.307100
vt -79.920097 0.000000
vt -79.920097 27.952801
vt -93.778503 0.000000
vt -68.344902 24.467600
vt -81.827301 3.903420
vt -68.344902 3.485190
vt -81.827301 27.403700
vn -1.000000 0.000000 0.000000
vn 1.000000 0.000000 0.000000
vn 0.021700 0.000000 0.999800
vn 0.348000 -0.000000 -0.937500
vn 0.250000 0.968200 -0.000000
vn -0.000000 -1.000000 0.000000
vn -0.154000 0.988100 -0.000000
vn 0.048900 0.998800 -0.000000
vn -0.220400 -0.975400 0.000000
vn 0.032200 0.999500 -0.000000
vn 0.006100 1.000000 -0.000000
vn -0.019400 0.999800 -0.000000
vn 0.135200 -0.990800 0.000000
vn -0.042800 -0.999100 0.000000
vn -0.016200 0.000000 0.999900
vn 0.143600 0.000000 0.989600
vn -0.190600 -0.000000 -0.981700
vn 0.021700 -0.000000 -0.999800
vn 0.143600 -0.000000 -0.989600
vn -0.016200 -0.000000 -0.999900
vn -0.267200 -0.000000 -0.963600
vn -0.190600 0.000000 0.981700
vn -0.838000 0.000000 0.545600
vn 0.003000 -0.990700 0.136000
vn 0.971800 0.000000 -0.235900
vn 0.003000 0.990700 0.136000
vn 0.348000 0.000000 0.937500
vn -0.267200 0.000000 0.963600
usemtl Light_Wood.007
s 1
f 1/1/1 7/2/1 6/3/1
f 7/2/1 1/1/1 8/4/1
f 3/5/1 8/4/1 1/1/1
f 8/4/1 3/5/1 9/6/1
f 13/7/2 15/8/2 14/9/2
f 15/8/2 13/7/2 16/10/2
f 17/11/2 16/10/2 13/7/2
f 16/10/2 17/11/2 18/12/2
f 6/3/1 7/2/1 25/13/1
f 6/3/1 25/13/1 9/6/1
f 26/14/1 9/6/1 25/13/1
f 8/4/1 9/6/1 26/14/1
f 14/9/2 15/8/2 29/15/2
f 14/9/2 29/15/2 18/12/2
f 30/16/2 18/12/2 29/15/2
f 16/10/2 18/12/2 30/16/2
f 36/17/3 38/18/3 37/19/3
f 38/18/3 36/17/3 39/20/3
usemtl Wood.084
f 1/21/4 2/22/4 3/23/4
f 2/22/4 1/21/4 4/24/4
f 1/25/5 5/26/5 4/27/5
f 5/26/5 1/25/5 6/28/5
f 2/29/6 9/30/6 3/31/6
f 9/30/6 2/29/6 10/32/6
f 11/33/6 10/32/6 2/29/6
f 10/32/6 11/33/6 12/34/6
f 13/35/6 12/34/6 11/33/6
f 12/34/6 13/35/6 14/36/6
f 19/37/7 18/38/7 17/39/7
f 18/38/7 19/37/7 20/40/7
f 4/41/8 20/42/8 19/43/8
f 20/42/8 4/41/8 5/44/8
f 4/45/1 21/46/1 5/47/1
f 21/46/1 4/45/1 22/48/1
f 2/49/1 22/48/1 4/45/1
f 22/48/1 2/49/1 10/50/1
f 22/48/1 10/50/1 23/51/1
f 23/51/1 10/50/1 24/52/1
f 5/47/1 24/52/1 10/50/1
f 5/47/1 21/46/1 24/52/1
f 25/53/9 21/54/9 24/55/9
f 21/54/9 25/53/9 7/56/9
f 23/57/10 8/58/10 26/59/10
f 8/58/10 23/57/10 22/60/10
f 27/61/11 22/62/11 23/63/11
f 22/62/11 27/61/11 28/64/11
f 29/65/12 28/66/12 27/67/12
f 28/66/12 29/65/12 15/68/12
f 31/69/13 16/70/13 30/71/13
f 16/70/13 31/69/13 32/72/13
f 24/73/14 32/74/14 31/75/14
f 32/74/14 24/73/14 21/76/14
f 22/77/15 32/78/15 21/79/15
f 32/78/15 22/77/15 28/80/15
f 15/81/16 32/82/16 28/83/16
f 32/82/16 15/81/16 16/84/16
f 28/85/2 11/86/2 32/87/2
f 11/86/2 28/85/2 12/88/2
f 12/88/2 28/85/2 27/89/2
f 12/88/2 27/89/2 20/90/2
f 31/91/2 20/90/2 27/89/2
f 32/87/2 20/90/2 31/91/2
f 32/87/2 19/92/2 20/90/2
f 19/92/2 32/87/2 11/86/2
f 17/93/17 11/94/17 19/95/17
f 11/94/17 17/93/17 13/96/17
f 2/97/18 19/98/18 11/99/18
f 19/98/18 2/97/18 4/100/18
f 31/101/19 29/102/19 27/103/19
f 29/102/19 31/101/19 30/104/19
f 23/105/20 31/106/20 27/107/20
f 31/106/20 23/105/20 24/108/20
f 26/109/21 24/110/21 23/111/21
f 24/110/21 26/109/21 25/112/21
f 12/113/22 18/114/22 20/115/22
f 18/114/22 12/113/22 14/116/22
f 33/117/3 12/118/3 20/119/3
f 12/118/3 33/117/3 10/120/3
f 34/121/3 10/120/3 33/117/3
f 10/120/3 34/121/3 5/122/3
f 5/122/3 34/121/3 35/123/3
f 36/124/23 35/125/23 34/126/23
f 35/125/23 36/124/23 37/127/23
f 36/128/24 33/129/24 39/130/24
f 33/129/24 36/128/24 34/131/24
f 33/132/25 38/133/25 39/134/25
f 38/133/25 33/132/25 40/135/25
f 33/117/3 20/119/3 40/136/3
f 40/136/3 20/119/3 35/123/3
f 5/122/3 35/123/3 20/119/3
f 37/137/26 40/138/26 35/139/26
f 40/138/26 37/137/26 38/140/26
f 6/141/27 10/142/27 5/143/27
f 10/142/27 6/141/27 9/144/27
f 21/145/28 8/146/28 22/147/28
f 8/146/28 21/145/28 7/148/28
