# Blender v2.76 (sub 0) OBJ File: ''
# www.blender.org
mtllib naturePack_002.mtl
o Mesh1_Plate_River_Dirt_Model
v -3.000000 0.000000 0.000000
v -2.241300 0.150000 -0.000000
v 0.000000 0.000000 0.000000
v -3.000000 0.300000 -0.000000
v -3.000000 0.000000 3.000000
v -3.000000 0.300000 3.000000
v -2.241300 0.150000 3.000000
v -0.758698 0.150000 3.000000
v 0.000000 0.000000 3.000000
v 0.000000 0.300000 3.000000
v 0.000000 0.300000 -0.000000
v -0.758698 0.150000 -0.000000
v -0.877648 0.150000 0.371864
v -1.121360 0.150000 1.274920
v -0.904869 0.150000 2.387190
v -0.904869 0.300000 2.387190
v -0.758698 0.300000 3.000000
v -0.758698 0.300000 -0.000000
v -0.877648 0.300000 0.371864
v -0.758698 0.150000 0.701031
v -0.758698 0.300000 0.701031
v -1.121360 0.300000 1.274920
v -0.758698 0.150000 1.924320
v -0.758698 0.300000 1.924320
v -2.241300 0.150000 0.701031
v -2.360250 0.150000 0.371864
v -2.241300 0.300000 0.701031
v -2.360250 0.300000 0.371864
v -2.241300 0.300000 -0.000000
v -2.603960 0.300000 1.274920
v -2.387470 0.300000 2.387190
v -2.241300 0.300000 3.000000
v -2.387470 0.150000 2.387190
v -2.241300 0.150000 1.924320
v -2.241300 0.300000 1.924320
v -2.603960 0.150000 1.274920
vt 118.110001 0.000000
vt 88.240196 5.905510
vt 0.000000 0.000000
vt 118.110001 11.811000
vt 0.000000 11.811000
vt -118.110001 -0.000000
vt -88.240196 5.905510
vt -118.110001 11.811000
vt -29.870001 5.905510
vt 29.870001 5.905510
vt 107.957001 5.905510
vt 83.153702 11.811000
vt 83.153702 5.905510
vt 107.957001 11.811000
vt -29.870001 11.811000
vt 29.870001 11.811000
vt 24.471500 5.905510
vt 9.100430 11.811000
vt 9.100430 5.905510
vt 24.471500 11.811000
vt 15.805300 5.905510
vt 2.025760 11.811000
vt 2.025760 5.905510
vt 15.805300 11.811000
vt 66.015503 5.905510
vt 39.288200 11.811000
vt 39.288200 5.905510
vt 66.015503 11.811000
vt 51.581100 5.905510
vt 22.297600 11.811000
vt 22.297600 5.905510
vt 51.581100 11.811000
vt 100.348999 5.905510
vt 81.238602 11.811000
vt 81.238602 5.905510
vt 100.348999 11.811000
vt 17.811800 5.905510
vt 4.032260 11.811000
vt 4.032260 5.905510
vt 17.811800 11.811000
vt -26.884001 5.905510
vt -42.255001 11.811000
vt -42.255001 5.905510
vt -26.884001 11.811000
vt 88.240196 11.811000
vt -88.240196 11.811000
vt -69.610802 5.905510
vt -94.414001 11.811000
vt -94.414001 5.905510
vt -69.610802 11.811000
vt -98.815697 5.905510
vt -117.926003 11.811000
vt -117.926003 5.905510
vt -98.815697 11.811000
vt 6.162330 5.905510
vt -23.121099 11.811000
vt -23.121099 5.905510
vt 6.162330 11.811000
vt -70.470100 5.905510
vt -97.197304 11.811000
vt -97.197304 5.905510
vt -70.470100 11.811000
vt -118.110001 118.110001
vt 0.000000 118.110001
vt 88.240196 0.000000
vt 34.553101 14.640300
vt 29.870001 0.000000
vt 44.147900 50.193600
vt 88.240196 118.110001
vt 35.624699 93.983902
vt 29.870001 118.110001
vt 29.870001 75.760399
vt 29.870001 27.599600
vt 88.240196 27.599600
vt 92.923302 14.640300
vt 102.517998 50.193600
vt 88.240196 75.760399
vt 93.995003 93.983902
vt 118.110001 118.110001
vn -0.000000 -0.000000 -1.000000
vn -1.000000 0.000000 0.000000
vn 0.000000 0.000000 1.000000
vn 1.000000 0.000000 0.000000
vn -0.972700 0.000000 0.232000
vn -0.952500 0.000000 -0.304700
vn -0.940500 0.000000 0.339900
vn -0.845400 -0.000000 -0.534200
vn -0.873100 0.000000 0.487600
vn -0.953600 0.000000 -0.301100
vn 0.940500 -0.000000 -0.339900
vn 0.952500 0.000000 0.304700
vn 0.972700 0.000000 -0.232000
vn 0.953600 0.000000 0.301100
vn 0.873100 0.000000 -0.487600
vn 0.845400 -0.000000 0.534200
vn 0.000000 -1.000000 0.000000
vn -0.000000 1.000000 -0.000000
vn 0.444400 -0.416400 0.793200
vn -0.017300 0.999900 -0.000000
vn 0.267000 0.963700 -0.000000
usemtl Wood.001
s 1
f 1/1/1 2/2/1 3/3/1
f 2/2/1 1/1/1 4/4/1
f 5/1/2 4/5/2 1/3/2
f 4/5/2 5/1/2 6/4/2
f 5/6/3 7/7/3 6/8/3
f 7/7/3 5/6/3 8/9/3
f 9/3/3 8/9/3 5/6/3
f 8/9/3 9/3/3 10/5/3
f 3/3/4 10/8/4 9/6/4
f 10/8/4 3/3/4 11/5/4
f 3/3/1 12/10/1 11/5/1
f 12/10/1 3/3/1 2/2/1
f 8/11/5 16/12/5 15/13/5
f 16/12/5 8/11/5 17/14/5
f 8/9/3 10/5/3 17/15/3
f 11/5/1 12/10/1 18/16/1
f 13/17/6 18/18/6 12/19/6
f 18/18/6 13/17/6 19/20/6
f 20/21/7 19/22/7 13/23/7
f 19/22/7 20/21/7 21/24/7
f 14/25/8 21/26/8 20/27/8
f 21/26/8 14/25/8 22/28/8
f 23/29/9 22/30/9 14/31/9
f 22/30/9 23/29/9 24/32/9
f 15/33/10 24/34/10 23/35/10
f 24/34/10 15/33/10 16/36/10
f 26/37/11 27/38/11 25/39/11
f 27/38/11 26/37/11 28/40/11
f 2/41/12 28/42/12 26/43/12
f 28/42/12 2/41/12 29/44/12
f 2/2/1 4/4/1 29/45/1
f 6/8/3 7/7/3 32/46/3
f 33/47/13 32/48/13 7/49/13
f 32/48/13 33/47/13 31/50/13
f 34/51/14 31/52/14 33/53/14
f 31/52/14 34/51/14 35/54/14
f 36/55/15 35/56/15 34/57/15
f 35/56/15 36/55/15 30/58/15
f 25/59/16 30/60/16 36/61/16
f 30/60/16 25/59/16 27/62/16
f 5/63/17 3/3/17 9/64/17
f 3/3/17 5/63/17 1/6/17
usemtl Water
f 2/65/18 13/66/18 12/67/18
f 13/66/18 2/65/18 14/68/18
f 7/69/18 14/68/18 2/65/18
f 7/69/18 15/70/18 14/68/18
f 15/70/18 7/69/18 8/71/18
f 14/68/18 15/70/18 23/72/18
f 14/68/18 20/73/18 13/66/18
f 7/69/18 2/65/18 25/74/19
f 26/75/18 25/74/19 2/65/18
f 36/76/18 34/77/20 25/74/19
f 7/69/18 25/74/19 34/77/20
f 7/69/18 34/77/20 33/78/18
usemtl Leafs.001
f 10/64/18 18/67/18 17/71/18
f 18/67/18 10/64/18 11/3/18
f 17/71/18 24/72/21 16/70/18
f 17/71/18 21/73/19 24/72/21
f 17/71/18 18/67/18 21/73/19
f 19/66/18 21/73/19 18/67/18
f 22/68/18 24/72/21 21/73/19
f 4/1/18 28/75/18 29/65/18
f 28/75/18 4/1/18 30/76/18
f 6/79/18 30/76/18 4/1/18
f 6/79/18 31/78/18 30/76/18
f 31/78/18 6/79/18 32/69/18
f 30/76/18 27/74/18 28/75/18
f 30/76/18 31/78/18 35/77/18
