# Blender v2.76 (sub 0) OBJ File: ''
# www.blender.org
mtllib naturePack_126.mtl
o Mesh1_Brown_Waterfall_Model
v -3.000000 0.000000 0.780000
v -3.000000 2.200000 -0.000000
v -3.000000 0.000000 0.000000
v -3.000000 2.200000 0.780000
v -2.387190 0.000000 0.633829
v -2.387190 2.200000 0.633829
v -2.241300 2.200000 0.679899
v -2.241300 0.000000 0.679899
v -1.924320 0.000000 0.920000
v -1.274920 0.000000 0.557341
v -0.371864 0.000000 0.661050
v -0.000000 0.000000 -0.000000
v 0.000000 0.000000 0.780000
v 0.000000 2.200000 0.780000
v -0.000000 2.200000 -0.000000
v -0.371864 2.200000 0.661050
v -0.701031 0.000000 0.780000
v -0.701031 2.200000 0.780000
v -0.758698 2.200000 0.743558
v -1.274920 2.200000 0.557341
v -1.924320 2.200000 0.920000
v -2.241300 2.200000 0.819899
v -2.241300 0.000000 0.819899
v -0.758698 2.200000 0.883558
v -0.758698 0.000000 0.883558
v -0.758698 0.000000 0.743558
vt 30.708700 0.000000
vt -0.000000 86.614197
vt -0.000000 0.000000
vt 30.708700 86.614197
vt -97.209000 0.000000
vt -122.012001 86.614197
vt -122.012001 0.000000
vt -97.209000 86.614197
vt -82.107101 0.000000
vt -76.083900 86.614197
vt -82.107101 86.614197
vt -76.083900 0.000000
vt -118.110001 0.000000
vt -88.240196 26.767700
vt -93.983902 24.953899
vt -75.760399 36.220501
vt -50.193600 21.942600
vt -14.640300 26.025600
vt -0.000000 30.708700
vt -30.708700 86.614197
vt -30.708700 0.000000
vt 118.110001 86.614197
vt 118.110001 0.000000
vt 14.640300 26.025600
vt -6.015130 86.614197
vt 9.355940 0.000000
vt 9.355940 86.614197
vt -6.015130 0.000000
vt -22.613899 86.614197
vt -36.393398 0.000000
vt -22.613899 0.000000
vt -36.393398 86.614197
vt 29.870001 29.273899
vt 27.599600 30.708700
vt 50.193600 21.942600
vt 75.760399 36.220501
vt 88.240196 26.767700
vt 93.983902 24.953899
vt 118.110001 30.708700
vt 88.240196 32.279499
vt -88.240196 32.279499
vt -29.870001 29.273899
vt -29.870001 34.785801
vt -27.599600 30.708700
vt -6.926640 86.614197
vt -9.612330 0.000000
vt -6.926640 0.000000
vt -9.612330 86.614197
vt 29.870001 34.785801
vt -118.110001 30.708700
vt -74.424103 0.000000
vt -61.336800 86.614197
vt -74.424103 86.614197
vt -61.336800 0.000000
vt 32.279499 0.000000
vt 26.767700 86.614197
vt 26.767700 0.000000
vt 32.279499 86.614197
vt -83.805199 0.000000
vt -54.521702 86.614197
vt -83.805199 86.614197
vt -54.521702 0.000000
vt -30.709499 0.000000
vt -6.667880 86.614197
vt -30.709499 86.614197
vt -6.667880 0.000000
vt -34.785801 86.614197
vt -29.273899 0.000000
vt -29.273899 86.614197
vt -34.785801 0.000000
vn -1.000000 -0.000000 0.000000
vn 0.232000 0.000000 0.972700
vn -0.301100 0.000000 0.953600
vn 0.000000 -1.000000 0.000000
vn 1.000000 -0.000000 -0.000000
vn -0.000000 -0.000000 -1.000000
vn -0.000000 1.000000 -0.000000
vn -0.304700 0.000000 0.952500
vn 0.339900 0.000000 0.940500
vn -0.534200 0.000000 0.845400
vn 0.487600 0.000000 0.873100
usemtl Wood.077
s 1
f 1/1/1 2/2/1 3/3/1
f 2/2/1 1/1/1 4/4/1
f 5/5/2 4/6/2 1/7/2
f 4/6/2 5/5/2 6/8/2
f 5/9/3 7/10/3 6/11/3
f 7/10/3 5/9/3 8/12/3
f 3/13/4 8/14/4 5/15/4
f 3/13/4 9/16/4 8/14/4
f 3/13/4 10/17/4 9/16/4
f 3/13/4 11/18/4 10/17/4
f 12/3/4 11/18/4 3/13/4
f 11/18/4 12/3/4 13/19/4
f 12/3/5 14/20/5 13/21/5
f 14/20/5 12/3/5 15/2/5
f 12/3/6 2/22/6 15/2/6
f 2/22/6 12/3/6 3/23/6
f 16/24/7 15/3/7 2/23/7
f 15/3/7 16/24/7 14/19/7
f 16/25/8 13/26/8 14/27/8
f 13/26/8 16/25/8 11/28/8
f 16/29/9 17/30/9 11/31/9
f 17/30/9 16/29/9 18/32/9
f 16/24/7 19/33/7 18/34/7
f 16/24/7 20/35/7 19/33/7
f 16/24/7 2/23/7 20/35/7
f 20/35/7 2/23/7 21/36/7
f 21/36/7 2/23/7 7/37/7
f 7/37/7 2/23/7 6/38/7
f 6/38/7 2/23/7 4/39/7
f 22/40/7 21/36/7 7/37/7
f 8/14/4 9/16/4 23/41/4
f 10/17/4 26/42/4 25/43/4
f 10/17/4 11/18/4 26/42/4
f 26/42/4 11/18/4 17/44/4
f 18/45/10 26/46/10 17/47/10
f 26/46/10 18/45/10 19/48/10
f 19/33/7 20/35/7 24/49/7
f 3/13/4 5/15/4 1/50/4
usemtl Water.007
f 23/51/3 21/52/3 22/53/3
f 21/52/3 23/51/3 9/54/3
f 23/55/1 7/56/1 8/57/1
f 7/56/1 23/55/1 22/58/1
f 9/59/11 20/60/11 21/61/11
f 20/60/11 9/59/11 10/62/11
f 10/63/10 24/64/10 20/65/10
f 24/64/10 10/63/10 25/66/10
f 24/67/5 26/68/5 19/69/5
f 26/68/5 24/67/5 25/70/5
