# Blender v2.76 (sub 0) OBJ File: ''
# www.blender.org
mtllib naturePack_175.mtl
o Mesh1_Group1_Model.088
v -1.936160 0.000000 0.783416
v -2.014160 0.472500 1.216470
v -2.175460 0.472500 0.607467
v -1.873250 0.000000 1.020930
v -1.554530 0.000000 0.309592
v -1.540240 0.000000 1.575930
v -0.920803 0.000000 2.304040
v -0.634979 0.000000 0.435998
v -0.607664 0.000000 2.504880
v -0.438396 0.000000 1.474540
v -0.437140 0.000000 0.730639
v -0.338848 0.000000 1.249910
v -0.119650 0.236250 0.971415
v 0.000000 0.472500 0.917550
v -0.507280 0.472500 0.162059
v -1.686190 0.472500 -0.000000
v -1.500670 1.192500 0.436243
v -1.838270 1.192500 0.855395
v -1.782620 1.192500 1.065500
v -1.870560 0.832500 1.246040
v -0.873721 0.472500 2.556990
v -1.586130 1.192500 1.441150
v -0.940064 1.192500 2.200570
v -0.663056 1.192500 2.378230
v -0.472260 0.472500 2.814470
v -0.072187 0.472500 2.686640
v -0.295607 0.000000 2.405170
v -0.438396 0.000000 2.136560
v -0.255250 0.472500 1.493530
v -0.255250 0.472500 2.342270
v -0.513319 1.192500 2.052410
v -0.513319 1.192500 1.466780
v -0.337197 1.192500 1.069350
v -0.512208 1.192500 0.808708
v -0.597250 0.832500 0.355061
v -1.093950 1.192500 0.492153
v -0.387006 1.192500 2.290020
v -1.912250 0.236250 1.237450
vt 62.445999 56.738300
vt 43.068699 19.376101
vt 59.081501 17.174900
vt 37.010399 86.636497
vt 26.104601 93.630997
vt 20.209400 80.803596
vt 20.209400 57.747101
vt 20.165701 31.838900
vt 13.275500 42.100498
vt 15.236400 90.158401
vt 72.372704 33.676998
vt 70.181702 41.948799
vt 10.298100 29.921400
vt 25.992901 49.917099
vt 1.189710 49.917099
vt 19.971399 29.921400
vt -61.202000 12.188700
vt -73.750099 40.193901
vt -76.226799 30.843201
vt -60.639301 62.044498
vt -36.252102 90.710403
vt -24.999201 17.165300
vt -23.923800 98.617302
vt -17.259701 58.052799
vt -17.210199 28.765301
vt -13.340500 49.209099
vt -25.062599 -16.675400
vt -36.701302 -2.634400
vt -45.869400 -16.675400
vt -14.287400 -14.563700
vt -29.990499 6.644900
vt -29.125200 -3.959380
vt -0.314969 -14.563700
vt 5.836250 6.644900
vt 22.428600 -10.643400
vt 65.767097 11.158100
vt 18.916700 11.158100
vt 58.972000 -10.643400
vt 47.882599 21.283300
vt 72.350197 43.249802
vt 41.641499 43.249802
vt 71.835403 21.283300
vt 72.350197 -9.877490
vt 50.435799 22.902201
vt 41.641499 -9.877490
vt 71.624802 22.902201
vt 25.992901 -12.977000
vt 14.024300 17.194300
vt 1.189710 -12.977000
vt 22.581400 17.194300
vt 28.565701 2.108660
vt 54.386200 -4.179880
vt -10.355200 10.431600
vt -14.905100 -4.179880
vt 2.751830 25.042999
vt 42.005798 25.042999
vt 25.392799 -18.125000
vt 28.574699 12.069700
vt 15.618500 12.069700
vt 44.169800 -18.125000
vt 18.456200 35.382099
vt 44.169800 55.395599
vt 25.392799 55.395599
vt 33.102299 35.382099
vt -52.804401 50.231201
vt -34.900902 73.060097
vt -51.436298 73.060097
vt -39.906799 50.231201
vt -17.259701 84.116699
vt -11.638100 94.691704
vt -58.800201 13.713100
vt -84.116699 -6.237830
vt -58.052799 -6.237830
vt -92.215401 13.713100
vt -58.800201 20.902201
vt -80.803596 51.014500
vt -92.215401 20.902201
vt -57.747101 51.014500
vt -57.829399 12.852000
vt -43.868900 42.817200
vt -60.983101 42.817200
vt -33.026199 12.852000
vt -57.829399 22.529400
vt -36.873600 12.609900
vt -33.026199 22.529400
vt -50.394299 2.690350
vt -60.067501 2.690350
vt -29.990499 25.692900
vt -15.191600 57.466000
vt -27.551800 57.466000
vt 1.502440 41.579399
vt 5.836250 25.692900
vt 18.916700 20.643101
vt 56.192101 53.203300
vt 21.391001 36.923199
vt 65.767097 20.643101
vt 40.028702 53.203300
vt 28.569201 59.808399
vt 2.494930 59.808399
vt 13.972400 39.824902
vt -51.436298 -39.354301
vt -41.954700 -5.424800
vt -53.364101 -5.424800
vt -34.900902 -39.354301
vt -76.708199 25.050699
vt -72.457001 53.626701
vt -92.062599 25.050699
vt -61.862598 53.626701
vt -78.149002 -7.475710
vt -76.708199 11.302700
vt -92.062599 11.302700
vt -66.172600 -7.475710
vt 21.333401 9.400620
vt 4.643030 9.400620
vt 9.336420 -6.135170
vt 54.386200 41.868999
vt 7.964040 22.595800
vt 45.600101 22.595800
vt -11.676200 32.232399
vt -14.905100 41.868999
vt 27.818701 39.919300
vt 22.002800 43.863499
vt 3.040450 54.773701
vt -3.479330 43.863499
vn -0.000000 1.000000 -0.000000
vn -0.899300 -0.366800 0.238200
vn 0.000000 -1.000000 0.000000
vn 0.650900 -0.749100 -0.123200
vn 0.728200 -0.480300 -0.488900
vn 0.728200 -0.480300 -0.489000
vn 0.116200 -0.521500 -0.845300
vn -0.659500 -0.531800 -0.531200
vn -0.673500 0.502200 -0.542400
vn -0.908200 0.342500 0.240600
vn -0.908200 0.342500 0.240500
vn -0.738800 0.243100 0.628500
vn -0.506800 0.344500 0.790200
vn -0.501800 -0.368800 0.782400
vn -0.501800 -0.368900 0.782400
vn 0.248000 -0.579700 0.776200
vn 0.932400 -0.361400 0.000000
vn 0.941400 0.337400 -0.000000
vn 0.864900 0.324200 0.383300
vn 0.857300 -0.347500 0.379900
vn 0.740700 0.451700 -0.497300
vn 0.118600 0.492000 -0.862500
vn 0.339000 0.705000 -0.623000
vn 0.254300 0.549600 0.795800
vn 0.875900 0.126500 -0.465600
vn 0.874700 -0.136600 -0.465000
vn -0.808400 0.409500 0.422800
vn -0.735100 -0.261600 0.625400
vn -0.731000 -0.522700 0.438600
usemtl Green_leafs.047
s 1
f 22/1/1 36/2/1 17/3/1
f 23/4/1 36/2/1 22/1/1
f 24/5/1 36/2/1 23/4/1
f 31/6/1 36/2/1 24/5/1
f 32/7/1 36/2/1 31/6/1
f 32/7/1 34/8/1 36/2/1
f 34/8/1 32/7/1 33/9/1
f 24/5/1 37/10/1 31/6/1
f 22/1/1 17/3/1 18/11/1
f 22/1/1 18/11/1 19/12/1
usemtl Wood.106
f 1/13/2 2/14/2 3/15/2
f 2/14/2 1/13/2 4/16/2
f 5/17/3 4/18/3 1/19/3
f 5/17/3 6/20/3 4/18/3
f 5/17/3 7/21/3 6/20/3
f 8/22/3 7/21/3 5/17/3
f 8/22/3 9/23/3 7/21/3
f 8/22/3 10/24/3 9/23/3
f 11/25/3 10/24/3 8/22/3
f 10/24/3 11/25/3 12/26/3
f 11/27/4 13/28/4 12/29/4
f 11/30/5 14/31/5 13/32/6
f 8/33/5 14/31/5 11/30/5
f 14/31/5 8/33/5 15/34/5
f 8/35/7 16/36/7 15/37/7
f 16/36/7 8/35/7 5/38/7
f 5/39/8 3/40/8 16/41/8
f 3/40/8 5/39/8 1/42/8
f 3/43/9 17/44/9 16/45/9
f 17/44/9 3/43/9 18/46/9
f 2/47/10 18/48/10 3/49/11
f 18/48/10 2/47/10 19/50/10
f 19/50/10 2/47/10 20/51/10
f 21/52/12 20/53/12 2/54/12
f 20/53/12 21/52/12 22/55/12
f 22/55/12 21/52/12 23/56/12
f 21/57/13 24/58/13 23/59/13
f 24/58/13 21/57/13 25/60/13
f 7/61/14 25/62/14 21/63/15
f 25/62/14 7/61/14 9/64/14
f 9/65/16 26/66/16 25/67/16
f 26/66/16 9/65/16 27/68/16
f 9/23/3 28/69/3 27/70/3
f 28/69/3 9/23/3 10/24/3
f 29/71/17 28/72/17 10/73/17
f 28/72/17 29/71/17 30/74/17
f 29/75/18 31/76/18 30/77/18
f 31/76/18 29/75/18 32/78/18
f 29/79/19 33/80/19 32/81/19
f 33/80/19 29/79/19 14/82/19
f 29/83/20 13/84/20 14/85/20
f 13/84/20 29/83/20 12/86/20
f 12/86/20 29/83/20 10/87/20
f 14/88/21 34/89/21 33/90/21
f 14/88/21 35/91/21 34/89/21
f 35/91/21 14/88/21 15/92/21
f 15/93/22 17/94/22 35/95/22
f 17/94/22 15/93/22 16/96/22
f 35/95/22 17/94/22 36/97/22
f 36/98/23 34/99/23 35/100/23
f 25/101/24 37/102/24 24/103/24
f 37/102/24 25/101/24 26/104/24
f 30/105/25 37/106/25 26/107/25
f 37/106/25 30/105/25 31/108/25
f 27/109/26 30/110/26 26/111/26
f 30/110/26 27/109/26 28/112/26
f 22/113/27 19/114/27 20/115/27
f 21/116/28 6/117/28 7/118/28
f 21/116/28 38/119/28 6/117/28
f 38/119/28 21/116/28 2/120/28
f 2/14/2 4/16/2 38/121/2
f 6/122/29 38/123/29 4/124/29
