# Blender v2.76 (sub 0) OBJ File: ''
# www.blender.org
mtllib naturePack_173.mtl
o Mesh1_Group1_Model.086
v -1.086170 1.113750 2.311860
v -1.232150 1.575000 1.849050
v -1.364920 1.575000 2.196300
v -0.962411 0.652500 2.529980
v -1.032930 0.652500 1.753170
v -1.254360 1.575000 1.604360
v -0.603614 1.575000 1.105780
v 0.000000 0.652500 0.961776
v -1.152620 0.000000 1.672730
v -0.326278 0.000000 1.039620
v -0.812822 0.000000 0.404576
v -1.333890 0.000000 0.270195
v -1.315180 0.000000 2.439070
v -1.096210 0.000000 2.294180
v -1.467680 0.408511 2.743030
v -1.454450 0.652500 2.855550
v -1.519920 1.575000 2.298860
v -1.397110 1.575000 0.499861
v -0.986767 1.575000 0.605686
v -0.608180 0.652500 0.167977
v -1.259510 0.652500 -0.000000
v -2.498080 0.326250 0.240525
v -1.947530 0.000000 0.324045
v -2.048590 0.000000 2.242550
v -2.607340 0.000000 1.930470
v -2.851330 0.652500 2.075350
v -2.399950 1.575000 1.807330
v -1.817590 1.575000 0.536760
v -2.416230 1.113750 0.345400
v -2.594380 0.652500 0.117141
v -3.101470 0.652500 1.138150
v -2.604620 0.000000 0.772312
v -2.807450 0.000000 1.180720
v -2.557540 1.575000 1.216900
v -2.425830 1.575000 0.951702
vt -100.288002 40.767200
vt -85.321404 62.465000
vt -99.958000 62.465000
vt -95.771797 35.302101
vt -68.113403 72.524696
vt -86.779198 53.913399
vt -65.063103 35.302101
vt -58.440201 72.524696
vt -74.259201 16.831699
vt -45.341000 54.489601
vt -77.616096 54.489601
vt -23.028900 16.831699
vt -76.073700 5.058250
vt -23.028900 31.304501
vt -74.259201 31.304501
vt -35.089500 5.058250
vt -45.378799 65.855598
vt -32.000900 15.928200
vt -12.845600 40.929798
vt -52.515202 10.637600
vt -51.778900 96.026398
vt -43.157700 90.321899
vt -65.063103 17.416800
vt -86.050102 -8.647380
vt -61.483101 -8.647380
vt -95.771797 17.416800
vt -86.563499 47.533298
vt -96.171097 19.724600
vt -85.833603 19.724600
vt -107.781998 37.134800
vt -109.792000 47.533298
vt -85.888298 13.602800
vt -109.792000 -7.056080
vt -86.563499 -7.056080
vt -99.847000 34.261799
vt -92.530098 34.261799
vt 53.737202 86.468597
vt 55.004200 19.679600
vt 59.839199 90.506203
vt 49.384300 63.163700
vt 38.849098 23.845900
vt 23.764299 43.534599
vt -30.057400 33.942902
vt 4.698380 76.568001
vt -20.104799 76.568001
vt 9.312710 33.942902
vt -30.057400 13.466900
vt 6.818480 -14.912300
vt 9.312710 13.466900
vt -24.677601 -14.912300
vt 27.009300 -9.239350
vt 48.015999 18.718201
vt 21.534000 18.718201
vt 48.194901 -9.239350
vt 53.244099 -2.242800
vt 98.801003 11.603300
vt 49.397202 25.449400
vt 77.496101 -2.242800
vt -80.653099 88.289497
vt -76.674400 12.757700
vt -27.863100 87.832703
vt -55.053902 67.081299
vt -25.161100 67.081299
vt 2.213290 58.170601
vt -52.558701 40.987099
vt -27.361900 40.987099
vt -58.163799 68.433601
vt 4.828300 68.433601
vt -8.109350 7.849330
vt -58.163799 -32.631302
vt 4.828300 -32.631302
vt -47.794399 7.849330
vt 71.558701 21.132299
vt 94.486298 71.154701
vt 56.514000 61.757702
vt 95.951698 41.233101
vt 73.132103 61.757702
vt 49.397202 20.708401
vt 102.153000 20.708401
vt 102.153000 25.449400
vt 52.228199 45.088402
vt 94.445900 59.083099
vt 49.563999 59.083099
vt 72.845100 31.093599
vt 101.845001 24.768101
vt 86.581200 44.464100
vt 70.528702 24.768101
vt -102.543999 30.406000
vt -102.651001 76.002800
vt -110.529999 46.484901
vt 49.995201 73.706902
vt 16.410200 45.858601
vt 46.961399 45.858601
vt 11.806200 73.706902
vt 49.995201 -39.688702
vt 20.323700 1.720360
vt 11.806200 -39.688702
vt 44.382801 1.720360
vt 95.505096 37.468601
vt 100.690002 47.909302
vt 100.010002 25.513201
vt 71.022301 25.513201
vt 86.246002 -1.137080
vt 54.492699 -0.830347
vt 94.445900 -21.697201
vt 76.039597 20.036501
vt 49.563999 -21.697201
vt 87.697098 20.036501
vt 90.797897 31.093599
vt 48.346901 70.122002
vt 21.534000 28.461700
vt 48.015999 28.461700
vt 31.663300 70.122002
vt 48.509701 72.797302
vn 0.781700 0.547300 0.298900
vn 0.971700 0.219000 -0.088200
vn 0.586600 0.264300 0.765600
vn 0.595300 -0.205000 0.776900
vn -0.000000 -1.000000 0.000000
vn 0.981600 -0.169100 -0.089100
vn 0.509800 -0.382900 0.770400
vn 0.485100 0.476800 0.733100
vn -0.000000 1.000000 -0.000000
vn 0.676400 0.523500 -0.518200
vn 0.718500 -0.425000 -0.550500
vn 0.229500 -0.394600 -0.889700
vn -0.081100 -0.373400 -0.924100
vn -0.200600 -0.631900 0.748600
vn -0.456400 -0.352100 0.817100
vn -0.437500 0.441600 0.783300
vn -0.077300 0.466000 -0.881400
vn -0.822000 -0.397000 -0.408300
vn -0.367500 -0.758100 -0.538700
vn -0.891300 -0.386100 0.237900
vn -0.847400 0.480400 0.226200
vn -0.847400 0.480300 0.226200
vn -0.384000 0.731900 -0.562900
vn -0.779400 0.492600 -0.387100
vn -0.822000 -0.397000 -0.408200
vn 0.217700 0.489900 -0.844200
usemtl Stone.053
s 1
f 1/1/1 2/2/1 3/3/1
f 4/4/2 2/5/2 1/6/2
f 5/7/2 2/5/2 4/4/2
f 2/5/2 5/7/2 6/8/2
f 5/9/3 7/10/3 6/11/3
f 7/10/3 5/9/3 8/12/3
f 9/13/4 8/14/4 5/15/4
f 8/14/4 9/13/4 10/16/4
f 9/17/5 11/18/5 10/19/5
f 11/18/5 9/17/5 12/20/5
f 12/20/5 9/17/5 13/21/5
f 13/21/5 9/17/5 14/22/5
f 5/23/6 14/24/6 9/25/6
f 14/24/6 5/23/6 4/26/6
f 4/27/7 13/28/7 14/29/7
f 13/28/7 4/27/7 15/30/7
f 15/30/7 4/27/7 16/31/7
f 1/32/8 16/33/8 4/34/8
f 16/33/8 1/32/8 17/35/8
f 17/35/8 1/32/8 3/36/8
f 3/37/9 18/38/9 17/39/9
f 6/40/9 18/38/9 3/37/9
f 6/40/9 19/41/9 18/38/9
f 19/41/9 6/40/9 7/42/9
f 8/43/10 19/44/10 7/45/10
f 19/44/10 8/43/10 20/46/10
f 8/47/11 11/48/11 20/49/11
f 11/48/11 8/47/11 10/50/11
f 11/51/12 21/52/12 20/53/12
f 21/52/12 11/51/12 12/54/12
f 12/55/13 22/56/13 21/57/13
f 22/56/13 12/55/13 23/58/13
f 12/20/5 24/59/5 23/60/5
f 12/20/5 13/21/5 24/59/5
f 15/61/14 24/62/14 13/63/14
f 15/64/15 25/65/15 24/66/15
f 25/65/15 15/64/15 26/67/15
f 26/67/15 15/64/15 16/68/15
f 17/69/16 26/70/16 16/71/16
f 26/70/16 17/69/16 27/72/16
f 17/39/9 28/73/9 27/74/9
f 17/39/9 18/38/9 28/73/9
f 18/75/17 29/76/17 28/77/17
f 21/78/17 29/76/17 18/75/17
f 29/76/17 21/78/17 30/79/17
f 21/57/13 22/56/13 30/80/13
f 22/81/18 31/82/18 30/83/18
f 31/82/18 22/81/18 32/84/18
f 32/85/19 22/86/19 23/87/19
f 23/60/5 24/59/5 32/88/5
f 32/88/5 24/59/5 25/89/5
f 32/88/5 25/89/5 33/90/5
f 26/91/20 33/92/20 25/93/20
f 33/92/20 26/91/20 31/94/20
f 26/95/21 34/96/21 31/97/22
f 34/96/21 26/95/21 27/98/21
f 27/74/9 35/99/9 34/100/9
f 27/74/9 28/73/9 35/99/9
f 35/101/23 28/102/23 29/103/23
f 29/104/24 31/105/24 35/106/24
f 31/105/24 29/104/24 30/107/24
f 35/106/24 31/105/24 34/108/24
f 31/82/18 32/84/18 33/109/25
f 18/110/26 20/111/26 21/112/26
f 20/111/26 18/110/26 19/113/26
f 3/37/9 2/114/9 6/40/9
