# Blender v2.76 (sub 0) OBJ File: ''
# www.blender.org
mtllib naturePack_001.mtl
o Mesh1_Plate_Grass_Dirt_Model
v -3.000000 0.300000 -0.000000
v 0.000000 0.000000 0.000000
v -3.000000 0.000000 0.000000
v 0.000000 0.300000 -0.000000
v 0.000000 0.300000 3.000000
v -3.000000 0.300000 3.000000
v -3.000000 0.000000 3.000000
v 0.000000 0.000000 3.000000
vt 118.110001 11.811000
vt 0.000000 0.000000
vt 118.110001 0.000000
vt 0.000000 11.811000
vt -118.110001 118.110001
vt -118.110001 0.000000
vt 0.000000 118.110001
vt -118.110001 11.811000
vt 118.110001 118.110001
vn 0.000000 -0.000000 -1.000000
vn -1.000000 0.000000 0.000000
vn 0.000000 -1.000000 0.000000
vn 1.000000 0.000000 0.000000
vn 0.000000 0.000000 1.000000
vn 0.000000 1.000000 -0.000000
usemtl Wood
s 1
f 1/1/1 2/2/1 3/3/1
f 2/2/1 1/1/1 4/4/1
f 1/4/2 7/3/2 6/1/2
f 7/3/2 1/4/2 3/2/2
f 2/2/3 7/5/3 3/6/3
f 7/5/3 2/2/3 8/7/3
f 2/2/4 5/8/4 8/6/4
f 5/8/4 2/2/4 4/4/4
f 5/4/5 7/6/5 8/2/5
f 7/6/5 5/4/5 6/8/5
usemtl Leafs
f 1/3/6 5/7/6 4/2/6
f 5/7/6 1/3/6 6/9/6
