# Blender v2.76 (sub 0) OBJ File: ''
# www.blender.org
mtllib naturePack_146.mtl
o Mesh1_Plate_River_Dirt_Model.005
v -3.000000 0.000000 0.000000
v -2.241300 0.150000 -0.000000
v 0.000000 0.000000 0.000000
v -3.000000 0.300000 -0.000000
v -3.000000 0.000000 3.000000
v -3.000000 0.300000 3.000000
v -2.241300 0.150000 3.000000
v -0.758698 0.150000 3.000000
v 0.000000 0.000000 3.000000
v 0.000000 0.300000 3.000000
v 0.000000 0.150000 2.241300
v 0.000000 0.150000 0.758698
v 0.000000 0.300000 0.758698
v 0.000000 0.300000 -0.000000
v -0.758698 0.150000 -0.000000
v -0.877648 0.150000 0.371864
v -0.936265 0.150000 0.982021
v -0.889083 0.150000 2.453370
v -0.889083 0.300000 2.453370
v -0.758698 0.300000 3.000000
v 0.000000 0.300000 2.241300
v -0.936265 0.300000 0.982021
v -0.758698 0.300000 0.701031
v -0.758698 0.300000 -0.000000
v -0.877648 0.300000 0.371864
v -0.758698 0.150000 0.701031
v -2.241300 0.150000 0.701031
v -2.360250 0.150000 0.371864
v -2.241300 0.300000 0.701031
v -2.360250 0.300000 0.371864
v -2.241300 0.300000 -0.000000
v -2.603960 0.300000 1.274920
v -2.387470 0.300000 2.387190
v -2.241300 0.300000 3.000000
v -2.387470 0.150000 2.387190
v -2.241300 0.150000 1.924320
v -2.241300 0.300000 1.924320
v -2.603960 0.150000 1.274920
vt 118.110001 0.000000
vt 88.240196 5.905510
vt 0.000000 0.000000
vt 118.110001 11.811000
vt 0.000000 11.811000
vt -118.110001 -0.000000
vt -88.240196 5.905510
vt -118.110001 11.811000
vt -29.870001 5.905510
vt -29.870001 11.811000
vt 29.870001 5.905510
vt 107.957001 5.905510
vt 85.832298 11.811000
vt 85.832298 5.905510
vt 107.957001 11.811000
vt -88.240196 11.811000
vt 20.473200 5.905510
vt 56.458500 11.811000
vt 20.473200 11.811000
vt 56.458500 5.905510
vt -6.930340 11.811000
vt -44.825298 5.905510
vt -6.930340 5.905510
vt -44.825298 11.811000
vt 29.870001 11.811000
vt 24.471500 5.905510
vt 9.100430 11.811000
vt 9.100430 5.905510
vt 24.471500 11.811000
vt 15.805300 5.905510
vt 2.025760 11.811000
vt 2.025760 5.905510
vt 15.805300 11.811000
vt 52.374599 5.905510
vt 39.288200 11.811000
vt 39.288200 5.905510
vt 52.374599 11.811000
vt 17.811800 5.905510
vt 4.032260 11.811000
vt 4.032260 5.905510
vt 17.811800 11.811000
vt -26.884001 5.905510
vt -42.255001 11.811000
vt -42.255001 5.905510
vt -26.884001 11.811000
vt 88.240196 11.811000
vt -69.610802 5.905510
vt -94.414001 11.811000
vt -94.414001 5.905510
vt -69.610802 11.811000
vt -98.815697 5.905510
vt -117.926003 11.811000
vt -117.926003 5.905510
vt -98.815697 11.811000
vt 6.162330 5.905510
vt -23.121099 11.811000
vt -23.121099 5.905510
vt 6.162330 11.811000
vt -70.470100 5.905510
vt -97.197304 11.811000
vt -97.197304 5.905510
vt -70.470100 11.811000
vt -118.110001 118.110001
vt 0.000000 118.110001
vt 88.240196 0.000000
vt 34.553101 14.640300
vt 29.870001 0.000000
vt 36.860802 38.662300
vt 88.240196 118.110001
vt 35.003300 96.589401
vt 29.870001 118.110001
vt 0.000000 29.870001
vt -0.000000 88.240196
vt 29.870001 27.599600
vt 88.240196 27.599600
vt 92.923302 14.640300
vt 102.517998 50.193600
vt 88.240196 75.760399
vt 93.995003 93.983902
vt 118.110001 118.110001
vn -0.000000 -0.000000 -1.000000
vn -1.000000 0.000000 0.000000
vn 0.000000 0.000000 1.000000
vn 1.000000 -0.000000 0.000000
vn -0.972700 0.000000 0.232000
vn -0.232000 0.000000 -0.972700
vn 0.232000 0.000000 0.972700
vn -0.952500 0.000000 -0.304700
vn -0.940500 0.000000 0.339900
vn -0.845400 -0.000000 -0.534200
vn 0.940500 -0.000000 -0.339900
vn 0.952500 0.000000 0.304700
vn 0.972700 0.000000 -0.232000
vn 0.953600 0.000000 0.301100
vn 0.873100 0.000000 -0.487600
vn 0.845400 -0.000000 0.534200
vn 0.000000 -1.000000 0.000000
vn -0.000000 1.000000 -0.000000
vn 0.444400 -0.416400 0.793200
vn -0.017300 0.999900 -0.000000
usemtl Wood.088
s 1
f 1/1/1 2/2/1 3/3/1
f 2/2/1 1/1/1 4/4/1
f 5/1/2 4/5/2 1/3/2
f 4/5/2 5/1/2 6/4/2
f 5/6/3 7/7/3 6/8/3
f 7/7/3 5/6/3 8/9/3
f 9/3/3 8/9/3 5/6/3
f 8/9/3 9/3/3 10/5/3
f 9/6/4 11/7/4 10/8/4
f 9/6/4 12/9/4 11/7/4
f 3/3/4 12/9/4 9/6/4
f 3/3/4 13/10/4 12/9/4
f 13/10/4 3/3/4 14/5/4
f 3/3/1 15/11/1 14/5/1
f 15/11/1 3/3/1 2/2/1
f 8/12/5 19/13/5 18/14/5
f 19/13/5 8/12/5 20/15/5
f 8/9/3 10/5/3 20/10/3
f 10/8/4 11/7/4 21/16/4
f 11/17/6 19/18/6 21/19/6
f 19/18/6 11/17/6 18/20/6
f 13/21/7 17/22/7 12/23/7
f 17/22/7 13/21/7 22/24/7
f 14/5/1 15/11/1 24/25/1
f 16/26/8 24/27/8 15/28/8
f 24/27/8 16/26/8 25/29/8
f 26/30/9 25/31/9 16/32/9
f 25/31/9 26/30/9 23/33/9
f 17/34/10 23/35/10 26/36/10
f 23/35/10 17/34/10 22/37/10
f 28/38/11 29/39/11 27/40/11
f 29/39/11 28/38/11 30/41/11
f 2/42/12 30/43/12 28/44/12
f 30/43/12 2/42/12 31/45/12
f 2/2/1 4/4/1 31/46/1
f 6/8/3 7/7/3 34/16/3
f 35/47/13 34/48/13 7/49/13
f 34/48/13 35/47/13 33/50/13
f 36/51/14 33/52/14 35/53/14
f 33/52/14 36/51/14 37/54/14
f 38/55/15 37/56/15 36/57/15
f 37/56/15 38/55/15 32/58/15
f 27/59/16 32/60/16 38/61/16
f 32/60/16 27/59/16 29/62/16
f 5/63/17 3/3/17 9/64/17
f 3/3/17 5/63/17 1/6/17
usemtl Water.012
f 2/65/18 16/66/18 15/67/18
f 16/66/18 2/65/18 17/68/18
f 7/69/18 17/68/18 2/65/18
f 7/69/18 18/70/18 17/68/18
f 18/70/18 7/69/18 8/71/18
f 12/72/18 18/70/18 11/73/18
f 18/70/18 12/72/18 17/68/18
f 17/68/18 26/74/18 16/66/18
f 7/69/18 2/65/18 27/75/19
f 28/76/18 27/75/19 2/65/18
f 38/77/18 36/78/20 27/75/19
f 7/69/18 27/75/19 36/78/20
f 7/69/18 36/78/20 35/79/18
usemtl Leafs.052
f 10/64/18 19/70/18 20/71/18
f 19/70/18 10/64/18 21/73/18
f 13/72/18 23/74/18 22/68/18
f 13/72/18 24/67/18 23/74/18
f 24/67/18 13/72/18 14/3/18
f 25/66/18 23/74/18 24/67/18
f 4/1/18 30/76/18 31/65/18
f 30/76/18 4/1/18 32/77/18
f 6/80/18 32/77/18 4/1/18
f 6/80/18 33/79/18 32/77/18
f 33/79/18 6/80/18 34/69/18
f 32/77/18 29/75/18 30/76/18
f 32/77/18 33/79/18 37/78/18
