# Blender v2.76 (sub 0) OBJ File: ''
# www.blender.org
mtllib naturePack_078.mtl
o Mesh1_Campfire_Model
v -0.699329 0.103500 0.154503
v -0.544826 0.013500 -0.000000
v -0.699329 0.013500 0.154503
v -0.544826 0.103500 -0.000000
v -0.599167 0.088278 0.254664
v -0.444664 0.076538 0.254664
v -0.444664 0.088278 0.100161
v -0.444664 0.120515 0.254664
v -0.444664 0.163500 0.014664
v -0.349664 0.103500 0.349664
v -0.254664 0.120515 0.254664
v -0.254664 0.163500 0.014664
v -0.254664 0.088278 0.100161
v -0.254664 0.013500 0.014664
v -0.254664 0.013500 0.100161
v -0.154503 0.013500 -0.000000
v -0.154503 0.103500 -0.000000
v -0.254664 0.076538 0.254664
v -0.100161 0.088278 0.254664
v 0.000000 0.103500 0.154503
v -0.100161 0.013500 0.254664
v 0.000000 0.013500 0.154503
v -0.154503 0.013500 0.699329
v -0.100161 0.013500 0.444664
v -0.000000 0.013500 0.544826
v -0.000000 0.103500 0.544826
v -0.100161 0.088278 0.444664
v -0.014664 0.163500 0.444664
v -0.014664 0.013500 0.444664
v -0.014664 0.013500 0.254664
v -0.014664 0.163500 0.254664
v -0.254664 0.120515 0.444664
v -0.254664 0.163500 0.684664
v -0.444664 0.163500 0.684664
v -0.444664 0.120515 0.444664
v -0.684664 0.163500 0.254664
v -0.599167 0.013500 0.254664
v -0.684664 0.013500 0.254664
v -0.684664 0.013500 0.444664
v -0.599167 0.013500 0.444664
v -0.544826 0.013500 0.699329
v -0.444664 0.013500 0.100161
v -0.444664 0.013500 0.599167
v -0.444664 0.013500 0.014664
v -0.444664 0.013500 0.684664
v -0.254664 0.013500 0.599167
v -0.254664 0.013500 0.684664
v -0.254664 0.088278 0.599167
v -0.254664 0.076538 0.444664
v -0.154503 0.103500 0.699329
v -0.444664 0.088278 0.599167
v -0.444664 0.076538 0.444664
v -0.599167 0.088278 0.444664
v -0.684664 0.163500 0.444664
v -0.699329 0.103500 0.544826
v -0.699329 0.013500 0.544826
v -0.544826 0.103500 0.699329
vt 23.769699 4.074800
vt 15.167300 0.531496
vt 23.769699 0.531496
vt 15.167300 4.074800
vt 4.301180 0.531496
vt -4.301180 4.074800
vt -4.301180 0.531496
vt 4.301180 4.074800
vt -23.769699 0.531496
vt -15.167300 4.074800
vt -23.769699 4.074800
vt -15.167300 0.531496
vt -10.026200 6.437010
vt -17.506500 0.531496
vt -10.026200 0.531496
vt -17.506500 6.437010
vt 10.026200 6.437010
vt 17.506500 0.531496
vt 17.506500 6.437010
vt 10.026200 0.531496
vt -23.769699 9.907010
vt -15.167300 15.515900
vt -23.769699 15.515900
vt -19.468500 5.581060
vt -15.167300 9.907010
vt 10.026200 4.744680
vt 3.943370 3.475510
vt 10.026200 3.013290
vt 0.577335 6.437010
vt -13.766300 -12.832300
vt -17.506500 0.566547
vt -17.506500 -9.032630
vt -10.026200 -9.032630
vt -10.026200 0.566547
vt -3.943370 3.475510
vt -0.577335 6.437010
vt -10.026200 4.744680
vt -0.577335 0.531496
vt -3.943370 0.531496
vt 9.877940 3.475510
vt 9.877940 0.531496
vt 0.000000 -13.776000
vt -4.301180 -3.841180
vt -4.301180 -9.450040
vt 4.301180 -9.450050
vt 4.301180 -3.841180
vt -9.877940 0.531496
vt -9.877940 3.475510
vt -6.082790 0.000000
vt 0.000000 6.082790
vt -3.943370 10.026200
vt -6.082790 27.532600
vt -3.943360 17.506500
vt -0.000000 21.449800
vt -9.590560 0.531496
vt -9.590560 3.475510
vt -0.577335 17.506500
vt -0.577335 10.026200
vt 0.577335 0.531496
vt 3.943370 0.531496
vt -10.026200 3.013290
vt 10.026200 -9.032630
vt 17.506500 0.566547
vt 10.026200 0.566547
vt 17.506500 -9.032630
vt 13.766300 -12.832300
vt 13.766300 14.269100
vt 10.026200 27.667900
vt 10.026200 18.068701
vt 17.506500 27.667900
vt 17.506500 18.068701
vt -10.026200 18.068701
vt -17.506500 18.068701
vt -13.766300 14.269100
vt -10.026200 27.667900
vt 23.589300 3.475510
vt 26.955299 6.437010
vt 17.506500 4.744680
vt 23.589300 0.531496
vt 26.955299 0.531496
vt -23.589300 10.026200
vt -26.955299 17.506500
vt -26.955299 10.026200
vt -23.589300 17.506500
vt -21.449800 27.532600
vt -21.449800 0.000000
vt -17.506500 3.943370
vt -17.506500 23.589300
vt -17.506500 0.577335
vt -17.506500 26.955299
vt -10.026200 0.577335
vt -10.026200 3.943370
vt -10.026200 23.589300
vt -10.026200 26.955299
vt -23.589300 3.475510
vt -26.955299 0.531496
vt -23.589300 0.531496
vt -26.955299 6.437010
vt -17.506500 3.013290
vt -17.506500 4.744680
vt 23.769699 15.515900
vt 15.167300 9.907010
vt 19.468500 5.581060
vt 15.167300 15.515900
vt 9.590560 3.475510
vt 9.590560 0.531496
vt 23.769699 9.907010
vt 17.506500 3.013290
vt 29.059099 0.531496
vt 34.635799 4.074800
vt 29.059099 3.475510
vt 34.635799 0.531496
vt -27.532600 21.449800
vt -34.635799 0.531496
vt -29.059099 3.475510
vt -34.635799 4.074800
vt -29.059099 0.531496
vt -4.301180 29.264099
vt 4.301180 29.264099
vt -4.301180 34.872898
vt 0.000000 24.938101
vt 4.301180 34.872898
vt -17.506500 27.667900
vt -27.532600 6.082790
vn -0.707100 0.000000 -0.707100
vn 0.707100 -0.000000 -0.707100
vn 0.707100 0.000000 0.707100
vn 0.000000 0.000000 1.000000
vn -0.707100 0.000000 0.707100
vn -1.000000 -0.000000 0.000000
vn 0.000000 -0.000000 -1.000000
vn 1.000000 -0.000000 0.000000
vn 0.075600 0.994300 0.075600
vn 0.000000 1.000000 -0.000000
vn 0.000000 0.984300 0.176300
vn 0.088800 0.992100 0.088800
vn -0.088800 0.992100 0.088800
vn -0.075600 0.994300 0.075600
vn -0.000000 -1.000000 0.000000
vn -0.176300 0.984300 -0.000000
vn -0.088800 0.992100 -0.088800
vn -0.000000 0.984300 -0.176300
vn 0.088800 0.992100 -0.088800
vn 0.176300 0.984300 -0.000000
vn 0.005000 -1.000000 -0.000000
vn -0.025300 -0.999700 -0.001900
vn -0.075600 0.994300 -0.075600
vn 0.075600 0.994300 -0.075600
usemtl Light_Wood
s 1
f 1/1/1 2/2/1 3/3/1
f 2/2/1 1/1/1 4/4/1
f 16/5/2 20/6/2 22/7/2
f 20/6/2 16/5/2 17/8/2
f 23/9/3 26/10/3 50/11/3
f 26/10/3 23/9/3 25/12/3
f 33/13/4 45/14/4 47/15/4
f 45/14/4 33/13/4 34/16/4
f 41/5/5 55/6/5 56/7/5
f 55/6/5 41/5/5 57/8/5
f 36/17/6 39/18/6 54/19/6
f 39/18/6 36/17/6 38/20/6
f 9/19/7 14/20/7 44/18/7
f 14/20/7 9/19/7 12/17/7
f 28/16/8 30/15/8 31/13/8
f 30/15/8 28/16/8 29/14/8
usemtl Wood.049
f 5/21/9 4/22/9 1/23/9
f 6/24/9 4/22/9 5/21/9
f 4/22/9 6/24/9 7/25/9
f 8/26/6 7/27/6 6/28/6
f 7/27/6 8/26/6 9/29/6
f 10/30/10 9/31/11 8/32/12
f 11/33/13 9/31/11 10/30/10
f 9/31/11 11/33/13 12/34/11
f 13/35/8 12/36/8 11/37/8
f 12/36/8 13/35/8 14/38/8
f 14/38/8 13/35/8 15/39/8
f 13/40/1 16/5/1 15/41/1
f 16/5/1 13/40/1 17/8/1
f 18/42/14 17/43/14 13/44/14
f 19/45/14 17/43/14 18/42/14
f 17/43/14 19/45/14 20/46/14
f 21/47/3 20/6/3 19/48/3
f 20/6/3 21/47/3 22/7/3
f 16/49/15 22/50/15 21/51/15
f 21/51/15 23/52/15 16/49/15
f 24/53/15 23/52/15 21/51/15
f 23/52/15 24/53/15 25/54/15
f 24/55/2 26/10/2 25/12/2
f 26/10/2 24/55/2 27/56/2
f 24/39/4 28/36/4 27/35/4
f 28/36/4 24/39/4 29/38/4
f 21/51/15 29/57/15 24/53/15
f 29/57/15 21/51/15 30/58/15
f 19/27/7 30/59/7 21/60/7
f 30/59/7 19/27/7 31/29/7
f 31/29/7 19/27/7 11/26/7
f 11/26/7 19/27/7 18/28/7
f 13/35/8 11/37/8 18/61/8
f 11/62/13 28/63/16 31/64/16
f 28/63/16 11/62/13 32/65/17
f 32/65/17 11/62/13 10/66/10
f 10/67/10 33/68/18 32/69/17
f 33/68/18 10/67/10 34/70/18
f 34/70/18 10/67/10 35/71/19
f 8/72/12 35/73/19 10/74/10
f 35/73/19 8/72/12 36/75/20
f 5/76/7 36/77/7 8/78/7
f 37/79/7 36/77/7 5/76/7
f 36/77/7 37/79/7 38/80/7
f 37/81/15 39/82/15 38/83/15
f 39/82/15 37/81/15 40/84/15
f 37/81/15 41/85/15 40/84/15
f 2/86/15 41/85/15 37/81/15
f 42/87/21 41/85/15 2/86/15
f 41/85/15 42/87/21 43/88/22
f 44/89/15 43/88/22 42/87/21
f 44/89/15 45/90/15 43/88/22
f 14/91/15 45/90/15 44/89/15
f 15/92/15 45/90/15 14/91/15
f 46/93/15 45/90/15 15/92/15
f 45/90/15 46/93/15 47/94/15
f 48/95/8 47/96/8 46/97/8
f 47/96/8 48/95/8 33/98/8
f 49/99/8 33/98/8 48/95/8
f 33/98/8 49/99/8 32/100/8
f 32/37/4 49/61/4 27/35/4
f 50/101/23 27/102/23 49/103/23
f 27/102/23 50/101/23 26/104/23
f 48/105/5 23/2/5 50/4/5
f 23/2/5 48/105/5 46/106/5
f 15/92/15 23/52/15 46/93/15
f 16/49/15 23/52/15 15/92/15
f 50/101/23 49/103/23 48/107/23
f 27/35/4 28/36/4 32/37/4
f 34/77/6 43/79/6 45/80/6
f 34/77/6 51/76/6 43/79/6
f 34/77/6 52/108/6 51/76/6
f 52/108/6 34/77/6 35/78/6
f 35/100/4 53/95/4 52/99/4
f 54/98/4 53/95/4 35/100/4
f 39/96/4 53/95/4 54/98/4
f 53/95/4 39/96/4 40/97/4
f 40/109/1 55/110/1 53/111/1
f 55/110/1 40/109/1 56/112/1
f 56/113/15 40/84/15 41/85/15
f 41/114/3 51/115/3 57/116/3
f 51/115/3 41/114/3 43/117/3
f 51/118/24 53/119/24 57/120/24
f 53/119/24 51/118/24 52/121/24
f 57/120/24 53/119/24 55/122/24
f 35/73/19 36/75/20 54/123/20
f 42/60/6 9/29/6 44/59/6
f 9/29/6 42/60/6 7/27/6
f 2/2/2 7/105/2 42/106/2
f 7/105/2 2/2/2 4/4/2
f 2/86/15 37/81/15 3/124/15
f 37/55/5 1/10/5 3/12/5
f 1/10/5 37/55/5 5/56/5
f 8/78/7 6/108/7 5/76/7
