# Blender v2.76 (sub 0) OBJ File: ''
# www.blender.org
mtllib naturePack_143.mtl
o Mesh1_Grey_Waterfall_Model
v -3.000000 0.000000 0.780000
v -3.000000 2.200000 -0.000000
v -3.000000 0.000000 0.000000
v -3.000000 2.200000 0.780000
v -2.387190 0.000000 0.633829
v -2.387190 2.200000 0.633829
v -2.241300 2.200000 0.679899
v -2.241300 0.000000 0.679899
v -1.924320 0.000000 0.920000
v -1.274920 0.000000 0.557341
v -0.371864 0.000000 0.661050
v -0.000000 0.000000 -0.000000
v 0.000000 0.000000 0.780000
v 0.000000 2.200000 0.780000
v -0.000000 2.200000 -0.000000
v -0.371864 2.200000 0.661050
v -0.701031 0.000000 0.780000
v -0.701031 2.200000 0.780000
v -0.758698 2.200000 0.743558
v -1.274920 2.200000 0.557341
v -1.924320 2.200000 0.920000
v -2.241300 2.200000 0.819899
v -2.241300 0.000000 0.819899
v -0.758698 2.200000 0.883558
v -0.758698 0.000000 0.883558
v -0.758698 0.000000 0.743558
vt -74.424103 0.000000
vt -61.336800 86.614197
vt -74.424103 86.614197
vt -61.336800 0.000000
vt 32.279499 0.000000
vt 26.767700 86.614197
vt 26.767700 0.000000
vt 32.279499 86.614197
vt -83.805199 0.000000
vt -54.521702 86.614197
vt -83.805199 86.614197
vt -54.521702 0.000000
vt -30.709499 0.000000
vt -6.667880 86.614197
vt -30.709499 86.614197
vt -6.667880 0.000000
vt -34.785801 86.614197
vt -29.273899 0.000000
vt -29.273899 86.614197
vt -34.785801 0.000000
vt 30.708700 0.000000
vt -0.000000 86.614197
vt -0.000000 0.000000
vt 30.708700 86.614197
vt -97.209000 0.000000
vt -122.012001 86.614197
vt -122.012001 0.000000
vt -97.209000 86.614197
vt -82.107101 0.000000
vt -76.083900 86.614197
vt -82.107101 86.614197
vt -76.083900 0.000000
vt -118.110001 0.000000
vt -88.240196 26.767700
vt -93.983902 24.953899
vt -75.760399 36.220501
vt -50.193600 21.942600
vt -14.640300 26.025600
vt -0.000000 30.708700
vt -30.708700 86.614197
vt -30.708700 0.000000
vt 118.110001 86.614197
vt 118.110001 0.000000
vt 14.640300 26.025600
vt -6.015130 86.614197
vt 9.355940 0.000000
vt 9.355940 86.614197
vt -6.015130 0.000000
vt -22.613899 86.614197
vt -36.393398 0.000000
vt -22.613899 0.000000
vt -36.393398 86.614197
vt 29.870001 29.273899
vt 27.599600 30.708700
vt 50.193600 21.942600
vt 75.760399 36.220501
vt 88.240196 26.767700
vt 93.983902 24.953899
vt 118.110001 30.708700
vt 88.240196 32.279499
vt -88.240196 32.279499
vt -29.870001 29.273899
vt -29.870001 34.785801
vt -27.599600 30.708700
vt -6.926640 86.614197
vt -9.612330 0.000000
vt -6.926640 0.000000
vt -9.612330 86.614197
vt 29.870001 34.785801
vt -118.110001 30.708700
vn -0.301100 0.000000 0.953600
vn -1.000000 -0.000000 0.000000
vn 0.487600 0.000000 0.873100
vn -0.534200 0.000000 0.845400
vn 1.000000 -0.000000 0.000000
vn 0.232000 0.000000 0.972700
vn 0.000000 -1.000000 0.000000
vn -0.000000 -0.000000 -1.000000
vn -0.000000 1.000000 -0.000000
vn -0.304700 0.000000 0.952500
vn 0.339900 0.000000 0.940500
usemtl Water.009
s 1
f 23/1/1 21/2/1 22/3/1
f 21/2/1 23/1/1 9/4/1
f 23/5/2 7/6/2 8/7/2
f 7/6/2 23/5/2 22/8/2
f 9/9/3 20/10/3 21/11/3
f 20/10/3 9/9/3 10/12/3
f 10/13/4 24/14/4 20/15/4
f 24/14/4 10/13/4 25/16/4
f 24/17/5 26/18/5 19/19/5
f 26/18/5 24/17/5 25/20/5
usemtl Stone.043
f 1/21/2 2/22/2 3/23/2
f 2/22/2 1/21/2 4/24/2
f 5/25/6 4/26/6 1/27/6
f 4/26/6 5/25/6 6/28/6
f 5/29/1 7/30/1 6/31/1
f 7/30/1 5/29/1 8/32/1
f 3/33/7 8/34/7 5/35/7
f 3/33/7 9/36/7 8/34/7
f 3/33/7 10/37/7 9/36/7
f 3/33/7 11/38/7 10/37/7
f 12/23/7 11/38/7 3/33/7
f 11/38/7 12/23/7 13/39/7
f 12/23/5 14/40/5 13/41/5
f 14/40/5 12/23/5 15/22/5
f 12/23/8 2/42/8 15/22/8
f 2/42/8 12/23/8 3/43/8
f 16/44/9 15/23/9 2/43/9
f 15/23/9 16/44/9 14/39/9
f 16/45/10 13/46/10 14/47/10
f 13/46/10 16/45/10 11/48/10
f 16/49/11 17/50/11 11/51/11
f 17/50/11 16/49/11 18/52/11
f 16/44/9 19/53/9 18/54/9
f 16/44/9 20/55/9 19/53/9
f 16/44/9 2/43/9 20/55/9
f 20/55/9 2/43/9 21/56/9
f 21/56/9 2/43/9 7/57/9
f 7/57/9 2/43/9 6/58/9
f 6/58/9 2/43/9 4/59/9
f 22/60/9 21/56/9 7/57/9
f 8/34/7 9/36/7 23/61/7
f 10/37/7 26/62/7 25/63/7
f 10/37/7 11/38/7 26/62/7
f 26/62/7 11/38/7 17/64/7
f 18/65/4 26/66/4 17/67/4
f 26/66/4 18/65/4 19/68/4
f 19/53/9 20/55/9 24/69/9
f 3/33/7 5/35/7 1/70/7
