# Blender v2.76 (sub 0) OBJ File: ''
# www.blender.org
mtllib naturePack_038.mtl
o Mesh1_Group1_Model.027
v -0.543392 2.140000 0.386473
v -0.366413 1.430000 0.603796
v -0.487351 1.430000 0.367903
v -0.458736 2.140000 0.551599
v -0.889576 2.140000 0.401147
v -0.728256 2.140000 0.308008
v -0.751441 1.430000 0.255810
v -0.403127 0.000000 0.186820
v -0.843278 0.000000 0.000000
v -0.529866 0.000000 1.279050
v 0.000000 0.000000 0.973133
v -0.245475 1.430000 0.839690
v -0.563394 1.430000 1.023240
v -0.981899 1.430000 0.388865
v -1.227370 0.000000 0.221758
v -1.227370 0.000000 0.586758
v -0.981899 1.430000 0.607865
vt 21.393400 15.215500
vt 35.022701 15.793200
vt 18.060499 21.716499
vt 28.671499 12.126300
vt 14.425700 23.771500
vt 22.180901 40.285099
vt 9.664360 33.058701
vt 38.657398 15.309600
vt 38.657398 23.931700
vt -3.779710 86.096497
vt -14.572300 58.049500
vt -4.135690 58.049500
vt -11.085300 86.096497
vt 12.002800 57.356701
vt 21.654699 85.351501
vt 13.748100 85.351501
vt 23.297800 57.356701
vt 11.735900 1.793150
vt 23.297800 58.638100
vt 12.002800 58.638100
vt 30.561001 1.793150
vt -15.871100 7.355130
vt -20.860901 50.356400
vt -33.199902 0.000000
vt 0.000000 38.312302
vt -4.135690 58.554199
vt -34.092899 1.914270
vt 0.695605 1.914270
vt -14.572300 58.554199
vt -25.008801 58.554199
vt -9.891190 83.520401
vt -31.448799 55.557800
vt -5.782140 55.557800
vt -27.857901 83.520401
vt 38.227100 83.677902
vt 30.656401 55.635899
vt 41.133099 55.635899
vt 30.893400 83.677902
vt 28.752001 -3.051810
vt 41.133099 54.223598
vt 30.656401 54.223598
vt 46.213200 -3.051810
vt -48.321800 23.100700
vt -48.321800 8.730620
vt 12.635800 51.104599
vt -18.023300 -5.537000
vt 20.667400 -5.537000
vt -10.578600 51.104599
vt 15.309600 48.947300
vt 23.100700 -8.175370
vt 23.931700 48.947300
vt 8.730620 -8.175370
vt -43.244202 -5.453980
vt -24.898899 51.621601
vt -39.351799 51.621601
vt -19.156200 -5.453980
vn 0.000000 1.000000 0.000000
vn 0.886900 0.081900 -0.454700
vn 0.390100 0.054800 -0.919100
vn 0.387000 0.138200 -0.911700
vn 0.000000 -1.000000 0.000000
vn 0.884500 0.109500 -0.453500
vn -0.329600 0.026500 0.943800
vn -0.498400 0.079700 -0.863300
vn -0.491500 0.183800 -0.851300
vn -0.700200 0.109800 0.705500
vn -0.985600 0.169200 -0.000000
vn 0.493200 0.164400 0.854200
usemtl Green_leafs.020
s 1
f 1/1/1 5/2/1 4/3/1
f 5/2/1 1/1/1 6/4/1
f 2/5/1 13/6/1 12/7/1
f 13/6/1 2/5/1 14/8/1
f 13/6/1 14/8/1 17/9/1
usemtl Wood.024
f 1/10/2 2/11/2 3/12/2
f 2/11/2 1/10/2 4/13/2
f 3/14/3 6/15/3 1/16/3
f 6/15/3 3/14/3 7/17/3
f 8/18/4 7/19/4 3/20/4
f 7/19/4 8/18/4 9/21/4
f 8/22/5 10/23/5 9/24/5
f 10/23/5 8/22/5 11/25/5
f 3/26/6 11/27/6 8/28/6
f 11/27/6 3/26/6 2/29/6
f 11/27/6 2/29/6 12/30/6
f 4/31/7 14/32/7 2/33/7
f 14/32/7 4/31/7 5/34/7
f 5/35/8 7/36/8 14/37/8
f 7/36/8 5/35/8 6/38/8
f 9/39/9 14/40/9 7/41/9
f 14/40/9 9/39/9 15/42/9
f 9/24/5 16/43/5 15/44/5
f 9/24/5 10/23/5 16/43/5
f 13/45/10 16/46/10 10/47/10
f 16/46/10 13/45/10 17/48/10
f 14/49/11 16/50/11 17/51/11
f 16/50/11 14/49/11 15/52/11
f 10/53/12 12/54/12 13/55/12
f 12/54/12 10/53/12 11/56/12
