# Blender v2.76 (sub 0) OBJ File: ''
# www.blender.org
mtllib naturePack_055.mtl
o Mesh1_Group1_Model.044
v -0.638731 1.867650 0.469808
v -0.610459 1.783050 0.349562
v -0.565459 1.783050 0.427504
v -0.683731 1.867650 0.391865
v -0.638731 2.223050 0.469808
v -0.683731 2.223050 0.391865
v -0.592798 2.223050 0.339365
v -0.547798 2.223050 0.417308
v -0.547798 1.893050 0.417308
v -0.456865 1.893050 0.364808
v -0.456865 1.783050 0.364808
v -0.501865 1.783050 0.286865
v -0.501865 1.893050 0.286865
v -0.592798 1.893050 0.339365
v -0.436865 2.320000 0.399449
v -0.521865 2.320000 0.252224
v -0.436865 0.000000 0.399449
v -0.521865 0.000000 0.252224
v -0.436865 2.320000 0.105000
v -0.436865 0.000000 0.105000
v -0.266865 0.000000 0.105000
v -0.266865 2.320000 0.105000
v -0.266865 2.320000 0.399449
v -0.181865 2.320000 0.252224
v -0.285565 2.370000 0.367059
v -0.219265 2.370000 0.252224
v -0.285565 2.370000 0.137389
v -0.246865 0.841572 0.139641
v -0.246865 0.729736 0.139641
v -0.181865 0.000000 0.252224
v -0.201865 0.729736 0.217583
v -0.126564 0.729736 0.070185
v -0.081564 0.729736 0.148127
v -0.065000 0.800824 0.034641
v -0.020000 0.800824 0.112583
v -0.020000 1.501570 0.112583
v -0.065000 1.501570 0.034641
v -0.155933 0.841572 0.087141
v -0.201865 0.841572 0.217583
v -0.110933 0.841572 0.165083
v -0.201865 1.468600 0.286865
v -0.246865 1.468600 0.364808
v -0.246865 1.368600 0.364808
v -0.266865 0.000000 0.399449
v -0.201865 1.368600 0.286865
v -0.106228 1.368600 0.342082
v -0.054641 1.428160 0.371865
v -0.128253 1.468600 0.329365
v -0.173253 1.468600 0.407308
v -0.099641 1.428160 0.449808
v -0.151228 1.368600 0.420024
v -0.054641 2.018600 0.371865
v -0.099641 2.018600 0.449808
v -0.128253 2.018600 0.329365
v -0.173253 2.018600 0.407308
v -0.418165 2.370000 0.367059
v -0.418165 2.370000 0.137389
v -0.484465 2.370000 0.252224
v -0.110933 1.501570 0.165083
v -0.155933 1.501570 0.087141
vt 3.444880 73.932098
vt -0.098425 69.221298
vt 3.444880 69.221298
vt -0.098425 73.932098
vt 3.444880 87.521500
vt -0.098425 73.529701
vt 3.444880 73.529701
vt -0.098425 87.521500
vt 25.146900 18.496401
vt 23.338499 13.360800
vt 26.918501 15.427800
vt 21.566900 16.429399
vt -31.025999 87.521500
vt -26.892200 74.529404
vt -26.892200 87.521500
vt -31.025999 73.529701
vt -22.758301 74.529404
vt -27.695000 70.198700
vt -22.758301 70.198700
vt -22.262100 16.830900
vt -19.758499 11.293900
vt -17.986799 14.362500
vt -24.033800 13.762300
vt 31.025999 73.529701
vt 22.758301 70.198700
vt 27.695000 70.198700
vt 22.758301 74.529404
vt 26.892200 74.529404
vt 31.025999 87.521500
vt 26.892200 87.521500
vt -3.444880 87.521500
vt 0.098425 74.529404
vt 0.098425 87.521500
vt -3.444880 74.529404
vt 19.758499 11.293900
vt 17.986799 14.362500
vt 5.019690 91.338600
vt -0.098425 74.529404
vt 3.444880 74.529404
vt -1.673230 91.338600
vt -0.098425 70.198700
vt 5.019690 -0.000000
vt -1.673230 -0.000000
vt 12.179700 91.338600
vt 18.872700 0.000000
vt 18.872700 91.338600
vt 12.179700 0.000000
vt 17.199400 91.338600
vt 10.506500 0.000000
vt 17.199400 0.000000
vt 10.506500 91.338600
vt 10.506500 15.726300
vt 10.506500 4.133860
vt 17.199400 4.133860
vt 7.160050 9.930090
vt -12.179700 77.331497
vt -18.136400 79.677002
vt -18.872700 77.331497
vt -12.916000 79.677002
vt -5.019690 82.730301
vt 0.937008 85.075798
vt -4.283460 85.075798
vt 1.673230 82.730301
vt 0.098425 33.132801
vt 1.673230 91.338600
vt -5.019690 91.338600
vt 1.673230 -0.000000
vt 0.098425 28.729700
vt -5.019690 -0.000000
vt -3.444880 28.729700
vt -4.982830 2.763190
vt -7.947450 8.566270
vt -9.719110 5.497680
vt -3.211180 5.831780
vt 0.098425 20.244699
vt -3.444880 16.286699
vt 0.098425 16.286699
vt -3.444880 20.244699
vt 0.098425 31.528500
vt -3.444880 59.117001
vt -3.444880 31.528500
vt 0.098425 59.117001
vt 2.898120 31.528500
vt 7.031970 33.132801
vt 2.898120 59.117001
vt 11.165800 33.132801
vt 5.696860 28.729700
vt 11.165800 28.729700
vt 7.947450 8.566270
vt 6.139080 3.430750
vt 9.719110 5.497680
vt 4.367430 6.499340
vt -11.165800 33.132801
vt -2.898120 31.528500
vt -7.031970 33.132801
vt -11.165800 28.729700
vt -5.696860 28.729700
vt -3.444880 33.132801
vt -12.179700 91.338600
vt -13.754500 57.818699
vt -12.179700 0.000000
vt -18.872700 91.338600
vt -17.297800 57.818699
vt -17.297800 53.881699
vt -18.872700 0.000000
vt -13.754500 53.881699
vt 1.235740 57.818699
vt -3.112000 53.881699
vt 1.235740 53.881699
vt -5.457170 56.226898
vt -2.110710 57.818699
vt 7.947450 11.293900
vt 6.820990 16.035700
vt 5.049340 12.967100
vt 9.719110 14.362500
vt -1.235740 57.818699
vt 5.457170 56.226898
vt 2.110710 57.818699
vt -1.235740 53.881699
vt 3.112000 53.881699
vt -7.947450 11.293900
vt -5.953850 16.536400
vt -9.719110 14.362500
vt -4.182200 13.467800
vt -13.754500 40.300598
vt -17.297800 43.617199
vt -17.297800 40.300598
vt -13.754500 43.617199
vt -13.754500 79.472298
vt -17.297800 56.226898
vt -13.754500 56.226898
vt -17.297800 79.472298
vt 3.922870 17.709000
vt 2.151220 14.640400
vt 13.754500 79.472298
vt 17.297800 57.818699
vt 17.297800 79.472298
vt 13.754500 57.818699
vt -5.457170 79.472298
vt -2.110710 79.472298
vt 5.457170 79.472298
vt 2.110710 79.472298
vt -10.506500 15.726300
vt -10.506500 4.133860
vt -7.160050 9.930090
vt -17.199400 4.133860
vt -17.199400 15.726300
vt -10.506500 91.338600
vt -17.199400 0.000000
vt -10.506500 0.000000
vt -17.199400 91.338600
vt -11.242700 70.455002
vt -17.199400 68.109596
vt -10.506500 68.109596
vt -16.463200 70.455002
vt 11.242700 14.451200
vt 16.463200 5.409030
vt 16.463200 14.451200
vt 11.242700 5.409030
vt 8.632490 9.930090
vt 10.506500 78.907204
vt 16.463200 81.252602
vt 11.242700 81.252602
vt 17.199400 78.907204
vt 18.872700 69.685204
vt 12.916000 72.030602
vt 12.179700 69.685204
vt 18.136400 72.030602
vt 5.019690 64.286400
vt -0.937008 66.631798
vt -1.673230 64.286400
vt 4.283460 66.631798
vt 19.073400 9.930090
vt 17.199400 15.726300
vt 20.545900 9.930090
vt 3.444880 70.198700
vt -20.545900 9.930090
vt -2.898120 59.117001
vt -7.031970 59.117001
vt 2.559060 1.363820
vt 0.787402 4.432410
vt 7.031970 59.117001
vt 3.444880 33.132801
vt -0.098425 59.117001
vt -0.098425 33.132801
vt 3.444880 59.117001
vn -0.612300 -0.707100 0.353500
vn -0.866000 0.000000 0.500000
vn 0.000000 1.000000 0.000000
vn 0.500000 0.000000 0.866000
vn 0.000000 -1.000000 0.000000
vn -0.500000 -0.000000 -0.866000
vn 0.866000 0.000000 -0.500000
vn -0.866000 0.000000 0.500100
vn -0.866000 -0.000000 -0.500000
vn 0.000000 -0.000000 -1.000000
vn 0.726800 0.543700 0.419600
vn 0.726800 0.543700 -0.419600
vn 0.612400 -0.707100 -0.353600
vn 0.866000 0.000000 0.500000
vn 0.500000 -0.000000 -0.866000
vn -0.500000 0.000000 0.866000
vn 0.612300 -0.707200 0.353500
vn 0.612300 -0.707100 0.353500
vn 0.000000 0.000000 1.000000
vn 0.000000 0.543700 0.839300
vn 0.000000 0.543700 -0.839300
vn -0.726800 0.543700 -0.419600
vn -0.726800 0.543700 0.419600
usemtl Green_leafs.024
s 1
f 1/1/1 2/2/1 3/3/1
f 2/2/1 1/1/1 4/4/1
f 5/5/2 4/6/2 1/7/2
f 4/6/2 5/5/2 6/8/2
f 5/9/3 7/10/3 6/11/3
f 7/10/3 5/9/3 8/12/3
f 5/13/4 9/14/4 8/15/4
f 1/16/4 9/14/4 5/13/4
f 1/16/4 10/17/4 9/14/4
f 3/18/4 10/17/4 1/16/4
f 10/17/4 3/18/4 11/19/4
f 3/20/5 12/21/5 11/22/5
f 12/21/5 3/20/5 2/23/5
f 4/24/6 12/25/6 2/26/6
f 12/25/6 4/24/6 13/27/6
f 13/27/6 4/24/6 14/28/6
f 6/29/6 14/28/6 4/24/6
f 14/28/6 6/29/6 7/30/6
f 8/31/7 14/32/7 7/33/7
f 14/32/7 8/31/7 9/34/7
f 9/12/3 13/35/3 14/10/3
f 13/35/3 9/12/3 10/36/3
f 15/37/2 13/38/2 10/39/2
f 16/40/2 13/38/2 15/37/2
f 13/38/2 16/40/2 12/41/8
f 16/40/2 17/42/2 12/41/8
f 17/42/2 16/40/2 18/43/2
f 19/44/9 18/45/9 16/46/9
f 18/45/9 19/44/9 20/47/9
f 19/48/10 21/49/10 20/50/10
f 21/49/10 19/48/10 22/51/10
f 23/52/3 22/53/3 19/54/3
f 22/53/3 23/52/3 24/55/3
f 24/56/11 25/57/11 23/58/11
f 25/57/11 24/56/11 26/59/11
f 24/60/12 27/61/12 26/62/12
f 27/61/12 24/60/12 22/63/12
f 28/64/7 22/65/7 24/66/7
f 22/65/7 28/64/7 21/67/7
f 29/68/7 21/67/7 28/64/7
f 21/67/7 29/68/7 30/69/7
f 30/69/7 29/68/7 31/70/7
f 32/71/5 31/72/5 29/73/5
f 31/72/5 32/71/5 33/74/5
f 34/75/13 33/76/13 32/77/13
f 33/76/13 34/75/13 35/78/13
f 34/79/7 36/80/7 35/81/7
f 36/80/7 34/79/7 37/82/7
f 34/83/6 38/84/6 37/85/6
f 34/83/6 28/86/6 38/84/6
f 32/87/6 28/86/6 34/83/6
f 28/86/6 32/87/6 29/88/6
f 39/89/3 38/90/3 28/91/3
f 38/90/3 39/89/3 40/92/3
f 39/93/4 35/94/4 40/95/4
f 31/96/4 35/94/4 39/93/4
f 35/94/4 31/96/4 33/97/4
f 39/98/7 24/66/7 31/70/7
f 28/64/7 24/66/7 39/98/7
f 30/69/7 31/70/7 24/66/7
f 24/99/14 41/100/14 30/101/14
f 41/100/14 24/99/14 23/102/14
f 41/100/14 23/102/14 42/103/14
f 42/103/14 23/102/14 43/104/14
f 44/105/14 43/104/14 23/102/14
f 44/105/14 45/106/14 43/104/14
f 30/101/14 45/106/14 44/105/14
f 45/106/14 30/101/14 41/100/14
f 41/107/15 46/108/15 45/109/15
f 46/108/15 41/107/15 47/110/15
f 47/110/15 41/107/15 48/111/15
f 41/112/3 49/113/3 48/114/3
f 49/113/3 41/112/3 42/115/3
f 42/116/16 50/117/16 49/118/16
f 43/119/16 50/117/16 42/116/16
f 50/117/16 43/119/16 51/120/16
f 45/121/5 51/122/5 43/123/5
f 51/122/5 45/121/5 46/124/5
f 46/125/17 50/126/17 51/127/17
f 50/126/17 46/125/17 47/128/18
f 52/129/14 50/130/14 47/131/14
f 50/130/14 52/129/14 53/132/14
f 54/114/3 53/133/3 52/134/3
f 53/133/3 54/114/3 55/113/3
f 54/135/9 49/136/9 55/137/9
f 49/136/9 54/135/9 48/138/9
f 52/139/15 48/111/15 54/140/15
f 47/110/15 48/111/15 52/139/15
f 49/118/16 53/141/16 55/142/16
f 53/141/16 49/118/16 50/117/16
f 44/143/5 21/144/5 30/145/5
f 21/144/5 44/143/5 20/146/5
f 20/146/5 44/143/5 17/147/5
f 23/148/19 17/149/19 44/150/19
f 17/149/19 23/148/19 15/151/19
f 25/152/20 15/153/20 23/154/20
f 15/153/20 25/152/20 56/155/20
f 25/156/3 57/157/3 56/158/3
f 25/156/3 27/159/3 57/157/3
f 27/159/3 25/156/3 26/160/3
f 22/161/21 57/162/21 27/163/21
f 57/162/21 22/161/21 19/164/21
f 16/165/22 57/166/22 19/167/22
f 57/166/22 16/165/22 58/168/22
f 15/169/23 58/170/23 16/171/23
f 58/170/23 15/169/23 56/172/23
f 56/158/3 57/157/3 58/173/3
f 15/174/3 19/54/3 16/175/3
f 23/52/3 19/54/3 15/174/3
f 15/37/2 10/39/2 17/42/2
f 11/176/2 17/42/2 10/39/2
f 12/41/8 17/42/2 11/176/2
f 20/146/5 17/147/5 18/177/5
f 36/178/4 40/95/4 35/94/4
f 40/95/4 36/178/4 59/179/4
f 37/180/3 59/92/3 36/181/3
f 59/92/3 37/180/3 60/90/3
f 37/85/6 38/84/6 60/182/6
f 40/183/2 60/184/2 38/185/2
f 60/184/2 40/183/2 59/186/2
