# Blender v2.76 (sub 0) OBJ File: ''
# www.blender.org
mtllib naturePack_112.mtl
o Mesh1_Mushroom_Brown_Model
v -0.217459 0.353484 0.251100
v 0.000000 0.205335 0.376650
v 0.000000 0.205335 0.125550
v -0.217459 0.205335 0.502200
v -0.141048 0.205335 0.317213
v -0.298431 0.205335 0.317213
v -0.434918 0.205335 0.376650
v -0.434918 0.205335 0.125550
v -0.217459 0.205335 -0.000000
v -0.141048 0.205335 0.159830
v -0.102290 0.000000 0.355972
v -0.102290 0.000000 0.121072
v -0.337190 0.000000 0.355972
v -0.337190 0.000000 0.121072
v -0.298431 0.205335 0.159830
vt -9.885830 14.910900
vt -14.828700 4.551560
vt -4.942910 4.551560
vt -17.300200 -6.061600
vt -7.414370 -6.061600
vt -12.357300 4.297790
vt -8.561380 19.771700
vt 0.000000 4.942910
vt 0.000000 14.828700
vt -5.553080 12.488700
vt -11.749300 12.488700
vt -17.122801 14.828700
vt -7.414370 -13.137000
vt 2.471460 -13.137000
vt -2.471460 -2.777650
vt 14.828700 -9.599310
vt 9.885830 0.760069
vt 4.942910 -9.599310
vt 17.300200 1.013840
vt 12.357300 11.373200
vt 7.414370 1.013840
vt 2.471460 18.448700
vt -2.471460 8.089280
vt 7.414370 8.089280
vt -5.553080 6.292520
vt -8.561380 0.000000
vt -11.749300 6.292520
vt -17.122801 4.942910
vt -14.014600 0.746965
vt -6.292520 8.973770
vt -12.488700 8.973770
vt -4.766600 0.746965
vt -13.275200 14.014600
vt -4.027150 4.766600
vt -4.027150 14.014600
vt -13.275200 4.766600
vt 14.014600 -2.462310
vt 6.292520 5.764500
vt 4.766600 -2.462310
vt 12.488700 5.764500
vt -13.275200 -2.599460
vt -5.553080 5.627350
vt -11.749300 5.627350
vt -4.027150 -2.599460
vt 4.027150 0.884118
vt 11.749300 9.110930
vt 5.553080 9.110930
vt 13.275200 0.884118
vn 0.563000 0.826400 -0.000000
vn 0.281500 0.826400 0.487600
vn -0.000000 -1.000000 0.000000
vn -0.281500 0.826400 0.487600
vn -0.563000 0.826400 -0.000000
vn -0.281500 0.826400 -0.487600
vn 0.281500 0.826400 -0.487600
vn 0.982600 0.185500 -0.000000
vn -0.982600 0.185500 -0.000000
vn 0.000000 0.185500 0.982600
vn 0.000000 0.185500 -0.982600
usemtl Wood.063
s 1
f 1/1/1 2/2/1 3/3/1
f 4/4/2 2/5/2 1/6/2
f 4/7/3 3/8/3 2/9/3
f 3/8/3 4/7/3 5/10/3
f 5/10/3 4/7/3 6/11/3
f 6/11/3 4/7/3 7/12/3
f 7/13/4 4/14/4 1/15/4
f 7/16/5 1/17/5 8/18/5
f 8/19/6 1/20/6 9/21/6
f 1/22/7 3/23/7 9/24/7
f 3/8/3 10/25/3 9/26/3
f 10/25/3 3/8/3 5/10/3
f 6/11/3 10/25/3 5/10/3
f 10/25/3 6/11/3 15/27/3
f 6/11/3 7/12/3 15/27/3
f 8/28/3 15/27/3 7/12/3
f 9/26/3 15/27/3 8/28/3
f 9/26/3 10/25/3 15/27/3
usemtl FrontColor.002
f 11/29/8 10/30/8 5/31/8
f 10/30/8 11/29/8 12/32/8
f 13/33/3 12/34/3 11/35/3
f 12/34/3 13/33/3 14/36/3
f 13/37/9 15/38/9 14/39/9
f 15/38/9 13/37/9 6/40/9
f 13/41/10 5/42/10 6/43/10
f 5/42/10 13/41/10 11/44/10
f 12/45/11 15/46/11 10/47/11
f 15/46/11 12/45/11 14/48/11
