# Blender v2.76 (sub 0) OBJ File: ''
# www.blender.org
mtllib naturePack_025.mtl
o Mesh1_Group1_Model.018
v -1.030480 1.720000 0.632836
v -0.951620 2.250000 0.440048
v -1.030480 1.720000 0.402886
v -0.951620 2.250000 0.614810
v -0.739824 2.250000 0.800645
v -0.751805 1.720000 0.877356
v -0.556286 1.720000 1.048910
v -1.264400 0.000000 0.626572
v -0.511703 0.000000 1.287000
v -0.811340 0.000000 0.000000
v -0.221234 0.000000 0.133843
v -0.000000 0.000000 0.991572
v 0.000000 0.000000 0.261572
v -0.373291 1.720000 0.322417
v -0.233913 1.720000 0.402886
v -0.233913 1.720000 0.862786
v -0.452154 2.250000 0.378891
v -0.734697 2.250000 0.314807
v -0.745058 1.720000 0.238096
v -1.264400 0.000000 0.261572
vt 24.914801 61.008099
vt 17.324699 82.103897
vt 15.861700 61.008099
vt 24.205099 82.103897
vt -14.063300 61.620098
vt -1.104420 82.645302
vt -12.197600 82.645302
vt 0.532922 61.620098
vt -14.063300 63.521599
vt 10.773500 63.521599
vt 0.532922 63.521599
vt -21.148300 -4.450510
vt 18.275299 -4.450510
vt -31.942499 0.000000
vt -20.145800 50.669498
vt -49.779400 24.668200
vt -8.709990 5.269410
vt -0.000000 39.038300
vt 0.000000 10.298100
vt 6.380740 69.598099
vt -5.149060 1.229160
vt 4.908370 1.229160
vt 0.044558 69.598099
vt 14.696500 12.693600
vt 9.209190 33.967999
vt 9.209190 15.861700
vt 21.900999 41.295601
vt 29.598600 34.541599
vt -22.354099 88.803497
vt -45.214100 67.896103
vt -18.767799 67.896103
vt -42.453300 88.803497
vt 28.925100 12.394000
vt 29.126900 31.521400
vt 17.801300 14.917000
vt 37.465401 17.324699
vt 30.090000 66.229797
vt 41.108299 87.285599
vt 31.246799 87.285599
vt 43.065701 66.229797
vt 27.663000 -2.201200
vt 43.065701 66.167801
vt 30.090000 66.167801
vt 48.259300 -2.201200
vt -49.779400 10.298100
vt 24.668200 -6.708060
vt 15.861700 61.631802
vt 10.298100 -6.708060
vt 24.914801 61.631802
vt 26.533001 69.142502
vt 7.328680 0.886544
vt 31.151300 0.886544
vt 11.524700 69.142502
vt 25.467100 90.270798
vt 11.524700 69.210297
vt 26.533001 69.210297
vt 14.060900 90.270798
vt 37.465401 24.205099
vt -42.781502 -4.452040
vt -24.959400 63.859402
vt -39.614700 63.859402
vt -19.519100 -4.452040
vt -39.038300 0.000000
vt -15.861700 68.339897
vt -33.967999 68.339897
vt -10.298100 -0.000000
vn -0.989100 0.147200 0.000000
vn -0.654600 0.122800 0.746000
vn -0.654500 0.122800 0.746000
vn -0.657100 0.086300 0.748900
vn -0.657100 0.086600 0.748800
vn -0.657200 0.276900 0.701000
vn -0.657100 0.086600 0.748900
vn 0.000000 -1.000000 0.000000
vn 0.495200 0.137800 -0.857800
vn -0.000000 1.000000 -0.000000
vn 0.824500 0.062800 0.562400
vn -0.495500 0.133900 -0.858200
vn -0.495200 0.137800 -0.857800
vn -0.990900 0.134800 -0.000000
vn 0.219400 0.125500 -0.967500
vn 0.219200 0.135600 -0.966200
vn 0.495600 0.131700 0.858500
vn 0.495700 0.131700 0.858500
vn 0.990900 0.134800 -0.000000
usemtl Stone.004
s 1
f 1/1/1 2/2/1 3/3/1
f 2/2/1 1/1/1 4/4/1
f 1/5/2 5/6/3 4/7/3
f 5/6/3 1/5/2 6/8/2
f 1/9/4 7/10/5 6/11/6
f 8/12/5 7/10/5 1/9/4
f 7/10/5 8/12/5 9/13/7
f 10/14/8 9/15/8 8/16/8
f 11/17/8 9/15/8 10/14/8
f 11/17/8 12/18/8 9/15/8
f 12/18/8 11/17/8 13/19/8
f 14/20/9 13/21/9 11/22/9
f 13/21/9 14/20/9 15/23/9
f 14/24/10 16/25/10 15/26/10
f 16/25/10 14/24/10 7/27/10
f 7/27/10 14/24/10 6/28/10
f 17/29/11 6/30/11 14/31/11
f 6/30/11 17/29/11 5/32/11
f 18/33/10 5/34/10 17/35/10
f 5/34/10 18/33/10 2/36/10
f 19/37/12 2/38/12 18/39/12
f 2/38/12 19/37/12 3/40/12
f 10/41/13 3/42/13 19/43/13
f 3/42/13 10/41/13 20/44/13
f 10/14/8 8/16/8 20/45/8
f 8/46/14 3/47/14 20/48/14
f 3/47/14 8/46/14 1/49/14
f 19/50/15 11/51/15 10/52/15
f 11/51/15 19/50/15 14/53/15
f 18/54/16 14/55/16 19/56/16
f 14/55/16 18/54/16 17/57/16
f 5/34/10 2/36/10 4/58/10
f 9/59/17 16/60/17 7/61/18
f 16/60/17 9/59/17 12/62/17
f 12/63/19 15/64/19 16/65/19
f 15/64/19 12/63/19 13/66/19
