# Blender v2.76 (sub 0) OBJ File: ''
# www.blender.org
mtllib naturePack_flat_006.mtl
o Mesh4_Flower_Yellow_Model
v 0.000000 0.210877 0.242963
v -0.217556 0.000000 0.242963
v -0.038001 0.000000 0.242963
v -0.217556 0.107776 0.242963
vt -1.496090 0.000000
vt -8.565200 0.000000
vt 0.000000 8.302230
vt -8.565200 4.243150
vn 0.000000 -0.000000 -1.000000
usemtl Green_leafs.053
s 1
f 3/1/1 2/2/1 1/3/1
f 4/4/1 1/3/1 2/2/1
o Mesh1_Flower_Yellow_Model
v -0.268370 0.107776 0.242963
v -0.447925 0.000000 0.242963
v -0.268370 0.000000 0.242963
v -0.485926 0.210877 0.242963
vt -10.565700 0.000000
vt -17.634800 0.000000
vt -10.565700 4.243150
vt -19.130899 8.302230
vn 0.000000 -0.000000 -1.000000
usemtl Green_leafs.053
s 1
f 7/5/2 6/6/2 5/7/2
f 8/8/2 5/7/2 6/6/2
o Mesh3_Flower_Yellow_Model
v -0.242963 0.000000 0.268370
v -0.217556 0.000000 0.242963
v -0.217556 0.000000 0.268370
v -0.217556 0.000000 0.217556
v -0.217556 0.282100 0.268370
v -0.217556 0.282100 0.217556
v -0.268370 0.282100 0.217556
v -0.242963 0.000000 0.217556
v -0.268370 0.000000 0.217556
v -0.268370 0.000000 0.268370
v -0.268370 0.282100 0.268370
v -0.346125 0.282100 0.346125
v -0.139800 0.282100 0.346125
v -0.139800 0.282100 0.139800
v -0.346125 0.282100 0.139800
v -0.268370 0.000000 0.242963
v -0.097504 0.400000 0.388422
v -0.388422 0.400000 0.388422
v -0.388422 0.400000 0.097504
v -0.097504 0.400000 0.097504
vt -8.565200 10.565700
vt -5.503950 13.627000
vt -13.627000 13.627000
vt -5.503950 5.503950
vt -8.565200 8.565200
vt -13.627000 5.503950
vt -10.565700 8.565200
vt -10.565700 10.565700
vt -3.838730 19.986900
vt -13.627000 15.055500
vt -5.503950 15.055500
vt -15.292200 19.986900
vt 3.838730 15.292200
vt 15.292200 3.838730
vt 15.292200 15.292200
vt 3.838730 3.838730
vt -5.503950 8.595370
vt -15.292200 13.526800
vt -13.627000 8.595370
vt 5.503950 8.595370
vt 15.292200 13.526800
vt 3.838730 13.526800
vt 13.627000 8.595370
vt 5.503950 15.055500
vt 15.292200 19.986900
vt 3.838730 19.986900
vt 13.627000 15.055500
vt -8.565200 9.565470
vt -9.565470 10.565700
vt -8.565200 11.106300
vt -8.565200 0.000000
vt -10.565700 11.106300
vt 8.565200 0.000000
vt 10.565700 11.106300
vt 8.565200 11.106300
vt 9.565470 0.000000
vt 10.565700 0.000000
vt -9.565470 8.565200
vt -9.565470 0.000000
vt -10.565700 0.000000
vt -10.565700 9.565470
vt -3.838730 13.526800
vn 0.000000 -1.000000 0.000000
vn 0.000000 -0.337700 0.941300
vn 0.000000 1.000000 -0.000000
vn 0.941300 -0.337700 0.000000
vn 0.000000 -0.337700 -0.941300
vn -0.941300 -0.337700 0.000000
vn -1.000000 -0.000000 0.000000
vn 0.000000 -0.000000 -1.000000
vn 0.000000 0.000000 1.000000
vn -0.923900 0.000000 0.382700
vn -0.923900 -0.000000 -0.382700
vn -0.923900 -0.270600 0.270600
vn -0.941300 0.337700 0.000000
usemtl Light_Wood.009
s 1
f 13/9/3 21/10/3 20/11/3
f 21/10/3 13/9/3 22/12/3
f 22/12/3 14/13/3 23/14/3
f 23/14/3 14/13/3 15/15/3
f 23/14/3 15/15/3 20/11/3
f 19/16/3 20/11/3 15/15/3
f 25/17/4 20/18/4 21/19/4
f 20/18/4 25/17/4 26/20/4
f 25/21/5 27/22/5 26/23/5
f 27/22/5 25/21/5 28/24/5
f 22/25/6 25/26/6 21/27/6
f 22/28/7 27/29/7 28/30/7
f 27/29/7 22/28/7 23/31/7
f 23/32/8 26/33/8 27/34/8
f 26/33/8 23/32/8 20/35/8
usemtl Green_leafs.053
f 11/9/5 10/36/5 9/37/5
f 14/38/9 12/39/9 13/40/9
f 12/41/10 15/42/10 14/43/10
f 16/44/10 15/42/10 12/41/10
f 15/42/10 16/44/10 17/45/10
f 16/46/3 9/37/3 17/15/3
f 12/13/5 9/37/5 10/36/5
f 16/46/5 9/37/5 12/13/5
f 18/16/5 9/37/5 17/15/5
f 9/47/11 13/38/11 18/48/11
f 13/38/11 9/47/11 11/39/11
f 18/48/11 13/38/11 19/40/11
f 19/16/5 20/11/5 13/9/5
f 15/43/9 24/44/9 19/42/9
f 24/44/9 15/43/9 17/41/9
f 19/42/9 24/44/9 18/45/9
f 17/15/12 18/16/13 24/49/14
f 28/50/15 22/25/15 25/26/15
f 13/9/5 22/12/5 14/13/5
f 11/48/9 13/40/9 10/47/9
f 10/47/9 13/40/9 12/39/9
o Mesh2_Flower_Yellow_Model
v -0.242963 0.000000 0.038001
v -0.242963 0.107776 0.217556
v -0.242963 0.210877 -0.000000
v -0.242963 0.000000 0.217556
vt 0.000000 8.302230
vt 8.565200 4.243150
vt 1.496090 0.000000
vt 8.565200 0.000000
vn 1.000000 -0.000000 0.000000
usemtl Green_leafs.053
s 1
f 31/51/16 30/52/16 29/53/16
f 32/54/16 29/53/16 30/52/16
o Mesh5_Flower_Yellow_Model
v -0.242963 0.000000 0.447925
v -0.242963 0.107776 0.268370
v -0.242963 0.000000 0.268370
v -0.242963 0.210877 0.485926
vt 10.565700 -0.000000
vt 10.565700 4.243150
vt 17.634800 -0.000000
vt 19.130899 8.302230
vn 1.000000 0.000000 0.000000
usemtl Green_leafs.053
s 1
f 35/55/17 34/56/17 33/57/17
f 36/58/17 33/57/17 34/56/17
