# Blender v2.76 (sub 0) OBJ File: ''
# www.blender.org
mtllib naturePack_088.mtl
o Mesh1_Group1_Model.062
v -0.443683 1.107540 0.810860
v -0.358471 0.934099 1.457140
v -0.358471 0.934099 0.761664
v -0.443683 1.107540 1.407940
v -0.960769 0.934099 1.804870
v -0.960769 1.107540 1.706480
v -1.563070 0.934099 1.457140
v -1.477850 1.107540 1.407940
v -1.477850 1.107540 0.810860
v -1.563070 0.934099 0.761664
v -0.960769 0.934099 0.413927
v -0.960769 1.107540 0.512321
v -0.000000 0.204457 0.554700
v -0.960769 0.204457 -0.000000
v -0.000000 0.204457 1.664100
v -0.960769 0.204457 2.218800
v -0.480384 0.000000 1.941450
v -0.960769 0.934099 2.019110
v -0.172938 0.934099 1.564250
v 0.000000 0.000000 1.109400
v -0.172938 0.934099 0.654546
v -0.960769 0.934099 0.199692
v -1.921540 0.204457 0.554700
v -1.921540 0.204457 1.664100
v -1.441150 0.000000 1.941450
v -1.748600 0.934099 1.564250
v -1.354680 0.749679 1.791680
v -0.960769 1.652870 1.648420
v -1.427570 1.652870 1.378910
v -0.960769 1.652870 1.791680
v -0.493966 1.652870 1.378910
v -0.369896 1.652870 1.450540
v -0.493966 1.652870 0.839891
v -0.172938 0.749679 1.109400
v -0.960769 1.652870 0.570383
v -0.566853 0.749679 0.427119
v -1.427570 1.652870 0.839891
v -1.748600 0.934099 0.654546
v -1.354680 0.749679 0.427119
v -1.921540 0.000000 1.109400
v -1.748600 0.749679 1.109400
v -1.384780 1.748680 0.864598
v -1.384780 1.748680 1.354200
v -0.960769 1.748680 1.599000
v -0.536758 1.748680 1.354200
v -0.536758 1.748680 0.864598
v -0.960769 1.748680 0.619795
v -0.960769 1.652870 0.427119
v -0.369896 1.652870 0.768259
v -0.642761 2.263810 0.925798
v -0.642761 2.263810 1.293000
v -0.505797 2.263810 1.372080
v -0.505797 2.263810 0.846722
v -0.960769 2.263810 0.584044
v -0.960769 2.263810 0.742196
v -0.665332 1.514550 0.597689
v -1.278780 2.263810 0.925798
v -1.551640 1.652870 0.768259
v -1.551640 1.652870 1.450540
v -0.960769 2.263810 1.476600
v -1.278780 2.263810 1.293000
v -0.960769 2.263810 1.634760
v -0.705041 2.932960 1.257040
v -0.960769 2.932960 1.404690
v -0.715903 2.969440 1.250769
v -0.960769 2.969440 1.392150
v -1.216500 2.932960 1.257040
v -1.205630 2.969440 1.250769
v -1.205630 2.969440 0.968027
v -1.216500 2.932960 0.961756
v -0.960769 2.932960 0.814111
v -0.960769 2.969440 0.826653
v -0.705041 2.932960 0.961756
v -0.715903 2.969440 0.968027
v -0.637738 2.932960 1.295900
v -0.960769 2.932960 1.482399
v -0.799254 2.819530 1.389150
v -0.905135 3.803960 1.141519
v -0.960769 3.803960 1.173639
v -0.960769 3.803960 1.045159
v -0.905135 3.803960 1.077279
v -0.637738 2.932960 0.922898
v -0.637738 2.819530 1.109400
v -0.960769 2.932960 0.736397
v -0.733283 2.104050 0.715383
v -1.415740 2.263810 0.846722
v -1.415740 2.263810 1.372080
v -1.283800 2.932960 1.295900
v -1.122280 2.819530 1.389150
v -1.016400 3.803960 1.141519
v -1.016400 3.803960 1.077279
v -1.283800 2.932960 0.922898
v -1.122280 2.819530 0.829648
v -1.415740 2.104050 1.109400
v -1.283800 2.819530 1.109400
v -0.799254 2.819530 0.829648
v -1.188250 2.104050 1.503420
v -1.551640 1.514550 1.109400
v -1.188250 2.104050 0.715383
v -0.505797 2.104050 1.109400
v -0.733283 2.104050 1.503420
v -0.665332 1.514550 1.621110
v -1.256200 1.514550 1.621110
v -1.256200 1.514550 0.597689
v -0.369896 1.514550 1.109400
v -0.566853 0.749679 1.791680
v -1.441150 0.000000 0.277350
v -0.480384 0.000000 0.277350
vt -31.923599 46.838402
vt -57.367599 39.230400
vt -29.986799 39.230400
vt -55.430698 46.838402
vt -42.842899 21.819401
vt -68.286903 14.211400
vt -40.905998 14.211400
vt -66.349998 21.819401
vt 0.834234 5.140030
vt -24.609699 -2.467980
vt 2.771120 -2.467980
vt -22.672800 5.140030
vt 31.923599 13.479700
vt 57.367599 5.871690
vt 55.430698 13.479700
vt 29.986799 5.871690
vt 66.349998 38.498699
vt 40.905998 30.890699
vt 68.286903 30.890699
vt 42.842899 38.498699
vt 22.672800 55.178001
vt -2.771120 47.570000
vt 24.609699 47.570000
vt -0.834234 55.178001
vt -10.919300 15.564300
vt 32.757900 15.564300
vt -0.000000 65.515701
vt -37.825500 0.000000
vt -0.000000 21.838600
vt -37.825500 87.354301
vt -76.434998 8.049500
vt -54.596500 -0.000000
vt -32.757900 8.049500
vt -76.434998 -17.794300
vt -32.757900 -17.794300
vt -14.113100 57.367599
vt -37.825500 79.492401
vt -37.825500 71.057999
vt -6.808600 61.584801
vt -14.113100 29.986799
vt -65.515701 7.224660
vt -21.838600 7.224660
vt -65.515701 8.049500
vt -43.677200 -0.000000
vt -21.838600 8.049500
vt -6.808600 25.769501
vt -37.825500 7.861890
vt -37.825500 16.296301
vt -61.537998 29.986799
vt 32.757900 -1.115000
vt 76.434998 -1.115000
vt -75.651100 65.515701
vt -75.651100 21.838600
vt -10.919300 -0.000000
vt 10.919300 8.049500
vt -32.757900 -34.473701
vt 10.919300 -34.473701
vt -61.537998 57.367599
vt -68.842499 61.584801
vt -28.826900 36.775600
vt -10.919300 29.514900
vt 6.988350 36.775600
vt -0.308712 28.783600
vt -28.826900 -2.208670
vt 6.988350 -2.208670
vt -21.529900 28.783600
vt -37.825500 64.898300
vt -37.825500 70.538597
vt -56.203602 54.287701
vt -19.447500 54.287701
vt -14.562800 57.107899
vt -19.447500 33.066601
vt -61.584801 36.355202
vt -33.066601 67.347397
vt -54.287701 67.347397
vt -25.769501 36.355202
vt -61.584801 36.775600
vt -43.677200 29.514900
vt -25.769501 36.775600
vt -6.988350 44.067902
vt 21.529900 75.060204
vt 0.308712 75.060204
vt 28.826900 44.067902
vt -6.988350 36.775600
vt 10.919300 29.514900
vt 28.826900 36.775600
vt 36.688801 28.642401
vt 65.207001 59.634701
vt 43.985901 59.634701
vt 72.504097 28.642401
vt 36.688801 36.775600
vt 54.596500 29.514900
vt 72.504097 36.775600
vt -68.842499 25.769501
vt 65.515701 -26.134001
vt 21.838600 -26.134001
vt 65.515701 8.049500
vt 21.838600 8.049500
vt 43.677200 0.000000
vt 61.584801 36.775600
vt 25.769501 36.775600
vt 43.677200 29.514900
vt 61.584801 5.504100
vt 33.066601 36.496399
vt 25.769501 5.504100
vt 54.287701 36.496399
vt 34.039299 40.627602
vt 53.315102 40.627602
vt -1.281400 32.914799
vt -20.557199 32.914799
vt -43.985901 44.209099
vt -64.234299 48.340401
vt -65.207001 44.209099
vt -44.958599 48.340401
vt -34.039299 71.478699
vt -53.315102 71.478699
vt 20.557199 79.191399
vt 1.281400 79.191399
vt -37.825500 16.815701
vt -37.825500 22.455999
vt -14.562800 30.246401
vt -36.448700 91.698097
vt -57.107899 65.355400
vt -30.246401 65.355400
vt -50.905602 91.698097
vt -25.305500 36.448700
vt -19.913300 54.018799
vt -25.305500 50.905602
vt -19.913300 33.335499
vt -37.825500 22.993799
vt -37.825500 29.220301
vt -2.511440 73.068199
vt 18.147699 99.410797
vt 3.690870 99.410797
vt 24.350000 73.068199
vt -2.511440 65.073601
vt 10.919300 59.628101
vt 24.350000 65.073601
vt 41.165699 57.642700
vt 61.824902 83.985298
vt 47.368000 83.985298
vt 68.027199 57.642700
vt -56.203602 33.066601
vt -61.088200 30.246401
vt 64.234299 63.765900
vt 44.958599 63.765900
vt -61.088200 57.107899
vt -3.690870 53.134201
vt -24.350000 26.791599
vt 2.511440 26.791599
vt -18.147699 53.134201
vt -37.825500 58.133999
vt -37.825500 64.360497
vt -50.345501 50.905602
vt -48.783699 102.399002
vt -64.938103 74.911003
vt -44.254799 74.911003
vt -60.409199 102.399002
vt -49.030602 103.897003
vt -60.162300 103.897003
vt -5.353410 93.102699
vt -16.732100 91.604202
vt -5.106520 91.604202
vt -16.485201 93.102699
vt 38.111301 98.499901
vt 49.489899 97.001404
vt 49.243000 98.499901
vt 37.864399 97.001404
vt 60.162300 114.692001
vt 48.783699 113.193001
vt 60.409199 113.193001
vt 49.030602 114.692001
vt 16.485201 125.486000
vt 5.106520 123.987999
vt 16.732100 123.987999
vt 5.353410 125.486000
vt -38.111301 120.088997
vt -49.489899 118.589996
vt -37.864399 118.589996
vt -49.243000 120.088997
vt -25.107800 51.019699
vt -27.757500 49.489899
vt -27.757500 37.864399
vt -37.825500 58.362301
vt -61.938999 115.471001
vt -54.596500 111.004997
vt -47.253899 115.471001
vt -53.331902 136.973999
vt -61.938999 101.102997
vt -47.253899 101.102997
vt -55.861000 136.973999
vt 35.635201 44.941700
vt 37.825500 41.147999
vt 37.825500 46.206299
vt 35.635201 42.412601
vt -51.019699 117.754997
vt -42.412601 153.625000
vt -44.941700 153.625000
vt -36.334599 117.754997
vt -51.019699 115.471001
vt -43.677200 111.004997
vt -36.334599 115.471001
vt -25.107800 36.334599
vt -37.825500 28.992001
vt -37.825500 32.051601
vt 0.577631 96.499901
vt 21.261000 96.499901
vt 0.577631 89.126198
vt 10.919300 82.836601
vt 21.261000 89.126198
vt 44.254799 85.705498
vt 64.938103 85.705498
vt -50.345501 36.448700
vt -55.737801 33.335499
vt -55.737801 54.018799
vt -21.261000 64.116600
vt -0.577631 64.116600
vt -37.825500 55.302700
vt -47.893600 49.489899
vt -50.543301 51.019699
vt -18.261900 115.471001
vt -10.919300 111.004997
vt -3.576710 115.471001
vt -9.654720 125.873001
vt -18.261900 90.001900
vt -3.576710 90.001900
vt -12.183900 125.873001
vt 40.015800 42.412601
vt 40.015800 44.941700
vt 47.253899 112.204002
vt 55.861000 148.074997
vt 53.331902 148.074997
vt 61.938999 112.204002
vt 47.253899 115.471001
vt 54.596500 111.004997
vt 61.938999 115.471001
vt -47.893600 37.864399
vt -50.543301 36.334599
vt 54.018799 69.513802
vt 33.335499 69.513802
vt 54.018799 89.126198
vt 33.335499 89.126198
vt 43.677200 82.836601
vt 51.019699 95.552498
vt 42.412601 131.423004
vt 36.334599 95.552498
vt 44.941700 131.423004
vt 51.019699 115.471001
vt 36.334599 115.471001
vt 43.677200 111.004997
vt 12.183900 159.175995
vt 3.576710 123.305000
vt 18.261900 123.305000
vt 9.654720 159.175995
vt 3.576710 115.471001
vt 10.919300 111.004997
vt 18.261900 115.471001
vt -21.261000 89.126198
vt -10.919300 82.836601
vt -0.577631 89.126198
vt 36.448700 60.847000
vt 57.107899 34.504398
vt 50.905602 60.847000
vt 30.246401 34.504398
vt 57.107899 65.073601
vt 30.246401 65.073601
vt 43.677200 59.628101
vt 44.254799 89.126198
vt 54.596500 82.836601
vt 64.938103 89.126198
vt -54.018799 91.102699
vt -33.335499 91.102699
vt -54.018799 89.126198
vt -43.677200 82.836601
vt -33.335499 89.126198
vt -64.938103 89.126198
vt -54.596500 82.836601
vt -44.254799 89.126198
vt -68.027199 42.217098
vt -47.368000 68.559700
vt -61.824902 68.559700
vt -41.165699 42.217098
vt -68.027199 65.073601
vt -54.596500 59.628101
vt -41.165699 65.073601
vt -24.350000 65.073601
vt -10.919300 59.628101
vt 2.511440 65.073601
vt 41.165699 65.073601
vt 54.596500 59.628101
vt 68.027199 65.073601
vt -57.107899 65.073601
vt -43.677200 59.628101
vt -30.246401 65.073601
vt -72.504097 13.216900
vt -36.688801 13.216900
vt -72.504097 36.775600
vt -54.596500 29.514900
vt -36.688801 36.775600
vt 32.757900 8.049500
vt 54.596500 0.000000
vt 76.434998 8.049500
vt -10.919300 8.049500
vt 10.919300 -0.000000
vn 0.897500 0.441000 -0.000000
vn 0.448800 0.441000 0.777300
vn 0.448800 0.440900 0.777300
vn -0.448800 0.441000 0.777300
vn -0.448800 0.440900 0.777300
vn -0.897500 0.441000 -0.000000
vn -0.448800 0.441000 -0.777300
vn 0.448800 0.441000 -0.777300
vn 0.000000 -1.000000 0.000000
vn 0.500000 0.000000 0.866000
vn 1.000000 0.000000 0.000000
vn -0.500000 -0.000000 0.866000
vn -0.456500 0.407800 0.790700
vn 0.913100 0.407800 -0.000000
vn 0.456500 0.407800 -0.790700
vn 0.500000 0.000000 -0.866000
vn -0.456500 0.407800 -0.790700
vn -0.500000 -0.000000 -0.866000
vn -1.000000 0.000000 0.000000
vn -0.913100 0.407800 0.000000
vn -0.456500 0.407900 0.790700
vn 0.456500 0.407900 0.790700
vn 0.456500 0.407800 0.790700
vn 0.479200 0.285400 0.830000
vn 0.479200 0.285300 0.830000
vn -0.479200 0.285300 0.830000
vn -0.479200 0.285400 0.830000
vn -0.958500 0.285200 -0.000000
vn -0.479200 0.285500 -0.830000
vn -0.479200 0.285400 -0.830000
vn 0.479200 0.285400 -0.830000
vn 0.958400 0.285400 0.000000
vn 0.478000 0.293500 0.827900
vn 0.000000 1.000000 0.000000
vn 0.956000 0.293500 0.000000
vn -0.478000 0.293500 0.827900
vn -0.478000 0.293500 -0.827900
vn -0.958400 0.285400 0.000000
vn -0.956000 0.293500 0.000000
vn 0.478000 0.293500 -0.827900
usemtl Leafs.025
s 1
f 1/1/1 2/2/1 3/3/1
f 2/2/1 1/1/1 4/4/1
f 4/5/2 5/6/3 2/7/2
f 5/6/3 4/5/2 6/8/3
f 6/9/4 7/10/4 5/11/5
f 7/10/4 6/9/4 8/12/4
f 9/13/6 7/14/6 8/15/6
f 7/14/6 9/13/6 10/16/6
f 9/17/7 11/18/7 10/19/7
f 11/18/7 9/17/7 12/20/7
f 12/21/8 3/22/8 11/23/8
f 3/22/8 12/21/8 1/24/8
f 13/25/8 11/23/8 3/22/8
f 11/23/8 13/25/8 14/26/8
f 15/27/9 14/28/9 13/29/9
f 14/28/9 15/27/9 16/30/9
f 16/31/10 17/32/10 15/33/10
f 2/7/2 16/34/2 15/35/2
f 16/34/2 2/7/2 5/6/2
f 2/36/9 18/37/9 5/38/9
f 2/36/9 19/39/9 18/37/9
f 19/39/9 2/36/9 3/40/9
f 15/41/1 3/3/1 2/2/1
f 3/3/1 15/41/1 13/42/1
f 15/43/11 20/44/11 13/45/11
f 3/40/9 21/46/9 19/39/9
f 21/46/9 3/40/9 22/47/9
f 22/47/9 3/40/9 11/48/9
f 22/47/9 11/48/9 10/49/9
f 14/50/7 10/19/7 11/18/7
f 10/19/7 14/50/7 23/51/7
f 14/28/9 24/52/9 23/53/9
f 14/28/9 16/30/9 24/52/9
f 24/33/12 25/54/12 16/55/12
f 5/11/4 24/56/4 16/57/4
f 24/56/4 5/11/4 7/10/5
f 5/38/9 18/37/9 7/58/9
f 7/58/9 18/37/9 26/59/9
f 26/60/12 27/61/12 18/62/12
f 28/63/13 26/64/13 18/65/13
f 26/64/13 28/63/13 29/66/13
f 28/67/9 30/68/9 29/69/9
f 31/70/9 30/68/9 28/67/9
f 31/70/9 32/71/9 30/68/9
f 32/71/9 31/70/9 33/72/9
f 19/73/14 33/74/14 31/75/14
f 33/74/14 19/73/14 21/76/14
f 19/77/11 34/78/11 21/79/11
f 21/80/15 35/81/15 33/82/15
f 35/81/15 21/80/15 22/83/15
f 21/84/16 36/85/16 22/86/16
f 22/87/17 37/88/17 35/89/17
f 37/88/17 22/87/17 38/90/17
f 22/91/18 39/92/18 38/93/18
f 22/47/9 10/49/9 38/94/9
f 38/94/9 10/49/9 7/58/9
f 10/16/6 24/95/6 7/14/6
f 24/95/6 10/16/6 23/96/6
f 24/97/19 23/98/19 40/99/19
f 38/94/9 7/58/9 26/59/9
f 26/100/19 38/101/19 41/102/19
f 26/103/20 37/104/20 38/105/20
f 37/104/20 26/103/20 29/106/20
f 29/106/20 42/107/20 37/104/20
f 42/107/20 29/106/20 43/108/20
f 29/66/13 44/109/21 43/110/13
f 44/109/21 29/66/13 28/63/21
f 31/111/22 44/112/22 28/113/22
f 44/112/23 31/111/23 45/114/23
f 31/75/14 46/115/14 45/116/14
f 46/115/14 31/75/14 33/74/14
f 33/82/15 47/117/15 46/118/15
f 47/117/15 33/82/15 35/81/15
f 48/119/9 33/72/9 35/120/9
f 49/121/9 33/72/9 48/119/9
f 33/72/9 49/121/9 32/71/9
f 50/122/14 32/123/14 49/124/14
f 32/123/14 50/122/14 51/125/14
f 50/126/9 52/127/9 51/128/9
f 50/126/9 53/129/9 52/127/9
f 53/129/9 50/126/9 54/130/9
f 54/130/9 50/126/9 55/131/9
f 49/132/15 55/133/15 50/134/15
f 55/133/15 49/132/15 48/135/15
f 49/136/16 56/137/16 48/138/16
f 48/139/17 57/140/17 55/141/17
f 57/140/17 48/139/17 58/142/17
f 48/119/9 37/143/9 58/144/9
f 48/119/9 35/120/9 37/143/9
f 42/145/17 35/89/17 37/88/17
f 35/89/17 42/145/17 47/146/17
f 58/144/9 37/143/9 59/147/9
f 29/69/9 59/147/9 37/143/9
f 29/69/9 30/68/9 59/147/9
f 60/148/13 59/149/13 30/150/13
f 59/149/13 60/148/13 61/151/13
f 60/152/9 62/153/9 61/154/9
f 51/128/9 62/153/9 60/152/9
f 62/153/9 51/128/9 52/127/9
f 63/155/24 62/156/24 52/157/24
f 62/156/24 63/155/24 64/158/24
f 65/159/25 64/158/25 63/155/24
f 64/158/25 65/159/25 66/160/25
f 66/161/26 67/162/27 64/163/26
f 67/162/27 66/161/26 68/164/27
f 69/165/28 67/166/28 68/167/28
f 67/166/28 69/165/28 70/168/28
f 69/169/29 71/170/30 70/171/29
f 71/170/30 69/169/29 72/172/30
f 72/173/31 73/174/31 71/175/31
f 73/174/31 72/173/31 74/176/31
f 74/177/32 63/178/32 73/179/32
f 63/178/32 74/177/32 65/180/32
f 75/181/9 63/182/9 73/183/9
f 63/182/9 75/181/9 76/184/9
f 76/185/10 77/186/10 75/187/10
f 78/188/33 76/189/33 75/190/33
f 76/189/33 78/188/33 79/191/33
f 78/192/34 80/193/34 79/194/34
f 80/193/34 78/192/34 81/195/34
f 75/196/35 81/197/35 78/198/35
f 81/197/35 75/196/35 82/199/35
f 75/200/11 83/201/11 82/202/11
f 73/183/9 82/203/9 75/181/9
f 82/203/9 73/183/9 84/204/9
f 84/204/9 73/183/9 71/205/9
f 53/206/31 71/175/31 73/174/31
f 71/175/31 53/206/31 54/207/31
f 53/208/16 85/209/16 54/210/16
f 54/211/30 70/171/30 71/170/30
f 70/171/30 54/211/30 86/212/30
f 54/130/9 57/213/9 86/214/9
f 54/130/9 55/131/9 57/213/9
f 86/214/9 57/213/9 87/215/9
f 61/154/9 87/215/9 57/213/9
f 61/154/9 62/153/9 87/215/9
f 64/163/27 87/216/27 62/217/27
f 87/216/27 64/163/27 67/162/27
f 64/218/9 76/184/9 67/219/9
f 63/182/9 76/184/9 64/218/9
f 67/219/9 76/184/9 88/220/9
f 88/221/12 89/222/12 76/223/12
f 79/224/36 88/225/36 76/226/36
f 88/225/36 79/224/36 90/227/36
f 79/194/34 91/228/34 90/229/34
f 79/194/34 80/193/34 91/228/34
f 84/230/37 91/231/37 80/232/37
f 91/231/37 84/230/37 92/233/37
f 84/234/18 93/235/18 92/236/18
f 84/204/9 70/237/9 92/238/9
f 84/204/9 71/205/9 70/237/9
f 92/238/9 70/237/9 88/220/9
f 67/219/9 88/220/9 70/237/9
f 70/168/38 87/239/38 67/166/38
f 87/239/38 70/168/38 86/240/38
f 87/241/19 86/242/19 94/243/19
f 88/244/39 91/245/39 92/246/39
f 91/245/39 88/244/39 90/247/39
f 88/248/19 92/249/19 95/250/19
f 80/251/40 82/252/40 84/253/40
f 82/252/40 80/251/40 81/254/40
f 82/255/16 96/256/16 84/257/16
f 87/258/12 97/259/12 62/260/12
f 57/261/20 59/262/20 61/263/20
f 59/262/20 57/261/20 58/264/20
f 59/265/19 58/266/19 98/267/19
f 54/268/18 99/269/18 86/270/18
f 73/179/32 52/271/32 53/272/32
f 52/271/32 73/179/32 63/178/32
f 52/273/11 100/274/11 53/275/11
f 62/276/10 101/277/10 52/278/10
f 30/279/23 51/280/23 60/281/23
f 51/280/23 30/279/23 32/282/23
f 30/283/10 102/284/10 32/285/10
f 59/286/12 103/287/12 30/288/12
f 48/289/18 104/290/18 58/291/18
f 32/292/11 105/293/11 49/294/11
f 18/295/23 31/111/23 28/113/23
f 31/111/23 18/295/23 19/296/23
f 18/297/10 106/298/10 19/299/10
f 14/300/18 107/301/18 23/302/18
f 13/303/16 108/304/16 14/300/16
