# Blender v2.76 (sub 0) OBJ File: ''
# www.blender.org
mtllib naturePack_108.mtl
o Mesh1_Trunk_Model.001
v -0.803690 0.000000 0.803690
v -0.701729 0.230000 0.101961
v -0.803690 0.000000 0.000000
v -0.701729 0.230000 0.701729
v -0.101961 0.230000 0.701729
v 0.000000 0.000000 0.803690
v 0.000000 0.000000 0.000000
v -0.101961 0.230000 0.101961
v -0.639848 0.830000 0.163841
v -0.163841 0.830000 0.163841
v -0.262660 0.830000 0.262660
v -0.163841 0.830000 0.639848
v -0.262660 0.830000 0.541029
v -0.639848 0.830000 0.639848
v -0.541029 0.830000 0.541029
v -0.262660 0.230000 0.541029
v -0.541029 0.230000 0.541029
v -0.541029 0.230000 0.262660
v -0.262660 0.230000 0.262660
v -0.541029 0.830000 0.262660
vt 10.341000 10.341000
vt 6.450450 6.450450
vt 25.190901 6.450450
vt 6.450450 25.190901
vt 10.341000 21.300400
vt 25.190901 25.190901
vt 21.300400 21.300400
vt 21.300400 10.341000
vt 31.641300 -12.823300
vt 4.014200 -2.918280
vt 0.000000 -12.823300
vt 27.627100 -2.918280
vt -31.641300 -12.823300
vt -4.014200 -2.918280
vt -27.627100 -2.918280
vt -31.641300 31.641300
vt 0.000000 0.000000
vt 0.000000 31.641300
vt -31.641300 0.000000
vt 27.627100 9.905000
vt 31.641300 -0.000000
vt 4.014200 9.905000
vt 25.190901 33.166500
vt 4.014200 9.419160
vt 27.627100 9.419160
vt 6.450450 33.166500
vt 10.341000 9.055120
vt 21.300400 32.677200
vt 10.341000 32.677200
vt 21.300400 9.055120
vt -10.341000 32.677200
vt -21.300400 9.055120
vt -10.341000 9.055120
vt -21.300400 32.677200
vt 6.450450 29.920401
vt 27.627100 6.173060
vt 25.190901 29.920401
vt 4.014200 6.173060
vt -27.627100 6.173060
vt -6.450450 29.920401
vt -25.190901 29.920401
vt -4.014200 6.173060
vt -27.627100 9.419160
vt -6.450450 33.166500
vt -25.190901 33.166500
vt -4.014200 9.419160
vt -4.014200 9.905000
vt -27.627100 9.905000
vn 0.000000 1.000000 -0.000000
vn -0.914200 0.405300 -0.000000
vn -0.966400 0.257100 -0.000000
vn 0.000000 0.405300 0.914200
vn 0.000000 0.257100 0.966400
vn 0.000000 -1.000000 0.000000
vn -0.000000 0.257100 -0.966400
vn 0.000000 0.405300 -0.914200
vn 0.000000 0.102600 -0.994700
vn 0.000000 -0.000000 -1.000000
vn -1.000000 -0.000000 0.000000
vn 0.000000 0.000000 1.000000
vn -0.994700 0.102600 -0.000000
vn 0.000000 0.102600 0.994700
vn 0.966400 0.257100 0.000000
vn 0.994700 0.102600 -0.000000
vn 0.914200 0.405300 -0.000000
vn 1.000000 -0.000000 0.000000
usemtl Light_Wood.005
s 1
f 11/1/1 10/2/1 9/3/1
f 10/2/1 11/1/1 12/4/1
f 13/5/1 12/4/1 11/1/1
f 12/4/1 13/5/1 14/6/1
f 14/6/1 13/5/1 15/7/1
f 11/1/1 9/3/1 20/8/1
f 20/8/1 9/3/1 15/7/1
f 14/6/1 15/7/1 9/3/1
usemtl Wood.061
f 1/9/2 2/10/3 3/11/2
f 2/10/3 1/9/2 4/12/3
f 1/13/4 5/14/5 4/15/5
f 5/14/5 1/13/4 6/11/4
f 1/16/6 7/17/6 6/18/6
f 7/17/6 1/16/6 3/19/6
f 2/20/7 7/17/8 3/21/8
f 7/17/8 2/20/7 8/22/7
f 9/23/9 8/24/7 2/25/7
f 8/24/7 9/23/9 10/26/9
f 16/27/10 15/28/10 13/29/10
f 15/28/10 16/27/10 17/30/10
f 16/5/1 18/8/1 17/7/1
f 18/8/1 16/5/1 19/1/1
f 16/30/11 11/29/11 19/27/11
f 11/29/11 16/30/11 13/28/11
f 11/31/12 18/32/12 19/33/12
f 18/32/12 11/31/12 20/34/12
f 9/35/13 4/36/3 14/37/13
f 4/36/3 9/35/13 2/38/3
f 4/39/5 12/40/14 14/41/14
f 12/40/14 4/39/5 5/42/5
f 5/43/15 10/44/16 12/45/16
f 10/44/16 5/43/15 8/46/15
f 6/19/17 8/47/15 5/48/15
f 8/47/15 6/19/17 7/17/17
f 15/34/18 18/33/18 20/31/18
f 18/33/18 15/34/18 17/32/18
