# Blender v2.76 (sub 0) OBJ File: ''
# www.blender.org
mtllib naturePack_049.mtl
o Mesh1_Group1_Model.038
v -0.201300 0.000000 0.201300
v 0.000000 0.000000 0.000000
v 0.000000 0.000000 0.201300
v -0.201300 0.000000 0.000000
v -0.201300 0.992991 -0.000000
v -0.201300 0.992991 0.201300
v 0.000000 0.992991 0.201300
v 0.000000 0.992991 -0.000000
v -3.050000 0.992991 -0.050000
v 0.050000 0.992991 -0.050000
v 0.050000 0.992991 0.251300
v -3.050000 0.992991 0.251300
v 0.050000 1.112990 0.251300
v -3.050000 1.112990 0.251300
v -3.050000 1.112990 -0.050000
v 0.050000 1.112990 -0.050000
v -3.000000 0.992991 -0.000000
v -2.798700 0.992991 -0.000000
v -2.798700 0.992991 0.201300
v -3.000000 0.992991 0.201300
v -3.000000 0.000000 0.201300
v -3.000000 0.000000 0.000000
v -2.798700 0.000000 0.000000
v -2.798700 0.000000 0.201300
vt -7.925200 7.925200
vt 0.000000 0.000000
vt 0.000000 7.925200
vt -7.925200 0.000000
vt 7.925200 0.000000
vt 0.000000 39.094101
vt 7.925200 39.094101
vt -7.925200 39.094101
vt -120.079002 -1.968500
vt 1.968500 -1.968500
vt 1.968500 9.893700
vt -120.079002 9.893700
vt 1.968500 43.818600
vt -120.079002 39.094101
vt 1.968500 39.094101
vt -120.079002 43.818600
vt -1.968500 9.893700
vt 120.079002 -1.968500
vt 120.079002 9.893700
vt -1.968500 -1.968500
vt -9.893700 43.818600
vt -9.893700 39.094101
vt 120.079002 39.094101
vt -1.968500 43.818600
vt -1.968500 39.094101
vt 120.079002 43.818600
vt 9.893700 39.094101
vt 9.893700 43.818600
vt -118.110001 0.000000
vt -110.184998 0.000000
vt -110.184998 7.925200
vt -118.110001 7.925200
vt 118.110001 39.094101
vt 110.184998 0.000000
vt 118.110001 0.000000
vt 110.184998 39.094101
vt -110.184998 39.094101
vt -118.110001 39.094101
vn 0.000000 -1.000000 0.000000
vn -1.000000 -0.000000 0.000000
vn 0.000000 0.000000 1.000000
vn 1.000000 0.000000 0.000000
vn 0.000000 -0.000000 -1.000000
vn 0.000000 1.000000 0.000000
usemtl Wood.029
s 1
f 1/1/1 2/2/1 3/3/1
f 2/2/1 1/1/1 4/4/1
f 1/5/2 5/6/2 4/2/2
f 5/6/2 1/5/2 6/7/2
f 1/4/3 7/6/3 6/8/3
f 7/6/3 1/4/3 3/2/3
f 2/2/4 7/8/4 3/4/4
f 7/8/4 2/2/4 8/6/4
f 2/2/5 5/7/5 8/6/5
f 5/7/5 2/2/5 4/5/5
f 9/9/1 8/2/1 5/4/1
f 10/10/1 8/2/1 9/9/1
f 8/2/1 10/10/1 7/3/1
f 11/11/1 7/3/1 10/10/1
f 7/3/1 11/11/1 12/12/1
f 13/13/3 12/14/3 11/15/3
f 12/14/3 13/13/3 14/16/3
f 13/17/6 15/18/6 14/19/6
f 15/18/6 13/17/6 16/20/6
f 13/21/4 10/15/4 16/13/4
f 10/15/4 13/21/4 11/22/4
f 9/23/5 16/24/5 10/25/5
f 16/24/5 9/23/5 15/26/5
f 12/27/2 15/24/2 9/25/2
f 15/24/2 12/27/2 14/28/2
f 9/9/1 17/29/1 12/12/1
f 9/9/1 18/30/1 17/29/1
f 9/9/1 5/4/1 18/30/1
f 18/30/1 5/4/1 19/31/1
f 5/4/1 12/12/1 19/31/1
f 6/1/1 12/12/1 5/4/1
f 7/3/1 12/12/1 6/1/1
f 19/31/1 12/12/1 20/32/1
f 20/32/1 12/12/1 17/29/1
f 17/6/2 21/5/2 20/7/2
f 21/5/2 17/6/2 22/2/2
f 17/33/5 23/34/5 22/35/5
f 23/34/5 17/33/5 18/36/5
f 19/8/4 23/2/4 18/6/4
f 23/2/4 19/8/4 24/4/4
f 19/37/3 21/29/3 24/30/3
f 21/29/3 19/37/3 20/38/3
f 21/32/1 23/30/1 24/31/1
f 23/30/1 21/32/1 22/29/1
