# Blender v2.76 (sub 0) OBJ File: ''
# www.blender.org
mtllib naturePack_167.mtl
o Mesh1_Group2_Group1_Model.001
v -1.390780 1.098100 1.784360
v -1.852220 0.205400 1.844320
v -1.330820 0.205400 1.844320
v -1.792260 1.098100 1.784360
v -1.442970 2.670200 1.510970
v -1.740070 2.670200 1.510970
v -1.475650 3.839400 1.707389
v -1.707390 3.839400 1.707389
v -1.707390 3.839400 1.475649
v -1.475650 3.839400 1.475649
v -1.442970 2.670200 1.213870
v -1.390780 1.098100 1.382880
v -1.330820 0.205400 1.322920
v -1.367320 0.000000 1.359420
v -1.367320 0.000000 1.807820
v -1.815720 0.000000 1.807820
v -1.815720 0.000000 1.359420
v -1.852220 0.205400 1.322920
v -1.792260 1.098100 1.382880
v -1.740070 2.670200 1.213870
vt -2.988190 52.696098
vt -25.984301 8.107620
vt -0.000000 8.107620
vt -22.996099 52.696098
vt -5.589210 128.567001
vt -22.996099 49.044201
vt -2.988190 49.044201
vt -20.395000 128.567001
vt -7.217850 192.768997
vt -20.395000 133.684998
vt -5.589210 133.684998
vt -18.766399 192.768997
vt 7.217850 24.594500
vt 18.766399 13.046000
vt 18.766399 24.594500
vt 7.217850 13.046000
vt -14.805800 133.175003
vt -13.046000 191.466003
vt -24.594500 191.466003
vt -0.000000 133.175003
vt -14.805800 133.182999
vt -8.422600 54.793400
vt 0.000000 133.182999
vt -28.430500 54.793400
vt -31.418699 10.213200
vt -8.422600 54.801601
vt -28.430500 54.801601
vt -5.434410 10.213200
vt -31.418699 10.078300
vt -7.253310 -0.318219
vt -5.434410 10.078300
vt -29.599800 -0.318219
vt -0.000000 15.575100
vt -24.165400 5.178530
vt -1.818900 5.178530
vt -25.984301 15.575100
vt 31.418699 14.624300
vt 7.253310 4.227770
vt 29.599800 4.227770
vt 5.434410 14.624300
vt 31.418699 8.471820
vt 8.422600 53.060200
vt 5.434410 8.471820
vt 28.430500 53.060200
vt 14.805800 132.320999
vt 8.422600 53.931301
vt 28.430500 53.931301
vt 0.000000 132.320999
vt 14.805800 132.449005
vt 13.046000 190.740005
vt 0.000000 132.449005
vt 24.594500 190.740005
vt 18.766399 189.565994
vt 5.589210 129.856003
vt 20.395000 129.856003
vt 7.217850 189.565994
vt 2.988190 53.510601
vt 20.395000 132.309006
vt 5.589210 132.309006
vt 22.996099 53.510601
vt -0.000000 10.577400
vt 22.996099 55.165798
vt 2.988190 55.165798
vt 25.984301 10.577400
vt 1.818900 -1.268980
vt 25.984301 9.127590
vt 0.000000 9.127590
vt 24.165400 -1.268980
vt -1.818900 7.253310
vt -24.165400 29.599800
vt -24.165400 7.253310
vt -1.818900 29.599800
vn 0.000000 0.067000 0.997800
vn 0.000000 0.171300 0.985200
vn 0.000000 -0.165700 0.986200
vn 0.000000 1.000000 0.000000
vn 0.999600 0.027900 0.000000
vn 0.999400 0.033200 0.000000
vn 0.997800 0.067000 -0.000000
vn 0.984600 -0.175000 0.000000
vn 0.000000 -0.175000 0.984600
vn -0.984600 -0.175000 0.000000
vn -0.997800 0.067000 -0.000000
vn -0.999400 0.033200 0.000000
vn -0.999600 0.027900 0.000000
vn 0.000000 0.218500 -0.975800
vn 0.000000 -0.106900 -0.994300
vn 0.000000 0.067000 -0.997800
vn 0.000000 -0.175000 -0.984600
vn 0.000000 -1.000000 0.000000
usemtl Wood.103
s 1
f 1/1/1 2/2/1 3/3/1
f 2/2/1 1/1/1 4/4/1
f 5/5/2 4/6/2 1/7/2
f 4/6/2 5/5/2 6/8/2
f 7/9/3 6/10/3 5/11/3
f 6/10/3 7/9/3 8/12/3
f 7/13/4 9/14/4 8/15/4
f 9/14/4 7/13/4 10/16/4
f 5/17/5 10/18/5 7/19/5
f 10/18/5 5/17/5 11/20/5
f 5/21/6 12/22/6 11/23/6
f 12/22/6 5/21/6 1/24/6
f 3/25/7 12/26/7 1/27/7
f 12/26/7 3/25/7 13/28/7
f 3/29/8 14/30/8 13/31/8
f 14/30/8 3/29/8 15/32/8
f 3/33/9 16/34/9 15/35/9
f 16/34/9 3/33/9 2/36/9
f 2/37/10 17/38/10 16/39/10
f 17/38/10 2/37/10 18/40/10
f 2/41/11 19/42/11 18/43/11
f 19/42/11 2/41/11 4/44/11
f 6/45/12 19/46/12 4/47/12
f 19/46/12 6/45/12 20/48/12
f 6/49/13 9/50/13 20/51/13
f 9/50/13 6/49/13 8/52/13
f 9/53/14 11/54/14 20/55/14
f 11/54/14 9/53/14 10/56/14
f 12/57/15 20/58/15 11/59/15
f 20/58/15 12/57/15 19/60/15
f 13/61/16 19/62/16 12/63/16
f 19/62/16 13/61/16 18/64/16
f 14/65/17 18/66/17 13/67/17
f 18/66/17 14/65/17 17/68/17
f 14/69/18 16/70/18 17/71/18
f 16/70/18 14/69/18 15/72/18
o Mesh2_Group3_Group1_Model.001
v -1.460580 4.091640 1.460579
v -1.404470 4.005651 1.778569
v -1.404470 4.005650 1.404469
v -1.460580 4.091640 1.722459
v -1.722460 4.091640 1.460579
v -1.722460 4.091640 1.722459
v -1.778570 4.005651 1.778569
v -1.778570 4.005650 1.404469
v -1.996420 4.171900 1.342119
v -1.996420 4.171900 1.840919
v -2.432110 4.171900 1.840919
v -2.432110 4.171900 1.342119
v -1.996420 3.931120 1.342119
v -2.432110 3.931120 1.342119
v -2.432110 3.931120 1.840919
v -1.996420 3.931120 1.840919
v -1.778570 3.839400 1.404469
v -1.778570 3.839400 1.778569
v -1.707390 3.839400 1.475649
v -1.475650 3.839400 1.475649
v -1.404470 3.839400 1.404469
v -1.475650 3.839400 1.707389
v -1.404470 3.839400 1.778569
v -1.840920 3.931120 1.996419
v -1.342120 3.931120 1.996419
v -1.342120 4.171900 1.996419
v -1.186620 3.931120 1.840919
v -1.186620 4.171900 1.840919
v -0.750933 4.171900 1.840919
v -0.750933 3.931120 1.840919
v -0.750933 3.931120 1.342119
v -1.186620 3.931120 1.342119
v -1.186620 4.171900 1.342119
v -0.750933 4.171900 1.342119
v -0.309511 3.942590 1.342119
v -0.309511 3.942590 1.840919
v -0.309511 3.787810 1.840919
v -0.309511 3.787810 1.342119
v 0.000000 3.650220 1.411769
v 0.000000 3.575690 1.411769
v 0.000000 3.650220 1.711049
v 0.000000 3.575690 1.711049
v -1.342120 3.931120 1.186619
v -1.342120 4.171900 1.186619
v -1.342120 3.931120 0.750932
v -1.342120 4.171900 0.750932
v -1.342120 3.787810 0.309510
v -1.342120 3.942590 0.309510
v -1.471990 3.575690 -0.000001
v -1.471990 3.650220 -0.000001
v -1.771270 3.650220 -0.000001
v -1.771270 3.575690 -0.000001
v -1.840920 3.787810 0.309510
v -1.840920 3.931120 0.750932
v -1.840920 3.931120 1.186619
v -1.840920 4.171900 1.186619
v -1.840920 4.171900 0.750932
v -1.840920 3.942590 0.309510
v -1.840920 4.171900 1.996419
v -2.873530 3.942590 1.840919
v -2.873530 3.787810 1.840919
v -3.183040 3.650220 1.771269
v -3.183040 3.575690 1.771269
v -3.183040 3.650220 1.471989
v -3.183040 3.575690 1.471989
v -2.873530 3.787810 1.342119
v -2.873530 3.942590 1.342119
v -1.840920 3.931120 2.432109
v -1.840920 4.171900 2.432109
v -1.840920 3.787811 2.873529
v -1.840920 3.942590 2.873529
v -1.711050 3.575691 3.183039
v -1.711050 3.650220 3.183039
v -1.411770 3.650220 3.183039
v -1.411770 3.575691 3.183039
v -1.342120 3.787811 2.873529
v -1.342120 3.931120 2.432109
v -1.342120 4.171900 2.432109
v -1.342120 3.942590 2.873529
v -1.707390 3.839400 1.707389
vt -100.306000 84.491501
vt -122.144997 77.439796
vt -96.452698 77.439796
vt -118.291000 84.491501
vt 118.291000 100.306000
vt 100.306000 118.291000
vt 100.306000 100.306000
vt 118.291000 118.291000
vt 100.306000 -34.972698
vt 122.144997 -42.024399
vt 118.291000 -34.972698
vt 96.452698 -42.024399
vt 118.291000 84.491501
vt 96.452698 77.439796
vt 122.144997 77.439796
vt 100.306000 84.491501
vt 122.144997 96.452698
vt 96.452698 122.144997
vt 96.452698 96.452698
vt 122.144997 122.144997
vt -92.170700 133.832001
vt -122.144997 115.013000
vt -96.452698 115.013000
vt -126.427002 133.832001
vt 137.104996 92.170700
vt 167.026993 126.427002
vt 137.104996 126.427002
vt 167.026993 92.170700
vt 137.104996 24.409401
vt 167.026993 40.944901
vt 137.104996 40.944901
vt 167.026993 24.409401
vt -137.104996 92.170700
vt -167.026993 126.427002
vt -167.026993 92.170700
vt -137.104996 126.427002
vt 96.452698 119.600998
vt 126.427002 135.832993
vt 92.170700 135.832993
vt 122.144997 119.600998
vt -122.144997 96.452698
vt -117.255997 101.341003
vt -122.144997 122.144997
vt -101.341003 101.341003
vt -96.452698 96.452698
vt -101.341003 117.255997
vt -96.452698 122.144997
vt -96.452698 119.600998
vt -126.427002 135.832993
vt -122.144997 119.600998
vt -92.170700 135.832993
vt -90.888702 18.110201
vt -106.449997 40.944901
vt -106.449997 24.409401
vt -90.888702 29.527599
vt -43.557598 24.409401
vt -59.118900 29.527599
vt -59.118900 18.110201
vt -43.557598 40.944901
vt -81.492104 24.409401
vt -51.570801 40.944901
vt -81.492104 40.944901
vt -51.570801 24.409401
vt -81.492104 126.427002
vt -51.570801 92.170700
vt -51.570801 126.427002
vt -81.492104 92.170700
vt -122.144997 -81.866402
vt -92.170700 -65.633698
vt -126.427002 -65.633698
vt -96.452698 -81.866402
vt 119.269997 29.527599
vt 103.709000 24.409401
vt 119.269997 18.110201
vt 103.709000 40.944901
vt 122.144997 -58.761600
vt 92.170700 -39.942001
vt 96.452698 -58.761600
vt 126.427002 -39.942001
vt 81.492104 126.427002
vt 51.570801 92.170700
vt 81.492104 92.170700
vt 51.570801 126.427002
vt -126.427002 64.639397
vt -92.170700 30.478001
vt -92.170700 64.639397
vt -126.427002 30.478001
vt -21.255800 25.196899
vt -21.255800 14.566900
vt 126.427002 56.588100
vt 92.170700 24.715300
vt 126.427002 24.715300
vt 92.170700 56.588100
vt 51.570801 24.409401
vt 21.255800 25.196899
vt 21.255800 14.566900
vt 51.570801 40.944901
vt 81.492104 40.944901
vt 81.492104 24.409401
vt -21.285601 5.118110
vt 0.501765 14.566900
vt 0.501765 25.196899
vt -21.285601 0.000000
vt -117.508003 5.118110
vt -96.954002 0.000000
vt -96.954002 5.118110
vt -117.508003 0.000000
vt -45.466499 5.118110
vt -68.517700 14.566900
vt -45.466499 0.000000
vt -68.517700 25.196899
vt -96.954002 3.514570
vt -126.427002 32.754398
vt -117.508003 3.514570
vt -92.170700 32.754398
vt 126.427002 25.768299
vt 96.954002 0.000000
vt 117.508003 0.000000
vt 92.170700 25.768299
vt -103.709000 24.409401
vt -119.269997 29.527599
vt -119.269997 18.110201
vt -103.709000 40.944901
vt 39.114101 -0.000000
vt 16.062799 25.196899
vt 16.062799 14.566900
vt 39.114101 5.118110
vt 101.089996 0.000000
vt 121.642998 5.118110
vt 101.089996 5.118110
vt 121.642998 0.000000
vt -101.089996 -0.000000
vt -126.427002 25.768299
vt -121.642998 -0.000000
vt -92.170700 25.768299
vt -92.170700 24.715300
vt -126.427002 56.588100
vt -126.427002 24.715300
vt -92.170700 56.588100
vt -92.170700 51.570801
vt -126.427002 81.492104
vt -126.427002 51.570801
vt -92.170700 81.492104
vt 96.452698 -81.866402
vt 126.427002 -65.633698
vt 92.170700 -65.633698
vt 122.144997 -81.866402
vt 59.118900 18.110201
vt 43.557598 40.944901
vt 43.557598 24.409401
vt 59.118900 29.527599
vt 106.449997 24.409401
vt 90.888702 29.527599
vt 90.888702 18.110201
vt 106.449997 40.944901
vt -96.452698 -58.761600
vt -126.427002 -39.942001
vt -122.144997 -58.761600
vt -92.170700 -39.942001
vt 92.170700 51.570801
vt 126.427002 81.492104
vt 92.170700 81.492104
vt 126.427002 51.570801
vt 92.170700 30.478001
vt 126.427002 64.639397
vt 92.170700 64.639397
vt 126.427002 30.478001
vt 101.089996 3.514570
vt 126.427002 32.754398
vt 92.170700 32.754398
vt 121.642998 3.514570
vt 26.705999 5.118110
vt 48.493401 14.566900
vt 48.493401 25.196899
vt 26.705999 0.000000
vt 96.452698 115.013000
vt 126.427002 133.832001
vt 92.170700 133.832001
vt 122.144997 115.013000
vt -100.306000 -34.972698
vt -122.144997 -42.024399
vt -96.452698 -42.024399
vt -118.291000 -34.972698
vt 151.039993 29.527599
vt 166.600998 24.409401
vt 166.600998 40.944901
vt 151.039993 18.110201
vt -151.039993 29.527599
vt -166.600998 24.409401
vt -151.039993 18.110201
vt -166.600998 40.944901
vt -137.104996 40.944901
vt -167.026993 24.409401
vt -137.104996 24.409401
vt -167.026993 40.944901
vt -197.341003 25.196899
vt -197.341003 14.566900
vt -186.557999 5.118110
vt -164.770996 14.566900
vt -164.770996 25.196899
vt -186.557999 0.000000
vt 240.684998 5.118110
vt 217.634003 14.566900
vt 240.684998 -0.000000
vt 217.634003 25.196899
vt 121.642998 -155.393997
vt 92.170700 -126.154999
vt 101.089996 -155.393997
vt 126.427002 -126.154999
vt 126.427002 -163.505997
vt 92.170700 -129.345001
vt 92.170700 -163.505997
vt 126.427002 -129.345001
vt 197.341003 25.196899
vt 197.341003 14.566900
vt -92.170700 -151.324997
vt -126.427002 -183.197998
vt -92.170700 -183.197998
vt -126.427002 -151.324997
vt -121.642998 -180.317001
vt -92.170700 -154.548996
vt -126.427002 -154.548996
vt -101.089996 -180.317001
vt 156.104996 0.000000
vt 133.052994 25.196899
vt 133.052994 14.566900
vt 156.104996 5.118110
vt 126.427002 -154.548996
vt 96.954002 -180.317001
vt 117.508003 -180.317001
vt 92.170700 -154.548996
vt 126.427002 -183.197998
vt 92.170700 -151.324997
vt 92.170700 -183.197998
vt 126.427002 -151.324997
vt -126.427002 167.026993
vt -92.170700 137.104996
vt -92.170700 167.026993
vt -126.427002 137.104996
vt 92.170700 137.104996
vt 126.427002 167.026993
vt 92.170700 167.026993
vt 126.427002 137.104996
vt -126.427002 -163.505997
vt -92.170700 -129.345001
vt -126.427002 -129.345001
vt -92.170700 -163.505997
vt -126.427002 -126.154999
vt -96.954002 -155.393997
vt -92.170700 -126.154999
vt -117.508003 -155.393997
vt -234.550003 5.118110
vt -212.761993 14.566900
vt -212.761993 25.196899
vt -234.550003 0.000000
vt -117.255997 117.255997
vn 0.837500 0.546500 -0.000000
vn 0.000000 1.000000 -0.000000
vn -0.837500 0.546500 -0.000000
vn 0.000000 0.546500 -0.837500
vn 0.606700 0.795000 -0.000000
vn 0.000000 -0.000000 -1.000000
vn 0.000000 -1.000000 0.000000
vn -0.388000 -0.921600 0.000000
vn 0.000000 -0.921600 0.388000
vn 0.961400 0.000000 -0.275200
vn -0.275200 0.000000 0.961400
vn 0.000000 0.000000 1.000000
vn 0.388000 -0.921600 0.000000
vn -0.275200 -0.000000 -0.961400
vn -0.606700 0.795000 -0.000000
vn 0.461000 0.887400 0.000000
vn -0.308800 -0.951100 0.000000
vn 0.219500 0.000000 -0.975600
vn 1.000000 0.000000 -0.000000
vn 0.386900 0.000000 0.922100
vn 0.686700 0.726900 0.000000
vn -0.565300 -0.824900 -0.000000
vn 0.961400 0.000000 0.275200
vn 0.922100 -0.000000 -0.386900
vn 0.000000 -0.824900 0.565300
vn 0.000000 -0.951100 0.308800
vn 0.000000 -0.921600 -0.388000
vn -0.961400 -0.000000 0.275200
vn 0.275200 -0.000000 -0.961400
vn 0.000000 0.795000 0.606700
vn 0.000000 0.887400 -0.461000
vn 0.000000 0.726900 -0.686700
vn -0.975600 0.000000 -0.219500
vn -1.000000 -0.000000 0.000000
vn 0.000000 0.795000 -0.606700
vn 0.000000 0.546500 0.837500
vn -0.961400 -0.000000 -0.275200
vn 0.275200 0.000000 0.961400
vn -0.219500 0.000000 0.975600
vn -0.386900 0.000000 -0.922100
vn -0.686700 0.726900 0.000000
vn -0.461000 0.887400 0.000000
vn 0.308800 -0.951100 0.000000
vn 0.565300 -0.824900 0.000000
vn -0.922100 0.000000 0.386900
vn 0.000000 -0.824900 -0.565300
vn 0.000000 -0.951100 -0.308800
vn 0.000000 0.887400 0.461000
vn 0.000000 0.726900 0.686700
vn 0.975600 0.000000 0.219500
usemtl Green_leafs.043
s 1
f 21/73/19 22/74/19 23/75/19
f 22/74/19 21/73/19 24/76/19
f 25/77/20 24/78/20 21/79/20
f 24/78/20 25/77/20 26/80/20
f 25/81/21 27/82/21 26/83/21
f 27/82/21 25/81/21 28/84/21
f 25/85/22 23/86/22 28/87/22
f 23/86/22 25/85/22 21/88/22
f 28/89/20 22/90/20 23/91/20
f 22/90/20 28/89/20 27/92/20
f 29/93/23 27/94/23 28/95/23
f 27/94/23 29/93/23 30/96/23
f 29/97/20 31/98/20 30/99/20
f 31/98/20 29/97/20 32/100/20
f 33/101/24 32/102/24 29/103/24
f 32/102/24 33/101/24 34/104/24
f 33/105/25 35/106/25 34/107/25
f 35/106/25 33/105/25 36/108/25
f 37/109/26 36/110/26 33/111/26
f 36/110/26 37/109/26 38/112/26
f 37/113/25 39/114/25 38/115/25
f 37/113/25 40/116/25 39/114/25
f 41/117/25 40/116/25 37/113/25
f 40/116/25 41/117/25 42/118/25
f 43/119/25 42/118/25 41/117/25
f 42/118/25 43/119/25 38/115/25
f 43/120/27 44/121/27 38/122/27
f 44/121/27 43/120/27 45/123/27
f 43/124/28 46/125/28 45/126/28
f 46/125/28 43/124/28 22/127/28
f 47/128/29 22/129/29 43/130/29
f 22/129/29 47/128/29 48/131/29
f 47/132/30 49/133/30 48/134/30
f 49/133/30 47/132/30 50/135/30
f 47/136/25 51/137/25 50/138/25
f 51/137/25 47/136/25 52/139/25
f 43/140/31 52/141/31 47/142/31
f 52/141/31 43/140/31 41/143/31
f 23/144/32 52/145/32 41/146/32
f 52/145/32 23/144/32 53/147/32
f 22/148/33 53/149/33 23/150/33
f 53/149/33 22/148/33 48/151/33
f 48/152/20 54/153/20 53/154/20
f 54/153/20 48/152/20 49/155/20
f 49/156/34 55/157/34 54/158/34
f 55/157/34 49/156/34 56/159/34
f 50/135/30 56/160/30 49/133/30
f 56/160/30 50/135/30 57/161/30
f 50/162/35 58/163/35 57/164/35
f 58/163/35 50/162/35 51/165/35
f 51/166/24 55/167/24 58/168/24
f 55/167/24 51/166/24 54/169/24
f 51/166/24 53/170/24 54/169/24
f 53/170/24 51/166/24 52/171/24
f 59/172/36 58/173/36 55/174/36
f 58/173/36 59/172/36 60/175/36
f 61/176/37 60/177/37 59/178/37
f 60/177/37 61/176/37 62/179/37
f 61/180/38 57/181/38 62/182/38
f 57/181/38 61/180/38 56/183/38
f 59/184/39 56/185/39 61/186/39
f 56/185/39 59/184/39 55/187/39
f 57/188/40 60/189/40 62/190/40
f 60/189/40 57/188/40 58/191/40
f 63/192/41 23/193/41 41/194/41
f 23/193/41 63/192/41 64/195/41
f 65/135/37 64/134/37 63/132/37
f 64/134/37 65/135/37 66/133/37
f 67/161/37 66/133/37 65/135/37
f 66/133/37 67/161/37 68/160/37
f 69/196/42 68/197/42 67/198/42
f 68/197/42 69/196/42 70/199/42
f 69/200/24 71/201/24 70/202/24
f 71/201/24 69/200/24 72/203/24
f 69/204/43 73/205/43 72/206/43
f 73/205/43 69/204/43 67/207/43
f 67/208/44 74/209/44 73/210/44
f 74/209/44 67/208/44 65/211/44
f 65/212/25 75/213/25 74/214/25
f 75/213/25 65/212/25 63/215/25
f 41/216/45 75/217/45 63/218/45
f 75/217/45 41/216/45 37/219/45
f 37/220/46 76/221/46 75/222/46
f 76/221/46 37/220/46 28/223/46
f 33/224/47 28/225/47 37/226/47
f 28/225/47 33/224/47 29/227/47
f 23/228/48 76/229/48 28/230/48
f 76/229/48 23/228/48 64/231/48
f 66/232/20 76/233/20 64/234/20
f 76/233/20 66/232/20 77/235/20
f 68/236/49 77/237/49 66/238/49
f 77/237/49 68/236/49 78/239/49
f 70/240/50 78/241/50 68/242/50
f 78/241/50 70/240/50 71/243/50
f 71/244/51 73/245/51 78/246/51
f 73/245/51 71/244/51 72/247/51
f 74/166/52 78/167/52 73/168/52
f 78/167/52 74/166/52 77/169/52
f 75/171/52 77/169/52 74/166/52
f 77/169/52 75/171/52 76/170/52
f 22/248/53 79/249/53 46/250/53
f 79/249/53 22/248/53 27/251/53
f 24/252/54 27/253/54 22/254/54
f 27/253/54 24/252/54 26/255/54
f 27/256/55 44/257/55 79/258/55
f 44/257/55 27/256/55 38/259/55
f 27/260/56 36/261/56 38/262/56
f 36/261/56 27/260/56 30/263/56
f 30/264/30 35/265/30 36/266/30
f 35/265/30 30/264/30 31/267/30
f 80/268/30 35/265/30 31/267/30
f 35/265/30 80/268/30 81/269/30
f 82/270/57 81/271/57 80/272/57
f 81/271/57 82/270/57 83/273/57
f 84/202/52 83/203/52 82/201/52
f 83/203/52 84/202/52 85/200/52
f 84/274/58 86/275/58 85/276/58
f 86/275/58 84/274/58 87/277/58
f 82/278/59 87/279/59 84/280/59
f 87/279/59 82/278/59 80/281/59
f 80/282/60 32/283/60 87/284/60
f 32/283/60 80/282/60 31/285/60
f 34/104/24 87/286/24 32/102/24
f 87/286/24 34/104/24 86/287/24
f 34/288/61 81/289/61 86/290/61
f 81/289/61 34/288/61 35/291/61
f 83/292/62 86/293/62 81/294/62
f 86/293/62 83/292/62 85/295/62
f 88/104/52 79/103/52 44/101/52
f 79/103/52 88/104/52 89/102/52
f 90/287/52 89/102/52 88/104/52
f 89/102/52 90/287/52 91/286/52
f 92/296/63 91/297/63 90/298/63
f 91/297/63 92/296/63 93/299/63
f 92/179/30 94/178/30 93/176/30
f 94/178/30 92/179/30 95/177/30
f 90/300/64 95/301/64 92/302/64
f 95/301/64 90/300/64 96/303/64
f 90/304/65 97/305/65 96/306/65
f 97/305/65 90/304/65 88/307/65
f 88/308/25 45/309/25 97/310/25
f 45/309/25 88/308/25 44/311/25
f 45/266/37 98/267/37 97/265/37
f 98/267/37 45/266/37 46/264/37
f 46/312/20 89/313/20 98/314/20
f 89/313/20 46/312/20 79/315/20
f 91/316/66 98/317/66 89/318/66
f 98/317/66 91/316/66 99/319/66
f 91/320/67 94/321/67 99/322/67
f 94/321/67 91/320/67 93/323/67
f 94/324/68 96/325/68 99/326/68
f 96/325/68 94/324/68 95/327/68
f 97/265/37 99/268/37 96/269/37
f 99/268/37 97/265/37 98/267/37
f 42/118/25 38/115/25 100/328/25
f 100/328/25 38/115/25 39/114/25
f 40/116/25 100/328/25 39/114/25
f 100/328/25 40/116/25 42/118/25
