# Blender v2.76 (sub 0) OBJ File: ''
# www.blender.org
mtllib naturePack_031.mtl
o Mesh1_Tall_Rock_3_Model
v -1.434140 0.560000 0.552000
v -0.796743 0.000000 0.000000
v -1.593490 0.000000 0.460000
v -0.796743 0.560000 0.184000
v -1.332150 0.920000 0.596160
v -0.796743 0.920000 0.287040
v -1.171530 1.970000 0.628896
v -0.796743 1.970000 0.412512
v -0.967061 1.970000 0.998049
v -0.767868 1.970000 0.752337
v -0.741895 1.970000 0.894036
v -1.040050 0.920000 1.123520
v -0.718388 0.920000 0.974932
v -1.064450 0.920000 1.368960
v -0.681284 0.920000 1.177360
v -1.115440 0.560000 1.472000
v -0.659291 0.560000 1.243900
v -0.796743 0.560000 1.656000
v -0.159349 0.560000 1.288000
v -0.796743 0.000000 1.840000
v 0.000000 0.000000 1.380000
v 0.000000 0.000000 0.460000
v -1.593490 0.000000 1.380000
v -1.434140 0.560000 1.288000
v -1.332150 0.920000 1.214400
v -1.332150 0.920000 0.896416
v -1.171530 1.970000 0.839075
v -0.159349 0.560000 0.552000
v -0.261332 0.920000 0.596160
v -0.421955 1.970000 0.628896
v -0.421955 1.970000 0.752337
v -0.755492 0.920000 0.772504
v -0.261332 0.920000 0.772504
v -0.747635 0.560000 0.761934
v -0.159349 0.560000 0.761934
vt 59.763802 18.629999
vt 27.165400 -4.292480
vt 63.385799 -4.292480
vt 30.787399 18.629999
vt 57.155899 33.737701
vt 30.787399 19.135500
vt 59.763802 19.135500
vt 32.815701 33.737701
vt 52.323799 76.980400
vt 32.815701 35.421001
vt 57.155899 35.421001
vt 35.285702 76.980400
vt 38.073299 39.293301
vt 31.367800 16.240601
vt 46.123299 24.759701
vt 30.231001 29.619600
vt 29.208500 35.198299
vt -55.722000 34.289398
vt -41.276699 75.757896
vt -51.041599 75.757896
vt -41.772202 34.289398
vt 41.907398 53.896099
vt 28.283001 38.383099
vt 40.946999 44.233101
vt 26.822201 46.352699
vt -65.197197 15.559200
vt -44.721199 29.993000
vt -61.587299 29.993000
vt -45.118500 15.559200
vt 31.367800 65.196899
vt 25.956400 48.972599
vt 43.915001 57.952801
vt 6.273570 50.708698
vt -63.385799 -12.877400
vt -30.787399 10.045000
vt -59.763802 10.045000
vt -27.165400 -12.877400
vt -31.367800 72.440903
vt 0.000000 18.110201
vt 0.000000 54.330700
vt -31.367800 0.000000
vt -62.735699 54.330700
vt 5.433070 1.460040
vt -27.165400 -21.462400
vt 9.055120 -21.462400
vt -23.543301 1.460040
vt -9.055120 1.460040
vt -9.344880 13.974700
vt -23.543301 -0.900868
vt -9.055120 -0.900868
vt -21.514999 13.974700
vt 52.446999 35.292000
vt 52.446999 47.811001
vt -5.939260 69.458298
vt -19.742800 27.733500
vt -5.175900 27.733500
vt -16.136101 69.458298
vt 46.123299 33.034500
vt 24.759701 69.692596
vt 35.292000 27.873199
vt 33.034500 69.692596
vt 23.470900 27.873199
vt 23.470900 20.554100
vt 50.708698 5.823140
vt 35.292000 20.554100
vt 21.732300 5.823140
vt 21.732300 5.752520
vt 54.330700 -17.169901
vt 50.708698 5.752520
vt 18.110201 -17.169901
vt -62.735699 18.110201
vt 47.811001 20.554100
vt 23.543301 27.214899
vt -9.055120 4.292480
vt 27.165400 4.292480
vt -5.433070 27.214899
vt 21.514999 41.284599
vt -5.433070 26.682501
vt 23.543301 26.682501
vt -2.825200 41.284599
vt 19.045000 80.209297
vt -2.825200 38.650002
vt 21.514999 38.650002
vt 2.006920 80.209297
vt 16.612400 29.619600
vt 16.612400 24.759701
vt -29.743799 35.629799
vt -16.612400 76.975998
vt -30.231001 76.975998
vt -10.288700 35.629799
vt -29.434500 22.918200
vt -10.288700 37.097500
vt -29.743799 37.097500
vt -6.273570 22.918200
vt 29.434500 29.997400
vt 6.273570 29.997400
vt -24.552601 37.136902
vt -43.490299 22.958599
vt -24.198999 22.958599
vt -32.654900 37.136902
vt -24.552601 36.501701
vt -29.355400 77.841599
vt -32.654900 36.501701
vt -23.683701 77.841599
vt -40.757301 37.136902
vt -54.330700 0.000000
vt -29.997400 22.922400
vt -50.708698 22.922400
vt -21.732300 22.922400
vt -18.110201 0.000000
vt -23.470900 37.653400
vt -30.413601 37.653400
vt -24.759701 79.179199
vt -30.413601 37.359798
vt -23.470900 37.359798
vt -29.619600 79.179199
vn -0.483200 0.257200 -0.836900
vn -0.480900 0.273700 -0.833000
vn -0.492500 0.172200 -0.853100
vn -0.497300 0.102900 -0.861400
vn 0.000000 1.000000 -0.000000
vn 0.418000 0.079100 0.905000
vn 0.439200 0.189200 0.878300
vn 0.480900 0.273700 0.833000
vn 0.000000 -1.000000 0.000000
vn -0.480900 0.273700 0.833000
vn -0.478700 0.288800 0.829100
vn -0.476700 0.342700 0.809500
vn -0.476400 0.303700 0.825100
vn -0.608100 0.135700 0.782200
vn -0.988500 0.151200 0.000000
vn -0.977200 0.212300 0.000000
vn -0.962000 0.273200 -0.000000
vn -0.961800 0.273700 -0.000000
vn -0.962100 0.272600 -0.000000
vn 0.483200 0.257200 -0.836900
vn 0.480900 0.273700 -0.833000
vn 0.492500 0.172200 -0.853100
vn 0.497300 0.102900 -0.861400
vn 0.000000 -0.004800 1.000000
vn 0.000000 0.019200 0.999800
vn 0.000000 -0.005100 1.000000
vn 0.000000 -0.029300 0.999600
vn 0.983500 0.017500 -0.180300
vn 0.983300 0.026800 -0.180200
vn 0.983500 0.017400 -0.180300
vn 0.983600 0.008100 -0.180300
vn 0.961800 0.273700 -0.000000
vn 0.961900 0.273300 -0.000000
vn 0.962000 0.273200 -0.000000
vn 0.977200 0.212300 -0.000000
vn 0.977200 0.212100 0.000000
vn 0.988500 0.151200 0.000000
usemtl Stone.010
s 1
f 1/1/1 2/2/2 3/3/2
f 2/2/2 1/1/1 4/4/1
f 5/5/3 4/6/1 1/7/1
f 4/6/1 5/5/3 6/8/3
f 7/9/4 6/10/3 5/11/3
f 6/10/3 7/9/4 8/12/4
f 9/13/5 8/14/5 7/15/5
f 9/13/5 10/16/5 8/14/5
f 10/16/5 9/13/5 11/17/5
f 12/18/6 11/19/6 9/20/6
f 11/19/6 12/18/6 13/21/6
f 14/22/5 13/23/5 12/24/5
f 13/23/5 14/22/5 15/25/5
f 16/26/7 15/27/7 14/28/7
f 15/27/7 16/26/7 17/29/7
f 18/30/5 17/31/5 16/32/5
f 17/31/5 18/30/5 19/33/5
f 20/34/8 19/35/8 18/36/8
f 19/35/8 20/34/8 21/37/8
f 20/38/9 22/39/9 21/40/9
f 22/39/9 20/38/9 2/41/9
f 2/41/9 20/38/9 23/42/9
f 18/43/10 23/44/10 20/45/10
f 23/44/10 18/43/10 24/46/11
f 24/46/11 18/43/10 16/47/12
f 14/48/13 24/49/11 16/50/12
f 24/49/11 14/48/13 25/51/13
f 14/22/5 26/52/5 25/53/5
f 14/22/5 12/24/5 26/52/5
f 9/54/14 26/55/14 12/56/14
f 26/55/14 9/54/14 27/57/14
f 9/13/5 7/15/5 27/58/5
f 7/59/15 26/60/16 27/61/15
f 26/60/16 7/59/15 5/62/16
f 5/63/16 24/64/17 26/65/16
f 24/64/17 5/63/16 1/66/17
f 1/67/17 23/68/18 24/69/17
f 23/68/18 1/67/17 3/70/18
f 2/41/9 23/42/9 3/71/9
f 26/65/16 24/64/17 25/72/19
f 4/73/20 22/74/21 2/75/21
f 22/74/21 4/73/20 28/76/20
f 6/77/22 28/78/20 4/79/20
f 28/78/20 6/77/22 29/80/22
f 8/81/23 29/82/22 6/83/22
f 29/82/22 8/81/23 30/84/23
f 8/14/5 31/85/5 30/86/5
f 31/85/5 8/14/5 10/16/5
f 32/87/24 31/88/25 10/89/25
f 31/88/25 32/87/24 33/90/26
f 34/91/27 33/92/26 32/93/24
f 33/92/26 34/91/27 35/94/27
f 34/95/5 19/33/5 35/96/5
f 19/33/5 34/95/5 17/31/5
f 32/97/28 17/98/29 34/99/29
f 17/98/29 32/97/28 13/100/30
f 32/101/28 11/102/31 13/103/30
f 11/102/31 32/101/28 10/104/31
f 17/98/29 13/100/30 15/105/29
f 21/106/32 35/107/33 19/108/32
f 21/106/32 28/109/34 35/107/33
f 28/109/34 21/106/32 22/110/32
f 29/111/35 35/107/33 28/109/34
f 35/107/33 29/111/35 33/112/36
f 30/113/37 33/114/36 29/115/35
f 33/114/36 30/113/37 31/116/37
