# Blender v2.76 (sub 0) OBJ File: ''
# www.blender.org
mtllib naturePack_039.mtl
o Mesh1_Group1_Model.028
v -1.031490 3.530000 1.031489
v -0.760000 3.900000 0.759999
v -1.031490 3.530000 0.488509
v -0.488510 3.530000 1.031489
v -1.212480 0.420000 1.212480
v -0.307516 0.420000 1.212480
v -1.406000 0.420000 1.406000
v -0.114000 0.420000 1.406000
v -0.307516 0.420000 0.307516
v -0.114000 0.420000 0.114000
v -1.406000 0.420000 0.114000
v 0.000000 0.000000 0.000000
v -1.520000 0.000000 0.000000
v -1.520000 0.000000 1.520000
v 0.000000 0.000000 1.520000
v -1.212480 0.420000 0.307516
v -0.488510 3.530000 0.488509
vt 40.609901 88.024399
vt 29.921301 106.092003
vt 19.232700 88.024399
vt -29.921301 106.092003
vt -40.609901 88.024399
vt -19.232700 88.024399
vt -47.735600 13.734100
vt -19.232700 136.382004
vt -40.609901 136.382004
vt -12.106900 13.734100
vt 55.354301 55.354301
vt 12.106900 47.735600
vt 47.735600 47.735600
vt 4.488190 55.354301
vt 12.106900 12.106900
vt 4.488190 4.488190
vt 55.354301 4.488190
vt 0.000000 0.000000
vt 55.354301 17.133699
vt 4.488190 17.133699
vt 59.842499 0.000000
vt -59.842499 59.842499
vt -59.842499 0.000000
vt 0.000000 59.842499
vt -4.488190 17.133699
vt -55.354301 17.133699
vt -4.488190 1.457930
vt -59.842499 -15.675800
vt -0.000000 -15.675800
vt -55.354301 1.457930
vt 4.488190 1.457930
vt 59.842499 -15.675800
vt 55.354301 1.457930
vt 47.735600 12.106900
vt 40.609901 139.858994
vt 12.106900 17.210899
vt 47.735600 17.210899
vt 19.232700 139.858994
vt 29.921301 141.494003
vt 19.232700 123.426003
vt 40.609901 123.426003
vt -40.609901 123.426003
vt -19.232700 123.426003
vt -29.921301 141.494003
vt -47.735600 17.210899
vt -19.232700 139.858994
vt -40.609901 139.858994
vt -12.106900 17.210899
vt 47.735600 13.734100
vt 19.232700 136.382004
vt 12.106900 13.734100
vt 40.609901 136.382004
vn -0.806200 0.591600 0.000000
vn 0.000000 0.591600 0.806200
vn 0.000000 0.058100 0.998300
vn -0.000000 1.000000 -0.000000
vn 0.000000 0.262000 -0.965100
vn 0.000000 -1.000000 0.000000
vn 0.965100 0.262000 -0.000000
vn 0.000000 0.262000 0.965100
vn -0.965100 0.262000 -0.000000
vn 0.000000 0.058100 -0.998300
vn 0.000000 0.591600 -0.806200
vn 0.806200 0.591600 0.000000
vn 0.998300 0.058100 -0.000000
vn -0.998300 0.058100 0.000000
usemtl Stone.013
s 1
f 1/1/1 2/2/1 3/3/1
f 2/4/2 1/5/2 4/6/2
f 5/7/3 4/8/3 1/9/3
f 4/8/3 5/7/3 6/10/3
f 7/11/4 6/12/4 5/13/4
f 8/14/4 6/12/4 7/11/4
f 6/12/4 8/14/4 9/15/4
f 10/16/4 9/15/4 8/14/4
f 9/15/4 10/16/4 11/17/4
f 12/18/5 11/19/5 10/20/5
f 11/19/5 12/18/5 13/21/5
f 12/18/6 14/22/6 13/23/6
f 14/22/6 12/18/6 15/24/6
f 10/25/7 15/23/7 12/18/7
f 15/23/7 10/25/7 8/26/7
f 8/27/8 14/28/8 15/29/8
f 14/28/8 8/27/8 7/30/8
f 11/31/9 14/32/9 7/33/9
f 14/32/9 11/31/9 13/29/9
f 7/11/4 5/13/4 11/17/4
f 16/34/4 11/17/4 5/13/4
f 9/15/4 11/17/4 16/34/4
f 3/35/10 9/36/10 16/37/10
f 9/36/10 3/35/10 17/38/10
f 2/39/11 17/40/11 3/41/11
f 4/42/12 17/43/12 2/44/12
f 6/45/13 17/46/13 4/47/13
f 17/46/13 6/45/13 9/48/13
f 5/49/14 3/50/14 16/51/14
f 3/50/14 5/49/14 1/52/14
